<svg width="24" height="75" viewBox="0 0 24 75" fill="none" xmlns="http://www.w3.org/2000/svg">
<path d="M10.9393 74.0607C11.5251 74.6464 12.4749 74.6464 13.0607 74.0607L22.6066 64.5147C23.1924 63.9289 23.1924 62.9792 22.6066 62.3934C22.0208 61.8076 21.0711 61.8076 20.4853 62.3934L12 70.8787L3.51472 62.3934C2.92893 61.8076 1.97919 61.8076 1.3934 62.3934C0.807611 62.9792 0.807611 63.9289 1.3934 64.5147L10.9393 74.0607ZM10.5 0V3.04167H13.5V0L10.5 0ZM10.5 9.125V15.2083H13.5V9.125H10.5ZM10.5 21.2917V27.375H13.5V21.2917H10.5ZM10.5 33.4583V39.5417H13.5V33.4583H10.5ZM10.5 45.625V51.7083H13.5V45.625H10.5ZM10.5 57.7917V63.875H13.5V57.7917H10.5ZM10.5 69.9583V73H13.5V69.9583H10.5Z" fill="url(#paint0_linear_144_2404)"/>
<defs>
<linearGradient id="paint0_linear_144_2404" x1="12" y1="36.5" x2="11" y2="36.5" gradientUnits="userSpaceOnUse">
<stop stop-color="#3BB3C1"/>
<stop offset="1" stop-color="#1B8895"/>
</linearGradient>
</defs>
</svg>
