<svg width="220" height="23" viewBox="0 0 220 23" fill="none" xmlns="http://www.w3.org/2000/svg">
<path d="M219.075 12.5607C219.661 11.9749 219.661 11.0251 219.075 10.4393L209.529 0.893398C208.943 0.307611 207.994 0.307611 207.408 0.893398C206.822 1.47919 206.822 2.42893 207.408 3.01472L215.893 11.5L207.408 19.9853C206.822 20.5711 206.822 21.5208 207.408 22.1066C207.994 22.6924 208.943 22.6924 209.529 22.1066L219.075 12.5607ZM0.99884 13H4.01295V10H0.99884V13ZM10.0412 13H16.0694V10H10.0412V13ZM22.0976 13H28.1258V10H22.0976V13ZM34.154 13H40.1822V10H34.154V13ZM46.2104 13H52.2387V10H46.2104V13ZM58.2669 13H64.2951V10H58.2669V13ZM70.3233 13H76.3515V10H70.3233V13ZM82.3797 13H88.4079V10H82.3797V13ZM94.4361 13H100.464V10H94.4361V13ZM106.493 13H112.521V10H106.493V13ZM118.549 13H124.577V10H118.549V13ZM130.605 13H136.634V10H130.605V13ZM142.662 13H148.69V10H142.662V13ZM154.718 13H160.746V10H154.718V13ZM166.775 13H172.803V10H166.775V13ZM178.831 13H184.859V10H178.831V13ZM190.888 13H196.916V10H190.888V13ZM202.944 13H208.972V10H202.944V13ZM215 13H218.015V10H215V13Z" fill="url(#paint0_linear_144_2349)"/>
<defs>
<linearGradient id="paint0_linear_144_2349" x1="109.507" y1="11.5" x2="109.507" y2="12.5" gradientUnits="userSpaceOnUse">
<stop stop-color="#3BB3C1"/>
<stop offset="1" stop-color="#1B8895"/>
</linearGradient>
</defs>
</svg>
