<svg width="13" height="56" viewBox="0 0 13 56" fill="none" xmlns="http://www.w3.org/2000/svg">
<path d="M7.25 1.20117C7.25 0.786958 6.91421 0.451172 6.5 0.451172C6.08579 0.451172 5.75 0.786958 5.75 1.20117L7.25 1.20117ZM5.96967 55.651C6.26257 55.9439 6.73744 55.9439 7.03033 55.651L11.8033 50.878C12.0962 50.5852 12.0962 50.1103 11.8033 49.8174C11.5104 49.5245 11.0355 49.5245 10.7426 49.8174L6.5 54.06L2.25736 49.8174C1.96447 49.5245 1.48959 49.5245 1.1967 49.8174C0.903808 50.1103 0.903808 50.5852 1.1967 50.878L5.96967 55.651ZM5.75 1.20117L5.75 55.1207L7.25 55.1207L7.25 1.20117L5.75 1.20117Z" fill="white"/>
</svg>
