<svg width="68" height="68" viewBox="0 0 68 68" fill="none" xmlns="http://www.w3.org/2000/svg">
<g filter="url(#filter0_d_1898_4529)">
<path opacity="0.2" d="M4 8C4 3.58172 7.58172 0 12 0H56C60.4183 0 64 3.58172 64 8V52C64 56.4183 60.4183 60 56 60H12C7.58172 60 4 56.4183 4 52V8Z" fill="url(#paint0_linear_1898_4529)"/>
<path d="M47.6453 15.7598C46.3469 15.7598 45.2906 16.816 45.2906 18.1145C45.2906 18.601 45.4389 19.0536 45.6928 19.4293L42.2301 23.0428C41.8718 22.8223 41.4504 22.6948 40.9998 22.6948C40.2551 22.6948 39.5906 23.0426 39.1588 23.5839L36.6387 22.3409C36.6842 22.1585 36.7087 21.9678 36.7087 21.7715C36.7087 20.4731 35.6524 19.4168 34.354 19.4168C33.9894 19.4168 33.6439 19.5001 33.3354 19.6487C31.6866 18.4718 29.7484 17.8513 27.7084 17.8513C22.3552 17.8513 18 22.2065 18 27.5596C18 32.9128 22.3552 37.268 27.7084 37.268C29.9486 37.268 32.0136 36.5049 33.6582 35.2255L35.8493 37.3516C35.7379 37.5531 35.6792 37.7808 35.6828 38.0179C35.6881 38.3758 35.8319 38.7093 36.0875 38.9574L41.1443 43.8643C41.4037 44.116 41.7396 44.2412 42.0753 44.2412C42.4245 44.2412 42.7733 44.1056 43.0351 43.836L44.8608 41.9545C45.1089 41.6988 45.2425 41.361 45.2371 41.0031C45.2317 40.6455 45.0879 40.3118 44.8323 40.0638L39.7755 35.1567C39.5199 34.9086 39.1814 34.7746 38.8242 34.7804C38.5871 34.784 38.3612 34.8495 38.1632 34.9668L35.8976 32.7683C36.8588 31.2623 37.4165 29.475 37.4165 27.5597C37.4165 26.1073 37.0896 24.6728 36.4674 23.3716L38.7148 24.4801C38.6693 24.6626 38.6448 24.8532 38.6448 25.0495C38.6448 26.3479 39.7011 27.4043 40.9996 27.4043C42.298 27.4043 43.3542 26.348 43.3542 25.0495C43.3542 24.563 43.2059 24.1104 42.9521 23.7346L46.4147 20.1211C46.773 20.3416 47.1944 20.4691 47.6451 20.4691C48.9434 20.4691 49.9998 19.4129 49.9998 18.1145C49.9998 16.816 48.9437 15.7598 47.6453 15.7598ZM35.7087 21.7715C35.7087 22.5184 35.1009 23.1261 34.354 23.1261C33.6071 23.1261 32.9993 22.5184 32.9993 21.7715C32.9993 21.0245 33.6071 20.4168 34.354 20.4168C35.1009 20.4168 35.7087 21.0245 35.7087 21.7715ZM29.063 27.5596C29.063 28.3066 28.4552 28.9143 27.7083 28.9143C26.9614 28.9143 26.3536 28.3066 26.3536 27.5596C26.3536 26.8127 26.9614 26.205 27.7083 26.205C28.4552 26.205 29.063 26.8127 29.063 27.5596ZM29.1144 25.672C28.7218 25.3788 28.2349 25.205 27.7083 25.205C26.41 25.205 25.3536 26.2613 25.3536 27.5597C25.3536 28.8581 26.4099 29.9144 27.7083 29.9144C29.0067 29.9144 30.063 28.8581 30.063 27.5597C30.063 27.1489 29.957 26.7625 29.7713 26.4259L32.6284 23.9376C33.3771 24.952 33.8205 26.205 33.8205 27.5597C33.8205 30.93 31.0786 33.6718 27.7084 33.6718C24.3381 33.6718 21.5963 30.93 21.5963 27.5597C21.5963 24.1895 24.3381 21.4476 27.7084 21.4476C29.3649 21.4476 30.8692 22.1103 31.9711 23.184L29.1144 25.672ZM38.8394 35.7803C38.8412 35.7803 38.843 35.7802 38.8447 35.7802C38.9335 35.7802 39.0166 35.8135 39.0793 35.8744L44.136 40.7815C44.1999 40.8435 44.236 40.9276 44.2373 41.0183C44.2387 41.109 44.2052 41.1941 44.1432 41.2581L42.3175 43.1396C42.1902 43.2708 41.9721 43.274 41.8407 43.1467L36.7839 38.2398C36.72 38.1777 36.684 38.0936 36.6827 38.0029C36.6813 37.9121 36.7148 37.827 36.7768 37.7631L38.6025 35.8815C38.6645 35.8176 38.7487 35.7816 38.8394 35.7803ZM37.4326 35.6511L36.5113 36.6006L34.4182 34.5695C34.737 34.2642 35.0349 33.9373 35.3099 33.5913L37.4326 35.6511ZM27.7084 36.268C22.9066 36.268 19 32.3614 19 27.5596C19 22.7578 22.9066 18.8513 27.7084 18.8513C29.4414 18.8513 31.0921 19.3504 32.518 20.2996C32.1939 20.7031 31.9993 21.2148 31.9993 21.7715C31.9993 21.8126 32.0004 21.8535 32.0025 21.8942C30.8084 20.9869 29.3202 20.4475 27.7083 20.4475C23.7866 20.4475 20.5961 23.638 20.5961 27.5596C20.5961 31.4813 23.7866 34.6718 27.7083 34.6718C31.6299 34.6718 34.8204 31.4813 34.8204 27.5596C34.8204 26.298 34.4897 25.1122 33.9111 24.0838C34.0546 24.1112 34.2026 24.1261 34.3539 24.1261C34.7948 24.1261 35.2075 24.004 35.5606 23.7924C36.1218 24.962 36.4166 26.2526 36.4166 27.5596C36.4167 32.3614 32.5101 36.268 27.7084 36.268ZM40.9998 26.4042C40.2528 26.4042 39.645 25.7965 39.645 25.0495C39.645 24.3025 40.2528 23.6948 40.9998 23.6948C41.7467 23.6948 42.3544 24.3025 42.3544 25.0495C42.3544 25.7965 41.7467 26.4042 40.9998 26.4042ZM47.6453 19.4691C46.8983 19.4691 46.2906 18.8614 46.2906 18.1145C46.2906 17.3675 46.8983 16.7598 47.6453 16.7598C48.3923 16.7598 49 17.3675 49 18.1145C49 18.8614 48.3923 19.4691 47.6453 19.4691Z" fill="url(#paint1_linear_1898_4529)"/>
</g>
<defs>
<filter id="filter0_d_1898_4529" x="0" y="0" width="68" height="68" filterUnits="userSpaceOnUse" color-interpolation-filters="sRGB">
<feFlood flood-opacity="0" result="BackgroundImageFix"/>
<feColorMatrix in="SourceAlpha" type="matrix" values="0 0 0 0 0 0 0 0 0 0 0 0 0 0 0 0 0 0 127 0" result="hardAlpha"/>
<feOffset dy="4"/>
<feGaussianBlur stdDeviation="2"/>
<feComposite in2="hardAlpha" operator="out"/>
<feColorMatrix type="matrix" values="0 0 0 0 0 0 0 0 0 0 0 0 0 0 0 0 0 0 0.25 0"/>
<feBlend mode="normal" in2="BackgroundImageFix" result="effect1_dropShadow_1898_4529"/>
<feBlend mode="normal" in="SourceGraphic" in2="effect1_dropShadow_1898_4529" result="shape"/>
</filter>
<linearGradient id="paint0_linear_1898_4529" x1="4" y1="29.3333" x2="64.1434" y2="30.3728" gradientUnits="userSpaceOnUse">
<stop stop-color="#3134DB"/>
<stop offset="1" stop-color="#009EE1"/>
</linearGradient>
<linearGradient id="paint1_linear_1898_4529" x1="18" y1="29.684" x2="50.0738" y2="30.3069" gradientUnits="userSpaceOnUse">
<stop stop-color="#3134DB"/>
<stop offset="1" stop-color="#009EE1"/>
</linearGradient>
</defs>
</svg>
