<svg width="64" height="64" viewBox="0 0 64 64" fill="none" xmlns="http://www.w3.org/2000/svg">
<path d="M54.8499 11H9.86281C9.1038 11.0008 8.37612 11.3027 7.83942 11.8394C7.30273 12.3761 7.00084 13.1038 7 13.8628V44.1268C7.00084 44.8858 7.30273 45.6135 7.83942 46.1502C8.37612 46.6869 9.1038 46.9888 9.86281 46.9896H26.4508L25.96 49.4435H22.541C22.324 49.4435 22.116 49.5296 21.9626 49.683C21.8092 49.8364 21.723 50.0445 21.723 50.2614V52.7153C21.723 52.9322 21.8092 53.1402 21.9626 53.2936C22.116 53.447 22.324 53.5332 22.541 53.5332H42.1717C42.3886 53.5332 42.5967 53.447 42.7501 53.2936C42.9035 53.1402 42.9896 52.9322 42.9896 52.7153V50.2614C42.9896 50.0445 42.9035 49.8364 42.7501 49.683C42.5967 49.5296 42.3886 49.4435 42.1717 49.4435H38.7527L38.2619 46.9896H54.8499C55.6089 46.9888 56.3365 46.6869 56.8732 46.1502C57.4099 45.6135 57.7118 44.8858 57.7127 44.1268V13.8628C57.7118 13.1038 57.4099 12.3761 56.8732 11.8394C56.3365 11.3027 55.6089 11.0008 54.8499 11ZM41.3537 51.0794V51.8973H23.3589V51.0794H41.3537ZM27.6286 49.4435L28.1194 46.9896H36.5933L37.0841 49.4435H27.6286ZM56.0768 44.1268C56.0765 44.4521 55.9472 44.7641 55.7171 44.9941C55.4871 45.2241 55.1752 45.3535 54.8499 45.3537H9.86281C9.5375 45.3535 9.22558 45.2241 8.99555 44.9941C8.76551 44.7641 8.63616 44.4521 8.63589 44.1268V42.082H56.0768V44.1268ZM56.0768 40.4461H8.63589V13.8628C8.63616 13.5375 8.76551 13.2256 8.99555 12.9955C9.22558 12.7655 9.5375 12.6362 9.86281 12.6359H54.8499C55.1752 12.6362 55.4871 12.7655 55.7171 12.9955C55.9472 13.2256 56.0765 13.5375 56.0768 13.8628V40.4461Z" fill="url(#paint0_linear_1953_7217)"/>
<path d="M33.1745 42.9004H31.5386C31.3217 42.9004 31.1137 42.9866 30.9603 43.14C30.8069 43.2934 30.7207 43.5014 30.7207 43.7183C30.7207 43.9353 30.8069 44.1433 30.9603 44.2967C31.1137 44.4501 31.3217 44.5363 31.5386 44.5363H33.1745C33.3915 44.5363 33.5995 44.4501 33.7529 44.2967C33.9063 44.1433 33.9925 43.9353 33.9925 43.7183C33.9925 43.5014 33.9063 43.2934 33.7529 43.14C33.5995 42.9866 33.3915 42.9004 33.1745 42.9004Z" fill="url(#paint1_linear_1953_7217)"/>
<defs>
<linearGradient id="paint0_linear_1953_7217" x1="7" y1="31.794" x2="57.8274" y2="32.8414" gradientUnits="userSpaceOnUse">
<stop stop-color="#3134DB"/>
<stop offset="1" stop-color="#009EE1"/>
</linearGradient>
<linearGradient id="paint1_linear_1953_7217" x1="30.7207" y1="43.7002" x2="33.9974" y2="43.8134" gradientUnits="userSpaceOnUse">
<stop stop-color="#3134DB"/>
<stop offset="1" stop-color="#009EE1"/>
</linearGradient>
</defs>
</svg>
