<svg width="64" height="64" viewBox="0 0 64 64" fill="none" xmlns="http://www.w3.org/2000/svg">
<path d="M22.7886 54.0256C22.7886 53.5749 22.7943 53.1242 22.7886 52.6735C22.7774 51.8509 22.4731 51.034 21.8478 50.482C21.2224 49.9242 20.3774 49.6031 19.5379 49.7045C18.7492 49.8003 18.1351 50.1608 17.5774 50.7186L16.9689 51.327C16.907 51.389 16.8394 51.4566 16.7774 51.5186C16.7548 51.5411 16.6591 51.6144 16.7267 51.5693C16.8055 51.5129 16.6647 51.5975 16.6478 51.6087C16.5577 51.6538 16.7492 51.5636 16.6027 51.6144C16.6703 51.6144 16.721 51.5693 16.6027 51.6144C16.552 51.6144 16.5013 51.6144 16.4506 51.6087C16.6534 51.6369 16.4619 51.6031 16.4562 51.5918C16.4957 51.6707 16.5351 51.6087 16.445 51.5862C16.3548 51.5693 16.3661 51.5355 16.4224 51.5862C16.4619 51.62 16.383 51.5524 16.3605 51.5298C16.3548 51.5242 16.3492 51.5186 16.3436 51.5129C16.2647 51.4341 16.1858 51.3552 16.107 51.2763C15.3295 50.4989 14.552 49.7214 13.7745 48.9439C13.4309 48.6002 13.0872 48.2566 12.738 47.9073C12.6591 47.8285 12.5746 47.7496 12.4957 47.6651C12.4675 47.6369 12.4394 47.6087 12.4168 47.5806C12.507 47.6876 12.4168 47.5806 12.4168 47.558C12.383 47.3947 12.3718 47.5299 12.4112 47.5468C12.4056 47.5242 12.3999 47.4961 12.3887 47.4735C12.3943 47.5637 12.3943 47.5749 12.3887 47.513C12.3943 47.451 12.383 47.389 12.3887 47.327C12.3605 47.5299 12.3943 47.3383 12.4056 47.3327C12.3267 47.3721 12.3887 47.4115 12.4112 47.3214C12.4281 47.2313 12.4619 47.2425 12.4112 47.2989C12.4281 47.2763 12.4506 47.2594 12.4675 47.2369L13.2506 46.4538C13.7464 45.958 14.152 45.4002 14.2647 44.6904C14.5464 42.8707 13.1774 41.237 11.3295 41.2144C10.8788 41.2088 10.4281 41.2088 9.97742 41.2144H9.89855C10.0225 41.22 9.92108 41.2538 9.89855 41.2088C9.90418 41.22 9.707 41.1186 9.89292 41.2144C9.84784 41.1919 9.80841 41.1693 9.76897 41.1412C9.66757 40.9891 9.92672 41.2426 9.76897 41.1412C9.74081 41.1017 9.71827 41.0567 9.69574 41.0172C9.77461 41.1693 9.69574 40.9834 9.68447 40.944C9.71264 41.0623 9.6901 40.9778 9.6901 40.9158V40.7919V37.7159V36.1102V35.6032V35.4793C9.6901 35.4229 9.7239 35.2933 9.68447 35.4398C9.69574 35.3891 9.707 35.344 9.7239 35.299C9.69573 35.3778 9.6563 35.3553 9.72954 35.3046C9.74081 35.2933 9.84784 35.1694 9.7239 35.299C9.75771 35.2652 9.79151 35.2314 9.82531 35.1976C9.6901 35.3215 10.0056 35.1356 9.82531 35.1976C9.87038 35.1807 9.92109 35.1694 9.96616 35.1581C9.92109 35.1694 9.81404 35.1638 9.97179 35.1638C10.1802 35.1694 10.3887 35.1638 10.6028 35.1638C11.2169 35.1638 11.8366 35.1976 12.4168 34.9609C14.09 34.2849 14.8844 32.144 13.8309 30.6004C13.5042 30.1159 13.0478 29.7215 12.6366 29.3159C12.5802 29.2595 12.5239 29.2032 12.4675 29.1469C12.4394 29.1187 12.3718 29.0173 12.4394 29.1243C12.4112 29.0792 12.383 29.0342 12.3661 28.9891C12.4281 29.1356 12.3492 28.9102 12.3774 29.0116C12.3999 29.0905 12.3999 28.7863 12.3774 28.8652C12.3436 28.9891 12.4394 28.7525 12.3774 28.8595C12.3267 28.9497 12.4056 28.8088 12.4168 28.7863C12.4788 28.6792 12.2929 28.8933 12.4563 28.7356C12.4619 28.7299 12.4675 28.7243 12.4788 28.713C13.1267 28.0764 13.7633 27.4285 14.4056 26.7863C15.0478 26.1441 15.6956 25.5074 16.3323 24.8596C16.3661 24.8258 16.4731 24.7525 16.3661 24.8258C16.4112 24.7976 16.4562 24.7694 16.5013 24.7525C16.383 24.8032 16.5126 24.7525 16.5126 24.7638C16.2985 24.7638 16.5182 24.7694 16.5126 24.7638C16.5408 24.7638 16.7267 24.792 16.6253 24.7638C16.5013 24.73 16.7379 24.8258 16.6309 24.7638C16.5408 24.7131 16.6816 24.792 16.7041 24.8032C16.7661 24.837 16.6534 24.7413 16.7548 24.8483C16.8112 24.9046 16.8675 24.961 16.9239 25.0173C17.3351 25.4286 17.7295 25.8849 18.2084 26.2117C19.752 27.2653 21.8929 26.4652 22.5689 24.7976C22.8055 24.2117 22.7717 23.5751 22.7717 22.9553C22.7717 22.7525 22.7774 22.5553 22.7717 22.3525C22.7717 22.3018 22.783 22.2285 22.7717 22.313C22.7548 22.4201 22.7886 22.268 22.7943 22.2454C22.7323 22.3581 22.8337 22.1215 22.7943 22.2454C22.8055 22.2229 22.8901 22.099 22.8281 22.1835C22.7661 22.2623 22.8619 22.1497 22.8788 22.1328C22.7717 22.2004 22.9746 22.0483 22.8788 22.1328C22.9013 22.1215 23.0365 22.0539 22.9408 22.0933C22.8394 22.1384 23.0309 22.0764 23.0478 22.0708C22.9013 22.1102 23.0253 22.0764 23.076 22.0764H23.2112H23.7182H25.352H28.3999H28.5182H28.5464H28.552H28.6309C28.5464 22.0595 28.5295 22.0595 28.5914 22.0764C28.5971 22.0877 28.7717 22.1384 28.6647 22.0933C28.5689 22.0539 28.7041 22.1215 28.7266 22.1328C28.6309 22.0483 28.8337 22.2004 28.7266 22.1328C28.7435 22.1497 28.8449 22.2623 28.7773 22.1835C28.7154 22.099 28.7999 22.2285 28.8111 22.2454C28.7717 22.1215 28.8731 22.3581 28.8111 22.2454C28.8168 22.268 28.8506 22.4201 28.8337 22.313C28.8224 22.2229 28.8337 22.313 28.8337 22.3581C28.828 22.8088 28.828 23.2652 28.8337 23.7215C28.8562 25.5694 30.4957 26.9271 32.3097 26.6454C33.0196 26.5327 33.5773 26.1271 34.0731 25.6313L34.8505 24.8539C34.9519 24.7524 34.8393 24.8426 34.9012 24.8088C34.9238 24.7975 35.0646 24.7186 34.9745 24.7693C34.9012 24.8088 35.0984 24.7468 34.9407 24.7693C34.9914 24.7637 35.0421 24.7637 35.0928 24.7637C35.0872 24.7693 35.3069 24.7637 35.0928 24.7637C35.0984 24.7581 35.2224 24.8031 35.1041 24.7524C35.1491 24.775 35.1942 24.7975 35.2393 24.8257C35.1322 24.7581 35.2449 24.837 35.2787 24.8708C35.3632 24.9553 35.4477 25.0398 35.5322 25.1243C35.8759 25.4679 36.2139 25.806 36.5576 26.1496C37.3407 26.9327 38.1181 27.7101 38.9012 28.4933C38.9745 28.5665 39.0533 28.6454 39.1266 28.7186C39.166 28.7581 39.2224 28.8482 39.1604 28.7524C39.1885 28.7975 39.2167 28.8426 39.2336 28.8876C39.1604 28.7186 39.228 28.8989 39.2224 28.8989C39.2224 28.8707 39.2167 28.8482 39.2167 28.82C39.2224 28.8595 39.2224 28.8933 39.2224 28.9327C39.2167 29.1017 39.2449 28.9834 39.2224 28.9665C39.228 28.9722 39.1829 29.0961 39.2336 28.9778C39.2111 29.0229 39.1885 29.0679 39.1604 29.113C39.228 29.006 39.1604 29.1074 39.1322 29.1355L38.3266 29.9412C37.7688 30.4989 37.4083 31.113 37.3125 31.9017C37.2111 32.7468 37.5435 33.6144 38.1125 34.2341C38.6702 34.8426 39.4758 35.1412 40.2928 35.1524C40.7378 35.1581 41.1885 35.1693 41.6336 35.1524C41.6843 35.1524 41.7745 35.1862 41.6336 35.1468C41.6843 35.1581 41.7294 35.1693 41.7745 35.1862C41.5942 35.1243 41.9097 35.3102 41.7745 35.1862C41.8083 35.22 41.8421 35.2538 41.8759 35.2877C41.752 35.1524 41.859 35.282 41.8703 35.2933C41.9435 35.3496 41.9041 35.3722 41.8759 35.2877C41.8928 35.3384 41.9097 35.5243 41.9041 35.3553V35.6031V36.8594V40.3073V40.7975V40.9102V40.9327V40.9383C41.8984 41.0285 41.8984 41.0397 41.9041 40.9778C41.9153 40.9158 41.9097 40.9271 41.8928 41.0116C41.9041 41.0059 41.8027 41.2031 41.8984 41.0172C41.8759 41.0623 41.8534 41.1017 41.8252 41.1412C41.6675 41.2426 41.9266 40.989 41.8252 41.1412C41.7858 41.1693 41.7407 41.1919 41.7013 41.2144C41.7576 41.1862 41.7858 41.1355 41.6956 41.2088C41.6674 41.2313 41.5266 41.22 41.6956 41.2144C41.6787 41.2144 41.6336 41.22 41.6055 41.2144C41.3801 41.2088 41.1548 41.2144 40.9294 41.2144C40.2477 41.2144 39.6054 41.2144 38.9689 41.5017C38.2027 41.8454 37.628 42.5665 37.397 43.3665C37.1604 44.1834 37.2956 45.1299 37.797 45.8285C38.1351 46.2961 38.5745 46.6848 38.9801 47.0904L39.1209 47.2313C39.1378 47.2482 39.1604 47.2707 39.1773 47.2933C39.1266 47.2313 39.1604 47.2257 39.1773 47.3158C39.1942 47.4059 39.2562 47.3665 39.1829 47.3271C39.1885 47.3496 39.1942 47.3778 39.2055 47.4003C39.1998 47.3102 39.1998 47.2989 39.2055 47.3609V47.513C39.2111 47.6426 39.1942 47.3834 39.1998 47.513C39.2055 47.62 39.2505 47.4285 39.2055 47.5242C39.1885 47.5581 39.0928 47.6933 39.1829 47.5806C39.1547 47.6144 39.1266 47.6426 39.0984 47.6707L35.9097 50.8594C35.69 51.0792 35.4703 51.3045 35.2449 51.5242C35.2393 51.5299 35.2336 51.5299 35.2336 51.5355C35.2167 51.5524 35.1322 51.6256 35.1717 51.5918C35.2336 51.5411 35.2393 51.5749 35.1491 51.5918C35.059 51.6087 35.0984 51.6707 35.1379 51.5975C35.1322 51.6087 34.9407 51.6425 35.1435 51.6144C35.0928 51.62 35.0421 51.62 34.9914 51.62C34.828 51.6256 35.059 51.6031 34.9576 51.6087C34.8505 51.6144 35.0421 51.6594 34.9463 51.6144C34.9294 51.6031 34.7942 51.5186 34.8674 51.5749C34.935 51.6256 34.8393 51.5468 34.8167 51.5242C34.7548 51.4623 34.6872 51.3946 34.6252 51.3327C34.2139 50.9214 33.8083 50.4482 33.3125 50.1327C32.597 49.6764 31.6449 49.5693 30.8449 49.8454C29.9773 50.1496 29.3126 50.7806 28.9858 51.6425C28.7661 52.2285 28.8111 52.8707 28.8111 53.4791C28.8111 53.6707 28.7886 53.8735 28.8111 54.0651V54.1045C28.828 54.02 28.828 54.0031 28.8111 54.0651C28.7999 54.0707 28.7492 54.2453 28.7942 54.1383C28.8337 54.0425 28.7661 54.1777 28.7548 54.2003C28.6872 54.3073 28.8393 54.1045 28.7548 54.2003C28.7379 54.2172 28.6252 54.3186 28.7041 54.251C28.7886 54.189 28.659 54.2735 28.6421 54.2848C28.5294 54.3467 28.7661 54.2453 28.6421 54.2848C28.5689 54.3073 28.49 54.3073 28.6083 54.3017C28.3492 54.3129 28.0844 54.3017 27.8252 54.3017H24.3547H23.1886H23.0646C23.0308 54.3017 22.8844 54.2904 22.9914 54.3017C23.0984 54.3186 22.9463 54.2848 22.9238 54.2791C22.7999 54.2397 23.0365 54.3411 22.9238 54.2791C22.9013 54.2679 22.7773 54.1834 22.8618 54.2453C22.9407 54.3073 22.828 54.2115 22.8111 54.1946C22.7266 54.0989 22.8787 54.3017 22.8111 54.1946C22.7999 54.1721 22.7322 54.0369 22.7717 54.1327C22.8168 54.2397 22.7661 54.0651 22.7548 54.0594C22.7492 54.0482 22.7492 54.0369 22.7435 54.0256C22.7942 54.127 22.7943 54.127 22.7886 54.0256C22.7717 53.5861 22.4111 53.158 21.9435 53.1806C21.4985 53.2031 21.0815 53.5524 21.0985 54.0256C21.1379 55.1299 21.983 55.9636 23.0815 55.9975C23.3858 56.0031 23.6956 55.9975 23.9999 55.9975H27.5717C27.8985 55.9975 28.2196 56.0031 28.5463 55.9975C29.5942 55.975 30.4224 55.2257 30.5351 54.1834C30.5858 53.6989 30.5407 53.1975 30.5464 52.7131V52.6567C30.5464 52.6342 30.5633 52.3638 30.552 52.4877C30.5407 52.606 30.5576 52.4652 30.5633 52.4314C30.5745 52.375 30.5858 52.3243 30.6027 52.2736C30.614 52.2342 30.6309 52.1891 30.6421 52.1497C30.6872 52.0032 30.5914 52.2229 30.6421 52.1441C30.6872 52.0765 30.721 51.9976 30.7661 51.9243C30.783 51.9018 30.8619 51.7891 30.7886 51.8849C30.7097 51.992 30.8337 51.8398 30.8393 51.8286C30.8957 51.7666 30.9576 51.7159 31.014 51.6596C31.0478 51.6258 31.1379 51.5807 30.9858 51.6765C31.0309 51.6483 31.0703 51.6201 31.1097 51.592C31.1773 51.5469 31.2562 51.5187 31.3238 51.4737C31.4252 51.406 31.1323 51.5356 31.3182 51.4737C31.3576 51.4624 31.3914 51.4455 31.4309 51.4342C31.5097 51.4117 31.5886 51.3948 31.6675 51.3779C31.7238 51.3666 31.8083 51.3835 31.6224 51.3835C31.6731 51.3835 31.7238 51.3779 31.7745 51.3722C31.8647 51.3722 31.9548 51.3779 32.0506 51.3835C31.859 51.3722 32.0506 51.3891 32.1295 51.406C32.2083 51.4286 32.2928 51.4568 32.3661 51.4849C32.3323 51.4737 32.214 51.4004 32.3379 51.4793C32.3943 51.5131 32.4506 51.5413 32.5069 51.5751C32.5464 51.5976 32.5802 51.6258 32.6196 51.6483C32.5914 51.6258 32.5013 51.5356 32.6083 51.6427C32.6421 51.6765 32.6816 51.7103 32.721 51.7497C32.7886 51.8173 32.8506 51.8793 32.9182 51.9469C33.1267 52.1553 33.3295 52.3582 33.5379 52.5666C33.8027 52.8314 34.0844 53.0568 34.445 53.1807C34.9858 53.3722 35.628 53.299 36.1126 52.9891C36.4056 52.8032 36.6422 52.5328 36.8901 52.2849C37.7183 51.4567 38.5464 50.6286 39.3689 49.8061C39.6675 49.5075 39.9661 49.2089 40.259 48.916C40.7999 48.3751 41.0816 47.6259 40.8562 46.8653C40.6647 46.2118 40.09 45.761 39.628 45.2991L39.4196 45.0907C39.4027 45.0738 39.3802 45.0512 39.3633 45.0343C39.3295 45.0005 39.3013 44.9611 39.2675 44.9329C39.1942 44.8709 39.3351 45.0456 39.2562 44.916C39.2112 44.8428 39.1661 44.7639 39.121 44.6907C39.0421 44.5667 39.1154 44.685 39.1266 44.7188C39.1097 44.6681 39.0872 44.6231 39.0759 44.5724C39.0534 44.4935 39.0421 44.409 39.014 44.3301C38.9802 44.2174 39.014 44.4878 39.0196 44.3695C39.0196 44.3188 39.014 44.2681 39.014 44.2174C39.014 44.1723 39.0196 43.8963 39.014 44.0259C39.0083 44.1498 39.0421 43.9076 39.0478 43.8681C39.0703 43.7893 39.0985 43.716 39.121 43.6371C39.1492 43.5301 39.0421 43.7611 39.1097 43.6709C39.1435 43.6259 39.1661 43.5583 39.1942 43.5132C39.2111 43.485 39.352 43.2822 39.2788 43.3724C39.2055 43.4625 39.3689 43.2766 39.3914 43.254C39.414 43.2315 39.6055 43.0738 39.5154 43.1414C39.4083 43.2202 39.5717 43.1076 39.583 43.1019C39.6281 43.0738 39.6731 43.0512 39.7182 43.0231C39.8928 42.9217 39.6111 43.0456 39.8083 42.9836C39.8928 42.9555 39.9773 42.9329 40.0619 42.916C40.1182 42.9048 40.259 42.8991 40.0731 42.9104C40.1182 42.9104 40.1633 42.9048 40.214 42.8991H40.321H41.0872C41.3069 42.8991 41.5266 42.9104 41.7407 42.8991C42.3661 42.8653 42.9182 42.5555 43.2844 42.0484C43.5942 41.6146 43.6336 41.1132 43.6336 40.6005V37.271V35.778C43.6336 35.271 43.5998 34.7865 43.3069 34.347C42.9463 33.8174 42.3773 33.5019 41.7407 33.4625C41.5323 33.4512 41.3238 33.4625 41.1153 33.4625H40.3323H40.2872C40.2252 33.4625 39.9717 33.4343 40.1632 33.4681C40.0731 33.4512 39.9886 33.4343 39.9041 33.4118C39.8646 33.4005 39.8196 33.3836 39.7801 33.3724C39.5942 33.316 39.9154 33.4569 39.7463 33.3555C39.6731 33.3104 39.6055 33.271 39.5323 33.2315C39.4083 33.1583 39.5323 33.2315 39.5548 33.2541C39.521 33.2259 39.4928 33.2033 39.4647 33.1752C39.4027 33.1188 39.352 33.0569 39.2956 33.0005C39.1942 32.8935 39.2956 33.0062 39.3125 33.0287C39.2787 32.978 39.2449 32.9273 39.2111 32.8766C39.1717 32.809 39.1379 32.7301 39.0985 32.6625C39.1999 32.8428 39.0985 32.6512 39.0759 32.5836C39.0478 32.4991 39.0421 32.4034 39.014 32.3188C38.9802 32.2118 39.014 32.4766 39.0196 32.3639C39.0196 32.3132 39.014 32.2625 39.014 32.2118C39.014 32.1273 39.0252 32.0484 39.0252 31.9695C39.0196 32.1949 39.0365 31.9357 39.059 31.8625C39.0703 31.8231 39.0816 31.7836 39.0985 31.7442C39.1097 31.716 39.1604 31.5921 39.1154 31.6991C39.0647 31.8062 39.1266 31.6766 39.1435 31.6541C39.1717 31.609 39.1942 31.5583 39.228 31.5132C39.2506 31.4738 39.2787 31.44 39.3013 31.4005C39.2055 31.5357 39.2675 31.44 39.2956 31.4118C39.3351 31.3724 39.3689 31.3329 39.4083 31.2935C39.4703 31.2259 39.5379 31.1639 39.5999 31.1019C40.0675 30.6343 40.6364 30.1836 40.8506 29.5358C41.1041 28.7696 40.8168 27.9977 40.2703 27.4513C39.5436 26.7245 38.8169 25.9978 38.0844 25.2654C37.6957 24.8766 37.3069 24.4879 36.9182 24.0992C36.676 23.8569 36.4394 23.5865 36.1464 23.395C35.6732 23.0795 35.0253 22.9893 34.4844 23.1696C34.1182 23.2936 33.8253 23.5133 33.5548 23.7837L32.6647 24.6738C32.6309 24.7076 32.5971 24.7358 32.5577 24.764C32.6647 24.6738 32.5746 24.7527 32.5126 24.7921C32.4394 24.8372 32.3605 24.8767 32.2816 24.9161C32.4393 24.8316 32.2591 24.9217 32.1858 24.9443C32.107 24.9668 32.0225 24.9781 31.9436 25.0006C32.1633 24.9443 31.8816 25.0006 31.8027 25.0006C31.7295 25.0006 31.5041 24.9555 31.7239 25.0062C31.645 24.9893 31.5661 24.9781 31.4872 24.9555C31.4084 24.933 31.3351 24.9048 31.2562 24.8766C31.4703 24.9499 31.1943 24.8372 31.1323 24.7978C31.076 24.764 30.907 24.6175 31.0534 24.7527C30.9915 24.6964 30.9295 24.6457 30.8732 24.5893C30.8224 24.5386 30.7098 24.3752 30.8112 24.5274C30.7548 24.4372 30.7041 24.3527 30.6478 24.2626C30.6253 24.2231 30.5971 24.1217 30.6534 24.2907C30.6422 24.2513 30.6253 24.2119 30.6084 24.1668C30.5802 24.0823 30.5633 23.9978 30.5408 23.9133C30.507 23.7612 30.5408 23.902 30.5408 23.9358C30.5408 23.8907 30.5351 23.8457 30.5295 23.795V23.6767C30.5295 23.2091 30.5577 22.7358 30.5295 22.2682C30.4619 21.1922 29.6112 20.3978 28.5407 20.3753C27.6224 20.3527 26.6985 20.3753 25.7802 20.3753C24.8788 20.3753 23.9773 20.3527 23.0759 20.3753C22.0111 20.4034 21.1492 21.1922 21.0928 22.2682C21.0647 22.7414 21.0928 23.2147 21.0928 23.6879V23.7611C21.0928 23.8062 21.0816 23.8569 21.0872 23.902C21.0985 24.0203 21.1266 23.7724 21.0928 23.8794C21.0647 23.9752 21.0534 24.071 21.0196 24.1668C21.0083 24.2062 20.9914 24.2456 20.9745 24.2907C21.014 24.1893 21.0196 24.2006 20.9689 24.2907C20.9295 24.3583 20.8731 24.4316 20.8393 24.5048C20.7886 24.6062 20.9407 24.409 20.8619 24.4823C20.8224 24.5161 20.7943 24.5611 20.7605 24.5949C20.7041 24.6513 20.6421 24.7076 20.5802 24.7583C20.7267 24.6287 20.5407 24.7809 20.4788 24.8147C20.4337 24.8428 20.1633 24.9555 20.383 24.8766C20.3097 24.9048 20.2309 24.933 20.152 24.9555C20.0731 24.978 19.9943 24.9893 19.9154 25.0062C20.1295 24.9668 19.859 25.0006 19.7745 25.0006C19.7013 25.0006 19.4816 24.9499 19.6957 25.0006C19.6168 24.978 19.5323 24.9668 19.4534 24.9442C19.3802 24.9217 19.1943 24.8147 19.3576 24.9161C19.2675 24.8597 19.1661 24.809 19.0759 24.7527C19.0365 24.7302 18.9689 24.6513 19.0816 24.764C19.0478 24.7302 19.0083 24.702 18.9745 24.6738L18.0731 23.7724C17.3745 23.0738 16.321 22.8203 15.4647 23.4175C15.1886 23.609 14.9633 23.8625 14.7267 24.0992C14.3323 24.4935 13.9379 24.8879 13.5436 25.2822C12.8169 26.009 12.0901 26.7357 11.369 27.4568C10.8169 28.0089 10.5352 28.8033 10.8113 29.5639C11.0366 30.1948 11.5887 30.6343 12.0507 31.0906L12.2366 31.2765C12.2648 31.3103 12.2986 31.3385 12.3267 31.3723C12.3436 31.3892 12.4394 31.5075 12.3718 31.4173C12.2986 31.3272 12.4112 31.4793 12.4225 31.4962C12.4676 31.5695 12.507 31.6483 12.5464 31.7272C12.445 31.5413 12.569 31.7948 12.5802 31.8511C12.5915 31.8849 12.6366 32.1385 12.6197 32.0145C12.6028 31.8906 12.6197 32.0258 12.6197 32.054C12.6197 32.1047 12.6253 32.1554 12.6253 32.2061C12.6253 32.2511 12.614 32.3131 12.6197 32.3582C12.6309 32.4709 12.6591 32.2061 12.6253 32.3131C12.6028 32.392 12.5915 32.4709 12.569 32.5497C12.5577 32.5835 12.4676 32.8145 12.5183 32.7019C12.569 32.5892 12.5126 32.7131 12.4957 32.7357C12.4676 32.7864 12.4394 32.8427 12.4056 32.8934C12.3831 32.9272 12.3549 32.961 12.338 32.9948C12.2873 33.0906 12.4394 32.8934 12.3605 32.9666C12.3042 33.023 12.2535 33.0906 12.1915 33.1413C12.1633 33.1695 12.1295 33.192 12.1014 33.2202C12.0169 33.3047 12.2704 33.1188 12.1014 33.2202C12.0225 33.2652 11.9324 33.3103 11.8591 33.361C11.769 33.423 11.9943 33.3216 11.8873 33.3497C11.8478 33.361 11.8084 33.3779 11.7633 33.3892C11.6676 33.4173 11.5718 33.4399 11.4704 33.4568C11.6619 33.423 11.414 33.4511 11.3464 33.4511H11.2901H10.4957C10.2704 33.4511 10.045 33.4399 9.81969 33.4624C9.19434 33.53 8.65909 33.8399 8.30986 34.3638C8.02253 34.7976 8 35.2878 8 35.7835V37.2652V40.6117C8 41.2032 8.08451 41.744 8.4845 42.2173C9.03098 42.8708 9.79716 42.9046 10.5746 42.9046C10.8225 42.9046 11.0704 42.899 11.3183 42.9046H11.4141C11.4591 42.9046 11.5098 42.9159 11.5549 42.9159C11.3915 42.9159 11.476 42.899 11.5324 42.9159C11.6169 42.9384 11.7014 42.9553 11.7859 42.9835C11.8253 42.9948 11.8648 43.0117 11.9098 43.0286C11.7127 42.961 11.8986 43.0286 11.938 43.0511C12.0113 43.0905 12.0789 43.1412 12.1465 43.1807C11.9774 43.0793 12.1577 43.1976 12.2084 43.2426C12.2648 43.299 12.3211 43.3609 12.3718 43.4229C12.231 43.2595 12.4112 43.4962 12.445 43.5525C12.4845 43.6201 12.5577 43.8004 12.4901 43.6257C12.5183 43.699 12.5465 43.7779 12.569 43.8567C12.5803 43.9074 12.5915 43.9525 12.6028 44.0032C12.6084 44.037 12.6197 44.1666 12.6141 44.0426C12.6084 43.9131 12.6141 44.0483 12.6141 44.0821C12.6141 44.1328 12.6197 44.1835 12.6197 44.2342C12.6197 44.3187 12.5803 44.5046 12.6197 44.3131C12.6028 44.4032 12.5803 44.4933 12.5577 44.5835C12.5465 44.6229 12.5296 44.6624 12.5183 44.7018C12.4901 44.8088 12.5972 44.5835 12.5296 44.6736C12.4732 44.7469 12.4281 44.8483 12.3831 44.9271C12.3042 45.0567 12.3718 44.944 12.3943 44.9215C12.3549 44.9666 12.3155 45.0116 12.276 45.0511C12.2591 45.068 12.2422 45.0849 12.2253 45.1018C12.1465 45.1807 12.0676 45.2595 11.9943 45.3328C11.5267 45.8004 10.9578 46.2567 10.7718 46.9158C10.5634 47.682 10.8507 48.4032 11.3915 48.9441C11.6901 49.2427 11.9887 49.5412 12.2873 49.8398C13.1099 50.6624 13.9267 51.4793 14.7492 52.3018C15.0028 52.5553 15.2506 52.837 15.5605 53.0229C16.0788 53.3327 16.738 53.3778 17.2957 53.1525C17.6225 53.0229 17.8704 52.8088 18.1183 52.5665C18.3267 52.3581 18.5352 52.1496 18.738 51.9468C18.8 51.8849 18.8563 51.8229 18.9183 51.7665C18.9521 51.7327 18.9915 51.6989 19.031 51.6595C19.0591 51.6313 19.1549 51.5694 19.0197 51.6651C19.076 51.6257 19.1267 51.5919 19.1887 51.5525C19.2394 51.5187 19.4704 51.4229 19.2788 51.4961C19.3577 51.4679 19.4366 51.4398 19.5155 51.4172C19.5887 51.4003 19.814 51.3834 19.5943 51.3947C19.6957 51.3891 19.7972 51.3834 19.8986 51.3834C19.938 51.3834 19.9774 51.3891 20.0225 51.3947C19.9943 51.3947 19.8309 51.3553 19.9774 51.3891C20.0563 51.406 20.1352 51.4229 20.214 51.4454C20.2929 51.468 20.4563 51.5525 20.2929 51.468C20.3831 51.513 20.4732 51.5581 20.5577 51.6144L20.6591 51.682C20.6366 51.6651 20.5239 51.5637 20.6309 51.6651C20.6873 51.7215 20.7492 51.7722 20.8056 51.8341C20.8338 51.8623 20.8563 51.8961 20.8845 51.9243C20.7605 51.7891 20.8394 51.8623 20.8619 51.9018C20.9014 51.975 20.9464 52.0482 20.9859 52.1158C21.0873 52.2848 20.9577 52.0032 20.9915 52.1158C21.0028 52.1553 21.0197 52.1947 21.0309 52.2398C21.0591 52.3243 21.0704 52.4144 21.0929 52.4989C21.1267 52.6116 21.0985 52.3581 21.0873 52.4764C21.0816 52.5215 21.0929 52.5722 21.0929 52.6172V52.6961V54.0257C21.0929 54.4651 21.4816 54.8933 21.938 54.8707C22.3999 54.8482 22.7887 54.4989 22.7887 54.0257L22.7886 54.0256Z" fill="url(#paint0_linear_1953_7183)"/>
<path d="M25.8197 43.6431C25.6619 43.6431 25.5042 43.6374 25.3521 43.6262C25.2732 43.6205 25.1999 43.6093 25.1211 43.6036C24.8675 43.5811 25.2901 43.6374 25.0422 43.5924C24.7154 43.5304 24.3999 43.4628 24.0844 43.3614C23.9436 43.3163 23.8028 43.2656 23.6619 43.2093C23.8366 43.2825 23.6112 43.1867 23.5887 43.1755C23.5211 43.1417 23.4535 43.1135 23.3915 43.0797C23.1042 42.9332 22.8337 42.7698 22.5746 42.5839C22.5577 42.5726 22.3661 42.4205 22.5126 42.5388C22.4675 42.4994 22.4168 42.46 22.3718 42.4205C22.2704 42.336 22.1689 42.2459 22.0732 42.1501C21.9661 42.0487 21.8647 41.9417 21.7633 41.8346C21.7126 41.7783 21.6675 41.7276 21.6168 41.6713C21.5943 41.6487 21.4084 41.4065 21.5211 41.5586C21.3464 41.3219 21.183 41.0741 21.0422 40.8205C20.969 40.691 20.9013 40.5614 20.8394 40.4262C20.8281 40.4036 20.7323 40.1783 20.8056 40.3529C20.7661 40.2628 20.7323 40.167 20.6985 40.0712C20.5971 39.7896 20.5182 39.4966 20.4563 39.198C20.445 39.1473 20.4394 39.0966 20.4281 39.0459C20.4225 39.0234 20.3887 38.7698 20.4112 38.967C20.3887 38.7867 20.3774 38.6065 20.3661 38.4262C20.3549 38.1107 20.3718 37.8008 20.3999 37.491C20.4225 37.2374 20.3661 37.66 20.4112 37.4121C20.4225 37.3389 20.4394 37.26 20.4506 37.1867C20.4844 37.0121 20.5295 36.8431 20.5746 36.6741C20.614 36.5276 20.6647 36.3867 20.7154 36.2459C20.7436 36.1783 20.7661 36.1051 20.7943 36.0375C20.7211 36.2121 20.8168 35.9867 20.8281 35.9642C20.952 35.6938 21.0985 35.4346 21.2563 35.1924C21.3351 35.0684 21.4196 34.9501 21.5098 34.8318C21.3971 34.9839 21.5436 34.7924 21.5605 34.7755C21.6055 34.7191 21.6563 34.6628 21.7013 34.6065C21.9098 34.3698 22.1408 34.1501 22.3886 33.9473C22.4055 33.9304 22.5971 33.7839 22.445 33.8966C22.5013 33.8515 22.5633 33.8065 22.6253 33.767C22.7436 33.6825 22.8675 33.6037 22.9971 33.5248C23.121 33.4459 23.2506 33.3783 23.3858 33.3107C23.4534 33.2769 23.521 33.2431 23.583 33.2149C23.6281 33.1924 23.6732 33.1755 23.7182 33.153C23.6281 33.1868 23.6337 33.1868 23.7239 33.153C23.983 33.0572 24.2422 32.967 24.507 32.8994C24.6534 32.86 24.8055 32.8318 24.952 32.8037C24.9746 32.798 25.2281 32.7642 25.0309 32.7868C25.1323 32.7755 25.2337 32.7642 25.3408 32.7586C25.6562 32.7361 25.9661 32.7361 26.2816 32.7586C26.3605 32.7642 26.4337 32.7755 26.5126 32.7811C26.7661 32.8037 26.3436 32.7473 26.5915 32.7924C26.7661 32.8262 26.9408 32.8544 27.1154 32.8994C27.3858 32.967 27.645 33.0572 27.8985 33.153C28.1295 33.2375 27.752 33.0797 27.9717 33.1811C28.0393 33.2149 28.107 33.2431 28.1746 33.2769C28.3267 33.3558 28.4788 33.4346 28.6309 33.5248C28.7548 33.598 28.8788 33.6825 29.0027 33.767C29.0647 33.8065 29.121 33.8515 29.183 33.8966C29.0309 33.7839 29.2225 33.9304 29.2394 33.9473C29.4816 34.1501 29.7126 34.3699 29.9267 34.6065C29.9774 34.6628 30.0225 34.7192 30.0675 34.7755C30.0844 34.7924 30.2309 34.9839 30.1182 34.8318C30.2084 34.9501 30.2929 35.0684 30.3717 35.1924C30.5351 35.4403 30.676 35.6994 30.7999 35.9642C30.8112 35.9868 30.907 36.2121 30.8337 36.0375C30.8619 36.1051 30.8901 36.1783 30.9126 36.2459C30.9633 36.3867 31.0084 36.5276 31.0534 36.6741C31.0929 36.8205 31.1323 36.967 31.1605 37.1135C31.1774 37.1867 31.1886 37.2656 31.2055 37.3388C31.2168 37.3896 31.2224 37.4403 31.2281 37.491C31.2168 37.3952 31.2168 37.3952 31.2281 37.4966C31.2562 37.8121 31.2732 38.1219 31.2619 38.4318C31.2562 38.5895 31.2393 38.7417 31.2281 38.8994C31.2055 39.1529 31.2619 38.7304 31.2168 38.9783C31.2055 39.0515 31.1886 39.1304 31.1774 39.2036C31.1098 39.5473 31.014 39.8853 30.8844 40.2177C30.8788 40.2403 30.7774 40.4656 30.8562 40.291C30.8168 40.3811 30.7774 40.4712 30.7323 40.5614C30.6534 40.7135 30.5746 40.8656 30.4844 41.0177C30.3943 41.1642 30.3041 41.3107 30.2027 41.4459C30.1915 41.4628 30.0394 41.6543 30.1577 41.5079C30.0957 41.5867 30.0337 41.66 29.9717 41.7332C29.7633 41.9755 29.5379 42.1952 29.2957 42.4036C29.2394 42.4487 29.183 42.4994 29.1267 42.5445C29.2732 42.4262 29.0309 42.6121 29.0027 42.629C28.8619 42.7304 28.7154 42.8205 28.5689 42.905C28.4225 42.9895 28.2704 43.0741 28.1126 43.1473C28.045 43.1811 27.9774 43.2093 27.9098 43.2374C28.0844 43.1586 27.7971 43.2825 27.7633 43.2938C27.4309 43.4177 27.0929 43.5079 26.7436 43.5755C26.6703 43.5867 26.5915 43.6036 26.5182 43.6149C26.7098 43.5867 26.3943 43.6262 26.3605 43.6318C26.1858 43.6374 26.0056 43.6431 25.8197 43.6431C25.3802 43.6431 24.952 44.0318 24.9746 44.4881C24.9971 44.9445 25.3464 45.3388 25.8196 45.3332C28.8337 45.3163 31.5097 43.4065 32.5464 40.5895C33.5549 37.8459 32.6704 34.5727 30.4056 32.7192C28.0788 30.8093 24.7493 30.4938 22.1464 32.06C19.5493 33.6205 18.2309 36.691 18.8225 39.6487C19.3802 42.4657 21.7802 44.7924 24.6253 45.2318C25.0196 45.2938 25.4196 45.3332 25.8196 45.3388C26.2591 45.3388 26.6873 44.9501 26.6647 44.4938C26.6478 44.0262 26.2929 43.6431 25.8197 43.6431Z" fill="url(#paint1_linear_1953_7183)"/>
<path d="M46.7216 19.2283C46.6427 19.2283 46.5639 19.2227 46.485 19.2171C46.4512 19.2171 46.3216 19.1889 46.4794 19.2171C46.3554 19.1945 46.2315 19.1664 46.1075 19.1269C46.1132 19.1269 45.8822 19.0481 45.9949 19.0931C46.1075 19.1382 45.8878 19.0424 45.8934 19.0424C45.7695 18.9805 45.6568 18.9072 45.5442 18.834C45.4315 18.7551 45.6794 18.9636 45.5103 18.8058C45.4765 18.772 45.4371 18.7438 45.4033 18.71C45.3132 18.6255 45.2287 18.5354 45.1554 18.4396C45.2625 18.5692 45.0653 18.2931 45.0371 18.2481C45.0089 18.1917 44.9808 18.141 44.9526 18.0847C44.9357 18.0509 44.9188 18.0171 44.9075 17.9833C44.947 18.0678 44.947 18.0678 44.9132 17.9776C44.8794 17.8537 44.8456 17.7354 44.8118 17.6114C44.8061 17.5776 44.7892 17.4481 44.8061 17.6058C44.8005 17.5438 44.7949 17.4762 44.7892 17.4086C44.7836 17.2903 44.7892 17.172 44.7949 17.0537C44.8061 16.8171 44.7498 17.2002 44.8061 16.9748C44.823 16.9016 44.8399 16.8283 44.8568 16.7551C44.8737 16.6931 44.8963 16.6368 44.9132 16.5748C44.9582 16.4396 44.823 16.7438 44.9301 16.5354C44.9864 16.4227 45.0428 16.3157 45.1104 16.2086C45.1385 16.1692 45.1667 16.1298 45.1949 16.0847C45.0991 16.2143 45.1949 16.0847 45.223 16.0565C45.3132 15.9551 45.4089 15.865 45.5104 15.7748C45.6794 15.6227 45.3808 15.8481 45.5723 15.7298C45.6118 15.7016 45.6568 15.6734 45.6963 15.6509C45.8033 15.5889 45.9104 15.5269 46.023 15.4819C45.8766 15.5438 46.0005 15.4931 46.0287 15.4875C46.1019 15.465 46.1695 15.4424 46.2484 15.4199C46.2991 15.4086 46.3498 15.3974 46.3949 15.3861C46.4963 15.3692 46.4963 15.3692 46.4005 15.3805C46.4399 15.3748 46.4794 15.3748 46.5188 15.3692C46.6371 15.3636 46.7554 15.3579 46.8737 15.3692C46.9019 15.3692 47.1498 15.4086 46.9582 15.3748C47.0089 15.3861 47.0596 15.3917 47.1104 15.403C47.2343 15.4312 47.3526 15.4706 47.4709 15.51C47.3188 15.4593 47.4709 15.51 47.5104 15.5269C47.5892 15.5664 47.6625 15.6058 47.7357 15.6509C47.7751 15.6791 47.8202 15.7072 47.8596 15.7298C48.0568 15.8481 47.7864 15.6622 47.8934 15.7523C47.9892 15.8312 48.0794 15.9157 48.1582 16.0058C48.1977 16.0509 48.2427 16.096 48.2765 16.1467C48.1808 16.0284 48.2596 16.1241 48.2765 16.1523C48.3554 16.2819 48.4287 16.4058 48.4963 16.5354C48.5695 16.6819 48.5075 16.5748 48.4963 16.541C48.5188 16.6143 48.547 16.6819 48.5695 16.7551C48.5864 16.8114 48.6484 17.1551 48.6258 16.9805C48.6371 17.0988 48.6427 17.2171 48.6427 17.3354C48.6427 17.403 48.6371 17.465 48.6315 17.5326C48.6146 17.7692 48.6709 17.3861 48.6202 17.6114C48.5864 17.7579 48.547 17.9044 48.4963 18.0452C48.547 17.9044 48.5075 18.0171 48.4963 18.0509C48.4568 18.1298 48.4174 18.203 48.3723 18.2819C48.3385 18.3326 48.3047 18.3833 48.2709 18.4396C48.1582 18.6255 48.3723 18.3438 48.2258 18.5016C48.1244 18.6086 48.023 18.71 47.916 18.8114C47.7977 18.9185 47.8822 18.834 47.916 18.8171C47.8427 18.8678 47.7751 18.9128 47.7019 18.9579C47.6512 18.9917 47.5949 19.0199 47.5385 19.0481C47.516 19.0593 47.3019 19.1438 47.4653 19.0819C47.3188 19.1326 47.178 19.172 47.0315 19.2058C46.8737 19.2452 46.9921 19.2171 47.0259 19.2114C46.9301 19.2227 46.8287 19.2227 46.7216 19.2283C46.2822 19.234 45.854 19.6114 45.8766 20.0734C45.8991 20.5241 46.2484 20.9241 46.7216 20.9185C48.2653 20.8959 49.6061 19.9382 50.1413 18.4959C50.6484 17.1212 50.1976 15.4649 49.0653 14.5297C47.8822 13.5551 46.1751 13.3748 44.8456 14.1861C43.5216 14.9973 42.8737 16.5466 43.1724 18.0564C43.4991 19.7241 45.0484 20.8903 46.716 20.9184C47.1554 20.924 47.5836 20.524 47.561 20.0733C47.5441 19.6057 47.1949 19.234 46.7216 19.2283Z" fill="url(#paint2_linear_1953_7183)"/>
<path d="M49.82 23.964C49.8426 24.0485 49.8651 24.1274 49.8876 24.2119L49.9214 24.3471C49.9271 24.364 49.9383 24.364 49.9214 24.319C49.8876 24.2345 49.9102 24.4147 49.9271 24.319C49.9496 24.1894 49.8707 24.426 49.9214 24.3133C49.9383 24.2739 49.9609 24.257 49.9834 24.2288C49.9609 24.2626 49.8933 24.2795 49.9609 24.2626C50.0623 24.2288 49.9045 24.2683 49.9214 24.2795C49.8989 24.2683 50.0454 24.2457 49.9214 24.2626C49.5609 24.3133 49.1834 24.4598 48.8341 24.5556C48.4059 24.6683 47.9834 24.7866 47.5552 24.8992C47.5101 24.9105 47.4538 24.9161 47.4087 24.9387C47.3186 24.9781 47.4707 24.9499 47.4031 24.9443C47.3017 24.933 47.4369 24.9499 47.4425 24.9556C47.3411 24.9161 47.3862 24.9837 47.4425 24.9612C47.42 24.9725 47.5721 25.0288 47.4707 24.9837C47.3693 24.9387 47.4989 25.0175 47.4876 25.0119C47.4594 25.0063 47.4538 24.8936 47.4651 24.9781C47.4763 25.0345 47.4763 25.0007 47.4763 24.9837C47.4651 24.933 47.4482 24.888 47.4369 24.8373C47.2622 24.195 46.9862 23.5922 46.4566 23.1641C45.882 22.6964 45.1552 22.4148 44.4059 22.4655C43.6623 22.5162 43.0088 22.8204 42.4735 23.3387C42.4003 23.4119 42.3158 23.4796 42.2538 23.5584C42.1918 23.6373 42.2651 23.5697 42.2651 23.5641C42.2651 23.5979 42.1411 23.5979 42.2313 23.5866C42.3327 23.5753 42.1186 23.5528 42.2313 23.581C42.2482 23.5866 42.4228 23.6035 42.3158 23.581C42.2087 23.5584 42.3496 23.5979 42.344 23.6035C42.3158 23.6204 42.2425 23.519 42.3327 23.5979C42.3102 23.5753 42.282 23.5528 42.2594 23.5246C41.6961 22.9274 41.0933 22.3585 40.513 21.7782C40.4848 21.75 40.4566 21.7218 40.4285 21.6937C40.4228 21.688 40.4172 21.688 40.4172 21.6824C40.3721 21.6317 40.513 21.8176 40.4341 21.6993C40.3665 21.6091 40.4623 21.8063 40.4341 21.6937C40.4116 21.5979 40.4397 21.7275 40.4397 21.7387C40.4454 21.7951 40.3778 21.8739 40.4397 21.75C40.3721 21.8852 40.5074 21.6993 40.4116 21.8007C40.4735 21.7331 40.5468 21.6655 40.6088 21.6035C41.1383 21.0739 41.4538 20.4542 41.5327 19.7106C41.6905 18.2402 40.6482 16.9782 39.2735 16.612C39.1834 16.5894 39.0932 16.5669 39.0031 16.5387C38.9806 16.5331 39.0594 16.5669 39.0594 16.5669C39.0482 16.5613 39.0369 16.5556 39.0256 16.55C38.9749 16.5162 38.9806 16.5275 39.0482 16.5725C39.0425 16.5725 38.958 16.4655 39.02 16.5444C39.0369 16.5669 39.082 16.6909 39.0594 16.6063C39.0313 16.5106 39.0594 16.6345 39.0594 16.6514C39.0932 16.4824 39.0594 16.6232 39.0538 16.6514C39.0538 16.6458 39.0538 16.6401 39.0594 16.6401C39.0707 16.6007 39.082 16.5613 39.0932 16.5218C39.2003 16.1106 39.313 15.7049 39.42 15.2937C39.5214 14.9049 39.6454 14.5162 39.7299 14.1275C39.7355 14.0993 39.7468 14.0712 39.7524 14.043C39.7524 14.0374 39.6848 14.1557 39.7411 14.0655C39.7975 13.9698 39.651 14.1162 39.7468 14.0599C39.8313 14.0148 39.7017 14.0881 39.6848 14.0937C39.5834 14.1444 39.7242 14.0768 39.7186 14.0881C39.6679 14.2064 39.6059 13.9472 39.713 14.0993C39.7073 14.0937 39.5947 14.0824 39.6735 14.105C39.7806 14.1331 39.8876 14.1613 39.9947 14.1895C41.5946 14.6064 43.3411 13.6317 43.6454 11.9585C43.7299 11.5078 43.713 11.0627 43.6003 10.6176C43.5778 10.5275 43.5496 10.4374 43.5271 10.3472C43.5158 10.3134 43.5102 10.274 43.4989 10.2402C43.4877 10.2007 43.5271 10.3247 43.5046 10.3021C43.4595 10.2683 43.5384 10.1838 43.4933 10.3078C43.544 10.1782 43.4764 10.3078 43.4426 10.3585C43.5722 10.1782 43.437 10.3697 43.437 10.3472C43.4426 10.319 43.5553 10.3134 43.4708 10.3247C43.3975 10.3359 43.482 10.3247 43.4989 10.3247C43.6398 10.3021 43.7806 10.2458 43.9215 10.212C44.3891 10.0881 44.8567 9.96411 45.3186 9.83452C45.4989 9.78382 45.6848 9.73875 45.8651 9.68804C45.9101 9.67678 45.9665 9.67114 46.0116 9.64861C46.1299 9.59227 45.8594 9.67678 46.0566 9.64297C46.0454 9.64297 45.9158 9.6148 46.0116 9.64297C46.113 9.67114 45.9778 9.62607 45.9778 9.62607C45.9947 9.6148 45.8538 9.55283 45.9496 9.60354C46.0454 9.65424 45.8989 9.5134 45.9552 9.60917C46.0172 9.71058 45.9327 9.53593 45.9496 9.60354C45.9608 9.65988 45.9778 9.72184 45.9947 9.77818C46.0735 10.0711 46.1637 10.3585 46.3101 10.6289C46.6651 11.288 47.2961 11.7782 48.0059 11.9979C48.7214 12.2232 49.4933 12.1387 50.1581 11.8176C50.4567 11.6768 50.7215 11.4627 50.9581 11.2317C51.0313 11.1585 51.1102 11.0852 51.1778 11.012C51.2341 10.9556 51.1496 11.0176 51.1496 11.0232C51.1496 11.0232 51.3186 10.9162 51.1496 11.012C51.2229 10.9669 51.2285 11.012 51.1383 11.012C51.1327 11.012 50.9919 10.9894 51.0933 11.0063C51.206 11.0232 51.0538 10.9951 51.0651 10.9838C51.1045 10.9556 51.1552 11.0627 51.082 10.9894L51.1496 11.057C51.2623 11.1754 51.3806 11.288 51.4933 11.4007L52.9919 12.8993C52.9355 12.843 52.9637 12.8768 52.975 12.8824C52.9975 12.9275 53.0031 12.9275 52.9806 12.8824C52.9581 12.8261 52.9581 12.8373 52.9806 12.9218C52.975 12.888 52.9806 12.8317 52.975 12.8035C52.9581 12.7303 52.9919 12.7923 52.9637 12.8373C53.0426 12.6965 52.8848 12.8937 52.9862 12.7866C52.9186 12.8599 52.8454 12.9275 52.7722 13.0007C52.5524 13.2204 52.344 13.4627 52.1975 13.7387C51.4764 15.0965 51.9384 16.8317 53.2566 17.6317C53.5214 17.7894 53.82 17.8965 54.1186 17.9753C54.2087 17.9979 54.2989 18.0204 54.389 18.0486C54.3721 18.043 54.282 17.9866 54.3609 18.0373C54.451 18.0937 54.3383 18.0148 54.3383 18.0148C54.3496 18.0092 54.4228 18.1218 54.3665 18.043C54.3271 17.9866 54.2933 17.9021 54.3383 18.0148C54.3327 18.0092 54.3158 17.8683 54.3271 17.9753C54.3383 18.0711 54.3271 17.9584 54.3327 17.9415C54.3327 17.9472 54.3271 17.9528 54.3271 17.9584C54.3158 18.0035 54.3045 18.043 54.2933 18.088C54.2482 18.257 54.2031 18.4317 54.158 18.6007C54.0341 19.0683 53.9045 19.5359 53.7806 20.0092C53.7411 20.1613 53.6904 20.3134 53.6566 20.4711C53.651 20.4993 53.6397 20.5275 53.6341 20.5556C53.6623 20.4542 53.6735 20.5556 53.6285 20.5669C53.6172 20.5669 53.7411 20.4937 53.6454 20.5387C53.5496 20.5838 53.7411 20.4937 53.7411 20.4937C53.7299 20.4993 53.6116 20.5275 53.7073 20.5106C53.8144 20.4937 53.6792 20.5162 53.6735 20.5049C53.6735 20.5049 53.8031 20.5387 53.6961 20.4937C53.5947 20.4542 53.482 20.4373 53.3806 20.4092C53.02 20.319 52.6538 20.274 52.282 20.3247C51.4031 20.4373 50.6482 20.8937 50.1524 21.6373C49.7299 22.3077 49.6285 23.1697 49.82 23.964C49.9327 24.4091 50.4285 24.6739 50.8622 24.5556C51.3129 24.4317 51.5608 23.9584 51.4538 23.5134C51.4425 23.4627 51.4313 23.4063 51.42 23.3556C51.4256 23.3669 51.4313 23.4852 51.4256 23.3838C51.42 23.2937 51.4144 23.2035 51.42 23.1134C51.42 23.074 51.4256 23.0402 51.4256 23.0007C51.4313 22.8768 51.3806 23.1134 51.4313 23.0064C51.4707 22.9218 51.482 22.8092 51.5101 22.7247C51.5383 22.6345 51.4989 22.7472 51.4932 22.7585C51.5101 22.7247 51.527 22.6909 51.5439 22.6627C51.589 22.5894 51.6284 22.5162 51.6792 22.4486C51.589 22.5782 51.713 22.4092 51.7524 22.3697C51.7749 22.3416 51.8031 22.319 51.8313 22.2909C51.8313 22.2909 51.9946 22.1556 51.9101 22.2176C51.8313 22.274 51.9327 22.2064 51.9439 22.2007C51.9834 22.1782 52.0284 22.15 52.0679 22.1275C52.1017 22.1106 52.1298 22.0937 52.1637 22.0768C52.0397 22.1162 52.2763 22.0148 52.1637 22.0768C52.2482 22.0486 52.327 22.0261 52.4115 22.0035C52.4228 21.9979 52.5467 21.9697 52.4453 21.9923C52.3383 22.0148 52.5524 21.9866 52.558 21.9866C52.6369 21.981 52.7101 21.9866 52.789 21.9923C52.958 21.9979 52.8341 22.0035 52.8003 21.9923C52.8397 22.0035 52.8791 22.0092 52.9186 22.0204C53.0256 22.043 53.127 22.0768 53.2284 22.1049C54.1411 22.3472 55.0313 21.9247 55.3186 21.0007C55.42 20.6683 55.4988 20.3303 55.589 19.9979C55.7129 19.5415 55.8312 19.0852 55.9552 18.6345C56.1298 17.9923 56.1017 17.3331 55.589 16.8317C55.3186 16.5669 54.9749 16.4543 54.62 16.3585C54.5129 16.3303 54.4059 16.2965 54.2989 16.2627C54.4341 16.3021 54.3101 16.2683 54.2481 16.2345C54.1693 16.1895 54.096 16.1388 54.0228 16.0937C54.1805 16.1951 54.0059 16.0768 53.9665 16.0374C53.9101 15.9866 53.8651 15.9303 53.8143 15.874C53.9214 15.9979 53.82 15.874 53.7805 15.812C53.7524 15.7726 53.651 15.5641 53.6904 15.6599C53.7355 15.7557 53.6566 15.5641 53.6453 15.5247C53.6228 15.4571 53.6172 15.3782 53.5946 15.3106C53.5665 15.2261 53.6003 15.3669 53.6003 15.3782C53.6003 15.3444 53.5946 15.3162 53.5946 15.2824C53.589 15.1979 53.589 15.1134 53.5946 15.0289C53.6003 14.8148 53.5665 15.1134 53.6003 14.9669C53.6172 14.8937 53.6397 14.8205 53.6566 14.7472C53.6622 14.7134 53.6791 14.6853 53.6904 14.6571C53.651 14.8092 53.6566 14.7247 53.6848 14.6796C53.7298 14.6007 53.7749 14.5219 53.82 14.443C53.8256 14.4317 53.8932 14.3359 53.8369 14.4148C53.7749 14.4993 53.865 14.381 53.8819 14.3641L54.22 14.0261C54.8622 13.3613 54.8566 12.381 54.2256 11.7106C53.6566 11.1077 53.0481 10.5331 52.4622 9.94721C51.927 9.412 51.2059 9.17538 50.4904 9.51905C50.22 9.64862 50.0228 9.86834 49.8087 10.0768L49.7073 10.1782C49.6904 10.1951 49.5721 10.2909 49.6566 10.2233C49.7355 10.1613 49.6397 10.2289 49.6284 10.2402C49.5608 10.2796 49.4932 10.319 49.4256 10.3585C49.3974 10.3754 49.3636 10.3866 49.3354 10.4036C49.4369 10.3585 49.4143 10.3754 49.3242 10.3979C49.2509 10.4205 49.1777 10.4374 49.1045 10.4543C48.9467 10.4937 49.234 10.4543 49.0763 10.4599C49.003 10.4599 48.9298 10.4655 48.8509 10.4655C48.8115 10.4655 48.7664 10.4543 48.7214 10.4599C48.6143 10.4599 48.8566 10.4993 48.7552 10.4655C48.6876 10.443 48.6087 10.4317 48.5411 10.4148C48.5016 10.4036 48.3101 10.3247 48.4059 10.3697C48.5016 10.4148 48.3157 10.319 48.2819 10.2965C48.22 10.2627 48.0566 10.1275 48.1918 10.2458C48.1411 10.2007 48.096 10.1613 48.0509 10.1162C48.0284 10.0937 47.8819 9.92468 47.9439 10.0035C48.0059 10.0881 47.8763 9.90214 47.8594 9.86834C47.8256 9.80637 47.7467 9.60355 47.7974 9.76129C47.7355 9.55284 47.6847 9.33875 47.6171 9.13031C47.3242 8.25706 46.4679 7.83455 45.5946 8.05985C45.2059 8.16126 44.8228 8.26829 44.434 8.3697C44.0115 8.48238 43.5889 8.59506 43.1664 8.70773C42.4114 8.91055 41.848 9.51899 41.8649 10.3303C41.8706 10.6063 41.972 10.8711 42.0339 11.1359C42.0452 11.1753 42.0508 11.2148 42.0621 11.2542C42.0565 11.2204 42.0565 11.0965 42.0621 11.2655C42.0677 11.3443 42.0677 11.4176 42.0677 11.4964C42.0677 11.5472 42.0621 11.5979 42.0565 11.6486C42.0621 11.6204 42.0903 11.5303 42.0565 11.6091C42.017 11.6936 42.0058 11.8063 41.9776 11.8908C41.9382 12.0091 42.0396 11.7781 41.9776 11.8908C41.9607 11.9246 41.9438 11.9584 41.9269 11.9866C41.91 12.0204 41.7861 12.2063 41.8311 12.1443C41.8762 12.0767 41.7297 12.2514 41.7072 12.2795C41.6677 12.319 41.4649 12.4711 41.6001 12.381C41.5382 12.4204 41.4818 12.4598 41.4142 12.4993C41.3692 12.5218 41.3297 12.5443 41.2846 12.5669C41.2959 12.5612 41.4086 12.5218 41.3184 12.55C41.2396 12.5781 41.1551 12.595 41.0706 12.6232C41.0368 12.6345 40.9072 12.6514 41.0762 12.6288C41.0255 12.6345 40.9748 12.6401 40.9241 12.6401C40.8339 12.6457 40.7438 12.6401 40.6537 12.6345C40.5523 12.6232 40.6706 12.6345 40.6818 12.6401C40.6311 12.6288 40.5748 12.6176 40.5241 12.6063C40.4339 12.5838 40.3438 12.5556 40.2537 12.5331C39.803 12.4091 39.3635 12.426 38.941 12.6457C38.4058 12.9274 38.2143 13.4457 38.0678 13.9866C37.8593 14.7585 37.5889 15.5359 37.4481 16.3191C37.3466 16.8712 37.4931 17.412 37.8931 17.812C38.1692 18.088 38.5241 18.1951 38.8847 18.2909C38.9861 18.319 39.0819 18.3472 39.1833 18.381C39.0311 18.3247 39.2058 18.3979 39.2621 18.4261C39.3072 18.4542 39.4988 18.5782 39.4255 18.5275C39.3523 18.4711 39.5044 18.6007 39.5382 18.6345C39.5607 18.6571 39.7072 18.8317 39.6396 18.7416C39.572 18.6571 39.7016 18.843 39.7185 18.8655C39.7466 18.9162 39.848 19.1416 39.7748 18.95C39.8255 19.0796 39.8424 19.2148 39.8875 19.3444C39.9269 19.4571 39.8819 19.1923 39.8819 19.3106C39.8819 19.3444 39.8875 19.3726 39.8875 19.4064C39.8931 19.4909 39.8875 19.5754 39.8875 19.6599C39.8819 19.812 39.9269 19.5134 39.8762 19.7218C39.8593 19.7951 39.8368 19.8683 39.8143 19.9416C39.7748 20.088 39.8762 19.8458 39.7973 19.981L39.6621 20.2176C39.5889 20.3472 39.6452 20.2402 39.6734 20.212C39.6509 20.2402 39.6283 20.2683 39.6058 20.2909C39.572 20.3247 39.5382 20.3585 39.5044 20.3923C39.4255 20.4768 39.341 20.5556 39.2621 20.6345C38.9185 20.9951 38.7269 21.4683 38.7945 21.9697C38.8678 22.5219 39.1945 22.8711 39.5664 23.2429C39.9157 23.5922 40.2706 23.9472 40.6199 24.2965C40.8791 24.5557 41.1382 24.8711 41.4481 25.0627C41.9157 25.3557 42.5129 25.3726 43.003 25.1303C43.2791 24.9951 43.4819 24.7697 43.696 24.5613C43.7354 24.5219 43.7749 24.4881 43.8143 24.4486C43.8256 24.4373 43.9157 24.3697 43.8368 24.4261C43.7523 24.488 43.8706 24.4035 43.8932 24.3923C43.9495 24.3585 44.0115 24.3247 44.0678 24.2909C44.0904 24.2796 44.2256 24.2233 44.1185 24.2627C44.0171 24.3021 44.1523 24.2514 44.1692 24.2458C44.2425 24.2233 44.3157 24.2064 44.389 24.1895C44.4397 24.1782 44.5411 24.1838 44.3552 24.1895C44.389 24.1895 44.4171 24.1838 44.4509 24.1838C44.5242 24.1838 44.5974 24.1782 44.6763 24.1838C44.7101 24.1838 44.7383 24.1895 44.7721 24.1895C44.8735 24.1895 44.6143 24.15 44.7664 24.1895C44.8397 24.212 44.9129 24.2233 44.9805 24.2458C45.0425 24.2683 45.2059 24.3641 45.0425 24.2627C45.0988 24.2965 45.1552 24.319 45.2115 24.3528C45.2735 24.3866 45.4312 24.5275 45.3016 24.4035C45.358 24.4542 45.4143 24.5049 45.465 24.5557C45.5101 24.6064 45.6171 24.7472 45.5213 24.612C45.5664 24.674 45.6058 24.7416 45.6453 24.8092C45.6622 24.8374 45.6791 24.8712 45.6904 24.8993C45.7636 25.0345 45.6847 24.8317 45.7016 24.9219C45.8425 25.6655 46.2143 26.4092 47.0087 26.612C47.4763 26.7303 47.9101 26.5838 48.3552 26.4655C48.8453 26.3359 49.3411 26.2007 49.8312 26.0711C50.1974 25.9754 50.603 25.9021 50.9186 25.688C51.3636 25.3838 51.6453 24.8598 51.6284 24.3134C51.6171 24.0542 51.5383 23.795 51.4707 23.5472C51.3524 23.1077 50.8678 22.8373 50.4284 22.9556C49.9665 23.0457 49.7017 23.5246 49.82 23.964Z" fill="url(#paint3_linear_1953_7183)"/>
<defs>
<linearGradient id="paint0_linear_1953_7183" x1="8" y1="37.7867" x2="43.7188" y2="38.404" gradientUnits="userSpaceOnUse">
<stop stop-color="#3134DB"/>
<stop offset="1" stop-color="#009EE1"/>
</linearGradient>
<linearGradient id="paint1_linear_1953_7183" x1="18.6826" y1="38.041" x2="32.9937" y2="38.2884" gradientUnits="userSpaceOnUse">
<stop stop-color="#3134DB"/>
<stop offset="1" stop-color="#009EE1"/>
</linearGradient>
<linearGradient id="paint2_linear_1953_7183" x1="43.1006" y1="17.2157" x2="50.3654" y2="17.3413" gradientUnits="userSpaceOnUse">
<stop stop-color="#3134DB"/>
<stop offset="1" stop-color="#009EE1"/>
</linearGradient>
<linearGradient id="paint3_linear_1953_7183" x1="37.417" y1="17.1206" x2="56.0965" y2="17.4431" gradientUnits="userSpaceOnUse">
<stop stop-color="#3134DB"/>
<stop offset="1" stop-color="#009EE1"/>
</linearGradient>
</defs>
</svg>
