<svg width="64" height="64" viewBox="0 0 64 64" fill="none" xmlns="http://www.w3.org/2000/svg">
<path d="M55.0305 54.6982H52.9042V23.8239C52.9042 22.3868 51.735 21.2178 50.298 21.2178H45.5453C44.1082 21.2178 42.9391 22.3869 42.9391 23.8239V54.6982H37.5399V37.8124C37.5399 36.3753 36.3708 35.2062 34.9338 35.2062H30.181C28.744 35.2062 27.5749 36.3754 27.5749 37.8124V54.6982H22.1757V45.9532C22.1757 44.5161 21.0065 43.347 19.5695 43.347H14.8167C13.3796 43.347 12.2105 44.5162 12.2105 45.9532V54.6982H9.96948C9.43403 54.6982 9 55.1323 9 55.6677C9 56.2031 9.43403 56.6372 9.96948 56.6372H55.0305C55.566 56.6372 56 56.2031 56 55.6677C56 55.1323 55.566 54.6982 55.0305 54.6982ZM20.2365 54.6982H14.1494V45.9532C14.1496 45.7763 14.2199 45.6067 14.345 45.4816C14.4701 45.3565 14.6397 45.2862 14.8166 45.286H19.5693C19.7462 45.2862 19.9158 45.3565 20.0409 45.4816C20.166 45.6067 20.2363 45.7763 20.2365 45.9532V54.6982ZM35.6009 54.6982H29.5137V37.8124C29.5139 37.6355 29.5843 37.4659 29.7094 37.3408C29.8344 37.2157 30.004 37.1454 30.1809 37.1452H34.9337C35.1106 37.1454 35.2801 37.2157 35.4052 37.3408C35.5303 37.4659 35.6007 37.6355 35.6009 37.8124V54.6982ZM50.9652 54.6982H44.8781V23.8239C44.8783 23.647 44.9486 23.4774 45.0737 23.3523C45.1988 23.2273 45.3684 23.1569 45.5453 23.1567H50.298C50.4749 23.1569 50.6445 23.2273 50.7696 23.3523C50.8947 23.4774 50.965 23.647 50.9652 23.8239V54.6982ZM52.9018 8.0195C52.9092 7.88399 52.888 7.74844 52.8395 7.62168C52.791 7.49493 52.7163 7.37982 52.6203 7.28386C52.5244 7.18789 52.4092 7.11322 52.2825 7.06471C52.1557 7.01621 52.0202 6.99495 51.8847 7.00233C51.8691 7.00165 51.8536 7 51.8378 7H45.9724C45.437 7 45.0029 7.43403 45.0029 7.96948C45.0029 8.50492 45.437 8.93895 45.9724 8.93895H49.5941L40.0101 18.523L36.3959 14.9088C36.2141 14.727 35.9675 14.6249 35.7104 14.6249C35.4533 14.6249 35.2067 14.727 35.0249 14.9088L17.5967 32.3371C17.2182 32.7156 17.2182 33.3295 17.5967 33.7082C17.7861 33.8973 18.0342 33.992 18.2822 33.992C18.5303 33.992 18.7785 33.8973 18.9678 33.708L35.7104 16.9652L39.3246 20.5795C39.7032 20.958 40.3171 20.958 40.6958 20.5795L50.9652 10.3101V13.5879C50.9652 14.1233 51.3993 14.5574 51.9347 14.5574C52.4701 14.5574 52.9042 14.1233 52.9042 13.5879V8.06642C52.9042 8.05062 52.9025 8.03521 52.9018 8.0195Z" fill="url(#paint0_linear_1953_7209)"/>
<path d="M15.0144 37.3745C15.5498 37.3745 15.9839 36.9404 15.9839 36.405C15.9839 35.8696 15.5498 35.4355 15.0144 35.4355C14.479 35.4355 14.0449 35.8696 14.0449 36.405C14.0449 36.9404 14.479 37.3745 15.0144 37.3745Z" fill="url(#paint1_linear_1953_7209)"/>
<defs>
<linearGradient id="paint0_linear_1953_7209" x1="9" y1="31.2671" x2="56.1137" y2="32.0381" gradientUnits="userSpaceOnUse">
<stop stop-color="#3134DB"/>
<stop offset="1" stop-color="#009EE1"/>
</linearGradient>
<linearGradient id="paint1_linear_1953_7209" x1="14.0449" y1="36.3835" x2="15.9885" y2="36.4171" gradientUnits="userSpaceOnUse">
<stop stop-color="#3134DB"/>
<stop offset="1" stop-color="#009EE1"/>
</linearGradient>
</defs>
</svg>
