<svg width="64" height="64" viewBox="0 0 64 64" fill="none" xmlns="http://www.w3.org/2000/svg">
<path d="M36.5012 32.0004C34.0195 32.0004 32.001 29.9819 32.001 27.5002C32.001 25.0185 34.0195 23 36.5012 23C38.9829 23 41.0013 25.0185 41.0013 27.5002C41.0013 29.9819 38.9829 32.0004 36.5012 32.0004ZM36.5012 24.5004C34.847 24.5004 33.501 25.8459 33.501 27.5005C33.501 29.1547 34.8465 30.5007 36.5012 30.5007C38.1554 30.5007 39.5013 29.1552 39.5013 27.5005C39.5013 25.846 38.1558 24.5004 36.5012 24.5004Z" fill="url(#paint0_linear_1953_7224)"/>
<path d="M55.9991 8.70052C55.9729 8.30659 55.6458 8 55.2505 8C54.748 8 42.8863 8.0534 38.2197 12.7198L31.7852 19.1539C29.8261 18.6114 22.021 16.9197 16.4699 22.4698L14.9699 23.9698C14.6767 24.263 14.6767 24.7372 14.9699 25.0304L22.6894 32.7498L20.2197 35.2195C19.9265 35.5127 19.9265 35.9869 20.2197 36.28L27.7197 43.78C27.8661 43.9264 28.0577 43.9996 28.2501 43.9996C28.4421 43.9996 28.6341 43.926 28.7805 43.78L30.2806 42.28C30.5737 41.9868 30.5737 41.5126 30.2806 41.2194C29.9874 40.9263 29.5132 40.9263 29.22 41.2194L28.2508 42.1891L21.811 35.7493L23.7506 33.8096L32.9698 43.0289C33.1162 43.1753 33.3079 43.2485 33.5003 43.2485C33.6923 43.2485 33.8843 43.1749 34.0307 43.0289L43.5976 33.462C44.133 36.04 44.7989 42.1398 40.4709 46.4671L39.5012 47.4367L35.9067 43.8422C35.6135 43.549 35.1393 43.549 34.8462 43.8422C34.553 44.1353 34.553 44.6095 34.8462 44.9027L38.9711 49.0277C39.1175 49.1741 39.3092 49.2472 39.5015 49.2472C39.6936 49.2472 39.8856 49.1737 40.032 49.0277L41.532 47.5276C47.0827 41.9769 45.3903 34.1704 44.8479 32.2123L51.282 25.7782C56.7104 20.3501 56.0319 9.17015 56.0004 8.6976L55.9991 8.70052ZM17.5297 23.5306C21.8574 19.2024 27.9566 19.8682 30.5348 20.4039L21.4998 29.4389L16.5601 24.4993L17.5297 23.5296V23.5306ZM33.4996 41.4395L22.5603 30.5003L38.7501 14.3105L47.9694 23.5297C48.1158 23.6761 48.3074 23.7493 48.4998 23.7493C48.6918 23.7493 48.8838 23.6758 49.0302 23.5297C49.3234 23.2366 49.3234 22.7624 49.0302 22.4692L39.8463 13.2853C43.7538 10.1193 52.0339 9.5981 54.527 9.51427C54.5797 12.0282 54.4241 20.5133 50.2189 24.7173L33.4986 41.4367L33.4996 41.4395Z" fill="url(#paint1_linear_1953_7224)"/>
<path d="M8.75106 56.0006C8.55622 56.0006 8.36385 55.9242 8.21992 55.781C8.00245 55.5642 7.93949 55.2361 8.0615 54.9535C8.55939 53.7965 12.9814 43.5942 14.7885 41.7882C15.78 40.7967 17.0983 40.25 18.5008 40.25C19.9032 40.25 21.2208 40.7967 22.2135 41.7882C23.205 42.7798 23.751 44.0974 23.751 45.5002C23.751 46.9026 23.205 48.2203 22.2135 49.2122C20.4068 51.0192 10.2051 55.4405 9.04815 55.9394C8.95302 55.9804 8.85153 55.9999 8.75182 55.9999L8.75106 56.0006ZM18.5008 41.7508C17.4997 41.7508 16.5573 42.1415 15.8486 42.8495C14.7004 43.9978 11.8577 50.0846 10.2074 53.7951C14.5491 51.87 20.0875 49.2172 21.1521 48.1528C21.8604 47.4445 22.2501 46.5027 22.2501 45.5017C22.2501 44.5006 21.86 43.5582 21.1521 42.8506C20.4434 42.1423 19.502 41.7519 18.4999 41.7519L18.5008 41.7508Z" fill="url(#paint2_linear_1953_7224)"/>
<defs>
<linearGradient id="paint0_linear_1953_7224" x1="32.001" y1="27.4002" x2="41.0228" y2="27.5561" gradientUnits="userSpaceOnUse">
<stop stop-color="#3134DB"/>
<stop offset="1" stop-color="#009EE1"/>
</linearGradient>
<linearGradient id="paint1_linear_1953_7224" x1="14.75" y1="28.1653" x2="56.1419" y2="28.8815" gradientUnits="userSpaceOnUse">
<stop stop-color="#3134DB"/>
<stop offset="1" stop-color="#009EE1"/>
</linearGradient>
<linearGradient id="paint2_linear_1953_7224" x1="8" y1="47.9503" x2="23.7886" y2="48.2232" gradientUnits="userSpaceOnUse">
<stop stop-color="#3134DB"/>
<stop offset="1" stop-color="#009EE1"/>
</linearGradient>
</defs>
</svg>
