<svg width="74" height="75" viewBox="0 0 74 75" fill="none" xmlns="http://www.w3.org/2000/svg">
<g clip-path="url(#clip0_2012_10336)">
<path d="M69.6471 19.9844V35.2198H56.5882V19.9844H52.2352V35.2198H39.1763V19.9844H34.8233V35.2198H19.5879V39.5728H34.8233V52.6317H19.5879V56.9847H34.8233V70.0436H19.5879V74.3966H74.0001V19.9844H69.6471ZM69.6471 39.5728V52.6317H56.5882V39.5728H69.6471ZM39.1763 39.5728H52.2352V52.6317H39.1763V39.5728ZM39.1763 56.9847H52.2352V70.0436H39.1763V56.9847ZM56.5882 70.0436V56.9847H69.6471V70.0436H56.5882Z" fill="#90CAF9"/>
<path d="M71.8234 2.57422H2.17578V72.2218H19.5877V19.9861H71.8234V2.57422Z" fill="#00BCD4"/>
<path d="M0 0.396484V74.397H21.7649V22.1614H74.0006V0.396484H0ZM4.35297 35.2203V22.1614H17.4119V35.2203H4.35297ZM17.4119 39.5732V52.6322H4.35297V39.5732H17.4119ZM21.7649 4.74946H34.8238V17.8084H21.7649V4.74946ZM39.1768 4.74946H52.2357V17.8084H39.1768V4.74946ZM17.4119 4.74946V17.8084H4.35297V4.74946H17.4119ZM4.35297 70.0441V56.9851H17.4119V70.0441H4.35297ZM69.6476 17.8084H56.5887V4.74946H69.6476V17.8084Z" fill="#0097A7"/>
</g>
<defs>
<clipPath id="clip0_2012_10336">
<rect width="74" height="74" fill="white" transform="translate(0 0.396484)"/>
</clipPath>
</defs>
</svg>
