<svg width="80" height="80" viewBox="0 0 80 80" fill="none" xmlns="http://www.w3.org/2000/svg">
<path d="M67.5 14H12.5C11.5721 14.001 10.6824 14.3701 10.0263 15.0263C9.3701 15.6824 9.00103 16.5721 9 17.5V54.5C9.00103 55.4279 9.3701 56.3176 10.0263 56.9737C10.6824 57.6299 11.5721 57.999 12.5 58H32.78L32.18 61H28C27.7348 61 27.4804 61.1054 27.2929 61.2929C27.1054 61.4804 27 61.7348 27 62V65C27 65.2652 27.1054 65.5196 27.2929 65.7071C27.4804 65.8946 27.7348 66 28 66H52C52.2652 66 52.5196 65.8946 52.7071 65.7071C52.8946 65.5196 53 65.2652 53 65V62C53 61.7348 52.8946 61.4804 52.7071 61.2929C52.5196 61.1054 52.2652 61 52 61H47.82L47.22 58H67.5C68.428 57.999 69.3176 57.6299 69.9737 56.9737C70.6299 56.3176 70.999 55.4279 71 54.5V17.5C70.999 16.5721 70.6299 15.6824 69.9737 15.0263C69.3176 14.3701 68.428 14.001 67.5 14ZM51 63V64H29V63H51ZM34.22 61L34.82 58H45.18L45.78 61H34.22ZM69 54.5C68.9997 54.8977 68.8415 55.2791 68.5603 55.5603C68.2791 55.8415 67.8977 55.9997 67.5 56H12.5C12.1023 55.9997 11.7209 55.8415 11.4397 55.5603C11.1585 55.2791 11.0003 54.8977 11 54.5V52H69V54.5ZM69 50H11V17.5C11.0003 17.1023 11.1585 16.7209 11.4397 16.4397C11.7209 16.1585 12.1023 16.0003 12.5 16H67.5C67.8977 16.0003 68.2791 16.1585 68.5603 16.4397C68.8415 16.7209 68.9997 17.1023 69 17.5V50Z" fill="white" stroke="white" stroke-width="0.3"/>
<path d="M40.998 53H38.998C38.7328 53 38.4785 53.1054 38.2909 53.2929C38.1034 53.4804 37.998 53.7348 37.998 54C37.998 54.2652 38.1034 54.5196 38.2909 54.7071C38.4785 54.8946 38.7328 55 38.998 55H40.998C41.2633 55 41.5176 54.8946 41.7052 54.7071C41.8927 54.5196 41.998 54.2652 41.998 54C41.998 53.7348 41.8927 53.4804 41.7052 53.2929C41.5176 53.1054 41.2633 53 40.998 53Z" fill="white" stroke="white" stroke-width="0.3"/>
</svg>
