<svg width="80" height="80" viewBox="0 0 80 80" fill="none" xmlns="http://www.w3.org/2000/svg">
<path d="M34.7508 47.6069C34.816 48.3992 36.5231 67.0716 51.0342 70.9621V70.9625C51.2205 71.0127 51.418 71.0127 51.6038 70.9625C66.1153 67.0719 67.8222 48.399 67.8873 47.6063C67.921 47.1997 67.6787 46.8165 67.2811 46.6483L51.7457 40.086C51.4748 39.9713 51.1636 39.9713 50.8927 40.086L35.3573 46.6483C34.9597 46.8165 34.7174 47.1997 34.7512 47.6063L34.7508 47.6069ZM51.3218 42.0319L65.7457 48.1255C65.3065 51.4045 62.7422 65.7335 51.3218 69.0217C39.896 65.7336 37.3406 51.4049 36.8979 48.1255L51.3218 42.0319Z" fill="white" stroke="white" stroke-width="0.5"/>
<path d="M16.6042 70.9997H41.9994V69.0622H16.6042C15.7581 69.0614 15.0725 68.42 15.0711 67.6286V54.6961C15.0757 50.7999 16.7328 47.0641 19.6781 44.3093C22.6238 41.5539 26.6172 40.0044 30.7826 40.0001H38.7162C40.3876 39.994 42.0489 40.2448 43.6334 40.7431L44.3006 38.9081V38.9085C42.5011 38.3424 40.6146 38.0565 38.7161 38.0626H30.7825C26.0678 38.0678 21.5482 39.822 18.2146 42.9401C14.8809 46.0583 13.0056 50.2862 13 54.6957V67.6283C13.0014 68.5218 13.3815 69.3789 14.057 70.0108C14.7329 70.6431 15.6488 70.9986 16.6045 70.9995L16.6042 70.9997Z" fill="white" stroke="white" stroke-width="0.5"/>
<path d="M33.7143 32.25H35.7857C38.5317 32.247 41.1643 31.2254 43.1059 29.4095C45.0477 27.5936 46.1399 25.1309 46.1426 22.5625V18.6875C46.1398 16.119 45.0477 13.6565 43.1059 11.8405C41.1644 10.0245 38.5317 9.00299 35.7857 9H33.7143C30.9689 9.00303 28.3361 10.0245 26.3942 11.8405C24.4528 13.6564 23.3606 16.119 23.3574 18.6875V22.5625C23.3607 25.1309 24.4528 27.5935 26.3942 29.4095C28.3361 31.2254 30.9687 32.247 33.7143 32.25ZM25.4288 18.6875C25.4316 16.6327 26.305 14.6628 27.8585 13.2101C29.4115 11.757 31.5176 10.9396 33.7143 10.9375H35.7857C37.9824 10.9397 40.0885 11.757 41.642 13.2101C43.1951 14.6628 44.069 16.6327 44.0712 18.6875V22.5625C44.0689 24.6172 43.1951 26.5872 41.642 28.0399C40.0885 29.493 37.9824 30.3104 35.7857 30.3125H33.7143C31.5176 30.3103 29.4115 29.4929 27.8585 28.0399C26.3049 26.5872 25.4315 24.6172 25.4288 22.5625V18.6875Z" fill="white" stroke="white" stroke-width="0.5"/>
</svg>
