    <svg width="58" height="59" viewBox="0 0 58 59" fill="none" xmlns="http://www.w3.org/2000/svg">
<path fill-rule="evenodd" clip-rule="evenodd" d="M13.869 0C6.21397 0 0 6.21419 0 13.869C0 21.5238 6.21419 27.738 13.869 27.738C21.5238 27.738 27.738 21.5238 27.738 13.869C27.738 6.21419 21.5238 0 13.869 0ZM13.869 2.52156C20.1321 2.52156 25.2166 7.60606 25.2166 13.8692C25.2166 20.1324 20.1321 25.2169 13.869 25.2169C7.60585 25.2169 2.52134 20.1324 2.52134 13.8692C2.52134 7.60606 7.60585 2.52156 13.869 2.52156Z" fill="white"/>
<path fill-rule="evenodd" clip-rule="evenodd" d="M12.6076 7.56496H11.347C9.25774 7.56496 7.56445 9.25824 7.56445 11.3475C7.56445 13.4368 9.25774 15.1301 11.347 15.1301H16.3901C17.0863 15.1301 17.6511 15.6949 17.6511 16.3906C17.6511 17.0868 17.0863 17.6516 16.3901 17.6516H11.347C10.6509 17.6516 10.086 17.0868 10.086 16.3906C10.086 15.6949 9.52116 15.1301 8.82502 15.1301C8.1293 15.1301 7.56445 15.6949 7.56445 16.3906C7.56445 18.4799 9.25774 20.1732 11.347 20.1732H12.6076V21.4342C12.6076 22.1303 13.1724 22.6952 13.8686 22.6952C14.5647 22.6952 15.1296 22.1303 15.1296 21.4342V20.1732H16.3901C18.4794 20.1732 20.1727 18.4799 20.1727 16.3906C20.1727 14.3014 18.4794 12.6081 16.3901 12.6081H11.347C10.6509 12.6081 10.086 12.0432 10.086 11.3475C10.086 10.6514 10.6509 10.0865 11.347 10.0865H16.3901C17.0863 10.0865 17.6511 10.6514 17.6511 11.3475C17.6511 12.0432 18.216 12.6081 18.9121 12.6081C19.6078 12.6081 20.1727 12.0432 20.1727 11.3475C20.1727 9.25824 18.4794 7.56496 16.3901 7.56496H15.1296V6.30396C15.1296 5.60782 14.5647 5.04297 13.8686 5.04297C13.1724 5.04297 12.6076 5.60782 12.6076 6.30396V7.56496Z" fill="white"/>
<path fill-rule="evenodd" clip-rule="evenodd" d="M12.6082 34.0462C12.6082 33.0423 12.2101 32.0803 11.5 31.3719C10.7917 30.6618 9.82955 30.2637 8.82566 30.2637H3.78255C2.77865 30.2637 1.8166 30.6618 1.10818 31.3719C0.398108 32.0802 0 33.0423 0 34.0462V54.2191C0 55.223 0.398097 56.1851 1.10818 56.8935C1.81656 57.6035 2.77866 58.0017 3.78255 58.0017H8.82566C9.82956 58.0017 10.7916 57.6036 11.5 56.8935C12.2101 56.1851 12.6082 55.223 12.6082 54.2191V34.0462ZM10.0867 34.0462V54.2191C10.0867 54.5535 9.9541 54.8747 9.71727 55.1107C9.48128 55.3475 9.16002 55.4801 8.82566 55.4801H3.78255C3.44819 55.4801 3.12694 55.3475 2.89095 55.1107C2.65412 54.8747 2.52156 54.5535 2.52156 54.2191V34.0462C2.52156 33.7119 2.65412 33.3906 2.89095 33.1546C3.12694 32.9178 3.44819 32.7852 3.78255 32.7852H8.82566C9.16002 32.7852 9.48128 32.9178 9.71727 33.1546C9.9541 33.3906 10.0867 33.7119 10.0867 34.0462Z" fill="white"/>
<path fill-rule="evenodd" clip-rule="evenodd" d="M27.741 34.0462C27.741 33.0423 27.3429 32.0803 26.6328 31.3719C25.9245 30.6618 24.9624 30.2637 23.9585 30.2637H18.9154C17.9115 30.2637 16.9494 30.6618 16.241 31.3719C15.5309 32.0802 15.1328 33.0423 15.1328 34.0462V54.2191C15.1328 55.223 15.5309 56.1851 16.241 56.8935C16.9494 57.6035 17.9115 58.0017 18.9154 58.0017H23.9585C24.9624 58.0017 25.9244 57.6036 26.6328 56.8935C27.3429 56.1851 27.741 55.223 27.741 54.2191V34.0462ZM25.2195 34.0462V54.2191C25.2195 54.5535 25.0869 54.8747 24.8501 55.1107C24.6141 55.3475 24.2928 55.4801 23.9585 55.4801H18.9154C18.581 55.4801 18.2598 55.3475 18.0238 55.1107C17.7869 54.8747 17.6544 54.5535 17.6544 54.2191V34.0462C17.6544 33.7119 17.7869 33.3906 18.0238 33.1546C18.2598 32.9178 18.581 32.7852 18.9154 32.7852H23.9585C24.2928 32.7852 24.6141 32.9178 24.8501 33.1546C25.0869 33.3906 25.2195 33.7119 25.2195 34.0462Z" fill="white"/>
<path fill-rule="evenodd" clip-rule="evenodd" d="M42.866 16.39C42.866 15.3865 42.4679 14.4243 41.7578 13.716C41.0495 13.006 40.0874 12.6074 39.0835 12.6074H34.0404C33.0365 12.6074 32.0744 13.0059 31.366 13.716C30.6559 14.4244 30.2578 15.3865 30.2578 16.39V54.2155C30.2578 55.2194 30.6559 56.1814 31.366 56.8899C32.0744 57.5999 33.0365 57.998 34.0404 57.998H39.0835C40.0874 57.998 41.0494 57.5999 41.7578 56.8899C42.4679 56.1815 42.866 55.2194 42.866 54.2155V16.39ZM40.3445 16.39V54.2155C40.3445 54.5498 40.2119 54.8711 39.9751 55.1071C39.7391 55.3439 39.4178 55.4765 39.0835 55.4765H34.0404C33.706 55.4765 33.3848 55.3439 33.1488 55.1071C32.9119 54.8711 32.7794 54.5498 32.7794 54.2155V16.39C32.7794 16.056 32.9119 15.7344 33.1488 15.4988C33.3848 15.2615 33.706 15.1294 34.0404 15.1294H39.0835C39.4178 15.1294 39.7391 15.2615 39.9751 15.4988C40.2119 15.7344 40.3445 16.056 40.3445 16.39Z" fill="white"/>
<path fill-rule="evenodd" clip-rule="evenodd" d="M57.9988 23.9564C57.9988 22.9529 57.6007 21.9907 56.8907 21.2824C56.1823 20.5724 55.2202 20.1738 54.2163 20.1738H49.1732C48.1693 20.1738 47.2072 20.5723 46.4988 21.2824C45.7887 21.9908 45.3906 22.9529 45.3906 23.9564V54.2168C45.3906 55.2207 45.7887 56.1827 46.4988 56.8912C47.2072 57.6012 48.1693 57.9993 49.1732 57.9993H54.2163C55.2202 57.9993 56.1822 57.6012 56.8907 56.8912C57.6007 56.1828 57.9988 55.2207 57.9988 54.2168V23.9564ZM55.4773 23.9564V54.2168C55.4773 54.5511 55.3447 54.8724 55.1079 55.1084C54.8719 55.3452 54.5506 55.4778 54.2163 55.4778H49.1732C48.8388 55.4778 48.5176 55.3452 48.2816 55.1084C48.0447 54.8724 47.9122 54.5511 47.9122 54.2168V23.9564C47.9122 23.6225 48.0447 23.3008 48.2816 23.0652C48.5176 22.8279 48.8388 22.6958 49.1732 22.6958H54.2163C54.5506 22.6958 54.8719 22.8279 55.1079 23.0652C55.3447 23.3008 55.4773 23.6224 55.4773 23.9564Z" fill="white"/>
</svg>
