<svg width="80" height="80" viewBox="0 0 80 80" fill="none" xmlns="http://www.w3.org/2000/svg">
<path d="M49.7798 17.0006C48.9894 17.0006 48.2572 17.2949 47.5825 17.8794L29.9221 27.9553L27.1716 29.5492H18.3331C13.1865 29.5492 9 33.7519 9 38.9171V41.0841C9 46.2498 13.1871 50.452 18.3331 50.452H18.8941L20.5962 58.3927C20.8329 59.4985 21.4873 60.4471 22.4385 61.0643C23.1334 61.5149 23.9233 61.7473 24.7287 61.7473C25.0256 61.7473 25.3245 61.7155 25.6224 61.6514C26.7241 61.4139 27.6691 60.757 28.2841 59.8022C28.8981 58.8474 29.1062 57.7129 28.8695 56.607L27.6038 50.7021L29.9194 52.0439L47.9173 62.3838C48.4981 62.7942 49.1198 63 49.7809 63C52.0809 63 53.8989 60.5079 55.1839 55.5938C56.2778 51.4094 56.8804 45.8712 56.8804 39.9997C56.8804 34.1287 56.2774 28.5894 55.1839 24.4057C53.8973 19.4919 52.08 17 49.7798 17L49.7798 17.0006ZM11.9426 41.0852V38.9182C11.9426 35.3818 14.8094 32.5043 18.3327 32.5043H26.1945V47.4996H18.3327C14.8094 47.4986 11.9426 44.6211 11.9426 41.0848V41.0852ZM25.0019 58.7649C24.6687 58.8368 24.3246 58.7727 24.034 58.5841C23.7434 58.3961 23.5436 58.108 23.472 57.7736L21.9036 50.4538H24.5379L25.99 57.2302C26.1394 57.9261 25.6968 58.6148 25.0019 58.7649ZM31.3841 49.4839L29.1375 48.1816V31.8208L31.3816 30.5206L44.8279 22.8493C44.6706 23.3379 44.5207 23.8573 44.3769 24.4069C43.2819 28.5908 42.6789 34.129 42.6789 40.001C42.6789 45.8729 43.2819 51.4113 44.3755 55.595C44.526 56.1691 44.6827 56.7108 44.8477 57.2182L31.3841 49.4839ZM47.0757 40.0014C47.0757 41.4251 46.5168 42.7049 45.6957 43.4326C45.648 42.3095 45.6236 41.1635 45.6236 40.0014C45.6236 38.8394 45.648 37.6933 45.6957 36.5703C46.5167 37.298 47.0757 38.5779 47.0757 40.0014ZM52.3359 54.8447C51.2176 59.1213 50.0167 60.047 49.7801 60.047C49.5435 60.047 48.3421 59.1214 47.2242 54.8447C46.6175 52.5247 46.1712 49.7457 45.906 46.7057C46.8537 46.3567 47.7131 45.7227 48.4153 44.8366C49.4501 43.5297 50.0199 41.8127 50.0199 40.001C50.0199 38.1888 49.4495 36.4714 48.4153 35.1655C47.7136 34.2799 46.8537 33.6455 45.906 33.2964C46.1712 30.2569 46.6175 27.4779 47.2242 25.1573C48.3426 20.8808 49.5435 19.9561 49.7801 19.9561C50.0167 19.9561 51.2181 20.8817 52.3359 25.1573C53.3676 29.1037 53.9365 34.3752 53.9365 40.0006C53.9365 45.6261 53.3677 50.898 52.3359 54.8439V54.8447ZM61.286 40.0014C61.286 39.1852 61.9451 38.5247 62.7573 38.5247H70.5288C71.342 38.5247 72 39.1862 72 40.0014C72 40.8166 71.3409 41.4782 70.5288 41.4782H62.7573C61.9445 41.4782 61.286 40.8177 61.286 40.0014ZM61.559 28.0842C61.3026 27.3102 61.7199 26.4742 62.491 26.2168L69.8666 23.7561C70.6378 23.4987 71.4707 23.9175 71.7271 24.6916C71.9835 25.4657 71.5663 26.3017 70.7951 26.5591L63.4195 29.0198C63.2654 29.0708 63.1092 29.0958 62.955 29.0958C62.339 29.0958 61.764 28.7041 61.559 28.0842ZM71.7276 55.3105C71.5226 55.9299 70.9481 56.3227 70.3316 56.3227C70.1774 56.3227 70.0212 56.2982 69.8671 56.2466L62.4915 53.7859C61.7203 53.5285 61.3025 52.6925 61.5594 51.9184C61.8158 51.1444 62.6487 50.725 63.4199 50.9829L70.7955 53.4436C71.5667 53.7004 71.9835 54.537 71.7276 55.3105Z" fill="white"/>
</svg>
