<svg width="80" height="80" viewBox="0 0 80 80" fill="none" xmlns="http://www.w3.org/2000/svg">
<path d="M27.0685 9C26.2579 9 25.7508 9.76036 26.0492 10.5124L30.5373 21.8119H18.5858C13.2934 21.8119 9 26.1307 9 31.4591V61.3527C9 66.6812 13.2935 71 18.5858 71H62.4181C67.7105 71 72 66.6812 72 61.3527V31.4591C72 26.1307 67.7105 21.8119 62.4181 21.8119H51.1704L55.6585 10.5124C55.9595 9.75403 55.4455 9 54.6393 9H46.1566C45.7023 9 45.3033 9.27219 45.1374 9.69245L40.8522 20.473L36.567 9.69245C36.399 9.27024 36.0064 9 35.5521 9H27.0685ZM28.6896 11.2087H34.8085L35.0681 11.8557C35.4613 12.8448 41.4798 28.0035 41.85 28.9392L42.4087 30.3525H36.2936L36.034 29.7055C35.7947 29.102 29.6796 13.7128 29.2477 12.622L28.6896 11.2087ZM46.9012 11.2087H53.0201L48.8062 21.8119H42.6873L46.641 11.8558L46.9012 11.2087ZM18.5854 24.0189H31.4132L33.9303 30.3525H31.3088C30.6909 30.3525 30.2138 30.8324 30.2138 31.4549C30.2138 32.077 30.6929 32.5613 31.3088 32.5613H48.2766C48.8925 32.5613 49.3755 32.0751 49.3755 31.4549C49.3755 30.8348 48.8945 30.3525 48.2766 30.3525H44.7792L42.2641 24.0189H62.4177C66.4801 24.0189 69.7995 27.3653 69.7995 31.4549V60.3214H69.8034V61.3515C69.8034 65.4417 66.4797 68.7876 62.4177 68.7876H18.5854C14.523 68.7876 11.1998 65.4412 11.1998 61.3515V31.4542C11.1998 27.3641 14.5235 24.0182 18.5854 24.0182L18.5854 24.0189ZM40.5009 38.8931C37.1568 38.8931 34.4534 41.615 34.4534 44.9819C34.4534 46.381 34.9242 47.6647 35.7163 48.6967L36.4409 49.634L35.4178 50.2214C32.3134 52.0079 30.2137 55.3641 30.2137 59.2192V61.3518C30.2137 61.9739 30.6928 62.4582 31.3087 62.4582H49.6905C50.3064 62.4582 50.7894 61.9719 50.7894 61.3518V59.2192C50.7894 55.3661 48.6916 52.0076 45.5892 50.2214L44.5699 49.634L45.2863 48.7007C46.0765 47.6706 46.5492 46.3825 46.5492 44.9815C46.5492 41.6146 43.8457 38.8927 40.5016 38.8927L40.5009 38.8931ZM40.5009 41.1059C42.6152 41.1059 44.3547 42.8509 44.3547 44.9814C44.3547 47.112 42.6172 48.8615 40.5009 48.8615C38.3847 48.8615 36.6516 47.1101 36.6516 44.9814C36.6516 42.8528 38.3873 41.1059 40.5009 41.1059ZM40.5009 51.0702C44.9541 51.0702 48.5948 54.7358 48.5948 59.2193V60.2494H32.4073V59.2193C32.4073 54.7358 36.048 51.0702 40.5012 51.0702H40.5009Z" fill="white"/>
</svg>
