<svg width="80" height="80" viewBox="0 0 80 80" fill="none" xmlns="http://www.w3.org/2000/svg">
<path d="M70.9855 66.7847C70.6615 64.9324 67.7238 56.1325 67.5863 55.7278C67.0034 54.1536 66.2262 52.5412 64.4826 51.3871C62.1092 49.8207 59.6144 48.744 57.4874 47.899C56.3554 47.4484 55.0519 46.9589 53.8032 46.5052C54.5649 45.3227 55.1426 44.0245 55.5495 42.927C56.6867 42.5742 57.6557 41.0929 57.9849 39.0371C58.1506 38.0068 58.125 36.989 57.9021 36.1752C57.6432 35.2169 57.1869 34.7352 56.7674 34.4954C56.6742 33.4729 56.4877 32.481 56.2079 31.533C56.371 30.9586 56.4668 30.2733 56.4877 29.4517C56.5653 26.5407 53.7079 20.814 46.4845 20.1161C46.0469 20.0747 45.601 20.1109 45.1582 20.1213C44.5987 17.0585 41.6893 12.6609 35.3546 12.0506C32.4269 11.7672 29.2998 12.6918 27.3514 14.3975C26.3747 15.2553 25.7865 16.2316 25.6417 17.2417C25.1386 17.3802 24.5322 17.7562 23.9805 18.6787C23.4804 19.521 23.1204 20.644 22.9469 21.9322C22.7344 23.4856 22.8199 25.1396 23.1486 26.3092C22.724 26.5459 22.2577 27.0251 21.9957 27.9937C21.7784 28.8028 21.7472 29.8124 21.9155 30.8379C22.2651 33.0021 23.3225 34.5296 24.5426 34.7559C24.9338 35.8224 25.5115 37.0278 26.1826 38.1668C24.9776 38.6123 23.7082 39.107 22.4131 39.6224C20.3043 40.4621 17.8246 41.5286 15.4695 43.0846C13.8556 44.1511 13.0706 45.5755 12.3762 47.4278C12.2517 47.7987 9.33702 56.5318 9.01602 58.3711C8.9618 58.67 9.04725 58.9792 9.24155 59.2108C9.43846 59.4428 9.72863 59.5791 10.037 59.5791H22.0865C21.2004 62.3254 20.1382 65.7178 19.9491 66.7895C19.8949 67.0883 19.9777 67.3975 20.1746 67.6317C20.3716 67.8637 20.6617 68 20.9701 68H69.9698C70.2756 68 70.5658 67.8659 70.7653 67.6317C70.9535 67.3924 71.0368 67.0836 70.9848 66.7847L70.9855 66.7847ZM46.2824 22.1695C52.1508 22.7362 54.4773 27.1592 54.42 29.3979C54.3966 30.1501 54.306 30.7427 54.1507 31.1626C54.0705 31.3765 54.0653 31.6159 54.1351 31.835C54.4873 32.9377 54.6946 34.1172 54.7519 35.3437C54.7649 35.6322 54.7909 35.8746 55.0134 36.0574C55.2363 36.2403 55.4098 36.2946 55.7052 36.2636C55.8479 36.3925 56.1819 37.2477 55.9464 38.7136C55.7078 40.1768 55.1201 40.8854 55.1045 40.9574C54.5554 40.8004 54.0006 41.0889 53.8246 41.6142C53.151 43.5976 52.304 45.2338 51.3684 46.3491C51.3632 46.3568 51.3606 46.3646 51.3554 46.3724C51.3502 46.3776 51.345 46.3801 51.3398 46.3853C49.99 48.1527 47.8578 49.1674 45.4713 49.1674C43.111 49.1674 40.984 48.1526 39.629 46.3879C38.7819 45.2545 37.9526 43.5312 37.2868 41.5369C37.1858 41.2355 37.0769 40.9832 36.7763 40.8775C36.4758 40.7719 36.2684 40.7926 35.9991 40.9625C35.823 40.8853 35.2349 40.1767 34.9963 38.7135C34.7942 37.4538 35.0145 36.6447 35.1672 36.3613C35.4209 36.4027 35.6855 36.351 35.908 36.2069C36.1852 36.0267 36.3613 35.7226 36.3769 35.3927L36.4159 34.8131C36.4315 34.6354 36.4003 34.4577 36.3279 34.2951C36.0143 33.6124 35.8174 32.0357 36.0481 30.3409C36.3201 28.3238 37.0405 27.4195 37.0921 27.3191C37.4291 27.6076 37.911 27.6567 38.2971 27.4325C38.6805 27.2108 38.88 26.7705 38.7893 26.3375C38.7529 26.1547 38.7351 25.9847 38.7403 25.817C38.7585 25.2477 39.1342 24.6111 39.7999 24.0268C41.0673 22.9137 43.5726 21.914 46.2825 22.1693L46.2824 22.1695ZM25.7221 32.6462C25.4215 32.5406 25.2194 32.5613 24.9474 32.7364C24.7739 32.6566 24.1936 31.9558 23.9602 30.5106C23.7581 29.2664 23.9733 28.4677 24.1259 28.1844C24.3849 28.2284 24.6494 28.1715 24.8693 28.0249C25.1465 27.842 25.32 27.5354 25.3304 27.2055L25.3668 26.631C25.3824 26.4585 25.3486 26.286 25.2788 26.126C24.9678 25.4485 24.7735 23.8847 25.0042 22.208C25.2714 20.2142 25.981 19.3151 26.02 19.2095C26.357 19.5057 26.8389 19.5493 27.225 19.3281C27.6132 19.1064 27.8127 18.6635 27.722 18.2305C27.686 18.0606 27.6704 17.8881 27.6756 17.7156C27.6938 17.1541 28.0642 16.5253 28.7222 15.9457C29.9814 14.8403 32.471 13.8514 35.1501 14.1037C40.3888 14.6087 42.6246 18.2024 43.096 20.3557C41.3108 20.7163 39.6348 21.4223 38.4248 22.4836C37.4376 23.3465 36.8469 24.3306 36.6994 25.348C36.1941 25.4847 35.5825 25.8633 35.0282 26.7905C34.5255 27.6384 34.1629 28.7717 33.9894 30.0677C33.7743 31.6621 33.8572 33.3056 34.1942 34.483C33.7665 34.7202 33.295 35.2019 33.0335 36.1779C32.8106 36.9921 32.7824 38.0095 32.9507 39.0398C33.0569 39.694 33.2408 40.2633 33.4612 40.7838C31.4842 40.5596 29.7224 39.6479 28.5565 38.1229C27.7173 36.9947 26.8932 35.2865 26.2326 33.3135C26.1289 33.0094 26.0252 32.7519 25.7221 32.6462ZM11.353 57.5135C12.0448 55.0433 13.6561 50.123 14.3271 48.1107C14.897 46.5935 15.4539 45.5653 16.6146 44.7977C18.8115 43.3473 21.1666 42.3347 23.3791 41.4541C24.6669 40.9414 26.0995 40.3798 27.418 39.9007C29.1538 41.8121 31.6126 42.9382 34.3642 42.9382C34.7086 42.9382 35.0482 42.9149 35.38 42.8817C35.4525 42.905 35.5175 42.964 35.59 42.977C35.9864 44.0564 36.5693 45.2774 37.2482 46.4289C36.0099 46.8873 34.7117 47.3949 33.4422 47.8999C31.3204 48.7447 28.8277 49.8164 26.447 51.388C24.8227 52.4622 24.0298 53.8971 23.3328 55.7597C23.299 55.8576 23.0739 56.5377 22.7525 57.5142L11.353 57.5135ZM22.2886 65.9322C22.9856 63.4439 24.6099 58.4744 25.2888 56.4444C25.8639 54.9143 26.4235 53.8762 27.5971 53.106C29.8174 51.6402 32.1855 50.6202 34.3464 49.7624C35.6624 49.2393 37.1339 48.6597 38.4941 48.1681C40.2429 50.095 42.72 51.2284 45.4893 51.2284C48.2226 51.2284 50.6841 50.108 52.4276 48.2039C53.8295 48.7037 55.4017 49.2911 56.7181 49.8163C58.7467 50.6202 61.1201 51.6427 63.3352 53.106C64.514 53.8866 65.1126 55.0019 65.633 56.4113C66.3222 58.4723 67.9518 63.449 68.6462 65.9349H22.2891L22.2886 65.9322Z" fill="white"/>
</svg>
