<svg width="69" height="69" viewBox="0 0 69 69" fill="none" xmlns="http://www.w3.org/2000/svg">
<path d="M0.503906 6.54074C0.503906 3.48068 2.98458 1 6.04465 1H62.4595C65.5196 1 68.0002 3.48067 68.0002 6.54074V62.9556C68.0002 66.0157 65.5196 68.4963 62.4595 68.4963H6.04465C2.98459 68.4963 0.503906 66.0157 0.503906 62.9556V6.54074Z" stroke="#262626"/>
<path d="M67.4963 40.7925H0V68.9999H67.4963V40.7925Z" fill="url(#paint0_radial_37_4382)"/>
<path d="M25 32.75H31.75V53H25V32.75ZM27.25 50.75H29.5V35H27.25V50.75ZM34 37.25H40.75V53H34V37.25ZM36.25 50.75H38.5V39.5H36.25V50.75ZM16 41.75H22.75V53H16V41.75ZM18.25 50.75H20.5V44H18.25V50.75ZM43 28.25H49.75V53H43V28.25ZM45.25 50.75H47.5V30.5H45.25V50.75ZM40.416 27.916C40.6387 28.3965 40.75 28.8828 40.75 29.375C40.75 29.8438 40.6621 30.2832 40.4863 30.6934C40.3105 31.1035 40.0703 31.4609 39.7656 31.7656C39.4609 32.0703 39.1035 32.3105 38.6934 32.4863C38.2832 32.6621 37.8438 32.75 37.375 32.75C36.9062 32.75 36.4668 32.6621 36.0566 32.4863C35.6465 32.3105 35.2891 32.0703 34.9844 31.7656C34.6797 31.4609 34.4395 31.1035 34.2637 30.6934C34.0879 30.2832 34 29.8438 34 29.375V29.1641C34 29.0938 34.0059 29.0234 34.0176 28.9531L30.7129 27.3008C30.4082 27.6055 30.0508 27.8398 29.6406 28.0039C29.2305 28.168 28.8086 28.25 28.375 28.25C27.8828 28.25 27.3965 28.1387 26.916 27.916L22.416 32.416C22.6387 32.8965 22.75 33.3828 22.75 33.875C22.75 34.3438 22.6621 34.7832 22.4863 35.1934C22.3105 35.6035 22.0703 35.9609 21.7656 36.2656C21.4609 36.5703 21.1035 36.8105 20.6934 36.9863C20.2832 37.1621 19.8438 37.25 19.375 37.25C18.9062 37.25 18.4668 37.1621 18.0566 36.9863C17.6465 36.8105 17.2891 36.5703 16.9844 36.2656C16.6797 35.9609 16.4395 35.6035 16.2637 35.1934C16.0879 34.7832 16 34.3438 16 33.875C16 33.4062 16.0879 32.9668 16.2637 32.5566C16.4395 32.1465 16.6797 31.7891 16.9844 31.4844C17.2891 31.1797 17.6465 30.9395 18.0566 30.7637C18.4668 30.5879 18.9062 30.5 19.375 30.5C19.8672 30.5 20.3535 30.6113 20.834 30.834L25.334 26.334C25.1113 25.8535 25 25.3672 25 24.875C25 24.4062 25.0879 23.9668 25.2637 23.5566C25.4395 23.1465 25.6797 22.7891 25.9844 22.4844C26.2891 22.1797 26.6465 21.9395 27.0566 21.7637C27.4668 21.5879 27.9062 21.5 28.375 21.5C28.8438 21.5 29.2832 21.5879 29.6934 21.7637C30.1035 21.9395 30.4609 22.1797 30.7656 22.4844C31.0703 22.7891 31.3105 23.1465 31.4863 23.5566C31.6621 23.9668 31.75 24.4062 31.75 24.875V25.0859C31.75 25.1562 31.7441 25.2266 31.7324 25.2969L35.0371 26.9492C35.3418 26.6445 35.6992 26.4102 36.1094 26.2461C36.5195 26.082 36.9414 26 37.375 26C37.8672 26 38.3535 26.1113 38.834 26.334L43.334 21.834C43.1113 21.3535 43 20.8672 43 20.375C43 19.9062 43.0879 19.4668 43.2637 19.0566C43.4395 18.6465 43.6797 18.2891 43.9844 17.9844C44.2891 17.6797 44.6465 17.4395 45.0566 17.2637C45.4668 17.0879 45.9062 17 46.375 17C46.8438 17 47.2832 17.0879 47.6934 17.2637C48.1035 17.4395 48.4609 17.6797 48.7656 17.9844C49.0703 18.2891 49.3105 18.6465 49.4863 19.0566C49.6621 19.4668 49.75 19.9062 49.75 20.375C49.75 20.8438 49.6621 21.2832 49.4863 21.6934C49.3105 22.1035 49.0703 22.4609 48.7656 22.7656C48.4609 23.0703 48.1035 23.3105 47.6934 23.4863C47.2832 23.6621 46.8438 23.75 46.375 23.75C45.8828 23.75 45.3965 23.6387 44.916 23.416L40.416 27.916ZM19.375 35C19.6797 35 19.9434 34.8887 20.166 34.666C20.3887 34.4434 20.5 34.1797 20.5 33.875C20.5 33.5703 20.3887 33.3066 20.166 33.084C19.9434 32.8613 19.6797 32.75 19.375 32.75C19.0703 32.75 18.8066 32.8613 18.584 33.084C18.3613 33.3066 18.25 33.5703 18.25 33.875C18.25 34.1797 18.3613 34.4434 18.584 34.666C18.8066 34.8887 19.0703 35 19.375 35ZM46.375 19.25C46.0703 19.25 45.8066 19.3613 45.584 19.584C45.3613 19.8066 45.25 20.0703 45.25 20.375C45.25 20.6797 45.3613 20.9434 45.584 21.166C45.8066 21.3887 46.0703 21.5 46.375 21.5C46.6797 21.5 46.9434 21.3887 47.166 21.166C47.3887 20.9434 47.5 20.6797 47.5 20.375C47.5 20.0703 47.3887 19.8066 47.166 19.584C46.9434 19.3613 46.6797 19.25 46.375 19.25ZM28.375 26C28.6797 26 28.9434 25.8887 29.166 25.666C29.3887 25.4434 29.5 25.1797 29.5 24.875C29.5 24.5703 29.3887 24.3066 29.166 24.084C28.9434 23.8613 28.6797 23.75 28.375 23.75C28.0703 23.75 27.8066 23.8613 27.584 24.084C27.3613 24.3066 27.25 24.5703 27.25 24.875C27.25 25.1797 27.3613 25.4434 27.584 25.666C27.8066 25.8887 28.0703 26 28.375 26ZM37.375 30.5C37.6797 30.5 37.9434 30.3887 38.166 30.166C38.3887 29.9434 38.5 29.6797 38.5 29.375C38.5 29.0703 38.3887 28.8066 38.166 28.584C37.9434 28.3613 37.6797 28.25 37.375 28.25C37.0703 28.25 36.8066 28.3613 36.584 28.584C36.3613 28.8066 36.25 29.0703 36.25 29.375C36.25 29.6797 36.3613 29.9434 36.584 30.166C36.8066 30.3887 37.0703 30.5 37.375 30.5Z" fill="white"/>
<defs>
<radialGradient id="paint0_radial_37_4382" cx="0" cy="0" r="1" gradientUnits="userSpaceOnUse" gradientTransform="translate(33.7481 68.9999) scale(33.7481 28.2074)">
<stop stop-color="white" stop-opacity="0.12"/>
<stop offset="1" stop-color="white" stop-opacity="0"/>
</radialGradient>
</defs>
</svg>

