<svg width="56" height="58" viewBox="0 0 56 58" fill="none" xmlns="http://www.w3.org/2000/svg">
<path d="M7.9277 56.6858C7.63716 56.6858 7.40137 56.4502 7.40137 56.16V8.18211C7.40137 7.89184 7.63716 7.65625 7.9277 7.65625C8.21823 7.65625 8.45402 7.89184 8.45402 8.18211V56.16C8.45402 56.4502 8.21823 56.6858 7.9277 56.6858Z" fill="#10003B"/>
<path d="M2.87553 15.3707C3.12027 15.5269 3.44607 15.4538 3.60239 15.2085L7.92801 8.42246L12.2539 15.2085C12.4102 15.454 12.736 15.5269 12.9808 15.3707C13.2255 15.2145 13.2963 14.8869 13.1421 14.6434L8.37223 7.16118C8.27592 7.01026 8.10802 6.91797 7.92801 6.91797C7.74827 6.91797 7.58064 7.01026 7.48379 7.16118L2.71421 14.6434C2.65868 14.7318 2.63184 14.8293 2.63184 14.9263C2.63184 15.0996 2.71815 15.27 2.87553 15.3707Z" fill="#10003B"/>
<path d="M51.1785 51.9209H3.15816C2.86763 51.9209 2.63184 51.6853 2.63184 51.395C2.63184 51.1047 2.86763 50.8691 3.15816 50.8691H51.1785C51.469 50.8691 51.7048 51.1047 51.7048 51.395C51.7048 51.6853 51.4688 51.9209 51.1785 51.9209Z" fill="#10003B"/>
<path d="M43.9836 46.345C43.8273 46.5896 43.9007 46.9151 44.146 47.0713L50.938 51.3933L44.146 55.7154C43.9005 55.8716 43.8273 56.1971 43.9836 56.4416C44.14 56.6861 44.4679 56.7568 44.7118 56.6028L52.2004 51.8371C52.3515 51.7409 52.4441 51.5732 52.4441 51.3933C52.4441 51.2137 52.3515 51.0462 52.2004 50.9495L44.7118 46.1839C44.6231 46.1284 44.5258 46.1016 44.4289 46.1016C44.255 46.1016 44.0844 46.1878 43.9836 46.345Z" fill="#10003B"/>
<path d="M20.0903 26.5352H12.6973V46.6294H20.0903V26.5352Z" fill="#FE7058"/>
<path d="M20.0903 47.1538H12.6972C12.4067 47.1538 12.1709 46.9182 12.1709 46.6279V26.5337C12.1709 26.2434 12.4067 26.0078 12.6972 26.0078H20.0903C20.3808 26.0078 20.6166 26.2434 20.6166 26.5337V46.6279C20.6166 46.9182 20.3808 47.1538 20.0903 47.1538ZM13.2236 46.1021H19.564V27.0595H13.2236V46.1021Z" fill="#10003B"/>
<path d="M32.2532 19.3867H24.8604V46.6285H32.2532V19.3867Z" fill="#52C0F5"/>
<path d="M32.2531 47.1534H24.8603C24.5698 47.1534 24.334 46.9178 24.334 46.6275V19.3852C24.334 19.095 24.5698 18.8594 24.8603 18.8594H32.2531C32.5436 18.8594 32.7794 19.095 32.7794 19.3852V46.6273C32.7794 46.9178 32.5436 47.1534 32.2531 47.1534ZM25.3866 46.1017H31.7268V19.9114H25.3866V46.1017Z" fill="#10003B"/>
<path d="M44.4158 12.2383H37.0225V46.6286H44.4158V12.2383Z" fill="#4BD6C1"/>
<path d="M44.4158 47.155H37.0224C36.7319 47.155 36.4961 46.9194 36.4961 46.6291V12.2388C36.4961 11.9485 36.7319 11.7129 37.0224 11.7129H44.4158C44.7063 11.7129 44.9421 11.9485 44.9421 12.2388V46.6291C44.9421 46.9194 44.7063 47.155 44.4158 47.155ZM37.549 46.1032H43.8897V12.7646H37.549V46.1032Z" fill="#10003B"/>
</svg>
