<svg width="24" height="24" viewBox="0 0 24 24" fill="none" xmlns="http://www.w3.org/2000/svg">
<path d="M16.8006 3.30002C16.8006 3.06133 16.8954 2.83241 17.0642 2.66363C17.233 2.49485 17.4619 2.40002 17.7006 2.40002H20.7006C20.9393 2.40002 21.1682 2.49485 21.337 2.66363C21.5058 2.83241 21.6006 3.06133 21.6006 3.30002V6.30002C21.6006 6.53872 21.5058 6.76764 21.337 6.93642C21.1682 7.1052 20.9393 7.20002 20.7006 7.20002C20.4619 7.20002 20.233 7.1052 20.0642 6.93642C19.8954 6.76764 19.8006 6.53872 19.8006 6.30002V5.47202L14.4366 10.836C14.2678 11.0046 14.0391 11.0992 13.8006 11.0992C13.5621 11.0992 13.3333 11.0046 13.1646 10.836L10.2006 7.87202L5.13657 12.936C5.05418 13.0244 4.95482 13.0954 4.84442 13.1446C4.73402 13.1938 4.61485 13.2202 4.494 13.2223C4.37316 13.2245 4.25312 13.2022 4.14106 13.157C4.02899 13.1117 3.92719 13.0443 3.84173 12.9589C3.75627 12.8734 3.68889 12.7716 3.64363 12.6595C3.59836 12.5475 3.57613 12.4274 3.57827 12.3066C3.5804 12.1858 3.60685 12.0666 3.65604 11.9562C3.70523 11.8458 3.77615 11.7464 3.86458 11.664L9.56457 5.96402C9.73332 5.79548 9.96207 5.70082 10.2006 5.70082C10.4391 5.70082 10.6678 5.79548 10.8366 5.96402L13.8006 8.92802L18.5286 4.20002H17.7006C17.4619 4.20002 17.233 4.1052 17.0642 3.93642C16.8954 3.76764 16.8006 3.53872 16.8006 3.30002ZM4.50057 16.8C4.73927 16.8 4.96819 16.8948 5.13697 17.0636C5.30575 17.2324 5.40057 17.4613 5.40057 17.7V20.7C5.40057 20.9387 5.30575 21.1676 5.13697 21.3364C4.96819 21.5052 4.73927 21.6 4.50057 21.6C4.26188 21.6 4.03296 21.5052 3.86418 21.3364C3.6954 21.1676 3.60058 20.9387 3.60058 20.7V17.7C3.60058 17.4613 3.6954 17.2324 3.86418 17.0636C4.03296 16.8948 4.26188 16.8 4.50057 16.8ZM10.2006 14.1C10.2006 13.8613 10.1058 13.6324 9.93697 13.4636C9.76819 13.2948 9.53927 13.2 9.30057 13.2C9.06188 13.2 8.83296 13.2948 8.66418 13.4636C8.4954 13.6324 8.40057 13.8613 8.40057 14.1V20.7C8.40057 20.9387 8.4954 21.1676 8.66418 21.3364C8.83296 21.5052 9.06188 21.6 9.30057 21.6C9.53927 21.6 9.76819 21.5052 9.93697 21.3364C10.1058 21.1676 10.2006 20.9387 10.2006 20.7V14.1ZM14.1006 15.6C14.3393 15.6 14.5682 15.6948 14.737 15.8636C14.9058 16.0324 15.0006 16.2613 15.0006 16.5V20.7C15.0006 20.9387 14.9058 21.1676 14.737 21.3364C14.5682 21.5052 14.3393 21.6 14.1006 21.6C13.8619 21.6 13.633 21.5052 13.4642 21.3364C13.2954 21.1676 13.2006 20.9387 13.2006 20.7V16.5C13.2006 16.2613 13.2954 16.0324 13.4642 15.8636C13.633 15.6948 13.8619 15.6 14.1006 15.6ZM19.8006 11.7C19.8006 11.4613 19.7058 11.2324 19.537 11.0636C19.3682 10.8948 19.1393 10.8 18.9006 10.8C18.6619 10.8 18.433 10.8948 18.2642 11.0636C18.0954 11.2324 18.0006 11.4613 18.0006 11.7V20.7C18.0006 20.9387 18.0954 21.1676 18.2642 21.3364C18.433 21.5052 18.6619 21.6 18.9006 21.6C19.1393 21.6 19.3682 21.5052 19.537 21.3364C19.7058 21.1676 19.8006 20.9387 19.8006 20.7V11.7Z" fill="white"/>
</svg>

