<svg width="36" height="37" viewBox="0 0 36 37" fill="none" xmlns="http://www.w3.org/2000/svg">
<path d="M18 9.5C17.6022 9.5 17.2206 9.65804 16.9393 9.93934C16.658 10.2206 16.5 10.6022 16.5 11V26C16.5 26.3978 16.658 26.7794 16.9393 27.0607C17.2206 27.342 17.6022 27.5 18 27.5C18.3978 27.5 18.7794 27.342 19.0607 27.0607C19.342 26.7794 19.5 26.3978 19.5 26V11C19.5 10.6022 19.342 10.2206 19.0607 9.93934C18.7794 9.65804 18.3978 9.5 18 9.5ZM10.5 18.5C10.1022 18.5 9.72065 18.658 9.43934 18.9393C9.15804 19.2206 9 19.6022 9 20V26C9 26.3978 9.15804 26.7794 9.43934 27.0607C9.72065 27.342 10.1022 27.5 10.5 27.5C10.8978 27.5 11.2794 27.342 11.5607 27.0607C11.842 26.7794 12 26.3978 12 26V20C12 19.6022 11.842 19.2206 11.5607 18.9393C11.2794 18.658 10.8978 18.5 10.5 18.5ZM25.5 15.5C25.1022 15.5 24.7206 15.658 24.4393 15.9393C24.158 16.2206 24 16.6022 24 17V26C24 26.3978 24.158 26.7794 24.4393 27.0607C24.7206 27.342 25.1022 27.5 25.5 27.5C25.8978 27.5 26.2794 27.342 26.5607 27.0607C26.842 26.7794 27 26.3978 27 26V17C27 16.6022 26.842 16.2206 26.5607 15.9393C26.2794 15.658 25.8978 15.5 25.5 15.5ZM28.5 3.5H7.5C6.30653 3.5 5.16193 3.97411 4.31802 4.81802C3.47411 5.66193 3 6.80653 3 8V29C3 30.1935 3.47411 31.3381 4.31802 32.182C5.16193 33.0259 6.30653 33.5 7.5 33.5H28.5C29.6935 33.5 30.8381 33.0259 31.682 32.182C32.5259 31.3381 33 30.1935 33 29V8C33 6.80653 32.5259 5.66193 31.682 4.81802C30.8381 3.97411 29.6935 3.5 28.5 3.5ZM30 29C30 29.3978 29.842 29.7794 29.5607 30.0607C29.2794 30.342 28.8978 30.5 28.5 30.5H7.5C7.10218 30.5 6.72064 30.342 6.43934 30.0607C6.15804 29.7794 6 29.3978 6 29V8C6 7.60218 6.15804 7.22064 6.43934 6.93934C6.72064 6.65804 7.10218 6.5 7.5 6.5H28.5C28.8978 6.5 29.2794 6.65804 29.5607 6.93934C29.842 7.22064 30 7.60218 30 8V29Z" fill="white"/>
</svg>

