<svg width="69" height="69" viewBox="0 0 69 69" fill="none" xmlns="http://www.w3.org/2000/svg">
<path d="M0.503906 6.54074C0.503906 3.48068 2.98458 1 6.04465 1H62.4595C65.5196 1 68.0002 3.48067 68.0002 6.54074V62.9556C68.0002 66.0157 65.5196 68.4963 62.4595 68.4963H6.04465C2.98459 68.4963 0.503906 66.0157 0.503906 62.9556V6.54074Z" stroke="#262626"/>
<path d="M67.4963 40.7925H0V68.9999H67.4963V40.7925Z" fill="url(#paint0_radial_37_4391)"/>
<g clip-path="url(#clip0_37_4391)">
<path d="M26.035 37.28C26.2827 37.6554 26.6221 37.9612 27.0211 38.1686C27.4201 38.376 27.8655 38.478 28.315 38.465M28.315 38.465C28.9289 38.5194 29.5396 38.3293 30.0142 37.9361C30.4888 37.5429 30.7892 36.9783 30.85 36.365C30.7929 35.749 30.4941 35.1806 30.0191 34.7842C29.544 34.3879 28.9313 34.1958 28.315 34.25C27.7012 34.3 27.0923 34.106 26.6206 33.7101C26.1488 33.3142 25.8522 32.7482 25.795 32.135C25.8559 31.5245 26.1541 30.9623 26.6254 30.5695C27.0968 30.1767 27.7035 29.9848 28.315 30.035M28.315 38.465V39.875M28.315 30.035C28.7652 30.0176 29.2122 30.1177 29.612 30.3255C30.0117 30.5333 30.3505 30.8415 30.595 31.22M28.315 30.035V28.625M37 39.875V35.375M42.25 39.875V30.875M18.25 18.125H49.75C49.75 18.125 50.875 18.125 50.875 19.25V23C50.875 23 50.875 24.125 49.75 24.125H18.25C18.25 24.125 17.125 24.125 17.125 23V19.25C17.125 19.25 17.125 18.125 18.25 18.125Z" stroke="white" stroke-width="2" stroke-linecap="round" stroke-linejoin="round"/>
<path d="M34 50.375V44M34 50.375C35.245 50.375 36.25 51.05 36.25 51.875M34 50.375C32.755 50.375 31.75 51.05 31.75 51.875M17.125 44H50.875M19.375 24.125H48.625V44H19.375V24.125Z" stroke="white" stroke-width="2" stroke-linecap="round" stroke-linejoin="round"/>
</g>
<defs>
<radialGradient id="paint0_radial_37_4391" cx="0" cy="0" r="1" gradientUnits="userSpaceOnUse" gradientTransform="translate(33.7481 68.9999) scale(33.7481 28.2074)">
<stop stop-color="white" stop-opacity="0.12"/>
<stop offset="1" stop-color="white" stop-opacity="0"/>
</radialGradient>
<clipPath id="clip0_37_4391">
<rect width="36" height="36" fill="white" transform="translate(16 17)"/>
</clipPath>
</defs>
</svg>

