<svg width="18" height="16" viewBox="0 0 18 16" fill="none" xmlns="http://www.w3.org/2000/svg">
<path fill-rule="evenodd" clip-rule="evenodd" d="M8.82744 16C13.4252 16 17.1524 12.4183 17.1524 8C17.1524 3.58172 13.4252 0 8.82744 0C4.22967 0 0.502441 3.58172 0.502441 8C0.502441 12.4183 4.22967 16 8.82744 16ZM12.6852 6.70711C13.0915 6.31658 13.0915 5.68342 12.6852 5.29289C12.2788 4.90237 11.6199 4.90237 11.2135 5.29289L7.78682 8.58579L6.4414 7.29289C6.03501 6.90237 5.37612 6.90237 4.96973 7.29289C4.56334 7.68342 4.56334 8.31658 4.96973 8.70711L7.05098 10.7071C7.45737 11.0976 8.11626 11.0976 8.52265 10.7071L12.6852 6.70711Z" fill="#71717A"/>
</svg>
