<svg width="75" height="75" viewBox="0 0 75 75" fill="none" xmlns="http://www.w3.org/2000/svg">
<path d="M26.8359 28.1453C26.8359 30.5986 27.8105 32.9513 29.5452 34.6861C31.2799 36.4208 33.6327 37.3953 36.0859 37.3953C38.5392 37.3953 40.892 36.4208 42.6267 34.6861C44.3614 32.9513 45.3359 30.5986 45.3359 28.1453C44.8734 15.8891 27.2984 15.8891 26.8359 28.1453ZM36.0859 35.0828C26.9169 34.7938 26.9169 21.4969 36.0859 21.2078C45.255 21.4969 45.255 34.7938 36.0859 35.0828Z" fill="url(#paint0_linear_2012_10345)"/>
<path d="M39.5547 26.9902H32.6172C32.3105 26.9902 32.0164 27.1121 31.7996 27.3289C31.5828 27.5457 31.4609 27.8398 31.4609 28.1465C31.4609 28.4531 31.5828 28.7472 31.7996 28.9641C32.0164 29.1809 32.3105 29.3027 32.6172 29.3027H39.5547C39.8613 29.3027 40.1554 29.1809 40.3723 28.9641C40.5891 28.7472 40.7109 28.4531 40.7109 28.1465C40.7109 27.8398 40.5891 27.5457 40.3723 27.3289C40.1554 27.1121 39.8613 26.9902 39.5547 26.9902Z" fill="url(#paint1_linear_2012_10345)"/>
<path d="M37.3691 51.1787C37.4379 51.2139 37.5122 51.2373 37.5888 51.248C37.8954 51.248 38.1895 51.1262 38.4064 50.9094C38.6232 50.6926 38.745 50.3985 38.745 50.0918C38.745 49.7851 38.6232 49.491 38.4064 49.2742C38.1895 49.0574 37.8954 48.9355 37.5888 48.9355C37.5122 48.9463 37.4379 48.9697 37.3691 49.0049C37.2981 49.028 37.2316 49.0632 37.1725 49.109L36.9875 49.2477C36.8792 49.3552 36.7931 49.4831 36.7344 49.624C36.6757 49.7649 36.6455 49.916 36.6455 50.0687C36.6455 50.2213 36.6757 50.3724 36.7344 50.5133C36.7931 50.6542 36.8792 50.7821 36.9875 50.8896L37.1725 51.0284C37.2278 51.0906 37.2945 51.1417 37.3691 51.1787Z" fill="url(#paint2_linear_2012_10345)"/>
<path d="M65.0728 42.5876C64.2067 42.5918 63.3654 42.8771 62.6752 43.4004C61.9851 43.9237 61.4834 44.6569 61.2456 45.4897H58.2741V40.8647H66.0672C66.2356 40.862 66.4013 40.8226 66.5528 40.7491C73.6638 32.8751 67.7091 19.5666 57.3028 19.0116C55.1154 16.3144 52.1368 14.3716 48.7867 13.4568C45.4367 12.542 41.8841 12.7014 38.6294 13.9126C33.2181 0.638811 14.2094 3.93412 13.3306 18.2022C11.1163 18.8657 9.10946 20.0869 7.50267 21.7488C5.89587 23.4107 4.74297 25.4575 4.1545 27.693C3.56604 29.9285 3.56174 32.2776 4.14203 34.5153C4.72233 36.7529 5.86774 38.8039 7.46845 40.4716C7.5768 40.595 7.71018 40.6938 7.8597 40.7616C8.00922 40.8294 8.17147 40.8645 8.33564 40.8647H16.2444V45.4897H13.2381C12.9607 44.5678 12.3609 43.7763 11.5483 43.2598C10.7356 42.7434 9.76439 42.5364 8.81181 42.6766C7.85923 42.8168 6.98885 43.2949 6.35954 44.0237C5.73024 44.7524 5.38398 45.6832 5.38398 46.646C5.38398 47.6088 5.73024 48.5396 6.35954 49.2683C6.98885 49.9971 7.85923 50.4752 8.81181 50.6154C9.76439 50.7556 10.7356 50.5486 11.5483 50.0322C12.3609 49.5157 12.9607 48.7242 13.2381 47.8022H17.3313C17.4873 47.8062 17.6425 47.7786 17.7876 47.7209C17.9327 47.6633 18.0646 47.5769 18.1753 47.4669C18.2839 47.3575 18.3695 47.2275 18.4271 47.0845C18.4846 46.9416 18.5131 46.7885 18.5106 46.6344V40.8647H25.2863V55.896H18.9269C18.6494 54.974 18.0496 54.1825 17.237 53.6661C16.4244 53.1496 15.4531 52.9426 14.5006 53.0828C13.548 53.2231 12.6776 53.7012 12.0483 54.4299C11.419 55.1587 11.0727 56.0894 11.0727 57.0522C11.0727 58.0151 11.419 58.9458 12.0483 59.6746C12.6776 60.4033 13.548 60.8814 14.5006 61.0217C15.4531 61.1619 16.4244 60.9549 17.237 60.4384C18.0496 59.922 18.6494 59.1305 18.9269 58.2085H26.4541C26.7607 58.2085 27.0548 58.0867 27.2717 57.8698C27.4885 57.653 27.6103 57.3589 27.6103 57.0522V40.8647H36.6522V46.646C36.6522 46.9527 36.774 47.2468 36.9909 47.4636C37.2077 47.6804 37.5018 47.8022 37.8085 47.8022C38.1151 47.8022 38.4092 47.6804 38.626 47.4636C38.8429 47.2468 38.9647 46.9527 38.9647 46.646V40.8647H46.8735V57.0522C46.8735 57.3589 46.9953 57.653 47.2121 57.8698C47.4289 58.0867 47.723 58.2085 48.0297 58.2085H55.5106C55.7881 59.1305 56.3879 59.922 57.2005 60.4384C58.0131 60.9549 58.9844 61.1619 59.937 61.0217C60.8895 60.8814 61.7599 60.4033 62.3892 59.6746C63.0185 58.9458 63.3648 58.0151 63.3648 57.0522C63.3648 56.0894 63.0185 55.1587 62.3892 54.4299C61.7599 53.7012 60.8895 53.2231 59.937 53.0828C58.9844 52.9426 58.0131 53.1496 57.2005 53.6661C56.3879 54.1825 55.7881 54.974 55.5106 55.896H49.186V40.8647H55.9616V46.646C55.9592 46.8001 55.9876 46.9531 56.0452 47.0961C56.1027 47.2391 56.1883 47.3691 56.2969 47.4785C56.4077 47.5885 56.5396 47.6749 56.6846 47.7325C56.8297 47.7901 56.9849 47.8178 57.1409 47.8138H61.2341C61.4504 48.5248 61.8599 49.1617 62.4169 49.6535C62.974 50.1454 63.6567 50.4729 64.389 50.5995C65.1212 50.7261 65.8743 50.6469 66.5641 50.3706C67.254 50.0943 67.8536 49.6319 68.2961 49.0349C68.7385 48.4378 69.0065 47.7296 69.07 46.9892C69.1336 46.2488 68.9903 45.5053 68.6561 44.8415C68.3218 44.1778 67.8098 43.6199 67.1772 43.2301C66.5445 42.8403 65.816 42.6339 65.0728 42.6338V42.5876ZM9.41095 48.3688C8.95097 48.3688 8.50982 48.1861 8.18456 47.8608C7.8593 47.5356 7.67657 47.0944 7.67657 46.6344C7.67657 46.1745 7.8593 45.7333 8.18456 45.4081C8.50982 45.0828 8.95097 44.9001 9.41095 44.9001C9.8694 44.9001 10.3091 45.0822 10.6333 45.4064C10.9574 45.7305 11.1395 46.1702 11.1395 46.6287C11.1395 47.0871 10.9574 47.5268 10.6333 47.851C10.3091 48.1751 9.8694 48.3573 9.41095 48.3573V48.3688ZM15.0881 58.7751C14.6282 58.7751 14.187 58.5923 13.8617 58.2671C13.5365 57.9418 13.3538 57.5007 13.3538 57.0407C13.3538 56.5807 13.5365 56.1396 13.8617 55.8143C14.187 55.489 14.6282 55.3063 15.0881 55.3063C15.5451 55.3063 15.9833 55.4878 16.3064 55.8109C16.6294 56.134 16.811 56.5722 16.811 57.0291C16.811 57.486 16.6294 57.9242 16.3064 58.2473C15.9833 58.5704 15.5451 58.7519 15.0881 58.7519V58.7751ZM59.3378 55.3063C59.7978 55.3063 60.239 55.489 60.5642 55.8143C60.8895 56.1396 61.0722 56.5807 61.0722 57.0407C61.0722 57.5007 60.8895 57.9418 60.5642 58.2671C60.239 58.5923 59.7978 58.7751 59.3378 58.7751C58.8809 58.7751 58.4427 58.5936 58.1196 58.2705C57.7965 57.9474 57.615 57.5092 57.615 57.0522C57.615 56.5953 57.7965 56.1571 58.1196 55.834C58.4427 55.5109 58.8809 55.3294 59.3378 55.3294V55.3063ZM8.8097 38.5522C7.53027 37.1004 6.65041 35.3408 6.25652 33.4462C5.86263 31.5516 5.96826 29.5871 6.56303 27.7457C7.1578 25.9042 8.22126 24.2491 9.64899 22.9429C11.0767 21.6366 12.8196 20.7242 14.7066 20.2951C14.86 20.2664 15.0061 20.2069 15.136 20.1202C15.2658 20.0335 15.3768 19.9214 15.4621 19.7906C15.5475 19.6599 15.6055 19.5132 15.6326 19.3595C15.6598 19.2057 15.6555 19.0481 15.62 18.896C15.5581 16.2563 16.4634 13.685 18.1654 11.6662C19.8674 9.64751 22.2487 8.32065 24.8609 7.9355C27.4731 7.55034 30.136 8.13347 32.3482 9.57507C34.5604 11.0167 36.1693 13.2173 36.8719 15.7626C36.919 15.9227 37.0003 16.0707 37.1101 16.1965C37.2198 16.3222 37.3555 16.4227 37.5078 16.491C37.66 16.5614 37.8257 16.5979 37.9935 16.5979C38.1612 16.5979 38.3269 16.5614 38.4791 16.491C40.3539 15.6007 42.4046 15.1424 44.48 15.1497C46.6838 15.1497 48.8575 15.6615 50.8299 16.6446C52.8022 17.6278 54.5194 19.0556 55.8459 20.8154C55.9513 20.9523 56.0859 21.0638 56.2399 21.1418C56.394 21.2199 56.5636 21.2624 56.7363 21.2663C65.1653 21.3704 70.2875 31.5569 65.466 38.5291L8.8097 38.5522ZM65.0728 48.3688C64.6128 48.3688 64.1717 48.1861 63.8464 47.8608C63.5212 47.5356 63.3384 47.0944 63.3384 46.6344C63.3384 46.1745 63.5212 45.7333 63.8464 45.4081C64.1717 45.0828 64.6128 44.9001 65.0728 44.9001C65.2975 44.9001 65.5201 44.9443 65.7277 45.0303C65.9353 45.1163 66.124 45.2424 66.2829 45.4013C66.4418 45.5602 66.5678 45.7488 66.6538 45.9564C66.7398 46.1641 66.7841 46.3866 66.7841 46.6113C66.7841 46.836 66.7398 47.0586 66.6538 47.2662C66.5678 47.4738 66.4418 47.6624 66.2829 47.8214C66.124 47.9803 65.9353 48.1063 65.7277 48.1923C65.5201 48.2783 65.2975 48.3226 65.0728 48.3226V48.3688Z" fill="url(#paint3_linear_2012_10345)"/>
<path d="M49.5212 59.9665C48.658 59.9679 47.8183 60.2477 47.1268 60.7643C46.4353 61.2808 45.9287 62.0067 45.6825 62.834H38.9647V53.584C38.9647 53.2773 38.8428 52.9832 38.626 52.7664C38.4092 52.5496 38.1151 52.4277 37.8084 52.4277C37.5018 52.4277 37.2077 52.5496 36.9908 52.7664C36.774 52.9832 36.6522 53.2773 36.6522 53.584V62.834H30.3044C30.0269 61.912 29.4271 61.1205 28.6145 60.6041C27.8019 60.0876 26.8306 59.8806 25.878 60.0208C24.9254 60.1611 24.0551 60.6392 23.4258 61.3679C22.7965 62.0966 22.4502 63.0274 22.4502 63.9902C22.4502 64.9531 22.7965 65.8838 23.4258 66.6126C24.0551 67.3413 24.9254 67.8194 25.878 67.9596C26.8306 68.0999 27.8019 67.8929 28.6145 67.3764C29.4271 66.8599 30.0269 66.0685 30.3044 65.1465H45.694C45.9105 65.8579 46.3204 66.4952 46.878 66.9872C47.4356 67.4792 48.1189 67.8065 48.8518 67.9327C49.5846 68.0588 50.3381 67.9789 51.0281 67.7017C51.7182 67.4245 52.3176 66.9609 52.7595 66.3629C53.2014 65.7648 53.4683 65.0556 53.5306 64.3146C53.5929 63.5736 53.448 62.8299 53.1121 62.1664C52.7762 61.503 52.2626 60.9459 51.6285 60.5575C50.9944 60.169 50.2648 59.9644 49.5212 59.9665ZM26.454 65.6899C26.026 65.6546 25.6268 65.4597 25.3358 65.1437C25.0449 64.8278 24.8833 64.414 24.8833 63.9845C24.8833 63.5549 25.0449 63.1411 25.3358 62.8252C25.6268 62.5092 26.026 62.3143 26.454 62.279C26.8821 62.3143 27.2813 62.5092 27.5722 62.8252C27.8632 63.1411 28.0247 63.5549 28.0247 63.9845C28.0247 64.414 27.8632 64.8278 27.5722 65.1437C27.2813 65.4597 26.8821 65.6546 26.454 65.6899ZM49.5212 65.6899C49.0932 65.6546 48.694 65.4597 48.403 65.1437C48.1121 64.8278 47.9505 64.414 47.9505 63.9845C47.9505 63.5549 48.1121 63.1411 48.403 62.8252C48.694 62.5092 49.0932 62.3143 49.5212 62.279C49.9493 62.3143 50.3485 62.5092 50.6394 62.8252C50.9304 63.1411 51.0919 63.5549 51.0919 63.9845C51.0919 64.414 50.9304 64.8278 50.6394 65.1437C50.3485 65.4597 49.9493 65.6546 49.5212 65.6899Z" fill="url(#paint4_linear_2012_10345)"/>
<defs>
<linearGradient id="paint0_linear_2012_10345" x1="26.8359" y1="28.18" x2="45.3359" y2="28.18" gradientUnits="userSpaceOnUse">
<stop stop-color="#9F2FFF"/>
<stop offset="1" stop-color="#0BB1D3"/>
</linearGradient>
<linearGradient id="paint1_linear_2012_10345" x1="31.4841" y1="28.1465" x2="40.7109" y2="28.1465" gradientUnits="userSpaceOnUse">
<stop stop-color="#9F2FFF"/>
<stop offset="1" stop-color="#0BB1D3"/>
</linearGradient>
<linearGradient id="paint2_linear_2012_10345" x1="36.6522" y1="50.1149" x2="38.9647" y2="50.1149" gradientUnits="userSpaceOnUse">
<stop stop-color="#9F2FFF"/>
<stop offset="1" stop-color="#0BB1D3"/>
</linearGradient>
<linearGradient id="paint3_linear_2012_10345" x1="3.71064" y1="33.2797" x2="69.6747" y2="33.2797" gradientUnits="userSpaceOnUse">
<stop stop-color="#9F2FFF"/>
<stop offset="1" stop-color="#0BB1D3"/>
</linearGradient>
<linearGradient id="paint4_linear_2012_10345" x1="22.4303" y1="60.1977" x2="53.545" y2="60.1977" gradientUnits="userSpaceOnUse">
<stop stop-color="#9F2FFF"/>
<stop offset="1" stop-color="#0BB1D3"/>
</linearGradient>
</defs>
</svg>
