<svg width="68" height="68" viewBox="0 0 68 68" fill="none" xmlns="http://www.w3.org/2000/svg">
<path fill-rule="evenodd" clip-rule="evenodd" d="M67.9965 1.49536L67.4103 9.04772C67.3876 9.35921 67.2758 9.65762 67.0884 9.90741C66.9009 10.1572 66.6456 10.3479 66.3528 10.4567C66.0601 10.5655 65.7422 10.5879 65.4371 10.5212C65.132 10.4546 64.8525 10.3016 64.6318 10.0806L62.9319 8.37947L51.6281 19.6986C50.7477 20.5771 49.5547 21.0705 48.3109 21.0705C47.0672 21.0705 45.8742 20.5771 44.9938 19.6986L39.7616 14.464C39.5417 14.2443 39.2436 14.1208 38.9327 14.1208C38.6219 14.1208 38.3237 14.2443 38.1039 14.464L20.9043 31.6708C20.4688 32.1068 19.9516 32.4527 19.3823 32.6887C18.8131 32.9247 18.2028 33.0462 17.5866 33.0462C16.9703 33.0462 16.3601 32.9247 15.7908 32.6887C15.2215 32.4527 14.7043 32.1068 14.2688 31.6708L11.3813 28.7821C11.1615 28.5627 10.8636 28.4394 10.5531 28.4394C10.2425 28.4394 9.9446 28.5627 9.7248 28.7821L4.00021 34.4974C3.08226 35.4001 1.61213 35.4001 0.694184 34.4974C0.47452 34.2816 0.300041 34.0243 0.180937 33.7404C0.0618318 33.4565 0.000488281 33.1517 0.000488281 32.8438C0.000488281 32.5359 0.0618318 32.2311 0.180937 31.9471C0.300041 31.6632 0.47452 31.4059 0.694184 31.1901L7.2359 24.6343C7.67139 24.1985 8.18851 23.8527 8.75768 23.6168C9.32686 23.3809 9.93694 23.2595 10.5531 23.2595C11.1692 23.2595 11.7793 23.3809 12.3484 23.6168C12.9176 23.8527 13.4347 24.1985 13.8702 24.6343L17.5854 28.3519L35.6161 10.3197C36.0516 9.8839 36.5688 9.53816 37.1379 9.30227C37.7071 9.06638 38.3172 8.94497 38.9333 8.94497C39.5494 8.94497 40.1595 9.06638 40.7287 9.30227C41.2979 9.53816 41.815 9.8839 42.2505 10.3197L47.4803 15.5485C47.5892 15.6575 47.7185 15.7439 47.8608 15.8029C48.0031 15.8619 48.1557 15.8923 48.3098 15.8923C48.4638 15.8923 48.6164 15.8619 48.7587 15.8029C48.901 15.7439 49.0303 15.6575 49.1392 15.5485L59.6224 5.06051L57.9225 3.36059C57.7023 3.14053 57.55 2.86183 57.4838 2.55769C57.4176 2.25355 57.4402 1.93678 57.5489 1.64511C57.6576 1.35344 57.8478 1.09916 58.097 0.912563C58.3461 0.725967 58.6437 0.614916 58.9541 0.592637L66.5158 0.00293772C66.7146 -0.0099895 66.9138 0.0198488 67.1001 0.0904417C67.2864 0.161035 67.4554 0.270742 67.5958 0.41217C67.7361 0.553598 67.8444 0.723461 67.9136 0.910312C67.9827 1.09716 68.0109 1.29666 67.9965 1.49536Z" fill="url(#paint0_linear_110_6242)"/>
<path d="M17.5853 63.3106H3.51706C2.22212 63.3106 1.17236 64.3603 1.17236 65.6553C1.17236 66.9503 2.22212 68 3.51706 68H17.5853C18.8802 68 19.93 66.9503 19.93 65.6553C19.93 64.3603 18.8802 63.3106 17.5853 63.3106Z" fill="#F0C419"/>
<path d="M41.0322 63.3106H26.964C25.6691 63.3106 24.6193 64.3603 24.6193 65.6553C24.6193 66.9503 25.6691 68 26.964 68H41.0322C42.3272 68 43.3769 66.9503 43.3769 65.6553C43.3769 64.3603 42.3272 63.3106 41.0322 63.3106Z" fill="#F0C419"/>
<path d="M41.0322 58.6212H26.964C25.6691 58.6212 24.6193 59.6709 24.6193 60.9659C24.6193 62.2608 25.6691 63.3106 26.964 63.3106H41.0322C42.3272 63.3106 43.3769 62.2608 43.3769 60.9659C43.3769 59.6709 42.3272 58.6212 41.0322 58.6212Z" fill="#F3D55B"/>
<path d="M41.0322 53.9316H26.964C25.6691 53.9316 24.6193 54.9814 24.6193 56.2763C24.6193 57.5713 25.6691 58.6211 26.964 58.6211H41.0322C42.3272 58.6211 43.3769 57.5713 43.3769 56.2763C43.3769 54.9814 42.3272 53.9316 41.0322 53.9316Z" fill="#F0C419"/>
<path d="M64.4792 63.3106H50.411C49.1161 63.3106 48.0663 64.3603 48.0663 65.6553C48.0663 66.9503 49.1161 68 50.411 68H64.4792C65.7742 68 66.8239 66.9503 66.8239 65.6553C66.8239 64.3603 65.7742 63.3106 64.4792 63.3106Z" fill="#F0C419"/>
<path d="M33.9981 53.9317C39.8254 53.9317 44.5493 49.2077 44.5493 43.3804C44.5493 37.5531 39.8254 32.8291 33.9981 32.8291C28.1709 32.8291 23.447 37.5531 23.447 43.3804C23.447 49.2077 28.1709 53.9317 33.9981 53.9317Z" fill="#F3D55B"/>
<path d="M64.4792 58.6212H50.411C49.1161 58.6212 48.0663 59.6709 48.0663 60.9659C48.0663 62.2608 49.1161 63.3106 50.411 63.3106H64.4792C65.7742 63.3106 66.8239 62.2608 66.8239 60.9659C66.8239 59.6709 65.7742 58.6212 64.4792 58.6212Z" fill="#F3D55B"/>
<path d="M64.4792 53.9316H50.411C49.1161 53.9316 48.0663 54.9814 48.0663 56.2763C48.0663 57.5713 49.1161 58.6211 50.411 58.6211H64.4792C65.7742 58.6211 66.8239 57.5713 66.8239 56.2763C66.8239 54.9814 65.7742 53.9316 64.4792 53.9316Z" fill="#F0C419"/>
<path d="M64.4792 49.2422H50.411C49.1161 49.2422 48.0663 50.292 48.0663 51.5869C48.0663 52.8819 49.1161 53.9316 50.411 53.9316H64.4792C65.7742 53.9316 66.8239 52.8819 66.8239 51.5869C66.8239 50.292 65.7742 49.2422 64.4792 49.2422Z" fill="#F3D55B"/>
<path d="M64.4792 44.5527H50.411C49.1161 44.5527 48.0663 45.6025 48.0663 46.8974C48.0663 48.1924 49.1161 49.2422 50.411 49.2422H64.4792C65.7742 49.2422 66.8239 48.1924 66.8239 46.8974C66.8239 45.6025 65.7742 44.5527 64.4792 44.5527Z" fill="#F0C419"/>
<path d="M57.4452 44.5527C63.2724 44.5527 67.9963 39.8287 67.9963 34.0014C67.9963 28.1741 63.2724 23.4502 57.4452 23.4502C51.618 23.4502 46.894 28.1741 46.894 34.0014C46.894 39.8287 51.618 44.5527 57.4452 44.5527Z" fill="#F3D55B"/>
<path d="M10.5512 63.3106C16.3784 63.3106 21.1023 58.5866 21.1023 52.7593C21.1023 46.932 16.3784 42.208 10.5512 42.208C4.72391 42.208 0 46.932 0 52.7593C0 58.5866 4.72391 63.3106 10.5512 63.3106Z" fill="#F3D55B"/>
<path fill-rule="evenodd" clip-rule="evenodd" d="M33.9981 42.208C33.7924 42.2078 33.5903 42.1535 33.4122 42.0504C33.2341 41.9474 33.0863 41.7993 32.9835 41.6211C32.8808 41.4428 32.8268 41.2407 32.8269 41.0349C32.827 40.8292 32.8813 40.6271 32.9843 40.449C33.0872 40.2708 33.2352 40.1229 33.4135 40.0201C33.5917 39.9173 33.7938 39.8632 33.9995 39.8633C34.2053 39.8633 34.4074 39.9175 34.5856 40.0204C34.7637 40.1233 34.9117 40.2713 35.0145 40.4495C35.0889 40.5877 35.1903 40.7095 35.3126 40.8078C35.4349 40.9061 35.5758 40.9788 35.7267 41.0217C35.8777 41.0646 36.0357 41.0767 36.1915 41.0573C36.3472 41.038 36.4975 40.9875 36.6333 40.909C36.7692 40.8305 36.888 40.7256 36.9825 40.6003C37.0771 40.4751 37.1455 40.3321 37.1838 40.1799C37.2221 40.0277 37.2295 39.8694 37.2054 39.7143C37.1814 39.5592 37.1264 39.4106 37.0439 39.2771C36.6189 38.5639 35.9552 38.024 35.1705 37.753V37.5186C35.1705 37.2076 35.047 36.9094 34.8271 36.6896C34.6072 36.4697 34.309 36.3462 33.9981 36.3462C33.6872 36.3462 33.389 36.4697 33.1691 36.6896C32.9493 36.9094 32.8258 37.2076 32.8258 37.5186V37.7343C32.0442 38.0096 31.3852 38.5526 30.9657 39.2672C30.5461 39.9818 30.393 40.8218 30.5334 41.6384C30.6738 42.4551 31.0987 43.1957 31.7328 43.7291C32.367 44.2625 33.1695 44.5543 33.9981 44.5527C34.2039 44.5529 34.4059 44.6073 34.584 44.7103C34.7621 44.8133 34.9099 44.9614 35.0127 45.1397C35.1154 45.3179 35.1694 45.5201 35.1693 45.7258C35.1692 45.9316 35.1149 46.1336 35.012 46.3118C34.909 46.4899 34.761 46.6378 34.5828 46.7406C34.4046 46.8434 34.2024 46.8975 33.9967 46.8975C33.7909 46.8974 33.5888 46.8432 33.4107 46.7403C33.2325 46.6374 33.0846 46.4895 32.9817 46.3113C32.8213 46.0521 32.5663 45.8655 32.2707 45.7911C31.9751 45.7168 31.6622 45.7605 31.3983 45.9129C31.1343 46.0654 30.9402 46.3147 30.8569 46.6079C30.7737 46.9011 30.8079 47.2152 30.9524 47.4836C31.3779 48.1973 32.0425 48.7372 32.8281 49.0077V49.2422C32.8281 49.5531 32.9516 49.8513 33.1715 50.0712C33.3913 50.291 33.6895 50.4145 34.0005 50.4145C34.3114 50.4145 34.6096 50.291 34.8294 50.0712C35.0493 49.8513 35.1728 49.5531 35.1728 49.2422V49.0265C35.9546 48.7511 36.6137 48.2079 37.0332 47.4931C37.4528 46.7782 37.6057 45.938 37.465 45.1211C37.3243 44.3043 36.899 43.5637 36.2644 43.0305C35.6298 42.4972 34.827 42.2059 33.9981 42.208ZM60.9622 36.3462C60.9622 35.4134 60.5916 34.5188 59.932 33.8592C59.2725 33.1996 58.3779 32.8291 57.4451 32.8291C57.2394 32.8289 57.0373 32.7746 56.8592 32.6715C56.6811 32.5685 56.5333 32.4204 56.4305 32.2422C56.3278 32.0639 56.2738 31.8618 56.2739 31.656C56.274 31.4503 56.3283 31.2482 56.4313 31.0701C56.5342 30.8919 56.6822 30.744 56.8605 30.6412C57.0387 30.5384 57.2408 30.4843 57.4465 30.4844C57.6523 30.4844 57.8544 30.5386 58.0326 30.6415C58.2107 30.7444 58.3587 30.8924 58.4615 31.0706C58.6219 31.3298 58.8769 31.5163 59.1725 31.5907C59.4681 31.6651 59.781 31.6214 60.045 31.4689C60.3089 31.3164 60.5031 31.0672 60.5863 30.7739C60.6695 30.4807 60.6353 30.1666 60.4909 29.8982C60.0664 29.1845 59.4026 28.6445 58.6175 28.3741V28.1396C58.6175 27.8287 58.4939 27.5305 58.2741 27.3107C58.0542 27.0908 57.756 26.9673 57.4451 26.9673C57.1342 26.9673 56.836 27.0908 56.6161 27.3107C56.3963 27.5305 56.2728 27.8287 56.2728 28.1396V28.3554C55.4912 28.6307 54.8322 29.1737 54.4127 29.8883C53.9931 30.6028 53.84 31.4429 53.9804 32.2595C54.1208 33.0762 54.5457 33.8168 55.1798 34.3502C55.814 34.8836 56.6165 35.1754 57.4451 35.1738C57.6509 35.174 57.8529 35.2284 58.031 35.3314C58.2091 35.4344 58.3569 35.5825 58.4597 35.7608C58.5624 35.939 58.6164 36.1412 58.6163 36.3469C58.6162 36.5527 58.5619 36.7547 58.459 36.9329C58.356 37.111 58.208 37.2589 58.0298 37.3617C57.8516 37.4645 57.6494 37.5186 57.4437 37.5186C57.2379 37.5185 57.0358 37.4643 56.8577 37.3614C56.6795 37.2585 56.5316 37.1106 56.4287 36.9324C56.2683 36.6732 56.0133 36.4866 55.7177 36.4122C55.4221 36.3379 55.1092 36.3816 54.8453 36.534C54.5813 36.6865 54.3872 36.9358 54.3039 37.229C54.2207 37.5222 54.2549 37.8363 54.3993 38.1047C54.8249 38.8199 55.4896 39.3592 56.2751 39.6288V39.8633C56.2751 40.1742 56.3986 40.4724 56.6185 40.6923C56.8383 40.9121 57.1365 41.0356 57.4475 41.0356C57.7584 41.0356 58.0566 40.9121 58.2764 40.6923C58.4963 40.4724 58.6198 40.1742 58.6198 39.8633V39.6476C59.3027 39.4056 59.8943 38.9586 60.3135 38.3676C60.7328 37.7767 60.9593 37.0707 60.9622 36.3462ZM10.5511 51.5869C10.3454 51.5867 10.1433 51.5324 9.96522 51.4293C9.78713 51.3263 9.63928 51.1782 9.53654 51C9.4338 50.8217 9.37978 50.6196 9.37991 50.4138C9.38003 50.2081 9.4343 50.006 9.53726 49.8279C9.64021 49.6497 9.78824 49.5018 9.96645 49.399C10.1447 49.2962 10.3468 49.2421 10.5525 49.2422C10.7583 49.2422 10.9604 49.2964 11.1386 49.3993C11.3167 49.5022 11.4647 49.6502 11.5675 49.8284C11.6419 49.9666 11.7433 50.0884 11.8656 50.1867C11.9879 50.285 12.1288 50.3577 12.2797 50.4006C12.4307 50.4435 12.5887 50.4556 12.7445 50.4362C12.9002 50.4169 13.0505 50.3664 13.1863 50.2879C13.3222 50.2094 13.441 50.1045 13.5355 49.9792C13.6301 49.854 13.6985 49.711 13.7368 49.5588C13.7751 49.4066 13.7825 49.2483 13.7584 49.0932C13.7344 48.9381 13.6794 48.7895 13.5969 48.656C13.1719 47.9428 12.5082 47.4029 11.7235 47.1319V46.8975C11.7235 46.5865 11.5999 46.2883 11.3801 46.0685C11.1602 45.8486 10.862 45.7251 10.5511 45.7251C10.2402 45.7251 9.942 45.8486 9.72214 46.0685C9.50228 46.2883 9.37876 46.5865 9.37876 46.8975V47.1132C8.59718 47.3885 7.93824 47.9315 7.51867 48.6461C7.09909 49.3607 6.94595 50.2007 7.08637 51.0174C7.22678 51.834 7.6517 52.5747 8.28585 53.1081C8.92 53.6415 9.72247 53.9332 10.5511 53.9316C10.7569 53.9318 10.9589 53.9862 11.137 54.0892C11.3151 54.1922 11.4629 54.3403 11.5657 54.5186C11.6684 54.6968 11.7224 54.899 11.7223 55.1047C11.7222 55.3105 11.6679 55.5125 11.565 55.6907C11.462 55.8688 11.314 56.0167 11.1358 56.1195C10.9576 56.2223 10.7554 56.2764 10.5497 56.2764C10.3439 56.2763 10.1418 56.2221 9.96367 56.1192C9.78551 56.0163 9.63756 55.8684 9.53469 55.6902C9.46032 55.552 9.35896 55.4301 9.23663 55.3318C9.11429 55.2335 8.97347 55.1608 8.8225 55.118C8.67154 55.0751 8.5135 55.063 8.35777 55.0823C8.20204 55.1017 8.05177 55.1521 7.91589 55.2306C7.78 55.3091 7.66126 55.4141 7.5667 55.5393C7.47214 55.6646 7.40369 55.8075 7.3654 55.9597C7.32712 56.1119 7.31978 56.2702 7.34381 56.4253C7.36785 56.5804 7.42278 56.7291 7.50535 56.8625C7.93094 57.5762 8.59545 58.1161 9.38111 58.3866V58.6211C9.38111 58.932 9.50462 59.2302 9.72448 59.4501C9.94434 59.6699 10.2425 59.7935 10.5535 59.7935C10.8644 59.7935 11.1626 59.6699 11.3824 59.4501C11.6023 59.2302 11.7258 58.932 11.7258 58.6211V58.4054C12.5076 58.13 13.1666 57.5868 13.5862 56.872C14.0058 56.1571 14.1587 55.3169 14.018 54.5C13.8773 53.6832 13.452 52.9426 12.8174 52.4094C12.1828 51.8761 11.38 51.5848 10.5511 51.5869Z" fill="#B19046"/>
<defs>
<linearGradient id="paint0_linear_110_6242" x1="34.0003" y1="0" x2="34.0003" y2="35.1744" gradientUnits="userSpaceOnUse">
<stop stop-color="#3BB3C1"/>
<stop offset="1" stop-color="#1B8895"/>
</linearGradient>
</defs>
</svg>

