<svg width="32" height="33" viewBox="0 0 32 33" fill="none" xmlns="http://www.w3.org/2000/svg">
<path d="M4.53025 32.2516C4.36423 32.2516 4.22949 32.1176 4.22949 31.9524V4.65467C4.22949 4.48951 4.36423 4.35547 4.53025 4.35547C4.69627 4.35547 4.83101 4.48951 4.83101 4.65467V31.9524C4.83101 32.1176 4.69627 32.2516 4.53025 32.2516Z" fill="white"/>
<path d="M1.64316 8.74485C1.78301 8.83371 1.96918 8.79212 2.05851 8.65255L4.53029 4.79155L7.00223 8.65255C7.09156 8.79227 7.27773 8.83371 7.41758 8.74485C7.55743 8.65599 7.59788 8.46959 7.50976 8.33106L4.78413 4.07393C4.72909 3.98806 4.63315 3.93555 4.53029 3.93555C4.42758 3.93555 4.33179 3.98806 4.27645 4.07393L1.55097 8.33106C1.51924 8.38132 1.50391 8.43683 1.50391 8.49203C1.50391 8.59061 1.55323 8.68755 1.64316 8.74485Z" fill="white"/>
<path d="M29.2449 29.5398H1.80467C1.63865 29.5398 1.50391 29.4058 1.50391 29.2406C1.50391 29.0754 1.63865 28.9414 1.80467 28.9414H29.2449C29.4109 28.9414 29.5456 29.0754 29.5456 29.2406C29.5456 29.4058 29.4107 29.5398 29.2449 29.5398Z" fill="white"/>
<path d="M25.133 26.369C25.0436 26.5081 25.0856 26.6933 25.2257 26.7822L29.1069 29.2413L25.2257 31.7004C25.0854 31.7893 25.0436 31.9745 25.133 32.1136C25.2223 32.2527 25.4097 32.293 25.5491 32.2053L29.8283 29.4938C29.9146 29.4391 29.9675 29.3436 29.9675 29.2413C29.9675 29.1391 29.9146 29.0438 29.8283 28.9888L25.5491 26.2773C25.4984 26.2457 25.4427 26.2305 25.3874 26.2305C25.288 26.2305 25.1905 26.2795 25.133 26.369Z" fill="white"/>
<path d="M11.4805 15.0977H7.25586V26.5306H11.4805V15.0977Z" fill="#FE7058"/>
<path d="M11.4804 26.8302H7.25584C7.08982 26.8302 6.95508 26.6961 6.95508 26.531V15.098C6.95508 14.9329 7.08982 14.7988 7.25584 14.7988H11.4804C11.6465 14.7988 11.7812 14.9329 11.7812 15.098V26.531C11.7812 26.6961 11.6465 26.8302 11.4804 26.8302ZM7.5566 26.2318H11.1797V15.3972H7.5566V26.2318Z" fill="#10003B"/>
<path d="M18.4305 11.0312H14.2061V26.5309H18.4305V11.0312Z" fill="#52C0F5"/>
<path d="M18.4305 26.8288H14.206C14.04 26.8288 13.9053 26.6948 13.9053 26.5296V11.0297C13.9053 10.8645 14.04 10.7305 14.206 10.7305H18.4305C18.5965 10.7305 18.7313 10.8645 18.7313 11.0297V26.5294C18.7313 26.6948 18.5965 26.8288 18.4305 26.8288ZM14.5068 26.2304H18.1297V11.329H14.5068V26.2304Z" fill="#10003B"/>
<path d="M25.381 6.96289H21.1562V26.5298H25.381V6.96289Z" fill="#4BD6C1"/>
<path d="M25.38 26.8294H21.1553C20.9892 26.8294 20.8545 26.6953 20.8545 26.5302V6.96326C20.8545 6.7981 20.9892 6.66406 21.1553 6.66406H25.38C25.546 6.66406 25.6808 6.7981 25.6808 6.96326V26.5302C25.6808 26.6953 25.546 26.8294 25.38 26.8294ZM21.4562 26.231H25.0794V7.26246H21.4562V26.231Z" fill="#10003B"/>
</svg>
