<svg width="32" height="32" viewBox="0 0 32 32" fill="none" xmlns="http://www.w3.org/2000/svg">
<g clip-path="url(#clip0_1909_5521)">
<path d="M11 21.5H21C21.1326 21.5 21.2598 21.4473 21.3536 21.3536C21.4473 21.2598 21.5 21.1326 21.5 21V11C21.5 10.8674 21.4473 10.7402 21.3536 10.6464C21.2598 10.5527 21.1326 10.5 21 10.5H11C10.8674 10.5 10.7402 10.5527 10.6464 10.6464C10.5527 10.7402 10.5 10.8674 10.5 11V21C10.5 21.1326 10.5527 21.2598 10.6464 21.3536C10.7402 21.4473 10.8674 21.5 11 21.5ZM11.5 11.5H20.5V20.5H11.5V11.5Z" fill="url(#paint0_linear_1909_5521)"/>
<path d="M9 8.5C8.86739 8.5 8.74021 8.55268 8.64645 8.64645C8.55268 8.74021 8.5 8.86739 8.5 9V23C8.5 23.1326 8.55268 23.2598 8.64645 23.3536C8.74021 23.4473 8.86739 23.5 9 23.5H23C23.1326 23.5 23.2598 23.4473 23.3536 23.3536C23.4473 23.2598 23.5 23.1326 23.5 23V9C23.5 8.86739 23.4473 8.74021 23.3536 8.64645C23.2598 8.55268 23.1326 8.5 23 8.5H9ZM22.5 22.5H9.5V9.5H22.5V22.5Z" fill="url(#paint1_linear_1909_5521)"/>
<path d="M15.5 14H13.5C13.3674 14 13.2402 14.0527 13.1464 14.1464C13.0527 14.2402 13 14.3674 13 14.5V18H14V17H15V18H16V14.5C16 14.3674 15.9473 14.2402 15.8536 14.1464C15.7598 14.0527 15.6326 14 15.5 14ZM14 16V15H15V16H14Z" fill="url(#paint2_linear_1909_5521)"/>
<path d="M17 15H17.5V17H17V18H19V17H18.5V15H19V14H17V15Z" fill="url(#paint3_linear_1909_5521)"/>
<path d="M29.5 9.90835V12.5004H24.5V13.5004H30C30.1326 13.5004 30.2598 13.4477 30.3536 13.3539C30.4473 13.2601 30.5 13.133 30.5 13.0004V9.90835C30.8336 9.79041 31.1148 9.55832 31.2938 9.25311C31.4729 8.94791 31.5382 8.58924 31.4784 8.24049C31.4186 7.89174 31.2374 7.57537 30.9668 7.3473C30.6963 7.11923 30.3538 6.99414 30 6.99414C29.6462 6.99414 29.3037 7.11923 29.0332 7.3473C28.7626 7.57537 28.5814 7.89174 28.5216 8.24049C28.4618 8.58924 28.5271 8.94791 28.7062 9.25311C28.8852 9.55832 29.1664 9.79041 29.5 9.90835ZM30 8.00035C30.0989 8.00035 30.1956 8.02968 30.2778 8.08462C30.36 8.13956 30.4241 8.21765 30.4619 8.30901C30.4998 8.40038 30.5097 8.50091 30.4904 8.5979C30.4711 8.69489 30.4235 8.78398 30.3536 8.85391C30.2836 8.92383 30.1945 8.97145 30.0975 8.99075C30.0006 9.01004 29.9 9.00014 29.8087 8.96229C29.7173 8.92445 29.6392 8.86036 29.5843 8.77814C29.5293 8.69591 29.5 8.59924 29.5 8.50035C29.5 8.36775 29.5527 8.24057 29.6464 8.1468C29.7402 8.05303 29.8674 8.00035 30 8.00035Z" fill="url(#paint4_linear_1909_5521)"/>
<path d="M30.5 22.092V19C30.5 18.8674 30.4473 18.7402 30.3536 18.6464C30.2598 18.5527 30.1326 18.5 30 18.5H24.5V19.5H29.5V22.092C29.1664 22.2099 28.8852 22.442 28.7062 22.7472C28.5271 23.0524 28.4618 23.4111 28.5216 23.7599C28.5814 24.1086 28.7626 24.425 29.0332 24.6531C29.3037 24.8811 29.6462 25.0062 30 25.0062C30.3538 25.0062 30.6963 24.8811 30.9668 24.6531C31.2374 24.425 31.4186 24.1086 31.4784 23.7599C31.5382 23.4111 31.4729 23.0524 31.2938 22.7472C31.1148 22.442 30.8336 22.2099 30.5 22.092ZM30 24C29.9011 24 29.8044 23.9707 29.7222 23.9157C29.64 23.8608 29.5759 23.7827 29.5381 23.6913C29.5002 23.6 29.4903 23.4994 29.5096 23.4025C29.5289 23.3055 29.5765 23.2164 29.6464 23.1464C29.7164 23.0765 29.8055 23.0289 29.9025 23.0096C29.9994 22.9903 30.1 23.0002 30.1913 23.0381C30.2827 23.0759 30.3608 23.14 30.4157 23.2222C30.4707 23.3044 30.5 23.4011 30.5 23.5C30.5 23.6326 30.4473 23.7598 30.3536 23.8536C30.2598 23.9473 30.1326 24 30 24Z" fill="url(#paint5_linear_1909_5521)"/>
<path d="M30.5 14.5C30.1909 14.5013 29.8897 14.598 29.6376 14.777C29.3856 14.956 29.195 15.2085 29.092 15.5H24.5V16.5H29.092C29.1841 16.7586 29.3455 16.9869 29.5586 17.1599C29.7717 17.333 30.0282 17.4441 30.3002 17.4813C30.5722 17.5184 30.8492 17.48 31.1008 17.3704C31.3525 17.2607 31.5691 17.084 31.7272 16.8595C31.8852 16.6351 31.9785 16.3715 31.9968 16.0976C32.0152 15.8237 31.9579 15.5501 31.8312 15.3065C31.7046 15.063 31.5134 14.859 31.2786 14.7167C31.0439 14.5745 30.7745 14.4995 30.5 14.5ZM30.5 16.5C30.4011 16.5 30.3044 16.4707 30.2222 16.4157C30.14 16.3608 30.0759 16.2827 30.0381 16.1913C30.0002 16.1 29.9903 15.9994 30.0096 15.9025C30.0289 15.8055 30.0765 15.7164 30.1464 15.6464C30.2164 15.5765 30.3055 15.5289 30.4025 15.5096C30.4994 15.4903 30.6 15.5002 30.6913 15.5381C30.7827 15.5759 30.8608 15.64 30.9157 15.7222C30.9707 15.8044 31 15.9011 31 16C31 16.1326 30.9473 16.2598 30.8536 16.3536C30.7598 16.4473 30.6326 16.5 30.5 16.5Z" fill="url(#paint6_linear_1909_5521)"/>
<path d="M15.5 2.90835V7.50035H16.5V2.90835C16.8336 2.79041 17.1148 2.55832 17.2938 2.25311C17.4729 1.94791 17.5382 1.58924 17.4784 1.24049C17.4186 0.89174 17.2374 0.575373 16.9668 0.347302C16.6963 0.119231 16.3538 -0.00585938 16 -0.00585938C15.6462 -0.00585938 15.3037 0.119231 15.0332 0.347302C14.7626 0.575373 14.5814 0.89174 14.5216 1.24049C14.4618 1.58924 14.5271 1.94791 14.7062 2.25311C14.8852 2.55832 15.1664 2.79041 15.5 2.90835ZM16 1.00035C16.0989 1.00035 16.1956 1.02968 16.2778 1.08462C16.36 1.13956 16.4241 1.21765 16.4619 1.30901C16.4998 1.40038 16.5097 1.50091 16.4904 1.5979C16.4711 1.69489 16.4235 1.78398 16.3536 1.85391C16.2836 1.92383 16.1945 1.97145 16.0975 1.99075C16.0006 2.01004 15.9 2.00014 15.8087 1.96229C15.7173 1.92445 15.6392 1.86036 15.5843 1.77814C15.5293 1.69591 15.5 1.59924 15.5 1.50035C15.5 1.36775 15.5527 1.24057 15.6464 1.1468C15.7402 1.05303 15.8674 1.00035 16 1.00035Z" fill="url(#paint7_linear_1909_5521)"/>
<path d="M19.5 2.5H22.092C22.2099 2.83361 22.442 3.11478 22.7472 3.29382C23.0524 3.47286 23.4111 3.53824 23.7599 3.4784C24.1086 3.41857 24.425 3.23737 24.6531 2.96683C24.8811 2.6963 25.0062 2.35385 25.0062 2C25.0062 1.64616 24.8811 1.30371 24.6531 1.03317C24.425 0.762639 24.1086 0.581441 23.7599 0.521605C23.4111 0.46177 23.0524 0.527149 22.7472 0.706187C22.442 0.885226 22.2099 1.1664 22.092 1.5H19C18.8674 1.5 18.7402 1.55268 18.6464 1.64645C18.5527 1.74022 18.5 1.86739 18.5 2V7.5H19.5V2.5ZM23.5 1.5C23.5989 1.5 23.6956 1.52933 23.7778 1.58427C23.86 1.63921 23.9241 1.7173 23.9619 1.80866C23.9998 1.90002 24.0097 2.00056 23.9904 2.09755C23.9711 2.19454 23.9235 2.28363 23.8536 2.35356C23.7836 2.42348 23.6945 2.4711 23.5975 2.4904C23.5006 2.50969 23.4 2.49979 23.3087 2.46194C23.2173 2.4241 23.1392 2.36001 23.0843 2.27779C23.0293 2.19556 23 2.09889 23 2C23 1.86739 23.0527 1.74022 23.1464 1.64645C23.2402 1.55268 23.3674 1.5 23.5 1.5Z" fill="url(#paint8_linear_1909_5521)"/>
<path d="M8.50017 3.50086C8.8093 3.49958 9.11049 3.40282 9.36252 3.22381C9.61456 3.04481 9.80513 2.79231 9.90817 2.50086H12.5002V7.50086H13.5002V2.00086C13.5002 1.86825 13.4475 1.74107 13.3537 1.6473C13.26 1.55354 13.1328 1.50086 13.0002 1.50086H9.90817C9.81606 1.24227 9.65464 1.01398 9.44156 0.840924C9.22848 0.667871 8.97193 0.556716 8.69994 0.519607C8.42796 0.482498 8.15101 0.520861 7.89935 0.630506C7.6477 0.74015 7.43103 0.916857 7.27301 1.14132C7.11499 1.36577 7.0217 1.62935 7.00335 1.90324C6.985 2.17713 7.04228 2.45079 7.16894 2.69433C7.2956 2.93786 7.48676 3.1419 7.72154 3.28414C7.95631 3.42638 8.22567 3.50135 8.50017 3.50086ZM8.50017 1.50086C8.59906 1.50086 8.69573 1.53018 8.77796 1.58512C8.86018 1.64006 8.92427 1.71815 8.96211 1.80952C8.99996 1.90088 9.00986 2.00141 8.99057 2.0984C8.97127 2.19539 8.92365 2.28448 8.85373 2.35441C8.7838 2.42434 8.69471 2.47196 8.59772 2.49125C8.50073 2.51054 8.40019 2.50064 8.30883 2.4628C8.21747 2.42495 8.13938 2.36087 8.08444 2.27864C8.0295 2.19642 8.00017 2.09975 8.00017 2.00086C8.00017 1.86825 8.05285 1.74107 8.14662 1.6473C8.24039 1.55354 8.36756 1.50086 8.50017 1.50086Z" fill="url(#paint9_linear_1909_5521)"/>
<path d="M16.5 29.092V24.5H15.5V29.092C15.1664 29.2099 14.8852 29.442 14.7062 29.7472C14.5271 30.0524 14.4618 30.4111 14.5216 30.7599C14.5814 31.1086 14.7626 31.425 15.0332 31.6531C15.3037 31.8811 15.6462 32.0062 16 32.0062C16.3538 32.0062 16.6963 31.8811 16.9668 31.6531C17.2374 31.425 17.4186 31.1086 17.4784 30.7599C17.5382 30.4111 17.4729 30.0524 17.2938 29.7472C17.1148 29.442 16.8336 29.2099 16.5 29.092ZM16 31C15.9011 31 15.8044 30.9707 15.7222 30.9157C15.64 30.8608 15.5759 30.7827 15.5381 30.6913C15.5002 30.6 15.4903 30.4994 15.5096 30.4025C15.5289 30.3055 15.5765 30.2164 15.6464 30.1464C15.7164 30.0765 15.8055 30.0289 15.9025 30.0096C15.9994 29.9903 16.1 30.0002 16.1913 30.0381C16.2827 30.0759 16.3608 30.14 16.4157 30.2222C16.4707 30.3044 16.5 30.4011 16.5 30.5C16.5 30.6326 16.4473 30.7598 16.3536 30.8536C16.2598 30.9473 16.1326 31 16 31Z" fill="url(#paint10_linear_1909_5521)"/>
<path d="M12.5004 29.5H9.90835C9.79041 29.1664 9.55832 28.8852 9.25311 28.7062C8.94791 28.5271 8.58924 28.4618 8.24049 28.5216C7.89174 28.5814 7.57537 28.7626 7.3473 29.0332C7.11923 29.3037 6.99414 29.6462 6.99414 30C6.99414 30.3538 7.11923 30.6963 7.3473 30.9668C7.57537 31.2374 7.89174 31.4186 8.24049 31.4784C8.58924 31.5382 8.94791 31.4729 9.25311 31.2938C9.55832 31.1148 9.79041 30.8336 9.90835 30.5H13.0004C13.133 30.5 13.2601 30.4473 13.3539 30.3536C13.4477 30.2598 13.5004 30.1326 13.5004 30V24.5H12.5004V29.5ZM8.50035 30.5C8.40146 30.5 8.30479 30.4707 8.22257 30.4157C8.14034 30.3608 8.07626 30.2827 8.03841 30.1913C8.00057 30.1 7.99067 29.9994 8.00996 29.9025C8.02925 29.8055 8.07687 29.7164 8.1468 29.6464C8.21673 29.5765 8.30582 29.5289 8.40281 29.5096C8.4998 29.4903 8.60033 29.5002 8.6917 29.5381C8.78306 29.5759 8.86115 29.64 8.91609 29.7222C8.97103 29.8044 9.00035 29.9011 9.00035 30C9.00035 30.1326 8.94768 30.2598 8.85391 30.3536C8.76014 30.4473 8.63296 30.5 8.50035 30.5Z" fill="url(#paint11_linear_1909_5521)"/>
<path d="M23.5 28.5C23.1909 28.5013 22.8897 28.598 22.6376 28.777C22.3856 28.956 22.195 29.2085 22.092 29.5H19.5V24.5H18.5V30C18.5 30.1326 18.5527 30.2598 18.6464 30.3536C18.7402 30.4473 18.8674 30.5 19 30.5H22.092C22.1841 30.7586 22.3455 30.9869 22.5586 31.1599C22.7717 31.333 23.0282 31.4441 23.3002 31.4813C23.5722 31.5184 23.8492 31.48 24.1008 31.3704C24.3525 31.2607 24.5691 31.084 24.7272 30.8595C24.8852 30.6351 24.9785 30.3715 24.9968 30.0976C25.0152 29.8237 24.9579 29.5501 24.8312 29.3065C24.7046 29.063 24.5134 28.859 24.2786 28.7167C24.0439 28.5745 23.7745 28.4995 23.5 28.5ZM23.5 30.5C23.4011 30.5 23.3044 30.4707 23.2222 30.4157C23.14 30.3608 23.0759 30.2827 23.0381 30.1913C23.0002 30.1 22.9903 29.9994 23.0096 29.9025C23.0289 29.8055 23.0765 29.7164 23.1464 29.6464C23.2164 29.5765 23.3055 29.5289 23.4025 29.5096C23.4994 29.4903 23.6 29.5002 23.6913 29.5381C23.7827 29.5759 23.8608 29.64 23.9157 29.7222C23.9707 29.8044 24 29.9011 24 30C24 30.1326 23.9473 30.2598 23.8536 30.3536C23.7598 30.4473 23.6326 30.5 23.5 30.5Z" fill="url(#paint12_linear_1909_5521)"/>
<path d="M2.5 22.092V19.5H7.5V18.5H2C1.86739 18.5 1.74022 18.5527 1.64645 18.6464C1.55268 18.7402 1.5 18.8674 1.5 19V22.092C1.1664 22.2099 0.885226 22.442 0.706187 22.7472C0.527149 23.0524 0.46177 23.4111 0.521605 23.7599C0.581441 24.1086 0.762639 24.425 1.03317 24.6531C1.30371 24.8811 1.64616 25.0062 2 25.0062C2.35385 25.0062 2.6963 24.8811 2.96683 24.6531C3.23737 24.425 3.41857 24.1086 3.4784 23.7599C3.53824 23.4111 3.47286 23.0524 3.29382 22.7472C3.11478 22.442 2.83361 22.2099 2.5 22.092ZM2 24C1.90111 24 1.80444 23.9707 1.72222 23.9157C1.63999 23.8608 1.57591 23.7827 1.53806 23.6913C1.50022 23.6 1.49032 23.4994 1.50961 23.4025C1.5289 23.3055 1.57652 23.2164 1.64645 23.1464C1.71638 23.0765 1.80547 23.0289 1.90246 23.0096C1.99945 22.9903 2.09998 23.0002 2.19134 23.0381C2.28271 23.0759 2.3608 23.14 2.41574 23.2222C2.47068 23.3044 2.5 23.4011 2.5 23.5C2.5 23.6326 2.44732 23.7598 2.35356 23.8536C2.25979 23.9473 2.13261 24 2 24Z" fill="url(#paint13_linear_1909_5521)"/>
<path d="M1.5 9.90835V13.0004C1.5 13.133 1.55268 13.2601 1.64645 13.3539C1.74022 13.4477 1.86739 13.5004 2 13.5004H7.5V12.5004H2.5V9.90835C2.83361 9.79041 3.11478 9.55832 3.29382 9.25311C3.47286 8.94791 3.53824 8.58924 3.4784 8.24049C3.41857 7.89174 3.23737 7.57537 2.96683 7.3473C2.6963 7.11923 2.35385 6.99414 2 6.99414C1.64616 6.99414 1.30371 7.11923 1.03317 7.3473C0.762639 7.57537 0.581441 7.89174 0.521605 8.24049C0.46177 8.58924 0.527149 8.94791 0.706187 9.25311C0.885226 9.55832 1.1664 9.79041 1.5 9.90835ZM2 8.00035C2.09889 8.00035 2.19556 8.02968 2.27779 8.08462C2.36001 8.13956 2.4241 8.21765 2.46194 8.30901C2.49979 8.40038 2.50969 8.50091 2.4904 8.5979C2.4711 8.69489 2.42348 8.78398 2.35356 8.85391C2.28363 8.92383 2.19454 8.97145 2.09755 8.99075C2.00056 9.01004 1.90002 9.00014 1.80866 8.96229C1.7173 8.92445 1.63921 8.86036 1.58427 8.77814C1.52933 8.69591 1.5 8.59924 1.5 8.50035C1.5 8.36775 1.55268 8.24057 1.64645 8.1468C1.74022 8.05303 1.86739 8.00035 2 8.00035Z" fill="url(#paint14_linear_1909_5521)"/>
<path d="M2.90835 16.5H7.50035V15.5H2.90835C2.79041 15.1664 2.55832 14.8852 2.25311 14.7062C1.94791 14.5271 1.58924 14.4618 1.24049 14.5216C0.89174 14.5814 0.575373 14.7626 0.347302 15.0332C0.119231 15.3037 -0.00585938 15.6462 -0.00585938 16C-0.00585938 16.3538 0.119231 16.6963 0.347302 16.9668C0.575373 17.2374 0.89174 17.4186 1.24049 17.4784C1.58924 17.5382 1.94791 17.4729 2.25311 17.2938C2.55832 17.1148 2.79041 16.8336 2.90835 16.5ZM1.00035 16C1.00035 15.9011 1.02968 15.8044 1.08462 15.7222C1.13956 15.64 1.21765 15.5759 1.30901 15.5381C1.40038 15.5002 1.50091 15.4903 1.5979 15.5096C1.69489 15.5289 1.78398 15.5765 1.85391 15.6464C1.92383 15.7164 1.97145 15.8055 1.99075 15.9025C2.01004 15.9994 2.00014 16.1 1.96229 16.1913C1.92445 16.2827 1.86036 16.3608 1.77814 16.4157C1.69591 16.4707 1.59924 16.5 1.50035 16.5C1.36775 16.5 1.24057 16.4473 1.1468 16.3536C1.05303 16.2598 1.00035 16.1326 1.00035 16Z" fill="url(#paint15_linear_1909_5521)"/>
</g>
<defs>
<linearGradient id="paint0_linear_1909_5521" x1="16" y1="0.134" x2="16" y2="31.4" gradientUnits="userSpaceOnUse">
<stop stop-color="#38D6A4"/>
<stop offset="0.171" stop-color="#32CAAE"/>
<stop offset="0.478" stop-color="#22ABC8"/>
<stop offset="0.884" stop-color="#0879F2"/>
<stop offset="0.999" stop-color="#0069FF"/>
</linearGradient>
<linearGradient id="paint1_linear_1909_5521" x1="16" y1="0.134" x2="16" y2="31.4" gradientUnits="userSpaceOnUse">
<stop stop-color="#38D6A4"/>
<stop offset="0.171" stop-color="#32CAAE"/>
<stop offset="0.478" stop-color="#22ABC8"/>
<stop offset="0.884" stop-color="#0879F2"/>
<stop offset="0.999" stop-color="#0069FF"/>
</linearGradient>
<linearGradient id="paint2_linear_1909_5521" x1="14.5" y1="0.134" x2="14.5" y2="31.4" gradientUnits="userSpaceOnUse">
<stop stop-color="#38D6A4"/>
<stop offset="0.171" stop-color="#32CAAE"/>
<stop offset="0.478" stop-color="#22ABC8"/>
<stop offset="0.884" stop-color="#0879F2"/>
<stop offset="0.999" stop-color="#0069FF"/>
</linearGradient>
<linearGradient id="paint3_linear_1909_5521" x1="18" y1="0.134" x2="18" y2="31.4" gradientUnits="userSpaceOnUse">
<stop stop-color="#38D6A4"/>
<stop offset="0.171" stop-color="#32CAAE"/>
<stop offset="0.478" stop-color="#22ABC8"/>
<stop offset="0.884" stop-color="#0879F2"/>
<stop offset="0.999" stop-color="#0069FF"/>
</linearGradient>
<linearGradient id="paint4_linear_1909_5521" x1="28" y1="0.134354" x2="28" y2="31.4004" gradientUnits="userSpaceOnUse">
<stop stop-color="#38D6A4"/>
<stop offset="0.171" stop-color="#32CAAE"/>
<stop offset="0.478" stop-color="#22ABC8"/>
<stop offset="0.884" stop-color="#0879F2"/>
<stop offset="0.999" stop-color="#0069FF"/>
</linearGradient>
<linearGradient id="paint5_linear_1909_5521" x1="28" y1="0.133999" x2="28" y2="31.4" gradientUnits="userSpaceOnUse">
<stop stop-color="#38D6A4"/>
<stop offset="0.171" stop-color="#32CAAE"/>
<stop offset="0.478" stop-color="#22ABC8"/>
<stop offset="0.884" stop-color="#0879F2"/>
<stop offset="0.999" stop-color="#0069FF"/>
</linearGradient>
<linearGradient id="paint6_linear_1909_5521" x1="28.25" y1="0.134001" x2="28.25" y2="31.4" gradientUnits="userSpaceOnUse">
<stop stop-color="#38D6A4"/>
<stop offset="0.171" stop-color="#32CAAE"/>
<stop offset="0.478" stop-color="#22ABC8"/>
<stop offset="0.884" stop-color="#0879F2"/>
<stop offset="0.999" stop-color="#0069FF"/>
</linearGradient>
<linearGradient id="paint7_linear_1909_5521" x1="16" y1="0.134354" x2="16" y2="31.4004" gradientUnits="userSpaceOnUse">
<stop stop-color="#38D6A4"/>
<stop offset="0.171" stop-color="#32CAAE"/>
<stop offset="0.478" stop-color="#22ABC8"/>
<stop offset="0.884" stop-color="#0879F2"/>
<stop offset="0.999" stop-color="#0069FF"/>
</linearGradient>
<linearGradient id="paint8_linear_1909_5521" x1="21.75" y1="0.134003" x2="21.75" y2="31.4" gradientUnits="userSpaceOnUse">
<stop stop-color="#38D6A4"/>
<stop offset="0.171" stop-color="#32CAAE"/>
<stop offset="0.478" stop-color="#22ABC8"/>
<stop offset="0.884" stop-color="#0879F2"/>
<stop offset="0.999" stop-color="#0069FF"/>
</linearGradient>
<linearGradient id="paint9_linear_1909_5521" x1="10.2502" y1="0.134858" x2="10.2502" y2="31.4009" gradientUnits="userSpaceOnUse">
<stop stop-color="#38D6A4"/>
<stop offset="0.171" stop-color="#32CAAE"/>
<stop offset="0.478" stop-color="#22ABC8"/>
<stop offset="0.884" stop-color="#0879F2"/>
<stop offset="0.999" stop-color="#0069FF"/>
</linearGradient>
<linearGradient id="paint10_linear_1909_5521" x1="16" y1="0.133999" x2="16" y2="31.4" gradientUnits="userSpaceOnUse">
<stop stop-color="#38D6A4"/>
<stop offset="0.171" stop-color="#32CAAE"/>
<stop offset="0.478" stop-color="#22ABC8"/>
<stop offset="0.884" stop-color="#0879F2"/>
<stop offset="0.999" stop-color="#0069FF"/>
</linearGradient>
<linearGradient id="paint11_linear_1909_5521" x1="10.2504" y1="0.134002" x2="10.2504" y2="31.4" gradientUnits="userSpaceOnUse">
<stop stop-color="#38D6A4"/>
<stop offset="0.171" stop-color="#32CAAE"/>
<stop offset="0.478" stop-color="#22ABC8"/>
<stop offset="0.884" stop-color="#0879F2"/>
<stop offset="0.999" stop-color="#0069FF"/>
</linearGradient>
<linearGradient id="paint12_linear_1909_5521" x1="21.75" y1="0.134" x2="21.75" y2="31.4" gradientUnits="userSpaceOnUse">
<stop stop-color="#38D6A4"/>
<stop offset="0.171" stop-color="#32CAAE"/>
<stop offset="0.478" stop-color="#22ABC8"/>
<stop offset="0.884" stop-color="#0879F2"/>
<stop offset="0.999" stop-color="#0069FF"/>
</linearGradient>
<linearGradient id="paint13_linear_1909_5521" x1="4" y1="0.133999" x2="4" y2="31.4" gradientUnits="userSpaceOnUse">
<stop stop-color="#38D6A4"/>
<stop offset="0.171" stop-color="#32CAAE"/>
<stop offset="0.478" stop-color="#22ABC8"/>
<stop offset="0.884" stop-color="#0879F2"/>
<stop offset="0.999" stop-color="#0069FF"/>
</linearGradient>
<linearGradient id="paint14_linear_1909_5521" x1="4" y1="0.134354" x2="4" y2="31.4004" gradientUnits="userSpaceOnUse">
<stop stop-color="#38D6A4"/>
<stop offset="0.171" stop-color="#32CAAE"/>
<stop offset="0.478" stop-color="#22ABC8"/>
<stop offset="0.884" stop-color="#0879F2"/>
<stop offset="0.999" stop-color="#0069FF"/>
</linearGradient>
<linearGradient id="paint15_linear_1909_5521" x1="3.75035" y1="0.134008" x2="3.75035" y2="31.4" gradientUnits="userSpaceOnUse">
<stop stop-color="#38D6A4"/>
<stop offset="0.171" stop-color="#32CAAE"/>
<stop offset="0.478" stop-color="#22ABC8"/>
<stop offset="0.884" stop-color="#0879F2"/>
<stop offset="0.999" stop-color="#0069FF"/>
</linearGradient>
<clipPath id="clip0_1909_5521">
<rect width="32" height="32" fill="white"/>
</clipPath>
</defs>
</svg>
