<svg width="32" height="32" viewBox="0 0 32 32" fill="none" xmlns="http://www.w3.org/2000/svg">
<path d="M26.6755 18.8257C26.5192 18.9871 26.3878 19.1707 26.2855 19.3707C25.708 19.0315 25.2276 18.5494 24.8905 17.9707C25.091 17.8714 25.2749 17.7415 25.4355 17.5857C25.6438 17.3777 25.8091 17.1306 25.9218 16.8586C26.0346 16.5866 26.0926 16.2951 26.0926 16.0007C26.0926 15.7063 26.0346 15.4147 25.9218 15.1428C25.8091 14.8708 25.6438 14.6237 25.4355 14.4157C25.2749 14.2599 25.091 14.13 24.8905 14.0307C25.2276 13.452 25.708 12.9698 26.2855 12.6307C26.3878 12.8307 26.5192 13.0143 26.6755 13.1757C27.043 13.5473 27.5285 13.7794 28.0485 13.832C28.5685 13.8847 29.0907 13.7546 29.5253 13.4642C29.9598 13.1738 30.2798 12.7412 30.4301 12.2406C30.5804 11.74 30.5518 11.2027 30.3491 10.7209C30.1464 10.2391 29.7823 9.84297 29.3193 9.60041C28.8563 9.35785 28.3234 9.28404 27.8119 9.39167C27.3004 9.49929 26.8424 9.78163 26.5164 10.1902C26.1904 10.5988 26.0168 11.1081 26.0255 11.6307C25.1091 12.1013 24.3639 12.8482 23.8955 13.7657C23.6597 13.763 23.425 13.7985 23.2005 13.8707L21.4555 10.8707L21.5305 10.8107C21.7829 10.5632 21.9725 10.2591 22.0836 9.92352C22.1948 9.58798 22.2241 9.23075 22.1694 8.88156C22.1146 8.53236 21.9772 8.20129 21.7687 7.91589C21.5602 7.63049 21.2865 7.399 20.9705 7.24069C21.3105 6.66986 21.7884 6.19361 22.3605 5.85569C22.4615 6.05642 22.5931 6.24027 22.7505 6.40069C23.1182 6.77244 23.6039 7.00449 24.1242 7.05699C24.6444 7.10949 25.1667 6.97916 25.6013 6.68838C26.0359 6.3976 26.3556 5.96454 26.5056 5.46361C26.6555 4.96268 26.6263 4.42517 26.423 3.94343C26.2197 3.46169 25.8549 3.06581 25.3914 2.82382C24.9279 2.58183 24.3945 2.50883 23.883 2.61737C23.3715 2.72592 22.9138 3.00922 22.5885 3.41861C22.2632 3.82799 22.0906 4.3379 22.1005 4.86069C21.1868 5.33032 20.4423 6.07312 19.9705 6.98569C19.4632 6.98376 18.9705 7.15523 18.574 7.47169C18.1775 7.78815 17.9011 8.2306 17.7905 8.7257H14.6355C14.5457 8.31541 14.341 7.93911 14.0455 7.64069C13.7869 7.38386 13.4697 7.19369 13.1213 7.08656C12.7729 6.97943 12.4037 6.95854 12.0455 7.02569C11.5764 6.09442 10.8235 5.33629 9.89548 4.86069C9.90544 4.4139 9.78123 3.97437 9.53888 3.59888C9.29652 3.22339 8.94717 2.92918 8.53592 2.75424C8.12468 2.5793 7.67043 2.53167 7.23184 2.61749C6.79325 2.70331 6.39046 2.91865 6.07548 3.23569C5.76349 3.54923 5.55131 3.94812 5.46568 4.38207C5.38006 4.81602 5.42482 5.26561 5.59434 5.67416C5.76385 6.0827 6.05053 6.43192 6.41822 6.67778C6.78591 6.92364 7.21817 7.05514 7.66048 7.05569C7.95495 7.05736 8.2468 7.00029 8.51895 6.88782C8.7911 6.77535 9.03809 6.60975 9.24548 6.40069C9.40286 6.24027 9.53442 6.05642 9.63548 5.85569C10.2744 6.22826 10.7945 6.7744 11.1355 7.43069C11.0459 7.49491 10.9607 7.56507 10.8805 7.64069C10.4963 8.0286 10.267 8.54348 10.2357 9.08854C10.2044 9.63361 10.3732 10.1714 10.7105 10.6007L8.80048 13.8707C8.57417 13.7989 8.3379 13.7635 8.10048 13.7657C7.629 12.8517 6.88452 12.1072 5.97048 11.6357C5.97836 11.1182 5.806 10.6141 5.48293 10.2097C5.15986 9.8054 4.70621 9.52602 4.19974 9.41949C3.69326 9.31297 3.16551 9.38592 2.70693 9.62586C2.24835 9.86579 1.88751 10.2578 1.68625 10.7346C1.48499 11.2114 1.45586 11.7434 1.60384 12.2393C1.75181 12.7353 2.06769 13.1643 2.49732 13.4529C2.92695 13.7415 3.44359 13.8716 3.95866 13.8211C4.47374 13.7705 4.95519 13.5423 5.32048 13.1757C5.47786 13.0153 5.60942 12.8314 5.71048 12.6307C6.28527 12.9733 6.76491 13.4547 7.10548 14.0307C6.79195 14.1899 6.52093 14.4216 6.31495 14.7066C6.10897 14.9916 5.97396 15.3217 5.92115 15.6693C5.86835 16.017 5.89926 16.3722 6.01132 16.7055C6.12339 17.0388 6.31337 17.3406 6.56548 17.5857C6.72428 17.7414 6.90649 17.8713 7.10548 17.9707C6.76491 18.5467 6.28527 19.0281 5.71048 19.3707C5.60942 19.17 5.47786 18.9861 5.32048 18.8257C4.89945 18.4053 4.32868 18.1694 3.73372 18.1699C3.13876 18.1704 2.56835 18.4072 2.14798 18.8282C1.72762 19.2492 1.49172 19.82 1.49219 20.415C1.49266 21.0099 1.72945 21.5803 2.15048 22.0007C2.46546 22.3177 2.86825 22.5331 3.30684 22.6189C3.74543 22.7047 4.19968 22.6571 4.61092 22.4821C5.02217 22.3072 5.37152 22.013 5.61388 21.6375C5.85623 21.262 5.98044 20.8225 5.97048 20.3757C6.88452 19.9042 7.629 19.1597 8.10048 18.2457H8.14548C8.3681 18.2421 8.5889 18.205 8.80048 18.1357L10.7055 21.4307C10.3682 21.86 10.1994 22.3978 10.2307 22.9428C10.262 23.4879 10.4913 24.0028 10.8755 24.3907C10.9557 24.4663 11.0409 24.5365 11.1305 24.6007C10.7895 25.257 10.2694 25.8031 9.63048 26.1757C9.52942 25.975 9.39786 25.7911 9.24048 25.6307C8.9804 25.3693 8.65982 25.1762 8.30719 25.0685C7.95456 24.9607 7.58078 24.9417 7.21903 25.0131C6.85728 25.0844 6.51875 25.244 6.23347 25.4776C5.94819 25.7112 5.725 26.0117 5.58369 26.3522C5.44238 26.6928 5.38732 27.063 5.42341 27.4299C5.4595 27.7969 5.58562 28.1493 5.79058 28.4558C5.99553 28.7623 6.27298 29.0135 6.5983 29.187C6.92362 29.3606 7.28676 29.4512 7.65548 29.4507C7.95301 29.4514 8.24767 29.3926 8.52212 29.2778C8.79657 29.1629 9.04526 28.9942 9.25353 28.7818C9.4618 28.5693 9.62546 28.3173 9.73485 28.0406C9.84424 27.7639 9.89716 27.4681 9.89048 27.1707C10.8211 26.6947 11.5759 25.9346 12.0455 25.0007C12.1823 25.0266 12.3212 25.04 12.4605 25.0407C13.0547 25.0407 13.6247 24.8052 14.0455 24.3857C14.341 24.0873 14.5457 23.711 14.6355 23.3007H17.7705C17.8811 23.7958 18.1575 24.2382 18.554 24.5547C18.9505 24.8712 19.4432 25.0426 19.9505 25.0407C20.4223 25.9533 21.1668 26.6961 22.0805 27.1657C22.0716 27.6115 22.1962 28.0497 22.4383 28.4241C22.6804 28.7985 23.029 29.0919 23.4392 29.2666C23.8494 29.4413 24.3025 29.4894 24.7402 29.4046C25.1779 29.3198 25.5802 29.106 25.8955 28.7907C26.2863 28.3653 26.4977 27.8054 26.4854 27.2278C26.4732 26.6503 26.2383 26.0998 25.8299 25.6913C25.4214 25.2828 24.8709 25.048 24.2934 25.0357C23.7158 25.0235 23.1559 25.2349 22.7305 25.6257C22.5731 25.7861 22.4415 25.97 22.3405 26.1707C21.7684 25.8328 21.2905 25.3565 20.9505 24.7857C21.2648 24.6258 21.5368 24.3935 21.744 24.1081C21.9511 23.8227 22.0877 23.4922 22.1423 23.1437C22.197 22.7953 22.1682 22.4389 22.0584 22.1037C21.9485 21.7685 21.7608 21.4642 21.5105 21.2157L21.4355 21.1557L23.1805 18.1307C23.3922 18.1996 23.6129 18.2366 23.8355 18.2407H23.8755C24.3439 19.1582 25.0891 19.9051 26.0055 20.3757C25.9983 20.8943 26.1717 21.3993 26.496 21.8041C26.8203 22.2089 27.2753 22.4883 27.783 22.5944C28.2907 22.7005 28.8195 22.6267 29.2788 22.3857C29.7381 22.1447 30.0992 21.7515 30.3004 21.2734C30.5015 20.7953 30.5301 20.2621 30.3813 19.7653C30.2324 19.2684 29.9154 18.8388 29.4845 18.55C29.0536 18.2613 28.5358 18.1314 28.0196 18.1826C27.5035 18.2338 27.0212 18.4629 26.6555 18.8307L26.6755 18.8257ZM27.3855 10.7157C27.6185 10.4855 27.9329 10.3564 28.2605 10.3564C28.5881 10.3564 28.9025 10.4855 29.1355 10.7157C29.3094 10.8889 29.428 11.1098 29.4763 11.3505C29.5245 11.5912 29.5003 11.8408 29.4066 12.0677C29.3129 12.2945 29.154 12.4885 28.9499 12.625C28.7459 12.7615 28.506 12.8343 28.2605 12.8343C28.015 12.8343 27.7751 12.7615 27.571 12.625C27.367 12.4885 27.2081 12.2945 27.1144 12.0677C27.0207 11.8408 26.9964 11.5912 27.0447 11.3505C27.0929 11.1098 27.2116 10.8889 27.3855 10.7157ZM23.4555 3.91569C23.629 3.74247 23.8499 3.62457 24.0904 3.57688C24.3309 3.52919 24.5801 3.55386 24.8066 3.64777C25.0331 3.74168 25.2266 3.90061 25.3628 4.10449C25.4989 4.30836 25.5716 4.54803 25.5716 4.79319C25.5716 5.03836 25.4989 5.27802 25.3628 5.4819C25.2266 5.68577 25.0331 5.84471 24.8066 5.93862C24.5801 6.03253 24.3309 6.0572 24.0904 6.00951C23.8499 5.96182 23.629 5.84392 23.4555 5.67069C23.2249 5.43681 23.0957 5.1216 23.0957 4.79319C23.0957 4.46479 23.2249 4.14958 23.4555 3.91569ZM6.78548 5.67069C6.61226 5.4972 6.49436 5.27625 6.44667 5.03577C6.39898 4.79528 6.42365 4.54606 6.51756 4.31959C6.61147 4.09313 6.7704 3.89958 6.97428 3.76341C7.17815 3.62725 7.41782 3.55457 7.66298 3.55457C7.90815 3.55457 8.14781 3.62725 8.35169 3.76341C8.55556 3.89958 8.7145 4.09313 8.80841 4.31959C8.90232 4.54606 8.92699 4.79528 8.8793 5.03577C8.83161 5.27625 8.71371 5.4972 8.54048 5.67069C8.42531 5.78605 8.28853 5.87756 8.13796 5.93999C7.98739 6.00243 7.82599 6.03457 7.66298 6.03457C7.49998 6.03457 7.33858 6.00243 7.18801 5.93999C7.03744 5.87756 6.90065 5.78605 6.78548 5.67069ZM2.86048 12.4707C2.74453 12.3559 2.65249 12.2192 2.58968 12.0686C2.52686 11.918 2.49452 11.7564 2.49452 11.5932C2.49452 11.43 2.52686 11.2684 2.58968 11.1178C2.65249 10.9672 2.74453 10.8305 2.86048 10.7157C3.09352 10.4855 3.4079 10.3564 3.73548 10.3564C4.06307 10.3564 4.37745 10.4855 4.61048 10.7157C4.73257 10.829 4.83057 10.9658 4.89864 11.1178C4.96671 11.2698 5.00345 11.434 5.00667 11.6006C5.00989 11.7671 4.97952 11.9326 4.91738 12.0871C4.85523 12.2417 4.76258 12.3821 4.64497 12.5001C4.52735 12.618 4.38717 12.7111 4.2328 12.7737C4.07843 12.8363 3.91304 12.8671 3.74648 12.8644C3.57993 12.8616 3.41564 12.8253 3.26342 12.7577C3.11119 12.6901 2.97415 12.5925 2.86048 12.4707ZM4.61048 21.2857C4.37501 21.5112 4.06154 21.6371 3.73548 21.6371C3.40943 21.6371 3.09596 21.5112 2.86048 21.2857C2.68656 21.1125 2.56795 20.8915 2.51969 20.6509C2.47143 20.4102 2.49568 20.1606 2.58938 19.9337C2.68309 19.7069 2.84202 19.5129 3.04605 19.3764C3.25007 19.2399 3.49002 19.1671 3.73548 19.1671C3.98095 19.1671 4.2209 19.2399 4.42492 19.3764C4.62895 19.5129 4.78788 19.7069 4.88158 19.9337C4.97529 20.1606 4.99954 20.4102 4.95128 20.6509C4.90302 20.8915 4.78441 21.1125 4.61048 21.2857ZM8.54048 28.0857C8.36699 28.2589 8.14604 28.3768 7.90556 28.4245C7.66507 28.4722 7.41585 28.4475 7.18938 28.3536C6.96292 28.2597 6.76937 28.1008 6.6332 27.8969C6.49704 27.693 6.42436 27.4534 6.42436 27.2082C6.42436 26.963 6.49704 26.7234 6.6332 26.5195C6.76937 26.3156 6.96292 26.1567 7.18938 26.0628C7.41585 25.9689 7.66507 25.9442 7.90556 25.9919C8.14604 26.0396 8.36699 26.1575 8.54048 26.3307C8.65584 26.4459 8.74735 26.5826 8.80978 26.7332C8.87222 26.8838 8.90436 27.0452 8.90436 27.2082C8.90436 27.3712 8.87222 27.5326 8.80978 27.6832C8.74735 27.8337 8.65584 27.9705 8.54048 28.0857ZM24.3355 25.9707C24.6223 25.9722 24.8997 26.073 25.1205 26.256C25.3413 26.4391 25.4918 26.693 25.5464 26.9746C25.601 27.2561 25.5564 27.5479 25.42 27.8002C25.2837 28.0525 25.0641 28.2498 24.7986 28.3584C24.5332 28.4669 24.2383 28.4802 23.9642 28.3958C23.6901 28.3114 23.4537 28.1346 23.2953 27.8955C23.137 27.6564 23.0664 27.3697 23.0956 27.0844C23.1248 26.7991 23.252 26.5328 23.4555 26.3307C23.5713 26.2157 23.7086 26.1248 23.8596 26.063C24.0106 26.0012 24.1723 25.9699 24.3355 25.9707ZM24.7305 16.8757C24.5573 17.0496 24.3363 17.1682 24.0957 17.2165C23.855 17.2648 23.6054 17.2405 23.3785 17.1468C23.1516 17.0531 22.9577 16.8942 22.8212 16.6901C22.6847 16.4861 22.6119 16.2462 22.6119 16.0007C22.6119 15.7552 22.6847 15.5153 22.8212 15.3113C22.9577 15.1072 23.1516 14.9483 23.3785 14.8546C23.6054 14.7609 23.855 14.7366 24.0957 14.7849C24.3363 14.8332 24.5573 14.9518 24.7305 15.1257C24.9619 15.3581 25.0919 15.6727 25.0919 16.0007C25.0919 16.3287 24.9619 16.6433 24.7305 16.8757ZM19.0705 8.32569C19.1838 8.20361 19.3206 8.1056 19.4726 8.03754C19.6246 7.96947 19.7888 7.93272 19.9554 7.92951C20.1219 7.92629 20.2874 7.95666 20.4419 8.0188C20.5965 8.08095 20.7369 8.17359 20.8549 8.29121C20.9728 8.40883 21.0659 8.54901 21.1285 8.70338C21.191 8.85775 21.2219 9.02314 21.2191 9.1897C21.2164 9.35625 21.1801 9.52054 21.1125 9.67276C21.0449 9.82499 20.9472 9.96203 20.8255 10.0757C20.5892 10.3016 20.2749 10.4276 19.948 10.4276C19.6211 10.4276 19.3068 10.3016 19.0705 10.0757C18.8403 9.84266 18.7111 9.52828 18.7111 9.20069C18.7111 8.87311 18.8403 8.55873 19.0705 8.32569ZM13.3355 8.32569C13.5657 8.55718 13.6966 8.86926 13.7005 9.19569C13.6958 9.5205 13.5649 9.83074 13.3355 10.0607C13.1034 10.2928 12.7887 10.4231 12.4605 10.4231C12.1323 10.4231 11.8175 10.2928 11.5855 10.0607C11.3534 9.82863 11.223 9.51388 11.223 9.1857C11.223 8.85751 11.3534 8.54276 11.5855 8.3107C11.6999 8.1949 11.8361 8.10296 11.9863 8.04021C12.1365 7.97746 12.2977 7.94515 12.4605 7.94515C12.6233 7.94515 12.7844 7.97746 12.9346 8.04021C13.0848 8.10296 13.2211 8.1949 13.3355 8.3107V8.32569ZM7.27048 15.1257C7.4437 14.9518 7.66463 14.8332 7.90531 14.7849C8.14599 14.7366 8.39557 14.7609 8.62245 14.8546C8.84933 14.9483 9.04329 15.1072 9.17977 15.3113C9.31625 15.5153 9.38911 15.7552 9.38911 16.0007C9.38911 16.2462 9.31625 16.4861 9.17977 16.6901C9.04329 16.8942 8.84933 17.0531 8.62245 17.1468C8.39557 17.2405 8.14599 17.2648 7.90531 17.2165C7.66463 17.1682 7.4437 17.0496 7.27048 16.8757C7.03905 16.6433 6.90911 16.3287 6.90911 16.0007C6.90911 15.6727 7.03905 15.3581 7.27048 15.1257ZM11.5855 23.6757C11.4703 23.5609 11.3789 23.4246 11.3165 23.2744C11.2541 23.1243 11.222 22.9633 11.222 22.8007C11.222 22.6381 11.2541 22.4771 11.3165 22.327C11.3789 22.1768 11.4703 22.0404 11.5855 21.9257C11.6999 21.8099 11.8361 21.718 11.9863 21.6552C12.1365 21.5925 12.2977 21.5601 12.4605 21.5601C12.6233 21.5601 12.7844 21.5925 12.9346 21.6552C13.0848 21.718 13.2211 21.8099 13.3355 21.9257C13.5649 22.1556 13.6958 22.4659 13.7005 22.7907C13.6966 23.1171 13.5657 23.4292 13.3355 23.6607C13.2217 23.7769 13.0862 23.8695 12.9365 23.9331C12.7869 23.9968 12.6262 24.0303 12.4636 24.0317C12.301 24.0331 12.1397 24.0023 11.989 23.9412C11.8384 23.8802 11.7012 23.7899 11.5855 23.6757ZM20.8255 23.6757C20.5892 23.9016 20.2749 24.0276 19.948 24.0276C19.6211 24.0276 19.3068 23.9016 19.0705 23.6757C18.8975 23.502 18.7799 23.2809 18.7325 23.0404C18.6851 22.7999 18.7101 22.5507 18.8042 22.3243C18.8984 22.098 19.0576 21.9047 19.2616 21.7687C19.4656 21.6328 19.7053 21.5604 19.9505 21.5607C20.1963 21.559 20.437 21.6307 20.6418 21.7666C20.8466 21.9025 21.0062 22.0964 21.1002 22.3235C21.1942 22.5507 21.2182 22.8007 21.1693 23.0416C21.1203 23.2824 21.0006 23.5032 20.8255 23.6757ZM20.5855 20.6757C20.3805 20.608 20.1663 20.5726 19.9505 20.5707C19.4432 20.5688 18.9505 20.7402 18.554 21.0567C18.1575 21.3732 17.8811 21.8156 17.7705 22.3107H14.6355C14.5621 21.9832 14.4152 21.6767 14.206 21.4143C13.9967 21.1519 13.7306 20.9405 13.4277 20.796C13.1248 20.6516 12.793 20.5778 12.4574 20.5804C12.1218 20.5829 11.7912 20.6617 11.4905 20.8107L9.67048 17.6557L9.73048 17.6057C9.93881 17.3977 10.1041 17.1506 10.2168 16.8786C10.3296 16.6066 10.3876 16.3151 10.3876 16.0207C10.3876 15.7263 10.3296 15.4347 10.2168 15.1628C10.1041 14.8908 9.93881 14.6437 9.73048 14.4357L9.67048 14.3857L11.5005 11.2107C11.8029 11.3578 12.1342 11.4364 12.4705 11.4407C12.9776 11.4443 13.4706 11.2733 13.8666 10.9565C14.2626 10.6396 14.5376 10.1963 14.6455 9.70069H17.7805C17.8911 10.1958 18.1675 10.6382 18.564 10.9547C18.9605 11.2712 19.4532 11.4426 19.9605 11.4407C20.1763 11.4388 20.3905 11.4033 20.5955 11.3357L22.3405 14.3657L22.2805 14.4157C22.0722 14.6237 21.9069 14.8708 21.7941 15.1428C21.6814 15.4147 21.6233 15.7063 21.6233 16.0007C21.6233 16.2951 21.6814 16.5866 21.7941 16.8586C21.9069 17.1306 22.0722 17.3777 22.2805 17.5857L22.3405 17.6357L20.5855 20.6757ZM29.1355 21.2957C28.9 21.5212 28.5865 21.6471 28.2605 21.6471C27.9344 21.6471 27.621 21.5212 27.3855 21.2957C27.2116 21.1225 27.0929 20.9015 27.0447 20.6609C26.9964 20.4202 27.0207 20.1706 27.1144 19.9437C27.2081 19.7169 27.367 19.5229 27.571 19.3864C27.7751 19.2499 28.015 19.1771 28.2605 19.1771C28.506 19.1771 28.7459 19.2499 28.9499 19.3864C29.154 19.5229 29.3129 19.7169 29.4066 19.9437C29.5003 20.1706 29.5245 20.4202 29.4763 20.6609C29.428 20.9015 29.3094 21.1225 29.1355 21.2957Z" fill="url(#paint0_linear_1909_5541)"/>
<path d="M16.0009 11.9609C15.2019 11.9609 14.4208 12.1979 13.7564 12.6418C13.0921 13.0857 12.5742 13.7167 12.2685 14.4549C11.9627 15.1931 11.8827 16.0054 12.0386 16.7891C12.1945 17.5728 12.5792 18.2926 13.1442 18.8576C13.7092 19.4227 14.4291 19.8074 15.2128 19.9633C15.9965 20.1192 16.8088 20.0392 17.547 19.7334C18.2852 19.4276 18.9162 18.9098 19.3601 18.2454C19.804 17.5811 20.0409 16.8 20.0409 16.0009C20.0409 14.9295 19.6153 13.9019 18.8577 13.1442C18.1 12.3866 17.0724 11.9609 16.0009 11.9609ZM16.0009 19.0409C15.3997 19.0409 14.8119 18.8626 14.312 18.5286C13.8121 18.1946 13.4224 17.7198 13.1923 17.1643C12.9623 16.6088 12.9021 15.9976 13.0194 15.4079C13.1367 14.8182 13.4262 14.2765 13.8513 13.8513C14.2765 13.4262 14.8182 13.1366 15.4079 13.0194C15.9976 12.9021 16.6088 12.9623 17.1643 13.1923C17.7198 13.4224 18.1946 13.8121 18.5286 14.312C18.8626 14.8119 19.0409 15.3997 19.0409 16.0009C19.0396 16.8068 18.7189 17.5793 18.1491 18.1491C17.5793 18.7189 16.8068 19.0396 16.0009 19.0409Z" fill="url(#paint1_linear_1909_5541)"/>
<defs>
<linearGradient id="paint0_linear_1909_5541" x1="1.49548" y1="16.0007" x2="30.5005" y2="16.0007" gradientUnits="userSpaceOnUse">
<stop stop-color="#19DD33"/>
<stop offset="0.43" stop-color="#0FA922"/>
<stop offset="0.8" stop-color="#088215"/>
<stop offset="1" stop-color="#057310"/>
</linearGradient>
<linearGradient id="paint1_linear_1909_5541" x1="11.9609" y1="16.0009" x2="20.0409" y2="16.0009" gradientUnits="userSpaceOnUse">
<stop stop-color="#19DD33"/>
<stop offset="0.43" stop-color="#0FA922"/>
<stop offset="0.8" stop-color="#088215"/>
<stop offset="1" stop-color="#057310"/>
</linearGradient>
</defs>
</svg>
