<svg width="54" height="54" viewBox="0 0 54 54" fill="none" xmlns="http://www.w3.org/2000/svg">
<path d="M52.875 12.375V6.75C52.875 5.50688 51.8681 4.5 50.625 4.5H3.375C2.13188 4.5 1.125 5.50688 1.125 6.75V12.375H52.875Z" fill="#444444"/>
<path d="M50.625 48.375H16.875V12.375H52.875V46.125C52.875 47.3681 51.8681 48.375 50.625 48.375Z" fill="#606060"/>
<path d="M5.0625 10.125C5.99448 10.125 6.75 9.36948 6.75 8.4375C6.75 7.50552 5.99448 6.75 5.0625 6.75C4.13052 6.75 3.375 7.50552 3.375 8.4375C3.375 9.36948 4.13052 10.125 5.0625 10.125Z" fill="#E86C60"/>
<path d="M10.6875 10.125C11.6195 10.125 12.375 9.36948 12.375 8.4375C12.375 7.50552 11.6195 6.75 10.6875 6.75C9.75552 6.75 9 7.50552 9 8.4375C9 9.36948 9.75552 10.125 10.6875 10.125Z" fill="#EFD358"/>
<path d="M16.3125 10.125C17.2445 10.125 18 9.36948 18 8.4375C18 7.50552 17.2445 6.75 16.3125 6.75C15.3805 6.75 14.625 7.50552 14.625 8.4375C14.625 9.36948 15.3805 10.125 16.3125 10.125Z" fill="#72C472"/>
<path d="M18 48.375H3.375C2.13188 48.375 1.125 47.3681 1.125 46.125V12.375H18V48.375Z" fill="#4F4F4F"/>
<path d="M13.5 15.75H5.625V18H13.5V15.75Z" fill="#B3B3B3"/>
<path d="M11.25 22.5H5.625V24.75H11.25V22.5Z" fill="#B3B3B3"/>
<path d="M13.5 29.25H5.625V31.5H13.5V29.25Z" fill="#B3B3B3"/>
<path d="M11.25 36H5.625V38.25H11.25V36Z" fill="#B3B3B3"/>
<path d="M13.5 42.75H5.625V45H13.5V42.75Z" fill="#B3B3B3"/>
<path d="M28.125 15.75H22.5V18H28.125V15.75Z" fill="#E86C60"/>
<path d="M34.875 22.5H27V24.75H34.875V22.5Z" fill="#EFD358"/>
<path d="M41.625 29.25H30.375V31.5H41.625V29.25Z" fill="white"/>
<path d="M34.875 36H27V38.25H34.875V36Z" fill="#EFD358"/>
<path d="M28.125 42.75H22.5V45H28.125V42.75Z" fill="#E86C60"/>
</svg>
