<svg width="580" height="420" viewBox="0 0 580 420" fill="none" xmlns="http://www.w3.org/2000/svg">
<g clip-path="url(#clip0_111_2104)">
<path d="M47.5656 273.421C29.542 273.421 14.9287 288.04 14.9287 306.07C14.9287 324.1 47.5656 357.608 47.5656 357.608C47.5656 357.608 80.2024 324.1 80.2024 306.07C80.2024 288.04 65.5891 273.421 47.5656 273.421ZM47.5656 319.691C40.0505 319.691 33.95 313.588 33.95 306.07C33.95 298.552 40.0505 292.45 47.5656 292.45C55.0806 292.45 61.1811 298.552 61.1811 306.07C61.1811 313.588 55.0806 319.691 47.5656 319.691Z" fill="#1E647C"/>
<path d="M316.138 187.668C309.368 187.668 303.874 182.159 303.874 175.399V161.096C303.874 154.324 309.381 148.828 316.138 148.828C322.908 148.828 328.402 154.336 328.402 161.096V175.386C328.415 182.159 322.908 187.668 316.138 187.668ZM316.138 153.882C312.159 153.882 308.926 157.116 308.926 161.096V175.386C308.926 179.366 312.159 182.601 316.138 182.601C320.116 182.601 323.35 179.366 323.35 175.386V161.096C323.362 157.116 320.116 153.882 316.138 153.882Z" fill="#73AFC9"/>
<path d="M323.678 210.082C316.908 210.082 311.414 204.573 311.414 197.813V183.523C311.414 176.751 316.921 171.255 323.678 171.255C330.448 171.255 335.942 176.764 335.942 183.523V197.813C335.942 204.573 330.435 210.082 323.678 210.082ZM323.678 176.296C319.699 176.296 316.466 179.531 316.466 183.511V197.801C316.466 201.781 319.699 205.015 323.678 205.015C327.656 205.015 330.89 201.781 330.89 197.801V183.511C330.89 179.531 327.656 176.296 323.678 176.296Z" fill="#AED7ED"/>
<path d="M318.803 187.668H313.485C308.193 187.668 303.874 183.359 303.874 178.052V158.43C303.874 153.136 308.181 148.815 313.485 148.815V153.869C310.972 153.869 308.926 155.916 308.926 158.43V178.052C308.926 180.567 310.972 182.614 313.485 182.614H318.803C321.316 182.614 323.362 180.567 323.362 178.052H328.415C328.415 183.359 324.095 187.668 318.803 187.668Z" fill="#73AFC9"/>
<path d="M363.123 155.979H348.838C342.068 155.979 336.574 150.47 336.574 143.71C336.574 136.938 342.081 131.442 348.838 131.442H363.123C369.893 131.442 375.387 136.951 375.387 143.71C375.399 150.47 369.893 155.979 363.123 155.979ZM348.838 136.483C344.859 136.483 341.626 139.718 341.626 143.698C341.626 147.678 344.859 150.912 348.838 150.912H363.123C367.101 150.912 370.335 147.678 370.335 143.698C370.335 139.718 367.101 136.483 363.123 136.483H348.838Z" fill="#73AFC9"/>
<path d="M340.717 163.51H326.432C319.662 163.51 314.167 158.001 314.167 151.241C314.167 144.469 319.674 138.972 326.432 138.972H340.717C347.486 138.972 352.981 144.481 352.981 151.241C352.981 158.001 347.486 163.51 340.717 163.51ZM326.432 144.014C322.453 144.014 319.22 147.248 319.22 151.228C319.22 155.208 322.453 158.443 326.432 158.443H340.717C344.695 158.443 347.928 155.208 347.928 151.228C347.928 147.248 344.695 144.014 340.717 144.014H326.432Z" fill="#AED7ED"/>
<path d="M346.173 155.979C340.881 155.979 336.561 151.671 336.561 146.364V141.044C336.561 135.75 340.868 131.429 346.173 131.429H365.788C371.08 131.429 375.399 135.738 375.399 141.044H370.347C370.347 138.53 368.301 136.483 365.788 136.483H346.173C343.659 136.483 341.613 138.53 341.613 141.044V146.364C341.613 148.878 343.659 150.925 346.173 150.925V155.979Z" fill="#73AFC9"/>
<path d="M308.926 176.612H303.874V159.871C303.874 153.781 308.825 148.828 314.913 148.828H317.363C321.493 148.828 325.244 151.102 327.152 154.766L322.68 157.104C321.645 155.12 319.599 153.882 317.363 153.882H314.913C311.604 153.882 308.926 156.573 308.926 159.871V176.612Z" fill="#73AFC9"/>
<path d="M202.098 145.075C202.098 138.303 207.605 132.806 214.362 132.806H228.647C235.417 132.806 240.912 138.315 240.912 145.075C240.912 151.847 235.405 157.344 228.647 157.344H214.362C207.605 157.356 202.098 151.847 202.098 145.075ZM235.872 145.075C235.872 141.095 232.639 137.86 228.66 137.86H214.375C210.397 137.86 207.163 141.095 207.163 145.075C207.163 149.055 210.397 152.29 214.375 152.29H228.66C232.639 152.302 235.872 149.055 235.872 145.075Z" fill="#73AFC9"/>
<path d="M179.692 152.618C179.692 145.846 185.199 140.35 191.956 140.35H206.241C213.011 140.35 218.505 145.858 218.505 152.618C218.505 159.391 212.998 164.887 206.241 164.887H191.956C185.199 164.887 179.692 159.378 179.692 152.618ZM213.466 152.618C213.466 148.638 210.232 145.404 206.254 145.404H191.969C187.99 145.404 184.757 148.638 184.757 152.618C184.757 156.598 187.99 159.833 191.969 159.833H206.254C210.232 159.833 213.466 156.598 213.466 152.618Z" fill="#AED7ED"/>
<path d="M202.098 147.741V142.422C202.098 137.128 206.405 132.806 211.71 132.806H231.325C236.617 132.806 240.937 137.115 240.937 142.422H235.885C235.885 139.907 233.838 137.86 231.325 137.86H211.71C209.197 137.86 207.151 139.907 207.151 142.422V147.741C207.151 150.255 209.197 152.302 211.71 152.302V157.356C206.405 157.356 202.098 153.035 202.098 147.741Z" fill="#73AFC9"/>
<path d="M233.775 192.077V177.787C233.775 171.015 239.282 165.519 246.039 165.519C252.809 165.519 258.303 171.027 258.303 177.787V192.077C258.303 198.85 252.796 204.346 246.039 204.346C239.282 204.359 233.775 198.85 233.775 192.077ZM253.264 177.787C253.264 173.807 250.03 170.573 246.052 170.573C242.073 170.573 238.84 173.807 238.84 177.787V192.077C238.84 196.057 242.073 199.292 246.052 199.292C250.03 199.292 253.264 196.057 253.264 192.077V177.787Z" fill="#73AFC9"/>
<path d="M226.248 169.663V155.373C226.248 148.6 231.754 143.104 238.512 143.104C245.282 143.104 250.776 148.613 250.776 155.373V169.663C250.776 176.435 245.269 181.931 238.512 181.931C231.754 181.931 226.248 176.435 226.248 169.663ZM245.736 155.373C245.736 151.393 242.503 148.158 238.524 148.158C234.546 148.158 231.312 151.393 231.312 155.373V169.663C231.312 173.643 234.546 176.877 238.524 176.877C242.503 176.877 245.736 173.643 245.736 169.663V155.373Z" fill="#AED7ED"/>
<path d="M233.775 175.121C233.775 169.827 238.082 165.506 243.387 165.506H248.704C253.996 165.506 258.316 169.814 258.316 175.121V194.743C258.316 200.037 254.009 204.358 248.704 204.358V199.304C251.217 199.304 253.264 197.258 253.264 194.743V175.121C253.264 172.607 251.217 170.56 248.704 170.56H243.387C240.873 170.56 238.827 172.607 238.827 175.121H233.775Z" fill="#73AFC9"/>
<path d="M213.15 137.86V132.806H229.885C235.973 132.806 240.924 137.759 240.924 143.849V146.301C240.924 150.432 238.651 154.185 234.988 156.093L232.651 151.62C234.634 150.584 235.872 148.537 235.872 146.301V143.849C235.872 140.539 233.182 137.86 229.885 137.86H213.15Z" fill="#73AFC9"/>
<path d="M553.487 284.111H384.013C379.213 284.111 375.323 280.219 375.323 275.418V52.2078C375.323 47.4065 379.213 43.5149 384.013 43.5149H553.487C558.287 43.5149 562.177 47.4065 562.177 52.2078V275.418C562.177 280.219 558.287 284.111 553.487 284.111Z" fill="#1E647C"/>
<path d="M542.726 270.275H373.252C368.453 270.275 364.562 266.384 364.562 261.582V38.3599C364.562 33.5586 368.453 29.667 373.252 29.667H542.726C547.526 29.667 551.416 33.5586 551.416 38.3599V261.57C551.416 266.384 547.526 270.275 542.726 270.275Z" fill="#5B5B5B"/>
<path d="M542.726 29.667H373.252C368.453 29.667 364.562 33.5586 364.562 38.3599V45.8272H551.416V38.3599C551.416 33.5586 547.526 29.667 542.726 29.667Z" fill="#145C75"/>
<path d="M373.164 40.4194C374.636 40.4194 375.829 39.2258 375.829 37.7534C375.829 36.281 374.636 35.0874 373.164 35.0874C371.692 35.0874 370.499 36.281 370.499 37.7534C370.499 39.2258 371.692 40.4194 373.164 40.4194Z" fill="#EF4556"/>
<path d="M380.768 40.4194C382.239 40.4194 383.433 39.2258 383.433 37.7534C383.433 36.281 382.239 35.0874 380.768 35.0874C379.296 35.0874 378.103 36.281 378.103 37.7534C378.103 39.2258 379.296 40.4194 380.768 40.4194Z" fill="#EDDD48"/>
<path d="M388.371 40.4194C389.843 40.4194 391.036 39.2258 391.036 37.7534C391.036 36.281 389.843 35.0874 388.371 35.0874C386.899 35.0874 385.706 36.281 385.706 37.7534C385.706 39.2258 386.899 40.4194 388.371 40.4194Z" fill="#49EA8E"/>
<path d="M391.857 52.5742H373.669V70.7686H391.857V52.5742Z" fill="#D9DADD"/>
<path d="M430.568 52.5742H398.854V57.2365H430.568V52.5742Z" fill="#D9DADD"/>
<path d="M430.568 59.3467H398.854V64.009H430.568V59.3467Z" fill="#D9DADD"/>
<path d="M373.66 161.066L540.09 161.066V73.935L373.66 73.935V161.066Z" fill="#145C75"/>
<path d="M540.099 167.376H373.669V181.375H540.099V167.376Z" fill="#D9DADD"/>
<path d="M412.381 172.379H380.666V177.042H412.381V172.379Z" fill="white"/>
<path d="M472.728 172.379H441.014V177.041H472.728V172.379Z" fill="white"/>
<path d="M533.09 172.379H501.375V177.041H533.09V172.379Z" fill="white"/>
<path d="M456.878 136.875C467.578 136.875 476.253 128.197 476.253 117.493C476.253 106.788 467.578 98.1108 456.878 98.1108C446.177 98.1108 437.503 106.788 437.503 117.493C437.503 128.197 446.177 136.875 456.878 136.875Z" fill="#F7B521"/>
<path d="M468.283 116.684L451.864 107.208C451.232 106.842 450.449 107.296 450.449 108.029V126.994C450.449 127.715 451.232 128.169 451.864 127.816L468.283 118.339C468.902 117.948 468.902 117.038 468.283 116.684Z" fill="white"/>
<path d="M459.555 400.946H121.491V209.463C121.491 201.326 128.084 194.731 136.218 194.731H444.828C452.962 194.731 459.555 201.326 459.555 209.463V400.946Z" fill="#939393"/>
<path d="M442.265 208.326H137.406V381.716H442.265V208.326Z" fill="#606D75"/>
<path d="M456.866 420H122.742C109.606 420 98.9463 409.349 98.9463 396.196H480.661C480.661 409.336 470.014 420 456.866 420Z" fill="#CEECFF"/>
<path d="M334.174 396.196H245.421V408.098H334.174V396.196Z" fill="#82B6D3"/>
<path d="M334.174 404.75H245.421V408.098H334.174V404.75Z" fill="#807E7E"/>
<path d="M442.264 208.326H137.405V218.674H442.264V208.326Z" fill="#2B7CA0"/>
<path d="M143.292 216.16C144.764 216.16 145.957 214.966 145.957 213.494C145.957 212.021 144.764 210.828 143.292 210.828C141.82 210.828 140.627 212.021 140.627 213.494C140.627 214.966 141.82 216.16 143.292 216.16Z" fill="#EF4556"/>
<path d="M150.894 216.16C152.366 216.16 153.56 214.966 153.56 213.494C153.56 212.021 152.366 210.828 150.894 210.828C149.423 210.828 148.229 212.021 148.229 213.494C148.229 214.966 149.423 216.16 150.894 216.16Z" fill="#EDDD48"/>
<path d="M158.498 216.16C159.97 216.16 161.163 214.966 161.163 213.494C161.163 212.021 159.97 210.828 158.498 210.828C157.026 210.828 155.833 212.021 155.833 213.494C155.833 214.966 157.026 216.16 158.498 216.16Z" fill="#49EA8E"/>
<path d="M324.411 316.658H292.103C283.047 316.658 275.671 309.279 275.671 300.22V291.451C275.671 282.392 283.047 275.013 292.103 275.013H324.411C333.467 275.013 340.844 282.392 340.844 291.451V300.22C340.844 309.292 333.467 316.658 324.411 316.658ZM292.103 284.553C288.301 284.553 285.207 287.648 285.207 291.451V300.22C285.207 304.023 288.301 307.119 292.103 307.119H324.411C328.213 307.119 331.308 304.023 331.308 300.22V291.451C331.308 287.648 328.213 284.553 324.411 284.553H292.103Z" fill="#2B7CA0"/>
<path d="M287.505 329.078H255.197C246.141 329.078 238.765 321.7 238.765 312.64V303.872C238.765 294.812 246.141 287.434 255.197 287.434H287.505C296.561 287.434 303.937 294.812 303.937 303.872V312.64C303.925 321.7 296.561 329.078 287.505 329.078ZM255.197 296.96C251.395 296.96 248.301 300.056 248.301 303.859V312.628C248.301 316.431 251.395 319.526 255.197 319.526H287.505C291.307 319.526 294.401 316.431 294.401 312.628V303.859C294.401 300.056 291.307 296.96 287.505 296.96H255.197Z" fill="#F7B521"/>
<path d="M292.103 316.658C283.047 316.658 275.671 309.279 275.671 300.22V291.451C275.671 282.392 283.047 275.013 292.103 275.013H324.411C333.467 275.013 340.844 282.392 340.844 291.451H331.32C331.32 287.648 328.226 284.553 324.424 284.553H292.116C288.314 284.553 285.219 287.648 285.219 291.451V300.22C285.219 304.023 288.314 307.119 292.116 307.119V316.658H292.103Z" fill="#2B7CA0"/>
<path d="M289.804 372.884C328.909 372.884 360.609 341.172 360.609 302.052C360.609 262.933 328.909 231.22 289.804 231.22C250.699 231.22 218.998 262.933 218.998 302.052C218.998 341.172 250.699 372.884 289.804 372.884Z" stroke="white" stroke-miterlimit="10" stroke-dasharray="11.74 11.74"/>
<path d="M22.4819 233.773C26.0743 233.773 28.9866 230.859 28.9866 227.266C28.9866 223.672 26.0743 220.759 22.4819 220.759C18.8895 220.759 15.9773 223.672 15.9773 227.266C15.9773 230.859 18.8895 233.773 22.4819 233.773Z" stroke="white" stroke-width="4" stroke-miterlimit="10"/>
<path d="M181.322 181.11H30.2248C25.9431 181.11 22.4697 177.635 22.4697 173.352V53.585C22.4697 49.3017 25.9431 45.8271 30.2248 45.8271H181.322C185.603 45.8271 189.077 49.3017 189.077 53.585V173.352C189.077 177.635 185.603 181.11 181.322 181.11Z" fill="#1E647C"/>
<path d="M194.331 168.311H43.2336C38.9519 168.311 35.4785 164.836 35.4785 160.553V40.7857C35.4785 36.5025 38.9519 33.0278 43.2336 33.0278H194.331C198.612 33.0278 202.086 36.5025 202.086 40.7857V160.553C202.073 164.836 198.612 168.311 194.331 168.311Z" fill="#5B5B5B"/>
<path d="M194.331 33.0278H43.2336C38.9519 33.0278 35.4785 36.5025 35.4785 40.7857V52.233H202.073V40.7857C202.073 36.5025 198.612 33.0278 194.331 33.0278Z" fill="#145C75"/>
<path d="M43.1579 42.6304C44.4763 42.6304 45.545 41.5613 45.545 40.2424C45.545 38.9236 44.4763 37.8544 43.1579 37.8544C41.8395 37.8544 40.7708 38.9236 40.7708 40.2424C40.7708 41.5613 41.8395 42.6304 43.1579 42.6304Z" fill="#EF4556"/>
<path d="M49.9272 42.6305C51.2456 42.6305 52.3143 41.5614 52.3143 40.2425C52.3143 38.9236 51.2456 37.8545 49.9272 37.8545C48.6088 37.8545 47.54 38.9236 47.54 40.2425C47.54 41.5614 48.6088 42.6305 49.9272 42.6305Z" fill="#EDDD48"/>
<path d="M56.7101 42.6304C58.0285 42.6304 59.0973 41.5613 59.0973 40.2424C59.0973 38.9236 58.0285 37.8544 56.7101 37.8544C55.3918 37.8544 54.323 38.9236 54.323 40.2424C54.323 41.5613 55.3918 42.6304 56.7101 42.6304Z" fill="#49EA8E"/>
<path d="M181.561 36.8941H66.7893V48.6826H181.561V36.8941Z" fill="#5B5B5B"/>
<path d="M174.993 123.899H62.5703V132.806H174.993V123.899Z" fill="#373737"/>
<path d="M126.43 88.407C126.43 81.9632 121.189 76.7197 114.747 76.7197C113.989 76.7197 113.371 77.3388 113.371 78.0969C113.371 78.855 113.989 79.4741 114.747 79.4741C119.673 79.4741 123.69 83.4794 123.69 88.4197C123.69 89.1778 124.308 89.7969 125.066 89.7969C125.824 89.7969 126.43 89.1651 126.43 88.407Z" fill="#F7B521"/>
<path d="M144.05 112.793L132.72 101.459C135.385 97.7948 136.989 93.2841 136.989 88.4197C136.989 76.1511 127.011 66.1694 114.747 66.1694C102.483 66.1694 92.5051 76.1511 92.5051 88.4197C92.5051 100.688 102.483 110.67 114.747 110.67C119.66 110.67 124.195 109.04 127.883 106.336L139.2 117.657C139.869 118.327 140.74 118.668 141.625 118.668C142.509 118.668 143.38 118.327 144.05 117.657C145.388 116.305 145.388 114.132 144.05 112.793ZM99.3634 88.407C99.3634 79.929 106.26 73.0176 114.747 73.0176C123.222 73.0176 130.131 79.9163 130.131 88.407C130.131 96.8978 123.235 103.796 114.747 103.796C106.26 103.796 99.3634 96.8978 99.3634 88.407Z" fill="#F7B521"/>
<path d="M52.3019 258.891C34.2784 258.891 19.665 273.51 19.665 291.54C19.665 309.57 52.3019 343.078 52.3019 343.078C52.3019 343.078 84.9388 309.57 84.9388 291.54C84.9388 273.51 70.3254 258.891 52.3019 258.891ZM52.3019 305.173C44.7868 305.173 38.6864 299.07 38.6864 291.553C38.6864 284.035 44.7868 277.932 52.3019 277.932C59.817 277.932 65.9174 284.035 65.9174 291.553C65.9174 299.07 59.817 305.173 52.3019 305.173Z" fill="white"/>
<path d="M472.742 284.111H480.32" stroke="white" stroke-width="4" stroke-miterlimit="10"/>
<path d="M495.389 284.111H517.984" stroke="white" stroke-width="4" stroke-miterlimit="10" stroke-dasharray="11.93 11.93"/>
<path d="M525.524 284.111H533.103" stroke="white" stroke-width="4" stroke-miterlimit="10"/>
<path d="M301.676 42.2517L299.163 54.1286C297.976 59.7512 292.431 63.3648 286.81 62.1771C281.19 60.9894 277.578 55.4426 278.765 49.82L281.278 37.9432C282.466 32.3206 288.01 28.707 293.631 29.8947C299.251 31.0697 302.864 36.6165 301.676 42.2517ZM282.958 50.7045C282.264 54.0149 284.385 57.2747 287.682 57.9696C290.991 58.6645 294.25 56.5419 294.944 53.2315L297.458 41.3546C298.153 38.0442 296.031 34.7844 292.721 34.0895C289.412 33.3945 286.154 35.5172 285.459 38.8276L282.958 50.7045Z" fill="white"/>
<path d="M303.988 62.2022L301.474 74.0791C300.287 79.7017 294.742 83.3153 289.122 82.1276C283.501 80.9399 279.889 75.3932 281.076 69.7706L283.59 57.8937C284.777 52.2711 290.322 48.6575 295.942 49.8452C301.575 51.0329 305.188 56.5796 303.988 62.2022ZM285.282 70.655C284.587 73.9654 286.709 77.2252 290.018 77.9202C293.328 78.6151 296.586 76.4924 297.281 73.182L299.794 61.3051C300.489 57.9948 298.367 54.7349 295.071 54.04C291.761 53.3451 288.503 55.4678 287.808 58.7781L285.282 70.655Z" fill="#AED7ED"/>
<path d="M293.631 29.8818C288.011 28.6941 282.466 32.2951 281.279 37.9303L278.765 49.8072C278.235 52.3089 278.664 54.7854 279.776 56.8828L280.394 53.9767L283.438 54.6211C282.87 53.446 282.668 52.0815 282.958 50.7043L285.472 38.8274C286.167 35.517 289.438 33.3943 292.734 34.0892C296.044 34.7842 298.165 38.0566 297.471 41.3544L294.957 53.2313C294.616 54.8359 293.669 56.1626 292.419 57.0218L291.345 62.101C295.147 61.2039 298.304 58.1968 299.163 54.1157L301.677 42.2388C302.864 36.6162 299.252 31.0695 293.631 29.8818Z" fill="white"/>
<path d="M323.666 52.3848H314.155V57.4388H323.666V52.3848Z" fill="white"/>
<path d="M267.789 52.3847H258.278V57.4387H267.789V52.3847Z" fill="white"/>
<path d="M312.304 30.0049L305.579 36.7324L309.151 40.306L315.876 33.5786L312.304 30.0049Z" fill="white"/>
<path d="M272.787 69.523L266.062 76.2504L269.635 79.8241L276.36 73.0967L272.787 69.523Z" fill="white"/>
<path d="M309.154 69.5295L305.582 73.1032L312.307 79.8306L315.879 76.2569L309.154 69.5295Z" fill="white"/>
<path d="M269.625 29.9884L266.053 33.5621L272.778 40.2895L276.35 36.7158L269.625 29.9884Z" fill="white"/>
<path d="M579.493 28.3908H575.186V24.0822H570.134V28.3908H565.827V33.4448H570.134V37.7533H575.186V33.4448H579.493V28.3908Z" fill="white"/>
<path d="M350.164 45.7387H345.112V50.0473H340.805V55.1012H345.112V59.4098H350.164V55.1012H354.471V50.0473H350.164V45.7387Z" fill="white"/>
<path d="M108.305 203.992H103.253V208.301H98.9463V213.355H103.253V217.663H108.305V213.355H112.612V208.301H108.305V203.992Z" fill="white"/>
<path d="M226.083 98.3129H221.031V102.609H216.724V107.663H221.031V111.971H226.083V107.663H230.39V102.609H226.083V98.3129Z" fill="white"/>
<path d="M476.253 312.236C471.277 312.236 467.223 316.292 467.223 321.27C467.223 326.248 471.277 330.304 476.253 330.304C481.23 330.304 485.284 326.248 485.284 321.27C485.284 316.292 481.23 312.236 476.253 312.236ZM476.253 325.25C474.056 325.25 472.275 323.469 472.275 321.27C472.275 319.072 474.056 317.29 476.253 317.29C478.451 317.29 480.232 319.072 480.232 321.27C480.232 323.469 478.451 325.25 476.253 325.25Z" fill="white"/>
<path d="M9.03071 6.50702C4.05435 6.50702 0 10.5629 0 15.541C0 20.5192 4.05435 24.5751 9.03071 24.5751C14.0071 24.5751 18.0614 20.5192 18.0614 15.541C18.0614 10.5629 14.0071 6.50702 9.03071 6.50702ZM9.03071 19.5211C6.83303 19.5211 5.05215 17.7395 5.05215 15.541C5.05215 13.3426 6.83303 11.561 9.03071 11.561C11.2284 11.561 13.0093 13.3426 13.0093 15.541C13.0093 17.7395 11.2284 19.5211 9.03071 19.5211Z" fill="white"/>
<path d="M25.0082 57.047H19.9561V64.628H25.0082V57.047Z" fill="white"/>
<path d="M25.0082 79.7016H19.9561V94.7751H25.0082V79.7016Z" fill="white"/>
<path d="M25.0082 109.836H19.9561V117.417H25.0082V109.836Z" fill="white"/>
<path d="M108.305 231.789H103.253V239.37H108.305V231.789Z" fill="white"/>
<path d="M108.305 253.357H103.253V267.344H108.305V253.357Z" fill="white"/>
<path d="M108.305 337.317H103.253V351.304H108.305V337.317Z" fill="white"/>
<path d="M108.305 281.343H103.253V295.33H108.305V281.343Z" fill="white"/>
<path d="M108.305 309.33H103.253V323.317H108.305V309.33Z" fill="white"/>
<path d="M108.305 365.29H103.253V372.871H108.305V365.29Z" fill="white"/>
<path d="M540.1 15.541C543.692 15.541 546.604 12.6278 546.604 9.03402C546.604 5.44029 543.692 2.527 540.1 2.527C536.507 2.527 533.595 5.44029 533.595 9.03402C533.595 12.6278 536.507 15.541 540.1 15.541Z" stroke="white" stroke-width="4" stroke-miterlimit="10"/>
</g>
<defs>
<clipPath id="clip0_111_2104">
<rect width="579.494" height="420" fill="white"/>
</clipPath>
</defs>
</svg>

