<svg width="52" height="52" viewBox="0 0 52 52" fill="none" xmlns="http://www.w3.org/2000/svg">
<path d="M43.4137 20.7139L39.4776 17.4557C38.5382 16.679 37.3326 16.25 36.0858 16.25H29.4346V14.625H38.0213C39.919 14.625 41.456 13.1706 41.456 11.375V6.5C41.456 4.70437 39.919 3.25 38.0213 3.25H29.4346V1.625C29.4346 0.728 28.6652 0 27.7172 0H24.2825C23.3346 0 22.5652 0.728 22.5652 1.625V3.25H15.9139C14.6672 3.25 13.4616 3.679 12.5222 4.45575L8.58604 7.71388C7.80465 8.36063 7.80465 9.51275 8.58604 10.1595L12.5222 13.4176C13.4616 14.196 14.6672 14.625 15.9139 14.625H22.5652V16.25H13.9785C12.0808 16.25 10.5438 17.7044 10.5438 19.5V24.375C10.5438 26.1706 12.0808 27.625 13.9785 27.625H22.5652V50.375C22.5652 51.272 23.3346 52 24.2825 52H27.7172C28.6652 52 29.4346 51.272 29.4346 50.375V27.625H36.0858C37.3344 27.625 38.5399 27.196 39.4793 26.4192L43.4155 23.1611C44.1951 22.5128 44.1951 21.3622 43.4137 20.7139ZM24.2825 1.625H27.7172V3.25H24.2825V1.625ZM13.6522 12.1956L9.71777 8.9375L13.6522 5.67937C14.279 5.161 15.0827 4.875 15.9139 4.875H38.0213C38.9675 4.875 39.7386 5.60463 39.7386 6.5V11.375C39.7386 12.2704 38.9675 13 38.0213 13H15.9139C15.0827 13 14.279 12.714 13.6522 12.1956ZM24.2825 14.625H27.7172V16.25H24.2825V14.625ZM27.7172 50.375H24.2825V27.625H27.7172V50.375ZM38.3476 25.1956C37.7208 25.714 36.917 26 36.0858 26H13.9785C13.0322 26 12.2612 25.2704 12.2612 24.375V19.5C12.2612 18.6046 13.0322 17.875 13.9785 17.875H36.0858C36.9188 17.875 37.7208 18.161 38.3476 18.6794L42.2837 21.9375L38.3476 25.1956ZM32.8693 21.9375C32.8693 22.386 32.4846 22.75 32.0106 22.75H19.9892C19.5152 22.75 19.1305 22.386 19.1305 21.9375C19.1305 21.489 19.5152 21.125 19.9892 21.125H32.0106C32.4846 21.125 32.8693 21.489 32.8693 21.9375ZM32.8693 8.9375C32.8693 9.386 32.4846 9.75 32.0106 9.75H19.9892C19.5152 9.75 19.1305 9.386 19.1305 8.9375C19.1305 8.489 19.5152 8.125 19.9892 8.125H32.0106C32.4846 8.125 32.8693 8.489 32.8693 8.9375Z" fill="white"/>
</svg>
