<svg width="40" height="40" viewBox="0 0 40 40" fill="none" xmlns="http://www.w3.org/2000/svg">
<path d="M14.0958 12.1247C13.665 11.6202 12.9554 11.6202 12.5499 12.1878L7.30413 19.0606C6.89862 19.5966 6.89862 20.4162 7.30413 20.9207L12.5499 27.825C12.7527 28.1087 13.0567 28.2663 13.3355 28.2663C13.6142 28.2663 13.8677 28.1403 14.0958 27.8881C14.5265 27.3836 14.5518 26.5009 14.1465 25.965L9.58495 20.0064L14.1212 14.0479C14.5519 13.4803 14.5267 12.6293 14.0959 12.1248L14.0958 12.1247Z" fill="white"/>
<path d="M32.6956 19.0611L27.4499 12.1568C27.0444 11.6209 26.3348 11.5894 25.904 12.0937C25.4732 12.5982 25.4479 13.4809 25.8533 14.0168L30.4148 20.0069L25.8786 25.9654C25.4731 26.5013 25.4731 27.384 25.9294 27.8885C26.1321 28.1408 26.4109 28.2668 26.6897 28.2668C26.9684 28.2668 27.2725 28.1091 27.4752 27.8254L32.6956 20.9526C33.101 20.4167 33.101 19.5969 32.6956 19.0609V19.0611Z" fill="white"/>
<path d="M22.0521 10.0438C21.4693 9.85467 20.861 10.296 20.709 11.0211L17.1612 28.2976C17.0092 29.0227 17.3639 29.7794 17.9467 29.9686C18.048 30 18.1242 30 18.2255 30C18.707 30 19.1631 29.5901 19.2899 28.991L22.8376 11.7145C22.9897 10.9896 22.6349 10.233 22.0521 10.0438Z" fill="white"/>
</svg>
