<svg width="52" height="52" viewBox="0 0 52 52" fill="none" xmlns="http://www.w3.org/2000/svg">
<path d="M45.625 8H6.49038C5.83012 8.00073 5.1971 8.26334 4.73022 8.73022C4.26334 9.1971 4.00073 9.83012 4 10.4904V36.8173C4.00073 37.4776 4.26334 38.1106 4.73022 38.5775C5.1971 39.0443 5.83012 39.307 6.49038 39.3077H20.9204L20.4935 41.4423H17.5192C17.3305 41.4423 17.1495 41.5173 17.0161 41.6507C16.8827 41.7841 16.8077 41.9651 16.8077 42.1538V44.2885C16.8077 44.4772 16.8827 44.6582 17.0161 44.7916C17.1495 44.925 17.3305 45 17.5192 45H34.5962C34.7849 45 34.9659 44.925 35.0993 44.7916C35.2327 44.6582 35.3077 44.4772 35.3077 44.2885V42.1538C35.3077 41.9651 35.2327 41.7841 35.0993 41.6507C34.9659 41.5173 34.7849 41.4423 34.5962 41.4423H31.6219L31.195 39.3077H45.625C46.2853 39.307 46.9183 39.0443 47.3852 38.5775C47.852 38.1106 48.1147 37.4776 48.1154 36.8173V10.4904C48.1147 9.83012 47.852 9.1971 47.3852 8.73022C46.9183 8.26334 46.2853 8.00073 45.625 8ZM33.8846 42.8654V43.5769H18.2308V42.8654H33.8846ZM21.945 41.4423L22.3719 39.3077H29.7435L30.1704 41.4423H21.945ZM46.6923 36.8173C46.6921 37.1003 46.5796 37.3716 46.3794 37.5717C46.1793 37.7719 45.908 37.8844 45.625 37.8846H6.49038C6.20739 37.8844 5.93605 37.7719 5.73594 37.5717C5.53584 37.3716 5.42331 37.1003 5.42308 36.8173V35.0385H46.6923V36.8173ZM46.6923 33.6154H5.42308V10.4904C5.42331 10.2074 5.53584 9.93605 5.73594 9.73594C5.93605 9.53584 6.20739 9.42331 6.49038 9.42308H45.625C45.908 9.42331 46.1793 9.53584 46.3794 9.73594C46.5796 9.93605 46.6921 10.2074 46.6923 10.4904V33.6154Z" fill="#E7E7E7"/>
<path d="M26.7694 35.75H25.3463C25.1576 35.75 24.9766 35.825 24.8432 35.9584C24.7097 36.0918 24.6348 36.2728 24.6348 36.4615C24.6348 36.6503 24.7097 36.8312 24.8432 36.9647C24.9766 37.0981 25.1576 37.1731 25.3463 37.1731H26.7694C26.9581 37.1731 27.1391 37.0981 27.2725 36.9647C27.406 36.8312 27.4809 36.6503 27.4809 36.4615C27.4809 36.2728 27.406 36.0918 27.2725 35.9584C27.1391 35.825 26.9581 35.75 26.7694 35.75Z" fill="#E7E7E7"/>
</svg>
