<svg width="40" height="40" viewBox="0 0 40 40" fill="none" xmlns="http://www.w3.org/2000/svg">
<path d="M8.49998 31C6.57058 31 5 32.5703 5 34.5C5 34.7764 5.22345 34.9999 5.49991 34.9999H11.4996C11.776 34.9999 11.9995 34.7764 11.9995 34.5C11.9997 32.5703 10.4291 31 8.49973 31H8.49998ZM6.05059 33.9998C6.24976 33.0223 7.02256 32.2544 8.00006 32.0548V32.9998H9.00006V32.0548C9.97757 32.2548 10.7504 33.0221 10.9495 33.9998H6.05059Z" fill="white"/>
<path d="M34.4992 26.4994H33.6222C33.5948 26.43 33.5661 26.3609 33.5352 26.2914L34.1556 25.6709C34.3513 25.4752 34.3513 25.1593 34.1556 24.9641L32.0348 22.8432C31.9312 22.7397 31.7948 22.6948 31.6594 22.7012C32.4519 22.2806 32.9993 21.4572 32.9993 20.4998V7.49998C32.9993 6.12148 31.8778 5 30.4993 5H7.49998C6.12148 5 5 6.12148 5 7.49998V20.4998C5 21.8783 6.12148 22.9998 7.49998 22.9998H14.0248L12.1358 26.4998H11.2499C10.285 26.4998 9.50004 27.2848 9.50004 28.2497C9.50004 29.2146 10.285 29.9995 11.2499 29.9995H21.9995C21.9995 30.276 22.2229 30.4994 22.4994 30.4994H23.3764C23.4038 30.5688 23.4325 30.6379 23.4634 30.7074L22.8429 31.3279C22.6473 31.5236 22.6473 31.8395 22.8429 32.0347L24.9638 34.1556C25.1594 34.3512 25.4754 34.3512 25.6706 34.1556L26.2911 33.5351C26.3604 33.5662 26.4295 33.5947 26.4991 33.6221V34.4992C26.4991 34.7756 26.7225 34.9991 26.999 34.9991H29.9988C30.2753 34.9991 30.4987 34.7756 30.4987 34.4992V33.6221C30.5681 33.5947 30.6372 33.566 30.7067 33.5351L31.3272 34.1556C31.5228 34.3512 31.8388 34.3512 32.034 34.1556L34.1549 32.0347C34.3505 31.8391 34.3505 31.5231 34.1549 31.3279L33.5344 30.7074C33.5655 30.6381 33.594 30.569 33.6214 30.4994H34.4984C34.7749 30.4994 34.9983 30.276 34.9983 29.9995L34.999 26.9995C34.999 26.723 34.7756 26.4996 34.4991 26.4996L34.4992 26.4994ZM30.4993 22.9994C30.7888 22.9994 31.0622 22.9404 31.3214 22.8495L30.7073 23.4635C30.638 23.4324 30.5689 23.4039 30.4993 23.3765L30.4993 22.9994ZM7.50002 5.99974H30.4993C31.3262 5.99974 31.9992 6.67274 31.9992 7.49966V17.9994H6.0001V7.49966C6.0001 6.67274 6.6731 5.99974 7.50002 5.99974ZM6.0001 20.4992V18.9993H31.9992V20.4992C31.9992 21.3262 31.3262 21.9991 30.4993 21.9991H7.50002C6.6731 21.9991 6.0001 21.3264 6.0001 20.4992ZM24.3761 23.4302L24.0827 22.9992H24.8071L24.3761 23.4302ZM26.4994 22.9992V23.3761C26.43 23.4035 26.3609 23.4322 26.2914 23.4631L25.8272 22.999L26.4994 22.9992ZM11.2498 28.9989C10.8364 28.9989 10.4997 28.6624 10.4997 28.2488C10.4997 27.8354 10.8362 27.4987 11.2498 27.4987L21.9988 27.4989V28.9988L11.2498 28.9989ZM13.2717 26.4991L15.1607 22.9992H22.8726L23.6564 24.1496L22.8429 24.963C22.6473 25.1587 22.6473 25.4746 22.8429 25.6698L23.4634 26.2903C23.4323 26.3597 23.4038 26.4288 23.3764 26.4983L22.4991 26.4985H13.2718L13.2717 26.4991ZM33.9992 29.499H33.2697C33.0511 29.499 32.8588 29.6405 32.7928 29.8485C32.7168 30.0901 32.6141 30.336 32.4879 30.578C32.3869 30.7719 32.4234 31.0086 32.5777 31.163L33.0957 31.681L31.6817 33.095L31.1637 32.577C31.0087 32.4224 30.7726 32.3867 30.5787 32.4871C30.3367 32.6137 30.0908 32.7161 29.8492 32.7921C29.6408 32.8585 29.4992 33.0511 29.4992 33.2695V33.999H27.4994V33.2695C27.4994 33.0509 27.3579 32.8585 27.1499 32.7925C26.9083 32.7166 26.6623 32.6139 26.4203 32.4876C26.2265 32.3871 25.9898 32.4231 25.8354 32.5775L25.3174 33.0955L23.9033 31.6814L24.4214 31.1634C24.5759 31.0088 24.6123 30.7724 24.5112 30.5785C24.3847 30.3365 24.2822 30.0905 24.2063 29.8489C24.1398 29.6405 23.9473 29.499 23.7289 29.499H22.9994V27.4991H23.7289C23.9475 27.4991 24.1398 27.3576 24.2058 27.1496C24.2818 26.908 24.3845 26.6621 24.5108 26.4201C24.6117 26.2262 24.5752 25.9895 24.4209 25.8351L23.9029 25.3171L25.317 23.9031L25.835 24.4211C25.9895 24.5761 26.226 24.6121 26.4199 24.511C26.6619 24.3844 26.9079 24.282 27.1494 24.206C27.3579 24.1396 27.4994 23.947 27.4994 23.7286V22.9991H29.4992V23.7286C29.4992 23.9472 29.6408 24.1396 29.8488 24.2056C30.0903 24.2815 30.3363 24.3842 30.5783 24.5105C30.7722 24.6114 31.0082 24.5754 31.1632 24.4206L31.6812 23.9026L33.0953 25.3167L32.5773 25.8347C32.4227 25.9893 32.3863 26.2257 32.4874 26.4196C32.6139 26.6616 32.7164 26.9076 32.7923 27.1492C32.8588 27.3576 33.0513 27.4991 33.2697 27.4991H33.9992V29.499Z" fill="white"/>
<path d="M28.4998 25.5C26.8453 25.5 25.5 26.8456 25.5 28.4998C25.5 30.1544 26.8456 31.4997 28.4998 31.4997C30.1544 31.4997 31.4997 30.1541 31.4997 28.4998C31.4997 26.8453 30.1541 25.5 28.4998 25.5ZM28.4998 30.4999C27.3969 30.4999 26.5 29.6028 26.5 28.5001C26.5 27.3971 27.3971 26.5002 28.4998 26.5002C29.6028 26.5002 30.4997 27.3974 30.4997 28.5001C30.4997 29.6028 29.6028 30.4999 28.4998 30.4999Z" fill="white"/>
<path d="M14.1467 15.8528L14.8535 15.146L11.7073 11.9995L14.8535 8.85329L14.1467 8.14648L10.6467 11.6462C10.4511 11.8419 10.4511 12.1578 10.6467 12.353L14.1467 15.8528Z" fill="white"/>
<path d="M22.3543 15.853L25.8542 12.353C26.0499 12.1574 26.0499 11.8414 25.8542 11.6462L22.3543 8.14648L21.6475 8.85329L24.7937 11.9995L21.6475 15.1458L22.3543 15.853Z" fill="white"/>
<path d="M15.5527 15.7769L20.0527 6.77734L20.947 7.22448L16.4472 16.224L15.5527 15.7769Z" fill="white"/>
<path d="M24.5 15H25.5V16H24.5V15Z" fill="white"/>
<path d="M26.5 15H27.5V16H26.5V15Z" fill="white"/>
<path d="M28.5 15H29.5V16H28.5V15Z" fill="white"/>
</svg>
