<svg width="40" height="40" viewBox="0 0 40 40" fill="none" xmlns="http://www.w3.org/2000/svg">
<path d="M31.6973 8H8.29925C7.02925 8 6 9.14662 6 10.5535V29.4093C6 30.8366 7.04759 32 8.33273 32H31.6673C32.9524 32 34 30.8366 34 29.4093V10.5535C33.997 9.14645 32.9645 8 31.6975 8H31.6973ZM33.1227 29.4131C33.1227 30.306 32.4681 31.0331 31.6641 31.0331H8.33263C7.52863 31.0331 6.87395 30.306 6.87395 29.4131V13.1111H33.1228L33.1227 29.4131ZM6.87384 12.1403V10.5575C6.87384 9.68499 7.51339 8.97472 8.29905 8.97472H31.6971C32.4828 8.97472 33.1223 9.68499 33.1223 10.5575V12.1403H6.87384ZM10.769 10.5573C10.769 10.8245 10.5741 11.0443 10.3305 11.0443H8.39673C8.15617 11.0443 7.95819 10.8278 7.95819 10.5573C7.95819 10.2868 8.15314 10.0703 8.39673 10.0703H10.3305C10.5711 10.0703 10.769 10.2868 10.769 10.5573ZM14.5088 10.5573C14.5088 10.8245 14.3139 11.0443 14.0703 11.0443H12.1365C11.896 11.0443 11.698 10.8278 11.698 10.5573C11.698 10.2868 11.8929 10.0703 12.1365 10.0703H14.0703C14.3141 10.0703 14.5088 10.2868 14.5088 10.5573ZM32.0353 10.5573C32.0353 10.8245 31.8404 11.0443 31.5968 11.0443H15.8791C15.6385 11.0443 15.4405 10.8278 15.4405 10.5573C15.4405 10.2868 15.6355 10.0703 15.8791 10.0703H31.5999C31.8406 10.0703 32.0354 10.2868 32.0354 10.5573H32.0353ZM19.9966 29.3557C23.6147 29.3557 26.5564 26.0886 26.5564 22.0706C26.5564 18.0525 23.6146 14.7854 19.9966 14.7854C16.3786 14.7854 13.4368 18.0525 13.4368 22.0706C13.44 26.0887 16.3819 29.3557 19.9966 29.3557ZM15.4255 25.8078H16.9636C17.1981 26.6397 17.5117 27.3567 17.8832 27.9285C16.8994 27.4887 16.0498 26.7482 15.4256 25.8078H15.4255ZM17.3532 22.0738C17.3532 21.1335 17.4386 20.2677 17.5847 19.4999H19.5582V24.8371H17.6244C17.4567 24.0222 17.3532 23.0954 17.3532 22.0738L17.3532 22.0738ZM22.6431 22.0738C22.6431 23.0951 22.5395 24.0219 22.369 24.8371H20.4352V19.5001H22.4087C22.5579 20.2677 22.643 21.1302 22.643 22.0737L22.6431 22.0738ZM20.4353 28.2837V25.808H22.1164C21.696 27.1236 21.0748 28.0029 20.4353 28.2837ZM20.4353 18.5296V15.8611C21.1053 16.1554 21.7539 17.1057 22.1743 18.5296H20.4353ZM19.5612 15.8609V18.5294H17.8222C18.2394 17.1055 18.8882 16.1552 19.5612 15.8609ZM19.5612 25.8078V28.2835C18.9217 28.0026 18.3005 27.1234 17.8801 25.8078H19.5612ZM22.1071 27.9285C22.4786 27.3569 22.7922 26.64 23.0267 25.8078H24.5648C23.9436 26.7482 23.097 27.4887 22.1071 27.9285H22.1071ZM25.1007 24.8371H23.2612C23.4257 23.988 23.5171 23.0579 23.5171 22.0738C23.5171 21.1607 23.435 20.298 23.2947 19.4999H25.1829C25.4995 20.2879 25.6824 21.1571 25.6824 22.0738C25.6824 23.0648 25.4692 24.0018 25.1007 24.8371ZM24.6987 18.5296H23.0876C22.8471 17.6165 22.512 16.8318 22.11 16.2195C23.1639 16.6861 24.0652 17.4979 24.6987 18.5296H24.6987ZM17.8863 16.2162C17.4843 16.8316 17.1523 17.6129 16.9087 18.5296H15.2976C15.9311 17.498 16.8294 16.6861 17.8863 16.2162H17.8863ZM14.8133 19.5003H16.7015C16.5614 20.2984 16.4791 21.1609 16.4791 22.0742C16.4791 23.0583 16.5705 23.9884 16.735 24.8375H14.8955C14.527 24.0021 14.3139 23.0653 14.3139 22.0742C14.3141 21.1575 14.4937 20.2883 14.8133 19.5003Z" fill="white"/>
</svg>
