<svg width="40" height="40" viewBox="0 0 40 40" fill="none" xmlns="http://www.w3.org/2000/svg">
<path d="M34.4018 34.4308H33.0898V15.3807C33.0898 14.494 32.3684 13.7727 31.4818 13.7727H28.5492C27.6625 13.7727 26.9412 14.4941 26.9412 15.3807V34.4308H23.6097V24.0119C23.6097 23.1252 22.8884 22.4038 22.0017 22.4038H19.0691C18.1824 22.4038 17.4611 23.1253 17.4611 24.0119V34.4308H14.1297V29.0349C14.1297 28.1482 13.4083 27.4269 12.5216 27.4269H9.589C8.70231 27.4269 7.98096 28.1483 7.98096 29.0349V34.4308H6.59819C6.26781 34.4308 6 34.6986 6 35.029C6 35.3594 6.26781 35.6272 6.59819 35.6272H34.4018C34.7322 35.6272 35 35.3594 35 35.029C35 34.6986 34.7322 34.4308 34.4018 34.4308ZM12.9332 34.4308H9.17727V29.0349C9.1774 28.9258 9.22081 28.8211 9.29799 28.744C9.37516 28.6668 9.4798 28.6234 9.58894 28.6233H12.5215C12.6306 28.6234 12.7353 28.6668 12.8125 28.744C12.8896 28.8211 12.933 28.9258 12.9332 29.0349V34.4308ZM22.4133 34.4308H18.6574V24.0119C18.6575 23.9027 18.7009 23.7981 18.7781 23.7209C18.8553 23.6438 18.9599 23.6003 19.0691 23.6002H22.0016C22.1108 23.6003 22.2154 23.6438 22.2926 23.7209C22.3698 23.7981 22.4132 23.9027 22.4133 24.0119V34.4308ZM31.8934 34.4308H28.1375V15.3807C28.1377 15.2716 28.1811 15.1669 28.2583 15.0897C28.3354 15.0126 28.4401 14.9692 28.5492 14.969H31.4818C31.5909 14.9692 31.6955 15.0126 31.7727 15.0897C31.8499 15.1669 31.8933 15.2716 31.8934 15.3807V34.4308ZM33.0884 5.62905C33.0929 5.54544 33.0798 5.4618 33.0499 5.38359C33.02 5.30538 32.9739 5.23436 32.9147 5.17515C32.8555 5.11593 32.7844 5.06986 32.7062 5.03993C32.628 5.01 32.5444 4.99688 32.4608 5.00144C32.4511 5.00102 32.4416 5 32.4318 5H28.8128C28.4824 5 28.2146 5.26781 28.2146 5.59819C28.2146 5.92857 28.4824 6.19637 28.8128 6.19637H31.0474L25.1339 12.1099L22.9039 9.87989C22.7917 9.76773 22.6395 9.70472 22.4809 9.70472C22.3223 9.70472 22.1701 9.76773 22.0579 9.87989L11.3044 20.6335C11.0708 20.8671 11.0708 21.2459 11.3044 21.4795C11.4212 21.5962 11.5743 21.6546 11.7273 21.6546C11.8804 21.6546 12.0336 21.5962 12.1503 21.4794L22.4809 11.1488L24.7109 13.3788C24.9445 13.6124 25.3233 13.6124 25.557 13.3788L31.8934 7.04239V9.06486C31.8934 9.39524 32.1612 9.66305 32.4916 9.66305C32.822 9.66305 33.0898 9.39524 33.0898 9.06486V5.65801C33.0898 5.64826 33.0888 5.63874 33.0884 5.62905Z" fill="white"/>
<path d="M9.71245 23.7413C10.0428 23.7413 10.3106 23.4735 10.3106 23.1431C10.3106 22.8127 10.0428 22.5449 9.71245 22.5449C9.38208 22.5449 9.11426 22.8127 9.11426 23.1431C9.11426 23.4735 9.38208 23.7413 9.71245 23.7413Z" fill="white"/>
</svg>
