<svg width="49" height="48" viewBox="0 0 49 48" fill="none" xmlns="http://www.w3.org/2000/svg">
<path d="M45.4708 23.0443C45.4708 20.4442 43.3556 18.3289 40.7554 18.3289H39.0781V17.1085C39.0781 14.5083 36.9629 12.3931 34.3627 12.3931L25.3798 12.3928V6.87268C25.3798 6.39085 24.989 6 24.5071 6C24.0253 6 23.6345 6.39081 23.6345 6.87268V12.3928H14.6516C12.0514 12.3928 9.93617 14.508 9.93617 17.1082V18.3286L8.7154 18.3289C6.11523 18.3289 4 20.4442 4 23.0443V32.995C4 35.0653 5.68448 36.7498 7.7548 36.7498H9.93609V39.2452C9.93609 41.3155 11.6206 43 13.6909 43H35.3235C37.3938 43 39.0783 41.3155 39.0783 39.2452V36.7498H41.7161C43.7865 36.7498 45.4709 35.0653 45.4709 32.995L45.4708 23.0443ZM7.75448 35.0048C6.64652 35.0048 5.74488 34.1034 5.74488 32.9952V23.0445C5.74488 21.4068 7.07719 20.0744 8.715 20.0744H9.93545V35.0044L7.75448 35.0048ZM30.5312 35.6299H18.483V33.9087C18.483 32.8007 19.3844 31.8991 20.4926 31.8991H28.5221C29.6301 31.8991 30.5317 32.8004 30.5317 33.9087L30.5312 35.6299ZM18.483 37.3752H30.5312L30.5315 41.255H18.4833L18.483 37.3752ZM37.3328 39.2454C37.3328 40.3534 36.4315 41.255 35.3232 41.255H32.2762V33.9087C32.2762 31.8384 30.5917 30.1539 28.5214 30.1539H20.4919C18.4216 30.1539 16.7371 31.8384 16.7371 33.9087L16.7374 41.255H13.6904C12.5824 41.255 11.6808 40.3537 11.6808 39.2454L11.6811 17.1086C11.6811 15.4708 13.0134 14.1384 14.6512 14.1384H34.3627C36.0004 14.1384 37.3328 15.4707 37.3328 17.1086L37.3331 39.2454H37.3328ZM43.7255 32.9952C43.7255 34.1031 42.8242 35.0048 41.7159 35.0048H39.0781L39.0784 20.0748H40.7557C42.3934 20.0748 43.7258 21.4071 43.7258 23.0449V32.9956L43.7255 32.9952Z" fill="white"/>
<path d="M19.2559 18.9531C17.2641 18.9531 15.6436 20.5737 15.6436 22.5655C15.6436 24.5573 17.2641 26.1779 19.2559 26.1779C21.2477 26.1779 22.8683 24.5573 22.8683 22.5655C22.868 20.5737 21.2477 18.9531 19.2559 18.9531ZM19.2559 24.4327C18.2266 24.4327 17.3888 23.5953 17.3888 22.5656C17.3888 21.5362 18.2266 20.6985 19.2559 20.6985C20.2853 20.6985 21.123 21.5359 21.123 22.5656C21.1227 23.5953 20.2853 24.4327 19.2559 24.4327Z" fill="white"/>
<path d="M30.2149 18.9531C28.2231 18.9531 26.6025 20.5737 26.6025 22.5655C26.6025 24.5573 28.2231 26.1779 30.2149 26.1779C32.2067 26.1779 33.8273 24.5573 33.8273 22.5655C33.8273 20.5737 32.207 18.9531 30.2149 18.9531ZM30.2149 24.4327C29.1855 24.4327 28.3478 23.5953 28.3478 22.5656C28.3478 21.5362 29.1852 20.6985 30.2149 20.6985C31.2443 20.6985 32.082 21.5359 32.082 22.5656C32.0823 23.5953 31.2446 24.4327 30.2149 24.4327Z" fill="white"/>
</svg>
