<svg width="40" height="40" viewBox="0 0 40 40" fill="none" xmlns="http://www.w3.org/2000/svg">
<path d="M21.0467 28.5829C21.0205 28.5829 20.9954 28.59 20.9692 28.5912L19.536 23.0011C20.0403 22.7773 20.4732 22.4338 20.8213 22.0157L21.3949 22.3438C21.4879 22.3971 21.5904 22.422 21.6918 22.422C21.898 22.422 22.0983 22.3154 22.2092 22.1247C22.3738 21.8416 22.2748 21.4792 21.9886 21.3158L21.4163 20.9889C21.5546 20.6123 21.6429 20.2108 21.6429 19.7868C21.6429 18.9981 21.371 18.278 20.9298 17.6894L27.2565 11.0299C27.675 11.2904 28.1662 11.4479 28.6956 11.4479C30.1992 11.4479 31.4213 10.234 31.4213 8.74055C31.4213 7.2471 30.1992 6.03316 28.6956 6.03316C27.1921 6.03316 25.9699 7.2471 25.9699 8.74055C25.9699 9.27823 26.1333 9.77802 26.4063 10.1996L20.0737 16.8639C19.5086 16.4849 18.8277 16.2634 18.0968 16.2634C17.7022 16.2634 17.3289 16.3428 16.9736 16.4612L16.6541 15.8821C16.4967 15.5955 16.133 15.4901 15.8445 15.6464C15.5559 15.8027 15.4498 16.1628 15.6072 16.4494L15.9232 17.025C15.0945 17.6704 14.5508 18.6617 14.5508 19.7868C14.5508 20.2061 14.6378 20.604 14.7737 20.9771L13.1414 21.9589C13.1271 21.9672 13.1188 21.9814 13.1056 21.9909C13.0913 21.998 13.0746 21.998 13.0603 22.0074L11.4733 22.9632C11.1037 22.6115 10.6065 22.3935 10.0556 22.3935C8.92288 22.3935 8 23.309 8 24.4353C8 25.5616 8.92169 26.4771 10.0556 26.4771C11.1895 26.4771 12.1112 25.5616 12.1112 24.4353C12.1112 24.2837 12.0921 24.1381 12.06 23.9959L13.6792 23.0224C13.6959 23.0129 13.7054 22.9964 13.7197 22.9845C13.7328 22.9786 13.7471 22.981 13.7602 22.9739L15.3675 22.0086C16.0186 22.7974 16.9939 23.3126 18.098 23.3126C18.1946 23.3126 18.2852 23.2913 18.3794 23.2842L19.8174 28.8908C18.935 29.3396 18.3234 30.2421 18.3234 31.2926C18.3234 32.7861 19.5455 34 21.0491 34C22.5526 34 23.7748 32.7861 23.7748 31.2926C23.7748 29.7992 22.5502 28.5829 21.0467 28.5829ZM10.0556 25.2916C9.57986 25.2916 9.19235 24.9079 9.19235 24.4341C9.19235 23.9604 9.57986 23.5767 10.0556 23.5767C10.5314 23.5767 10.9189 23.9604 10.9189 24.4341C10.9189 24.9079 10.5314 25.2916 10.0556 25.2916ZM28.6956 7.21749C29.541 7.21749 30.229 7.90085 30.229 8.74055C30.229 9.58024 29.541 10.2636 28.6956 10.2636C28.2914 10.2636 27.9301 10.1002 27.6559 9.84671C27.6404 9.82895 27.6332 9.80645 27.6153 9.78987C27.6034 9.77921 27.5891 9.77565 27.5772 9.76618C27.3244 9.49497 27.1623 9.13848 27.1623 8.74173C27.1623 7.90204 27.8502 7.21749 28.6956 7.21749ZM15.7443 19.7868C15.7443 18.4983 16.7995 17.4489 18.098 17.4489C19.3965 17.4489 20.4517 18.4983 20.4517 19.7868C20.4517 21.0766 19.3953 22.1259 18.098 22.1259C16.8007 22.1259 15.7443 21.0766 15.7443 19.7868ZM21.0467 32.8133C20.2013 32.8133 19.5133 32.1299 19.5133 31.2902C19.5133 30.4506 20.2013 29.7672 21.0467 29.7672C21.8909 29.7672 22.5801 30.4506 22.5801 31.2902C22.5801 32.1299 21.8921 32.8133 21.0467 32.8133ZM30.9432 25.0299C30.3876 25.0299 29.8844 25.2525 29.5148 25.609L28.9317 25.2762C28.6491 25.1128 28.2819 25.2087 28.1173 25.4953C27.9528 25.7784 28.0517 26.1408 28.3379 26.3042L28.9353 26.6453C28.9055 26.7839 28.8888 26.926 28.8888 27.0728C28.8888 28.198 29.8105 29.1146 30.9444 29.1146C32.0783 29.1146 33 28.1991 33 27.0728C33 25.9465 32.0759 25.0299 30.9432 25.0299ZM30.9432 27.9279C30.4674 27.9279 30.0799 27.5442 30.0799 27.0705C30.0799 26.5967 30.4663 26.213 30.9432 26.213C31.4201 26.213 31.8065 26.5967 31.8065 27.0705C31.8065 27.5442 31.4189 27.9279 30.9432 27.9279ZM11.7523 10.0836C11.8668 10.0836 11.9777 10.0682 12.0862 10.0504L12.4272 10.6698C12.5357 10.8664 12.7396 10.9778 12.9506 10.9778C13.0472 10.9778 13.145 10.9541 13.2356 10.9055C13.5242 10.7492 13.6315 10.3891 13.4729 10.1013L13.1557 9.52457C13.554 9.15151 13.8067 8.62685 13.8067 8.04179C13.8067 6.91667 12.8851 6 11.7511 6C10.6172 6 9.69671 6.91667 9.69671 8.04297C9.69671 9.16928 10.6184 10.0836 11.7523 10.0836ZM11.7523 7.18552C12.2281 7.18552 12.6156 7.57043 12.6156 8.04297C12.6156 8.39235 12.4022 8.6908 12.1005 8.82463C12.0969 8.82582 12.0945 8.82463 12.0921 8.82582C12.0898 8.82819 12.0874 8.83056 12.085 8.83292C11.9824 8.87556 11.8704 8.89925 11.7523 8.89925C11.2766 8.89925 10.8891 8.51434 10.8891 8.04179C10.8891 7.56924 11.2766 7.18552 11.7523 7.18552ZM13.4872 12.5956L14.5472 14.5225C14.6557 14.7191 14.8608 14.8304 15.0706 14.8304C15.1672 14.8304 15.265 14.8067 15.3556 14.7581C15.6453 14.6018 15.7515 14.2418 15.5941 13.9552L14.5341 12.0283C14.3755 11.7416 14.0142 11.6362 13.7245 11.7926C13.4359 11.9501 13.3286 12.3089 13.4872 12.5956ZM26.6174 23.9557L24.3042 22.6363C24.0216 22.4741 23.6556 22.5688 23.4898 22.8554C23.3253 23.1385 23.4242 23.5009 23.7104 23.6643L26.0236 24.9837C26.1166 25.037 26.2191 25.0618 26.3205 25.0618C26.5267 25.0618 26.727 24.9552 26.8379 24.7646C27.0013 24.4803 26.9023 24.1179 26.6174 23.9557Z" fill="white" stroke="white" stroke-width="0.2"/>
</svg>
