<svg width="40" height="40" viewBox="0 0 40 40" fill="none" xmlns="http://www.w3.org/2000/svg">
<path d="M31.7915 24.4942C30.8694 24.7193 30.5622 23.1784 31.4534 22.9187C32.6214 22.5898 33.5281 21.4471 33.5742 20.0274C33.6358 18.2615 32.3755 16.8073 30.8233 16.8073C30.2393 16.7208 29.6401 17.344 29.1328 16.8938C28.6103 16.3571 29.0713 15.5089 28.9791 14.799C28.7638 4.58439 15.8242 3.66681 14.4564 13.743C14.4103 14.3316 13.7341 14.6606 13.3192 14.2797C12.5663 13.6392 11.6748 13.3102 10.7375 13.3102C8.35557 13.3102 6.43458 15.4916 6.43458 18.1576C6.43458 20.8239 8.37099 23.0051 10.7375 23.0051H20.4039C21.326 23.0051 21.326 24.598 20.4039 24.598H10.8451C7.70995 24.598 5.08209 21.8279 5.00525 18.2961C4.82066 13.587 9.53868 10.2284 13.2425 12.3753C14.2107 8.099 17.6685 5 21.6948 5C26.505 5 30.4084 9.39752 30.4084 14.8164C30.4391 14.9548 30.3623 15.1627 30.4238 15.2492C32.6675 14.9896 34.7115 16.8247 34.9727 19.3523C35.2338 21.8106 33.7893 23.9747 31.7915 24.4942Z" fill="white"/>
<path d="M18.7134 30.5874C18.8977 30.5874 19.0821 30.5009 19.2204 30.3449L23.7541 25.2375C23.8923 25.0817 23.9693 24.8911 23.9693 24.6663L23.9691 21.602C23.9691 20.5631 22.5551 20.546 22.5551 21.602V24.3547L18.4366 28.9945H11.1983C10.8909 27.8344 9.93809 27.0036 8.81639 27.0036C5.54297 27.09 5.54297 32.509 8.81639 32.5957C9.9383 32.5957 10.8911 31.7474 11.1983 30.6048L18.7134 30.5874ZM8.81643 30.9857C7.41795 30.9857 7.41795 28.5965 8.81643 28.5791C10.1995 28.5965 10.1995 30.9857 8.81643 30.9857Z" fill="white"/>
<path d="M29.5018 29.5139V21.602C29.5018 20.5631 28.0878 20.546 28.0878 21.602V29.5139C25.3984 30.4141 25.9516 34.9848 28.7947 35.0022C31.638 34.9848 32.1912 30.4141 29.5018 29.5139ZM28.7795 33.3919C27.381 33.3919 27.381 31.0027 28.7795 30.9853C30.178 31.0027 30.178 33.3919 28.7795 33.3919Z" fill="white"/>
</svg>
