<svg width="75" height="74" viewBox="0 0 75 74" fill="none" xmlns="http://www.w3.org/2000/svg">
<g clip-path="url(#clip0_2012_10318)">
<path d="M71.2051 11.1698C70.1844 4.93985 55.6036 0 37.7585 0C19.9133 0 5.3325 4.93985 4.31185 11.1698H4.24902V11.8679V27.9245V28.6226V29.3208V44.6792V45.3774V46.0755V62.8302H4.31185C5.3325 69.0588 19.9147 74 37.7585 74C55.6022 74 70.1844 69.0588 71.2051 62.8302H71.2679V46.0755V45.3774V44.6792V29.3208V28.6226V27.9245V11.8679V11.1698H71.2051Z" fill="#3CA4DE"/>
<path d="M37.7585 57.2449C19.2515 57.2449 4.24902 51.9308 4.24902 45.377V62.8298H4.31185C5.3325 69.0583 19.9147 73.9996 37.7585 73.9996C55.6022 73.9996 70.1844 69.0583 71.2051 62.8298H71.2679V45.377C71.2679 51.9308 56.2654 57.2449 37.7585 57.2449Z" fill="#424A60"/>
<path d="M4.24902 44.6797V45.3778C4.24902 45.1432 4.27389 44.9115 4.31119 44.6797H4.24902Z" fill="#8775CD"/>
<path d="M71.2051 44.6797C71.2424 44.9115 71.2672 45.1432 71.2672 45.3778V44.6797H71.2051Z" fill="#424A60"/>
<path d="M37.7585 40.489C19.2515 40.489 4.24902 35.175 4.24902 28.6211V46.0739H4.31185C5.3325 52.3025 19.9147 57.2437 37.7585 57.2437C55.6022 57.2437 70.1844 52.3025 71.2051 46.0739H71.2679V28.6211C71.2679 35.175 56.2654 40.489 37.7585 40.489Z" fill="#8775CD"/>
<path d="M4.24902 27.9238V28.6219C4.24902 28.3874 4.27389 28.1556 4.31119 27.9238H4.24902Z" fill="#EFCE4A"/>
<path d="M71.2051 27.9238C71.2424 28.1556 71.2672 28.3874 71.2672 28.6219V27.9238H71.2051Z" fill="#EFCE4A"/>
<path d="M37.7585 23.7358C56.2652 23.7358 71.2679 18.4224 71.2679 11.8679C71.2679 5.31345 56.2652 0 37.7585 0C19.2517 0 4.24902 5.31345 4.24902 11.8679C4.24902 18.4224 19.2517 23.7358 37.7585 23.7358Z" fill="#7FABDA"/>
<path d="M37.7585 23.7351C19.2515 23.7351 4.24902 18.4211 4.24902 11.8672V29.32H4.31185C5.3325 35.5486 19.9147 40.4898 37.7585 40.4898C55.6022 40.4898 70.1844 35.5486 71.2051 29.32H71.2679V11.8672C71.2679 18.4211 56.2654 23.7351 37.7585 23.7351Z" fill="#3CA5DF"/>
<path d="M4.24902 11.1699V11.868C4.24902 11.6335 4.27389 11.4017 4.31119 11.1699H4.24902Z" fill="#3CA5DF"/>
<path d="M71.2051 11.1699C71.2424 11.4017 71.2672 11.6335 71.2672 11.868V11.1699H71.2051Z" fill="#7383BF"/>
</g>
<defs>
<clipPath id="clip0_2012_10318">
<rect width="74" height="74" fill="white" transform="translate(0.758789)"/>
</clipPath>
</defs>
</svg>
