<svg width="28" height="29" viewBox="0 0 28 29" fill="none" xmlns="http://www.w3.org/2000/svg">
<path d="M2.33398 7.49999C2.33398 6.88115 2.57982 6.28766 3.0174 5.85007C3.45499 5.41249 4.04848 5.16666 4.66732 5.16666H23.334C23.9528 5.16666 24.5463 5.41249 24.9839 5.85007C25.4215 6.28766 25.6673 6.88115 25.6673 7.49999V21.5C25.6673 22.1188 25.4215 22.7123 24.9839 23.1499C24.5463 23.5875 23.9528 23.8333 23.334 23.8333H4.66732C4.04848 23.8333 3.45499 23.5875 3.0174 23.1499C2.57982 22.7123 2.33398 22.1188 2.33398 21.5V7.49999ZM6.43949 7.49999L14.0007 14.1162L21.5618 7.49999H6.43949ZM23.334 9.05049L14.7695 16.5452C14.5567 16.7316 14.2835 16.8343 14.0007 16.8343C13.7178 16.8343 13.4446 16.7316 13.2318 16.5452L4.66732 9.05049V21.5H23.334V9.05049Z" fill="white"/>
</svg>

