<svg width="40" height="40" viewBox="0 0 40 40" fill="none" xmlns="http://www.w3.org/2000/svg">
<path d="M35.2011 20.5784C34.7635 20.5784 34.4083 20.9235 34.4083 21.3487V30.3672C34.4083 31.7892 33.1858 32.903 31.6256 32.903H5.41932C3.89242 32.903 2.6969 31.7892 2.6969 30.3672V12.475C2.6969 10.9975 3.91779 9.79435 5.41932 9.79435H24.0529C24.4906 9.79435 24.8457 9.44926 24.8457 9.02407C24.8457 8.59887 24.4906 8.25378 24.0529 8.25378H5.41932C3.04414 8.25378 1.11133 10.1471 1.11133 12.475V30.3672C1.11133 32.6534 3.0045 34.4436 5.41932 34.4436H31.6256C34.0341 34.4436 35.9939 32.6149 35.9939 30.3672V21.3487C35.9939 20.9219 35.6403 20.5784 35.2011 20.5784ZM5.86804 24.4298V29.0516C5.86804 29.4768 6.2232 29.8218 6.66082 29.8218C7.09844 29.8218 7.45361 29.4768 7.45361 29.0516V24.4298C7.45361 24.0046 7.09844 23.6595 6.66082 23.6595C6.2232 23.6595 5.86804 24.0031 5.86804 24.4298ZM29.6516 29.0516V24.4298C29.6516 24.0046 29.2964 23.6595 28.8588 23.6595C28.4212 23.6595 28.066 24.0046 28.066 24.4298V29.0516C28.066 29.4768 28.4212 29.8218 28.8588 29.8218C29.2964 29.8218 29.6516 29.4768 29.6516 29.0516ZM18.5526 15.1864V29.0516C18.5526 29.4768 18.9078 29.8218 19.3454 29.8218C19.783 29.8218 20.1382 29.4768 20.1382 29.0516V15.1864C20.1382 14.7612 19.783 14.4161 19.3454 14.4161C18.9078 14.4161 18.5526 14.7596 18.5526 15.1864ZM9.03918 21.3487V29.0516C9.03918 29.4768 9.39434 29.8218 9.83196 29.8218C10.2696 29.8218 10.6247 29.4768 10.6247 29.0516V21.3487C10.6247 20.9235 10.2696 20.5784 9.83196 20.5784C9.39434 20.5784 9.03918 20.9219 9.03918 21.3487ZM15.3815 21.3487V29.0516C15.3815 29.4768 15.7366 29.8218 16.1742 29.8218C16.6119 29.8218 16.967 29.4768 16.967 29.0516V21.3487C16.967 20.9235 16.6119 20.5784 16.1742 20.5784C15.7366 20.5784 15.3815 20.9219 15.3815 21.3487ZM25.6877 29.8218C26.1253 29.8218 26.4804 29.4768 26.4804 29.0516V21.3487C26.4804 20.9235 26.1253 20.5784 25.6877 20.5784C25.25 20.5784 24.8949 20.9235 24.8949 21.3487V29.0516C24.8949 29.4768 25.25 29.8218 25.6877 29.8218ZM21.7237 22.8893V29.0516C21.7237 29.4768 22.0789 29.8218 22.5165 29.8218C22.9541 29.8218 23.3093 29.4768 23.3093 29.0516V22.8893C23.3093 22.4641 22.9541 22.119 22.5165 22.119C22.0789 22.119 21.7237 22.4625 21.7237 22.8893ZM12.2103 18.2675V29.0516C12.2103 29.4768 12.5655 29.8218 13.0031 29.8218C13.4407 29.8218 13.7959 29.4768 13.7959 29.0516V18.2675C13.7959 17.8423 13.4407 17.4972 13.0031 17.4972C12.5655 17.4972 12.2103 17.8408 12.2103 18.2675ZM32.1314 5.55469C28.4053 5.55469 25.3737 8.50027 25.3737 12.1206C25.3737 15.741 28.4053 18.6866 32.1314 18.6866C35.8575 18.6866 38.8891 15.741 38.8891 12.1206C38.8891 8.50027 35.8559 5.55469 32.1314 5.55469ZM32.1314 17.146C29.279 17.146 26.9593 14.8921 26.9593 12.1206C26.9593 9.34913 29.279 7.09526 32.1314 7.09526C34.9838 7.09526 37.3035 9.34913 37.3035 12.1206C37.3035 14.8921 34.9838 17.146 32.1314 17.146ZM32.5912 9.25053C32.4485 9.11034 32.2503 9.02407 32.0299 9.02407C31.8095 9.02407 31.6113 9.11034 31.4686 9.25053L28.9666 11.6816C28.6574 11.982 28.6574 12.4703 28.9666 12.7707C29.2758 13.0712 29.7784 13.0712 30.0876 12.7707L31.2371 11.6538V14.4161C31.2371 14.8413 31.5923 15.1864 32.0299 15.1864C32.4676 15.1864 32.8227 14.8413 32.8227 14.4161V11.6538L33.9723 12.7707C34.1276 12.9217 34.3306 12.9957 34.5336 12.9957C34.7365 12.9957 34.9395 12.9202 35.0948 12.7707C35.404 12.4703 35.404 11.982 35.0948 11.6816L32.5912 9.25053Z" fill="white"/>
</svg>
