<svg width="24" height="22" viewBox="0 0 24 22" fill="none" xmlns="http://www.w3.org/2000/svg">
<path d="M12.4198 17.7144C12.3996 17.7144 12.3804 17.7199 12.3602 17.7208L11.2584 13.3941C11.6461 13.2209 11.9789 12.955 12.2466 12.6314L12.6875 12.8854C12.759 12.9266 12.8378 12.9459 12.9157 12.9459C13.0743 12.9459 13.2283 12.8634 13.3136 12.7158C13.4401 12.4967 13.364 12.2162 13.144 12.0897L12.704 11.8367C12.8103 11.5452 12.8781 11.2344 12.8781 10.9063C12.8781 10.2958 12.6691 9.73843 12.33 9.28285L17.1938 4.12843C17.5156 4.3301 17.8932 4.45202 18.3002 4.45202C19.4561 4.45202 20.3957 3.51243 20.3957 2.35652C20.3957 1.2006 19.4561 0.261018 18.3002 0.261018C17.1443 0.261018 16.2047 1.2006 16.2047 2.35652C16.2047 2.77268 16.3303 3.15952 16.5402 3.48585L11.6718 8.64394C11.2373 8.3506 10.7139 8.17918 10.152 8.17918C9.84857 8.17918 9.56165 8.2406 9.28848 8.33227L9.04282 7.88402C8.92182 7.66218 8.64223 7.5806 8.4204 7.7016C8.19857 7.8226 8.11698 8.10127 8.23798 8.3231L8.4809 8.7686C7.84382 9.26818 7.42582 10.0354 7.42582 10.9063C7.42582 11.2308 7.49273 11.5388 7.59723 11.8275L6.34232 12.5874C6.33132 12.5939 6.3249 12.6049 6.31481 12.6122C6.30381 12.6177 6.29098 12.6177 6.27998 12.625L5.0599 13.3648C4.77573 13.0925 4.39348 12.9239 3.96998 12.9239C3.09915 12.9239 2.38965 13.6324 2.38965 14.5042C2.38965 15.3759 3.09823 16.0845 3.96998 16.0845C4.84173 16.0845 5.55032 15.3759 5.55032 14.5042C5.55032 14.3869 5.53565 14.2741 5.5109 14.1641L6.75573 13.4106C6.76856 13.4033 6.7759 13.3904 6.7869 13.3813C6.79698 13.3767 6.80798 13.3785 6.81807 13.373L8.05373 12.6259C8.55423 13.2364 9.30407 13.6352 10.1529 13.6352C10.2271 13.6352 10.2968 13.6187 10.3692 13.6132L11.4747 17.9527C10.7964 18.3001 10.3261 18.9986 10.3261 19.8117C10.3261 20.9676 11.2657 21.9072 12.4216 21.9072C13.5776 21.9072 14.5171 20.9676 14.5171 19.8117C14.5171 18.6558 13.5757 17.7144 12.4198 17.7144ZM3.96998 15.1669C3.60423 15.1669 3.30632 14.8699 3.30632 14.5033C3.30632 14.1366 3.60423 13.8396 3.96998 13.8396C4.33573 13.8396 4.63365 14.1366 4.63365 14.5033C4.63365 14.8699 4.33573 15.1669 3.96998 15.1669ZM18.3002 1.17768C18.9501 1.17768 19.4791 1.7066 19.4791 2.35652C19.4791 3.00643 18.9501 3.53535 18.3002 3.53535C17.9895 3.53535 17.7117 3.40885 17.5009 3.21268C17.489 3.19893 17.4835 3.18152 17.4697 3.16868C17.4606 3.16043 17.4496 3.15768 17.4404 3.15035C17.2461 2.94043 17.1214 2.66452 17.1214 2.35743C17.1214 1.70752 17.6503 1.17768 18.3002 1.17768ZM8.3434 10.9063C8.3434 9.90893 9.15465 9.09677 10.1529 9.09677C11.1511 9.09677 11.9624 9.90893 11.9624 10.9063C11.9624 11.9045 11.1502 12.7167 10.1529 12.7167C9.15557 12.7167 8.3434 11.9045 8.3434 10.9063ZM12.4198 20.9887C11.7699 20.9887 11.241 20.4598 11.241 19.8099C11.241 19.1599 11.7699 18.631 12.4198 18.631C13.0688 18.631 13.5986 19.1599 13.5986 19.8099C13.5986 20.4598 13.0697 20.9887 12.4198 20.9887ZM20.0281 14.9644C19.601 14.9644 19.2141 15.1367 18.93 15.4126L18.4817 15.155C18.2645 15.0285 17.9821 15.1028 17.8556 15.3246C17.7291 15.5437 17.8052 15.8242 18.0252 15.9507L18.4845 16.2147C18.4616 16.3219 18.4487 16.4319 18.4487 16.5456C18.4487 17.4164 19.1573 18.1259 20.0291 18.1259C20.9008 18.1259 21.6094 17.4174 21.6094 16.5456C21.6094 15.6739 20.899 14.9644 20.0281 14.9644ZM20.0281 17.2074C19.6624 17.2074 19.3645 16.9104 19.3645 16.5438C19.3645 16.1771 19.6615 15.8801 20.0281 15.8801C20.3948 15.8801 20.6918 16.1771 20.6918 16.5438C20.6918 16.9104 20.3939 17.2074 20.0281 17.2074ZM5.2744 3.39602C5.3624 3.39602 5.44765 3.3841 5.53106 3.37035L5.79323 3.84977C5.87665 4.00193 6.0334 4.0881 6.19565 4.0881C6.2699 4.0881 6.34507 4.06977 6.41473 4.03218C6.63657 3.91119 6.71907 3.63252 6.59715 3.40977L6.35332 2.96335C6.65948 2.6746 6.85382 2.26852 6.85382 1.81568C6.85382 0.944852 6.14523 0.235352 5.27348 0.235352C4.40173 0.235352 3.69406 0.944852 3.69406 1.8166C3.69406 2.68835 4.40265 3.39602 5.2744 3.39602ZM5.2744 1.15293C5.64015 1.15293 5.93807 1.45085 5.93807 1.8166C5.93807 2.08702 5.77398 2.31802 5.54207 2.4216C5.53931 2.42252 5.53748 2.4216 5.53565 2.42252C5.53382 2.42435 5.53198 2.42618 5.53015 2.42802C5.45132 2.46102 5.36515 2.47935 5.2744 2.47935C4.90865 2.47935 4.61073 2.18143 4.61073 1.81568C4.61073 1.44993 4.90865 1.15293 5.2744 1.15293ZM6.60815 5.34027L7.42307 6.83168C7.50648 6.98385 7.66415 7.07002 7.82548 7.07002C7.89973 7.07002 7.9749 7.05168 8.04456 7.0141C8.26731 6.8931 8.3489 6.61443 8.2279 6.3926L7.41298 4.90119C7.29106 4.67935 7.01331 4.59777 6.79057 4.71877C6.56873 4.84068 6.48623 5.11843 6.60815 5.34027ZM16.7025 14.1329L14.9241 13.1118C14.7069 12.9862 14.4255 13.0595 14.2981 13.2814C14.1716 13.5004 14.2476 13.7809 14.4676 13.9074L16.246 14.9286C16.3175 14.9699 16.3963 14.9891 16.4742 14.9891C16.6328 14.9891 16.7868 14.9066 16.8721 14.759C16.9976 14.539 16.9216 14.2585 16.7025 14.1329Z" fill="white"/>
</svg>
