<svg width="36" height="36" viewBox="0 0 36 36" fill="none" xmlns="http://www.w3.org/2000/svg">
<path d="M34.875 19.1254C35.4963 19.1254 36 18.6218 36 18.0004C36 17.3791 35.4963 16.8754 34.875 16.8754H24.6548V9.60527C26.5051 9.1083 27.8716 7.41714 27.8716 5.41211C27.8716 3.01804 25.9239 1.07031 23.5298 1.07031C21.1357 1.07031 19.188 3.01804 19.188 5.41211C19.188 7.41714 20.5545 9.1083 22.4048 9.60527V16.8754H7.28845V9.60527C9.1388 9.1083 10.5052 7.41714 10.5052 5.41211C10.5052 3.01804 8.55752 1.07031 6.16345 1.07031C3.76938 1.07031 1.82166 3.01804 1.82166 5.41211C1.82166 7.41714 3.18811 9.1083 5.03845 9.60527V16.8754H1.125C0.503719 16.8754 0 17.3791 0 18.0004C0 18.6218 0.503719 19.1254 1.125 19.1254H12.5627V26.3956C10.7124 26.8926 9.34594 28.5837 9.34594 30.5888C9.34594 32.9828 11.2937 34.9306 13.6877 34.9306C16.0818 34.9306 18.0295 32.9828 18.0295 30.5888C18.0295 28.5837 16.6631 26.8926 14.8127 26.3956V19.1254H29.929V26.3956C28.0787 26.8926 26.7122 28.5837 26.7122 30.5888C26.7122 32.9828 28.6599 34.9306 31.0541 34.9306C33.4481 34.9306 35.3959 32.9828 35.3959 30.5888C35.3959 28.5837 34.0294 26.8926 32.1791 26.3956V19.1254H34.875ZM21.4379 5.41211C21.4379 4.2587 22.3763 3.32031 23.5297 3.32031C24.6831 3.32031 25.6215 4.2587 25.6215 5.41211C25.6215 6.56552 24.6831 7.50391 23.5297 7.50391C22.3763 7.50391 21.4379 6.56552 21.4379 5.41211ZM4.07166 5.41211C4.07166 4.2587 5.01005 3.32031 6.16345 3.32031C7.31686 3.32031 8.25525 4.2587 8.25525 5.41211C8.25525 6.56552 7.31686 7.50391 6.16345 7.50391C5.01005 7.50391 4.07166 6.56552 4.07166 5.41211ZM15.7795 30.5888C15.7795 31.7422 14.8411 32.6806 13.6877 32.6806C12.5343 32.6806 11.5959 31.7422 11.5959 30.5888C11.5959 29.4354 12.5343 28.497 13.6877 28.497C14.8411 28.497 15.7795 29.4354 15.7795 30.5888ZM33.1459 30.5888C33.1459 31.7422 32.2075 32.6806 31.0541 32.6806C29.9006 32.6806 28.9622 31.7422 28.9622 30.5888C28.9622 29.4354 29.9006 28.497 31.0541 28.497C32.2076 28.497 33.1459 29.4354 33.1459 30.5888Z" fill="#E7E7E7"/>
</svg>
