<svg width="36" height="36" viewBox="0 0 36 36" fill="none" xmlns="http://www.w3.org/2000/svg">
<path d="M10.1015 26.2982C10.0759 26.2029 10.0257 26.1159 9.9559 26.0461C9.88609 25.9763 9.79914 25.9261 9.70378 25.9005L6.56672 25.0602C6.47133 25.0346 6.3709 25.0346 6.27551 25.0602C6.18013 25.0858 6.09316 25.136 6.02335 25.2059L3.72722 27.5025C3.65747 27.5723 3.6073 27.6592 3.58173 27.7545C3.55616 27.8497 3.55609 27.95 3.58154 28.0454L4.42191 31.1824C4.44747 31.2778 4.49768 31.3647 4.56748 31.4345C4.63729 31.5043 4.72424 31.5545 4.8196 31.5801L7.95666 32.4205C8.00398 32.4332 8.05278 32.4397 8.10179 32.4396C8.25096 32.4396 8.39401 32.3803 8.49947 32.2748L10.7962 29.9787C10.866 29.9089 10.9162 29.8219 10.9418 29.7265C10.9674 29.6311 10.9674 29.5307 10.9418 29.4353L10.1015 26.2982ZM7.93416 31.2482L5.42429 30.5732L4.7521 28.0701L6.58922 26.233L9.09854 26.908L9.77354 29.4173L7.93416 31.2482Z" fill="#E7E7E7"/>
<path d="M34.7067 26.7532L31.523 23.5695C31.4706 23.5171 31.4083 23.4757 31.3397 23.4477C31.2711 23.4197 31.1977 23.4056 31.1236 23.4064C31.0504 23.4056 30.9777 23.4197 30.9101 23.4477C30.8424 23.4758 30.7811 23.5172 30.7298 23.5695L30.3473 23.952C29.6734 23.1753 29.2516 22.2121 29.138 21.1901L28.733 17.5789C28.6066 16.4358 28.0971 15.3692 27.2873 14.5526L27.1523 14.4176L27.878 13.6864C27.9292 13.6325 27.9913 13.5901 28.0602 13.562C28.129 13.5338 28.203 13.5206 28.2773 13.5232C29.3142 13.5875 30.3505 13.3893 31.2904 12.9469C32.2304 12.5045 33.0435 11.8322 33.6548 10.9923C34.266 10.1523 34.6555 9.17168 34.7872 8.14123C34.919 7.11078 34.7888 6.06375 34.4086 5.09698C34.375 5.00948 34.3202 4.93174 34.249 4.87083C34.1777 4.80992 34.0924 4.76778 34.0008 4.74822C33.9091 4.72866 33.814 4.73231 33.7242 4.75883C33.6343 4.78536 33.5524 4.83392 33.4861 4.90011L30.0436 8.34823L27.9511 8.05011L27.653 5.9576L31.1011 2.51511C31.1672 2.44931 31.2158 2.36796 31.2423 2.27853C31.2688 2.1891 31.2725 2.09444 31.253 2.00323C31.2331 1.91137 31.1909 1.82583 31.1301 1.7542C31.0692 1.68257 30.9917 1.62706 30.9042 1.59261C29.9374 1.21242 28.8904 1.08219 27.86 1.21396C26.8295 1.34572 25.8489 1.73522 25.0089 2.34644C24.1689 2.95765 23.4967 3.77084 23.0543 4.71076C22.6119 5.65069 22.4137 6.68701 22.478 7.72385C22.4792 7.798 22.4654 7.87163 22.4374 7.94027C22.4093 8.00892 22.3676 8.07116 22.3148 8.12323L19.9917 10.4464L18.3998 8.85448C18.0977 8.54907 17.7142 8.337 17.2949 8.24357C16.8756 8.15013 16.4383 8.17926 16.0351 8.32749C15.6319 8.47572 15.2799 8.7368 15.0209 9.07958C14.762 9.42235 14.6072 9.83237 14.5748 10.2607C14.1595 10.1518 13.7215 10.1651 13.3135 10.2989C12.9055 10.4327 12.5448 10.6814 12.2746 11.0151C12.0044 11.3488 11.8362 11.7534 11.7903 12.1803C11.7443 12.6073 11.8225 13.0384 12.0155 13.422C11.5711 13.4971 11.1606 13.7072 10.8398 14.0239C10.5632 14.302 10.3645 14.6479 10.2638 15.0271C10.1631 15.4062 10.1639 15.8051 10.2661 16.1839C9.8381 16.213 9.42762 16.3651 9.084 16.6219C8.74039 16.8787 8.47826 17.2293 8.32913 17.6315C8.18001 18.0337 8.15023 18.4705 8.24338 18.8892C8.33653 19.308 8.54864 19.6909 8.85422 19.992L9.64734 20.7851L8.03297 22.3995C7.98075 22.4537 7.91768 22.4962 7.84789 22.5243C7.7781 22.5524 7.70316 22.5655 7.62797 22.5626C7.50422 22.557 7.38609 22.557 7.25672 22.5514C6.44417 22.551 5.63949 22.7107 4.88865 23.0213C4.13781 23.3319 3.4555 23.7873 2.88067 24.3616C1.71976 25.5215 1.06715 27.095 1.06641 28.736C1.06566 30.3771 1.71684 31.9512 2.87669 33.1121C4.03655 34.273 5.61007 34.9256 7.25109 34.9264H7.26797C8.08018 34.9261 8.88437 34.7658 9.63462 34.4547C10.3849 34.1435 11.0665 33.6877 11.6405 33.1131C12.2146 32.5385 12.6698 31.8565 12.9803 31.1059C13.2907 30.3554 13.4503 29.5511 13.4498 28.7389C13.4498 28.6151 13.4442 28.4914 13.4386 28.3732C13.435 28.298 13.4477 28.2228 13.4758 28.1529C13.504 28.083 13.5469 28.02 13.6017 27.9682L15.2161 26.3539L21.5836 32.7157L21.1842 33.1151C21.1311 33.1672 21.0888 33.2293 21.0598 33.2979C21.0309 33.3664 21.0158 33.4401 21.0155 33.5145C21.0158 33.5881 21.0309 33.6609 21.0599 33.7285C21.0888 33.7961 21.1311 33.8573 21.1842 33.9082L21.9773 34.707C22.0843 34.811 22.2275 34.8695 22.3767 34.8701C22.5257 34.8685 22.6685 34.8102 22.7761 34.707C22.8815 34.6008 22.9406 34.4572 22.9406 34.3076C22.9406 34.158 22.8815 34.0144 22.7761 33.9082L22.3767 33.5145L31.1236 24.762L33.908 27.5464C34.0142 27.6517 34.1577 27.7109 34.3073 27.7109C34.457 27.7109 34.6005 27.6517 34.7067 27.5464C34.8115 27.441 34.8703 27.2984 34.8703 27.1498C34.8703 27.0012 34.8115 26.8586 34.7067 26.7532ZM23.108 8.91636C23.2744 8.7532 23.4042 8.55642 23.4886 8.33915C23.573 8.12187 23.6101 7.8891 23.5973 7.65635C23.551 6.88423 23.6824 6.11177 23.9814 5.39836C24.2803 4.68495 24.7388 4.04959 25.3217 3.54111C25.9046 3.03264 26.5964 2.6646 27.3437 2.46528C28.0911 2.26596 28.8743 2.24067 29.633 2.39136L26.663 5.36136C26.6007 5.42302 26.5535 5.49829 26.5252 5.58125C26.4969 5.66421 26.4882 5.7526 26.4998 5.83948L26.8992 8.62386C26.9163 8.74461 26.9722 8.85654 27.0584 8.94278C27.1447 9.02902 27.2566 9.08489 27.3773 9.10198L30.1617 9.50135C30.2486 9.51297 30.337 9.50429 30.42 9.47598C30.5029 9.44768 30.5782 9.40053 30.6398 9.33823L33.6098 6.36823C33.7605 7.12692 33.7352 7.91006 33.5359 8.65745C33.3366 9.40484 32.9686 10.0966 32.4601 10.6795C31.9516 11.2624 31.3162 11.7209 30.6028 12.0198C29.8894 12.3188 29.117 12.4502 28.3448 12.4039C28.1122 12.3916 27.8795 12.4289 27.6623 12.5133C27.4451 12.5976 27.2483 12.7271 27.0848 12.8932L26.3536 13.6245L24.7617 12.0326C24.3328 11.6234 23.7627 11.3951 23.1698 11.3951C22.577 11.3951 22.0069 11.6234 21.578 12.0326L20.7848 11.2395L23.108 8.91636ZM16.0092 9.6476C16.2244 9.4444 16.5092 9.3312 16.8052 9.3312C17.1011 9.3312 17.3859 9.4444 17.6011 9.6476L20.7848 12.8314L19.193 14.4232L16.0092 11.2395C15.7997 11.0275 15.6823 10.7415 15.6823 10.4435C15.6823 10.1455 15.7997 9.85956 16.0092 9.6476ZM13.2248 11.6389C13.4387 11.4331 13.724 11.3182 14.0208 11.3182C14.3176 11.3182 14.6028 11.4331 14.8167 11.6389L18.3998 15.2164L18.4673 15.3007C18.3618 15.5231 18.307 15.7662 18.307 16.0123C18.307 16.2584 18.3618 16.5015 18.4673 16.7239L18.3998 16.8082C18.1846 17.0114 17.8999 17.1246 17.6039 17.1246C17.3079 17.1246 17.0232 17.0114 16.808 16.8082L15.413 15.4132L13.2248 13.2251C13.1206 13.121 13.0378 12.9974 12.9814 12.8613C12.9249 12.7252 12.8958 12.5793 12.8958 12.432C12.8958 12.2846 12.9249 12.1387 12.9814 12.0027C13.0378 11.8666 13.1206 11.7429 13.2248 11.6389ZM11.6386 14.817C11.8494 14.6074 12.1345 14.4898 12.4317 14.4898C12.7289 14.4898 13.0141 14.6074 13.2248 14.817L14.6198 16.212L16.0092 17.6014H16.0148L16.808 18.4001C16.9125 18.5046 16.9954 18.6287 17.052 18.7653C17.1085 18.9019 17.1377 19.0482 17.1377 19.196C17.1377 19.3439 17.1085 19.4902 17.052 19.6268C16.9954 19.7634 16.9125 19.8875 16.808 19.992C16.7034 20.0965 16.5794 20.1794 16.4428 20.236C16.3062 20.2926 16.1599 20.3217 16.012 20.3217C15.8642 20.3217 15.7178 20.2926 15.5813 20.236C15.4447 20.1794 15.3206 20.0965 15.2161 19.992L12.0323 16.8082L11.6386 16.4089C11.534 16.3044 11.451 16.1803 11.3944 16.0437C11.3378 15.9072 11.3086 15.7608 11.3086 15.6129C11.3086 15.4651 11.3378 15.3187 11.3944 15.1821C11.451 15.0455 11.534 14.9215 11.6386 14.817ZM9.31547 18.4001C9.31501 18.2516 9.34412 18.1045 9.4011 17.9674C9.45808 17.8302 9.54179 17.7058 9.64734 17.6014C9.85882 17.393 10.1436 17.2758 10.4405 17.2751C10.5886 17.2736 10.7356 17.3017 10.8727 17.3577C11.0099 17.4138 11.1345 17.4966 11.2392 17.6014L14.423 20.7851L14.8167 21.1845C15.0278 21.3956 15.1464 21.6819 15.1464 21.9804C15.1464 22.279 15.0278 22.5653 14.8167 22.7764C14.6056 22.9875 14.3193 23.106 14.0208 23.106C13.7222 23.106 13.4359 22.9875 13.2248 22.7764L9.64734 19.1932C9.54231 19.0896 9.45889 18.9661 9.40192 18.8299C9.34495 18.6938 9.31557 18.5477 9.31547 18.4001ZM22.3767 31.9226L16.0092 25.5607L21.9773 19.5926C22.0827 19.4864 22.1419 19.3428 22.1419 19.1932C22.1419 19.0436 22.0827 18.9001 21.9773 18.7939C21.872 18.6891 21.7294 18.6303 21.5808 18.6303C21.4322 18.6303 21.2896 18.6891 21.1842 18.7939L12.803 27.1751C12.6371 27.3387 12.5078 27.5356 12.4235 27.7527C12.3391 27.9699 12.3017 28.2024 12.3136 28.4351C12.3192 28.5364 12.3248 28.6376 12.3248 28.7389C12.3248 30.0805 11.7922 31.3674 10.8441 32.3166C9.89588 33.2658 8.60965 33.7999 7.26797 33.8014H7.25109C5.90844 33.8006 4.62107 33.2665 3.67219 32.3166C2.72331 31.3667 2.19066 30.0787 2.19141 28.736C2.19215 27.3934 2.72624 26.106 3.67617 25.1571C4.6261 24.2083 5.91406 23.6756 7.25672 23.6764C7.34109 23.6764 7.46484 23.682 7.56609 23.6876C7.79861 23.6982 8.03078 23.6602 8.24774 23.5759C8.46471 23.4916 8.66169 23.363 8.82609 23.1982L10.4405 21.5782L12.4317 23.5695C12.779 23.9191 13.2318 24.1446 13.7201 24.2112C14.2084 24.2778 14.7051 24.1817 15.1333 23.9378C15.5616 23.6939 15.8976 23.3158 16.0894 22.8619C16.2813 22.4079 16.3183 21.9035 16.1948 21.4264C16.5586 21.3996 16.9102 21.2839 17.2188 21.0894C17.5274 20.8949 17.7835 20.6276 17.9646 20.311C18.1457 19.9944 18.2462 19.6381 18.2574 19.2735C18.2685 18.909 18.19 18.5472 18.0286 18.2201C18.4708 18.1375 18.8771 17.9216 19.193 17.6014C19.2098 17.5901 19.2155 17.5732 19.2323 17.562C19.7739 17.919 20.4218 18.0786 21.0671 18.0141C21.7125 17.9495 22.316 17.6648 22.7761 17.2076C22.8825 17.1047 23.0247 17.0472 23.1727 17.0472C23.3206 17.0472 23.4628 17.1047 23.5692 17.2076C23.6215 17.2589 23.6629 17.3202 23.691 17.3878C23.719 17.4555 23.7331 17.5281 23.7323 17.6014C23.7331 17.6754 23.719 17.7489 23.691 17.8175C23.663 17.8861 23.6216 17.9484 23.5692 18.0007L23.1698 18.4001C22.4323 19.1391 22.0181 20.1404 22.0181 21.1845C22.0181 22.2285 22.4323 23.2299 23.1698 23.9689L23.5692 24.3626C23.6206 24.416 23.6821 24.4585 23.7503 24.4875C23.8184 24.5165 23.8917 24.5314 23.9658 24.5314C24.0398 24.5314 24.1131 24.5165 24.1813 24.4875C24.2494 24.4585 24.311 24.416 24.3623 24.3626C24.4671 24.2572 24.5259 24.1146 24.5259 23.966C24.5259 23.8174 24.4671 23.6749 24.3623 23.5695L23.9686 23.1701C23.4413 22.6427 23.1451 21.9274 23.1451 21.1817C23.1451 20.4359 23.4413 19.7207 23.9686 19.1932L24.3623 18.7939C24.5192 18.6374 24.6437 18.4515 24.7286 18.2469C24.8135 18.0423 24.8573 17.8229 24.8573 17.6014C24.8573 17.3798 24.8135 17.1604 24.7286 16.9558C24.6437 16.7512 24.5192 16.5653 24.3623 16.4089C24.0408 16.1028 23.6138 15.9321 23.1698 15.9321C22.7259 15.9321 22.2989 16.1028 21.9773 16.4089C21.6609 16.7249 21.232 16.9024 20.7848 16.9024C20.3377 16.9024 19.9088 16.7249 19.5923 16.4089C19.4876 16.3035 19.4288 16.1609 19.4288 16.0123C19.4288 15.8637 19.4876 15.7211 19.5923 15.6157L22.3767 12.8314C22.5906 12.6256 22.8759 12.5107 23.1727 12.5107C23.4694 12.5107 23.7547 12.6256 23.9686 12.8314L26.4886 15.3457C27.1181 15.9831 27.5161 16.8128 27.6192 17.7026L28.0242 21.3139C28.166 22.5875 28.6985 23.7861 29.5486 24.7451L22.3767 31.9226Z" fill="#E7E7E7"/>
</svg>
