<svg width="52" height="52" viewBox="0 0 52 52" fill="none" xmlns="http://www.w3.org/2000/svg">
<path d="M45.9487 16.2993C45.9242 15.2193 45.9009 14.1991 45.9009 13.2121C45.9009 12.8408 45.7253 12.4847 45.4129 12.2221C45.1004 11.9596 44.6766 11.812 44.2346 11.812C37.1087 11.812 31.6831 10.0912 27.1607 6.39646C26.8497 6.14224 26.433 6 25.9991 6C25.5653 6 25.1485 6.14224 24.8375 6.39646C20.3155 10.0912 14.8909 11.812 7.76537 11.812C7.32346 11.812 6.89964 11.9596 6.58716 12.2221C6.27468 12.4847 6.09913 12.8408 6.09913 13.2121C6.09913 14.1993 6.07602 15.2199 6.05136 16.3C5.82297 26.3501 5.51016 40.1142 25.4534 45.9227C25.8068 46.0257 26.1912 46.0257 26.5446 45.9227C46.4894 40.114 46.177 26.3496 45.9487 16.2993ZM25.9992 43.1142C8.89531 37.8933 9.15391 26.4563 9.38341 16.3534C9.39718 15.7471 9.41051 15.1594 9.41985 14.5833C16.0937 14.3466 21.4306 12.6472 25.9992 9.30306C30.5683 12.6472 35.9061 14.3468 42.5804 14.5833C42.5897 15.1592 42.6031 15.7465 42.6168 16.3525C42.8461 26.4558 43.1045 37.8931 25.9992 43.1142Z" fill="#E7E7E7"/>
<path d="M31.7362 21.1365L23.694 27.8937L20.2622 25.0101C19.9479 24.7548 19.5269 24.6135 19.0898 24.6167C18.6527 24.6198 18.2346 24.7671 17.9255 25.0268C17.6165 25.2865 17.4412 25.6379 17.4376 26.0051C17.4339 26.3724 17.6021 26.7262 17.9059 26.9902L22.5159 30.8638C22.6704 30.994 22.8541 31.0972 23.0562 31.1676C23.2584 31.2379 23.4752 31.274 23.694 31.2738C23.9128 31.274 24.1296 31.2379 24.3318 31.1676C24.5339 31.0972 24.7176 30.994 24.8721 30.8638L34.0923 23.1166C34.247 22.9866 34.3698 22.8323 34.4536 22.6625C34.5374 22.4926 34.5805 22.3105 34.5805 22.1267C34.5806 21.9428 34.5375 21.7608 34.4537 21.5909C34.37 21.421 34.2472 21.2667 34.0925 21.1367C33.78 20.8741 33.3563 20.7266 32.9144 20.7266C32.4725 20.7265 32.0487 20.874 31.7362 21.1365Z" fill="#E7E7E7"/>
</svg>
