<svg width="53" height="52" viewBox="0 0 53 52" fill="none" xmlns="http://www.w3.org/2000/svg">
<path fill-rule="evenodd" clip-rule="evenodd" d="M51.027 43.4489C51.0291 43.034 50.8674 42.6358 50.5779 42.3431L45.4899 37.1718L43.3153 39.3853L48.4036 44.557C48.6925 44.8497 49.0835 45.014 49.4913 45.014C49.8992 45.014 50.2905 44.8497 50.5794 44.557C50.8686 44.2646 51.0306 43.8663 51.0284 43.4514L51.027 43.4489ZM43.322 37.9621L42.0602 36.6811C42.1937 36.5586 42.3257 36.4321 42.4547 36.3016C42.5834 36.1711 42.7091 36.0369 42.8281 35.9003L44.0885 37.1813L43.322 37.9621ZM39.4719 38.4142C36.2557 39.9263 32.5031 39.6675 29.5174 37.7279C26.5315 35.788 24.725 32.435 24.725 28.8331C24.725 25.2315 26.5316 21.8782 29.5174 19.9384C32.5032 17.9984 36.2557 17.7399 39.4719 19.252V8.15897C39.4716 7.85211 39.3517 7.55818 39.1388 7.34087C38.9257 7.12358 38.6365 7.00078 38.3349 6.99955H12.1239C11.8217 6.99986 11.5319 7.12235 11.3181 7.33964C11.1043 7.55724 10.9844 7.85179 10.9841 8.15892V43.7325C10.9844 44.0396 11.1043 44.3342 11.3181 44.5515C11.5319 44.7685 11.8217 44.8907 12.1239 44.891H38.3349C38.6368 44.8907 38.9266 44.7685 39.1404 44.5512C39.3539 44.3339 39.4741 44.0397 39.4741 43.7325V38.4144L39.4719 38.4142ZM41.7592 22.0776C43.8308 24.1785 44.8228 27.1393 44.4437 30.0891C44.0642 33.0386 42.3563 35.6409 39.823 37.1299C37.2896 38.6189 34.219 38.8255 31.5142 37.6888C28.8097 36.5518 26.7796 34.2013 26.021 31.3285C25.2625 28.4557 25.8621 25.3875 27.6433 23.027C29.4242 20.667 32.1843 19.2832 35.1108 19.2829C37.6036 19.2829 39.9944 20.2881 41.7589 22.0775L41.7592 22.0776ZM51.275 41.636C51.9039 42.2854 52.1468 43.2257 51.9121 44.1057C51.6777 44.9853 51.0015 45.6726 50.1361 45.9108C49.2703 46.149 48.3455 45.9025 47.7062 45.2632L42.2709 39.7386C42.0789 39.5435 42.0789 39.2271 42.2709 39.0316L42.6267 38.67L41.2938 37.317C41.0221 37.521 40.742 37.7112 40.4568 37.8864V43.7336C40.4561 44.3054 40.2324 44.8539 39.8348 45.2586C39.4369 45.6633 38.8975 45.8914 38.3349 45.8926H12.124C11.561 45.8917 11.021 45.6639 10.6232 45.2592C10.225 44.8545 10.0009 44.3057 10 43.7335V8.15998C10.0009 7.58751 10.2247 7.03878 10.6229 6.63403C11.0211 6.22899 11.5608 6.00092 12.124 6H38.3349C38.8981 6.00092 39.438 6.22868 39.8362 6.63372C40.2344 7.03845 40.4585 7.58749 40.4591 8.15999V19.7841C42.9702 21.3175 44.7274 23.8569 45.2985 26.7772C45.8696 29.6971 45.2016 32.7265 43.4589 35.1196L44.7911 36.4732L45.1463 36.1131C45.2383 36.019 45.3637 35.966 45.4942 35.966C45.6247 35.966 45.7498 36.019 45.8419 36.1131L51.275 41.636ZM30.789 39.9226C31.061 39.9226 31.2814 40.147 31.2814 40.4234C31.2814 40.6998 31.061 40.9238 30.789 40.9238H14.0211C13.7491 40.9238 13.5287 40.6998 13.5287 40.4234C13.5287 40.147 13.7491 39.9226 14.0211 39.9226H30.789ZM14.0211 23.5513C13.7552 23.543 13.5438 23.3214 13.5438 23.0509C13.5438 22.7807 13.7552 22.5591 14.0211 22.5507H24.3268C24.5927 22.5591 24.804 22.7807 24.804 23.0509C24.804 23.3214 24.5927 23.543 24.3268 23.5513H14.0211ZM14.0211 17.7632V17.7629C13.7491 17.7629 13.5287 17.5389 13.5287 17.2625C13.5287 16.9861 13.7491 16.762 14.0211 16.762H30.7518C31.0241 16.762 31.2445 16.9861 31.2445 17.2625C31.2445 17.5389 31.0241 17.7629 30.7518 17.7629L14.0211 17.7632ZM14.0211 11.9721C13.7491 11.9721 13.5287 11.748 13.5287 11.4713C13.5287 11.1949 13.7491 10.9709 14.0211 10.9709H36.4357C36.7077 10.9709 36.9284 11.1949 36.9284 11.4713C36.9284 11.748 36.7077 11.9721 36.4357 11.9721H14.0211ZM14.0211 35.1352C13.7491 35.1352 13.5287 34.9108 13.5287 34.6344C13.5287 34.358 13.7491 34.134 14.0211 34.134H24.3346C24.6065 34.134 24.8269 34.358 24.8269 34.6344C24.8269 34.9108 24.6065 35.1352 24.3346 35.1352H14.0211ZM13.529 28.8427C13.529 28.5663 13.7494 28.3422 14.0211 28.3419H22.9213C23.0543 28.3379 23.1836 28.3887 23.2793 28.4829C23.375 28.5774 23.4289 28.7069 23.4289 28.8424C23.4289 28.9778 23.375 29.1074 23.2793 29.2015C23.1836 29.296 23.0543 29.3468 22.9213 29.3425H14.0211C13.7494 29.3422 13.5293 29.1187 13.529 28.8427Z" fill="white" stroke="white" stroke-width="0.5"/>
</svg>
