<svg width="36" height="36" viewBox="0 0 36 36" fill="none" xmlns="http://www.w3.org/2000/svg">
<path d="M34.517 30.4267L30.9386 26.8483L33.3182 24.8395C33.3808 24.7868 33.4279 24.718 33.4543 24.6405C33.4806 24.563 33.4854 24.4797 33.468 24.3997C33.4506 24.3198 33.4117 24.246 33.3555 24.1865C33.2993 24.127 33.2279 24.0839 33.149 24.0619L30.4742 23.3275C31.6567 20.7436 32.0892 17.8795 31.7226 15.0616C31.3559 12.2438 30.2049 9.58565 28.4006 7.39033C28.3773 7.35667 28.3508 7.32533 28.3214 7.29673C26.8971 5.58472 25.1135 4.20713 23.0971 3.2617C21.0806 2.31627 18.8809 1.82617 16.6538 1.82617C14.4268 1.82617 12.227 2.31627 10.2106 3.2617C8.19423 4.20713 6.41058 5.58472 4.98624 7.29673C4.95052 7.32893 4.92014 7.3666 4.89624 7.40833C2.66873 10.1212 1.45117 13.5227 1.45117 17.0329C1.45117 20.5431 2.66873 23.9447 4.89624 26.6575C4.91882 26.6918 4.94541 26.7232 4.97544 26.7511C7.22343 29.454 10.34 31.2927 13.7929 31.9532C17.2459 32.6137 20.821 32.0551 23.9078 30.3727L24.5486 32.6731C24.5711 32.752 24.6144 32.8233 24.674 32.8797C24.7335 32.9361 24.8071 32.9754 24.887 32.9935C24.9676 33.0094 25.051 33.0038 25.1287 32.9772C25.2064 32.9507 25.2758 32.9042 25.3298 32.8423L27.3242 30.4627L30.9026 34.0411C30.9437 34.0837 30.9929 34.1174 31.0474 34.1403C31.1018 34.1632 31.1604 34.1748 31.2194 34.1743C31.279 34.1744 31.338 34.1627 31.393 34.1399C31.448 34.117 31.4979 34.0834 31.5398 34.0411L34.517 31.0639C34.559 31.0221 34.5922 30.9725 34.6149 30.9178C34.6376 30.8631 34.6493 30.8045 34.6493 30.7453C34.6493 30.6861 34.6376 30.6275 34.6149 30.5729C34.5922 30.5182 34.559 30.4685 34.517 30.4267ZM12.9602 3.21433C11.3654 4.47073 10.0262 6.50833 9.10824 9.03913C8.00563 8.66674 6.94886 8.17036 5.95824 7.55953C7.81624 5.45654 10.251 3.94561 12.9602 3.21433ZM5.40024 8.25433C6.47597 8.93754 7.62879 9.49099 8.83465 9.90313C8.17063 12.0609 7.81669 14.3021 7.78344 16.5595H2.38344C2.4788 13.5372 3.53561 10.624 5.40024 8.24353V8.25433ZM2.36544 17.4739H7.78344C7.80871 19.7389 8.15661 21.9887 8.81664 24.1555C7.61732 24.5697 6.47069 25.1231 5.40024 25.8043C3.52695 23.4218 2.46368 20.5031 2.36544 17.4739ZM5.96544 26.4991C6.95391 25.8852 8.0081 25.3841 9.10824 25.0051C10.0262 27.5251 11.3654 29.5771 12.9602 30.8335C10.2518 30.1064 7.81685 28.5991 5.95824 26.4991H5.96544ZM16.2002 31.2979C13.5722 31.0351 11.2826 28.4791 9.93624 24.7351C11.9723 24.1414 14.0795 23.8266 16.2002 23.7991V31.2979ZM16.2002 22.8991C13.9829 22.9274 11.7798 23.2581 9.65184 23.8819C9.03218 21.8013 8.70385 19.6447 8.67624 17.4739H16.2002V22.8991ZM16.2002 16.5595H8.67985C8.70745 14.3875 9.03577 12.2298 9.65545 10.1479C11.7805 10.783 13.9826 11.1234 16.2002 11.1595V16.5595ZM16.2002 10.2307C14.0794 10.2051 11.972 9.89018 9.93624 9.29473C11.2862 5.56513 13.5758 3.01273 16.2002 2.74993V10.2307ZM29.5994 23.0827L25.0742 21.8191C25.3505 20.3866 25.5011 18.9327 25.5242 17.4739H30.9242C30.87 19.4143 30.4191 21.3231 29.5994 23.0827ZM30.9386 16.5595H25.5386C25.5021 14.2983 25.1458 12.0537 24.4802 9.89233C25.6872 9.48017 26.8412 8.92673 27.9182 8.24353C29.7842 10.6236 30.8423 13.5368 30.9386 16.5595ZM27.3602 7.55953C26.3726 8.17486 25.3182 8.67607 24.2174 9.05353C23.2994 6.53353 21.9602 4.48513 20.3654 3.22873C23.0704 3.95731 25.5023 5.46303 27.3602 7.55953ZM17.1038 2.74993C19.7282 3.01273 22.0214 5.56513 23.3642 9.30913C21.3298 9.9046 19.2235 10.2195 17.1038 10.2451V2.74993ZM17.1038 11.1451C19.3201 11.1184 21.5223 10.7877 23.6486 10.1623C24.2686 12.2393 24.5969 14.3922 24.6242 16.5595H17.1038V11.1451ZM17.1038 17.4739H24.6242C24.6013 18.8509 24.464 20.2236 24.2138 21.5779L21.989 20.9587C21.9122 20.9373 21.831 20.9367 21.7539 20.9569C21.6767 20.9772 21.6063 21.0176 21.5499 21.074C21.4935 21.1304 21.4531 21.2008 21.4328 21.278C21.4126 21.3551 21.4132 21.4363 21.4346 21.5131L21.9602 23.4535C20.3587 23.11 18.7273 22.9243 17.0894 22.8991L17.1038 17.4739ZM17.1038 23.7991C18.8377 23.8261 20.5637 24.0398 22.2518 24.4363L22.7522 26.2363C21.377 29.1595 19.3646 31.0711 17.1038 31.2979V23.7991ZM20.3438 30.8335C21.4726 29.9033 22.4051 28.7579 23.087 27.4639L23.6522 29.4799C22.6135 30.069 21.5043 30.5238 20.351 30.8335H20.3438ZM31.2122 33.0871L27.6122 29.4871C27.5711 29.4448 27.5218 29.4111 27.4674 29.3883C27.413 29.3654 27.3545 29.3537 27.2954 29.3539H27.2738C27.2116 29.357 27.1506 29.373 27.0948 29.4009C27.039 29.4288 26.9897 29.468 26.9498 29.5159L25.2002 31.6075L22.5146 22.0387L32.087 24.7099L29.9846 26.4739C29.9367 26.5138 29.8975 26.5631 29.8696 26.6189C29.8417 26.6747 29.8257 26.7357 29.8226 26.7979C29.8205 26.8605 29.8312 26.9227 29.8541 26.9809C29.8771 27.0392 29.9117 27.092 29.9558 27.1363L33.5558 30.7363L31.2122 33.0871Z" fill="#E7E7E7"/>
</svg>
