<svg width="36" height="36" viewBox="0 0 36 36" fill="none" xmlns="http://www.w3.org/2000/svg">
<path d="M14.2035 23.1051C14.0624 23.1052 13.926 23.0548 13.8187 22.9632L9.97273 19.6884C9.90719 19.6326 9.85456 19.5632 9.81846 19.4851C9.78237 19.4069 9.76367 19.3219 9.76367 19.2358C9.76367 19.1497 9.78237 19.0647 9.81846 18.9866C9.85456 18.9084 9.90719 18.8391 9.97273 18.7833L13.8187 15.5084C13.9387 15.4062 14.0943 15.3559 14.2514 15.3684C14.4085 15.381 14.5542 15.4554 14.6565 15.5754C14.8691 15.8255 14.8392 16.2005 14.5891 16.4131L11.2748 19.2356L14.5891 22.0581C14.6818 22.1369 14.7481 22.2423 14.779 22.36C14.8098 22.4777 14.8038 22.6021 14.7618 22.7162C14.7197 22.8304 14.6436 22.9289 14.5437 22.9985C14.4439 23.068 14.3252 23.1053 14.2035 23.1051ZM21.7958 23.1051C21.6276 23.1051 21.4606 23.0341 21.3431 22.8958C21.2409 22.7759 21.1906 22.6202 21.2031 22.4631C21.2157 22.306 21.2902 22.1603 21.4101 22.0581L24.7244 19.2356L21.4101 16.4131C21.2944 16.3097 21.2237 16.1652 21.2132 16.0104C21.2026 15.8556 21.2531 15.7028 21.3537 15.5846C21.4543 15.4665 21.5971 15.3924 21.7516 15.3781C21.9061 15.3639 22.06 15.4106 22.1806 15.5084L26.0265 18.7832C26.0921 18.839 26.1447 18.9083 26.1808 18.9865C26.2169 19.0646 26.2356 19.1497 26.2356 19.2357C26.2356 19.3218 26.2169 19.4068 26.1808 19.485C26.1447 19.5631 26.0921 19.6325 26.0265 19.6883L22.1806 22.9631C22.0733 23.0548 21.9369 23.1051 21.7958 23.1051H21.7958ZM16.6382 25.5614C16.5496 25.5616 16.4622 25.5419 16.3822 25.5039C16.3023 25.4659 16.2318 25.4105 16.176 25.3418C16.1202 25.2731 16.0804 25.1928 16.0596 25.1067C16.0388 25.0207 16.0375 24.931 16.0557 24.8444L18.4526 13.464C18.4851 13.3098 18.5776 13.1747 18.7096 13.0886C18.8417 13.0026 19.0025 12.9725 19.1568 13.005C19.311 13.0375 19.446 13.1299 19.5321 13.262C19.6182 13.394 19.6483 13.5549 19.6158 13.7091L17.2189 25.0895C17.1909 25.2228 17.1179 25.3424 17.0121 25.4283C16.9064 25.5142 16.7744 25.5612 16.6382 25.5614Z" fill="#E7E7E7"/>
<path d="M32.0094 31.762H3.99057C1.79032 31.762 0 29.972 0 27.7715V3.99057C0 1.79032 1.79032 0 3.99057 0H32.0094C34.2097 0 36 1.79032 36 3.99057V27.7715C36 29.972 34.2097 31.762 32.0094 31.762ZM3.99057 1.18868C2.44571 1.18868 1.18868 2.44571 1.18868 3.99057V27.7715C1.18868 29.3163 2.44571 30.5733 3.99057 30.5733H32.0094C33.5543 30.5733 34.8113 29.3163 34.8113 27.7715V3.99057C34.8113 2.44571 33.5543 1.18868 32.0094 1.18868H3.99057Z" fill="#E7E7E7"/>
<path d="M35.4055 9.51658H0.594144C0.438255 9.51394 0.289642 9.45017 0.180331 9.33899C0.0710212 9.22782 0.00976562 9.07815 0.00976562 8.92224C0.00976562 8.76633 0.0710212 8.61666 0.180331 8.50548C0.289642 8.39431 0.438255 8.33053 0.594144 8.3279H35.4055C35.5614 8.33053 35.71 8.39431 35.8193 8.50548C35.9286 8.61666 35.9898 8.76633 35.9898 8.92224C35.9898 9.07815 35.9286 9.22782 35.8193 9.33899C35.71 9.45017 35.5614 9.51394 35.4055 9.51658ZM10.1547 6.67258C9.11791 6.67258 8.27378 5.82845 8.27378 4.79166C8.27378 3.75463 9.11791 2.91083 10.1547 2.91083C11.1917 2.91083 12.0355 3.75463 12.0355 4.79166C12.0355 5.82845 11.1917 6.67258 10.1547 6.67258ZM10.1547 4.09951C9.77321 4.09951 9.46245 4.40993 9.46245 4.79166C9.46245 5.1734 9.77321 5.4839 10.1547 5.4839C10.5364 5.4839 10.8468 5.17348 10.8468 4.79166C10.8468 4.40984 10.5364 4.09951 10.1547 4.09951ZM4.37584 6.65432C3.33863 6.65432 2.49493 5.81053 2.49493 4.77349C2.49493 3.73637 3.33863 2.89258 4.37576 2.89258C5.41288 2.89258 6.25659 3.73637 6.25659 4.77349C6.25659 5.81053 5.41296 6.65432 4.37584 6.65432ZM4.37584 4.08126C3.99436 4.08126 3.68361 4.39201 3.68361 4.77349C3.68361 5.15523 3.99436 5.46564 4.37576 5.46564C4.75749 5.46564 5.06791 5.15523 5.06791 4.77349C5.06791 4.39201 4.75758 4.08126 4.37584 4.08126ZM15.9335 6.69049C14.8968 6.69049 14.0531 5.8467 14.0531 4.80958C14.0531 3.77288 14.8968 2.92909 15.9335 2.92909C16.9707 2.92909 17.8144 3.7728 17.8144 4.80958C17.8144 5.8467 16.9707 6.69049 15.9335 6.69049ZM15.9335 4.11743C15.5521 4.11743 15.2417 4.42784 15.2417 4.80958C15.2417 5.19131 15.5521 5.50181 15.9335 5.50181C16.3153 5.50181 16.6257 5.19131 16.6257 4.80958C16.6257 4.42784 16.3153 4.11743 15.9335 4.11743Z" fill="#E7E7E7"/>
</svg>
