<svg width="36" height="36" viewBox="0 0 36 36" fill="none" xmlns="http://www.w3.org/2000/svg">
<path d="M4.20771 11.9482C4.07618 11.8174 3.89363 11.7422 3.70755 11.7422C3.52146 11.7422 3.33899 11.8174 3.20731 11.9482C3.07564 12.079 3 12.2604 3 12.4453C3 12.6302 3.07564 12.8116 3.20731 12.9424C3.33892 13.0732 3.52146 13.1484 3.70755 13.1484C3.89363 13.1484 4.07618 13.0732 4.20771 12.9424C4.33939 12.8116 4.41509 12.6302 4.41509 12.4453C4.41509 12.2604 4.33939 12.079 4.20771 11.9482ZM30.8774 0H16.5613C16.1706 0 15.8538 0.314859 15.8538 0.703125C15.8538 1.09139 16.1706 1.40625 16.5613 1.40625H30.8774C31.2675 1.40625 31.5849 1.72167 31.5849 2.10938V33.8906C31.5849 34.2783 31.2675 34.5938 30.8774 34.5938H5.12264C4.7325 34.5938 4.41509 34.2783 4.41509 33.8906V15.0703C4.41509 14.682 4.09825 14.3672 3.70755 14.3672C3.31684 14.3672 3 14.682 3 15.0703V33.8906C3 35.0537 3.95222 36 5.12264 36H30.8774C32.0478 36 33 35.0537 33 33.8906V2.10938C33 0.946266 32.0478 0 30.8774 0Z" fill="#E7E7E7"/>
<path d="M17.9991 2.8125C17.5177 2.8125 17.0339 2.84906 16.5611 2.92106C16.1748 2.97998 15.9097 3.33879 15.9689 3.72263C16.0282 4.10646 16.3894 4.36957 16.7755 4.31107C17.1805 4.24957 17.5895 4.21871 17.9991 4.21875C22.4078 4.21875 25.9945 7.78303 25.9945 12.1641C25.9945 14.1097 25.2868 15.8937 24.1142 17.2766C23.5954 16.3899 22.8867 15.6251 22.0265 15.0319C21.5292 14.6888 20.9894 14.4108 20.4205 14.2048C21.065 13.5788 21.4661 12.7065 21.4661 11.7423V11.0568C21.4661 9.15694 19.9108 7.6114 17.9991 7.6114C16.0874 7.6114 14.5321 9.15694 14.5321 11.0568V11.7423C14.5321 12.7065 14.9332 13.5788 15.5777 14.2048C15.0088 14.4108 14.4691 14.6888 13.9717 15.0319C13.1074 15.628 12.3959 16.3971 11.8764 17.2891C10.983 16.234 10.3585 14.9363 10.1142 13.4887C10.0496 13.1058 9.68444 12.8475 9.29939 12.9116C8.91399 12.9757 8.65397 13.3383 8.71857 13.7213C9.08239 15.8771 10.2086 17.8503 11.8898 19.2774C13.5901 20.7209 15.7598 21.5158 17.999 21.5158C23.188 21.5158 27.4095 17.3207 27.4095 12.1642C27.4095 7.0077 23.188 2.8125 17.9991 2.8125ZM15.9472 11.0567C15.9472 9.93234 16.8677 9.01758 17.9991 9.01758C19.1305 9.01758 20.051 9.93234 20.051 11.0567V11.7423C20.051 12.8666 19.1305 13.7813 17.9991 13.7813C16.8677 13.7813 15.9472 12.8666 15.9472 11.7423V11.0567ZM17.9991 20.1095C16.0835 20.1095 14.3125 19.4448 12.9264 18.3178C13.8765 16.4017 15.8188 15.1876 17.9991 15.1876C20.1749 15.1876 22.1135 16.3967 23.0657 18.3059C21.6855 19.4323 19.9204 20.1095 17.9991 20.1095ZM24.5338 27.9845H14.4866C14.0959 27.9845 13.7791 28.2994 13.7791 28.6876C13.7791 29.0759 14.0959 29.3908 14.4866 29.3908H24.5338C24.9246 29.3908 25.2413 29.0759 25.2413 28.6876C25.2413 28.2994 24.9245 27.9845 24.5338 27.9845ZM11.9644 24.2529C11.8328 24.122 11.6503 24.0469 11.4642 24.0469C11.2781 24.0469 11.0956 24.1221 10.964 24.2529C10.8324 24.3837 10.7567 24.5651 10.7567 24.75C10.7572 24.9363 10.8317 25.115 10.964 25.247C11.0956 25.3779 11.2781 25.4531 11.4642 25.4531C11.6503 25.4531 11.8328 25.3779 11.9644 25.247C12.0967 25.1163 12.1717 24.9349 12.1717 24.75C12.1717 24.5651 12.0967 24.3837 11.9644 24.2529ZM11.9644 28.1904C11.8315 28.0589 11.6518 27.9848 11.4642 27.9844C11.2781 27.9844 11.0956 28.0596 10.964 28.1904C10.8324 28.3212 10.7567 28.5026 10.7567 28.6875C10.7572 28.8738 10.8317 29.0525 10.964 29.1845C11.0956 29.3154 11.2781 29.3906 11.4642 29.3906C11.6503 29.3906 11.8328 29.3154 11.9644 29.1845C12.097 29.0527 12.1716 28.8739 12.1717 28.6875C12.1717 28.5026 12.0967 28.3212 11.9644 28.1904ZM24.5338 24.047H14.4866C14.0959 24.047 13.7791 24.3619 13.7791 24.7501C13.7791 25.1384 14.0959 25.4533 14.4866 25.4533H24.5338C24.9246 25.4533 25.2413 25.1384 25.2413 24.7501C25.2413 24.3619 24.9245 24.047 24.5338 24.047ZM11.3217 4.05204C11.0453 3.77754 10.5974 3.77754 10.321 4.05204L8.01682 6.34184L7.22939 5.55933C6.95295 5.28483 6.50508 5.28483 6.22871 5.55933C5.95241 5.83397 5.95241 6.27919 6.22871 6.55376L7.51644 7.83345C7.58207 7.89883 7.66006 7.95068 7.74592 7.98603C7.83178 8.02137 7.92382 8.0395 8.01675 8.03939C8.19788 8.03939 8.37887 7.9707 8.51713 7.83352L11.3217 5.04647C11.598 4.77183 11.598 4.32661 11.3217 4.05204Z" fill="#E7E7E7"/>
<path d="M8.80189 0C5.60271 0 3 2.58645 3 5.76562C3 8.94481 5.60271 11.5312 8.80189 11.5312C12.0011 11.5312 14.6038 8.94481 14.6038 5.76562C14.6038 2.58645 12.0011 0 8.80189 0ZM8.80189 10.125C6.383 10.125 4.41509 8.1694 4.41509 5.76562C4.41509 3.36185 6.383 1.40625 8.80189 1.40625C11.2208 1.40625 13.1887 3.36185 13.1887 5.76562C13.1887 8.1694 11.2208 10.125 8.80189 10.125Z" fill="#E7E7E7"/>
</svg>
