<svg width="48" height="48" viewBox="0 0 48 48" fill="none" xmlns="http://www.w3.org/2000/svg">
<path d="M24.4134 6.83635C26.3945 6.8355 28.295 7.62174 29.6961 9.02231C31.0975 10.4228 31.885 12.3228 31.8852 14.3039C31.8855 16.2849 31.0987 18.1851 29.6979 19.586C28.2968 20.9868 26.3969 21.7739 24.4155 21.7736C22.4344 21.7733 20.5345 20.9859 19.1342 19.5845C17.7337 18.1832 16.9472 16.2829 16.948 14.3018C16.9505 12.3225 17.738 10.4251 19.1374 9.02567C20.537 7.62627 22.4344 6.83891 24.4135 6.83628M24.4135 5.23633C22.0081 5.23547 19.7008 6.1903 17.9994 7.89082C16.298 9.59134 15.3421 11.8984 15.3418 14.3038C15.3415 16.7095 16.2969 19.0162 17.998 20.7173C19.6988 22.4182 22.0059 23.3738 24.4115 23.3735C26.8169 23.3732 29.1237 22.4173 30.8242 20.7159C32.5247 19.0145 33.4799 16.7071 33.479 14.3018C33.479 11.8973 32.5238 9.5917 30.8236 7.89141C29.1237 6.19147 26.8177 5.23633 24.4135 5.23633Z" fill="white"/>
<path d="M26.0127 26.0355C30.2545 26.0406 34.3207 27.7278 37.3202 30.7273C40.3199 33.7267 42.0069 37.7931 42.012 42.0349H6.81313C6.81828 37.793 8.50539 33.7268 11.505 30.7273C14.5043 27.7277 18.5707 26.0406 22.8125 26.0355H26.0124M26.0124 24.4355H22.8125C18.145 24.4355 13.6685 26.2898 10.3676 29.5903C7.06678 32.8907 5.21289 37.3673 5.21289 42.0351C5.21289 42.4594 5.38146 42.8665 5.68144 43.1666C5.98143 43.4666 6.38857 43.6351 6.81286 43.6351H42.0118C42.436 43.6351 42.8431 43.4665 43.1432 43.1666C43.4432 42.8666 43.6117 42.4594 43.6117 42.0351C43.6117 37.3676 41.7575 32.8911 38.457 29.5903C35.1565 26.2894 30.68 24.4355 26.0121 24.4355H26.0124Z" fill="white"/>
</svg>
