<svg width="15" height="16" viewBox="0 0 15 16" fill="none" xmlns="http://www.w3.org/2000/svg">
<path d="M13.9059 2.86986C13.6972 2.6609 13.3588 2.66054 13.1502 2.86897L6.73883 9.2634L4.42564 6.75104C4.22576 6.53408 3.88781 6.52001 3.67049 6.71986C3.45333 6.91974 3.43942 7.25785 3.6393 7.47501L6.32927 10.3964C6.42778 10.5034 6.56565 10.5656 6.71102 10.5686C6.71493 10.5688 6.7187 10.5688 6.72243 10.5688C6.86371 10.5688 6.99961 10.5127 7.09973 10.4129L13.9048 3.6257C14.1139 3.41729 14.1143 3.07882 13.9059 2.86986Z" fill="#0BB64F"/>
<path d="M13.7766 7.48728C13.4814 7.48728 13.2422 7.72651 13.2422 8.02172C13.2422 11.342 10.5412 14.0429 7.22094 14.0429C3.9009 14.0429 1.19972 11.342 1.19972 8.02172C1.19972 4.70168 3.9009 2.0005 7.22094 2.0005C7.51612 2.0005 7.75538 1.76126 7.75538 1.46608C7.75538 1.17088 7.51612 0.931641 7.22094 0.931641C3.31143 0.931641 0.130859 4.11221 0.130859 8.02172C0.130859 11.9311 3.31143 15.1118 7.22094 15.1118C11.1303 15.1118 14.311 11.9311 14.311 8.02172C14.311 7.72654 14.0718 7.48728 13.7766 7.48728Z" fill="#0BB64F"/>
</svg>
