<svg width="69" height="69" viewBox="0 0 69 69" fill="none" xmlns="http://www.w3.org/2000/svg">
<path d="M0.503906 6.54074C0.503906 3.48068 2.98458 1 6.04465 1H62.4595C65.5196 1 68.0002 3.48067 68.0002 6.54074V62.9556C68.0002 66.0157 65.5196 68.4963 62.4595 68.4963H6.04465C2.98459 68.4963 0.503906 66.0157 0.503906 62.9556V6.54074Z" stroke="#262626"/>
<path d="M67.4963 40.7925H0V68.9999H67.4963V40.7925Z" fill="url(#paint0_radial_37_4402)"/>
<path fill-rule="evenodd" clip-rule="evenodd" d="M24.922 19.25H43.078C44.4265 19.25 45.55 19.25 46.441 19.37C47.383 19.496 48.2335 19.775 48.916 20.4575C49.6 21.1415 49.879 21.992 50.005 22.9325C50.125 23.825 50.125 24.95 50.125 26.297V26.453C50.125 27.8 50.125 28.925 50.005 29.816C49.879 30.758 49.6 31.6085 48.916 32.291C48.2335 32.975 47.383 33.254 46.441 33.38C45.55 33.5 44.4265 33.5 43.078 33.5H24.922C23.575 33.5 22.45 33.5 21.559 33.38C20.617 33.254 19.7665 32.975 19.084 32.291C18.4 31.6085 18.121 30.758 17.995 29.816C17.875 28.925 17.875 27.8 17.875 26.453V26.297C17.875 24.95 17.875 23.825 17.995 22.934C18.121 21.992 18.4 21.1415 19.0825 20.459C19.7665 19.775 20.617 19.496 21.5575 19.37C22.45 19.25 23.5735 19.25 24.922 19.25ZM21.8575 21.6005C21.166 21.6935 20.869 21.854 20.674 22.0505C20.479 22.247 20.3185 22.541 20.224 23.2325C20.128 23.957 20.125 24.929 20.125 26.375C20.125 27.821 20.128 28.793 20.2255 29.5175C20.3185 30.209 20.479 30.506 20.6755 30.701C20.872 30.896 21.166 31.0565 21.8575 31.151C22.582 31.2455 23.554 31.25 25 31.25H43C44.446 31.25 45.418 31.247 46.1425 31.1495C46.834 31.0565 47.131 30.896 47.326 30.6995C47.521 30.503 47.6815 30.209 47.776 29.5175C47.872 28.793 47.875 27.821 47.875 26.375C47.875 24.929 47.872 23.957 47.7745 23.2325C47.6815 22.541 47.521 22.244 47.3245 22.049C47.128 21.854 46.834 21.6935 46.1425 21.599C45.418 21.5045 44.446 21.5 43 21.5H25C23.554 21.5 22.582 21.503 21.8575 21.6005ZM23.875 26.375C23.875 26.0766 23.9935 25.7905 24.2045 25.5795C24.4155 25.3685 24.7016 25.25 25 25.25H28C28.1477 25.25 28.294 25.2791 28.4305 25.3356C28.567 25.3922 28.691 25.475 28.7955 25.5795C28.9 25.684 28.9828 25.808 29.0394 25.9445C29.0959 26.081 29.125 26.2273 29.125 26.375C29.125 26.5227 29.0959 26.669 29.0394 26.8055C28.9828 26.942 28.9 27.066 28.7955 27.1705C28.691 27.275 28.567 27.3578 28.4305 27.4144C28.294 27.4709 28.1477 27.5 28 27.5H25C24.7016 27.5 24.4155 27.3815 24.2045 27.1705C23.9935 26.9595 23.875 26.6734 23.875 26.375ZM31.375 26.375C31.375 26.0766 31.4935 25.7905 31.7045 25.5795C31.9155 25.3685 32.2016 25.25 32.5 25.25H43C43.2984 25.25 43.5845 25.3685 43.7955 25.5795C44.0065 25.7905 44.125 26.0766 44.125 26.375C44.125 26.6734 44.0065 26.9595 43.7955 27.1705C43.5845 27.3815 43.2984 27.5 43 27.5H32.5C32.2016 27.5 31.9155 27.3815 31.7045 27.1705C31.4935 26.9595 31.375 26.6734 31.375 26.375ZM24.922 35.75H43.078C44.4265 35.75 45.55 35.75 46.441 35.87C47.383 35.996 48.2335 36.275 48.916 36.959C49.6 37.6415 49.879 38.492 50.005 39.434C50.125 40.325 50.125 41.4485 50.125 42.797V42.953C50.125 44.3015 50.125 45.425 50.005 46.316C49.879 47.258 49.6 48.1085 48.916 48.791C48.2335 49.475 47.383 49.754 46.441 49.88C45.55 50 44.4265 50 43.078 50H24.922C23.575 50 22.45 50 21.559 49.88C20.617 49.754 19.7665 49.475 19.084 48.791C18.4 48.1085 18.121 47.258 17.995 46.316C17.875 45.425 17.875 44.3015 17.875 42.953V42.797C17.875 41.4485 17.875 40.325 17.995 39.434C18.121 38.492 18.4 37.6415 19.0825 36.959C19.7665 36.275 20.617 35.996 21.5575 35.87C22.45 35.75 23.575 35.75 24.922 35.75ZM21.8575 38.099C21.166 38.1935 20.869 38.354 20.674 38.549C20.479 38.744 20.3185 39.041 20.224 39.734C20.128 40.457 20.125 41.429 20.125 42.875C20.125 44.321 20.128 45.293 20.2255 46.0175C20.3185 46.709 20.479 47.006 20.6755 47.201C20.872 47.396 21.166 47.5565 21.8575 47.651C22.582 47.747 23.554 47.75 25 47.75H43C44.446 47.75 45.418 47.747 46.1425 47.6495C46.834 47.5565 47.131 47.396 47.326 47.1995C47.521 47.003 47.6815 46.709 47.776 46.0175C47.872 45.293 47.875 44.321 47.875 42.875C47.875 41.429 47.872 40.457 47.7745 39.7325C47.6815 39.041 47.521 38.744 47.3245 38.549C47.128 38.354 46.834 38.1935 46.1425 38.099C45.418 38.0045 44.446 38 43 38H25C23.554 38 22.582 38.003 21.8575 38.099ZM23.875 42.875C23.875 42.5766 23.9935 42.2905 24.2045 42.0795C24.4155 41.8685 24.7016 41.75 25 41.75H28C28.2984 41.75 28.5845 41.8685 28.7955 42.0795C29.0065 42.2905 29.125 42.5766 29.125 42.875C29.125 43.1734 29.0065 43.4595 28.7955 43.6705C28.5845 43.8815 28.2984 44 28 44H25C24.7016 44 24.4155 43.8815 24.2045 43.6705C23.9935 43.4595 23.875 43.1734 23.875 42.875ZM31.375 42.875C31.375 42.5766 31.4935 42.2905 31.7045 42.0795C31.9155 41.8685 32.2016 41.75 32.5 41.75H43C43.2984 41.75 43.5845 41.8685 43.7955 42.0795C44.0065 42.2905 44.125 42.5766 44.125 42.875C44.125 43.1734 44.0065 43.4595 43.7955 43.6705C43.5845 43.8815 43.2984 44 43 44H32.5C32.2016 44 31.9155 43.8815 31.7045 43.6705C31.4935 43.4595 31.375 43.1734 31.375 42.875Z" fill="white"/>
<defs>
<radialGradient id="paint0_radial_37_4402" cx="0" cy="0" r="1" gradientUnits="userSpaceOnUse" gradientTransform="translate(33.7481 68.9999) scale(33.7481 28.2074)">
<stop stop-color="white" stop-opacity="0.12"/>
<stop offset="1" stop-color="white" stop-opacity="0"/>
</radialGradient>
</defs>
</svg>

