<svg width="36" height="36" viewBox="0 0 36 36" fill="none" xmlns="http://www.w3.org/2000/svg">
<path d="M18.9863 22.9219C19.3745 22.9219 19.6895 22.6069 19.6895 22.2188C19.6895 21.8306 19.3745 21.5156 18.9863 21.5156C18.5982 21.5156 18.2832 21.8306 18.2832 22.2188C18.2832 22.6069 18.5982 22.9219 18.9863 22.9219Z" fill="white"/>
<path d="M0.135668 22.5112C0.57082 24.3613 1.26045 26.142 2.18486 27.8025C3.1096 29.4631 4.26052 30.9872 5.60464 32.3311L5.62714 32.3539V35.2969C5.62714 35.6852 5.94193 36 6.33027 36H18.9865C19.3749 36 19.6896 35.6852 19.6896 35.2969V32.2729C21.5253 29.4447 22.5022 26.1453 22.5021 22.7736V17.2969C22.5021 15.7461 21.2404 14.4844 19.6896 14.4844C19.111 14.4844 18.5727 14.6602 18.1249 14.9612C17.7402 13.8658 16.6962 13.0781 15.4709 13.0781C14.8922 13.0781 14.3539 13.2539 13.9062 13.5549C13.5214 12.4596 12.4774 11.6719 11.2521 11.6719C10.7504 11.6719 10.2689 11.8031 9.8459 12.0484V5.625C9.8459 4.07123 8.58744 2.8125 7.03339 2.8125C5.48272 2.8125 4.22089 4.07426 4.22089 5.625V15.7486L2.2994 17.0297C0.514372 18.2197 -0.355464 20.4224 0.135668 22.5112ZM3.07965 18.1997L4.22089 17.4386V22.2188C4.22089 22.6071 4.53568 22.9219 4.92402 22.9219C5.31236 22.9219 5.62714 22.6071 5.62714 22.2188V5.625C5.62714 4.84966 6.25806 4.21875 7.03339 4.21875C7.81014 4.21875 8.43964 4.84826 8.43964 5.625V19.4062C8.43964 19.7946 8.75443 20.1094 9.14277 20.1094C9.53111 20.1094 9.8459 19.7946 9.8459 19.4062V14.4844C9.8459 13.7076 10.4754 13.0781 11.2521 13.0781C12.0276 13.0781 12.6584 13.709 12.6584 14.4844V19.4062C12.6584 19.7946 12.9732 20.1094 13.3615 20.1094C13.7499 20.1094 14.0646 19.7946 14.0646 19.4062V15.8906C14.0646 15.1153 14.6956 14.4844 15.4709 14.4844C16.2462 14.4844 16.8771 15.1153 16.8771 15.8906V19.4062C16.8771 19.7946 17.1919 20.1094 17.5803 20.1094C17.9686 20.1094 18.2834 19.7946 18.2834 19.4062V17.2969C18.2834 16.5215 18.9143 15.8906 19.6896 15.8906C20.465 15.8906 21.0959 16.5215 21.0959 17.2969V22.7735C21.0959 25.9223 20.1692 29.0209 18.4015 31.6725C18.3246 31.788 18.2835 31.9237 18.2834 32.0625V34.5938H7.03339V32.0625C7.03335 31.876 6.95925 31.6972 6.82738 31.5654C6.67853 31.3959 4.92128 29.8266 3.41343 27.1184C2.55244 25.5715 1.90995 23.9127 1.5043 22.1894C1.14718 20.6694 1.78028 19.0659 3.07965 18.1997Z" fill="white"/>
<path d="M16.2562 31.0872C16.5787 31.3022 17.0154 31.2163 17.2313 30.8924C18.3983 29.1429 19.1611 27.2071 19.4983 25.1386C19.5606 24.7555 19.3006 24.394 18.9174 24.3317C18.534 24.2691 18.1728 24.5291 18.1102 24.9124C17.8056 26.7814 17.1165 28.5306 16.0615 30.1122C15.8459 30.4351 15.9331 30.8715 16.2562 31.0872ZM2.11133 6.32812C2.49973 6.32812 2.81445 6.01334 2.81445 5.625C2.81445 3.29864 4.70712 1.40625 7.0332 1.40625C9.35956 1.40625 11.252 3.29864 11.252 5.625C11.252 6.01334 11.5667 6.32812 11.9551 6.32812C12.3434 6.32812 12.6582 6.01334 12.6582 5.625C12.6582 2.5233 10.135 0 7.0332 0C3.93144 0 1.4082 2.5233 1.4082 5.625C1.4082 6.01334 1.72299 6.32812 2.11133 6.32812Z" fill="white"/>
</svg>
