<svg width="36" height="36" viewBox="0 0 36 36" fill="none" xmlns="http://www.w3.org/2000/svg">
<path d="M0.324945 19.6287C0.0997901 20.0564 -0.0117602 20.5348 0.000981035 21.018C0.0137223 21.5011 0.150328 21.9729 0.397711 22.3882C0.645093 22.8034 0.994963 23.1482 1.4138 23.3894C1.83264 23.6306 2.30641 23.7603 2.78972 23.7659H9.91201C9.90957 24.1883 9.99039 24.6071 10.1498 24.9983C10.3093 25.3895 10.5443 25.7454 10.8414 26.0458C11.1384 26.3461 11.4918 26.585 11.8812 26.7487C12.2706 26.9124 12.6885 26.9978 13.1109 27H22.705C23.128 26.9997 23.5467 26.9156 23.937 26.7525C24.3272 26.5894 24.6813 26.3506 24.9787 26.0499C25.2762 25.7492 25.5111 25.3925 25.6699 25.0005C25.8287 24.6085 25.9082 24.1889 25.9039 23.7659H33.0262C33.5095 23.7603 33.9833 23.6306 34.4021 23.3894C34.821 23.1482 35.1708 22.8034 35.4182 22.3882C35.6656 21.9729 35.8022 21.5011 35.8149 21.018C35.8277 20.5348 35.7161 20.0564 35.491 19.6287C34.616 18.0078 33.1673 16.772 31.4287 16.1636C31.9146 15.7892 32.3082 15.3083 32.5792 14.758C32.8502 14.2076 32.9913 13.6025 32.9916 12.989C32.8009 7.67033 25.1448 7.67033 24.9547 12.989C24.9553 13.6026 25.0966 14.2078 25.3677 14.7582C25.6389 15.3085 26.0328 15.7893 26.519 16.1636C24.9501 16.7163 23.6141 17.7832 22.7281 19.1909C22.064 18.7448 21.3411 18.3933 20.5801 18.1464C21.1876 17.7191 21.6835 17.152 22.026 16.4929C22.3686 15.8338 22.5476 15.1021 22.5482 14.3593C22.3306 8.22012 13.4853 8.2182 13.2677 14.3593C13.2683 15.1021 13.4474 15.8338 13.7899 16.4929C14.1324 17.152 14.6283 17.7191 15.2358 18.1464C14.4746 18.3932 13.7515 18.7448 13.0872 19.1909C12.1996 17.785 10.8644 16.7188 9.29694 16.1642C9.78314 15.79 10.177 15.3092 10.4482 14.7588C10.7194 14.2085 10.8607 13.6032 10.8612 12.9897C10.6769 7.67609 3.01181 7.66777 2.82428 12.9897C2.82475 13.603 2.9659 14.208 3.23685 14.7583C3.50781 15.3085 3.90136 15.7893 4.38724 16.1636C2.64866 16.7721 1.19995 18.0078 0.324945 19.6287ZM26.2348 12.989C26.2458 12.27 26.5391 11.5842 27.0515 11.0796C27.5638 10.575 28.2541 10.2922 28.9732 10.2922C29.6923 10.2922 30.3825 10.575 30.8949 11.0796C31.4072 11.5842 31.7006 12.27 31.7116 12.989C31.7006 13.708 31.4072 14.3939 30.8949 14.8985C30.3825 15.403 29.6923 15.6859 28.9732 15.6859C28.2541 15.6859 27.5638 15.403 27.0515 14.8985C26.5391 14.3939 26.2458 13.708 26.2348 12.989ZM28.9684 17.0078C30.0757 17.0069 31.1625 17.3066 32.1127 17.8751C33.063 18.4435 33.841 19.2594 34.3639 20.2355C34.4864 20.4679 34.5472 20.7278 34.5405 20.9905C34.5337 21.2531 34.4597 21.5096 34.3255 21.7354C34.1912 21.9612 34.0013 22.1488 33.7738 22.2802C33.5463 22.4116 33.2889 22.4824 33.0262 22.4858H25.6197C25.1593 21.5384 24.5209 20.6883 23.7393 19.982C24.2812 19.0781 25.0473 18.3294 25.9634 17.8084C26.8794 17.2873 27.9145 17.0116 28.9684 17.0078ZM14.5484 14.3593C14.6892 9.91877 21.1273 9.92005 21.2675 14.3593C21.1267 18.7999 14.6886 18.7992 14.5484 14.3593ZM24.3941 22.8782C24.5492 23.1716 24.6263 23.4999 24.618 23.8317C24.6097 24.1635 24.5163 24.4876 24.3467 24.7729C24.1771 25.0582 23.9371 25.2951 23.6496 25.4609C23.3621 25.6268 23.0369 25.716 22.705 25.7199H13.1109C12.7777 25.7193 12.4504 25.6323 12.1609 25.4673C11.8715 25.3023 11.6298 25.065 11.4595 24.7786C11.2892 24.4923 11.1961 24.1666 11.1894 23.8335C11.1827 23.5003 11.2626 23.1712 11.4212 22.8782C14.1042 17.7438 21.7123 17.7445 24.3941 22.8782ZM4.10435 12.9897C4.11534 12.2706 4.40868 11.5848 4.92103 11.0802C5.43338 10.5756 6.12363 10.2928 6.84273 10.2928C7.56183 10.2928 8.25208 10.5756 8.76443 11.0802C9.27678 11.5848 9.57012 12.2706 9.58112 12.9897C9.57012 13.7087 9.27678 14.3945 8.76443 14.8991C8.25208 15.4037 7.56183 15.6865 6.84273 15.6865C6.12363 15.6865 5.43338 15.4037 4.92103 14.8991C4.40868 14.3945 4.11534 13.7087 4.10435 12.9897ZM6.83729 17.0078C7.8928 17.0108 8.92967 17.2861 9.84755 17.8073C10.7654 18.3285 11.5332 19.0778 12.0766 19.9827C11.2951 20.6888 10.6567 21.5386 10.1962 22.4858H2.79036C2.52767 22.4824 2.27026 22.4116 2.04277 22.2802C1.81528 22.1488 1.62533 21.9612 1.49109 21.7354C1.35685 21.5096 1.28283 21.2531 1.27611 20.9905C1.26938 20.7278 1.33018 20.4679 1.45268 20.2355C1.97464 19.261 2.75099 18.4462 3.69916 17.8779C4.64732 17.3095 5.73183 17.0088 6.83729 17.0078Z" fill="white"/>
</svg>
