<svg width="36" height="37" viewBox="0 0 36 37" fill="none" xmlns="http://www.w3.org/2000/svg">
<path d="M34.6685 10.6107C34.5365 10.4779 34.3581 10.403 34.1712 10.403L30.6243 10.3973V6.78243C30.6243 6.3924 30.3096 6.07585 29.9219 6.07585H26.4888L26.6728 4.66833C26.6981 4.47614 26.6433 4.28253 26.5225 4.13273C26.4017 3.98294 26.2247 3.88825 26.0322 3.87271L6.04436 2.2631C5.85051 2.2518 5.6693 2.30974 5.52601 2.4341C5.38273 2.55846 5.29704 2.73652 5.28721 2.9273L5.1074 6.07585H1.82736C1.43966 6.07585 1.125 6.3924 1.125 6.78243V27.98C1.125 28.3701 1.43966 28.6866 1.82736 28.6866H3.17309L2.82472 31.496C2.80084 31.6868 2.85563 31.879 2.97643 32.0288C3.09724 32.1772 3.27283 32.2719 3.46387 32.2874L23.4503 33.9125C23.47 33.914 23.4883 33.9154 23.5079 33.9154C23.869 33.9154 24.1766 33.6356 24.2061 33.2667L24.2356 32.912H34.0869C34.4732 32.912 34.7879 32.5969 34.7893 32.2083L34.875 11.1124C34.875 10.9244 34.8005 10.745 34.6685 10.6107ZM6.64839 3.72857L25.1824 5.22229L25.0714 6.07585H6.51494L6.64839 3.72857ZM2.52973 7.48902H5.69037C5.70441 7.49044 5.71565 7.49891 5.7297 7.49891C5.75077 7.49891 5.77044 7.49044 5.79151 7.48902H25.5771C25.5841 7.48902 25.5883 7.49326 25.594 7.49467C25.6249 7.49891 25.6558 7.50033 25.6867 7.50033C25.7091 7.50033 25.7288 7.49044 25.7499 7.48902H29.2182V27.2735H2.52832L2.52973 7.48902ZM4.30952 30.9392L4.58906 28.6866H23.1722L22.866 32.4471L4.30952 30.9392ZM33.386 31.4988H24.3508L24.5797 28.6866H29.9219C30.3096 28.6866 30.6243 28.3701 30.6243 27.98V11.8091L33.4647 11.8147L33.386 31.4988ZM15.1779 14.5337C14.9377 14.5337 14.8871 14.5337 12.3249 15.6671L12.6522 12.9637C12.6915 12.6485 12.6058 12.3532 12.412 12.1327C12.0482 11.7187 11.4666 11.7187 11.0424 11.7187C8.25821 11.7187 5.90389 13.8186 5.56675 16.6026C5.37571 18.1783 5.86736 19.7667 6.91669 20.958C7.96462 22.1479 9.47189 22.8304 11.0536 22.8304C13.8378 22.8304 16.1921 20.7319 16.5278 17.9465C16.5798 17.5268 16.6402 15.6671 15.9716 14.9068C15.7595 14.6665 15.4771 14.5337 15.1779 14.5337ZM15.1344 17.7769C14.8829 19.8529 13.1284 21.4187 11.0536 21.4187C9.87505 21.4187 8.74987 20.9099 7.96884 20.0225C7.1864 19.1336 6.81836 17.9493 6.96024 16.775C7.21309 14.6976 8.9676 13.1318 11.0424 13.1318C11.0901 13.1318 11.1519 13.1318 11.2152 13.1332L10.7797 16.7269C10.7488 16.9799 10.8556 17.2286 11.0578 17.3798C11.2615 17.5339 11.5298 17.5607 11.7602 17.459C13.1748 16.8315 14.5219 16.2366 14.9981 16.0246C15.1217 16.4259 15.1962 17.271 15.1344 17.7769ZM15.1779 15.9469H15.1765L15.1779 15.2403V15.9469ZM25.6867 20.2076H20.1085C19.7208 20.2076 19.4061 20.5241 19.4061 20.9142C19.4061 21.3042 19.7208 21.6208 20.1085 21.6208H25.6867C26.0744 21.6208 26.389 21.3042 26.389 20.9142C26.389 20.5241 26.0744 20.2076 25.6867 20.2076ZM25.6867 15.9681H20.1085C19.7208 15.9681 19.4061 16.2846 19.4061 16.6747C19.4061 17.0647 19.7208 17.3812 20.1085 17.3812H25.6867C26.0744 17.3812 26.389 17.0647 26.389 16.6747C26.389 16.2846 26.0744 15.9681 25.6867 15.9681ZM25.6867 11.7271H20.1085C19.7208 11.7271 19.4061 12.0437 19.4061 12.4337C19.4061 12.8238 19.7208 13.1403 20.1085 13.1403H25.6867C26.0744 13.1403 26.389 12.8238 26.389 12.4337C26.389 12.0437 26.0744 11.7271 25.6867 11.7271Z" fill="white"/>
</svg>
