<svg width="36" height="36" viewBox="0 0 36 36" fill="none" xmlns="http://www.w3.org/2000/svg">
<g clip-path="url(#clip0_2023_11004)">
<mask id="path-1-inside-1_2023_11004" fill="white">
<path d="M33.6794 33.3598H30.1596V24.0798C30.1596 22.0959 28.5596 20.4959 26.5756 20.4959H20.7837C22.5756 19.6959 24.0156 18.2238 24.7517 16.3999V17.9999C24.7517 18.1919 24.9118 18.32 25.0718 18.32H28.2397C29.1357 18.32 29.8716 17.5841 29.8716 16.6881L29.8718 12.5919C29.8718 11.6959 29.1359 10.9599 28.2399 10.9599H28.208C27.3437 5.87203 22.9277 2 17.616 2C12.304 2 7.88809 5.87209 7.0241 10.9599H6.99218C6.09618 10.9599 5.36024 11.6959 5.36024 12.5919V16.6879C5.36024 17.5839 6.09618 18.3198 6.99218 18.3198H8.33617V20.4957C6.60829 20.7517 5.26407 22.2557 5.26407 24.0476V33.3276L2.32009 33.3278C2.12813 33.3278 2 33.4879 2 33.6479C2 33.8399 2.16004 33.968 2.32009 33.968H33.6799C33.8719 33.968 34 33.8079 34 33.6479C34 33.4879 33.84 33.36 33.6799 33.36L33.6794 33.3598ZM17.7115 20.4639C13.8716 20.4639 10.7676 17.3599 10.7676 13.5199C10.7676 9.67998 13.8715 6.57594 17.7115 6.57594C21.5514 6.57572 24.6555 9.67969 24.6555 13.5199C24.6555 17.3598 21.5515 20.4639 17.7115 20.4639ZM10.4796 11.2159C10.4476 11.0559 10.3195 10.9599 10.1595 10.9599H9.19943C10.0315 7.05591 13.4876 4.14392 17.6159 4.14392C21.7438 4.14392 25.1999 7.05597 26.0319 10.9599H25.0718C25.0078 10.9599 24.9439 10.9918 24.8799 11.0239C23.8558 8.04808 21.0078 5.93603 17.7119 5.93603C14.3202 5.90389 11.44 8.14385 10.48 11.2159L10.4796 11.2159ZM29.2315 12.5918V16.6878C29.2315 17.2317 28.7835 17.6797 28.2395 17.6797H25.3915V11.5997H28.2395C28.7835 11.5997 29.2315 12.0477 29.2315 12.5917V12.5918ZM17.6155 2.63985C22.5756 2.63985 26.6715 6.22377 27.5355 10.9278H26.6714C25.8393 6.70394 22.1273 3.50384 17.6155 3.50384C13.1356 3.50384 9.39152 6.70382 8.52752 10.9598H7.66347C8.55946 6.25583 12.6554 2.63985 17.6154 2.63985H17.6155ZM5.99959 16.6878V12.5918C5.99959 12.0478 6.44758 11.5999 6.99153 11.5999H9.83951V17.6798H6.99153C6.44756 17.6798 5.99959 17.2318 5.99959 16.6879V16.6878ZM10.1596 18.3199C10.3516 18.3199 10.4797 18.1598 10.4797 17.9998V15.8558C11.1518 17.9038 12.6878 19.5998 14.6397 20.4638H9.00767V18.3198L10.1596 18.3199ZM25.3275 33.3598V28.0797C25.3275 27.8877 25.1675 27.7596 25.0074 27.7596C24.8155 27.7596 24.6874 27.9197 24.6874 28.0797L24.6876 33.3598H10.7677V28.0797C10.7677 27.8877 10.6076 27.7596 10.4476 27.7596C10.2556 27.7596 10.1275 27.9197 10.1275 28.0797V33.3598H5.90362V24.0798C5.90362 22.6077 6.99156 21.3919 8.39961 21.2L12.8154 25.6158L15.5033 28.3359C15.6312 28.4638 15.7913 28.5278 15.9513 28.5278C16.1114 28.5278 16.3033 28.4638 16.3993 28.3359L17.0074 27.7278C17.1353 27.5999 17.1993 27.4399 17.1993 27.2798C17.1993 27.1198 17.1353 26.9278 17.0074 26.8318L14.3194 24.1439C14.0634 23.8879 13.6473 23.8879 13.3916 24.1439L12.7835 24.752L9.26341 21.1359H26.5753C28.2072 21.1359 29.5193 22.448 29.5193 24.0799V33.3599L25.3275 33.3598ZM14.8636 26.7358L13.2955 25.1678L13.9036 24.5597L16.5915 27.2476L15.9835 27.8557L14.8636 26.7358Z"/>
</mask>
<path d="M33.6794 33.3598H30.1596V24.0798C30.1596 22.0959 28.5596 20.4959 26.5756 20.4959H20.7837C22.5756 19.6959 24.0156 18.2238 24.7517 16.3999V17.9999C24.7517 18.1919 24.9118 18.32 25.0718 18.32H28.2397C29.1357 18.32 29.8716 17.5841 29.8716 16.6881L29.8718 12.5919C29.8718 11.6959 29.1359 10.9599 28.2399 10.9599H28.208C27.3437 5.87203 22.9277 2 17.616 2C12.304 2 7.88809 5.87209 7.0241 10.9599H6.99218C6.09618 10.9599 5.36024 11.6959 5.36024 12.5919V16.6879C5.36024 17.5839 6.09618 18.3198 6.99218 18.3198H8.33617V20.4957C6.60829 20.7517 5.26407 22.2557 5.26407 24.0476V33.3276L2.32009 33.3278C2.12813 33.3278 2 33.4879 2 33.6479C2 33.8399 2.16004 33.968 2.32009 33.968H33.6799C33.8719 33.968 34 33.8079 34 33.6479C34 33.4879 33.84 33.36 33.6799 33.36L33.6794 33.3598ZM17.7115 20.4639C13.8716 20.4639 10.7676 17.3599 10.7676 13.5199C10.7676 9.67998 13.8715 6.57594 17.7115 6.57594C21.5514 6.57572 24.6555 9.67969 24.6555 13.5199C24.6555 17.3598 21.5515 20.4639 17.7115 20.4639ZM10.4796 11.2159C10.4476 11.0559 10.3195 10.9599 10.1595 10.9599H9.19943C10.0315 7.05591 13.4876 4.14392 17.6159 4.14392C21.7438 4.14392 25.1999 7.05597 26.0319 10.9599H25.0718C25.0078 10.9599 24.9439 10.9918 24.8799 11.0239C23.8558 8.04808 21.0078 5.93603 17.7119 5.93603C14.3202 5.90389 11.44 8.14385 10.48 11.2159L10.4796 11.2159ZM29.2315 12.5918V16.6878C29.2315 17.2317 28.7835 17.6797 28.2395 17.6797H25.3915V11.5997H28.2395C28.7835 11.5997 29.2315 12.0477 29.2315 12.5917V12.5918ZM17.6155 2.63985C22.5756 2.63985 26.6715 6.22377 27.5355 10.9278H26.6714C25.8393 6.70394 22.1273 3.50384 17.6155 3.50384C13.1356 3.50384 9.39152 6.70382 8.52752 10.9598H7.66347C8.55946 6.25583 12.6554 2.63985 17.6154 2.63985H17.6155ZM5.99959 16.6878V12.5918C5.99959 12.0478 6.44758 11.5999 6.99153 11.5999H9.83951V17.6798H6.99153C6.44756 17.6798 5.99959 17.2318 5.99959 16.6879V16.6878ZM10.1596 18.3199C10.3516 18.3199 10.4797 18.1598 10.4797 17.9998V15.8558C11.1518 17.9038 12.6878 19.5998 14.6397 20.4638H9.00767V18.3198L10.1596 18.3199ZM25.3275 33.3598V28.0797C25.3275 27.8877 25.1675 27.7596 25.0074 27.7596C24.8155 27.7596 24.6874 27.9197 24.6874 28.0797L24.6876 33.3598H10.7677V28.0797C10.7677 27.8877 10.6076 27.7596 10.4476 27.7596C10.2556 27.7596 10.1275 27.9197 10.1275 28.0797V33.3598H5.90362V24.0798C5.90362 22.6077 6.99156 21.3919 8.39961 21.2L12.8154 25.6158L15.5033 28.3359C15.6312 28.4638 15.7913 28.5278 15.9513 28.5278C16.1114 28.5278 16.3033 28.4638 16.3993 28.3359L17.0074 27.7278C17.1353 27.5999 17.1993 27.4399 17.1993 27.2798C17.1993 27.1198 17.1353 26.9278 17.0074 26.8318L14.3194 24.1439C14.0634 23.8879 13.6473 23.8879 13.3916 24.1439L12.7835 24.752L9.26341 21.1359H26.5753C28.2072 21.1359 29.5193 22.448 29.5193 24.0799V33.3599L25.3275 33.3598ZM14.8636 26.7358L13.2955 25.1678L13.9036 24.5597L16.5915 27.2476L15.9835 27.8557L14.8636 26.7358Z" fill="white" stroke="white" stroke-width="2000" mask="url(#path-1-inside-1_2023_11004)"/>
</g>
<defs>
<clipPath id="clip0_2023_11004">
<rect width="36" height="36" fill="white"/>
</clipPath>
</defs>
</svg>
