<svg width="36" height="37" viewBox="0 0 36 37" fill="none" xmlns="http://www.w3.org/2000/svg">
<path d="M34.1617 24.5798H1.8385C0.824767 24.5798 0 23.7554 0 22.7419V5.36149C0 4.34798 0.824767 3.52344 1.8385 3.52344H34.1617C35.1751 3.52344 36 4.34798 36 5.36149V22.7419C36 23.7554 35.1751 24.5798 34.1617 24.5798ZM1.8385 5.00818C1.74476 5.00824 1.65486 5.04546 1.58852 5.11169C1.52218 5.17792 1.48481 5.26775 1.4846 5.36149V22.7419C1.48479 22.8356 1.52216 22.9255 1.5885 22.9917C1.65484 23.0579 1.74474 23.0952 1.8385 23.0952H34.1617C34.2554 23.0951 34.3453 23.0579 34.4116 22.9916C34.4779 22.9254 34.5152 22.8356 34.5153 22.7419V5.36149C34.5152 5.26778 34.4779 5.17795 34.4116 5.11171C34.3453 5.04547 34.2554 5.00824 34.1617 5.00818H1.8385Z" fill="white"/>
<path d="M14.1568 19.6938C13.913 19.5605 13.7545 19.3119 13.7545 19.0342V9.07036C13.7545 8.93409 13.7921 8.80047 13.863 8.68412C13.9339 8.56778 14.0355 8.47319 14.1566 8.41073C14.2777 8.34827 14.4137 8.32034 14.5496 8.32999C14.6855 8.33965 14.8162 8.38652 14.9272 8.46548L21.9331 13.4474C22.0296 13.516 22.1083 13.6067 22.1626 13.7119C22.2169 13.8172 22.2452 13.9339 22.2452 14.0523C22.2452 14.2926 22.1291 14.518 21.9331 14.6573C21.9331 14.6573 16.6784 18.3935 14.9272 19.6391C14.7992 19.7301 14.5234 19.8945 14.1568 19.6938ZM15.2394 10.5092V17.5954L20.2219 14.0523L15.2394 10.5092ZM35.2577 28.7944H21.0686C20.7391 27.5322 19.5891 26.5981 18.2252 26.5981C16.8614 26.5981 15.7117 27.5322 15.3821 28.7944H0.742335C0.332449 28.7944 0 29.1268 0 29.5367C0 29.9468 0.332449 30.2791 0.742335 30.2791H15.3822C15.7118 31.5413 16.8615 32.4755 18.2253 32.4755C19.5892 32.4755 20.7392 31.5412 21.0687 30.2791H35.2577C35.6673 30.2791 36 29.9468 36 29.5367C36 29.1268 35.6673 28.7944 35.2577 28.7944ZM18.2252 30.9907C17.4238 30.9907 16.7714 30.3384 16.7714 29.5366C16.7714 28.735 17.4238 28.0828 18.2252 28.0828C19.027 28.0828 19.6792 28.735 19.6792 29.5366C19.6792 30.3385 19.027 30.9907 18.2252 30.9907Z" fill="white"/>
</svg>
