<svg width="36" height="36" viewBox="0 0 36 36" fill="none" xmlns="http://www.w3.org/2000/svg">
<path d="M32.1923 1.73047H3.8077C1.7081 1.73047 0 3.43864 0 5.53817V23.5382C0 25.6377 1.7081 27.3459 3.8077 27.3459H13.0017L11.894 32.8843H8.3077C7.92534 32.8843 7.61541 33.1943 7.61541 33.5766C7.61541 33.959 7.92534 34.2689 8.3077 34.2689H27.6923C28.0747 34.2689 28.3846 33.959 28.3846 33.5766C28.3846 33.1943 28.0747 32.8843 27.6923 32.8843H24.106L22.9983 27.3459H32.1923C34.2918 27.3459 36 25.6378 36 23.5382V5.53817C36 3.43864 34.2919 1.73047 32.1923 1.73047ZM13.306 32.8843L14.4137 27.3459H21.5863L22.694 32.8843H13.306ZM34.6154 23.5382C34.6154 24.8743 33.5284 25.9613 32.1923 25.9613H3.8077C2.47162 25.9613 1.38459 24.8743 1.38459 23.5382V21.8074H34.6153V23.5382H34.6154ZM34.6154 20.4228H1.38459V19.0382H5.53844C5.9208 19.0382 6.23074 18.7283 6.23074 18.3459C6.23074 17.9636 5.9208 17.6536 5.53844 17.6536H1.38459V5.53817C1.38459 4.20209 2.47155 3.11506 3.8077 3.11506H32.1923C33.5284 3.11506 34.6154 4.20202 34.6154 5.53817V20.4228Z" fill="white"/>
<path d="M18.0007 22.5001C17.2373 22.5001 16.6161 23.1212 16.6161 23.8847C16.6161 24.6481 17.2373 25.2693 18.0007 25.2693C18.7642 25.2693 19.3853 24.6481 19.3853 23.8847C19.3853 23.1212 18.7642 22.5001 18.0007 22.5001ZM23.6687 14.9896L22.2001 13.521L23.424 12.2972C23.5114 12.2098 23.5738 12.1007 23.6048 11.981C23.6357 11.8613 23.634 11.7356 23.6 11.6168C23.5659 11.498 23.5006 11.3905 23.411 11.3054C23.3213 11.2203 23.2105 11.1608 23.0901 11.1331L16.7261 9.66445C16.6117 9.6381 16.4924 9.64128 16.3796 9.67367C16.2667 9.70607 16.164 9.76662 16.081 9.84964C15.9979 9.93266 15.9374 10.0354 15.905 10.1483C15.8726 10.2611 15.8694 10.3804 15.8958 10.4948L17.3645 16.8587C17.3923 16.9791 17.4519 17.0899 17.5369 17.1795C17.622 17.2691 17.7295 17.3344 17.8483 17.3684C17.9671 17.4025 18.0928 17.4042 18.2125 17.3732C18.3321 17.3423 18.4413 17.28 18.5287 17.1926L19.7525 15.9687L21.2211 17.4374C21.3563 17.5726 21.5335 17.6401 21.7106 17.6401C21.8877 17.6401 22.065 17.5726 22.2001 17.4374L23.6687 15.9687C23.939 15.6984 23.939 15.2601 23.6687 14.9896ZM21.7106 15.9687L20.242 14.5001C20.1068 14.3649 19.9296 14.2973 19.7525 14.2973C19.5754 14.2973 19.3981 14.3649 19.263 14.5001L18.4329 15.3303L17.4942 11.2628L21.5617 12.2014L20.7315 13.0315C20.4612 13.3019 20.4612 13.7403 20.7315 14.0106L22.2001 15.4792L21.7106 15.9687ZM15.151 7.94052L14.4587 7.24823C14.1884 6.97787 13.75 6.97787 13.4796 7.24823C13.2093 7.51858 13.2093 7.95691 13.4796 8.22733L14.172 8.91963C14.3072 9.05484 14.4844 9.12241 14.6615 9.12241C14.8386 9.12241 15.0159 9.05484 15.151 8.91963C15.4214 8.64934 15.4214 8.21095 15.151 7.94052ZM13.8012 9.81477H12.8222C12.4398 9.81477 12.1299 10.1247 12.1299 10.5071C12.1299 10.8894 12.4398 11.1994 12.8222 11.1994H13.8012C14.1836 11.1994 14.4935 10.8894 14.4935 10.5071C14.4935 10.1247 14.1836 9.81477 13.8012 9.81477ZM15.151 12.0944C14.8807 11.824 14.4424 11.824 14.172 12.0944L13.4797 12.7867C13.2093 13.057 13.2093 13.4954 13.4797 13.7658C13.6149 13.901 13.7921 13.9686 13.9692 13.9686C14.1463 13.9686 14.3236 13.901 14.4587 13.7658L15.151 13.0735C15.4214 12.8032 15.4214 12.3648 15.151 12.0944ZM19.9972 7.24823C19.7269 6.97787 19.2886 6.97787 19.0181 7.24823L18.3258 7.94052C18.0555 8.21088 18.0555 8.64927 18.3258 8.91963C18.3901 8.98401 18.4664 9.03507 18.5504 9.06988C18.6344 9.10468 18.7245 9.12253 18.8154 9.12241C18.9926 9.12241 19.1698 9.05484 19.3049 8.91963L19.9972 8.22733C20.2676 7.95705 20.2676 7.51865 19.9972 7.24823ZM16.7385 5.89844C16.3562 5.89844 16.0462 6.20838 16.0462 6.59073V7.56977C16.0462 7.95212 16.3562 8.26206 16.7385 8.26206C17.1209 8.26206 17.4308 7.95212 17.4308 7.56977V6.59073C17.4308 6.20838 17.1209 5.89844 16.7385 5.89844ZM8.29457 18.2112C8.28586 18.1666 8.27264 18.123 8.25513 18.0811C8.23778 18.0394 8.21645 17.9995 8.19142 17.962C8.1665 17.924 8.13773 17.8887 8.10557 17.8567C8.07351 17.8246 8.03824 17.7958 8.00031 17.7708C7.9626 17.7457 7.92249 17.7244 7.88057 17.7071C7.83891 17.6895 7.79553 17.6763 7.75112 17.6677C7.66202 17.6497 7.57023 17.6497 7.48113 17.6677C7.43683 17.676 7.39323 17.6898 7.35168 17.7071C7.30973 17.7243 7.26962 17.7457 7.23194 17.7708C7.19399 17.7958 7.15872 17.8245 7.12668 17.8567C7.06285 17.9212 7.01207 17.9973 6.97713 18.0811C6.95961 18.123 6.94639 18.1666 6.93768 18.2112C6.92858 18.2556 6.92394 18.3009 6.92383 18.3462C6.92383 18.3912 6.92868 18.4369 6.93768 18.4812C6.94598 18.5255 6.95983 18.5691 6.97713 18.6107C6.99442 18.6529 7.01587 18.6931 7.04083 18.7304C7.06575 18.7683 7.09452 18.8036 7.12668 18.8357C7.15853 18.8675 7.19383 18.8965 7.23194 18.9215C7.26934 18.9464 7.30949 18.9679 7.35168 18.9852C7.39343 19.0027 7.43678 19.0162 7.48113 19.0254C7.52542 19.0344 7.57112 19.0385 7.61612 19.0385C7.66112 19.0385 7.70683 19.0344 7.75112 19.0254C7.79547 19.0162 7.83882 19.0027 7.88057 18.9852C7.92252 18.968 7.96263 18.9467 8.00031 18.9215C8.03826 18.8966 8.07353 18.8678 8.10557 18.8357C8.13771 18.8036 8.16648 18.7683 8.19142 18.7304C8.21631 18.693 8.23783 18.6528 8.25513 18.6107C8.27274 18.569 8.28596 18.5256 8.29457 18.4812C8.30357 18.4369 8.30842 18.3912 8.30842 18.3462C8.30842 18.3012 8.30357 18.2555 8.29457 18.2112Z" fill="white"/>
</svg>
