<svg width="36" height="36" viewBox="0 0 36 36" fill="none" xmlns="http://www.w3.org/2000/svg">
<path d="M28.8 14.4C32.7704 14.4 36 11.1703 36 7.2C36 3.22973 32.7703 0 28.8 0C25.9169 0 23.4311 1.70715 22.2824 4.16048L20.3543 3.4488C20.3771 3.3012 20.4 3.15353 20.4 3C20.4 1.34588 19.0541 0 17.4 0C15.7459 0 14.4 1.34588 14.4 3C14.4 4.65413 15.7459 6 17.4 6C18.4746 6 19.4118 5.427 19.9415 4.5756L21.8663 5.286C21.6973 5.89688 21.6 6.5364 21.6 7.2C21.6 7.986 21.7307 8.74073 21.9647 9.4494L15.3659 12.2462C14.1577 9.96173 11.7595 8.4 9 8.4C8.10585 8.4 7.25273 8.57175 6.462 8.87048L4.80233 5.38275C5.52533 4.83427 6 3.975 6 3C6 1.34588 4.65413 0 3 0C1.34588 0 0 1.34588 0 3C0 4.65413 1.34588 6 3 6C3.2496 6 3.489 5.96048 3.72128 5.90213L5.37893 9.3864C3.24225 10.6368 1.8 12.9504 1.8 15.6C1.8 18.0888 3.06975 20.2855 4.99455 21.5789L3.897 23.5517C3.6114 23.4618 3.31425 23.4 3 23.4C1.34588 23.4 0 24.7459 0 26.4C0 28.0541 1.34588 29.4 3 29.4C4.65413 29.4 6 28.0541 6 26.4C6 25.4915 5.58547 24.6859 4.94588 24.1357L6.04568 22.1587C6.94808 22.5671 7.94648 22.8 9 22.8C10.6465 22.8 12.1609 22.2384 13.3752 21.3047L15.7368 23.9027C14.5391 25.1891 13.8 26.9078 13.8 28.8C13.8 29.1671 13.8366 29.5248 13.8893 29.877L11.1109 30.5364C10.6328 29.514 9.60113 28.8 8.4 28.8C6.74588 28.8 5.4 30.1459 5.4 31.8C5.4 33.4541 6.74588 34.8 8.4 34.8C10.0541 34.8 11.4 33.4541 11.4 31.8C11.4 31.7669 11.3909 31.7359 11.3903 31.7027L14.1636 31.0454C15.1093 33.9184 17.814 36 21 36C24.9704 36 28.2 32.7703 28.2 28.8C28.2 27.569 27.8886 26.4097 27.3412 25.3958L30.8657 23.1041C31.4107 23.6561 32.1653 24 33 24C34.6541 24 36 22.6541 36 21C36 19.3459 34.6541 18 33 18C31.3459 18 30 19.3459 30 21C30 21.3876 30.0797 21.7559 30.2141 22.0963L26.6816 24.3929C25.9709 23.4787 25.0513 22.7483 24 22.263L26.9285 14.1446C27.5262 14.3056 28.1519 14.4 28.8 14.4ZM17.4 4.8C16.4078 4.8 15.6 3.99225 15.6 3C15.6 2.00775 16.4078 1.2 17.4 1.2C18.3923 1.2 19.2 2.00775 19.2 3C19.2 3.99225 18.3923 4.8 17.4 4.8ZM1.2 3C1.2 2.00775 2.00775 1.2 3 1.2C3.99225 1.2 4.8 2.00775 4.8 3C4.8 3.99225 3.99225 4.8 3 4.8C2.00775 4.8 1.2 3.99225 1.2 3ZM3 28.2C2.00775 28.2 1.2 27.3923 1.2 26.4C1.2 25.4078 2.00775 24.6 3 24.6C3.99225 24.6 4.8 25.4078 4.8 26.4C4.8 27.3923 3.99225 28.2 3 28.2ZM8.4 33.6C7.40775 33.6 6.6 32.7923 6.6 31.8C6.6 30.8078 7.40775 30 8.4 30C9.39225 30 10.2 30.8078 10.2 31.8C10.2 32.7923 9.39225 33.6 8.4 33.6ZM33 19.2C33.9923 19.2 34.8 20.0078 34.8 21C34.8 21.9923 33.9923 22.8 33 22.8C32.0078 22.8 31.2 21.9923 31.2 21C31.2 20.0078 32.0078 19.2 33 19.2ZM25.2665 12.0384C25.5343 10.6506 26.7578 9.6 28.2 9.6H29.4C30.8423 9.6 32.0657 10.6506 32.3335 12.0384C31.341 12.7649 30.1219 13.2 28.8 13.2C27.4781 13.2 26.2591 12.765 25.2665 12.0384ZM28.8 8.4C27.8078 8.4 27 7.59225 27 6.6C27 5.60775 27.8078 4.8 28.8 4.8C29.7923 4.8 30.6 5.60775 30.6 6.6C30.6 7.59225 29.7923 8.4 28.8 8.4ZM28.8 1.2C32.1085 1.2 34.8 3.89153 34.8 7.2C34.8 8.7 34.2425 10.0705 33.3287 11.1235C32.9083 10.0163 32.0318 9.13275 30.9395 8.69648C31.4708 8.15505 31.8 7.416 31.8 6.6C31.8 4.94588 30.4541 3.6 28.8 3.6C27.1459 3.6 25.8 4.94588 25.8 6.6C25.8 7.41593 26.1292 8.15505 26.6605 8.69648C25.5683 9.13275 24.6917 10.0163 24.2713 11.1235C23.3576 10.0705 22.8 8.7 22.8 7.2C22.8 3.89153 25.4915 1.2 28.8 1.2ZM3 15.6C3 12.2915 5.69153 9.6 9 9.6C12.3085 9.6 15 12.2915 15 15.6C15 17.1047 14.439 18.4787 13.5205 19.5331C13.1016 18.4219 12.2233 17.5339 11.1281 17.0965C11.6587 16.5551 11.988 15.8159 11.988 15C11.988 13.3459 10.6421 12 8.988 12C7.33388 12 5.988 13.3459 5.988 15C5.988 15.8159 6.31725 16.5551 6.8484 17.0965C5.75947 17.5307 4.88415 18.411 4.4622 19.5137C3.55373 18.462 3 17.096 3 15.6ZM7.188 15C7.188 14.0078 7.99575 13.2 8.988 13.2C9.98025 13.2 10.788 14.0078 10.788 15C10.788 15.9923 9.98025 16.8 8.988 16.8C7.99575 16.8 7.188 15.9923 7.188 15ZM5.45655 20.4305C5.72692 19.0465 6.9486 18 8.388 18H9.588C11.0329 18 12.2587 19.0541 12.5227 20.4463C11.5322 21.1685 10.3169 21.6 9 21.6C7.6734 21.6 6.4506 21.162 5.45655 20.4305ZM17.4566 33.6305C17.7269 32.2465 18.9486 31.2 20.388 31.2H21.588C23.0329 31.2 24.2588 32.2541 24.5227 33.6463C23.5322 34.3685 22.3169 34.8 21 34.8C19.6734 34.8 18.4506 34.362 17.4566 33.6305ZM20.988 30C19.9958 30 19.188 29.1923 19.188 28.2C19.188 27.2078 19.9958 26.4 20.988 26.4C21.9803 26.4 22.788 27.2078 22.788 28.2C22.788 29.1923 21.9803 30 20.988 30ZM27 28.8C27 30.3047 26.439 31.6787 25.5205 32.7331C25.1015 31.6219 24.2233 30.7339 23.1281 30.2965C23.6587 29.7551 23.988 29.0159 23.988 28.2C23.988 26.5459 22.6421 25.2 20.988 25.2C19.3339 25.2 17.988 26.5459 17.988 28.2C17.988 29.0159 18.3173 29.7551 18.8484 30.2965C17.7595 30.7307 16.8842 31.611 16.4622 32.7137C15.5537 31.662 15 30.296 15 28.8C15 25.4915 17.6915 22.8 21 22.8C24.3085 22.8 27 25.4915 27 28.8ZM22.8715 21.8555C22.2738 21.6944 21.6481 21.6 21 21.6C19.3535 21.6 17.8391 22.1616 16.6248 23.0954L14.2632 20.4973C15.4609 19.2109 16.2 17.4923 16.2 15.6C16.2 14.814 16.0693 14.0593 15.8353 13.3506L22.4341 10.5539C23.1733 11.9514 24.3595 13.0729 25.8006 13.737L22.8715 21.8555Z" fill="white"/>
</svg>
