<svg width="80" height="80" viewBox="0 0 80 80" fill="none" xmlns="http://www.w3.org/2000/svg">
<path d="M67.0968 63.2258V23.4103L45.1613 7.74194L23.2258 23.4116V52.9032H34.8387L41.96 61.2103C42.3608 61.6783 42.581 62.2742 42.5807 62.8903V63.2258H67.0968Z" fill="#E5E5E5"/>
<path d="M55.4838 63.2258V37.4194H34.8387V52.9032L41.96 61.2103C42.3608 61.6783 42.5809 62.2742 42.5806 62.8903V63.2258H55.4838Z" fill="url(#paint0_linear_110_6223)"/>
<path d="M35 51.8889L42.5426 60.8305C42.9677 61.334 43.2014 61.9755 43.2014 62.6389V63H54V38H35V51.8889Z" fill="white"/>
<path d="M19.3549 73.5484H29.6774L37.4194 78.7097L78.7097 69.6775V68.3871C78.7097 67.0183 78.1659 65.7055 77.198 64.7375C76.2301 63.7696 74.9173 63.2258 73.5484 63.2258H42.5807V62.8904C42.5804 62.2751 42.3602 61.6802 41.96 61.2129L34.8387 52.9033H19.3549V73.5484Z" fill="#FBE1CA"/>
<path d="M1.29034 50.3226H11.6129V78.7097H1.29034V50.3226Z" fill="url(#paint1_linear_110_6223)"/>
<path d="M11.6129 50.3226H19.3549V76.1291H11.6129V50.3226Z" fill="url(#paint2_linear_110_6223)"/>
<path d="M11.6129 52.9033H16.7742V76.1291H11.6129V52.9033Z" fill="#DBDBDB"/>
<path d="M74.8387 21.9355L45.1613 1.29034L15.4839 21.9355L18.0645 27.0968L45.1613 7.74196L72.2581 27.0968L74.8387 21.9355Z" fill="url(#paint3_linear_110_6223)"/>
<path d="M69.6774 37.4194C67.9679 37.419 66.2933 37.9038 64.8484 38.8175C63.4035 39.7311 62.2475 41.0361 61.5148 42.5807H52.9032L50.3226 45.1613L47.7419 42.5807H43.871L40 46.4516V50.3226H61.5148C62.2075 51.783 63.2794 53.0307 64.6187 53.9356C65.9579 54.8405 67.5155 55.3695 69.1288 55.4673C70.7422 55.5652 72.3522 55.2283 73.791 54.4918C75.2298 53.7554 76.4446 52.6463 77.3087 51.2804C78.1728 49.9144 78.6545 48.3416 78.7036 46.7261C78.7528 45.1105 78.3674 43.5113 77.5879 42.0954C76.8084 40.6795 75.6632 39.4987 74.2718 38.6762C72.8804 37.8538 71.2937 37.4197 69.6774 37.4194ZM72.2581 49.0323C71.7477 49.0323 71.2487 48.8809 70.8243 48.5974C70.4 48.3138 70.0692 47.9108 69.8739 47.4392C69.6785 46.9676 69.6274 46.4488 69.727 45.9482C69.8266 45.4476 70.0724 44.9877 70.4333 44.6268C70.7942 44.2659 71.254 44.0201 71.7546 43.9206C72.2552 43.821 72.7741 43.8721 73.2456 44.0674C73.7172 44.2627 74.1202 44.5935 74.4038 45.0179C74.6874 45.4423 74.8387 45.9412 74.8387 46.4516C74.8387 47.1361 74.5668 47.7925 74.0829 48.2764C73.5989 48.7604 72.9425 49.0323 72.2581 49.0323Z" fill="url(#paint4_linear_110_6223)"/>
<path d="M22.3097 3.49682L24.1355 1.6723L29.2968 6.83359L27.471 8.65682L22.3097 3.49682ZM15.4839 10.3226H23.2258V12.9033H15.4839V10.3226ZM61.0168 6.83488L66.1781 1.67359L68 3.50069L62.8387 8.66198L61.0168 6.83488ZM67.0968 10.3226H74.8387V12.9033H67.0968V10.3226Z" fill="url(#paint5_linear_110_6223)"/>
<path d="M45.1613 38.7097C51.5749 38.7097 56.7742 33.5104 56.7742 27.0968C56.7742 20.6832 51.5749 15.4839 45.1613 15.4839C38.7477 15.4839 33.5484 20.6832 33.5484 27.0968C33.5484 33.5104 38.7477 38.7097 45.1613 38.7097Z" fill="url(#paint6_linear_110_6223)"/>
<path d="M42.9677 38.5084C44.7249 38.8455 46.5364 38.7712 48.2601 38.2913C49.9838 37.8113 51.573 36.9387 52.9032 35.742V21.9355C52.9032 21.2511 52.6313 20.5947 52.1473 20.1107C51.6634 19.6267 51.007 19.3549 50.3225 19.3549H36.5225C35.1466 20.8836 34.2018 22.7507 33.7852 24.7648C33.3686 26.779 33.495 28.8677 34.1516 30.8168C34.8081 32.766 35.9712 34.5055 37.5215 35.8571C39.0718 37.2087 40.9537 38.1237 42.9742 38.5084H42.9677Z" fill="url(#paint7_linear_110_6223)"/>
<path d="M50.3226 24.5162V23.2258C50.3226 22.1992 49.9147 21.2146 49.1888 20.4886C48.4629 19.7627 47.4783 19.3549 46.4516 19.3549V18.0645H43.871V19.3549C42.8443 19.3549 41.8597 19.7627 41.1338 20.4886C40.4078 21.2146 40 22.1992 40 23.2258V24.5162C40 25.5428 40.4078 26.5274 41.1338 27.2533C41.8597 27.9793 42.8443 28.3871 43.871 28.3871V32.2581C43.5288 32.2581 43.2006 32.1221 42.9586 31.8802C42.7166 31.6382 42.5806 31.31 42.5806 30.9678V29.6774H40V30.9678C40 31.9944 40.4078 32.979 41.1338 33.705C41.8597 34.4309 42.8443 34.8387 43.871 34.8387V36.1291H46.4516V34.8387C47.4783 34.8387 48.4629 34.4309 49.1888 33.705C49.9147 32.979 50.3226 31.9944 50.3226 30.9678V29.6774C50.3226 28.6508 49.9147 27.6662 49.1888 26.9403C48.4629 26.2143 47.4783 25.8065 46.4516 25.8065V21.9355C46.7938 21.9355 47.122 22.0715 47.364 22.3134C47.606 22.5554 47.7419 22.8836 47.7419 23.2258V24.5162H50.3226ZM47.7419 29.6774V30.9678C47.7419 31.31 47.606 31.6382 47.364 31.8802C47.122 32.1221 46.7938 32.2581 46.4516 32.2581V28.3871C46.7938 28.3871 47.122 28.5231 47.364 28.7651C47.606 29.007 47.7419 29.3352 47.7419 29.6774ZM43.871 25.8065C43.5288 25.8065 43.2006 25.6705 42.9586 25.4286C42.7166 25.1866 42.5806 24.8584 42.5806 24.5162V23.2258C42.5806 22.8836 42.7166 22.5554 42.9586 22.3134C43.2006 22.0715 43.5288 21.9355 43.871 21.9355V25.8065Z" fill="url(#paint8_linear_110_6223)"/>
<path d="M73.5484 61.9355H68.3871V56.6878C68.8149 56.7438 69.2459 56.7727 69.6774 56.7742C72.4151 56.7742 75.0407 55.6867 76.9766 53.7508C78.9124 51.8149 80 49.1894 80 46.4516C80 43.7139 78.9124 41.0883 76.9766 39.1525C75.0407 37.2166 72.4151 36.1291 69.6774 36.1291C69.2459 36.1306 68.8149 36.1595 68.3871 36.2155V25.9175L71.5084 28.1471C71.7272 28.3033 71.9893 28.3872 72.2581 28.3871C72.3628 28.3868 72.4672 28.3742 72.569 28.3497C72.7502 28.3048 72.9195 28.221 73.0652 28.1043C73.2109 27.9876 73.3295 27.8406 73.4129 27.6736L75.9935 22.5123C76.1321 22.2349 76.1661 21.9168 76.0893 21.6163C76.0126 21.3159 75.8301 21.0531 75.5755 20.8762L45.8981 0.231002C45.6818 0.080591 45.4247 -3.05176e-05 45.1613 -3.05176e-05C44.8979 -3.05176e-05 44.6408 0.080591 44.4245 0.231002L14.7471 20.8762C14.4924 21.0531 14.31 21.3159 14.2332 21.6163C14.1565 21.9168 14.1905 22.2349 14.329 22.5123L16.9097 27.6736C16.993 27.8405 17.1115 27.9873 17.2571 28.104C17.4026 28.2207 17.5717 28.3044 17.7528 28.3494C17.9338 28.3944 18.1224 28.3996 18.3057 28.3647C18.4889 28.3298 18.6624 28.2556 18.8142 28.1471L21.9355 25.9187V51.6129H20.6452V50.3226C20.6452 49.9804 20.5092 49.6522 20.2672 49.4102C20.0253 49.1682 19.6971 49.0323 19.3548 49.0323H1.29032C0.948108 49.0323 0.619909 49.1682 0.377927 49.4102C0.135944 49.6522 0 49.9804 0 50.3226V78.7097C0 79.0519 0.135944 79.3801 0.377927 79.6221C0.619909 79.8641 0.948108 80 1.29032 80H11.6129C11.9551 80 12.2833 79.8641 12.5253 79.6221C12.7673 79.3801 12.9032 79.0519 12.9032 78.7097V77.4194H19.3548C19.6971 77.4194 20.0253 77.2834 20.2672 77.0415C20.5092 76.7995 20.6452 76.4713 20.6452 76.1291V74.8387H29.2903L36.7071 79.7833C36.9181 79.9239 37.1658 79.9993 37.4194 80C37.5122 79.9997 37.6047 79.9898 37.6955 79.9704L78.9858 70.9381C79.2733 70.8751 79.5306 70.7158 79.715 70.4865C79.8995 70.2572 80 69.9717 80 69.6775V68.3871C79.9979 66.6767 79.3176 65.0369 78.1081 63.8274C76.8986 62.6179 75.2588 61.9376 73.5484 61.9355ZM10.3226 77.4194H2.58065V51.6129H10.3226V77.4194ZM18.0645 74.8387H12.9032V51.6129H18.0645V74.8387ZM65.8064 61.9355H56.7742V51.6129H60.7355C61.8938 53.5979 63.677 55.1434 65.8064 56.0078V61.9355ZM43.7419 61.9355C43.6005 61.3596 43.3275 60.8243 42.9445 60.3716L36.129 52.4271V38.7097H39.5742C41.3143 39.5588 43.2251 40.0001 45.1613 40.0001C47.0975 40.0001 49.0083 39.5588 50.7484 38.7097H54.1935V41.2904H52.9032C52.561 41.2904 52.2329 41.4264 51.991 41.6684L50.3226 43.3368L48.6542 41.6684C48.4123 41.4264 48.0841 41.2904 47.7419 41.2904H43.871C43.5288 41.2904 43.2006 41.4264 42.9587 41.6684L39.0877 45.5394C38.8457 45.7813 38.7098 46.1095 38.7097 46.4516V50.3226C38.7097 50.6648 38.8456 50.993 39.0876 51.235C39.3296 51.477 39.6578 51.6129 40 51.6129H54.1935V61.9355H43.7419ZM45.1613 37.4194C43.1197 37.4194 41.1239 36.814 39.4264 35.6797C37.7288 34.5455 36.4058 32.9333 35.6245 31.0471C34.8432 29.1609 34.6388 27.0854 35.0371 25.083C35.4354 23.0806 36.4185 21.2413 37.8621 19.7976C39.3058 18.354 41.1451 17.3709 43.1475 16.9726C45.1498 16.5743 47.2254 16.7787 49.1116 17.56C50.9978 18.3413 52.6099 19.6644 53.7442 21.3619C54.8785 23.0594 55.4839 25.0552 55.4839 27.0968C55.4808 29.8336 54.3923 32.4574 52.4571 34.3926C50.5219 36.3278 47.8981 37.4163 45.1613 37.4194ZM77.4193 46.4516C77.4198 48.2099 76.8218 49.9159 75.7237 51.289C74.6256 52.6621 73.0928 53.6205 71.3775 54.0066C69.6622 54.3927 67.8666 54.1835 66.2861 53.4133C64.7055 52.6431 63.4342 51.3579 62.6813 49.7691C62.5769 49.5492 62.4125 49.3634 62.207 49.2331C62.0015 49.1027 61.7633 49.0331 61.52 49.0323H41.2903V46.9858L44.4052 43.871H47.2077L49.4103 46.0736C49.6523 46.3155 49.9804 46.4514 50.3226 46.4514C50.6647 46.4514 50.9929 46.3155 51.2348 46.0736L53.4374 43.871H61.5148C61.7582 43.8702 61.9963 43.8006 62.2018 43.6702C62.4073 43.5399 62.5717 43.354 62.6761 43.1342C63.4274 41.5424 64.6987 40.2542 66.2804 39.4818C67.8621 38.7095 69.6597 38.4992 71.377 38.8856C73.0942 39.272 74.6285 40.232 75.7269 41.6074C76.8254 42.9828 77.4223 44.6915 77.4193 46.4516ZM18.5432 25.1691L17.1368 22.3575L45.1613 2.86197L73.1858 22.3575L71.7794 25.1691L45.911 6.69165C45.6922 6.53547 45.4301 6.45152 45.1613 6.45152C44.8925 6.45152 44.6304 6.53547 44.4116 6.69165L18.5432 25.1691ZM24.5161 24.0749L45.1613 9.32778L65.8064 24.0749V36.9033C63.6779 37.7647 61.895 39.3076 60.7368 41.2904H56.7742V37.4194C56.7742 37.0772 56.6382 36.749 56.3963 36.507C56.1543 36.265 55.8261 36.1291 55.4839 36.1291H54.36C56.1433 34.3162 57.3512 32.0168 57.8319 29.5196C58.3126 27.0225 58.0447 24.439 57.0619 22.0936C56.0791 19.7482 54.4252 17.7456 52.3079 16.3371C50.1905 14.9287 47.7043 14.1772 45.1613 14.1772C42.6183 14.1772 40.132 14.9287 38.0147 16.3371C35.8974 17.7456 34.2435 19.7482 33.2607 22.0936C32.2779 24.439 32.01 27.0225 32.4907 29.5196C32.9714 32.0168 34.1793 34.3162 35.9626 36.1291H34.8387C34.4965 36.1291 34.1683 36.265 33.9263 36.507C33.6843 36.749 33.5484 37.0772 33.5484 37.4194V51.6129H24.5161V24.0749ZM77.4193 68.6452L37.6774 77.3316L30.3923 72.4749C30.1804 72.3341 29.9318 72.2588 29.6774 72.2581H20.6452V54.1936H34.2452L40.9806 62.0504C41.18 62.2849 41.2897 62.5825 41.2903 62.8904V64.5162C41.2903 64.8584 41.1544 65.1866 40.9124 65.4286C40.6704 65.6705 40.3422 65.8065 40 65.8065H38.4877C38.1458 65.8051 37.8181 65.6693 37.5755 65.4284L31.88 59.7329L30.0555 61.5575L35.751 67.2529C36.1094 67.6137 36.5359 67.8997 37.0057 68.0944C37.4754 68.2891 37.9792 68.3886 38.4877 68.3871H40C41.0266 68.3871 42.0112 67.9793 42.7372 67.2533C43.4631 66.5274 43.871 65.5428 43.871 64.5162H73.5484C74.575 64.5162 75.5596 64.924 76.2856 65.6499C77.0115 66.3759 77.4193 67.3605 77.4193 68.3871V68.6452Z" fill="black"/>
<path d="M72.2581 49.0323C73.6833 49.0323 74.8387 47.8769 74.8387 46.4516C74.8387 45.0264 73.6833 43.871 72.2581 43.871C70.8328 43.871 69.6774 45.0264 69.6774 46.4516C69.6774 47.8769 70.8328 49.0323 72.2581 49.0323Z" fill="black"/>
<path d="M46.4516 19.3549V18.0646H43.871V19.3549C42.8443 19.3549 41.8597 19.7627 41.1338 20.4887C40.4079 21.2146 40 22.1992 40 23.2259V24.5162C40 25.5428 40.4079 26.5274 41.1338 27.2534C41.8597 27.9793 42.8443 28.3871 43.871 28.3871V32.2581C43.5288 32.2581 43.2006 32.1222 42.9586 31.8802C42.7166 31.6382 42.5807 31.31 42.5807 30.9678V29.6775H40V30.9678C40 31.9944 40.4079 32.979 41.1338 33.705C41.8597 34.4309 42.8443 34.8388 43.871 34.8388V36.1291H46.4516V34.8388C47.4783 34.8388 48.4629 34.4309 49.1888 33.705C49.9148 32.979 50.3226 31.9944 50.3226 30.9678V29.6775C50.3226 28.6508 49.9148 27.6662 49.1888 26.9403C48.4629 26.2143 47.4783 25.8065 46.4516 25.8065V21.9355C46.7938 21.9355 47.122 22.0715 47.364 22.3135C47.606 22.5554 47.742 22.8836 47.742 23.2259V24.5162H50.3226V23.2259C50.3226 22.1992 49.9148 21.2146 49.1888 20.4887C48.4629 19.7627 47.4783 19.3549 46.4516 19.3549ZM47.742 29.6775V30.9678C47.742 31.31 47.606 31.6382 47.364 31.8802C47.122 32.1222 46.7938 32.2581 46.4516 32.2581V28.3871C46.7938 28.3871 47.122 28.5231 47.364 28.7651C47.606 29.0071 47.742 29.3353 47.742 29.6775ZM43.871 25.8065C43.5288 25.8065 43.2006 25.6706 42.9586 25.4286C42.7166 25.1866 42.5807 24.8584 42.5807 24.5162V23.2259C42.5807 22.8836 42.7166 22.5554 42.9586 22.3135C43.2006 22.0715 43.5288 21.9355 43.871 21.9355V25.8065ZM22.3097 3.49682L24.1355 1.6723L29.2968 6.83359L27.471 8.65682L22.3097 3.49682ZM15.4839 10.3226H23.2258V12.9033H15.4839V10.3226ZM61.0168 6.83488L66.1781 1.67359L68 3.50069L62.8387 8.66198L61.0168 6.83488ZM67.0968 10.3226H74.8387V12.9033H67.0968V10.3226Z" fill="white"/>
<defs>
<linearGradient id="paint0_linear_110_6223" x1="45.1613" y1="37.4194" x2="45.1613" y2="63.2258" gradientUnits="userSpaceOnUse">
<stop stop-color="#3BB3C1"/>
<stop offset="1" stop-color="#1B8895"/>
</linearGradient>
<linearGradient id="paint1_linear_110_6223" x1="6.45163" y1="50.3226" x2="6.45163" y2="78.7097" gradientUnits="userSpaceOnUse">
<stop stop-color="#3BB3C1"/>
<stop offset="1" stop-color="#1B8895"/>
</linearGradient>
<linearGradient id="paint2_linear_110_6223" x1="15.4839" y1="50.3226" x2="15.4839" y2="76.1291" gradientUnits="userSpaceOnUse">
<stop stop-color="#3BB3C1"/>
<stop offset="1" stop-color="#1B8895"/>
</linearGradient>
<linearGradient id="paint3_linear_110_6223" x1="45.1613" y1="1.29034" x2="45.1613" y2="27.0968" gradientUnits="userSpaceOnUse">
<stop stop-color="#3BB3C1"/>
<stop offset="1" stop-color="#1B8895"/>
</linearGradient>
<linearGradient id="paint4_linear_110_6223" x1="59.3539" y1="37.4194" x2="59.3539" y2="55.4839" gradientUnits="userSpaceOnUse">
<stop stop-color="#3BB3C1"/>
<stop offset="1" stop-color="#1B8895"/>
</linearGradient>
<linearGradient id="paint5_linear_110_6223" x1="45.1613" y1="1.6723" x2="45.1613" y2="12.9033" gradientUnits="userSpaceOnUse">
<stop stop-color="#3BB3C1"/>
<stop offset="1" stop-color="#1B8895"/>
</linearGradient>
<linearGradient id="paint6_linear_110_6223" x1="45.1613" y1="15.4839" x2="45.1613" y2="38.7097" gradientUnits="userSpaceOnUse">
<stop stop-color="#3BB3C1"/>
<stop offset="1" stop-color="#1B8895"/>
</linearGradient>
<linearGradient id="paint7_linear_110_6223" x1="43.224" y1="19.3549" x2="43.224" y2="38.716" gradientUnits="userSpaceOnUse">
<stop stop-color="#3BB3C1"/>
<stop offset="1" stop-color="#1B8895"/>
</linearGradient>
<linearGradient id="paint8_linear_110_6223" x1="45.1613" y1="18.0645" x2="45.1613" y2="36.1291" gradientUnits="userSpaceOnUse">
<stop stop-color="#3BB3C1"/>
<stop offset="1" stop-color="#1B8895"/>
</linearGradient>
</defs>
</svg>

