<svg width="36" height="36" viewBox="0 0 36 36" fill="none" xmlns="http://www.w3.org/2000/svg">
<path d="M30.9412 2H5.05875C2.82042 2 1 3.71333 1 5.82V30.1813C1 32.2867 2.82042 34 5.05875 34H30.9412C33.1796 34 35 32.2867 35 30.1813V5.82C35 3.71333 33.1796 2 30.9412 2ZM5.05875 3.33333H30.9412C32.3976 3.33333 33.5833 4.448 33.5833 5.82V17.732L28.387 13.5867C28.5272 13.2907 28.608 12.964 28.608 12.62C28.608 11.3013 27.4676 10.2293 26.0665 10.2293C24.6668 10.2293 23.5264 11.3027 23.5264 12.62C23.5264 13.248 23.7913 13.8173 24.2135 14.244L18.6857 22.9733C18.4817 22.924 18.2706 22.888 18.051 22.888C17.5282 22.888 17.0409 23.0387 16.6372 23.2947L12.356 19.9173C12.4948 19.6227 12.5742 19.2987 12.5742 18.956C12.5742 17.6373 11.4338 16.5653 10.0341 16.5653C8.63442 16.5653 7.494 17.6373 7.494 18.956C7.494 19.2973 7.57333 19.6213 7.71075 19.916L2.41808 24.0733V5.82C2.41667 4.44933 3.60242 3.33333 5.05875 3.33333ZM24.9445 12.62C24.9445 12.036 25.4474 11.5627 26.0679 11.5627C26.6884 11.5627 27.1927 12.0373 27.1927 12.62C27.1927 13.2027 26.6884 13.6773 26.0679 13.6773C25.4474 13.6773 24.9445 13.204 24.9445 12.62ZM18.051 24.2227C18.6715 24.2227 19.1744 24.696 19.1744 25.28C19.1744 25.864 18.6701 26.3373 18.051 26.3373C17.4319 26.3373 16.9276 25.864 16.9276 25.28C16.9276 24.696 17.4305 24.2227 18.051 24.2227ZM8.90925 18.956C8.90925 18.3733 9.41358 17.8987 10.0327 17.8987C10.6517 17.8987 11.1561 18.3733 11.1561 18.956C11.1561 19.54 10.6517 20.0133 10.0327 20.0133C9.41358 20.0133 8.90925 19.5387 8.90925 18.956ZM30.9412 32.6667H5.05875C3.60242 32.6667 2.41667 31.552 2.41667 30.1813V25.8093L8.61742 20.94C9.02258 21.1973 9.50992 21.348 10.0341 21.348C10.5568 21.348 11.0442 21.1973 11.4479 20.9413L15.7291 24.3187C15.5902 24.6133 15.5109 24.9373 15.5109 25.28C15.5109 26.5973 16.6513 27.6707 18.051 27.6707C19.4507 27.6707 20.5911 26.5973 20.5911 25.28C20.5911 24.652 20.3262 24.0827 19.9026 23.656L25.4304 14.9267C25.6344 14.9773 25.8455 15.012 26.0665 15.012C26.5878 15.012 27.0723 14.8627 27.4761 14.608L33.5833 19.4787V30.18C33.5833 31.552 32.3976 32.6667 30.9412 32.6667Z" fill="white"/>
</svg>
