<svg width="500" height="426" viewBox="0 0 500 426" fill="none" xmlns="http://www.w3.org/2000/svg">
<g clip-path="url(#clip0_178_2784)">
<path d="M138.187 243.605C137.89 240.226 113.874 237.421 84.247 237.421C54.6202 237.421 30.6042 240.226 30.3066 243.605C30.3066 243.605 30.3066 243.605 30.3066 243.754C30.4554 247.133 54.6202 249.939 84.247 249.939C113.874 249.939 138.039 247.133 138.187 243.605ZM84.247 248.919C59.1896 248.919 38.8504 246.56 38.7016 243.605C38.7016 243.605 38.7016 243.605 38.7016 243.457C38.8504 240.502 59.1896 238.143 84.0982 238.143C109.007 238.143 129.346 240.502 129.495 243.457V243.605C129.622 246.56 109.304 248.919 84.247 248.919Z" fill="#E8D4C1"/>
<path d="M84.2472 248.919C109.305 248.919 129.644 246.56 129.644 243.605V243.457C129.495 240.502 109.156 238.143 84.2472 238.143C59.3386 238.143 38.9994 240.502 38.8506 243.457C38.8506 243.457 38.8506 243.457 38.8506 243.605C38.8506 246.56 59.1898 248.919 84.2472 248.919Z" fill="#BA9C7E"/>
<path d="M86.7547 249.492C84.8419 222.522 81.2926 195.701 76.0006 169.177C70.6873 142.802 63.61 116.703 55.0663 91.072C50.1993 76.6199 44.7586 62.3378 38.7014 48.332C38.1063 47.2906 36.9374 47.0143 35.896 47.5882C35.0034 48.1833 34.5783 49.3522 35.1522 50.3936C45.6087 75.1534 54.45 100.508 61.5272 126.288C68.6045 151.941 74.0453 178.018 77.8921 204.393C79.9537 219.419 81.5689 234.318 82.6103 249.492C82.9078 252.149 87.0309 252.149 86.7547 249.492Z" fill="#4C7378"/>
<path d="M100.739 254.657C99.2727 212.512 101.037 170.197 106.052 128.201C107.519 116.406 109.155 104.759 111.068 93.1335C111.515 90.6257 107.54 89.4567 107.094 92.0921C100.165 133.939 96.4886 176.254 96.191 218.697C96.0423 230.641 96.191 242.713 96.6374 254.657C96.7649 257.314 100.739 257.314 100.739 254.657Z" fill="#4C7378"/>
<path d="M77.0212 258.483C70.8365 224.584 57.4258 192.449 37.6605 164.31C32.0496 156.489 26.0138 148.838 19.5316 141.761C17.7676 139.848 14.9622 142.653 16.7262 144.715C39.4245 169.921 56.3632 199.697 66.3946 231.959C69.2 240.949 71.4104 250.236 73.0256 259.524C73.4719 262.181 77.4675 260.99 77.0212 258.483Z" fill="#4C7378"/>
<path d="M40.6143 221.8L30.7317 217.082L22.1879 213.107C17.1722 210.748 13.4954 208.687 13.3466 207.071C13.1979 205.456 16.8746 202.948 23.3781 201.758C24.1219 201.609 24.9933 201.461 26.0347 201.461C27.0761 201.461 27.7987 201.312 28.8401 201.312C30.9017 201.312 32.9632 201.312 35.0248 201.609C39.743 202.204 44.3124 203.671 48.5842 205.732C52.8561 207.794 56.6817 210.599 60.0822 213.979C61.5486 215.445 62.8876 217.082 64.0565 218.697C64.6516 219.441 65.0979 220.312 65.5229 221.056C65.9693 221.8 66.4156 222.671 66.6919 223.415C69.646 229.302 69.7948 233.723 68.9022 234.467C67.7333 235.359 63.8865 233.574 58.8707 231.087L50.4758 226.815L40.6143 221.8Z" fill="#4C7378"/>
<path d="M11.5827 146.181C6.56702 137.786 3.039 128.647 0.977455 119.211C-0.489007 111.836 -0.191464 106.693 1.275 106.098C2.74146 105.503 6.58827 108.755 11.3065 114.195C17.1936 121.421 22.5068 128.924 27.0762 137.042C31.7944 144.991 35.62 153.556 38.8717 162.249C41.3796 169.177 42.2509 174.044 41.3796 174.767C40.5082 175.489 35.6412 173.449 29.8816 168.582C22.6343 162.1 16.4497 154.576 11.5827 146.181Z" fill="#689399"/>
<path d="M45.3327 170.197C41.5072 147.499 44.7377 128.201 47.9894 127.755C51.2411 127.308 59.4873 144.842 63.3129 167.243C67.1384 189.644 64.0567 209.09 61.6976 209.537C58.7434 210.004 49.1583 192.895 45.3327 170.197Z" fill="#57848A"/>
<path d="M27.7989 47.4394C24.2497 36.9829 22.1881 26.2076 21.3168 15.156C20.8704 6.61227 21.7631 1.00146 23.3783 0.703913C24.9935 0.40637 28.394 4.67824 32.3684 12.0531C37.3841 21.4894 41.656 31.4996 44.8864 41.6799C48.2657 51.8388 50.7735 62.3166 52.2612 73.0706C53.4302 81.4656 53.3026 87.0764 52.1125 87.5227C50.7948 88.1178 46.6504 84.271 41.9535 77.0662C36.0451 67.7786 31.1782 57.896 27.7989 47.4394Z" fill="#57848A"/>
<path d="M53.8765 79.9991C52.9839 58.3422 57.702 40.3621 60.9538 40.2134C64.2055 40.0646 71.1127 57.3008 72.0054 79.2765C72.898 101.252 66.3945 119.062 64.1842 119.062C61.1025 119.062 54.7691 101.677 53.8765 79.9991Z" fill="#4C7378"/>
<path d="M36.7891 111.985C32.0709 108.011 28.0966 103.293 24.6961 98.1281C22.0395 93.8562 21.0193 90.307 21.8907 88.9893C22.7833 87.6716 26.4601 87.5228 31.4758 88.9893C37.6605 90.902 43.5688 94.005 48.4145 98.2769C53.4303 102.549 57.2558 107.862 60.0612 113.749C62.1228 118.467 62.5691 122.293 61.6765 123.037C60.6351 124.078 56.9583 123.483 52.2401 121.719C46.6505 119.36 41.5073 115.981 36.7891 111.985Z" fill="#689399"/>
<path d="M84.098 199.973C81.4414 192.896 79.3798 185.521 77.9134 178.167C76.872 172.131 76.7444 167.859 78.2109 166.967C79.6774 166.074 83.3754 168.136 88.0936 172.705C93.8319 178.741 98.2526 185.818 101.207 193.639C104.161 201.461 105.33 209.707 104.735 217.953C104.14 224.435 102.524 228.409 101.483 228.707C100.017 229.005 97.2112 225.753 94.1082 220.461C89.9851 213.979 86.7547 207.05 84.098 199.973Z" fill="#4C7378"/>
<path d="M96.17 192.598C98.5291 184.203 102.206 176.084 107.073 168.88C110.898 163.269 114.448 160.187 116.063 160.782C117.678 161.377 118.273 165.798 117.976 172.578C117.529 181.121 116.063 189.516 113.704 197.635C111.345 205.881 108.093 213.702 103.97 221.226C100.591 227.113 97.6364 230.662 96.4462 230.365C94.9798 230.067 93.4921 225.646 93.1945 218.718C92.7907 209.855 93.8109 201.163 96.17 192.598Z" fill="#57848A"/>
<path d="M106.648 125.247C109.899 117.426 114.32 110.221 119.91 104.015C124.33 99.1482 128.156 96.7891 129.643 97.533C131.131 98.2768 131.11 102.697 130.09 109.031C128.772 116.98 126.413 124.652 123.31 132.175C121.695 136.15 119.782 140.124 117.572 143.971C115.808 147.074 113.895 150.156 111.685 153.11C109.921 155.469 108.582 157.382 107.561 158.848C106.52 160.315 105.797 161.356 105.202 161.356C104.607 161.356 103.438 160.612 102.546 158.551C101.504 155.745 101.079 152.812 101.228 149.858C101.377 146.033 101.823 142.186 102.695 138.36C103.545 133.812 104.862 129.391 106.648 125.247Z" fill="#689399"/>
<path d="M82.7593 107.416C77.4461 88.8405 78.3387 72.0505 81.4416 71.0091C84.5446 69.9677 94.8523 83.5272 100.166 102.4C105.479 121.273 102.822 138.36 100.612 138.955C97.6577 139.699 87.9238 125.991 82.7593 107.416Z" fill="#4C7378"/>
<path d="M101.037 70.1378C102.355 59.6813 105.011 49.501 108.858 39.7671C112.11 32.2435 115.191 27.8229 116.807 28.1204C119.91 28.7155 121.971 48.906 119.017 72.4756C117.699 82.5071 115.34 92.6661 112.088 102.4C109.432 110.072 106.924 114.791 105.755 114.642C104.289 114.493 102.376 109.477 101.186 101.38C99.7191 91.0721 99.7191 80.4455 101.037 70.1378Z" fill="#4C7378"/>
<path d="M84.2473 249.939C113.577 249.939 137.295 247.282 138.188 243.903L133.916 294.889C133.916 319.054 111.664 338.947 84.396 338.947C57.1283 338.947 34.8764 319.203 34.8764 294.889L30.6045 243.754C30.8808 247.133 54.918 249.939 84.2473 249.939Z" fill="#DEC7B2"/>
<path d="M136.275 265.709C132.598 265.857 129.048 267.324 126.392 269.98C120.93 275.443 117.402 283.689 112.981 289.873C111.366 286.494 109.878 282.945 108.56 279.417C106.945 275.145 101.334 271.171 96.9138 274.699C92.3444 278.227 88.3701 282.647 85.5647 287.663C82.908 292.084 80.6977 297.397 76.5746 300.776C72.4515 304.155 68.0309 304.899 66.4156 299.161C64.9492 294.145 65.523 288.704 63.9078 283.689C62.5901 279.417 60.3797 275.145 56.0866 273.232C50.9221 271.022 46.0552 273.827 41.4858 276.038C38.8291 277.355 36.1725 278.843 33.5371 280.458L34.4297 291.212C38.9992 288.258 44.7375 284.73 49.4557 284.135C52.4098 283.689 52.2611 285.75 52.4098 288.556C52.5586 291.064 52.5586 293.571 52.7074 296.079C53.0049 301.244 53.7488 306.387 56.8305 310.68C63.3127 319.819 75.5545 319.373 84.0982 313.634C88.5188 310.531 92.1956 306.557 95.001 301.839C96.0424 300.372 96.9138 298.736 97.8064 297.121C101.483 305.664 107.094 313.337 116.382 310.085C122.12 308.023 125.818 301.839 129.346 297.121C130.387 295.654 132.3 292.105 134.362 289.023L136.275 265.709Z" fill="#EBDBCD"/>
<path d="M72.6001 135.725C74.6617 124.822 78.0622 114.344 82.7591 104.334C86.4359 96.6616 89.9851 92.241 91.6004 92.5385C94.7033 93.4312 95.1284 114.493 90.4315 139.104C89.2625 145.289 87.7748 151.048 86.1596 156.34C84.5444 161.632 82.9079 165.925 81.8877 169.602C80.8463 173.279 80.1237 176.382 79.5286 178.741C78.9335 181.1 78.636 182.567 78.0622 182.715C77.4671 182.864 76.0006 182.12 74.5342 179.761C72.6214 176.509 71.2824 172.981 70.7086 169.305C69.9647 164.14 69.816 158.848 70.2623 153.684C70.6873 147.648 71.5587 141.612 72.6001 135.725Z" fill="#57848A"/>
<path d="M138.039 243.159H129.644C129.792 243.308 129.792 243.457 129.792 243.605V243.754C129.644 246.708 109.453 249.067 84.3959 249.067C59.3385 249.067 38.9993 246.708 38.8505 243.754C38.8505 243.754 38.8505 243.754 38.8505 243.605C38.8505 243.457 38.8505 243.308 38.9993 243.159H30.6043C30.4556 243.308 30.4556 243.457 30.4556 243.605C30.4556 243.605 30.4556 243.605 30.4556 243.754C30.6043 247.133 54.7691 249.939 84.3959 249.939C114.023 249.939 138.187 247.133 138.336 243.754C138.336 243.754 138.336 243.754 138.336 243.605C138.187 243.457 138.039 243.308 138.039 243.159Z" fill="#E8D4C1"/>
<path d="M489.097 203.076C488.353 202.778 488.056 201.907 488.353 201.163C488.651 200.568 489.097 200.27 489.671 200.27H496.897V193.044C496.897 192.152 497.492 191.578 498.363 191.578C499.256 191.578 499.83 192.173 499.83 193.044V203.203H489.671C489.543 203.225 489.246 203.225 489.097 203.076Z" fill="url(#paint0_linear_178_2784)"/>
<path d="M341.133 202.927C340.389 202.629 340.091 201.758 340.389 201.014C340.686 200.419 341.133 200.122 341.707 200.122H360.282C361.174 200.122 361.748 200.717 361.748 201.588C361.748 202.481 361.153 203.055 360.282 203.055H341.707C341.409 203.076 341.282 203.076 341.133 202.927ZM378.113 202.927C377.369 202.629 376.944 201.758 377.221 201.014C377.518 200.419 377.964 199.973 378.687 200.122H397.113C398.006 200.122 398.58 200.717 398.58 201.588C398.58 202.481 397.985 203.055 397.113 203.055H378.538C378.411 203.076 378.262 203.076 378.113 202.927ZM415.115 202.927C414.371 202.629 414.073 201.758 414.371 201.014C414.668 200.419 415.115 200.122 415.689 200.122H434.264C435.156 200.122 435.73 200.717 435.73 201.588C435.73 202.481 435.135 203.055 434.264 203.055H415.689C415.561 203.076 415.264 203.076 415.115 202.927ZM452.095 202.927C451.351 202.629 450.926 201.758 451.202 201.014C451.5 200.419 451.946 200.122 452.669 200.122H471.244C472.137 200.122 472.711 200.717 472.711 201.588C472.711 202.481 472.116 203.055 471.244 203.055H452.69C452.541 203.076 452.244 203.076 452.095 202.927Z" fill="url(#paint1_linear_178_2784)"/>
<path d="M312.973 203.076V192.917C312.973 192.024 313.568 191.45 314.439 191.45C315.311 191.45 315.906 192.045 315.906 192.917V200.143H323.132C324.024 200.143 324.598 200.738 324.598 201.609C324.598 202.481 324.003 203.076 323.132 203.076H312.973Z" fill="url(#paint2_linear_178_2784)"/>
<path d="M313.865 177.126C313.27 176.828 312.973 176.382 312.973 175.808V158.572C312.973 157.679 313.568 157.105 314.439 157.105C315.311 157.105 315.906 157.7 315.906 158.572V175.808C315.906 176.701 315.311 177.274 314.439 177.274C314.312 177.126 314.014 177.126 313.865 177.126ZM313.865 142.653C313.27 142.356 312.973 141.909 312.973 141.336V124.248C312.973 123.355 313.568 122.782 314.439 122.782C315.311 122.782 315.906 123.377 315.906 124.248V141.484C315.906 142.377 315.311 142.951 314.439 142.951C314.312 142.802 314.014 142.802 313.865 142.653ZM313.865 108.308C313.27 108.011 312.973 107.564 312.973 106.991V89.7543C312.973 88.8617 313.568 88.2878 314.439 88.2878C315.311 88.2878 315.906 88.8829 315.906 89.7543V106.991C315.906 107.883 315.311 108.457 314.439 108.457C314.312 108.457 314.014 108.457 313.865 108.308Z" fill="url(#paint3_linear_178_2784)"/>
<path d="M313.865 73.9632C313.27 73.6657 312.973 73.2194 312.973 72.6455V62.4866H323.132C324.024 62.4866 324.598 63.0817 324.598 63.953C324.598 64.8244 324.003 65.4195 323.132 65.4195H315.906V72.6455C315.906 73.5382 315.311 74.112 314.439 74.112C314.312 74.112 314.163 73.9632 313.865 73.9632Z" fill="url(#paint4_linear_178_2784)"/>
<path d="M341.133 65.2707C340.538 64.9732 340.24 64.5269 340.24 63.953C340.24 63.0604 340.835 62.4866 341.707 62.4866H360.282C361.175 62.4866 361.748 63.0817 361.748 63.953C361.748 64.8244 361.153 65.4195 360.282 65.4195H341.855C341.558 65.4195 341.282 65.4195 341.133 65.2707ZM378.113 65.2707C377.518 64.9732 377.221 64.5269 377.221 63.953C377.221 63.0604 377.816 62.4866 378.687 62.4866H397.262C398.155 62.4866 398.729 63.0817 398.729 63.953C398.729 64.8244 398.134 65.4195 397.262 65.4195H378.687C378.56 65.4195 378.262 65.4195 378.113 65.2707ZM415.115 65.2707C414.371 64.9732 413.946 64.1018 414.222 63.358C414.52 62.7629 414.966 62.4653 415.689 62.4653H434.264C435.157 62.4653 435.73 63.0604 435.73 63.9318C435.73 64.8032 435.135 65.3983 434.264 65.3983H415.689C415.561 65.4195 415.412 65.4195 415.115 65.2707ZM452.244 65.2707C451.5 64.9732 451.203 64.1018 451.5 63.358C451.798 62.7629 452.244 62.4653 452.818 62.4653H471.244C472.137 62.4653 472.711 63.0604 472.711 63.9318C472.711 64.8032 472.116 65.3983 471.244 65.3983H452.69C452.542 65.4195 452.393 65.4195 452.244 65.2707Z" fill="url(#paint5_linear_178_2784)"/>
<path d="M497.938 74.112C497.343 73.8145 497.046 73.3682 497.046 72.7944V65.5683H489.819C488.927 65.5683 488.353 64.9732 488.353 64.1018C488.353 63.2305 488.948 62.6354 489.819 62.6354H499.978V72.7944C499.978 73.687 499.383 74.2608 498.512 74.2608C498.236 74.2608 498.087 74.112 497.938 74.112Z" fill="url(#paint6_linear_178_2784)"/>
<path d="M497.79 177.126C497.195 176.828 496.897 176.382 496.897 175.808V158.572C496.897 157.679 497.492 157.105 498.363 157.105C499.235 157.105 499.83 157.7 499.83 158.572V175.808C499.83 176.701 499.235 177.275 498.363 177.275C498.236 177.275 497.938 177.275 497.79 177.126ZM497.79 142.802C497.195 142.504 496.897 142.058 496.897 141.484V124.248C496.897 123.355 497.492 122.782 498.363 122.782C499.235 122.782 499.83 123.377 499.83 124.248V141.484C499.83 142.377 499.235 142.951 498.363 142.951C498.236 142.951 498.087 142.951 497.79 142.802ZM497.79 108.457C497.195 108.16 496.897 107.713 496.897 107.139V89.9031C496.897 89.0105 497.492 88.4366 498.363 88.4366C499.235 88.4366 499.83 89.0317 499.83 89.9031V107.139C499.83 108.032 499.235 108.606 498.363 108.606C498.236 108.606 498.087 108.457 497.79 108.457Z" fill="url(#paint7_linear_178_2784)"/>
<path d="M109.432 83.5485H421.151C432.203 83.5485 441.193 92.5385 441.193 103.59V300.649C441.193 311.7 432.203 320.69 421.151 320.69H109.432C98.3805 320.69 89.3905 311.7 89.3905 300.649V103.59C89.2417 92.5385 98.2318 83.5485 109.432 83.5485Z" fill="url(#paint8_linear_178_2784)"/>
<path d="M107.966 96.2152H422.617C425.572 96.2152 427.931 98.5743 427.931 101.528V298.289C427.931 301.244 425.572 303.603 422.617 303.603H107.966C105.011 303.603 102.652 301.244 102.652 298.289V101.528C102.652 98.5743 105.011 96.2152 107.966 96.2152Z" fill="#E8EAF7"/>
<path d="M479.661 415.734H50.9221C44.2911 415.734 38.8291 410.272 38.8291 403.641C38.8291 401.728 39.2754 399.816 40.1468 398.03L83.6306 331.126C87.0098 324.643 93.7896 320.669 101.016 320.669H429.227C436.453 320.669 443.233 324.643 446.612 331.126L490.096 398.03C493.199 403.917 490.988 411.143 485.08 414.395C483.486 415.309 481.573 415.734 479.661 415.734Z" fill="#65B7C0"/>
<path d="M491.605 403.365C491.754 409.996 486.589 415.607 479.958 415.755C479.809 415.755 479.66 415.755 479.512 415.755H50.9221C44.2911 415.755 38.8291 410.293 38.8291 403.662C38.8291 403.514 38.8291 403.365 38.8291 403.216V413.821C38.8291 420.452 44.2911 425.766 50.9221 425.766H479.512C486.143 425.766 491.456 420.452 491.605 413.821V403.365Z" fill="url(#paint9_linear_178_2784)"/>
<path d="M348.635 407.042H181.799C179.737 407.042 177.973 405.278 177.973 403.216C177.973 402.621 178.122 402.047 178.419 401.452L184.902 379.944C185.943 377.882 188.153 376.565 190.512 376.565H339.964C342.323 376.565 344.385 377.882 345.575 379.944L352.057 401.452C353.099 403.365 352.355 405.724 350.442 406.617C349.974 406.893 349.379 407.042 348.635 407.042Z" fill="#A8D2D6"/>
<path d="M409.951 369.169H120.632C118.125 369.169 116.063 367.107 116.063 364.599C116.063 363.855 116.212 363.133 116.658 362.389L128.9 337.034C130.218 334.675 132.725 333.06 135.531 333.06H395.371C398.176 333.06 400.684 334.526 402.002 337.034L414.244 362.389C415.413 364.599 414.541 367.405 412.331 368.573C411.417 369.02 410.694 369.169 409.951 369.169Z" fill="url(#paint10_linear_178_2784)"/>
<path d="M102.652 114.642H427.931V298.268C427.931 301.223 425.572 303.582 422.617 303.582H107.966C105.011 303.582 102.652 301.223 102.652 298.268V114.642Z" fill="white"/>
<path d="M158.527 141.612H263.177C264.941 141.612 266.28 142.93 266.28 144.715V188.772C266.28 190.536 264.962 191.875 263.177 191.875H158.527C156.763 191.875 155.424 190.558 155.424 188.772V144.715C155.424 143.078 156.742 141.612 158.527 141.612Z" fill="#E8E8F7"/>
<path d="M288.064 203.82H371.929C373.693 203.82 375.031 205.137 375.031 206.923V273.53C375.031 275.294 373.714 276.633 371.929 276.633H288.064C286.3 276.633 284.961 275.315 284.961 273.53V206.901C284.982 205.137 286.449 203.82 288.064 203.82Z" fill="#E8E8F7"/>
<path d="M158.229 203.947H263.304C264.92 203.947 266.259 205.265 266.259 206.901C266.259 208.517 264.941 209.855 263.304 209.855H158.229C156.614 209.855 155.275 208.538 155.275 206.901C155.424 205.286 156.741 203.947 158.229 203.947Z" fill="#E8E8F7"/>
<path d="M158.229 216.933H233.826C235.442 216.933 236.78 218.25 236.78 219.887C236.78 221.502 235.463 222.841 233.826 222.841H158.229C156.614 222.841 155.275 221.523 155.275 219.887C155.424 218.25 156.741 216.933 158.229 216.933Z" fill="#E8E8F7"/>
<path d="M158.229 229.897H248.576C250.191 229.897 251.53 231.215 251.53 232.851C251.53 234.467 250.212 235.805 248.576 235.805H158.229C156.614 235.805 155.275 234.488 155.275 232.851C155.424 231.215 156.741 229.897 158.229 229.897Z" fill="#E8E8F7"/>
<path d="M158.229 257.76H263.304C264.92 257.76 266.259 259.078 266.259 260.714C266.259 262.329 264.941 263.668 263.304 263.668H158.229C156.614 263.668 155.275 262.351 155.275 260.714C155.424 259.078 156.741 257.76 158.229 257.76Z" fill="#E8E8F7"/>
<path d="M158.229 270.724H219.098C220.713 270.724 222.052 272.042 222.052 273.679C222.052 275.294 220.734 276.633 219.098 276.633H158.229C156.614 276.633 155.275 275.315 155.275 273.679C155.424 272.042 156.741 270.724 158.229 270.724Z" fill="#E8E8F7"/>
<path d="M287.618 141.612H370.59C372.205 141.612 373.544 142.93 373.544 144.566C373.544 146.181 372.226 147.52 370.59 147.52H287.618C286.003 147.52 284.664 146.202 284.664 144.566C284.834 142.951 286.003 141.612 287.618 141.612Z" fill="#E8E8F7"/>
<path d="M287.618 154.576H345.532C347.148 154.576 348.487 155.894 348.487 157.53C348.487 159.146 347.169 160.485 345.532 160.485H287.618C286.003 160.485 284.664 159.167 284.664 157.53C284.834 155.915 286.003 154.576 287.618 154.576Z" fill="#E8E8F7"/>
<path d="M287.618 167.562H357.328C358.943 167.562 360.282 168.88 360.282 170.516C360.282 172.131 358.964 173.47 357.328 173.47H287.618C286.003 173.47 284.664 172.153 284.664 170.516C284.834 168.88 286.003 167.562 287.618 167.562Z" fill="#E8E8F7"/>
<path d="M287.618 180.526H367.636C369.251 180.526 370.59 181.844 370.59 183.48C370.59 185.096 369.272 186.435 367.636 186.435H287.618C286.003 186.435 284.664 185.117 284.664 183.48C284.834 181.844 286.003 180.526 287.618 180.526Z" fill="#E8E8F7"/>
<path d="M114.597 108.733C116.463 108.733 117.976 107.22 117.976 105.354C117.976 103.488 116.463 101.975 114.597 101.975C112.73 101.975 111.217 103.488 111.217 105.354C111.217 107.22 112.73 108.733 114.597 108.733Z" fill="#FF7A82"/>
<path d="M127.412 108.733C129.278 108.733 130.791 107.22 130.791 105.354C130.791 103.488 129.278 101.975 127.412 101.975C125.546 101.975 124.033 103.488 124.033 105.354C124.033 107.22 125.546 108.733 127.412 108.733Z" fill="#FDB62F"/>
<path d="M140.249 108.733C142.115 108.733 143.628 107.22 143.628 105.354C143.628 103.488 142.115 101.975 140.249 101.975C138.383 101.975 136.87 103.488 136.87 105.354C136.87 107.22 138.383 108.733 140.249 108.733Z" fill="#64A7B0"/>
<path d="M336.564 276.611H296.608V238.59L316.65 224.584L336.564 238.59V276.611Z" fill="url(#paint11_linear_178_2784)"/>
<path d="M323.599 255.55H309.445V276.633H323.599V255.55Z" fill="#65B7C0"/>
<path d="M336.564 238.59H363.534L343.62 224.584H316.649L336.564 238.59Z" fill="#FF5856"/>
<path d="M363.534 238.59H336.563V276.463H363.534V238.59Z" fill="#65B7C0"/>
<path d="M182.84 191.875H162.203V172.408L172.511 165.203L182.84 172.408V191.875Z" fill="url(#paint12_linear_178_2784)"/>
<path d="M176.209 181.121H168.834V192.024H176.209V181.121Z" fill="#65B7C0"/>
<path d="M182.84 172.408H196.697L186.368 165.203H172.511L182.84 172.408Z" fill="#FF5856"/>
<path d="M196.697 172.408H182.84V191.854H196.697V172.408Z" fill="#65B7C0"/>
<path d="M217.334 191.875H196.846V160.633L207.005 153.407L217.334 160.633V191.875Z" fill="url(#paint13_linear_178_2784)"/>
<path d="M210.852 184.649H203.477V192.024H210.852V184.649Z" fill="#65B7C0"/>
<path d="M217.334 160.633H231.318L221.011 153.407H207.005L217.334 160.633Z" fill="#FF7A82"/>
<path d="M231.191 160.633H217.334V191.875H231.191V160.633Z" fill="#65B7C0"/>
<path d="M248.13 191.875H231.318V175.957L239.735 170.07L248.13 175.957V191.875Z" fill="url(#paint14_linear_178_2784)"/>
<path d="M242.816 185.393H236.78V191.875H242.816V185.393Z" fill="#65B7C0"/>
<path d="M248.129 175.957H259.478L251.084 170.07H239.734L248.129 175.957Z" fill="#FCB58A"/>
<path d="M259.479 175.957H248.129V191.875H259.479V175.957Z" fill="#65B7C0"/>
<path d="M12.6029 323.623C12.4542 323.623 12.3054 323.623 12.1566 323.623C11.5615 323.474 11.1152 322.879 11.1152 322.306C11.4128 319.946 12.0079 317.736 12.8792 315.526C13.1768 314.931 13.7719 314.633 14.3457 314.782C14.9408 314.931 15.2383 315.675 15.0896 316.248C14.3457 318.31 13.7719 320.371 13.4743 322.582C13.3468 323.198 13.0493 323.474 12.6029 323.623Z" fill="url(#paint15_linear_178_2784)"/>
<path d="M208.046 342.496C207.897 342.496 207.749 342.496 207.6 342.496L205.985 342.347C202.01 342.05 198.036 341.603 193.594 341.029C192.999 340.881 192.553 340.434 192.553 339.712C192.701 339.117 193.148 338.67 193.87 338.67C198.142 339.265 202.117 339.563 206.112 339.988L207.727 340.137C208.322 340.137 208.769 340.732 208.769 341.306C208.769 341.901 208.471 342.347 208.046 342.496ZM180.183 338.819C180.035 338.819 179.886 338.819 179.588 338.819C175.019 337.778 170.449 336.609 165.88 334.994C165.285 334.845 164.987 334.101 165.136 333.527C165.285 332.932 166.029 332.634 166.603 332.783C171.023 334.25 175.444 335.589 180.013 336.46C180.608 336.609 181.055 337.204 180.906 337.778C180.927 338.373 180.63 338.819 180.183 338.819ZM153.957 329.383C153.66 329.532 153.362 329.383 153.064 329.234C148.941 326.875 145.116 324.07 141.566 320.988C141.12 320.541 141.12 319.819 141.418 319.373C141.864 318.926 142.587 318.926 143.033 319.224C146.412 322.327 150.259 324.962 154.233 327.172C154.828 327.47 154.977 328.214 154.68 328.788C154.382 329.085 154.255 329.234 153.957 329.383ZM133.172 310.659C132.725 310.808 132.13 310.659 132.003 310.213C129.197 306.387 126.838 302.264 124.925 297.822C124.628 297.227 124.925 296.504 125.52 296.355C126.115 296.207 126.838 296.355 126.987 296.951C128.751 301.222 131.11 305.197 133.767 308.895C134.213 309.341 134.064 310.064 133.469 310.51C133.469 310.659 133.32 310.659 133.172 310.659ZM136.551 294.294C134.043 295.038 131.535 295.463 128.878 295.76C128.283 295.909 127.709 295.463 127.561 294.868C127.412 294.273 127.858 293.699 128.453 293.55H128.602C131.11 293.253 133.618 292.806 135.977 292.084C138.038 291.489 139.951 290.915 141.864 290.022C142.459 289.725 143.182 289.873 143.479 290.468C143.777 291.063 143.628 291.786 143.033 292.084C143.033 292.084 142.884 292.084 142.884 292.232C140.844 292.976 138.761 293.72 136.551 294.294ZM115.043 296.079C114.894 296.079 114.745 296.079 114.596 296.079C110.473 295.782 106.201 295.187 100.591 294.315C99.9955 294.166 99.5491 293.571 99.6979 292.998C99.8467 292.424 100.442 291.956 101.016 292.105C106.478 292.997 110.75 293.571 114.873 293.869C115.468 293.869 115.914 294.464 115.914 295.187C115.787 295.633 115.489 295.93 115.043 296.079ZM154.255 284.73C153.808 284.879 153.362 284.73 153.086 284.433C152.639 283.986 152.639 283.264 153.086 282.817C154.85 281.202 156.337 279.289 157.655 277.206C158.696 275.442 159.568 273.53 160.163 271.468C160.312 270.873 161.056 270.427 161.629 270.724C162.224 271.022 162.671 271.617 162.373 272.191C161.778 274.401 160.758 276.463 159.568 278.524C158.25 280.734 156.614 282.796 154.701 284.56C154.68 284.581 154.531 284.73 154.255 284.73ZM122.417 285.155C121.674 285.304 121.1 284.858 120.951 284.114C120.207 279.396 120.207 274.529 121.1 269.81C121.249 269.215 121.844 268.769 122.417 268.918C123.013 269.067 123.459 269.662 123.31 270.235C122.417 274.656 122.417 279.374 123.161 283.795C123.289 284.433 122.991 285.006 122.417 285.155ZM87.3286 291.935C87.1799 291.935 87.0311 291.935 86.8823 291.935C85.2671 291.637 83.6306 291.34 82.0154 291.042C78.7636 290.596 75.9795 290.15 73.0253 289.873C72.4302 289.873 71.8564 289.278 71.8564 288.704C71.8564 288.109 72.4515 287.535 73.0253 287.535H73.1741C76.1283 287.833 79.0612 288.131 82.3129 288.704C83.9281 289.002 85.5646 289.299 87.1799 289.597C87.7749 289.746 88.2213 290.341 88.0725 290.915C88.0725 291.361 87.7749 291.659 87.3286 291.935ZM21.7416 305.346C21.1465 305.494 20.4239 305.197 20.2752 304.453C20.1264 304.007 20.2752 303.709 20.5727 303.412C23.8244 299.884 27.65 296.929 31.7731 294.421C32.3682 294.124 33.0908 294.273 33.3883 294.868C33.6859 295.463 33.5371 296.037 32.942 296.483C28.9677 298.693 25.4184 301.647 22.3367 304.878C22.0392 305.069 21.8904 305.218 21.7416 305.346ZM59.4871 289.448H59.1896C54.6201 289.597 50.0507 290.341 45.4813 291.361C44.8862 291.51 44.3124 291.063 44.1636 290.32C44.0149 289.725 44.4612 289.278 44.9075 289.002C49.4769 287.833 54.1951 287.238 58.9133 286.94C59.5084 286.94 60.0822 287.535 60.0822 288.109C60.2097 288.853 59.9122 289.299 59.4871 289.448ZM161.608 259.226C161.013 259.375 160.439 259.078 160.29 258.482C159.249 254.954 156.911 252 153.808 250.088C153.213 249.641 152.491 249.344 151.895 249.046C151.3 248.897 150.854 248.153 151.152 247.58C151.449 246.985 152.044 246.538 152.618 246.836C152.767 246.836 152.767 246.836 152.916 246.985C153.66 247.282 154.531 247.728 155.275 248.154C158.803 250.364 161.459 253.764 162.798 257.887C162.65 258.334 162.352 258.929 161.608 259.226C161.757 259.226 161.757 259.226 161.608 259.226ZM128.007 258.334C127.709 258.482 127.263 258.334 126.966 258.185C126.519 257.739 126.371 257.016 126.668 256.57C129.622 252.595 133.448 249.492 138.017 247.58C138.612 247.282 139.335 247.58 139.484 248.175C139.781 248.77 139.484 249.492 138.889 249.641C138.889 249.641 138.889 249.641 138.74 249.641C134.617 251.405 131.067 254.359 128.283 257.887C128.453 258.185 128.305 258.334 128.007 258.334Z" fill="url(#paint16_linear_178_2784)"/>
<path d="M228.534 346.321C228.237 346.321 227.939 346.321 227.642 346.173C225.729 345.28 223.667 344.557 221.457 344.26C220.862 344.111 220.416 343.516 220.564 342.942C220.713 342.347 221.308 341.901 221.882 342.05C224.241 342.496 226.452 343.219 228.662 344.26C229.257 344.557 229.406 345.153 229.108 345.726C229.108 346.024 228.811 346.321 228.534 346.321Z" fill="url(#paint17_linear_178_2784)"/>
</g>
<defs>
<linearGradient id="paint0_linear_178_2784" x1="494.035" y1="191.578" x2="494.035" y2="203.213" gradientUnits="userSpaceOnUse">
<stop stop-color="#3BB3C1"/>
<stop offset="1" stop-color="#1B8895"/>
</linearGradient>
<linearGradient id="paint1_linear_178_2784" x1="406.493" y1="200.093" x2="406.493" y2="203.065" gradientUnits="userSpaceOnUse">
<stop stop-color="#3BB3C1"/>
<stop offset="1" stop-color="#1B8895"/>
</linearGradient>
<linearGradient id="paint2_linear_178_2784" x1="318.785" y1="191.45" x2="318.785" y2="203.076" gradientUnits="userSpaceOnUse">
<stop stop-color="#3BB3C1"/>
<stop offset="1" stop-color="#1B8895"/>
</linearGradient>
<linearGradient id="paint3_linear_178_2784" x1="314.439" y1="88.2878" x2="314.439" y2="177.274" gradientUnits="userSpaceOnUse">
<stop stop-color="#3BB3C1"/>
<stop offset="1" stop-color="#1B8895"/>
</linearGradient>
<linearGradient id="paint4_linear_178_2784" x1="318.785" y1="62.4866" x2="318.785" y2="74.112" gradientUnits="userSpaceOnUse">
<stop stop-color="#3BB3C1"/>
<stop offset="1" stop-color="#1B8895"/>
</linearGradient>
<linearGradient id="paint5_linear_178_2784" x1="406.475" y1="62.4653" x2="406.475" y2="65.4195" gradientUnits="userSpaceOnUse">
<stop stop-color="#3BB3C1"/>
<stop offset="1" stop-color="#1B8895"/>
</linearGradient>
<linearGradient id="paint6_linear_178_2784" x1="494.166" y1="62.6354" x2="494.166" y2="74.2608" gradientUnits="userSpaceOnUse">
<stop stop-color="#3BB3C1"/>
<stop offset="1" stop-color="#1B8895"/>
</linearGradient>
<linearGradient id="paint7_linear_178_2784" x1="498.363" y1="88.4366" x2="498.363" y2="177.275" gradientUnits="userSpaceOnUse">
<stop stop-color="#3BB3C1"/>
<stop offset="1" stop-color="#1B8895"/>
</linearGradient>
<linearGradient id="paint8_linear_178_2784" x1="265.291" y1="83.5485" x2="265.291" y2="320.69" gradientUnits="userSpaceOnUse">
<stop stop-color="#3BB3C1"/>
<stop offset="1" stop-color="#1B8895"/>
</linearGradient>
<linearGradient id="paint9_linear_178_2784" x1="265.218" y1="403.216" x2="265.218" y2="425.766" gradientUnits="userSpaceOnUse">
<stop stop-color="#3BB3C1"/>
<stop offset="1" stop-color="#1B8895"/>
</linearGradient>
<linearGradient id="paint10_linear_178_2784" x1="265.413" y1="333.06" x2="265.413" y2="369.169" gradientUnits="userSpaceOnUse">
<stop stop-color="#3BB3C1"/>
<stop offset="1" stop-color="#1B8895"/>
</linearGradient>
<linearGradient id="paint11_linear_178_2784" x1="316.586" y1="224.584" x2="316.586" y2="276.611" gradientUnits="userSpaceOnUse">
<stop stop-color="#3BB3C1"/>
<stop offset="1" stop-color="#1B8895"/>
</linearGradient>
<linearGradient id="paint12_linear_178_2784" x1="172.521" y1="165.203" x2="172.521" y2="191.875" gradientUnits="userSpaceOnUse">
<stop stop-color="#3BB3C1"/>
<stop offset="1" stop-color="#1B8895"/>
</linearGradient>
<linearGradient id="paint13_linear_178_2784" x1="207.09" y1="153.407" x2="207.09" y2="191.875" gradientUnits="userSpaceOnUse">
<stop stop-color="#3BB3C1"/>
<stop offset="1" stop-color="#1B8895"/>
</linearGradient>
<linearGradient id="paint14_linear_178_2784" x1="239.724" y1="170.07" x2="239.724" y2="191.875" gradientUnits="userSpaceOnUse">
<stop stop-color="#3BB3C1"/>
<stop offset="1" stop-color="#1B8895"/>
</linearGradient>
<linearGradient id="paint15_linear_178_2784" x1="13.1214" y1="314.744" x2="13.1214" y2="323.623" gradientUnits="userSpaceOnUse">
<stop stop-color="#3BB3C1"/>
<stop offset="1" stop-color="#1B8895"/>
</linearGradient>
<linearGradient id="paint16_linear_178_2784" x1="114.493" y1="246.741" x2="114.493" y2="342.496" gradientUnits="userSpaceOnUse">
<stop stop-color="#3BB3C1"/>
<stop offset="1" stop-color="#1B8895"/>
</linearGradient>
<linearGradient id="paint17_linear_178_2784" x1="224.896" y1="342.021" x2="224.896" y2="346.321" gradientUnits="userSpaceOnUse">
<stop stop-color="#3BB3C1"/>
<stop offset="1" stop-color="#1B8895"/>
</linearGradient>
<clipPath id="clip0_178_2784">
<rect width="500" height="425.062" fill="white" transform="translate(0 0.703857)"/>
</clipPath>
</defs>
</svg>
