<svg width="20" height="17" viewBox="0 0 20 17" fill="none" xmlns="http://www.w3.org/2000/svg">
<g filter="url(#filter0_d_1910_3967)">
<path d="M16.3122 6.99967C16.3122 7.11079 16.2947 7.21495 16.2597 7.31217C16.2252 7.4094 16.1663 7.49967 16.083 7.58301L10.583 13.083C10.4163 13.2497 10.2183 13.333 9.98884 13.333C9.75995 13.333 9.56217 13.2497 9.39551 13.083C9.22884 12.9163 9.14551 12.7219 9.14551 12.4997C9.14551 12.2775 9.22884 12.083 9.39551 11.9163L13.4788 7.83301L4.14551 7.83301C3.9094 7.83301 3.71495 7.75301 3.56217 7.59301C3.4094 7.43356 3.33301 7.23579 3.33301 6.99967C3.33301 6.76356 3.41273 6.56551 3.57217 6.40551C3.73217 6.24606 3.93023 6.16634 4.16634 6.16634L13.4788 6.16634L9.39551 2.08301C9.22884 1.91634 9.14551 1.7219 9.14551 1.49967C9.14551 1.27745 9.22884 1.08301 9.39551 0.916342C9.56217 0.749675 9.75995 0.666341 9.98884 0.666341C10.2183 0.666341 10.4163 0.749675 10.583 0.916342L16.083 6.41634C16.1663 6.49968 16.2252 6.58995 16.2597 6.68717C16.2947 6.7844 16.3122 6.88856 16.3122 6.99967Z" fill="#E7E7E7"/>
</g>
<defs>
<filter id="filter0_d_1910_3967" x="-0.666992" y="0.666016" width="20.9795" height="20.667" filterUnits="userSpaceOnUse" color-interpolation-filters="sRGB">
<feFlood flood-opacity="0" result="BackgroundImageFix"/>
<feColorMatrix in="SourceAlpha" type="matrix" values="0 0 0 0 0 0 0 0 0 0 0 0 0 0 0 0 0 0 127 0" result="hardAlpha"/>
<feOffset dy="4"/>
<feGaussianBlur stdDeviation="2"/>
<feComposite in2="hardAlpha" operator="out"/>
<feColorMatrix type="matrix" values="0 0 0 0 0 0 0 0 0 0 0 0 0 0 0 0 0 0 0.25 0"/>
<feBlend mode="normal" in2="BackgroundImageFix" result="effect1_dropShadow_1910_3967"/>
<feBlend mode="normal" in="SourceGraphic" in2="effect1_dropShadow_1910_3967" result="shape"/>
</filter>
</defs>
</svg>
