<svg width="19" height="20" viewBox="0 0 19 20" fill="none" xmlns="http://www.w3.org/2000/svg">
<path d="M13.8001 1.2999C13.8001 1.06121 13.8949 0.832289 14.0637 0.663506C14.2325 0.494723 14.4614 0.399902 14.7001 0.399902H17.7001C17.9388 0.399902 18.1677 0.494723 18.3365 0.663506C18.5053 0.832289 18.6001 1.06121 18.6001 1.2999V4.2999C18.6001 4.5386 18.5053 4.76752 18.3365 4.9363C18.1677 5.10508 17.9388 5.1999 17.7001 5.1999C17.4614 5.1999 17.2325 5.10508 17.0637 4.9363C16.8949 4.76752 16.8001 4.5386 16.8001 4.2999V3.4719L11.4361 8.8359C11.2673 9.00444 11.0386 9.09911 10.8001 9.09911C10.5616 9.09911 10.3328 9.00444 10.1641 8.8359L7.20009 5.8719L2.13609 10.9359C2.05369 11.0243 1.95433 11.0952 1.84393 11.1444C1.73353 11.1936 1.61436 11.2201 1.49351 11.2222C1.37267 11.2243 1.25264 11.2021 1.14057 11.1568C1.0285 11.1116 0.926703 11.0442 0.841241 10.9587C0.755778 10.8733 0.688405 10.7715 0.643139 10.6594C0.597874 10.5474 0.575645 10.4273 0.577777 10.3065C0.579909 10.1856 0.606359 10.0665 0.65555 9.95605C0.70474 9.84566 0.775663 9.7463 0.864087 9.6639L6.56409 3.9639C6.73284 3.79536 6.96158 3.70069 7.20009 3.70069C7.43859 3.70069 7.66733 3.79536 7.83609 3.9639L10.8001 6.9279L15.5281 2.1999H14.7001C14.4614 2.1999 14.2325 2.10508 14.0637 1.9363C13.8949 1.76752 13.8001 1.5386 13.8001 1.2999ZM1.50009 14.7999C1.73878 14.7999 1.9677 14.8947 2.13648 15.0635C2.30527 15.2323 2.40009 15.4612 2.40009 15.6999V18.6999C2.40009 18.9386 2.30527 19.1675 2.13648 19.3363C1.9677 19.5051 1.73878 19.5999 1.50009 19.5999C1.26139 19.5999 1.03247 19.5051 0.86369 19.3363C0.694908 19.1675 0.600087 18.9386 0.600087 18.6999V15.6999C0.600087 15.4612 0.694908 15.2323 0.86369 15.0635C1.03247 14.8947 1.26139 14.7999 1.50009 14.7999ZM7.20009 12.0999C7.20009 11.8612 7.10526 11.6323 6.93648 11.4635C6.7677 11.2947 6.53878 11.1999 6.30009 11.1999C6.06139 11.1999 5.83247 11.2947 5.66369 11.4635C5.49491 11.6323 5.40009 11.8612 5.40009 12.0999V18.6999C5.40009 18.9386 5.49491 19.1675 5.66369 19.3363C5.83247 19.5051 6.06139 19.5999 6.30009 19.5999C6.53878 19.5999 6.7677 19.5051 6.93648 19.3363C7.10526 19.1675 7.20009 18.9386 7.20009 18.6999V12.0999ZM11.1001 13.5999C11.3388 13.5999 11.5677 13.6947 11.7365 13.8635C11.9053 14.0323 12.0001 14.2612 12.0001 14.4999V18.6999C12.0001 18.9386 11.9053 19.1675 11.7365 19.3363C11.5677 19.5051 11.3388 19.5999 11.1001 19.5999C10.8614 19.5999 10.6325 19.5051 10.4637 19.3363C10.2949 19.1675 10.2001 18.9386 10.2001 18.6999V14.4999C10.2001 14.2612 10.2949 14.0323 10.4637 13.8635C10.6325 13.6947 10.8614 13.5999 11.1001 13.5999ZM16.8001 9.6999C16.8001 9.46121 16.7053 9.23229 16.5365 9.06351C16.3677 8.89472 16.1388 8.7999 15.9001 8.7999C15.6614 8.7999 15.4325 8.89472 15.2637 9.06351C15.0949 9.23229 15.0001 9.46121 15.0001 9.6999V18.6999C15.0001 18.9386 15.0949 19.1675 15.2637 19.3363C15.4325 19.5051 15.6614 19.5999 15.9001 19.5999C16.1388 19.5999 16.3677 19.5051 16.5365 19.3363C16.7053 19.1675 16.8001 18.9386 16.8001 18.6999V9.6999Z" fill="white"/>
</svg>

