<svg width="22" height="27" viewBox="0 0 22 27" fill="none" xmlns="http://www.w3.org/2000/svg">
<path d="M11 2.50003C8.83407 2.50003 6.75684 3.36044 5.22529 4.89199C3.69375 6.42354 2.83333 8.50076 2.83333 10.6667C2.83333 14.0057 4.91233 17.2269 7.19433 19.7224C8.36116 20.9936 9.63433 22.1629 11 23.2177C11.2038 23.0614 11.4429 22.8708 11.7175 22.646C12.8139 21.7457 13.8459 20.7695 14.8057 19.7247C17.0877 17.2269 19.1667 14.0069 19.1667 10.6667C19.1667 8.50076 18.3063 6.42354 16.7747 4.89199C15.2432 3.36044 13.1659 2.50003 11 2.50003ZM11 26.083L10.3385 25.628L10.335 25.6257L10.328 25.6199L10.3047 25.6035L10.2172 25.5417L9.90217 25.3119C8.30601 24.1123 6.82319 22.7689 5.47233 21.2985C3.08767 18.6875 0.5 14.9087 0.5 10.6655C0.5 7.88075 1.60625 5.21004 3.57538 3.24091C5.54451 1.27177 8.21523 0.165527 11 0.165527C13.7848 0.165527 16.4555 1.27177 18.4246 3.24091C20.3938 5.21004 21.5 7.88075 21.5 10.6655C21.5 14.9087 18.9123 18.6887 16.5277 21.2962C15.1772 22.7665 13.6948 24.1099 12.099 25.3095C11.9661 25.4088 11.8319 25.5064 11.6965 25.6024L11.672 25.6187L11.665 25.6245L11.6627 25.6257L11 26.083ZM11 8.33336C10.3812 8.33336 9.78767 8.57919 9.35008 9.01678C8.9125 9.45436 8.66667 10.0479 8.66667 10.6667C8.66667 11.2855 8.9125 11.879 9.35008 12.3166C9.78767 12.7542 10.3812 13 11 13C11.6188 13 12.2123 12.7542 12.6499 12.3166C13.0875 11.879 13.3333 11.2855 13.3333 10.6667C13.3333 10.0479 13.0875 9.45436 12.6499 9.01678C12.2123 8.57919 11.6188 8.33336 11 8.33336ZM6.33333 10.6667C6.33333 9.42902 6.825 8.24203 7.70017 7.36686C8.57534 6.49169 9.76232 6.00003 11 6.00003C12.2377 6.00003 13.4247 6.49169 14.2998 7.36686C15.175 8.24203 15.6667 9.42902 15.6667 10.6667C15.6667 11.9044 15.175 13.0914 14.2998 13.9665C13.4247 14.8417 12.2377 15.3334 11 15.3334C9.76232 15.3334 8.57534 14.8417 7.70017 13.9665C6.825 13.0914 6.33333 11.9044 6.33333 10.6667Z" fill="white"/>
</svg>

