<svg width="36" height="36" viewBox="0 0 36 36" fill="none" xmlns="http://www.w3.org/2000/svg">
<path d="M34.6685 10.5585C34.5365 10.4263 34.3581 10.3517 34.1712 10.3517L30.6243 10.3461V6.74877C30.6243 6.36063 30.3096 6.04561 29.9219 6.04561H26.4888L26.6728 4.64493C26.6981 4.45367 26.6433 4.261 26.5225 4.11193C26.4017 3.96286 26.2247 3.86864 26.0322 3.85317L6.04436 2.25138C5.85051 2.24013 5.6693 2.29779 5.52601 2.42154C5.38273 2.5453 5.29704 2.72249 5.28721 2.91235L5.1074 6.04561H1.82736C1.43966 6.04561 1.125 6.36063 1.125 6.74877V27.8435C1.125 28.2316 1.43966 28.5466 1.82736 28.5466H3.17309L2.82472 31.3424C2.80084 31.5322 2.85563 31.7235 2.97643 31.8726C3.09724 32.0202 3.27283 32.1145 3.46387 32.1299L23.4503 33.7472C23.47 33.7486 23.4883 33.75 23.5079 33.75C23.869 33.75 24.1766 33.4716 24.2061 33.1045L24.2356 32.7515H34.0869C34.4732 32.7515 34.7879 32.4379 34.7893 32.0512L34.875 11.0577C34.875 10.8707 34.8005 10.6921 34.6685 10.5585ZM6.64839 3.70973L25.1824 5.1962L25.0714 6.04561H6.51494L6.64839 3.70973ZM2.52973 7.45193H5.69037C5.70441 7.45333 5.71565 7.46177 5.7297 7.46177C5.75077 7.46177 5.77044 7.45333 5.79151 7.45193H25.5771C25.5841 7.45193 25.5883 7.45615 25.594 7.45755C25.6249 7.46177 25.6558 7.46318 25.6867 7.46318C25.7091 7.46318 25.7288 7.45333 25.7499 7.45193H29.2182V27.1403H2.52832L2.52973 7.45193ZM4.30952 30.7883L4.58906 28.5466H23.1722L22.866 32.2888L4.30952 30.7883ZM33.386 31.3452H24.3508L24.5797 28.5466H29.9219C30.3096 28.5466 30.6243 28.2316 30.6243 27.8435V11.751L33.4647 11.7567L33.386 31.3452ZM15.1779 14.4624C14.9377 14.4624 14.8871 14.4624 12.3249 15.5903L12.6522 12.9C12.6915 12.5864 12.6058 12.2925 12.412 12.0731C12.0482 11.661 11.4666 11.661 11.0424 11.661C8.25821 11.661 5.90389 13.7508 5.56675 16.5212C5.37571 18.0893 5.86736 19.67 6.91669 20.8555C7.96462 22.0396 9.47189 22.7189 11.0536 22.7189C13.8378 22.7189 16.1921 20.6305 16.5278 17.8587C16.5798 17.441 16.6402 15.5903 15.9716 14.8337C15.7595 14.5946 15.4771 14.4624 15.1779 14.4624ZM15.1344 17.6899C14.8829 19.7558 13.1284 21.314 11.0536 21.314C9.87505 21.314 8.74987 20.8077 7.96884 19.9245C7.1864 19.04 6.81836 17.8615 6.96024 16.6928C7.21309 14.6255 8.9676 13.0673 11.0424 13.0673C11.0901 13.0673 11.1519 13.0673 11.2152 13.0687L10.7797 16.645C10.7488 16.8967 10.8556 17.1442 11.0578 17.2947C11.2615 17.448 11.5298 17.4747 11.7602 17.3735C13.1748 16.7491 14.5219 16.157 14.9981 15.9461C15.1217 16.3455 15.1962 17.1864 15.1344 17.6899ZM15.1779 15.8687H15.1765L15.1779 15.1656V15.8687ZM25.6867 20.1088H20.1085C19.7208 20.1088 19.4061 20.4238 19.4061 20.8119C19.4061 21.2001 19.7208 21.5151 20.1085 21.5151H25.6867C26.0744 21.5151 26.389 21.2001 26.389 20.8119C26.389 20.4238 26.0744 20.1088 25.6867 20.1088ZM25.6867 15.8898H20.1085C19.7208 15.8898 19.4061 16.2048 19.4061 16.593C19.4061 16.9811 19.7208 17.2961 20.1085 17.2961H25.6867C26.0744 17.2961 26.389 16.9811 26.389 16.593C26.389 16.2048 26.0744 15.8898 25.6867 15.8898ZM25.6867 11.6695H20.1085C19.7208 11.6695 19.4061 11.9845 19.4061 12.3726C19.4061 12.7608 19.7208 13.0758 20.1085 13.0758H25.6867C26.0744 13.0758 26.389 12.7608 26.389 12.3726C26.389 11.9845 26.0744 11.6695 25.6867 11.6695Z" fill="white"/>
</svg>
