<svg width="100" height="100" viewBox="0 0 100 100" fill="none" xmlns="http://www.w3.org/2000/svg">
<path d="M60.1041 69.5207C75.9683 69.5207 88.8287 56.4631 88.8287 40.3557C88.8287 24.2483 75.9683 11.1907 60.1041 11.1907C44.24 11.1907 31.3795 24.2483 31.3795 40.3557C31.3795 56.4631 44.24 69.5207 60.1041 69.5207Z" fill="url(#paint0_linear_110_6196)"/>
<path d="M62.1901 69.4447C61.5012 69.4964 60.806 69.5215 60.1049 69.5215C44.2401 69.5215 31.3795 56.4637 31.3795 40.3557C31.3795 24.2492 44.2401 11.1914 60.1049 11.1914C60.8062 11.1914 61.5012 11.2165 62.1901 11.2682C47.2984 12.3519 35.5514 24.9612 35.5514 40.3557C35.5514 55.7517 47.2984 68.361 62.1901 69.4447Z" fill="url(#paint1_linear_110_6196)"/>
<path d="M60.1042 62.7818C72.3027 62.7818 82.1916 52.7413 82.1916 40.3557C82.1916 27.9702 72.3027 17.9297 60.1042 17.9297C47.9057 17.9297 38.0168 27.9702 38.0168 40.3557C38.0168 52.7413 47.9057 62.7818 60.1042 62.7818Z" fill="#CAEFFA"/>
<path d="M63.5942 62.5033C62.4402 62.6895 61.2735 62.7829 60.105 62.7825C47.9055 62.7825 38.0168 52.7422 38.0168 40.3557C38.0168 27.9708 47.9055 17.9305 60.105 17.9305C61.2928 17.9305 62.4575 18.0261 63.5942 18.2097C53.0537 19.9066 44.9953 29.1754 44.9953 40.3559C44.9953 51.5378 53.0537 60.8064 63.5942 62.5033Z" fill="#A2D6E3"/>
<path d="M60.1041 43.4923C58.398 43.4923 57.0149 42.088 57.0149 40.3557V28.8685C57.0149 27.1363 58.398 25.7319 60.1041 25.7319C61.8102 25.7319 63.1934 27.1363 63.1934 28.8685V40.3557C63.1934 42.088 61.8102 43.4923 60.1041 43.4923Z" fill="#665E66"/>
<path d="M67.2225 43.4923H60.104C58.3979 43.4923 57.0148 42.088 57.0148 40.3557C57.0148 38.6235 58.3979 37.2191 60.104 37.2191H67.2225C68.9286 37.2191 70.3119 38.6235 70.3119 40.3557C70.3119 42.088 68.9288 43.4923 67.2225 43.4923Z" fill="#756E78"/>
<path d="M71.546 32.868C73.4868 32.868 75.0602 31.2705 75.0602 29.2999C75.0602 27.3293 73.4868 25.7318 71.546 25.7318C69.6051 25.7318 68.0317 27.3293 68.0317 29.2999C68.0317 31.2705 69.6051 32.868 71.546 32.868Z" fill="white"/>
<path d="M49.971 79.0615V71.8623C49.971 63.3595 43.1822 56.4666 34.8078 56.4666H31.1361C22.7616 56.4666 15.9728 63.3595 15.9728 71.8623V79.0615C13.3214 79.0615 11.172 81.2439 11.172 83.9358C11.172 86.6279 13.3214 88.8101 15.9728 88.8101H49.9712C52.6226 88.8101 54.772 86.6277 54.772 83.9358C54.7717 81.2437 52.6223 79.0615 49.971 79.0615Z" fill="#C6865C"/>
<path d="M37.2646 56.6685C30.058 57.8587 24.5576 64.209 24.5576 71.8625V79.0606C21.9065 79.0606 19.756 81.2441 19.756 83.9357C19.756 85.2816 20.2929 86.4996 21.1626 87.3826C22.0323 88.2642 23.232 88.8093 24.5574 88.8093H15.9733C14.6478 88.8093 13.4481 88.2642 12.5784 87.3826C11.7088 86.4996 11.1719 85.2815 11.1719 83.9357C11.1719 81.2439 13.3222 79.0606 15.9733 79.0606V71.8625C15.9733 63.3596 22.7617 56.4658 31.1361 56.4658H34.8088C35.6453 56.4658 36.4644 56.5348 37.2646 56.6685Z" fill="#AA7A63"/>
<path d="M36.8514 42.9101C34.7218 42.8332 32.9717 44.5632 32.9717 46.7081C32.9717 44.5632 31.2215 42.8332 29.0921 42.9101C27.0636 42.9833 25.4854 44.7385 25.4854 46.7992V48.8651C25.4854 53.0631 28.8371 56.4662 32.9717 56.4662C37.1062 56.4662 40.458 53.0631 40.458 48.8651V46.7992C40.458 44.7387 38.8798 42.9834 36.8514 42.9101Z" fill="#C6865C"/>
<path d="M34.9149 56.2073C34.281 56.3796 33.6276 56.4665 32.9714 56.4659C28.837 56.4659 25.4856 53.0631 25.4856 48.8653V46.7995C25.4856 44.7381 27.063 42.9823 29.0917 42.9103C29.8281 42.8817 30.5563 43.0755 31.1842 43.4672C30.0917 44.1547 29.3725 45.408 29.3725 46.7995V48.8653C29.3725 52.3798 31.7225 55.3389 34.9149 56.2073Z" fill="#AA7A63"/>
<path d="M58.4039 81.9132H43.8979C42.0221 81.9132 40.5015 83.4571 40.5015 85.3617C40.5015 87.2662 42.0221 88.8102 43.8979 88.8102H58.4039C60.2797 88.8102 61.8004 87.2662 61.8004 85.3617C61.8002 83.4571 60.2797 81.9132 58.4039 81.9132Z" fill="#F6E266"/>
<path d="M48.4525 87.7999C48.7675 88.1204 49.1419 88.3746 49.554 88.5478C49.9661 88.721 50.4079 88.8097 50.8539 88.809H43.8984C43.4524 88.8097 43.0106 88.721 42.5985 88.5478C42.1864 88.3746 41.812 88.1204 41.4969 87.7999C41.1807 87.4803 40.93 87.1003 40.7591 86.6818C40.5883 86.2633 40.5007 85.8147 40.5015 85.3616C40.5015 83.4571 42.0226 81.9127 43.8984 81.9127H50.8539C48.9781 81.9127 47.457 83.4571 47.457 85.3616C47.4562 85.8147 47.5438 86.2633 47.7146 86.6818C47.8855 87.1003 48.1363 87.4803 48.4525 87.7999Z" fill="#FFD064"/>
<path d="M58.4039 75.0163H43.8979C42.0221 75.0163 40.5015 76.5602 40.5015 78.4648C40.5015 80.3694 42.0221 81.9133 43.8979 81.9133H58.4039C60.2797 81.9133 61.8004 80.3694 61.8004 78.4648C61.8002 76.5602 60.2797 75.0163 58.4039 75.0163Z" fill="#F6E266"/>
<path d="M48.4525 80.903C48.7675 81.2236 49.1419 81.4777 49.554 81.6509C49.9661 81.8241 50.4079 81.9129 50.8539 81.9122H43.8984C43.4524 81.9129 43.0106 81.8241 42.5985 81.6509C42.1864 81.4777 41.812 81.2236 41.4969 80.903C41.1807 80.5834 40.93 80.2035 40.7591 79.785C40.5883 79.3665 40.5007 78.9178 40.5015 78.4648C40.5015 76.5602 42.0226 75.0158 43.8984 75.0158H50.8539C48.9781 75.0158 47.457 76.5602 47.457 78.4648C47.4562 78.9178 47.5438 79.3665 47.7146 79.785C47.8855 80.2035 48.1363 80.5834 48.4525 80.903Z" fill="#FFD064"/>
<path d="M67.4979 81.9132H52.9919C51.1161 81.9132 49.5955 83.4571 49.5955 85.3617C49.5955 87.2662 51.1161 88.8102 52.9919 88.8102H67.4979C69.3737 88.8102 70.8944 87.2662 70.8944 85.3617C70.8944 83.4571 69.3737 81.9132 67.4979 81.9132Z" fill="#F6E266"/>
<path d="M57.5466 87.7999C57.8616 88.1204 58.236 88.3746 58.6481 88.5478C59.0602 88.721 59.502 88.8097 59.948 88.809H52.9926C52.5466 88.8097 52.1048 88.721 51.6927 88.5478C51.2806 88.3746 50.9063 88.1204 50.5912 87.7999C50.275 87.4803 50.0242 87.1003 49.8534 86.6818C49.6825 86.2633 49.5949 85.8147 49.5957 85.3616C49.5957 83.4571 51.1168 81.9127 52.9926 81.9127H59.9481C58.0723 81.9127 56.5512 83.4571 56.5512 85.3616C56.5505 85.8146 56.638 86.2633 56.8088 86.6818C56.9797 87.1003 57.2304 87.4803 57.5466 87.7999Z" fill="#FFD064"/>
<path d="M67.4979 75.0163H52.9919C51.1161 75.0163 49.5955 76.5602 49.5955 78.4648C49.5955 80.3694 51.1161 81.9133 52.9919 81.9133H67.4979C69.3737 81.9133 70.8944 80.3694 70.8944 78.4648C70.8944 76.5602 69.3737 75.0163 67.4979 75.0163Z" fill="#F6E266"/>
<path d="M57.5466 80.903C57.8616 81.2236 58.236 81.4777 58.6481 81.6509C59.0602 81.8241 59.502 81.9129 59.948 81.9122H52.9926C52.5466 81.9129 52.1048 81.8241 51.6927 81.6509C51.2806 81.4777 50.9063 81.2236 50.5912 80.903C50.275 80.5834 50.0242 80.2035 49.8534 79.785C49.6825 79.3665 49.5949 78.9178 49.5957 78.4648C49.5957 76.5602 51.1168 75.0158 52.9926 75.0158H59.9481C58.0723 75.0158 56.5512 76.5602 56.5512 78.4648C56.5505 78.9178 56.638 79.3665 56.8088 79.7849C56.9797 80.2034 57.2304 80.5834 57.5466 80.903Z" fill="#FFD064"/>
<path d="M58.4039 68.1193H43.8979C42.0221 68.1193 40.5015 69.6633 40.5015 71.5678C40.5015 73.4724 42.0221 75.0163 43.8979 75.0163H58.4039C60.2797 75.0163 61.8004 73.4724 61.8004 71.5678C61.8002 69.6633 60.2797 68.1193 58.4039 68.1193Z" fill="#F6E266"/>
<path d="M48.4525 74.006C48.7675 74.3265 49.1419 74.5807 49.554 74.7539C49.9661 74.9271 50.4079 75.0159 50.8539 75.0152H43.8984C43.4524 75.0159 43.0106 74.9271 42.5985 74.7539C42.1864 74.5807 41.812 74.3265 41.4969 74.006C41.1807 73.6864 40.93 73.3064 40.7591 72.8879C40.5883 72.4695 40.5007 72.0208 40.5015 71.5678C40.5015 69.6632 42.0226 68.1188 43.8984 68.1188H50.8539C48.9781 68.1188 47.457 69.6632 47.457 71.5678C47.4562 72.0208 47.5438 72.4695 47.7146 72.8879C47.8855 73.3064 48.1363 73.6864 48.4525 74.006Z" fill="#FFD064"/>
<path d="M67.2226 36.0292H64.3647V28.8686C64.3647 26.4831 62.4531 24.5422 60.1035 24.5422C57.754 24.5422 55.8424 26.4831 55.8424 28.8686V40.355H55.843V40.3556C55.843 42.7414 57.7546 44.6821 60.1042 44.6821H67.2226C69.5724 44.6821 71.4838 42.7412 71.4838 40.3556C71.4838 37.9699 69.5722 36.0292 67.2226 36.0292ZM60.1035 26.9219C61.1607 26.9219 62.0209 27.7952 62.0209 28.8686V36.0292H60.104C59.4376 36.0287 58.7805 36.188 58.1862 36.494V28.8686C58.1862 27.7952 59.0463 26.9219 60.1035 26.9219ZM67.2226 42.3024H60.1042C59.047 42.3024 58.1868 41.429 58.1868 40.3556C58.1868 39.2822 59.047 38.4089 60.1042 38.4089H67.2226C68.28 38.4089 69.14 39.2822 69.14 40.3556C69.14 41.429 68.2798 42.3024 67.2226 42.3024Z" fill="black"/>
<path d="M60.1038 10C43.6192 10 30.2078 23.6177 30.2078 40.3562C30.2078 40.8442 30.2222 41.3343 30.2452 41.8238C29.8525 41.7407 29.4514 41.7062 29.0506 41.721C26.4387 41.8153 24.3137 44.0934 24.3137 46.7992V48.8651C24.3137 51.6149 25.5645 54.0728 27.5176 55.6861C20.2454 57.3625 14.8 63.9791 14.8 71.8635V77.9887C12.0663 78.5433 10 80.9995 10 83.9365C10 85.5525 10.6208 87.0751 11.7503 88.226C12.8791 89.3699 14.3783 90 15.9721 90H22.2143C22.5251 90 22.8232 89.8747 23.043 89.6515C23.2627 89.4284 23.3862 89.1257 23.3862 88.8102C23.3862 88.4946 23.2627 88.192 23.043 87.9688C22.8232 87.7457 22.5251 87.6203 22.2143 87.6203H15.9719C15.4958 87.6216 15.0242 87.5272 14.5842 87.3425C14.1442 87.1578 13.7445 86.8865 13.4083 86.5442C12.7217 85.8446 12.3438 84.9186 12.3438 83.9365C12.3438 81.9044 13.9714 80.2512 15.9719 80.2512C16.2827 80.2512 16.5808 80.1258 16.8006 79.9027C17.0203 79.6795 17.1438 79.3769 17.1438 79.0613V71.8635C17.1438 64.0289 23.4207 57.6551 31.1361 57.6551H34.808C37.8716 57.6551 40.7804 58.6417 43.2195 60.5082C45.3537 62.1415 47.0015 64.3979 47.9284 66.9294H43.8979C41.379 66.9294 39.3298 69.0102 39.3298 71.5678C39.3298 72.9355 39.9162 74.1664 40.8466 75.0161C39.9162 75.8659 39.3298 77.0969 39.3298 78.4646C39.3298 79.7053 39.8055 80.8704 40.6684 81.7444C40.7262 81.8031 40.7852 81.8595 40.8456 81.9146C39.9157 82.764 39.3298 83.9943 39.3298 85.361C39.3298 86.1658 39.5312 86.9381 39.907 87.6202H26.9017C26.5909 87.6202 26.2928 87.7455 26.073 87.9687C25.8533 88.1918 25.7298 88.4945 25.7298 88.81C25.7298 89.1256 25.8533 89.4282 26.073 89.6514C26.2928 89.8745 26.5909 89.9999 26.9017 89.9999H67.498C70.0169 89.9999 72.0663 87.9191 72.0663 85.3615C72.0663 83.9937 71.4799 82.7627 70.5492 81.9132C71.4799 81.0634 72.0663 79.8325 72.0663 78.4646C72.0663 75.9071 70.0169 73.8263 67.498 73.8263H62.392C62.7731 73.1364 62.9729 72.3586 62.9723 71.5676C62.9723 71.2286 62.9353 70.8984 62.867 70.58C69.9819 69.9194 76.5776 66.7213 81.5902 61.4615C87.0134 55.7711 90 48.2757 90 40.356C90 23.6178 76.5886 10 60.1038 10ZM26.6573 48.8652V46.7993C26.6573 45.3598 27.7683 44.1487 29.1339 44.0993C29.4797 44.0852 29.8246 44.1427 30.1478 44.2682C30.471 44.3937 30.7657 44.5846 31.0139 44.8294C31.2635 45.0721 31.4618 45.3638 31.5969 45.6868C31.732 46.0098 31.8011 46.3572 31.7999 46.7081C31.7999 47.0237 31.9233 47.3263 32.1431 47.5495C32.3629 47.7726 32.6609 47.898 32.9717 47.898C33.2825 47.898 33.5806 47.7726 33.8004 47.5495C34.0202 47.3263 34.1436 47.0237 34.1436 46.7081C34.1436 45.9932 34.4228 45.326 34.9296 44.8292C35.4361 44.333 36.103 44.0741 36.8097 44.0992C38.1752 44.1485 39.2862 45.3598 39.2862 46.7993V48.8652C39.2862 52.3851 36.4779 55.2505 33.0169 55.2754H32.9266C29.4658 55.2505 26.6573 52.3851 26.6573 48.8652ZM42.3246 80.0606C42.1174 79.8517 41.9531 79.603 41.8413 79.329C41.7295 79.055 41.6725 78.7612 41.6735 78.4646C41.6735 77.221 42.6682 76.2093 43.8923 76.2058L43.8979 76.206H49.0041C48.6229 76.8958 48.4231 77.6737 48.4237 78.4646C48.423 79.2558 48.623 80.0338 49.0044 80.7238H43.8985C43.606 80.7245 43.3163 80.6662 43.0461 80.5524C42.7759 80.4386 42.5307 80.2714 42.3246 80.0606ZM49.0036 83.1036C48.6226 83.7933 48.4229 84.5709 48.4236 85.3617C48.4228 86.1527 48.6227 86.9305 49.0039 87.6203H43.8984C43.3035 87.6203 42.7454 87.3855 42.3246 86.957C42.1174 86.7481 41.9531 86.4994 41.8413 86.2255C41.7296 85.9515 41.6725 85.6577 41.6735 85.3612C41.6735 84.1163 42.6717 83.1036 43.8985 83.1036H49.0036ZM69.7225 85.3617C69.7225 86.607 68.7245 87.6203 67.498 87.6203H52.9921C51.7655 87.6203 50.7675 86.607 50.7675 85.3617C50.7675 84.1199 51.7597 83.1095 52.9814 83.1036H58.4037V83.1032H67.498C68.7245 83.103 69.7225 84.1161 69.7225 85.3617ZM69.7225 78.4646C69.7225 79.71 68.7245 80.7233 67.498 80.7233H52.9921C51.7655 80.7233 50.7675 79.71 50.7675 78.4646C50.7675 77.2193 51.7655 76.206 52.9921 76.206H67.498C68.7245 76.2061 69.7225 77.2193 69.7225 78.4646ZM58.4037 73.8264V73.826H43.8984L43.892 73.8261C42.6681 73.8228 41.6734 72.8113 41.6734 71.5678C41.6734 70.3224 42.6712 69.3093 43.8978 69.3093H58.4038C59.6304 69.3093 60.6284 70.3226 60.6284 71.5679C60.6284 72.8133 59.6304 73.8264 58.4038 73.8264H58.4037ZM79.906 59.8068C75.0469 64.9052 68.575 67.9027 61.6299 68.2866C60.8029 67.4485 59.6621 66.9294 58.404 66.9294H51.4727C51.067 66.7939 50.6645 66.6486 50.2656 66.4936C49.2153 63.3816 47.2311 60.5978 44.6304 58.6077C42.764 57.1794 40.6615 56.1955 38.4282 55.6845C39.2854 54.9761 40.0021 54.1087 40.5402 53.1285C42.3789 56.0294 44.8192 58.4875 47.6908 60.3313C51.4011 62.7134 55.6933 63.9724 60.1037 63.9724C72.9291 63.9724 83.3632 53.3783 83.3632 40.3562C83.3632 33.4336 80.3863 26.8837 75.1958 22.3856C75.0788 22.2842 74.9432 22.2071 74.7968 22.1589C74.6504 22.1106 74.4961 22.0921 74.3427 22.1044C74.1893 22.1167 74.0397 22.1596 73.9026 22.2306C73.7655 22.3015 73.6435 22.3992 73.5436 22.5181C73.3418 22.7581 73.2422 23.0697 73.2667 23.3843C73.2911 23.6989 73.4377 23.9907 73.6741 24.1956C78.0435 27.9822 80.6682 33.3851 80.9863 39.1659H78.4379C78.1271 39.1659 77.829 39.2912 77.6092 39.5144C77.3895 39.7375 77.266 40.0401 77.266 40.3557C77.266 40.6713 77.3895 40.9739 77.6092 41.1971C77.829 41.4202 78.1271 41.5456 78.4379 41.5456H80.986C80.3977 52.3101 71.8778 60.961 61.276 61.5586V58.9704C61.276 58.6548 61.1526 58.3522 60.9328 58.1291C60.713 57.9059 60.4149 57.7806 60.1041 57.7806C59.7933 57.7806 59.4953 57.9059 59.2755 58.1291C59.0557 58.3522 58.9323 58.6548 58.9323 58.9704V61.5565C55.3805 61.356 51.9488 60.2496 48.9433 58.32C45.8053 56.3055 43.2501 53.4815 41.5385 50.1365C41.5981 49.7211 41.6302 49.2971 41.6302 48.8654V46.7995C41.6302 45.0006 40.6904 43.3917 39.2934 42.4868C39.2629 42.1736 39.2393 41.8598 39.2224 41.5456H41.7707C42.0815 41.5456 42.3796 41.4202 42.5994 41.1971C42.8191 40.9739 42.9426 40.6713 42.9426 40.3557C42.9426 40.0401 42.8191 39.7375 42.5994 39.5144C42.3796 39.2912 42.0815 39.1659 41.7707 39.1659H39.2213C39.8101 28.4015 48.3303 19.751 58.9324 19.1536V21.741C58.9324 22.0566 59.0559 22.3592 59.2757 22.5824C59.4954 22.8055 59.7935 22.9309 60.1043 22.9309C60.4151 22.9309 60.7132 22.8055 60.9329 22.5824C61.1527 22.3592 61.2762 22.0566 61.2762 21.741V19.1548C64.3414 19.3297 67.3472 20.1861 70.0341 21.6609C70.3075 21.811 70.6284 21.8446 70.9262 21.7544C71.224 21.6642 71.4744 21.4576 71.6222 21.18C71.77 20.9025 71.8031 20.5766 71.7143 20.2742C71.6255 19.9718 71.422 19.7176 71.1486 19.5676C67.7786 17.7177 63.9593 16.7402 60.1038 16.7402C47.2784 16.7402 36.8443 27.3343 36.8443 40.3564C36.8443 40.8109 36.8591 41.2667 36.8847 41.7212C35.5411 41.6747 34.2688 42.1705 33.3025 43.1171C33.1861 43.2314 33.076 43.35 32.9722 43.4733C32.8829 43.3679 32.7894 43.2663 32.6919 43.1687C32.5997 42.2341 32.553 41.2956 32.5519 40.3564C32.5519 24.9301 44.9118 12.3799 60.1041 12.3799C75.2966 12.3799 87.6565 24.93 87.6565 40.3564C87.6562 47.6551 84.9037 54.5627 79.906 59.8068Z" fill="black"/>
<path d="M27.1361 82.3526L34.0399 67.9349C34.173 67.6515 34.1904 67.3261 34.0882 67.0297C33.9861 66.7333 33.7727 66.4899 33.4945 66.3526C33.2163 66.2153 32.896 66.1952 32.6033 66.2968C32.3106 66.3983 32.0693 66.6131 31.932 66.8945L25.0282 81.3122C24.8951 81.5957 24.8777 81.921 24.9799 82.2175C25.082 82.5139 25.2955 82.7572 25.5736 82.8945C25.8518 83.0318 26.1721 83.0519 26.4648 82.9504C26.7575 82.8489 26.9988 82.634 27.1361 82.3526ZM28.983 69.8495C28.983 67.4803 27.0887 65.5529 24.7606 65.5529C22.4324 65.5529 20.5382 67.4803 20.5382 69.8495C20.5382 72.2187 22.4324 74.1461 24.7606 74.1461C27.0887 74.1461 28.983 72.2187 28.983 69.8495ZM24.7606 71.7664C23.7248 71.7664 22.882 70.9066 22.882 69.8495C22.882 68.7924 23.7248 67.9326 24.7606 67.9326C25.7964 67.9326 26.6392 68.7924 26.6392 69.8495C26.6392 70.9066 25.7964 71.7664 24.7606 71.7664ZM29.8622 79.7072C29.8622 82.0764 31.7564 84.0038 34.0846 84.0038C36.4127 84.0038 38.3069 82.0764 38.3069 79.7072C38.3069 77.338 36.4127 75.4105 34.0846 75.4105C31.7564 75.4105 29.8622 77.338 29.8622 79.7072ZM34.0846 77.7901C35.1204 77.7901 35.9632 78.65 35.9632 79.707C35.9632 80.7641 35.1204 81.624 34.0846 81.624C33.0488 81.624 32.206 80.7641 32.206 79.707C32.206 78.6501 33.0486 77.7901 34.0846 77.7901Z" fill="black"/>
<defs>
<linearGradient id="paint0_linear_110_6196" x1="60.1041" y1="11.1907" x2="60.1041" y2="69.5207" gradientUnits="userSpaceOnUse">
<stop stop-color="#3BB3C1"/>
<stop offset="1" stop-color="#1B8895"/>
</linearGradient>
<linearGradient id="paint1_linear_110_6196" x1="46.7848" y1="11.1914" x2="46.7848" y2="69.5215" gradientUnits="userSpaceOnUse">
<stop stop-color="#3BB3C1"/>
<stop offset="1" stop-color="#1B8895"/>
</linearGradient>
</defs>
</svg>

