<svg width="65" height="64" viewBox="0 0 65 64" fill="none" xmlns="http://www.w3.org/2000/svg">
<path d="M53.5658 37.6514C53.2533 37.9741 52.9905 38.3415 52.7858 38.7414C51.6308 38.0631 50.67 37.0988 49.9958 35.9414C50.3968 35.7427 50.7646 35.483 51.0858 35.1714C51.5025 34.7553 51.833 34.2612 52.0585 33.7172C52.2841 33.1733 52.4001 32.5902 52.4001 32.0014C52.4001 31.4126 52.2841 30.8295 52.0585 30.2856C51.833 29.7416 51.5025 29.2475 51.0858 28.8314C50.7646 28.5198 50.3968 28.26 49.9958 28.0614C50.67 26.904 51.6308 25.9397 52.7858 25.2614C52.9905 25.6613 53.2533 26.0286 53.5658 26.3514C54.3009 27.0946 55.2719 27.5587 56.3119 27.664C57.3519 27.7693 58.3962 27.5092 59.2654 26.9285C60.1345 26.3477 60.7744 25.4824 61.075 24.4812C61.3757 23.48 61.3184 22.4054 60.9131 21.4419C60.5077 20.4783 59.7795 19.6859 58.8535 19.2008C57.9275 18.7157 56.8616 18.5681 55.8386 18.7833C54.8157 18.9986 53.8995 19.5633 53.2476 20.3804C52.5956 21.1975 52.2485 22.2162 52.2658 23.2614C50.433 24.2026 48.9427 25.6964 48.0058 27.5314C47.5342 27.5261 47.0648 27.597 46.6158 27.7414L43.1258 21.7414L43.2758 21.6214C43.7806 21.1264 44.1599 20.5181 44.3821 19.847C44.6043 19.176 44.6631 18.4615 44.5536 17.7631C44.444 17.0647 44.1693 16.4026 43.7523 15.8318C43.3352 15.261 42.7879 14.798 42.1558 14.4814C42.8358 13.3397 43.7917 12.3872 44.9358 11.7114C45.1379 12.1128 45.4011 12.4805 45.7158 12.8014C46.4513 13.5449 47.4227 14.009 48.4632 14.114C49.5037 14.219 50.5483 13.9583 51.4174 13.3768C52.2866 12.7952 52.9261 11.9291 53.226 10.9272C53.5259 9.92536 53.4675 8.85033 53.0609 7.88686C52.6542 6.92338 51.9247 6.13163 50.9976 5.64764C50.0706 5.16365 49.0039 5.01766 47.9809 5.23475C46.9579 5.45183 46.0424 6.01845 45.3918 6.83722C44.7412 7.65599 44.3961 8.67579 44.4158 9.72139C42.5884 10.6606 41.0994 12.1462 40.1558 13.9714C39.1412 13.9675 38.1558 14.3105 37.3628 14.9434C36.5698 15.5763 36.017 16.4612 35.7958 17.4514H29.4858C29.3062 16.6308 28.8969 15.8782 28.3058 15.2814C27.7886 14.7677 27.1543 14.3874 26.4575 14.1731C25.7607 13.9589 25.0223 13.9171 24.3058 14.0514C23.3676 12.1888 21.8618 10.6726 20.0058 9.72139C20.0257 8.82779 19.7773 7.94875 19.2926 7.19777C18.8079 6.44679 18.1092 5.85836 17.2867 5.50848C16.4642 5.1586 15.5557 5.06333 14.6785 5.23498C13.8013 5.40662 12.9958 5.8373 12.3658 6.47139C11.7418 7.09846 11.3175 7.89624 11.1462 8.76414C10.975 9.63205 11.0645 10.5312 11.4035 11.3483C11.7426 12.1654 12.3159 12.8638 13.0513 13.3556C13.7867 13.8473 14.6512 14.1103 15.5358 14.1114C16.1248 14.1147 16.7084 14.0006 17.2527 13.7756C17.797 13.5507 18.291 13.2195 18.7058 12.8014C19.0206 12.4805 19.2837 12.1128 19.4858 11.7114C20.7636 12.4565 21.8039 13.5488 22.4858 14.8614C22.3066 14.9898 22.1362 15.1301 21.9758 15.2814C21.2074 16.0572 20.7488 17.087 20.6862 18.1771C20.6236 19.2672 20.9613 20.3427 21.6358 21.2014L17.8158 27.7414C17.3632 27.5978 16.8906 27.5269 16.4158 27.5314C15.4729 25.7033 13.9839 24.2144 12.1558 23.2714C12.1716 22.2364 11.8268 21.2282 11.1807 20.4195C10.5346 19.6108 9.62727 19.052 8.61432 18.839C7.60137 18.6259 6.54586 18.7718 5.6287 19.2517C4.71154 19.7316 3.98986 20.5155 3.58734 21.4692C3.18483 22.4228 3.12656 23.4868 3.42251 24.4787C3.71847 25.4706 4.35022 26.3286 5.20949 26.9058C6.06875 27.483 7.10202 27.7433 8.13217 27.6421C9.16233 27.541 10.1252 27.0847 10.8558 26.3514C11.1706 26.0305 11.4337 25.6628 11.6358 25.2614C12.7854 25.9467 13.7447 26.9094 14.4258 28.0614C13.7987 28.3798 13.2567 28.8433 12.8447 29.4133C12.4328 29.9832 12.1628 30.6433 12.0572 31.3386C11.9515 32.0339 12.0134 32.7444 12.2375 33.411C12.4616 34.0776 12.8416 34.6811 13.3458 35.1714C13.6634 35.4829 14.0278 35.7427 14.4258 35.9414C13.7447 37.0934 12.7854 38.0561 11.6358 38.7414C11.4337 38.3399 11.1706 37.9722 10.8558 37.6514C10.0138 36.8107 8.8722 36.3389 7.68228 36.3398C6.49236 36.3407 5.35155 36.8143 4.51081 37.6564C3.67008 38.4985 3.19828 39.64 3.19922 40.8299C3.20016 42.0198 3.67375 43.1607 4.51581 44.0014C5.14576 44.6355 5.95134 45.0662 6.82852 45.2378C7.7057 45.4094 8.6142 45.3142 9.43669 44.9643C10.2592 44.6144 10.9579 44.026 11.4426 43.275C11.9273 42.524 12.1757 41.645 12.1558 40.7514C13.9839 39.8084 15.4729 38.3195 16.4158 36.4914H16.5058C16.951 36.4842 17.3926 36.41 17.8158 36.2714L21.6258 42.8614C20.9513 43.7201 20.6136 44.7956 20.6762 45.8857C20.7388 46.9758 21.1974 48.0056 21.9658 48.7814C22.1262 48.9326 22.2966 49.073 22.4758 49.2014C21.7939 50.514 20.7536 51.6063 19.4758 52.3514C19.2737 51.9499 19.0106 51.5822 18.6958 51.2614C18.1756 50.7386 17.5345 50.3524 16.8292 50.1369C16.124 49.9214 15.3764 49.8834 14.6529 50.0261C13.9294 50.1689 13.2523 50.488 12.6818 50.9553C12.1112 51.4225 11.6648 52.0233 11.3822 52.7045C11.0996 53.3856 10.9895 54.126 11.0617 54.8599C11.1339 55.5938 11.3861 56.2985 11.796 56.9116C12.2059 57.5246 12.7608 58.027 13.4114 58.3741C14.0621 58.7212 14.7884 58.9023 15.5258 58.9014C16.1209 58.9029 16.7102 58.7853 17.2591 58.5555C17.808 58.3257 18.3054 57.9884 18.7219 57.5635C19.1385 57.1386 19.4658 56.6346 19.6845 56.0812C19.9033 55.5278 20.0092 54.9363 19.9958 54.3414C21.857 53.3893 23.3667 51.8692 24.3058 50.0014C24.5795 50.0532 24.8573 50.08 25.1358 50.0814C26.3242 50.0814 27.4641 49.6104 28.3058 48.7714C28.8969 48.1746 29.3062 47.422 29.4858 46.6014H35.7558C35.977 47.5916 36.5298 48.4765 37.3228 49.1094C38.1158 49.7423 39.1012 50.0853 40.1158 50.0814C41.0594 51.9065 42.5484 53.3921 44.3758 54.3314C44.358 55.2229 44.6072 56.0994 45.0915 56.8482C45.5757 57.5969 46.2728 58.1838 47.0932 58.5332C47.9136 58.8827 48.8198 58.9788 49.6952 58.8091C50.5706 58.6395 51.3753 58.2119 52.0058 57.5814C52.7875 56.7306 53.2102 55.6107 53.1857 54.4556C53.1613 53.3006 52.6915 52.1996 51.8746 51.3826C51.0576 50.5657 49.9566 50.0959 48.8016 50.0715C47.6465 50.047 46.5266 50.4697 45.6758 51.2514C45.3611 51.5722 45.0979 51.9399 44.8958 52.3414C43.7517 51.6656 42.7958 50.7131 42.1158 49.5714C42.7445 49.2515 43.2884 48.7871 43.7028 48.2162C44.1171 47.6453 44.3902 46.9843 44.4995 46.2875C44.6088 45.5906 44.5513 44.8777 44.3316 44.2074C44.1119 43.5371 43.7364 42.9284 43.2358 42.4314L43.0858 42.3114L46.5758 36.2614C46.9992 36.3991 47.4407 36.4733 47.8858 36.4814H47.9658C48.9027 38.3164 50.393 39.8102 52.2258 40.7514C52.2114 41.7886 52.5583 42.7986 53.2069 43.6082C53.8555 44.4178 54.7655 44.9765 55.7809 45.1888C56.7963 45.401 57.8539 45.2535 58.7724 44.7714C59.691 44.2894 60.4133 43.5029 60.8156 42.5467C61.2179 41.5906 61.2751 40.5243 60.9774 39.5305C60.6797 38.5368 60.0456 37.6776 59.1839 37.1001C58.3221 36.5226 57.2864 36.2628 56.2541 36.3652C55.2218 36.4676 54.2573 36.9258 53.5258 37.6614L53.5658 37.6514ZM54.9858 21.4314C55.4519 20.9709 56.0806 20.7127 56.7358 20.7127C57.391 20.7127 58.0197 20.9709 58.4858 21.4314C58.8337 21.7778 59.0709 22.2197 59.1674 22.701C59.2639 23.1824 59.2154 23.6816 59.028 24.1353C58.8406 24.5891 58.5227 24.977 58.1147 25.25C57.7066 25.5229 57.2267 25.6686 56.7358 25.6686C56.2449 25.6686 55.765 25.5229 55.3569 25.25C54.9489 24.977 54.631 24.5891 54.4436 24.1353C54.2562 23.6816 54.2077 23.1824 54.3042 22.701C54.4007 22.2197 54.638 21.7778 54.9858 21.4314ZM47.1258 7.83139C47.4728 7.48494 47.9147 7.24913 48.3957 7.15376C48.8766 7.05838 49.3751 7.10772 49.828 7.29554C50.2809 7.48336 50.668 7.80123 50.9404 8.20898C51.2127 8.61673 51.3581 9.09606 51.3581 9.58639C51.3581 10.0767 51.2127 10.556 50.9404 10.9638C50.668 11.3715 50.2809 11.6894 49.828 11.8772C49.3751 12.0651 48.8766 12.1144 48.3957 12.019C47.9147 11.9236 47.4728 11.6878 47.1258 11.3414C46.6647 10.8736 46.4063 10.2432 46.4063 9.58639C46.4063 8.92958 46.6647 8.29915 47.1258 7.83139ZM13.7858 11.3414C13.4394 10.9944 13.2036 10.5525 13.1082 10.0715C13.0128 9.59057 13.0621 9.09212 13.25 8.63919C13.4378 8.18625 13.7557 7.79916 14.1634 7.52683C14.5712 7.25449 15.0505 7.10914 15.5408 7.10914C16.0311 7.10914 16.5105 7.25449 16.9182 7.52683C17.326 7.79916 17.6438 8.18625 17.8317 8.63919C18.0195 9.09212 18.0688 9.59057 17.9734 10.0715C17.8781 10.5525 17.6423 10.9944 17.2958 11.3414C17.0655 11.5721 16.7919 11.7551 16.4908 11.88C16.1896 12.0049 15.8668 12.0691 15.5408 12.0691C15.2148 12.0691 14.892 12.0049 14.5909 11.88C14.2897 11.7551 14.0162 11.5721 13.7858 11.3414ZM5.93581 24.9414C5.70391 24.7117 5.51983 24.4384 5.39419 24.1371C5.26856 23.8359 5.20388 23.5128 5.20388 23.1864C5.20388 22.86 5.26856 22.5369 5.39419 22.2356C5.51983 21.9344 5.70391 21.6611 5.93581 21.4314C6.40188 20.9709 7.03065 20.7127 7.68581 20.7127C8.34098 20.7127 8.96974 20.9709 9.43581 21.4314C9.67999 21.658 9.87599 21.9315 10.0121 22.2356C10.1483 22.5397 10.2218 22.868 10.2282 23.2011C10.2346 23.5342 10.1739 23.8652 10.0496 24.1743C9.9253 24.4834 9.74001 24.7643 9.50478 25.0002C9.26954 25.2361 8.98919 25.4222 8.68045 25.5473C8.37171 25.6725 8.04091 25.7342 7.70781 25.7287C7.37471 25.7232 7.04612 25.6507 6.74168 25.5154C6.43723 25.3801 6.16315 25.1849 5.93581 24.9414ZM9.43581 42.5714C8.96486 43.0225 8.33793 43.2743 7.68581 43.2743C7.03369 43.2743 6.40676 43.0225 5.93581 42.5714C5.58795 42.225 5.35074 41.7831 5.25422 41.3017C5.1577 40.8204 5.20621 40.3212 5.39361 39.8675C5.58102 39.4137 5.89888 39.0258 6.30693 38.7528C6.71499 38.4799 7.19488 38.3341 7.68581 38.3341C8.17675 38.3341 8.65664 38.4799 9.06469 38.7528C9.47275 39.0258 9.79061 39.4137 9.97801 39.8675C10.1654 40.3212 10.2139 40.8204 10.1174 41.3017C10.0209 41.7831 9.78367 42.225 9.43581 42.5714ZM17.2958 56.1714C16.9488 56.5178 16.5069 56.7536 16.026 56.849C15.545 56.9444 15.0465 56.8951 14.5936 56.7072C14.1407 56.5194 13.7536 56.2015 13.4812 55.7938C13.2089 55.386 13.0636 54.9067 13.0636 54.4164C13.0636 53.9261 13.2089 53.4467 13.4812 53.039C13.7536 52.6312 14.1407 52.3134 14.5936 52.1255C15.0465 51.9377 15.545 51.8884 16.026 51.9838C16.5069 52.0791 16.9488 52.3149 17.2958 52.6614C17.5265 52.8917 17.7095 53.1653 17.8344 53.4664C17.9593 53.7676 18.0236 54.0904 18.0236 54.4164C18.0236 54.7424 17.9593 55.0652 17.8344 55.3663C17.7095 55.6675 17.5265 55.941 17.2958 56.1714ZM48.8858 51.9414C49.4594 51.9443 50.0142 52.146 50.4558 52.5121C50.8974 52.8782 51.1985 53.386 51.3077 53.9491C51.4169 54.5122 51.3276 55.0958 51.0549 55.6004C50.7822 56.105 50.343 56.4995 49.8121 56.7167C49.2812 56.9339 48.6914 56.9603 48.1432 56.7915C47.595 56.6227 47.1223 56.2691 46.8055 55.7909C46.4888 55.3127 46.3476 54.7395 46.406 54.1689C46.4644 53.5982 46.7188 53.0655 47.1258 52.6614C47.3574 52.4315 47.632 52.2495 47.9341 52.126C48.2361 52.0024 48.5595 51.9397 48.8858 51.9414ZM49.6758 33.7514C49.3294 34.0992 48.8875 34.3365 48.4062 34.433C47.9248 34.5295 47.4256 34.481 46.9719 34.2936C46.5181 34.1062 46.1302 33.7883 45.8572 33.3803C45.5843 32.9722 45.4386 32.4923 45.4386 32.0014C45.4386 31.5105 45.5843 31.0306 45.8572 30.6225C46.1302 30.2145 46.5181 29.8966 46.9719 29.7092C47.4256 29.5218 47.9248 29.4733 48.4062 29.5698C48.8875 29.6663 49.3294 29.9035 49.6758 30.2514C50.1387 30.7162 50.3986 31.3454 50.3986 32.0014C50.3986 32.6574 50.1387 33.2866 49.6758 33.7514ZM38.3558 16.6514C38.5825 16.4072 38.856 16.2112 39.16 16.0751C39.4641 15.9389 39.7925 15.8654 40.1256 15.859C40.4586 15.8526 40.7896 15.9133 41.0987 16.0376C41.4078 16.1619 41.6887 16.3472 41.9246 16.5824C42.1605 16.8177 42.3466 17.098 42.4718 17.4068C42.5969 17.7155 42.6586 18.0463 42.6531 18.3794C42.6477 18.7125 42.5751 19.0411 42.4398 19.3455C42.3046 19.65 42.1093 19.9241 41.8658 20.1514C41.3932 20.6031 40.7646 20.8552 40.1108 20.8552C39.457 20.8552 38.8284 20.6031 38.3558 20.1514C37.8954 19.6853 37.6371 19.0566 37.6371 18.4014C37.6371 17.7462 37.8954 17.1175 38.3558 16.6514ZM26.8858 16.6514C27.3462 17.1144 27.608 17.7385 27.6158 18.3914C27.6065 19.041 27.3447 19.6615 26.8858 20.1214C26.4217 20.5855 25.7922 20.8463 25.1358 20.8463C24.4794 20.8463 23.8499 20.5855 23.3858 20.1214C22.9217 19.6573 22.6609 19.0278 22.6609 18.3714C22.6609 17.715 22.9217 17.0855 23.3858 16.6214C23.6146 16.3898 23.8871 16.2059 24.1875 16.0804C24.4879 15.9549 24.8102 15.8903 25.1358 15.8903C25.4614 15.8903 25.7837 15.9549 26.0841 16.0804C26.3845 16.2059 26.657 16.3898 26.8858 16.6214V16.6514ZM14.7558 30.2514C15.1022 29.9035 15.5441 29.6663 16.0255 29.5698C16.5068 29.4733 17.006 29.5218 17.4597 29.7092C17.9135 29.8966 18.3014 30.2145 18.5744 30.6225C18.8473 31.0306 18.9931 31.5105 18.9931 32.0014C18.9931 32.4923 18.8473 32.9722 18.5744 33.3803C18.3014 33.7883 17.9135 34.1062 17.4597 34.2936C17.006 34.481 16.5068 34.5295 16.0255 34.433C15.5441 34.3365 15.1022 34.0992 14.7558 33.7514C14.2929 33.2866 14.0331 32.6574 14.0331 32.0014C14.0331 31.3454 14.2929 30.7162 14.7558 30.2514ZM23.3858 47.3514C23.1554 47.1219 22.9726 46.8492 22.8479 46.5489C22.7231 46.2486 22.6589 45.9266 22.6589 45.6014C22.6589 45.2762 22.7231 44.9542 22.8479 44.6539C22.9726 44.3536 23.1554 44.0809 23.3858 43.8514C23.6146 43.6198 23.8871 43.4359 24.1875 43.3104C24.4879 43.1849 24.8102 43.1203 25.1358 43.1203C25.4614 43.1203 25.7837 43.1849 26.0841 43.3104C26.3845 43.4359 26.657 43.6198 26.8858 43.8514C27.3447 44.3113 27.6065 44.9318 27.6158 45.5814C27.608 46.2343 27.3462 46.8584 26.8858 47.3214C26.6583 47.5538 26.3872 47.7389 26.0879 47.8662C25.7887 47.9936 25.4672 48.0605 25.142 48.0633C24.8169 48.0661 24.4943 48.0047 24.1929 47.8825C23.8916 47.7603 23.6173 47.5798 23.3858 47.3514ZM41.8658 47.3514C41.3932 47.8031 40.7646 48.0552 40.1108 48.0552C39.457 48.0552 38.8284 47.8031 38.3558 47.3514C38.0098 47.004 37.7746 46.5618 37.6798 46.0808C37.5851 45.5997 37.635 45.1014 37.8233 44.6487C38.0117 44.196 38.33 43.8093 38.738 43.5375C39.1461 43.2656 39.6255 43.1208 40.1158 43.1214C40.6074 43.118 41.0888 43.2614 41.4985 43.5332C41.9081 43.805 42.2273 44.1928 42.4153 44.6471C42.6032 45.1013 42.6513 45.6014 42.5534 46.0831C42.4555 46.5649 42.2161 47.0065 41.8658 47.3514ZM41.3858 41.3514C40.9759 41.2161 40.5475 41.1452 40.1158 41.1414C39.1012 41.1375 38.1158 41.4805 37.3228 42.1134C36.5298 42.7463 35.977 43.6312 35.7558 44.6214H29.4858C29.339 43.9664 29.0452 43.3534 28.6267 42.8287C28.2083 42.3039 27.676 41.881 27.0702 41.5921C26.4644 41.3031 25.8008 41.1556 25.1296 41.1607C24.4585 41.1658 23.7972 41.3233 23.1958 41.6214L19.5558 35.3114L19.6758 35.2114C20.0925 34.7953 20.423 34.3012 20.6485 33.7572C20.8741 33.2133 20.9901 32.6302 20.9901 32.0414C20.9901 31.4526 20.8741 30.8695 20.6485 30.3256C20.423 29.7816 20.0925 29.2875 19.6758 28.8714L19.5558 28.7714L23.2158 22.4214C23.8207 22.7156 24.4832 22.8727 25.1558 22.8814C26.1701 22.8885 27.156 22.5466 27.9481 21.9129C28.7401 21.2793 29.2901 20.3925 29.5058 19.4014H35.7758C35.997 20.3916 36.5498 21.2765 37.3428 21.9094C38.1358 22.5423 39.1212 22.8853 40.1358 22.8814C40.5675 22.8775 40.9959 22.8067 41.4058 22.6714L44.8958 28.7314L44.7758 28.8314C44.3592 29.2475 44.0286 29.7416 43.8031 30.2856C43.5776 30.8295 43.4615 31.4126 43.4615 32.0014C43.4615 32.5902 43.5776 33.1733 43.8031 33.7172C44.0286 34.2612 44.3592 34.7553 44.7758 35.1714L44.8958 35.2714L41.3858 41.3514ZM58.4858 42.5914C58.0149 43.0425 57.3879 43.2943 56.7358 43.2943C56.0837 43.2943 55.4568 43.0425 54.9858 42.5914C54.638 42.245 54.4007 41.8031 54.3042 41.3217C54.2077 40.8404 54.2562 40.3412 54.4436 39.8875C54.631 39.4337 54.9489 39.0458 55.3569 38.7728C55.765 38.4999 56.2449 38.3541 56.7358 38.3541C57.2267 38.3541 57.7066 38.4999 58.1147 38.7728C58.5227 39.0458 58.8406 39.4337 59.028 39.8875C59.2154 40.3412 59.2639 40.8404 59.1674 41.3217C59.0709 41.8031 58.8337 42.245 58.4858 42.5914Z" fill="url(#paint0_linear_2012_12598)"/>
<path d="M32.2157 23.9219C30.6177 23.9219 29.0555 24.3958 27.7267 25.2836C26.398 26.1714 25.3624 27.4334 24.7508 28.9098C24.1392 30.3862 23.9792 32.0108 24.291 33.5782C24.6028 35.1456 25.3723 36.5853 26.5023 37.7153C27.6323 38.8453 29.072 39.6149 30.6394 39.9266C32.2068 40.2384 33.8314 40.0784 35.3078 39.4668C36.7843 38.8553 38.0462 37.8196 38.934 36.4909C39.8219 35.1621 40.2957 33.5999 40.2957 32.0019C40.2957 29.8589 39.4445 27.8037 37.9292 26.2885C36.4139 24.7732 34.3587 23.9219 32.2157 23.9219ZM32.2157 38.0819C31.0132 38.0819 29.8377 37.7253 28.8379 37.0572C27.838 36.3891 27.0587 35.4396 26.5986 34.3286C26.1384 33.2176 26.018 31.9951 26.2526 30.8157C26.4872 29.6363 27.0662 28.553 27.9165 27.7027C28.7668 26.8524 29.8502 26.2733 31.0296 26.0387C32.209 25.8041 33.4315 25.9245 34.5425 26.3847C35.6534 26.8449 36.603 27.6242 37.2711 28.624C37.9392 29.6239 38.2957 30.7994 38.2957 32.0019C38.2931 33.6136 37.6517 35.1585 36.512 36.2982C35.3724 37.4378 33.8274 38.0792 32.2157 38.0819Z" fill="url(#paint1_linear_2012_12598)"/>
<defs>
<linearGradient id="paint0_linear_2012_12598" x1="3.20581" y1="32.0014" x2="61.2158" y2="32.0014" gradientUnits="userSpaceOnUse">
<stop stop-color="#19DD33"/>
<stop offset="0.43" stop-color="#0FA922"/>
<stop offset="0.8" stop-color="#088215"/>
<stop offset="1" stop-color="#057310"/>
</linearGradient>
<linearGradient id="paint1_linear_2012_12598" x1="24.1357" y1="32.0019" x2="40.2957" y2="32.0019" gradientUnits="userSpaceOnUse">
<stop stop-color="#19DD33"/>
<stop offset="0.43" stop-color="#0FA922"/>
<stop offset="0.8" stop-color="#088215"/>
<stop offset="1" stop-color="#057310"/>
</linearGradient>
</defs>
</svg>
