<svg width="13" height="56" viewBox="0 0 13 56" fill="none" xmlns="http://www.w3.org/2000/svg">
<path d="M7.25 54.9199C7.25 55.3341 6.91421 55.6699 6.5 55.6699C6.08579 55.6699 5.75 55.3341 5.75 54.9199L7.25 54.9199ZM5.96967 0.470074C6.26257 0.177181 6.73744 0.177181 7.03033 0.470074L11.8033 5.24305C12.0962 5.53594 12.0962 6.01081 11.8033 6.30371C11.5104 6.5966 11.0355 6.5966 10.7426 6.30371L6.5 2.06107L2.25736 6.30371C1.96447 6.5966 1.48959 6.5966 1.1967 6.30371C0.903808 6.01081 0.903808 5.53594 1.1967 5.24305L5.96967 0.470074ZM5.75 54.9199L5.75 1.0004L7.25 1.0004L7.25 54.9199L5.75 54.9199Z" fill="white"/>
</svg>
