<svg width="241" height="215" viewBox="0 0 241 215" fill="none" xmlns="http://www.w3.org/2000/svg">
<path d="M36.8723 131.24C36.8726 130.547 36.9902 129.87 37.2252 129.209C37.4708 128.537 37.823 127.929 38.2819 127.385C38.7409 126.831 39.3064 126.393 39.9785 126.074C40.6507 125.743 41.4134 125.578 42.2667 125.579C43.2801 125.579 44.144 125.814 44.8584 126.284C45.5836 126.743 46.1166 127.335 46.4577 128.061L45.5774 128.604C45.3323 128.103 45.0231 127.708 44.6499 127.42C44.2767 127.121 43.8768 126.907 43.4502 126.779C43.0343 126.651 42.6183 126.587 42.2023 126.587C41.5196 126.586 40.9169 126.725 40.3941 127.002C39.8713 127.268 39.4285 127.631 39.0656 128.089C38.7134 128.537 38.4466 129.044 38.265 129.609C38.0834 130.164 37.9925 130.729 37.9923 131.305C37.992 131.934 38.0984 132.537 38.3115 133.113C38.5246 133.689 38.823 134.201 39.2068 134.649C39.5906 135.087 40.0385 135.439 40.5504 135.706C41.0729 135.962 41.6382 136.09 42.2462 136.091C42.6729 136.091 43.1102 136.016 43.5583 135.867C44.0064 135.718 44.4224 135.489 44.8066 135.18C45.2014 134.871 45.5162 134.471 45.7511 133.98L46.6789 134.461C46.444 135.026 46.0811 135.506 45.5903 135.9C45.0994 136.295 44.55 136.593 43.9419 136.795C43.3445 136.998 42.7578 137.099 42.1818 137.099C41.4031 137.098 40.6885 136.933 40.038 136.602C39.3874 136.26 38.8223 135.812 38.3425 135.257C37.8735 134.691 37.5111 134.062 37.2554 133.369C36.9997 132.664 36.872 131.955 36.8723 131.24ZM48.4196 125.325L49.5076 125.326L49.5034 135.118C49.5032 135.534 49.5777 135.806 49.727 135.934C49.8763 136.062 50.0576 136.126 50.2709 136.126C50.4629 136.126 50.6549 136.105 50.847 136.062C51.039 136.02 51.2043 135.977 51.343 135.935L51.5346 136.815C51.3319 136.9 51.0812 136.969 50.7825 137.022C50.4945 137.076 50.2438 137.102 50.0305 137.102C49.5398 137.102 49.1452 136.958 48.8467 136.67C48.5588 136.381 48.415 135.987 48.4152 135.485L48.4196 125.325ZM56.2778 137.169C55.6805 137.168 55.1259 137.056 54.614 136.832C54.1128 136.597 53.6756 136.282 53.3024 135.887C52.9399 135.482 52.6574 135.023 52.455 134.511C52.2526 133.988 52.1515 133.439 52.1517 132.863C52.152 132.266 52.2535 131.711 52.4564 131.199C52.6593 130.677 52.9475 130.218 53.321 129.823C53.6945 129.418 54.132 129.104 54.6334 128.88C55.1455 128.646 55.7002 128.529 56.2976 128.529C56.8949 128.529 57.4442 128.647 57.9454 128.881C58.4467 129.106 58.8839 129.421 59.257 129.826C59.6302 130.221 59.918 130.68 60.1204 131.202C60.3229 131.714 60.424 132.269 60.4237 132.867C60.4235 133.443 60.3219 133.992 60.119 134.514C59.9161 135.026 59.6279 135.485 59.2544 135.89C58.8916 136.285 58.4541 136.599 57.942 136.833C57.4406 137.057 56.8858 137.169 56.2778 137.169ZM53.2557 132.879C53.2554 133.498 53.3885 134.064 53.655 134.576C53.9321 135.077 54.2999 135.477 54.7585 135.776C55.217 136.064 55.7236 136.209 56.2783 136.209C56.8329 136.209 57.3397 136.06 57.7985 135.761C58.2573 135.463 58.6254 135.058 58.903 134.546C59.1805 134.023 59.3195 133.458 59.3197 132.85C59.32 132.231 59.1816 131.666 58.9044 131.154C58.6273 130.642 58.2595 130.236 57.801 129.937C57.3424 129.639 56.8358 129.489 56.2812 129.489C55.7265 129.489 55.2198 129.643 54.761 129.952C54.3128 130.261 53.95 130.672 53.6724 131.184C53.3949 131.685 53.256 132.25 53.2557 132.879ZM62.163 133.571L62.1651 128.675L63.2531 128.676L63.2511 133.38C63.2507 134.329 63.4104 135.038 63.7302 135.508C64.0607 135.977 64.5459 136.212 65.1859 136.213C65.6126 136.213 66.0233 136.122 66.418 135.941C66.8234 135.749 67.1809 135.483 67.4904 135.142C67.7998 134.79 68.0347 134.384 68.1949 133.926L68.1971 128.678L69.2851 128.678L69.2821 135.702C69.282 135.852 69.314 135.964 69.378 136.038C69.4419 136.102 69.5379 136.14 69.6659 136.151L69.6655 137.015C69.5375 137.025 69.4362 137.03 69.3615 137.03C69.2869 137.041 69.2175 137.046 69.1535 137.046C68.9402 137.025 68.7536 136.939 68.5936 136.79C68.4444 136.641 68.3644 136.459 68.3539 136.246L68.3224 135.126C67.9594 135.766 67.4632 136.267 66.8337 136.629C66.2149 136.992 65.5428 137.173 64.8175 137.172C63.9428 137.172 63.2816 136.868 62.8339 136.26C62.3861 135.651 62.1625 134.755 62.163 133.571ZM71.1833 132.871C71.1837 132.082 71.344 131.362 71.6643 130.711C71.9952 130.05 72.4488 129.522 73.0249 129.128C73.6011 128.734 74.2572 128.537 74.9932 128.537C75.6865 128.537 76.3051 128.724 76.849 129.098C77.4035 129.461 77.8353 129.903 78.1444 130.426L78.1466 125.338L79.2346 125.339L79.2301 135.707C79.23 135.856 79.262 135.968 79.326 136.043C79.3899 136.107 79.4859 136.144 79.6139 136.155L79.6135 137.019C79.4002 137.051 79.2349 137.061 79.1175 137.051C78.8935 137.04 78.6962 136.949 78.5256 136.778C78.3551 136.608 78.2698 136.421 78.2699 136.218L78.2702 135.402C77.9393 135.946 77.4912 136.378 76.9257 136.698C76.3602 137.017 75.7735 137.177 75.1655 137.177C74.5895 137.177 74.0562 137.059 73.5656 136.824C73.0857 136.589 72.6645 136.269 72.302 135.864C71.9502 135.458 71.6731 134.999 71.4706 134.487C71.2789 133.965 71.1831 133.426 71.1833 132.871ZM78.1428 134.154L78.1439 131.578C78.0054 131.194 77.7815 130.847 77.4723 130.538C77.1631 130.218 76.8113 129.967 76.4167 129.785C76.0327 129.593 75.6488 129.497 75.2648 129.497C74.8168 129.497 74.4114 129.593 74.0487 129.784C73.6859 129.966 73.3711 130.216 73.1043 130.536C72.8482 130.856 72.6507 131.218 72.5119 131.624C72.373 132.029 72.3035 132.445 72.3033 132.872C72.3031 133.32 72.3776 133.746 72.5268 134.152C72.6866 134.557 72.9104 134.92 73.1983 135.24C73.4862 135.55 73.8167 135.79 74.19 135.96C74.5633 136.131 74.9686 136.217 75.4059 136.217C75.6832 136.217 75.9712 136.164 76.27 136.057C76.5687 135.951 76.8514 135.807 77.1181 135.626C77.3956 135.434 77.625 135.21 77.8064 134.954C77.9879 134.698 78.1 134.432 78.1428 134.154ZM85.9968 137.022L86.0017 125.662L90.7057 125.664C91.1964 125.664 91.6443 125.765 92.0496 125.968C92.4655 126.171 92.8227 126.449 93.1212 126.801C93.4197 127.142 93.6542 127.526 93.8247 127.953C93.9952 128.369 94.0803 128.796 94.0802 129.233C94.0799 129.852 93.941 130.438 93.6634 130.993C93.3965 131.537 93.0176 131.979 92.5268 132.32C92.036 132.662 91.4599 132.832 90.7986 132.832L87.1186 132.83L87.1168 137.022L85.9968 137.022ZM87.119 131.838L90.751 131.84C91.199 131.84 91.5884 131.717 91.9192 131.472C92.25 131.227 92.5061 130.907 92.6876 130.512C92.8691 130.118 92.96 129.691 92.9602 129.233C92.9604 128.763 92.8539 128.331 92.6407 127.936C92.4275 127.542 92.145 127.232 91.7931 127.008C91.4519 126.773 91.0733 126.656 90.6573 126.656L87.1213 126.654L87.119 131.838ZM99.8891 129.652C99.1638 129.673 98.5237 129.875 97.9688 130.259C97.4247 130.643 97.0404 131.17 96.8162 131.842L96.8139 137.026L95.7259 137.026L95.7295 128.69L96.7535 128.69L96.7526 130.69C97.0409 130.104 97.4198 129.629 97.8893 129.267C98.3694 128.904 98.8762 128.702 99.4095 128.659C99.5162 128.649 99.6069 128.643 99.6815 128.643C99.7669 128.644 99.8362 128.649 99.8895 128.66L99.8891 129.652ZM104.622 137.19C104.024 137.189 103.47 137.077 102.958 136.853C102.457 136.618 102.019 136.303 101.646 135.908C101.284 135.503 101.001 135.044 100.799 134.532C100.596 134.009 100.495 133.46 100.495 132.884C100.496 132.287 100.597 131.732 100.8 131.22C101.003 130.697 101.291 130.239 101.665 129.844C102.038 129.439 102.476 129.125 102.977 128.901C103.489 128.666 104.044 128.549 104.641 128.55C105.239 128.55 105.788 128.667 106.289 128.902C106.79 129.127 107.228 129.441 107.601 129.847C107.974 130.242 108.262 130.701 108.464 131.223C108.667 131.735 108.768 132.29 108.767 132.887C108.767 133.463 108.666 134.013 108.463 134.535C108.26 135.047 107.972 135.506 107.598 135.911C107.235 136.305 106.798 136.62 106.286 136.854C105.784 137.078 105.23 137.19 104.622 137.19ZM101.599 132.9C101.599 133.519 101.732 134.084 101.999 134.596C102.276 135.098 102.644 135.498 103.102 135.797C103.561 136.085 104.067 136.229 104.622 136.23C105.177 136.23 105.683 136.081 106.142 135.782C106.601 135.484 106.969 135.079 107.247 134.567C107.524 134.044 107.663 133.479 107.663 132.871C107.664 132.252 107.525 131.687 107.248 131.175C106.971 130.663 106.603 130.257 106.145 129.958C105.686 129.659 105.18 129.51 104.625 129.51C104.07 129.509 103.564 129.664 103.105 129.973C102.657 130.282 102.294 130.693 102.016 131.204C101.739 131.706 101.6 132.271 101.599 132.9ZM112.784 137.033L109.412 128.696L110.548 128.696L113.393 135.945L116.26 128.699L117.332 128.699L113.952 137.034L112.784 137.033ZM118.835 137.036L118.839 128.7L119.927 128.7L119.923 137.036L118.835 137.036ZM118.84 126.956L118.84 125.356L119.928 125.356L119.928 126.956L118.84 126.956ZM121.761 132.893C121.762 132.104 121.922 131.384 122.242 130.733C122.573 130.072 123.027 129.544 123.603 129.15C124.179 128.755 124.835 128.558 125.571 128.559C126.265 128.559 126.883 128.746 127.427 129.119C127.982 129.482 128.413 129.925 128.723 130.448L128.725 125.36L129.813 125.36L129.808 135.728C129.808 135.878 129.84 135.99 129.904 136.065C129.968 136.129 130.064 136.166 130.192 136.177L130.192 137.041C129.978 137.073 129.813 137.083 129.696 137.072C129.472 137.062 129.274 136.971 129.104 136.8C128.933 136.629 128.848 136.443 128.848 136.24L128.848 135.424C128.517 135.968 128.069 136.4 127.504 136.719C126.938 137.039 126.352 137.199 125.744 137.199C125.168 137.198 124.634 137.081 124.144 136.846C123.664 136.611 123.243 136.291 122.88 135.886C122.528 135.48 122.251 135.021 122.049 134.509C121.857 133.986 121.761 133.448 121.761 132.893ZM128.721 134.176L128.722 131.6C128.584 131.216 128.36 130.869 128.05 130.56C127.741 130.24 127.389 129.989 126.995 129.807C126.611 129.615 126.227 129.519 125.843 129.519C125.395 129.519 124.99 129.614 124.627 129.806C124.264 129.987 123.949 130.238 123.682 130.558C123.426 130.878 123.229 131.24 123.09 131.646C122.951 132.051 122.882 132.467 122.881 132.894C122.881 133.342 122.956 133.768 123.105 134.174C123.265 134.579 123.489 134.942 123.776 135.262C124.064 135.571 124.395 135.811 124.768 135.982C125.141 136.153 125.547 136.239 125.984 136.239C126.261 136.239 126.549 136.186 126.848 136.079C127.147 135.973 127.43 135.829 127.696 135.648C127.974 135.456 128.203 135.232 128.385 134.976C128.566 134.72 128.678 134.453 128.721 134.176ZM135.873 137.203C135.275 137.203 134.721 137.091 134.209 136.866C133.697 136.632 133.254 136.317 132.881 135.922C132.508 135.516 132.215 135.052 132.002 134.529C131.799 134.007 131.698 133.447 131.699 132.849C131.699 132.071 131.875 131.356 132.228 130.706C132.59 130.055 133.087 129.538 133.716 129.154C134.346 128.76 135.06 128.563 135.86 128.563C136.682 128.563 137.396 128.761 138.004 129.156C138.623 129.551 139.108 130.074 139.46 130.725C139.811 131.365 139.987 132.069 139.987 132.837C139.987 132.922 139.987 133.008 139.986 133.093C139.986 133.168 139.981 133.226 139.97 133.269L132.834 133.266C132.887 133.863 133.053 134.397 133.33 134.866C133.618 135.325 133.985 135.693 134.433 135.97C134.892 136.237 135.388 136.371 135.921 136.371C136.465 136.371 136.977 136.233 137.457 135.956C137.948 135.679 138.29 135.316 138.482 134.868L139.426 135.125C139.255 135.519 138.993 135.876 138.641 136.196C138.289 136.516 137.873 136.767 137.393 136.948C136.923 137.118 136.417 137.203 135.873 137.203ZM132.803 132.482L138.963 132.484C138.92 131.876 138.755 131.343 138.467 130.884C138.19 130.425 137.822 130.068 137.364 129.812C136.916 129.545 136.42 129.411 135.876 129.411C135.332 129.411 134.836 129.544 134.388 129.81C133.94 130.066 133.572 130.429 133.283 130.898C133.006 131.357 132.846 131.884 132.803 132.482ZM145.827 129.671C145.101 129.692 144.461 129.895 143.906 130.279C143.362 130.662 142.978 131.19 142.754 131.862L142.751 137.046L141.663 137.046L141.667 128.71L142.691 128.71L142.69 130.71C142.978 130.124 143.357 129.649 143.827 129.287C144.307 128.924 144.814 128.722 145.347 128.679C145.454 128.669 145.544 128.663 145.619 128.663C145.704 128.663 145.774 128.669 145.827 128.679L145.827 129.671ZM150.009 137.209C149.326 137.209 148.691 137.097 148.105 136.872C147.518 136.648 147.012 136.307 146.585 135.848L147.034 135.08C147.503 135.517 147.972 135.838 148.441 136.041C148.921 136.233 149.428 136.329 149.961 136.329C150.612 136.329 151.14 136.202 151.545 135.946C151.951 135.679 152.154 135.301 152.154 134.81C152.154 134.479 152.053 134.229 151.85 134.058C151.658 133.877 151.376 133.732 151.002 133.626C150.64 133.508 150.202 133.385 149.69 133.257C149.114 133.097 148.629 132.931 148.235 132.76C147.851 132.579 147.557 132.355 147.355 132.088C147.163 131.811 147.067 131.453 147.067 131.016C147.068 130.472 147.201 130.024 147.468 129.672C147.745 129.31 148.119 129.038 148.588 128.857C149.068 128.665 149.602 128.569 150.188 128.569C150.828 128.57 151.394 128.671 151.884 128.874C152.375 129.077 152.775 129.36 153.084 129.723L152.556 130.458C152.257 130.117 151.9 129.866 151.484 129.706C151.079 129.535 150.625 129.449 150.124 129.449C149.783 129.449 149.457 129.497 149.148 129.593C148.839 129.678 148.583 129.827 148.38 130.041C148.188 130.243 148.092 130.526 148.091 130.888C148.091 131.187 148.166 131.422 148.315 131.592C148.464 131.753 148.688 131.891 148.987 132.009C149.286 132.116 149.654 132.233 150.091 132.361C150.72 132.532 151.269 132.708 151.739 132.89C152.208 133.061 152.57 133.285 152.826 133.562C153.082 133.84 153.21 134.229 153.21 134.731C153.209 135.509 152.916 136.117 152.329 136.554C151.742 136.991 150.969 137.21 150.009 137.209Z" fill="#B5BAC6"/>
<path d="M94.9978 39C52.3796 39 19 47.3309 19 57.9669V196.036C19 206.668 52.3844 215 94.9978 215C137.616 215 171 206.668 171 196.036V57.9669C171 47.3337 137.616 39.0028 94.9978 39.0028V39ZM94.9978 40.9371C134.851 40.9371 168.523 48.7355 168.523 57.9654C168.523 67.1954 134.852 74.9924 94.9978 74.9924C55.1437 74.9924 21.4771 67.194 21.4771 57.964C21.4771 48.7341 55.1464 40.9371 94.9978 40.9371ZM168.523 196.032C168.523 205.262 134.852 213.059 94.9978 213.059C55.1437 213.059 21.4771 205.263 21.4771 196.032V62.8701C29.935 71.0536 59.2053 76.9327 94.9978 76.9327C130.79 76.9327 160.065 71.0553 168.523 62.8714V196.032Z" fill="#717684"/>
<path d="M146.437 30.0006L146.442 18.6406L151.242 18.6427C151.733 18.6429 152.181 18.7444 152.586 18.9473C152.991 19.1501 153.343 19.4276 153.641 19.7797C153.951 20.1212 154.185 20.5053 154.345 20.932C154.515 21.3481 154.601 21.7748 154.6 22.2121C154.6 22.7561 154.493 23.2681 154.28 23.748C154.077 24.2279 153.783 24.6331 153.399 24.9636C153.026 25.2941 152.583 25.5126 152.071 25.619L154.853 30.0042L153.589 30.0037L150.919 25.8105L147.559 25.8091L147.557 30.0011L146.437 30.0006ZM147.559 24.8171L151.271 24.8187C151.719 24.8189 152.109 24.6964 152.439 24.4512C152.77 24.206 153.026 23.8861 153.208 23.4915C153.389 23.0863 153.48 22.6597 153.48 22.2117C153.481 21.753 153.374 21.3316 153.161 20.9475C152.958 20.5528 152.681 20.238 152.329 20.0032C151.988 19.7577 151.604 19.6348 151.177 19.6347L147.561 19.6331L147.559 24.8171ZM160.016 30.1665C159.419 30.1662 158.864 30.054 158.352 29.8298C157.84 29.5949 157.398 29.28 157.025 28.8852C156.651 28.4797 156.358 28.0156 156.145 27.4928C155.943 26.97 155.842 26.41 155.842 25.8127C155.842 25.034 156.019 24.3194 156.371 23.6689C156.734 23.0184 157.23 22.5013 157.86 22.1175C158.489 21.7231 159.204 21.5261 160.004 21.5265C160.825 21.5268 161.54 21.7245 162.148 22.1194C162.766 22.5143 163.251 23.0372 163.603 23.688C163.955 24.3282 164.13 25.0323 164.13 25.8002C164.13 25.8856 164.13 25.9709 164.13 26.0563C164.13 26.1309 164.124 26.1896 164.114 26.2322L156.978 26.2292C157.031 26.8265 157.196 27.3599 157.473 27.8294C157.761 28.2882 158.129 28.6563 158.577 28.9339C159.035 29.2007 159.531 29.3343 160.064 29.3345C160.608 29.3347 161.12 29.1963 161.601 28.9192C162.091 28.642 162.433 28.2795 162.625 27.8316L163.569 28.088C163.398 28.4826 163.137 28.8398 162.784 29.1597C162.432 29.4795 162.016 29.73 161.536 29.9111C161.067 30.0816 160.56 30.1667 160.016 30.1665ZM156.946 25.4451L163.106 25.4478C163.064 24.8398 162.899 24.3064 162.611 23.8476C162.334 23.3888 161.966 23.0313 161.507 22.7751C161.059 22.5083 160.563 22.3747 160.019 22.3745C159.475 22.3742 158.979 22.5074 158.531 22.7738C158.083 23.0296 157.715 23.3921 157.427 23.8614C157.149 24.3199 156.989 24.8478 156.946 25.4451ZM168.543 30.1702C167.86 30.1699 167.225 30.0576 166.639 29.8333C166.052 29.6091 165.546 29.2675 165.119 28.8087L165.568 28.0409C166.037 28.4784 166.506 28.7986 166.975 29.0015C167.455 29.1937 167.962 29.2899 168.495 29.2901C169.146 29.2904 169.674 29.1626 170.079 28.9068C170.485 28.6403 170.687 28.2617 170.688 27.7711C170.688 27.4404 170.587 27.1897 170.384 27.0189C170.192 26.8375 169.909 26.6934 169.536 26.5866C169.174 26.4691 168.736 26.3462 168.224 26.218C167.648 26.0578 167.163 25.8922 166.769 25.7214C166.385 25.5399 166.091 25.3158 165.889 25.049C165.697 24.7716 165.601 24.4142 165.601 23.9769C165.602 23.4329 165.735 22.9849 166.002 22.6331C166.279 22.2705 166.653 21.9987 167.122 21.8175C167.602 21.6257 168.136 21.53 168.722 21.5302C169.362 21.5305 169.928 21.6321 170.418 21.835C170.909 22.0378 171.309 22.3207 171.618 22.6835L171.09 23.4193C170.791 23.0778 170.434 22.827 170.018 22.6668C169.613 22.4959 169.159 22.4104 168.658 22.4102C168.317 22.4101 167.991 22.4579 167.682 22.5538C167.373 22.639 167.117 22.7882 166.914 23.0015C166.722 23.204 166.626 23.4867 166.625 23.8493C166.625 24.148 166.7 24.3827 166.849 24.5534C166.998 24.7135 167.222 24.8523 167.521 24.9697C167.82 25.0765 168.187 25.194 168.625 25.3222C169.254 25.4931 169.803 25.6694 170.273 25.8509C170.742 26.0218 171.104 26.2459 171.36 26.5234C171.616 26.8008 171.744 27.1902 171.744 27.6915C171.743 28.4702 171.45 29.0781 170.863 29.5152C170.276 29.9522 169.503 30.1706 168.543 30.1702ZM173.463 26.5723L173.465 21.6763L174.553 21.6767L174.551 26.3807C174.55 27.3301 174.71 28.0395 175.03 28.509C175.36 28.9784 175.845 29.2133 176.485 29.2136C176.912 29.2138 177.323 29.1233 177.718 28.9421C178.123 28.7503 178.48 28.4838 178.79 28.1426C179.099 27.7907 179.334 27.3855 179.494 26.9269L179.497 21.6789L180.585 21.6794L180.582 28.7034C180.582 28.8527 180.614 28.9647 180.678 29.0394C180.741 29.1034 180.837 29.1408 180.965 29.1515L180.965 30.0155C180.837 30.0261 180.736 30.0314 180.661 30.0314C180.586 30.042 180.517 30.0473 180.453 30.0473C180.24 30.0259 180.053 29.9405 179.893 29.7911C179.744 29.6417 179.664 29.4603 179.653 29.247L179.622 28.1269C179.259 28.7668 178.763 29.2679 178.133 29.6303C177.514 29.9927 176.842 30.1737 176.117 30.1734C175.242 30.173 174.581 29.8688 174.133 29.2606C173.686 28.6524 173.462 27.7563 173.463 26.5723ZM183.094 18.3364L184.182 18.3369L184.178 28.1289C184.178 28.5449 184.252 28.8169 184.402 28.945C184.551 29.0731 184.732 29.1371 184.945 29.1372C185.137 29.1373 185.329 29.1161 185.522 29.0735C185.714 29.0309 185.879 28.9883 186.018 28.9457L186.209 29.8258C186.006 29.911 185.756 29.9803 185.457 30.0335C185.169 30.0867 184.918 30.1132 184.705 30.1131C184.214 30.1129 183.82 29.9688 183.521 29.6806C183.233 29.3925 183.09 28.9978 183.09 28.4964L183.094 18.3364ZM191.401 29.62C191.315 29.652 191.182 29.7106 191.001 29.7959C190.819 29.8811 190.601 29.9557 190.344 30.0196C190.088 30.0835 189.811 30.1153 189.512 30.1152C189.203 30.1151 188.91 30.0563 188.633 29.9388C188.366 29.8214 188.153 29.6453 187.993 29.4106C187.833 29.1651 187.753 28.8664 187.753 28.5144L187.756 22.5464L186.604 22.546L186.604 21.682L187.756 21.6824L187.757 18.8664L188.845 18.8669L188.844 21.6829L190.764 21.6837L190.764 22.5477L188.844 22.5469L188.841 28.2109C188.862 28.5096 188.969 28.7336 189.161 28.8831C189.364 29.0325 189.593 29.1072 189.849 29.1074C190.148 29.1075 190.42 29.0596 190.665 28.9637C190.91 28.8571 191.06 28.7825 191.113 28.7399L191.401 29.62ZM195.496 30.1818C194.813 30.1815 194.178 30.0692 193.592 29.845C193.005 29.6207 192.499 29.2792 192.072 28.8203L192.521 28.0525C192.99 28.49 193.459 28.8102 193.928 29.0131C194.408 29.2053 194.915 29.3015 195.448 29.3018C196.099 29.3021 196.627 29.1743 197.032 28.9185C197.438 28.652 197.641 28.2734 197.641 27.7827C197.641 27.452 197.54 27.2013 197.337 27.0306C197.145 26.8492 196.863 26.705 196.489 26.5982C196.127 26.4807 195.689 26.3579 195.177 26.2297C194.602 26.0694 194.116 25.9039 193.722 25.733C193.338 25.5515 193.045 25.3274 192.842 25.0606C192.65 24.7832 192.554 24.4259 192.554 23.9885C192.555 23.4445 192.688 22.9966 192.955 22.6447C193.233 22.2821 193.606 22.0103 194.075 21.8292C194.555 21.6374 195.089 21.5416 195.676 21.5419C196.316 21.5421 196.881 21.6437 197.371 21.8466C197.862 22.0495 198.262 22.3323 198.571 22.6951L198.043 23.4309C197.744 23.0894 197.387 22.8386 196.971 22.6784C196.566 22.5076 196.112 22.4221 195.611 22.4218C195.27 22.4217 194.944 22.4696 194.635 22.5654C194.326 22.6506 194.07 22.7998 193.867 23.0131C193.675 23.2157 193.579 23.4983 193.579 23.861C193.578 24.1596 193.653 24.3943 193.802 24.5651C193.951 24.7251 194.175 24.8639 194.474 24.9813C194.773 25.0881 195.141 25.2056 195.578 25.3338C196.207 25.5048 196.756 25.681 197.226 25.8625C197.695 26.0334 198.057 26.2576 198.313 26.535C198.569 26.8125 198.697 27.2018 198.697 27.7032C198.697 28.4818 198.403 29.0897 197.816 29.5268C197.229 29.9639 196.456 30.1822 195.496 30.1818ZM213.342 27.1015C213.341 27.6668 213.197 28.1734 212.909 28.6213C212.621 29.0585 212.231 29.405 211.741 29.6608C211.26 29.9059 210.732 30.0284 210.156 30.0281L204.796 30.0258L204.801 18.6658L210.273 18.6682C210.807 18.6684 211.265 18.8126 211.649 19.1008C212.044 19.3783 212.342 19.7411 212.545 20.1891C212.758 20.6266 212.864 21.0853 212.864 21.5653C212.864 22.1306 212.72 22.6532 212.431 23.1331C212.143 23.613 211.743 23.9701 211.231 24.2046C211.881 24.3969 212.393 24.7544 212.766 25.2772C213.15 25.8001 213.342 26.4082 213.342 27.1015ZM212.222 26.909C212.222 26.525 212.137 26.173 211.966 25.8529C211.796 25.5222 211.561 25.2554 211.262 25.0526C210.975 24.8498 210.644 24.7483 210.271 24.7482L205.919 24.7463L205.917 29.0503L210.157 29.0521C210.541 29.0523 210.887 28.9511 211.197 28.7486C211.506 28.546 211.752 28.2848 211.933 27.9649C212.125 27.6343 212.222 27.2823 212.222 26.909ZM205.921 19.6423L205.919 23.8343L209.823 23.836C210.196 23.8361 210.527 23.7403 210.815 23.5484C211.103 23.3459 211.333 23.0846 211.503 22.7647C211.674 22.4448 211.76 22.1035 211.76 21.7408C211.76 21.3568 211.68 21.0101 211.52 20.7007C211.361 20.3806 211.142 20.1245 210.865 19.9324C210.587 19.7403 210.273 19.6442 209.921 19.644L205.921 19.6423ZM214.558 27.63C214.558 27.1074 214.707 26.6594 215.006 26.2862C215.305 25.9023 215.716 25.6092 216.239 25.4067C216.772 25.1936 217.385 25.0872 218.079 25.0875C218.484 25.0877 218.905 25.1199 219.343 25.1841C219.78 25.2483 220.169 25.3444 220.511 25.4726L220.511 24.7686C220.511 24.0646 220.303 23.5045 219.888 23.0883C219.472 22.6721 218.896 22.4639 218.16 22.4636C217.712 22.4634 217.269 22.5485 216.832 22.719C216.405 22.8788 215.957 23.1186 215.487 23.4384L215.072 22.6702C215.616 22.2971 216.149 22.02 216.672 21.8389C217.195 21.6472 217.728 21.5514 218.272 21.5516C219.296 21.5521 220.107 21.8457 220.704 22.4327C221.301 23.0196 221.599 23.8304 221.599 24.8651L221.597 28.7211C221.597 28.8704 221.629 28.9824 221.693 29.0571C221.757 29.1211 221.858 29.1585 221.997 29.1692L221.997 30.0332C221.879 30.0438 221.778 30.0545 221.693 30.0651C221.607 30.0757 221.543 30.0757 221.501 30.065C221.234 30.0542 221.031 29.9688 220.893 29.8088C220.754 29.6487 220.68 29.478 220.669 29.2967L220.653 28.6887C220.28 29.1685 219.794 29.5416 219.197 29.808C218.599 30.0638 217.991 30.1915 217.373 30.1912C216.839 30.191 216.354 30.0788 215.917 29.8546C215.49 29.6198 215.154 29.3103 214.909 28.9262C214.675 28.5314 214.557 28.0994 214.558 27.63ZM220.141 28.2724C220.259 28.1231 220.349 27.9792 220.414 27.8405C220.478 27.7019 220.51 27.5793 220.51 27.4726L220.51 26.2566C220.148 26.1178 219.769 26.0109 219.374 25.9361C218.99 25.8613 218.601 25.8238 218.206 25.8236C217.428 25.8233 216.798 25.9777 216.318 26.2868C215.838 26.5959 215.598 27.0171 215.598 27.5505C215.598 27.8598 215.677 28.1532 215.837 28.4306C215.997 28.6973 216.232 28.9214 216.541 29.1029C216.85 29.2737 217.213 29.3592 217.629 29.3593C218.152 29.3596 218.637 29.2584 219.085 29.056C219.544 28.8535 219.896 28.5923 220.141 28.2724ZM227.563 30.1956C226.955 30.1954 226.395 30.0831 225.883 29.8589C225.382 29.624 224.94 29.3038 224.556 28.8983C224.183 28.4928 223.89 28.0287 223.676 27.506C223.474 26.9832 223.373 26.4285 223.373 25.8418C223.373 25.0525 223.55 24.3326 223.902 23.6821C224.254 23.0315 224.745 22.5144 225.375 22.1307C226.004 21.747 226.73 21.5553 227.551 21.5556C228.33 21.556 229.018 21.7376 229.615 22.1005C230.212 22.4528 230.654 22.933 230.942 23.5411L229.886 23.8766C229.652 23.4499 229.321 23.1191 228.894 22.8842C228.479 22.6387 228.015 22.5158 227.503 22.5156C226.948 22.5154 226.441 22.6591 225.982 22.947C225.524 23.2348 225.155 23.6293 224.878 24.1305C224.611 24.6317 224.477 25.2023 224.477 25.8423C224.477 26.4716 224.615 27.0424 224.892 27.5545C225.17 28.0666 225.537 28.4774 225.996 28.787C226.454 29.0858 226.961 29.2354 227.516 29.2356C227.878 29.2358 228.225 29.1719 228.556 29.0441C228.897 28.9162 229.191 28.7457 229.436 28.5324C229.692 28.3086 229.863 28.0686 229.948 27.8127L231.02 28.1331C230.871 28.5277 230.62 28.885 230.268 29.2048C229.926 29.514 229.521 29.7591 229.051 29.9403C228.593 30.1107 228.097 30.1959 227.563 30.1956ZM238.681 30.0404L235.594 25.7671L233.818 27.4303L233.817 30.0383L232.729 30.0379L232.734 18.3579L233.822 18.3583L233.818 26.2623L238.54 21.7204L239.74 21.7209L236.331 25.1274L239.865 30.0409L238.681 30.0404Z" fill="#B5BAC6"/>
<path d="M1.8718 34.0037L1.8767 22.6437L5.7327 22.6454C6.93803 22.6459 7.94059 22.9024 8.74037 23.4147C9.55082 23.9164 10.1585 24.5993 10.5635 25.4635C10.9684 26.317 11.1707 27.2664 11.1703 28.3117C11.1698 29.4637 10.9453 30.4663 10.497 31.3195C10.0593 32.1726 9.42964 32.8337 8.6081 33.3026C7.79723 33.7716 6.83713 34.0059 5.7278 34.0054L1.8718 34.0037ZM10.0503 28.3113C10.0506 27.4046 9.88033 26.5992 9.5393 25.895C9.20893 25.1909 8.72384 24.6414 8.08401 24.2464C7.44418 23.8408 6.66027 23.6378 5.73227 23.6374L2.99627 23.6362L2.99222 33.0122L5.72822 33.0134C6.66689 33.0138 7.45631 32.8061 8.09649 32.3904C8.73667 31.9747 9.22225 31.4149 9.55322 30.7111C9.88419 29.9965 10.0499 29.1966 10.0503 28.3113ZM12.3518 31.6083C12.3521 31.0856 12.5016 30.6377 12.8004 30.2645C13.0992 29.8806 13.51 29.5874 14.0328 29.385C14.5662 29.1719 15.1796 29.0655 15.8729 29.0658C16.2783 29.066 16.6996 29.0981 17.1369 29.1623C17.5742 29.2265 17.9635 29.3227 18.3048 29.4508L18.3051 28.7468C18.3054 28.0428 18.0976 27.4827 17.6818 27.0666C17.266 26.6504 16.6901 26.4421 15.9541 26.4418C15.5061 26.4416 15.0634 26.5268 14.626 26.6972C14.1992 26.8571 13.7511 27.0969 13.2816 27.4167L12.866 26.6485C13.4101 26.2754 13.9436 25.9983 14.4663 25.8172C14.9891 25.6254 15.5225 25.5296 16.0665 25.5299C17.0905 25.5303 17.901 25.824 18.4981 26.4109C19.0952 26.9978 19.3935 27.8086 19.393 28.8433L19.3914 32.6993C19.3913 32.8486 19.4232 32.9606 19.4872 33.0353C19.5512 33.0994 19.6525 33.1367 19.7912 33.1475L19.7908 34.0115C19.6735 34.0221 19.5721 34.0327 19.4868 34.0433C19.4014 34.054 19.3374 34.0539 19.2948 34.0433C19.0281 34.0325 18.8255 33.9471 18.6869 33.787C18.5483 33.6269 18.4737 33.4562 18.4631 33.2749L18.4474 32.6669C18.0738 33.1467 17.5883 33.5199 16.9909 33.7863C16.3934 34.042 15.7854 34.1697 15.1667 34.1695C14.6334 34.1692 14.1481 34.057 13.7109 33.8328C13.2843 33.598 12.9484 33.2885 12.7033 32.9044C12.4688 32.5096 12.3516 32.0776 12.3518 31.6083ZM17.9356 32.2507C18.053 32.1014 18.1437 31.9574 18.2077 31.8188C18.2718 31.6801 18.3039 31.5575 18.3039 31.4508L18.3044 30.2348C17.9418 30.096 17.5632 29.9892 17.1686 29.9143C16.7846 29.8395 16.3953 29.802 16.0006 29.8018C15.2219 29.8015 14.5925 29.9559 14.1124 30.265C13.6323 30.5741 13.3921 30.9954 13.3919 31.5287C13.3917 31.838 13.4716 32.1314 13.6315 32.4088C13.7914 32.6755 14.0259 32.8996 14.3352 33.0811C14.6445 33.2519 15.0071 33.3374 15.4231 33.3376C15.9458 33.3378 16.4311 33.2367 16.8792 33.0342C17.338 32.8317 17.6901 32.5706 17.9356 32.2507ZM25.6792 33.614C25.5939 33.646 25.4605 33.7046 25.2791 33.7898C25.0978 33.8751 24.8791 33.9497 24.623 34.0136C24.367 34.0774 24.0897 34.1093 23.791 34.1092C23.4817 34.1091 23.1884 34.0503 22.9111 33.9328C22.6445 33.8154 22.4312 33.6393 22.2713 33.4045C22.1114 33.1591 22.0315 32.8604 22.0317 32.5084L22.0343 26.5404L20.8823 26.5399L20.8826 25.6759L22.0346 25.6764L22.0359 22.8604L23.1239 22.8609L23.1226 25.6769L25.0426 25.6777L25.0423 26.5417L23.1223 26.5409L23.1198 32.2049C23.141 32.5036 23.2476 32.7276 23.4395 32.877C23.6421 33.0265 23.8714 33.1012 24.1274 33.1013C24.4261 33.1015 24.6981 33.0536 24.9435 32.9577C25.1889 32.8511 25.3382 32.7765 25.3916 32.7339L25.6792 33.614ZM26.3675 31.6143C26.3677 31.0916 26.5172 30.6437 26.816 30.2705C27.1149 29.8866 27.5257 29.5935 28.0484 29.391C28.5818 29.1779 29.1952 29.0715 29.8886 29.0718C30.2939 29.072 30.7152 29.1042 31.1525 29.1684C31.5898 29.2326 31.9791 29.3287 32.3204 29.4569L32.3207 28.7529C32.321 28.0489 32.1132 27.4888 31.6974 27.0726C31.2816 26.6564 30.7057 26.4482 29.9697 26.4479C29.5217 26.4477 29.079 26.5328 28.6416 26.7033C28.2148 26.8631 27.7667 27.1029 27.2973 27.4227L26.8816 26.6545C27.4258 26.2814 27.9592 26.0043 28.482 25.8232C29.0047 25.6314 29.5381 25.5357 30.0821 25.5359C31.1061 25.5364 31.9166 25.83 32.5137 26.417C33.1108 27.0039 33.4091 27.8147 33.4086 28.8493L33.407 32.7053C33.4069 32.8547 33.4389 32.9667 33.5028 33.0414C33.5668 33.1054 33.6681 33.1428 33.8068 33.1535L33.8064 34.0175C33.6891 34.0281 33.5877 34.0388 33.5024 34.0494C33.4171 34.06 33.3531 34.06 33.3104 34.0493C33.0437 34.0385 32.8411 33.9531 32.7025 33.793C32.5639 33.633 32.4893 33.4623 32.4787 33.2809L32.463 32.6729C32.0895 33.1528 31.604 33.5259 31.0065 33.7923C30.4091 34.0481 29.801 34.1758 29.1823 34.1755C28.649 34.1753 28.1637 34.0631 27.7265 33.8389C27.2999 33.604 26.9641 33.2946 26.7189 32.9105C26.4844 32.5157 26.3673 32.0836 26.3675 31.6143ZM31.9512 32.2567C32.0686 32.1074 32.1593 31.9635 32.2234 31.8248C32.2874 31.6862 32.3195 31.5635 32.3195 31.4569L32.32 30.2409C31.9574 30.1021 31.5788 29.9952 31.1842 29.9204C30.8002 29.8456 30.4109 29.8081 30.0162 29.8079C29.2376 29.8075 28.6082 29.9619 28.128 30.2711C27.6479 30.5802 27.4077 31.0014 27.4075 31.5348C27.4074 31.8441 27.4872 32.1375 27.6471 32.4149C27.807 32.6816 28.0416 32.9057 28.3508 33.0872C28.6601 33.258 29.0227 33.3435 29.4387 33.3436C29.9614 33.3439 30.4468 33.2427 30.8948 33.0403C31.3536 32.8378 31.7057 32.5766 31.9512 32.2567Z" fill="#B5BAC6"/>
<path d="M61.7603 1C61.7603 0.585786 61.4245 0.25 61.0103 0.25C60.596 0.25 60.2603 0.585786 60.2603 1L61.7603 1ZM60.4799 55.4498C60.7728 55.7427 61.2477 55.7427 61.5406 55.4498L66.3136 50.6769C66.6065 50.384 66.6065 49.9091 66.3136 49.6162C66.0207 49.3233 65.5458 49.3233 65.2529 49.6162L61.0103 53.8589L56.7676 49.6162C56.4747 49.3233 55.9998 49.3233 55.707 49.6162C55.4141 49.9091 55.4141 50.384 55.707 50.6769L60.4799 55.4498ZM60.2603 1L60.2603 54.9195L61.7603 54.9195L61.7603 1L60.2603 1Z" fill="white"/>
<path d="M125.76 54.9199C125.76 55.3341 125.424 55.6699 125.01 55.6699C124.596 55.6699 124.26 55.3341 124.26 54.9199L125.76 54.9199ZM124.48 0.470077C124.773 0.177181 125.248 0.177181 125.541 0.470078L130.314 5.24305C130.606 5.53594 130.606 6.01081 130.314 6.30371C130.021 6.5966 129.546 6.5966 129.253 6.30371L125.01 2.06107L120.768 6.30371C120.475 6.5966 120 6.5966 119.707 6.30371C119.414 6.01081 119.414 5.53594 119.707 5.24305L124.48 0.470077ZM124.26 54.9199L124.26 1.0004L125.76 1.0004L125.76 54.9199L124.26 54.9199Z" fill="white"/>
</svg>
