<svg width="500" height="416" viewBox="0 0 500 416" fill="none" xmlns="http://www.w3.org/2000/svg">
<g clip-path="url(#clip0_178_2148)">
<path d="M444.394 392.942C444.069 391.601 440.824 388.939 445.497 389.664C457.116 391.449 468.941 391.958 480.343 395.063C482.961 395.777 486.996 395.798 486.921 399.357C486.845 402.473 482.918 402.614 480.494 403.187C469.719 405.719 458.706 406.746 447.715 408.034C429.432 410.165 411.019 410.381 392.715 412.134C384.179 412.945 375.525 412.945 366.978 413.097C342.399 413.54 317.841 415.12 293.23 414.471C273.67 413.962 254.154 416.439 234.584 415.477C207.668 414.157 180.73 414.99 153.825 414.254C134.147 413.724 114.457 412.891 94.7789 412.112C74.6245 411.312 54.5024 409.602 34.402 407.796C25.0117 406.952 15.7297 404.983 6.40428 403.468C5.18181 403.274 3.94853 402.873 2.82342 402.343C-0.90889 400.591 -0.919708 398.741 2.72606 396.015C9.24949 399 16.184 397.183 22.9238 397.713C44.29 397.41 65.6561 397.67 87.0222 397.572C94.9196 397.54 94.9845 397.367 95.1251 389.35C95.3307 378.392 94.4869 367.422 95.6011 356.474C98.3057 353.25 100.394 349.615 102.417 345.937C104.743 343.394 106.679 343.373 108.561 346.575C110.92 350.588 116.091 351.8 118.341 356.008C119.445 362.067 118.633 368.179 118.882 374.259C118.969 376.39 118.644 378.597 120.061 380.469C120.678 381.864 120.829 383.325 120.689 384.828C118.428 401.142 119.044 399.974 134.028 401.088C134.915 401.153 135.824 401.186 136.7 401.077C138.874 400.818 141.849 402.008 142.866 399.271C143.732 396.934 141.06 395.69 139.783 394.056C137.706 391.525 135.12 389.524 132.719 387.317C131.961 386.127 131.94 385.066 133.281 384.244C143.515 381.085 153.955 382.74 164.33 382.881C167.013 383.357 167.921 386.094 169.804 387.501C172.238 386.873 171.005 383.628 173.309 383.173C179.746 382.632 186.107 380.772 192.641 381.962C194.946 382.762 194.686 384.461 194.188 386.311C193.745 387.966 192.457 389.448 193.28 391.763C195.746 390.357 197.066 388.106 198.591 386.073C201.729 382.805 204.455 379.203 207.278 375.676C216.214 364.62 224.241 352.914 231.901 340.949C232.885 339.402 233.653 335.248 237.061 338.894C238.067 345.839 237.732 352.795 237.288 359.752C235.958 363.592 233.242 366.513 230.462 369.272C222.64 377.028 215.295 385.272 206.532 392.466C209.637 392.293 211.281 390.313 213.034 388.572C219.146 382.502 225.118 376.293 231.36 370.364C232.734 369.055 234.108 365.821 236.91 368.807C237.894 371.782 237.548 374.865 237.483 377.894C237.321 385.218 234.584 388.723 227.563 390.649C224.772 391.417 221.937 392.012 220.141 394.565C218.432 396.988 218.778 398.654 222.045 398.784C226.881 398.968 231.717 398.838 236.564 398.849C244.093 398.86 251.623 398.914 259.141 398.806C260.797 398.784 263.133 399.433 263.642 397.053C264.064 395.084 262.333 393.862 260.916 392.737C259.347 391.492 257.302 391.19 255.615 390.129C253.862 388.247 252.942 386.029 252.932 383.433C253.213 382.827 253.656 382.383 254.262 382.102C263.198 380.88 272.145 381.172 281.092 381.918C284.272 383.043 283.342 385.845 283.569 388.312C285.495 387.392 287.117 385.77 289.422 386.256C292.483 387.252 295.383 388.658 294.452 392.542C293.738 395.571 289.27 396.88 285.462 395.333C282.552 394.143 279.88 394.403 277.197 395.787C276.223 396.285 275.282 396.988 275.358 398.211C275.444 399.595 276.699 399.779 277.727 399.909C280.378 400.244 283.017 401.11 285.722 400.612C290.341 399.747 295.004 400.082 299.656 399.985C305.13 399.866 305.736 399.152 305.855 393.699C305.92 390.93 305.054 388.398 304.416 385.791C304.416 384.807 304.686 383.963 305.584 383.433C311.621 381.897 317.668 382.189 323.716 383.216C326.853 385.315 325.631 388.626 325.966 391.503C326.226 393.71 325.457 396.512 328.465 397.313C331.905 398.232 332.414 395.16 333.517 393.018C337.336 390.097 339.208 385.12 343.859 383.054C351.876 383.097 359.86 383.563 367.844 384.255C368.417 384.504 368.861 384.904 369.185 385.423C369.369 385.997 369.369 386.57 369.196 387.144C366.405 389.394 362.791 390.302 360.065 392.682C357.945 394.316 353.271 394.024 353.953 397.551C354.71 401.402 359.005 399.639 361.818 399.996C367.487 400.71 373.199 400.98 378.9 401.315C382.556 401.521 383.487 400.039 384.125 396.945C384.85 393.461 384.093 390.194 383.584 386.841C383.963 385.91 384.731 385.456 385.629 385.142C396.772 383.573 407.796 386.246 418.895 386.094C420.139 386.073 421.318 386.7 422.346 387.457C424.467 389.383 424.164 392.012 424.153 394.468C424.142 397.951 425.754 399.671 429.129 400.244C433.002 400.904 436.897 401.434 440.781 401.932C442.847 402.192 445.248 402.592 446.514 400.234C447.585 398.232 446.622 396.436 445.367 394.803C444.956 394.251 444.686 393.591 444.394 392.942Z" fill="#666666"/>
<path d="M192.75 161.29C200.69 153.22 208.653 145.182 216.55 137.068C217.567 136.018 218.432 135.553 219.666 136.538C222.327 137.89 224.123 139.87 224.328 142.996C222.024 150.136 216.215 154.907 212.158 160.868C209.572 164.665 206.294 167.976 203.633 171.719C197.997 179.67 190.543 177.961 182.992 175.895C174.954 173.688 168.041 169.047 160.684 165.055C161.701 176.587 162.48 187.892 163.757 199.132C165.185 211.595 167.165 223.993 168.712 236.445C169.133 239.863 168.863 243.358 168.917 246.819C166.981 249.838 163.703 250.487 160.641 251.341C144.122 255.918 127.407 256.004 110.574 253.462C108.345 252.867 107.458 251.147 107.134 249.091C105.403 238.089 103.921 227.054 104.061 215.89C104.343 213.932 105.608 212.893 107.296 211.952C112.164 209.237 112.456 208.458 109.2 203.719C107.22 200.842 107.123 198.602 109.947 196.33C108.075 195.14 105.554 196.547 104.559 194.167C103.185 187.395 104.18 180.557 103.91 173.753C103.802 170.886 103.758 168.019 103.434 165.152C103.034 161.658 101.465 160.327 98.0681 161.517C91.8475 162.556 85.4972 165.661 80.8129 160.836C79.0279 160.057 79.2118 161.258 79.3524 160.554C79.3849 160.381 79.5471 160.392 79.8717 160.5C83.9826 161.928 86.6656 164.698 88.4939 168.69C91.3175 174.867 94.498 180.882 97.5704 186.951C98.5765 189.612 100.535 191.906 100.643 194.913C98.8037 198.689 94.8767 199.208 91.5987 200.744C90.4628 200.874 89.5324 200.409 88.6561 199.749C81.2673 190.921 74.5166 181.607 67.5388 172.444C65.1372 168.322 60.8099 164.806 63.2872 159.126C63.8173 154.464 65.8836 151.737 70.8817 150.331C90.0193 144.954 109.341 139.945 126.856 130.025C131.637 134.277 136.419 133.628 141.211 130.025C154.886 134.818 166.288 143.537 178.113 151.51C182.765 154.648 187.254 158.023 191.83 161.29C192.955 162.404 192.847 163.832 192.858 165.228C192.869 163.93 192.869 162.61 192.75 161.29Z" fill="url(#paint0_linear_178_2148)"/>
<path d="M63.2977 159.148C63.1787 164.319 66.1537 168.16 68.815 172.141C66.8136 174.207 64.1848 173.796 61.729 173.839C55.4544 173.947 49.1798 173.915 42.916 173.872C39.0214 173.839 36.8902 175.202 36.9335 179.476C37.0201 189.894 36.9335 200.301 36.9768 210.719C36.9876 214.289 38.5563 215.944 42.1696 215.944C55.6059 215.955 69.053 215.987 82.4894 215.922C86.1568 215.901 87.4225 214.062 87.6064 210.578C87.812 206.748 86.4597 202.616 89.3049 199.165C89.9432 199.554 90.5814 199.944 91.2197 200.333C94.9088 204.109 97.2996 208.555 98.2841 213.77C98.7601 239.863 98.4572 265.957 98.4788 292.04C98.3598 299.018 98.6086 305.995 98.4788 312.973C98.4463 314.942 98.4355 316.922 97.6566 318.783C95.6011 321.466 95.0278 324.527 95.1143 327.87C95.2441 333.604 95.2441 339.348 95.1143 345.082C95.0386 348.555 95.5038 351.854 96.9318 355.024C96.8885 368.331 96.7695 381.637 96.8561 394.944C96.8777 397.973 96.4341 399.401 92.8316 399.368C69.3235 399.152 45.8045 399.163 22.2964 399.109C20.3382 397.053 20.6087 394.435 20.5979 391.958C20.5546 316.825 20.5546 241.692 20.5979 166.558C20.5979 164.07 20.3274 161.452 22.2964 159.408C26.2018 159.343 30.118 159.278 34.0234 159.224C41.6936 158.401 49.3637 158.401 57.0339 159.224C59.1218 159.191 61.2098 159.17 63.2977 159.148Z" fill="url(#paint1_linear_178_2148)"/>
<path d="M22.2965 159.408C22.2965 239.312 22.2965 319.215 22.2965 399.109C16.9198 399.163 11.5323 399.065 6.15558 399.347C3.47264 399.487 2.618 398.416 2.71536 396.015C2.76945 393.862 2.88846 391.698 2.88846 389.545C2.89927 314.618 2.93173 239.69 2.79109 164.763C2.78027 160.37 3.66737 158.661 8.2976 159.137C12.9278 159.613 17.6338 159.343 22.2965 159.408Z" fill="#3BB3C1"/>
<path d="M465.858 112.683C467.415 105.922 471.342 100.102 473.398 93.5458C475.129 87.996 478.071 82.8682 479.034 77.0587C481.923 78.3353 484.606 79.9039 486.423 82.6085C482.312 99.8637 480.419 117.811 470.293 133.141C463.997 142.672 455.18 149.704 446.569 156.854C444.005 158.986 442.014 160.955 441.387 164.103C439.872 171.751 437.654 179.173 435.047 186.507C432.689 193.139 432.689 199.846 434.463 206.64C434.906 208.328 434.603 210.221 434.647 212.017C434.149 213.878 432.591 214.505 431.001 214.743C418.365 216.658 405.751 217.177 393.299 213.445C392.098 213.088 391.006 212.439 390.119 211.508C388.323 208.544 389.621 205.623 390.389 202.778C392.207 196.082 393.959 189.407 392.044 182.418C392.055 169.382 389.978 156.4 390.919 143.332C390.984 142.445 390.887 141.536 391.406 140.746C391.017 137.944 392.888 136.96 395.073 136.592C397.324 136.213 399.498 135.791 401.337 134.331C402.268 133.476 403.295 133.422 404.399 133.952C406.476 137.003 406.346 140.811 407.85 144.089C411.03 151.023 416.84 152.224 422.584 147.172C426.652 143.591 428.275 138.517 431.033 134.147C432.169 133.411 433.457 133.422 434.539 133.963C438.195 135.78 441.852 135.629 445.584 134.331C454.163 130.166 459.572 123.004 463.932 114.858C466.096 115.485 467.037 115.031 465.858 112.683Z" fill="url(#paint2_linear_178_2148)"/>
<path d="M390.357 210.957C404.291 216.02 418.527 215.089 432.818 213.088C433.457 213.001 434.03 212.406 434.636 212.039C437.903 219.06 438.877 226.752 439.796 234.205C441.57 248.615 442.176 263.177 443.247 277.684C443.312 278.571 443.15 279.469 443.085 280.367C441.96 281.633 440.532 282.325 438.898 282.606C416.872 286.436 395.409 285.278 374.93 275.347C373.805 274.796 372.712 274.179 371.825 273.259C370.224 270.955 370.808 268.488 371.392 266.054C373.794 256.015 376.25 245.997 379.538 236.207C382.027 229.543 384.028 222.695 386.408 215.987C387.122 213.943 387.392 211.335 390.357 210.957Z" fill="#3C3C48"/>
<path d="M243.055 81.3752C223.474 81.3752 203.882 81.4077 184.301 81.3536C177.226 81.332 174.553 79.2549 174.488 74.2676C174.434 70.1999 176.273 68.1336 180.33 68.4257C183.803 68.6637 186.042 67.874 188.109 64.4338C191.679 58.4729 201.026 56.861 207.928 60.55C210.535 61.9456 211.617 61.7941 213.651 59.5223C217.296 55.4546 221.938 52.6527 227.833 53.2693C232.323 53.7453 235.861 52.8798 238.976 48.8663C248.68 36.3928 273.162 38.7079 279.61 55.4221C280.594 57.9753 281.828 57.9753 283.948 57.575C291.856 56.0821 298.12 58.9056 301.549 66.0565C302.75 68.5556 304.33 68.4149 306.266 68.4041C309.198 68.3825 311.188 69.6266 311.513 72.6341C311.848 75.7389 311.902 78.8654 308.127 80.2285C305.736 81.094 303.313 81.4185 300.749 81.4185C281.514 81.3428 262.29 81.3752 243.055 81.3752Z" fill="#4E4E4E"/>
<path d="M73.5645 32.7145C57.5643 32.7145 41.5532 32.7037 25.5529 32.7254C22.0154 32.7362 18.4237 32.9201 18.0342 28.0086C17.6448 23.1728 20.3061 21.5068 24.6767 21.9179C26.9377 22.1342 27.7058 20.4358 28.9066 19.1592C33.7532 13.9881 38.4159 12.9279 44.8852 16.0003C47.3302 17.1578 48.7474 16.7684 50.4242 14.8968C53.7454 11.1969 57.9537 9.53093 62.9626 9.99612C65.5806 10.2341 67.4414 9.5742 69.3021 7.14009C77.3618 -3.39693 95.7312 -1.99055 102.406 9.59584C103.986 12.3329 105.684 13.5229 108.778 13.2849C113.798 12.9062 117.909 14.5614 120.548 19.1592C121.446 20.717 122.528 21.9071 124.724 21.9936C128.435 22.1451 129.398 24.7847 129.149 28.0519C128.868 31.7517 126.509 32.7362 123.199 32.7254C106.658 32.6821 90.1165 32.7037 73.5645 32.7145Z" fill="#4E4E4E"/>
<path d="M408.704 50.013C392.369 50.013 376.033 49.9914 359.697 50.0346C356.268 50.0455 353.001 49.9481 352.633 45.4369C352.287 41.1853 355.197 39.7789 358.605 39.3353C360.639 39.0649 362.478 38.8161 363.841 37.1176C368.276 31.6327 374.086 31.8058 379.982 33.6125C382.059 34.2507 383.195 33.9586 384.655 32.5523C388.409 28.9281 392.845 26.7537 398.211 27.327C401.067 27.6299 402.981 26.2777 404.701 24.2871C412.869 14.886 430.287 14.3559 437.795 28.3872C438.963 30.5617 439.926 31.6219 442.695 30.724C445.508 29.8152 448.483 30.8646 450.885 32.4549C454.909 35.1378 457.278 39.8871 462.601 41.1745C464.245 41.5747 465.284 44.3334 464.299 46.8C463.261 49.3964 461.422 50.0671 458.793 50.0455C442.09 49.9697 425.397 50.013 408.704 50.013Z" fill="#4E4E4E"/>
<path d="M268.586 233.837C287.085 234.562 300.608 226.167 310.561 211.043C312.086 208.728 314.077 206.716 315.851 204.574C317.658 206.532 316.511 208.652 316.068 210.654C314.629 217.285 313.439 223.971 312.043 230.624C311.405 233.686 311.913 235.157 315.44 233.837C318.285 232.777 321.206 231.944 323.705 230.138C332.089 224.718 339.727 218.324 347.581 212.19C351.043 209.334 354.386 206.337 357.967 203.644C360.076 202.053 362.089 200.009 365.172 200.788C371.089 205.634 372.626 211.703 369.813 219.352C369.023 221.505 368.287 223.722 366.762 225.529C358.713 231.393 350.773 237.44 342.129 242.46C334.902 246.744 327.881 251.46 319.497 253.332C314.899 254.187 310.247 254.674 305.65 255.571C302.209 256.004 298.769 256.383 295.415 255.095C292.743 253.007 289.649 252.683 286.371 252.661C282.671 252.64 278.907 253.3 275.304 251.861C273.606 250.714 273.562 248.864 273.476 247.122C273.389 245.381 272.881 244.028 271.15 243.368C268.597 240.642 267.32 237.581 268.586 233.837Z" fill="#3BB3C1"/>
<path d="M171.351 252.11C172.79 254.262 174.218 256.415 175.656 258.579C178.491 260.645 179.465 263.923 181.055 266.801C182.472 269.83 184.03 272.783 185.577 275.748C187.145 278.982 188.703 282.206 190.11 285.516C192.739 291.726 190.943 296.692 186.431 301.106C181.228 306.201 174.942 309.76 168.484 312.822C162.675 315.581 156.843 318.415 150.709 320.47C149.703 320.806 148.697 321.152 147.691 321.498C145.69 321.812 143.894 323.824 141.655 322.255C139.08 312.238 140.227 309.025 148.2 303.01C152.787 299.559 157.525 296.291 161.463 292.029C164.048 289.227 164.416 286.577 161.982 283.439C157.244 277.327 153.176 270.749 148.935 264.291C145.744 259.412 146.252 257.822 152.029 256.523C158.466 255.063 164.546 251.958 171.351 252.11Z" fill="#3C3C48"/>
<path d="M237.018 258.687C236.531 250.087 232.907 242.222 231.154 233.924C229.975 228.342 228.201 222.879 226.697 217.372C225.572 213.261 227.368 211.206 231.403 211.173C239.441 211.13 247.479 211.26 255.517 211.314C258.763 211.887 260.245 214.083 261.132 217.08C264.832 229.651 268.12 242.341 271.734 254.933C272.296 256.902 273.346 259.152 270.782 260.71C261.002 262.246 251.19 261.348 241.389 261.262C239.571 261.24 237.84 260.613 237.018 258.687Z" fill="#3C3C48"/>
<path d="M237.018 258.687C240.372 260.591 244.028 259.715 247.555 259.758C255.615 259.855 263.674 259.726 271.734 259.693C273.822 257.897 276.375 258.244 278.82 258.179C284.294 258.038 289.79 258.525 295.221 257.411C298.866 256.956 302.534 257.054 306.19 257.151C310.529 257.032 314.856 257.032 319.194 257.118C323.078 257.097 326.951 257.01 330.834 257.129C335.205 257.27 337.877 259.141 337.888 263.847C337.964 265.643 337.747 267.353 336.536 268.791C330.607 271.301 324.408 269.711 318.318 270.014C316.241 270.003 314.153 270.09 312.108 269.538C308.722 268.889 305.303 269.138 301.906 269.138C264.356 269.116 226.817 269.127 189.266 269.116C186.042 269.116 182.754 269.386 179.898 267.385C178.48 264.453 177.063 261.521 175.646 258.59C184.203 258.633 192.761 258.687 201.329 258.73C206.11 258.038 210.892 258.038 215.674 258.73C222.792 258.698 229.9 258.687 237.018 258.687Z" fill="#5D5D6A"/>
<path d="M433.37 296.519C433.241 309.436 435.74 322.309 434.495 335.194C433.197 348.641 433.781 362.078 433.533 375.514C433.479 378.37 431.888 381.031 432.451 383.963C429.779 386.365 426.836 387.154 423.493 385.402C421.308 382.308 421.211 378.608 420.745 375.081C419.566 365.994 418.073 356.928 417.954 347.732C417.76 345.85 418.03 343.935 417.716 342.053C417.338 341.036 417.046 339.965 417.056 338.894C417.175 326.475 416.029 314.163 414.222 301.895C414.06 300.824 414.222 299.743 414.741 298.758C420.605 295.101 426.912 295.177 433.37 296.519Z" fill="#F7BA8B"/>
<path d="M445.584 134.342C442.836 137.219 439.98 138.474 436.237 135.77C434.971 134.861 433.024 134.915 431.38 134.526C430.157 135.359 428.935 134.926 427.701 134.558C427.193 134.407 426.717 134.201 426.252 133.963C424.78 133.087 423.958 131.788 423.796 130.079C423.72 129.289 423.796 128.521 423.991 127.764C426.533 123.88 430.006 120.635 431.78 116.221C432.937 115.388 434.582 115.301 435.361 113.873C436.042 113.04 436.702 112.175 437.027 111.147C437.503 109.611 438.184 107.685 436.107 107.047C433.673 106.311 434.062 108.854 433.392 110.109C433.229 110.585 433.002 111.039 432.721 111.461C430.86 113.744 429.768 112.835 429.237 110.509C428.88 108.929 428.751 107.685 426.717 106.982C424.304 106.149 419.112 108.161 420.788 101.843C421.178 100.372 413.789 98.9982 409.948 100.48C411.831 100.816 413.194 100.805 414.157 101.66C415.542 102.882 415.747 104.721 413.821 104.743C409.721 104.786 406.941 107.599 403.436 108.756C402.841 108.334 402.495 107.729 402.267 107.08C400.439 106.842 401.283 109.243 399.942 109.46C396.361 98.2626 402.7 85.6376 413.8 82.2191C424.423 78.9519 437.232 84.3286 440.51 95.2876C441.473 98.4898 441.008 101.649 441.051 104.818C441.148 111.201 441.679 117.443 444.632 123.253C446.428 126.834 444.794 130.696 445.584 134.342Z" fill="#3C3C48"/>
<path d="M276.007 154.907C280.67 154.907 285.333 154.94 289.995 154.896C293.468 154.853 295.383 156.368 295.394 159.97C295.404 166.18 294.874 172.4 298.271 178.177C299.375 180.049 298.12 182.526 295.502 181.325C285.203 176.598 274.384 179.357 263.826 178.762C257.129 178.383 256.567 178.112 256.556 171.2C256.545 167.424 256.545 163.659 256.567 159.884C256.578 156.606 258.233 154.929 261.511 154.918C266.325 154.896 271.161 154.907 276.007 154.907Z" fill="url(#paint3_linear_178_2148)"/>
<path d="M171.351 252.11C165.152 254.857 158.52 256.123 151.997 257.757C148.86 258.536 146.696 259.304 149.638 263.166C154.399 269.43 158.499 276.191 163.172 282.52C166.18 286.587 165.704 289.736 162.274 293.252C157.72 297.893 152.603 301.83 147.172 305.238C143.137 307.77 141.46 310.691 142.076 315.332C142.379 317.625 142.109 320.005 142.098 322.342C141.016 323.673 139.88 324.7 138.225 323.078C137.251 316.219 138.485 309.447 139.134 302.653C139.556 301.809 140.259 301.409 141.179 301.387C142.369 302.555 143.158 303.626 145.268 302.068C150.039 298.542 154.485 294.636 159.159 291.023C161.463 289.238 161.43 287.345 159.894 284.965C155.307 277.879 150.201 271.15 145.571 264.096C144.359 262.246 142.661 261.565 140.594 261.478C139.307 261.013 138.268 259.985 136.851 259.791C133.022 259.542 129.387 260.732 125.654 261.154C121.954 261.576 120.819 263.837 121.176 267.147C122.56 279.826 123.404 292.559 123.696 305.281C124.161 325.533 126.909 345.774 124.497 366.048C123.956 370.635 125.416 375.438 122.993 379.809C122.073 380.469 121.143 380.469 120.213 379.83C117.854 375.038 118.806 369.953 119.239 365.031C120.223 353.91 120.083 342.843 119.228 331.721C118.363 320.46 118.785 309.144 117.898 297.849C117.108 287.842 116.653 277.803 115.723 267.807C115.474 265.124 114.728 262.917 112.185 261.651C109.87 258.839 109.968 255.669 110.822 252.391C117.476 253.613 124.205 253.105 130.901 253.343C144.045 253.808 156.714 251.753 168.927 246.83C169.836 248.54 171.21 250.043 171.351 252.11Z" fill="#1D1413"/>
<path d="M391.406 140.768C391.86 154.896 393.948 168.928 393.57 183.1C391.525 190.132 386.776 194.015 379.766 195.844C374.064 197.326 368.374 198.873 362.651 200.247C358.064 201.199 355.003 197.813 351.292 196.255C350.307 195.735 349.345 195.173 348.512 194.426C347.646 193.572 347.278 192.533 347.332 191.322C348.49 187.568 351.27 186.724 354.775 187.167C363.289 185.047 371.284 181.444 379.538 178.599C380.371 179.443 381.15 180.352 382.146 181.023C381.291 180.2 380.339 179.486 379.506 178.621C384.612 167.002 388.799 155.113 390.389 142.444C390.476 141.709 390.649 141.081 391.406 140.768Z" fill="#3BB3C1"/>
<path d="M326.767 165.682C326.745 161.052 326.713 156.433 326.691 151.802C326.691 151.272 326.55 150.483 326.832 150.245C330.477 147.15 333.896 143.667 337.964 141.255C341.025 139.448 344.595 141.244 347.354 143.137C349.106 144.338 350.534 144.424 352.514 144.175C356.831 143.645 359.492 145.452 360.228 150.136C360.725 153.328 361.634 156.606 363.127 159.44C364.912 162.826 364.544 165.812 363.127 168.993C362.51 169.598 361.742 169.717 360.92 169.631C359.157 169.209 357.242 169.306 355.651 168.235C355.273 167.857 354.959 167.424 354.71 166.948C349.518 157.092 347.895 156.433 337.206 158.791C333.744 159.559 333.788 162.534 332.533 164.763C331.181 166.537 329.493 167.153 327.362 166.277C327.178 166.072 326.972 165.877 326.767 165.682Z" fill="#3C3C48"/>
<path d="M120.494 102.85C114.209 103.12 114.209 103.12 115.074 96.7589C115.15 96.2288 115.226 95.6337 115.064 95.1469C111.58 84.7614 115.832 80.4232 125.752 78.4651C132.178 77.1994 139.188 76.983 145.225 81.2887C146.859 82.4571 149.336 83.5497 148.449 85.5403C146.469 89.9974 148.741 94.1084 148.622 98.36C148.579 99.7122 148.178 100.296 146.923 101.129C144.76 102.557 145.344 99.7663 144.284 99.8529C142.575 98.5763 142.932 95.3308 140.389 95.0712C136.159 94.6493 131.983 93.2321 127.667 93.9894C125.72 94.3247 124.703 95.8501 124.01 97.581C123.221 99.6041 122.355 101.562 120.494 102.85Z" fill="#3C3C48"/>
<path d="M371.879 272.686C380.512 275.975 388.864 279.956 398.146 281.47C413.227 283.926 428.167 283.385 443.074 280.378C443.431 287.312 443.431 287.312 433.554 289.173C431.391 291.575 428.48 291.672 425.603 291.618C421.816 291.531 418.16 292.905 414.363 292.559C410.792 291.943 407.201 291.456 403.555 291.553C396.523 290.536 389.61 288.978 382.849 286.75C379.463 285.159 375.99 283.688 372.874 281.622C368.991 279.036 368.742 276.029 371.879 272.686Z" fill="#1D1413"/>
<path d="M231.814 121.381C232.712 119.813 236.012 120.116 235.027 116.978C234.519 115.355 235.796 114.825 237.267 114.901C237.624 114.923 237.992 114.912 238.349 114.89C253.3 114.144 253.3 114.144 253.3 129.279C253.3 138.68 253.289 138.929 243.628 138.539C240.729 138.42 236.78 141.114 234.768 136.527C235.979 131.053 235.763 125.849 231.814 121.381Z" fill="#3BB3C1"/>
<path d="M57.034 159.224C49.3638 161.02 41.6936 161.02 34.0234 159.224C34.1424 154.172 34.2614 149.119 34.3696 144.067C36.9444 140.703 40.8606 141.547 44.2575 141.135C48.3577 140.649 52.5011 138.647 56.6878 140.822C56.8068 146.945 56.915 153.079 57.034 159.224Z" fill="#3C3C48"/>
<path d="M324.571 230.516C320.838 235.114 315.159 234.833 309.869 236.672C311.069 225.54 314.001 215.143 315.851 204.563C316.641 203.157 317.42 201.75 318.21 200.344C321.076 201.199 323.478 203.546 326.951 202.529C328.368 202.118 328.692 203.882 329.006 205.072C328.173 213.672 327.816 222.348 324.571 230.516Z" fill="url(#paint4_linear_178_2148)"/>
<path d="M295.448 258.687C287.626 261.002 279.632 259.336 271.734 259.682C267.775 245.857 263.685 232.074 259.942 218.183C259.142 215.23 258.06 212.915 255.518 211.303C260.927 210.178 263.112 212.947 264.172 217.88C265.33 223.268 267.093 228.526 268.586 233.837C269.982 236.65 269.365 240.166 271.648 242.676C274.049 244.926 273 248.518 274.882 250.963C280.27 251.028 285.657 251.158 291.045 251.114C293.49 251.093 295.318 251.558 295.567 254.392C296.605 255.853 296.53 257.281 295.448 258.687Z" fill="#1D1413"/>
<path d="M135.759 109.373C141.861 112.792 144.013 112.37 146.588 107.274C147.345 106.668 148.114 106.733 148.892 107.231C149.433 107.923 149.682 108.724 149.747 109.589C149.801 111.428 149.066 112.856 147.551 113.895C147.973 116.74 145.517 118.688 145.257 121.327C144.565 123.967 142.564 125.373 140.335 126.552C136.592 128.575 132.643 128.5 128.608 127.786C128.078 127.537 127.602 127.202 127.18 126.801C122.755 123.166 120.981 117.205 115.431 114.328C112.521 112.824 111.991 108.713 113.506 105.652C114.858 102.904 117.411 104.083 119.51 105.327C120.83 106.366 120.375 108.313 121.598 109.405C124.465 111.785 127.407 113.787 131.291 111.58C133.401 112.11 134.482 110.531 135.759 109.373Z" fill="#F7BA8B"/>
<path d="M486.412 82.6193C483.535 81.3212 480.506 80.2285 479.024 77.0696C477.022 72.5367 477.736 68.0038 478.915 63.4385C479.207 62.3242 479.619 61.3073 480.852 61.2099C482.161 61.1126 481.988 62.3242 482.107 63.1464C482.464 65.6563 483.654 65.137 484.93 63.9037C487.126 61.7833 489.312 59.6305 491.443 57.4452C493.607 55.2274 496.398 55.8008 498.345 56.9151C499.719 57.7048 499.373 60.5825 499.784 62.3242C500.92 67.1708 497.447 68.0038 495.078 70.0052C491.043 73.4238 488.63 77.9567 486.412 82.6193Z" fill="#F7BA8B"/>
<path d="M423.818 385.056C426.847 385.921 429.497 383.714 432.461 383.974C436.453 384.937 437.427 386.408 433.543 389.145C432.613 389.805 430.449 390.908 431.888 392.347C433.392 393.862 435.685 394.586 437.632 395.647C439.028 392.585 442.187 393.97 444.394 392.931C449.284 393.916 449.176 397.626 448.516 401.196C447.845 404.864 444.545 403.706 442.349 403.512C436.767 403.025 431.196 402.181 425.667 401.229C423.644 400.883 422.454 399.53 422.671 397.021C422.93 394.186 422.628 391.309 422.563 388.442C421.838 386.895 421.6 385.51 423.818 385.056Z" fill="url(#paint5_linear_178_2148)"/>
<path d="M231.814 121.381C236.975 122.658 238.684 131.367 234.768 136.527C231.284 138.68 227.812 140.843 224.328 142.996C222.77 140.843 221.223 138.691 219.665 136.538C219.406 131.907 221.732 128.024 223.43 123.988C223.993 122.658 224.361 120.332 226.34 120.743C228.385 121.165 226.751 123.61 228.374 125.741C229.564 124.237 230.689 122.809 231.814 121.381Z" fill="#F7BA8B"/>
<path d="M354.753 187.178C352.849 189.136 348.76 187.86 348.1 191.668C343.729 196.785 337.476 196.287 334.069 190.564C329.904 187.254 328.519 182.537 327.599 177.604C326.377 174.532 325.576 171.448 327.177 168.246C331.581 166.028 331.386 169.793 332.273 172.162C332.37 177.334 334.036 181.661 338.829 184.301C344.443 186.14 350.242 183.381 352.189 177.907C352.979 175.7 353.195 173.342 353.92 171.113C354.851 169.598 355.965 168.949 357.49 170.399C358.853 173.915 359.124 177.388 357.09 180.763C357.112 183.186 355.889 185.166 354.753 187.178Z" fill="#3C3C48"/>
<path d="M56.8609 120.483C57.5533 120.289 57.8346 120.689 58.0077 121.262C59.122 123.805 57.4668 125.514 55.8548 126.769C53.2368 128.792 53.4532 130.923 54.773 133.4C54.7514 134.028 54.7297 134.645 54.6973 135.272C50.8027 139.242 41.3042 139.242 37.4205 135.272C37.0418 134.645 36.6524 134.017 36.2737 133.4C36.6524 130.058 39.2055 131.421 40.4712 131.237C36.8904 129.084 33.4177 126.433 33.0391 121.284C33.4718 120.126 34.3697 120.299 35.2784 120.505C38.8052 122.333 40.547 126.033 43.3814 128.348C45.1556 121.208 42.1805 115.658 37.3015 110.682C35.5273 108.886 32.9525 107.263 34.1317 103.975C34.3048 103.401 34.5969 103.001 35.2784 103.196C38.7728 104.743 41.1744 107.556 43.4463 110.357C44.4091 104.029 41.9858 97.462 45.0149 91.2956C45.3611 91.1225 45.6965 91.1225 46.0427 91.2956C48.7689 95.3741 46.9947 99.9503 47.4707 104.288C47.6979 106.387 47.2543 108.508 47.5031 110.801C50.2618 108.086 52.0576 104.57 55.7791 103.196C56.4715 103.001 56.7528 103.401 56.9259 103.975C58.3971 106.831 56.1253 108.399 54.5783 109.892C48.4443 115.767 45.8263 122.69 47.4382 129.982C48.9852 126.087 52.274 122.712 56.8609 120.483Z" fill="url(#paint6_linear_178_2148)"/>
<path d="M334.069 190.564C338.472 194.394 343.124 195.14 348.1 191.679C348.338 192.555 348.187 193.648 349.355 194.015C348.977 198.224 343.535 201.296 338.786 199.965C337.412 199.576 336.243 198.786 335.291 197.888C332.955 200.106 333.268 205.429 327.946 203.568C324.095 204.336 320.319 204.866 318.209 200.344C317.766 196.698 319.551 194.729 322.937 193.81C326.669 192.804 330.358 191.657 334.069 190.564Z" fill="#F7BA8B"/>
<path d="M215.674 258.709C210.892 260.429 206.11 260.429 201.339 258.709C202.227 254.706 199.522 250.963 200.485 246.949C205.84 244.18 211.184 244.18 216.539 246.949C217.242 250.941 214.581 254.684 215.674 258.709Z" fill="url(#paint7_linear_178_2148)"/>
<path d="M120.494 102.85C121.403 100.394 122.203 97.884 123.242 95.4823C125.114 91.1333 129.062 91.988 132.438 92.3991C134.125 92.6046 135.834 93.5134 137.62 93.2321C142.899 92.4099 144.824 94.8657 144.294 99.8529L144.381 99.7555C141.471 100.74 137.219 97.938 135.705 102.85C134.147 102.828 132.416 103.628 131.226 101.887C128.056 99.1713 125.276 99.8096 122.755 102.85C121.998 102.85 121.251 102.85 120.494 102.85Z" fill="#F7BA8B"/>
<path d="M56.8607 120.483C53.8424 124.4 49.6558 127.223 47.0161 132.503C44.2142 122.474 46.8214 115.226 53.4097 109.113C54.9351 107.696 56.8607 106.43 56.9257 103.964C60.7553 105.749 58.332 108.551 57.7587 110.747C57.1528 113.062 55.9196 115.301 54.5997 117.335C52.4036 120.689 55.119 120.159 56.8607 120.483Z" fill="url(#paint8_linear_178_2148)"/>
<path d="M34.1318 103.953C34.7268 108.086 38.3617 110.13 40.8499 112.608C46.5295 118.276 44.7662 124.767 44.8527 132.903C41.6613 127.396 37.1825 125.027 35.2893 120.483C40.4497 118.644 36.2089 116.08 35.311 114.609C33.1581 111.082 32.0979 107.783 34.1318 103.953Z" fill="url(#paint9_linear_178_2148)"/>
<path d="M404.399 134.536C403.382 134.471 402.354 134.407 401.337 134.342C400.84 126.79 401.716 119.174 400.245 111.677C401.391 111.245 402.246 111.84 403.09 112.489C406.649 117.205 408.423 122.95 411.809 127.775C412.069 128.824 412.091 129.884 411.874 130.945C411.625 132.016 411.063 132.903 410.208 133.606C409.559 134.039 408.824 134.288 408.066 134.45C406.844 134.645 405.632 135.088 404.399 134.536Z" fill="#3C3C48"/>
<path d="M414.092 291.326C420.583 290.601 427.063 289.887 433.554 289.162C433.489 291.618 433.424 294.063 433.37 296.519C427.366 297.243 421.362 297.958 415.358 298.682C413.843 297.644 413.757 295.924 413.302 294.377C413.118 293.252 413.248 292.191 414.092 291.326Z" fill="#F6927E"/>
<path d="M216.528 246.949C211.173 246.949 205.829 246.949 200.474 246.949C200.117 244.342 199.76 241.735 199.392 239.117C205.18 236.899 210.924 236.38 216.626 239.42C216.593 241.93 216.561 244.439 216.528 246.949Z" fill="#E1E3E6"/>
<path d="M216.625 239.42C210.881 239.322 205.136 239.214 199.392 239.117C199.327 237.029 199.273 234.941 199.208 232.842C205.396 230.138 211.595 230.138 217.783 232.842C217.145 234.995 218.713 237.537 216.625 239.42Z" fill="url(#paint10_linear_178_2148)"/>
<path d="M55.7898 103.174C52.5875 106.214 50.8025 110.563 46.0425 113.668C46.0425 105.727 46.0425 98.5006 46.0425 91.274C49.764 90.4734 50.1751 93.1131 50.3373 95.6554C50.5213 98.5114 50.3806 101.389 50.3806 104.537C52.3495 104.278 53.7451 102.157 55.7898 103.174Z" fill="url(#paint11_linear_178_2148)"/>
<path d="M45.0148 91.2848C45.0148 98.4465 45.0148 105.608 45.0148 114.122C41.25 109.892 38.2642 106.539 35.2783 103.185C37.2256 102.374 38.5887 103.812 40.6766 104.894C40.6766 101.551 40.536 98.598 40.7199 95.6662C40.8822 93.1239 41.2933 90.4734 45.0148 91.2848Z" fill="url(#paint12_linear_178_2148)"/>
<path d="M37.4311 135.261C43.1864 137.295 48.9526 137.295 54.7079 135.261C55.6058 135.315 56.4929 135.434 57.3908 135.423C58.9054 135.402 60.0954 135.359 60.1603 137.565C60.2469 140.302 58.3753 139.632 56.9365 139.87C49.3312 139.913 41.7151 140.908 34.1099 139.87C32.671 139.621 30.8427 140.292 30.886 137.555C30.9401 134.785 32.7468 135.542 34.1964 135.423C35.2782 135.359 36.3601 135.326 37.4311 135.261Z" fill="#3C3C48"/>
<path d="M34.1211 139.881C41.7264 137.933 49.3424 137.933 56.9477 139.881C56.9152 140.205 56.8287 140.519 56.6881 140.811C49.2559 141.893 41.8129 142.975 34.3807 144.056C34.2942 142.672 34.2076 141.276 34.1211 139.881Z" fill="#1D1413"/>
<path d="M356.96 91.1874C356.279 87.3361 358.713 85.0102 361.948 84.9453C364.749 84.8912 367.714 86.5355 367.724 90.4734C367.735 94.6493 364.685 96.153 361.601 96.2828C359.156 96.391 356.333 94.9738 356.96 91.1874Z" fill="url(#paint13_linear_178_2148)"/>
<path d="M45.9559 76.745C47.1135 80.91 43.8247 81.9594 41.2067 81.9702C37.7989 81.981 35.1917 79.7525 35.3432 75.8687C35.473 72.3419 38.448 70.8274 41.1418 70.7733C44.4197 70.7192 46.908 72.6665 45.9559 76.745Z" fill="url(#paint14_linear_178_2148)"/>
<path d="M348.003 101.865C351.4 101.768 353.704 103.012 353.628 106.712C353.553 110.217 351.54 112.543 348.1 112.608C344.855 112.673 343.048 110.509 342.886 107.177C342.713 103.564 344.617 101.995 348.003 101.865Z" fill="url(#paint15_linear_178_2148)"/>
<path d="M127.18 126.79C127.494 126.79 127.818 126.801 128.132 126.801C132.232 129.019 136.668 127.007 140.876 127.84C140.984 128.575 141.092 129.322 141.201 130.058C140.043 134.623 136.376 134.233 132.892 134.396C129.657 134.547 127.451 133.498 126.845 130.058C126.964 128.965 127.072 127.872 127.18 126.79Z" fill="#F7BA8B"/>
<path d="M27.0565 65.0829C23.2485 65.9483 21.5824 63.3844 21.431 60.4527C21.2579 57.1098 23.7136 54.6324 26.9699 54.5134C30.3453 54.3944 32.2385 56.3633 32.1627 60.3228C32.0762 64.1092 30.8537 65.732 27.0565 65.0829Z" fill="url(#paint16_linear_178_2148)"/>
<path d="M199.251 228.32C203.406 223.733 213.607 223.733 217.762 228.32C217.675 228.818 217.945 229.521 217.307 229.759C211.444 231.923 205.559 231.923 199.695 229.759C199.068 229.521 199.338 228.818 199.251 228.32Z" fill="url(#paint17_linear_178_2148)"/>
<path d="M199.251 228.32C205.418 230.235 211.584 230.235 217.761 228.32C219.33 229.813 219.308 231.328 217.794 232.842C211.606 232.842 205.407 232.842 199.219 232.842C197.693 231.328 197.683 229.813 199.251 228.32Z" fill="url(#paint18_linear_178_2148)"/>
<path d="M47.2866 60.7015C44.4955 59.6737 45.177 55.552 41.5853 56.2443C40.6982 56.4174 40.5468 54.2538 40.9038 54.1672C43.63 53.4749 45.415 52.0685 45.7287 49.1475C46.3995 49.2341 47.1459 49.18 47.6977 49.4829C48.033 49.6668 48.3359 50.5539 48.1737 50.8785C46.1939 54.7298 54.8269 51.8088 51.3759 55.5952C49.9262 57.1639 47.7842 58.3323 47.2866 60.7015Z" fill="url(#paint19_linear_178_2148)"/>
<path d="M357.08 180.752C357.036 177.269 356.982 173.785 356.939 170.291C358.053 168.463 359.882 169.155 361.472 168.993C362.024 168.993 362.586 168.993 363.138 168.993C363.484 174.131 363.419 179.064 357.08 180.752Z" fill="#F6927E"/>
<path d="M13.6636 79.3198C15.7299 78.0324 18.7698 78.1622 18.1964 74.6463C18.1207 74.2027 18.997 73.2074 19.4838 73.1641C20.3709 73.0992 21.2472 73.9863 21.1174 74.7977C20.5548 78.3353 23.4 78.0216 25.7476 78.6598C24.4711 80.8992 20.1221 79.8931 20.9335 83.8418C21.0957 84.6207 18.2289 85.0426 18.283 83.6038C18.4128 80.1203 15.9246 80.3367 13.6636 79.3198Z" fill="url(#paint20_linear_178_2148)"/>
<path d="M341.804 78.8978C343.21 79.6118 343.427 79.6443 343.492 79.7525C344.26 81.2887 343.611 83.4199 346.661 83.7877C348.944 84.0582 349.085 86.4923 346.315 86.6437C343.091 86.8168 344.584 89.6837 342.972 91.0792C341.339 89.608 341.782 85.6052 338.072 86.4815C337.79 86.5464 336.849 85.4321 336.946 85.0535C337.087 84.5017 337.931 83.7012 338.407 83.7336C341.544 83.9716 342.312 82.0568 341.804 78.8978Z" fill="url(#paint21_linear_178_2148)"/>
<path d="M363.105 109.925C365.431 108.324 368.471 108.443 367.898 104.937C367.822 104.494 368.699 103.499 369.185 103.455C370.072 103.39 370.927 104.267 370.819 105.089C370.375 108.486 372.777 108.648 375.644 108.605C374.162 111.201 369.824 110.184 370.624 114.133C370.786 114.912 367.974 115.377 367.963 113.884C367.93 110.595 366.113 110.087 363.105 109.925Z" fill="url(#paint22_linear_178_2148)"/>
<path d="M33.0392 121.262C35.1055 124.995 38.0264 128.045 41.2503 131.258C39.9196 133.011 37.1934 131.334 36.2739 133.39C33.8289 129.711 30.3022 126.325 33.0392 121.262Z" fill="url(#paint23_linear_178_2148)"/>
<path d="M54.7837 133.39C50.1859 131.951 50.0994 130.014 53.7776 127.061C55.6167 125.59 57.8561 124.097 58.0183 121.251C60.7554 126.325 57.8777 129.884 54.7837 133.39Z" fill="url(#paint24_linear_178_2148)"/>
<path d="M243 99.7663C241.259 99.55 238.554 100.253 238.695 97.3755C238.803 95.0604 241.269 95.4066 242.979 95.4498C244.818 95.4931 247.501 94.9306 247.371 97.7866C247.263 100.123 244.796 99.6473 243 99.7663Z" fill="#D2D2D4"/>
<path d="M365.529 144.619C365.399 146.015 365.41 147.378 363.819 146.858C361.245 146.004 359.059 144.478 358.205 141.763C357.815 140.519 358.789 139.653 360.033 139.989C362.64 140.692 364.923 141.925 365.529 144.619Z" fill="#D2D2D4"/>
<path d="M231.566 99.7663C229.683 99.6473 226.914 100.113 226.968 98.057C227.033 95.6446 230.019 95.7636 231.988 95.4931C233.578 95.2767 235.644 95.4823 235.547 97.6027C235.428 100.058 233.124 99.6473 231.566 99.7663Z" fill="#D2D2D4"/>
<path d="M377.602 156.238C379.571 157.266 381.594 158.942 382.567 161.496C383.022 162.696 382.059 163.67 380.815 163.443C377.678 162.869 376.487 160.208 375.46 157.655C375.135 156.833 375.99 156.043 377.602 156.238Z" fill="#D2D2D4"/>
<path d="M313.417 114.966C311.004 114.046 308.235 113.549 307.802 110.639C307.597 109.265 309.425 109.341 310.29 109.676C312.627 110.585 316.078 110.368 316.381 113.787C316.543 115.388 314.423 114.566 313.417 114.966Z" fill="#D2D2D4"/>
<path d="M291.553 106.971C289.476 105.846 286.101 106.831 285.365 103.693C284.997 102.125 286.89 101.692 288.016 102.049C290.201 102.731 293.36 102.179 293.89 105.446C294.052 106.474 292.83 107.188 291.553 106.971Z" fill="#D2D2D4"/>
<path d="M156.032 117.941C155.102 120.721 152.257 121.176 149.888 122.063C148.806 122.474 147.605 121.327 147.929 120.224C148.741 117.443 151.694 117.314 153.804 116.232C154.821 115.723 155.892 116.264 156.032 117.941Z" fill="#D2D2D4"/>
<path d="M166.851 112.748C165.174 115.388 162.588 116.113 160.1 116.859C159.148 117.151 158.272 116.308 158.51 115.301C159.245 112.142 162.274 111.883 164.633 110.952C165.801 110.487 166.299 111.84 166.851 112.748Z" fill="#D2D2D4"/>
<path d="M356.82 137.587C356.658 139.156 355.944 139.978 355.035 139.545C352.677 138.442 350.232 137.187 349.485 134.396C349.193 133.303 349.745 132.167 351.281 132.719C353.91 133.66 355.749 135.478 356.82 137.587Z" fill="#D2D2D4"/>
<path d="M337.314 123.588C337.228 125.503 336.124 125.871 335.064 125.6C332.652 124.995 330.369 123.859 329.255 121.533C328.768 120.516 329.969 119.337 331.094 119.575C333.744 120.126 335.757 121.803 337.314 123.588Z" fill="#D2D2D4"/>
<path d="M206.067 102.319C204.704 102.525 202.94 102.092 203.113 100.881C203.643 97.1916 207.289 99.366 209.291 98.1328C210.578 97.343 212.093 98.3275 211.833 99.7663C211.205 103.142 207.917 101.238 206.067 102.319Z" fill="#D2D2D4"/>
<path d="M194.275 104.948C192.511 105.056 191.7 104.429 192.014 103.088C192.76 99.9502 195.854 101.065 197.823 100.188C199.111 99.6149 200.495 100.956 200.149 102.298C199.273 105.651 195.541 103.033 194.275 104.948Z" fill="#D2D2D4"/>
<path d="M171.946 111.915C170.291 112.326 169.35 111.612 169.49 110.801C170.02 107.739 173.039 107.62 175.181 106.668C176.501 106.073 177.82 107.447 177.507 108.767C176.76 111.948 173.277 110.606 171.946 111.915Z" fill="#D2D2D4"/>
<path d="M218.854 100.816C216.799 100.827 214.97 100.589 215.176 99.2903C215.587 96.7588 217.87 96.391 220.12 96.5208C221.689 96.6074 224.058 96.6831 223.495 98.6412C222.879 100.783 219.99 100.232 218.854 100.816Z" fill="#D2D2D4"/>
<path d="M186.334 103.023C187.903 103.271 189.363 103.553 188.844 104.894C187.773 107.631 184.895 107.675 182.537 108.226C181.498 108.475 180.319 107.729 180.622 106.333C181.369 102.839 185.079 104.862 186.334 103.023Z" fill="#D2D2D4"/>
<path d="M304.978 108.886C304.481 110.769 303.031 110.855 301.949 110.347C300.153 109.514 297.233 110.119 296.897 107.263C296.724 105.803 298.206 104.959 299.504 105.381C301.614 106.063 304.048 106.485 304.978 108.886Z" fill="#D2D2D4"/>
<path d="M326.464 117.963C326.615 119.423 325.988 120.332 325.068 120.094C322.526 119.434 319.767 118.839 318.75 115.886C318.372 114.793 319.388 113.927 320.146 114.155C322.634 114.923 325.317 115.561 326.464 117.963Z" fill="#D2D2D4"/>
<path d="M270.955 100.026C270.955 101.411 269.927 101.93 268.9 101.789C266.574 101.476 263.728 101.681 262.365 99.5283C261.457 98.1003 263.296 97.646 264.561 97.6135C266.985 97.5702 269.57 97.1483 270.955 100.026Z" fill="#D2D2D4"/>
<path d="M277.543 99.7447C279.447 99.8421 281.719 99.431 282.184 102.103C282.498 103.877 280.864 104.429 279.804 103.91C277.9 102.99 274.59 104.191 274.19 101.216C273.93 99.3552 276.245 99.9502 277.543 99.7447Z" fill="#D2D2D4"/>
<path d="M341.977 125.903C343.395 127.277 346.305 127.526 346.975 130.296C347.3 131.615 346.229 132.351 345.039 131.962C342.691 131.204 340.268 130.285 339.814 127.375C339.662 126.401 340.43 125.806 341.977 125.903Z" fill="#D2D2D4"/>
<path d="M327.892 167.911C327.794 171.145 327.697 174.369 327.589 177.604C323.673 173.882 323.153 169.923 326.756 165.682L326.669 165.639C327.232 166.31 328.422 166.645 327.892 167.911Z" fill="#F28C77"/>
<path d="M369.564 147.919C371.306 149.282 373.329 150.558 373.967 152.917C374.313 154.204 373.307 155.124 372.117 154.658C369.932 153.804 368.06 152.387 367.866 149.747C367.79 148.816 368.407 148.124 369.564 147.919Z" fill="#D2D2D4"/>
<path d="M129.116 104.072C131.669 105.911 130.988 107.934 129.246 109.773C128.067 111.017 126.704 110.65 125.503 109.546C124.27 108.41 123.069 107.08 124.28 105.457C125.438 103.899 126.769 101.627 129.181 104.126C128.911 104.353 128.673 104.624 128.445 104.894C128.651 104.613 128.878 104.342 129.116 104.072Z" fill="#F7BA8B"/>
<path d="M255.42 99.788C253.343 99.6365 250.671 100.123 250.714 97.938C250.768 95.4066 253.516 96.7156 255.052 96.5858C256.686 96.4451 259.282 96.0989 259.098 98.5763C258.936 100.816 256.361 99.0199 255.42 99.788Z" fill="#D2D2D4"/>
<path d="M135.759 109.373C135.532 112.683 134.839 115.042 131.291 111.558C131.67 110.79 132.102 110.033 132.416 109.243C132.957 107.858 131.464 105.1 134.418 105.424C136.592 105.651 135.283 108.032 135.759 109.373Z" fill="#F69C82"/>
<path d="M139.837 103.217C141.914 100.556 142.845 103.217 143.689 104.288C144.716 105.597 144.673 107.35 143.342 108.616C142.023 109.871 140.27 109.936 139.015 108.8C137.414 107.35 137.079 105.522 139.123 103.942C139.318 104.245 139.697 104.624 139.902 104.505C140.53 104.126 140.064 103.65 139.837 103.217Z" fill="#F7BA8B"/>
<path d="M140.876 127.84C136.516 128.922 132.113 130.49 128.132 126.801C132.427 126.942 136.7 126.79 140.887 125.741C141.211 125.903 141.363 126.12 141.352 126.39C141.341 126.682 141.287 126.823 141.2 126.823C141.103 127.158 140.995 127.504 140.876 127.84Z" fill="#F6927E"/>
<path d="M147.551 113.884C147.929 112.391 148.297 110.898 148.676 109.395C149.833 107.794 149.098 106.43 148.113 105.1C147.919 104.364 148.07 103.715 148.557 103.142C150.266 102.925 151.867 102.763 151.835 105.294C151.792 108.875 152.257 112.662 147.551 113.884Z" fill="#F6927E"/>
<path d="M402.159 112.802C401.521 112.424 400.883 112.056 400.244 111.677C400.147 110.942 400.05 110.206 399.941 109.47C400.006 108.064 399.974 106.636 400.169 105.24C400.32 104.148 401.067 103.044 402.181 103.228C404.031 103.52 403.09 105.111 403.133 106.214C401.305 108.226 404.096 109.481 403.944 111.223C403.749 112.207 403.598 113.246 402.159 112.802Z" fill="#F6927E"/>
<path d="M192.749 161.29C195.227 164.189 193.269 167.348 193.388 170.421C190.662 167.716 192.23 164.352 191.808 161.312C192.133 161.377 192.447 161.366 192.749 161.29Z" fill="url(#paint25_linear_178_2148)"/>
<path d="M135.705 102.86C136.181 95.0496 141.168 99.9178 144.381 99.7663C141.903 101.973 137.89 99.8313 135.705 102.86Z" fill="#3C3C48"/>
<path d="M465.857 112.683C467.026 114.382 469.892 114.739 469.957 117.66C467.145 118.017 465.76 115.972 463.942 114.858C464.029 113.657 464.884 113.127 465.857 112.683Z" fill="url(#paint26_linear_178_2148)"/>
<path d="M141.211 126.823C141.103 126.466 140.995 126.098 140.897 125.741C142.347 124.27 143.808 122.788 145.257 121.316C146.923 125.373 143.894 125.968 141.211 126.823Z" fill="#D2D2D4"/>
<path d="M122.755 102.86C122.69 100.188 124.421 99.3877 126.531 99.8529C128.143 100.21 131.161 97.9164 131.226 101.898C128.186 100.318 125.427 101.227 122.755 102.86Z" fill="#3C3C48"/>
<path d="M139.837 103.217C141.871 103.477 142.358 104.818 141.914 106.528C141.828 106.896 140.779 107.296 140.248 107.209C138.042 106.842 139.08 105.186 139.102 103.942C139.48 103.823 139.718 103.585 139.837 103.217Z" fill="#3C3C48"/>
<path d="M121.598 109.384C119.391 108.8 119.358 107.101 119.51 105.305C123.221 105.111 121.024 107.956 121.598 109.384Z" fill="#3C3C48"/>
<path d="M148.568 103.152C148.644 103.812 148.708 104.472 148.784 105.143C149.249 105.933 149.249 106.658 148.514 107.285C147.875 107.274 147.226 107.274 146.588 107.263C146.296 105.435 146.231 103.715 148.568 103.152Z" fill="#3C3C48"/>
<path d="M235.85 337.671C235.85 323.954 235.85 310.236 235.85 296.53C235.969 291.488 236.088 286.436 236.207 281.395C239.604 278.549 243.217 277.121 247.458 279.621C249.145 283.126 248.096 286.89 248.507 290.525C248.529 319.594 248.648 348.674 248.475 377.732C248.226 379.949 248.302 382.124 249.578 384.082C250.995 386.451 254.046 387.014 255.463 389.383C257.962 389.469 260.396 389.826 262.333 391.611C264.583 393.689 267.212 396.101 265.979 399.26C265.027 401.694 261.879 400.288 259.747 400.309C246.668 400.428 233.589 400.266 220.52 400.428C216.052 400.483 215.738 398.827 217.545 395.398C219.222 392.228 221.57 390.129 225.183 389.556C233.751 388.204 236.055 385.564 236.034 377.115C236.023 374.064 235.925 371.024 235.861 367.974C234.011 365.799 234.919 363.625 235.861 361.45C235.85 353.52 235.85 345.59 235.85 337.671Z" fill="#3C3C48"/>
<path d="M391.59 341.999C389.556 354.624 387.501 367.26 385.499 379.895C385.164 382.005 385.088 384.158 384.883 386.289C384.547 386.603 384.212 386.906 383.887 387.219C379.463 390.357 375.871 388.636 372.55 385.294C370.592 378.922 373.177 372.647 373.015 366.318C373.87 363.949 373.794 361.472 373.772 359.005C374.086 353.737 374.951 348.511 375.049 343.221C376.055 339.327 375.741 335.302 376.152 331.354C377.072 327.848 376.866 324.203 377.429 320.654C378.132 318.642 378.121 316.533 378.154 314.445C378.922 309.328 379.441 304.178 380.177 299.05C380.458 297.125 380.382 295.069 382.297 293.814C388.885 293.1 394.803 296.173 401.078 297.211C402.646 299.137 401.986 300.673 400.234 302.014C398.081 311.004 395.917 320.005 393.764 328.995C395.614 333.744 394.835 338.083 391.59 341.999Z" fill="#F7BA8B"/>
<path d="M282.574 383.13C272.87 383.097 263.166 383.076 253.451 383.043C252.737 382.448 252.65 381.68 252.823 380.836C254.922 377.331 254.922 373.285 255.723 369.434C263.544 362.543 269.732 353.888 278.625 348.144C283.58 353.607 286.825 359.881 287.788 367.27C287.031 371.068 286.447 374.908 285.495 378.662C285.051 380.404 285.138 382.697 282.574 383.13Z" fill="white"/>
<path d="M112.088 260.851C116.481 260.148 117.162 262.279 117.443 266.325C118.915 287.788 119.65 309.284 120.97 330.737C121.976 347.159 120.137 363.354 120.581 379.657C120.494 380.393 120.072 380.793 119.347 380.891C116.134 380.934 117.4 378.467 117.368 377.018C117.195 369.661 117.195 362.305 117.141 354.937C114.663 350.74 116.015 346.142 115.81 341.718C115.626 337.617 115.226 333.788 111.461 331.267C109.719 327.535 110.325 323.662 110.714 319.789C111.093 318.144 112.088 316.868 113.213 315.689C114.587 314.499 114.739 312.908 114.577 311.264C113.127 296.497 112.175 281.687 111.115 266.887C110.952 264.789 110.13 262.592 112.088 260.851Z" fill="#3C3C48"/>
<path d="M324.354 384.125C324.473 369.704 324.592 355.294 324.711 340.874C327.978 338.634 331.299 337.239 334.913 340.214C335.821 341.847 335.919 343.654 335.919 345.461C335.908 358.226 336.135 371.003 335.811 383.768C335.821 386.862 336.416 390.043 334.437 392.834C333.917 395.755 334.804 399.39 329.741 399.401C325.879 399.412 324.203 398.276 324.484 394.23C324.7 390.876 324.408 387.49 324.354 384.125Z" fill="url(#paint27_linear_178_2148)"/>
<path d="M374.161 365.918C375.167 372.398 372.593 378.705 373.22 385.164C372.106 386.646 370.818 387.511 368.958 386.343C368.839 385.964 368.72 385.586 368.601 385.207C364.858 382.156 365.788 377.396 364.338 373.512C363.181 368.655 362.045 363.787 361.017 358.908C360.552 356.517 359.914 354.159 359.254 351.811C359.081 351.292 358.972 350.751 358.875 350.21C358.551 345.288 355.727 340.776 356.463 335.67C359.265 333.387 362.553 332.024 365.918 330.834C368.666 332.262 367.843 335.27 368.871 337.466C369.639 340.419 370.04 343.448 370.84 346.391C371.76 350.167 372.528 353.964 373.285 357.772C373.599 360.487 374.41 363.149 374.161 365.918Z" fill="url(#paint28_linear_178_2148)"/>
<path d="M96.9212 355.024C94.1409 354.786 93.5351 352.979 93.5459 350.545C93.5892 341.274 93.6217 332.003 93.5243 322.731C93.5027 320.222 94.4438 319.075 96.9212 319.194C102.038 315.937 104.624 316.002 109.168 319.475C110.747 323.078 108.875 327.34 111.31 330.791C112.164 332.803 111.634 334.675 110.596 336.427C109.514 338.256 108.356 340.03 106.279 337.304C105.392 336.135 104.353 334.913 102.774 336.298C101.541 337.369 101.335 338.721 102.265 340.149C103.51 342.075 103.65 344.173 103.153 346.359C102.471 348.122 101.368 349.842 101.216 351.649C100.956 354.613 99.2472 355.056 96.9212 355.024Z" fill="url(#paint29_linear_178_2148)"/>
<path d="M368.958 386.343C370.375 385.954 371.792 385.553 373.22 385.164C376.531 387.154 380.047 388.041 383.887 387.219C387.533 389.188 385.964 392.639 385.889 395.43C385.834 397.453 384.785 399.487 384.947 401.673C385.077 403.458 383.941 403.771 382.513 403.501C374.67 401.997 366.664 402.3 358.756 401.478C355.943 401.186 352.309 402.419 351.595 398.135C350.88 393.872 354.332 393.451 357.252 392.661C358.259 392.39 359.221 391.925 360.195 391.547C362.196 390.887 364.036 391.2 365.712 392.466C367.086 393.505 368.536 394.186 369.942 392.65C371.241 391.233 370.018 390.043 369.347 388.842C369.088 388.377 368.925 387.868 368.915 387.327C368.785 386.992 368.806 386.668 368.958 386.343Z" fill="url(#paint30_linear_178_2148)"/>
<path d="M305.097 386.137C307.023 388.355 308.191 398.146 306.796 400.201C305.974 401.413 304.73 401.543 303.453 401.445C294.636 400.764 285.83 402.787 276.991 401.499C275.196 401.24 273.108 401.553 272.87 399.173C272.664 397.161 273.573 395.365 275.715 394.641C279.642 393.299 283.385 391.038 287.431 395.008C290.265 397.8 291.282 393.039 293.619 392.455C295.566 391.968 293.262 390.292 292.516 389.35C291.639 388.236 290.644 387.144 289.011 387.187C289.346 384.504 291.661 384.244 293.543 383.465C297.341 384.536 301.289 385.012 305.097 386.137Z" fill="url(#paint31_linear_178_2148)"/>
<path d="M129.181 383.974C130.187 384.482 130.966 385.521 132.286 385.304C132.643 385.986 133 386.657 133.368 387.338C132.957 388.398 131.962 388.896 131.183 389.61C130.144 390.562 129.755 391.666 130.599 392.91C131.388 394.078 132.578 394.424 133.877 393.97C135.878 393.256 137.825 392.325 140.043 392.942C141.255 393.959 142.434 395.019 143.689 395.982C145.344 397.237 145.809 398.946 145.192 400.753C144.554 402.603 142.791 402.516 141.136 402.57C134.526 402.776 127.959 402.343 121.414 401.478C119.78 401.261 118.406 400.623 118.515 398.957C118.796 394.392 117.173 389.653 119.629 385.261C122.593 383.292 125.698 382.21 129.181 383.974Z" fill="url(#paint32_linear_178_2148)"/>
<path d="M165.834 384.114C163.313 377.288 160.792 370.462 158.272 363.635C160.143 356.874 155.513 352.795 151.943 348.284C149.466 342.258 146.966 336.233 146.523 329.612C148.578 326.777 146.188 323.445 147.518 320.524C148.254 320.167 149 319.8 149.736 319.443C150.796 322.645 151.846 325.847 152.906 329.049C154.972 331.224 154.161 333.993 154.464 336.536C154.691 338.461 155.134 340.311 156.119 341.999C160.825 354.851 165.531 367.703 170.237 380.555C170.723 381.897 171.135 383.271 172.335 384.19C171.318 385.845 175.17 388.604 171.416 389.426C167.359 390.324 167.381 386.235 165.834 384.114Z" fill="#D2D2D4"/>
<path d="M103.142 346.369C101.962 343.578 101.757 340.311 99.2471 338.147C101.952 337.671 100.405 332.868 103.953 333.387C106.668 333.788 107.469 336.038 108.01 338.548C109.405 336.103 110.985 333.961 110.996 331.159C111.234 330.64 111.547 330.596 111.937 331.007C117.909 330.391 116.848 335.389 117.13 338.364C117.638 343.838 117.173 349.399 117.119 354.927C113.062 352.979 108.865 350.718 106.971 346.672C105.294 343.091 104.375 346.359 103.142 346.369Z" fill="white"/>
<path d="M199.327 386.311C202.648 377.202 207.82 368.926 211.065 359.752C215.663 346.726 220.023 333.636 223.03 320.135C223.365 318.61 223.127 316.23 225.269 316.738C227.195 317.192 226.308 319.464 225.951 320.936C221.678 338.375 216.701 355.587 209.183 371.944C208.501 373.426 207.809 374.886 207.982 376.574C205.201 379.928 203.265 384.006 199.327 386.311Z" fill="#C4C4C4"/>
<path d="M351.551 371.208C349.864 376.314 345.655 379.722 342.918 384.114C340.052 386.981 339.013 391.644 334.415 392.812C334.404 389.924 334.394 387.024 334.383 384.136C341.826 374.778 348.49 364.847 355.576 355.23C356.744 353.65 357.383 351.151 360.217 351.659C361.602 353.628 361.699 355.965 362.121 358.205C361.028 359.643 359.525 360.585 357.999 361.461C354.224 363.646 352.179 366.946 351.551 371.208Z" fill="#D2D2D4"/>
<path d="M235.85 361.439C235.85 363.614 235.85 365.788 235.85 367.963C228.061 375.633 220.207 383.216 212.536 391.006C210.178 393.407 207.787 394.522 203.968 393.397C215.295 383.065 225.875 372.56 235.85 361.439Z" fill="#D2D2D4"/>
<path d="M293.273 384.049C291.845 385.088 290.417 386.137 289 387.176C285.289 386.192 285.257 391.828 281.622 390.822C281.914 388.507 282.25 385.813 282.574 383.13C285.268 378.035 284.37 371.976 286.934 366.848C289.833 367.281 290.223 369.856 291.045 371.911C292.311 375.081 292.949 378.456 293.912 381.734C294.02 382.589 293.847 383.379 293.273 384.049Z" fill="url(#paint33_linear_178_2148)"/>
<path d="M140.032 392.931C138.474 394.706 135.943 393.981 133.995 395.571C132.091 397.118 129.928 395.16 128.716 392.953C127.461 390.681 128.153 389.275 130.458 388.442C131.431 388.085 132.394 387.706 133.357 387.338C136.689 387.879 138.29 390.497 140.032 392.931Z" fill="white"/>
<path d="M368.915 387.327C370.527 388.777 373.264 389.794 372.593 392.304C372.388 393.083 370.732 395.495 368.32 395.214C367.628 395.138 366.481 395.96 366.2 394.965C365.28 391.741 362.067 392.866 360.185 391.536C362.5 388.885 365.193 387.046 368.915 387.327Z" fill="white"/>
<path d="M293.273 384.05C293.262 383.422 293.241 382.795 293.23 382.167C296.919 378.813 300.879 378.316 305.119 381.085C305.163 382.102 305.206 383.119 305.249 384.125C305.195 384.796 305.141 385.467 305.087 386.137C300.738 387.836 297.016 385.899 293.273 384.05Z" fill="#F7BA8B"/>
<path d="M129.181 383.974C125.925 383.909 122.928 385.802 119.607 385.261C119.52 383.801 119.434 382.34 119.336 380.88C119.748 380.469 120.159 380.058 120.57 379.646C121.273 379.646 121.965 379.646 122.668 379.646C125.286 377.991 127.84 377.764 130.274 379.993C129.906 381.323 129.549 382.643 129.181 383.974Z" fill="#F7BA8B"/>
<path d="M253.321 381.085C253.365 381.734 253.408 382.394 253.451 383.043C253.343 383.346 253.289 383.649 253.289 383.974C252.153 385.683 250.433 385.326 248.799 385.229C247.361 383.747 246.56 382.027 246.863 379.906C249.362 378.402 251.439 379.225 253.321 381.085Z" fill="#F7BA8B"/>
<path d="M248.799 385.229C249.881 383.303 251.85 384.601 253.289 383.974C254.901 385.413 255.572 387.241 255.453 389.383C253.083 388.247 250.325 387.739 248.799 385.229Z" fill="url(#paint34_linear_178_2148)"/>
<path d="M89.3048 199.165C89.2832 203.654 89.1101 208.166 89.2832 212.644C89.4346 216.42 87.8227 217.697 84.1661 217.664C69.4532 217.545 54.7295 217.556 40.0167 217.653C36.5548 217.675 35.2025 216.312 35.235 212.85C35.3431 200.982 35.354 189.115 35.2241 177.247C35.1809 173.547 36.5332 172.097 40.2763 172.152C49.7856 172.281 59.2949 172.162 68.815 172.141C75.6413 181.142 82.4785 190.153 89.3048 199.165Z" fill="#3BB3C1"/>
<path d="M105.251 214.375C102.211 214.754 99.4741 213.943 96.9751 212.223C95.428 208.079 92.2475 204.725 91.2197 200.333C94.2164 198.527 97.2131 196.731 100.21 194.924C101.995 194.178 103.791 194.816 105.586 194.902C108.01 195.541 110.173 192.587 112.705 194.383C112.705 194.729 112.846 195.27 112.683 195.389C108.453 198.364 107.912 201.361 111.829 205.299C114.695 208.176 112.716 210.502 110.011 212.58C108.518 213.748 106.279 212.374 105.251 214.375Z" fill="#F7BA8B"/>
<path d="M105.587 194.902C103.801 196.915 102.006 195.919 100.21 194.924C99.009 192.371 97.819 189.829 96.6181 187.276C94.1948 179.887 95.2226 172.281 95.2118 164.752C95.2118 163.097 95.6878 161.55 97.0076 160.381C99.3444 159.808 101.692 159.235 103.985 158.661C106.593 170.767 104.851 182.883 105.587 194.902Z" fill="#FEFEFE"/>
<path d="M97.0184 160.381C96.8886 169.35 96.7588 178.307 96.629 187.276C93.4268 181.109 89.9865 175.051 87.0981 168.744C85.2265 164.654 82.4029 162.285 78.1621 161.366C76.8964 161.095 75.3061 160.706 75.7821 159.17C76.323 157.439 77.9458 158.304 78.887 158.921C84.6856 162.718 90.7871 162.155 97.0184 160.381Z" fill="#3BB3C1"/>
<path d="M142.153 214.332C145.679 210.373 146.599 204.877 150.169 199.262C149.033 212.06 136.083 233.967 122.896 231.609C130.35 229.023 136.516 224.934 139.935 217.642C139.946 216.052 140.551 214.862 142.153 214.332Z" fill="url(#paint35_linear_178_2148)"/>
<path d="M142.152 214.332C141.417 215.436 140.67 216.539 139.935 217.653C136.689 219.244 135.24 223.625 130.415 223.149C134.883 219.016 139.264 214.862 141.795 208.479C143.451 211.097 141.547 212.72 142.152 214.332Z" fill="url(#paint36_linear_178_2148)"/>
<path d="M141.363 146.436C134.569 147.518 130.696 143.516 127.645 138.117C132.145 140.973 135.932 145.052 141.363 146.436Z" fill="url(#paint37_linear_178_2148)"/>
<path d="M62.4867 341.977C69.4969 341.977 76.518 342.139 83.5283 341.912C87.5959 341.782 89.4026 343.005 89.3161 347.408C89.0997 358.94 89.1321 370.473 89.3052 382.005C89.3593 385.91 88.0828 387.501 84.0259 387.457C69.4645 387.306 54.8922 387.327 40.32 387.446C36.6201 387.479 35.1813 386.127 35.2246 382.373C35.3652 370.84 35.3328 359.308 35.2462 347.776C35.2138 343.405 37.0096 341.718 41.4451 341.901C48.4554 342.183 55.4764 341.977 62.4867 341.977Z" fill="#3BB3C1"/>
<path d="M62.2701 285.744C69.4535 285.744 76.6368 285.884 83.8202 285.69C87.6607 285.592 89.37 286.804 89.3051 290.904C89.132 302.599 89.132 314.293 89.3051 325.988C89.37 330.088 87.6607 331.256 83.8202 331.213C69.8105 331.072 55.8008 331.051 41.8019 331.213C36.8471 331.267 35.1487 329.114 35.2244 324.354C35.3975 313.384 35.4516 302.404 35.1919 291.434C35.0838 286.782 36.9445 285.516 41.2502 285.668C48.2496 285.938 55.2599 285.744 62.2701 285.744Z" fill="#3BB3C1"/>
<path d="M62.2594 273.854C55.0652 273.854 47.8711 273.714 40.6877 273.908C36.8148 274.017 35.1596 272.74 35.2245 268.651C35.3976 257.302 35.3543 245.954 35.2461 234.606C35.2029 230.289 37.0095 228.374 41.3693 228.407C55.3898 228.504 69.4211 228.493 83.4416 228.407C87.7906 228.385 89.4242 230.148 89.3268 234.606C89.078 245.77 89.078 256.945 89.3268 268.11C89.435 272.718 87.6608 274.092 83.301 273.919C76.2907 273.66 69.2697 273.854 62.2594 273.854Z" fill="#3BB3C1"/>
<path d="M404.399 134.536C405.437 134.028 406.26 132.86 407.655 133.455C408.477 134.223 408.78 135.24 409.007 136.3C409.873 140.432 412.426 143.072 416.548 143.483C420.908 143.916 423.85 141.33 425.96 137.706C426.76 136.332 426.825 134.59 428.113 133.465C429.194 133.822 430.287 134.19 431.369 134.547C430.222 140.497 426.944 145.182 422.552 149.141C417.64 153.566 411.268 152.668 407.861 146.988C405.589 143.202 404.172 139.069 404.399 134.536Z" fill="#F7BA8B"/>
<path d="M427.355 202.54C417.402 204.52 401.164 195.714 396.783 185.263C406.443 193.864 415.271 201.134 427.355 202.54Z" fill="url(#paint38_linear_178_2148)"/>
<path d="M420.064 205.277C414.633 207.7 406.119 205.223 401.737 199.825C407.796 201.815 413.486 205.082 420.064 205.277Z" fill="url(#paint39_linear_178_2148)"/>
<path d="M412.274 156.854C417.662 154.345 423.136 152.246 427.15 146.166C427.02 152.917 421.07 156.8 412.274 156.854Z" fill="url(#paint40_linear_178_2148)"/>
<path d="M365.583 227.271C371.067 229.456 376.52 231.695 380.652 236.174C378.024 246.419 375.514 256.697 372.679 266.887C372.128 268.856 372.257 270.771 371.879 272.675C369.715 276.656 370.494 279.534 374.843 281.362C377.677 282.563 380.609 283.634 382.978 285.733C384.796 288.654 384.872 291.51 382.708 294.301C380.696 297.784 381.745 301.809 380.89 305.552C380.209 308.538 379.819 311.772 379.408 314.91C377.385 322.19 372.052 326.485 365.885 330.034C363.138 331.743 360.119 332.803 357.058 333.755C354.332 334.621 351.573 335.378 348.738 335.843C343.859 336.957 338.905 337.185 333.928 337.001C330.683 336.99 327.329 337.671 324.43 335.497C317.56 335.767 310.82 334.761 304.135 333.333C300.781 335.172 298.055 333.29 295.242 331.862C292.938 328.519 289.216 325.761 290.612 320.849C297.265 320.752 303.821 321.92 310.398 322.645C320.232 323.748 329.752 322.58 339.175 320.059C345.168 318.447 349.701 314.866 352.655 309.263C363.311 289.054 367.735 267.839 363.311 245.132C363.159 239.084 362.986 233.004 365.583 227.271Z" fill="url(#paint41_linear_178_2148)"/>
<path d="M365.583 227.271C366.275 233.513 364.068 239.593 364.544 245.824C365.94 260.061 362.954 273.692 358.843 287.161C358.378 288.697 357.599 290.19 355.771 290.634C347.743 290.233 339.662 291.51 331.678 289.779C331.375 289.595 330.899 289.368 330.899 289.108C330.813 281.741 331.743 274.622 336.265 268.445C336.363 266.985 336.471 265.535 336.568 264.075C337.336 256.318 337.801 248.496 341.761 241.475C349.723 236.044 357.685 230.614 365.648 225.183C365.626 225.897 365.604 226.589 365.583 227.271Z" fill="url(#paint42_linear_178_2148)"/>
<path d="M327.946 203.557C333.138 202.497 333.355 198.224 333.712 192.349C335.616 196.882 337.52 199.879 340.992 199.035C344.087 198.289 348.381 198.635 349.344 194.005C350.026 194.329 350.696 194.664 351.378 194.989C353.239 201.588 350.945 207.441 348.143 213.207C340.43 219.179 333.366 226.037 324.559 230.516C324.484 221.375 327.535 212.634 327.946 203.557Z" fill="white"/>
<path d="M341.75 241.497C340.344 249.102 339.078 256.74 336.557 264.085C336.849 260.039 335.291 258.233 330.953 258.622C327.059 258.968 323.088 258.601 319.161 258.546C318.307 256.264 318.761 254.176 320.038 252.185C327.805 249.697 334.556 245.132 341.75 241.497Z" fill="white"/>
<path d="M348.154 213.207C349.236 207.138 350.307 201.058 351.389 194.989C355.262 195.941 357.956 199.879 362.424 199.316C363.138 199.976 363.852 200.636 364.566 201.296C357.966 203.719 353.801 209.485 348.154 213.207Z" fill="url(#paint43_linear_178_2148)"/>
<path d="M320.038 252.185C320.254 254.371 320.644 256.588 319.161 258.546C314.823 258.546 310.496 258.546 306.169 258.546C305.022 257.194 305.076 255.831 306.147 254.468C310.626 252.813 315.299 252.283 320.038 252.185Z" fill="url(#paint44_linear_178_2148)"/>
<path d="M306.136 254.468C306.147 255.831 306.158 257.183 306.158 258.546C302.588 258.59 299.018 258.644 295.437 258.687C295.48 257.259 295.513 255.82 295.556 254.392C299.094 254.414 302.61 254.446 306.136 254.468Z" fill="white"/>
<path d="M274.882 250.963C271.669 249.037 271.647 245.857 271.647 242.676C273.703 242.222 275.098 242.503 274.904 245.143C274.763 247.068 274.882 249.026 274.882 250.963Z" fill="#F7BA8B"/>
<path d="M246.646 279.231C243.163 279.956 239.69 280.67 236.207 281.395C236.683 277.197 235.298 275.748 230.657 275.877C215.197 276.288 199.727 276.083 184.257 276.115C182.808 273.205 181.358 270.284 179.908 267.374C222.197 267.374 264.486 267.363 306.774 267.417C308.787 267.417 311.112 266.465 312.789 268.553C311.34 274.179 306.417 275.088 301.917 276.581C300.175 277.186 298.379 277.446 296.551 277.576C289.389 277.716 282.228 277.673 275.077 277.662C268.002 277.533 260.926 277.749 253.851 277.641C251.276 277.587 248.994 278.485 246.646 279.231Z" fill="#1D1413"/>
<path d="M147.507 320.524C147.648 323.359 151.164 326.204 147.486 329.028C144.738 331.332 141.817 332.262 138.507 330.153C137.273 327.903 137.068 325.728 138.918 323.673C139.978 323.218 141.027 322.775 142.087 322.32C144.067 322.234 145.311 319.973 147.507 320.524Z" fill="#E1E3E6"/>
<path d="M247.133 231.641C250.931 232.161 253.17 234.119 253.311 238.241C253.419 241.605 251.71 242.644 248.648 242.503C244.472 242.308 242.579 240.134 242.482 236.023C242.395 232.734 243.91 231.403 247.133 231.641Z" fill="#5D5D6A"/>
<path d="M336.265 268.456C334.513 275.239 332.749 282.033 330.997 288.816C325.891 291.975 320.546 290.817 315.213 289.66C314.055 288.881 313.547 287.637 313.785 286.404C314.899 280.399 313.59 273.8 318.08 268.618C324.138 268.564 330.196 268.51 336.265 268.456Z" fill="white"/>
<path d="M318.069 268.618C316.987 275.347 315.905 282.087 314.823 288.816C310.593 291.813 306.006 290.579 301.462 289.963C299.851 289.303 298.985 288.026 298.585 286.382C298.141 283.98 298.725 281.687 299.31 279.393C299.602 277.641 300.878 276.462 301.852 275.109C306.439 274.493 309.89 271.972 312.789 268.543C314.553 268.564 316.305 268.597 318.069 268.618Z" fill="url(#paint45_linear_178_2148)"/>
<path d="M419.371 347.473C417.716 348.317 418.668 352.763 415.336 350.913C412.685 349.453 414.968 346.997 415.433 345.114C415.877 343.34 417.348 342.118 419.36 341.934C419.36 343.784 419.371 345.623 419.371 347.473Z" fill="#D2D2D4"/>
<path d="M402.159 112.802C403.133 112.316 403.284 111.439 403.241 110.476C402.733 109.73 402.668 109.005 403.414 108.356C403.933 108.27 404.918 108.205 404.918 108.107C405.048 103.282 408.488 104.018 411.549 104.061C412.588 104.072 413.627 103.964 414.979 103.888C412.588 100.318 409.407 102.59 406.757 102.179C411.625 95.915 413.594 95.9583 424.304 102.547C423.341 103.628 421.481 102.255 420.658 104.04C420.907 104.332 421.308 105.046 421.513 105.002C424.196 104.332 426.49 106.192 429.237 106.084C431.336 106.008 429.8 109.092 430.319 110.66C430.471 111.126 429.8 112.705 431.358 111.569C431.758 111.277 432.061 110.833 432.418 110.466C432.937 110.985 433.673 111.277 434.16 110.801C434.419 110.541 433.857 110.779 433.749 110.812C433.24 110.92 432.775 110.877 432.364 110.552C432.71 108.616 431.736 106.03 434.625 105.284C435.772 104.992 437.189 104.829 438.054 105.987C439.601 108.064 439.147 110.152 438.054 112.337C437.481 113.495 436.897 114.468 435.728 115.02C434.722 115.485 433.467 115.139 432.58 116.005C431.953 121.273 428.134 124.432 424.737 127.861C420.269 131.367 416.201 131.367 411.063 127.861C406.551 123.751 405.545 117.573 402.159 112.802Z" fill="#F7BA8B"/>
<path d="M409.678 133.249C410.133 132.546 410.598 131.832 411.052 131.129C415.585 130.393 420.161 130.339 424.726 130.068C424.824 131.669 425.646 132.773 427.074 133.455C425.852 141.741 419.047 146.285 413.108 142.564C409.797 140.486 407.363 137.63 409.678 133.249Z" fill="#F7BA8B"/>
<path d="M409.678 133.249C409.094 138.344 411.615 141.785 416.256 142.737C420.648 143.635 423.385 140.421 425.311 136.732C425.884 135.629 426.49 134.547 427.074 133.455C427.42 133.271 427.766 133.271 428.113 133.455C427.702 139.924 422.844 145.171 417.305 145.138C411.539 145.106 407.731 140.497 407.655 133.455C408.337 133.39 409.008 133.314 409.678 133.249Z" fill="white"/>
<path d="M424.726 130.068C420.323 132.394 415.779 132.924 411.052 131.129C411.052 130.036 411.052 128.943 411.052 127.851C415.606 128.803 420.172 129.776 424.726 127.851C424.726 128.597 424.726 129.333 424.726 130.068Z" fill="#F6927E"/>
<path d="M403.414 108.367C403.36 109.07 403.306 109.784 403.241 110.487C402.581 109.081 399.531 107.729 403.144 106.225C403.231 106.939 403.317 107.653 403.414 108.367Z" fill="#E7765D"/>
<path d="M432.57 116.005C432.602 112.413 434.42 114.555 435.718 115.02C435.09 116.708 434.084 117.151 432.57 116.005Z" fill="white"/>
<path d="M286.663 167.208C286.403 169.101 285.278 170.02 283.407 169.955C281.568 169.891 280.259 169.003 280.507 167.002C280.756 165.001 282.39 164.665 284.099 164.665C285.819 164.644 286.793 165.358 286.663 167.208Z" fill="#45A3DB"/>
<path d="M270.425 167.446C270.09 169.393 268.792 170.096 266.985 169.945C265.092 169.782 264.151 168.646 264.194 166.742C264.237 164.709 265.698 164.633 267.19 164.665C268.997 164.719 270.252 165.444 270.425 167.446Z" fill="#45A3DB"/>
<path d="M275.542 164.698C277.565 164.665 278.084 165.79 278.084 167.467C278.084 169.707 276.743 170.118 274.893 169.988C272.913 169.847 272.719 168.517 272.773 166.959C272.848 165.022 274.049 164.59 275.542 164.698Z" fill="#45A3DB"/>
<path d="M138.918 323.683C138.961 325.825 139.015 327.957 139.058 330.099C140.421 335.638 139.091 341.047 138.323 346.478C138.031 349.82 138.842 353.445 135.824 356.073C135.045 363.278 134.093 370.462 133.573 377.688C133.379 380.382 131.637 379.625 130.274 380.003C127.732 379.884 125.2 379.765 122.658 379.657C122.355 366.913 124.421 354.245 123.794 341.469C122.95 324.116 122.42 306.753 121.533 289.4C121.111 281.2 120.191 273.032 119.434 264.854C119.109 261.402 119.91 259.574 124.01 259.65C127.32 259.704 130.652 258.557 133.974 257.962C135.705 257.649 137.522 256.999 138.907 258.806C141.352 263.555 141.709 268.629 141.611 273.876C141.471 281.189 141.514 288.502 141.46 295.815C141.438 297.936 141.666 300.143 139.999 301.874C140.281 309.176 139.642 316.435 138.918 323.683Z" fill="#3C3C48"/>
<path d="M140.919 260.948C142.996 259.477 144.586 260.148 145.895 262.073C151.229 269.927 156.519 277.814 161.95 285.603C163.54 287.875 163.172 289.465 161.128 291.055C155.913 295.123 150.764 299.277 145.528 303.323C143.71 304.73 141.871 305.552 142.098 301.863C141.687 299.526 143.732 298.985 144.976 297.839C147.756 295.891 150.601 294.074 153.198 291.834C156.4 289.076 156.811 286.393 154.042 283.136C152.895 281.784 152.029 280.183 151.034 278.701C148.254 274.352 145.29 270.111 142.455 265.784C141.611 264.291 140.324 262.917 140.919 260.948Z" fill="#3C3C48"/>
<path d="M145.495 298.78C144.727 300.218 142.445 299.981 142.099 301.874C141.395 301.874 140.703 301.874 140 301.874C139.61 287.518 140.854 273.119 138.918 258.806C140.454 258.709 139.578 260.872 140.919 260.959C141.687 262.344 142.456 263.728 143.234 265.113C145.961 271.842 144.641 278.842 144.673 285.754C144.262 290.125 142.326 294.615 145.495 298.78Z" fill="#D2D2D4"/>
<path d="M379.495 178.643C381.735 179.183 384.136 179.551 384.807 182.299C384.969 182.981 384.45 183.987 383.682 183.662C381.475 182.743 379.83 181.185 379.528 178.621C379.517 178.621 379.495 178.643 379.495 178.643Z" fill="url(#paint46_linear_178_2148)"/>
<path d="M332.089 164.763C332.057 159.938 332.803 156.346 339.294 157.666C341.956 158.207 345.082 156.108 347.852 156.433C354.299 157.179 354.245 163.183 355.868 167.727C355.327 168.408 354.613 168.506 353.823 168.3C349.236 164.243 348.447 164.178 345.526 167.63C343.968 169.133 342.345 169.306 340.647 167.878C339.446 162.978 335.562 165.542 332.771 165.044C332.544 164.957 332.317 164.86 332.089 164.763Z" fill="#F7BA8B"/>
<path d="M340.701 166.97C342.248 168.3 343.73 168.387 345.147 166.764C348.209 165.044 350.935 166.201 353.629 167.727C354.375 167.727 355.132 167.727 355.879 167.727C357.675 168.452 360.011 166.796 361.472 168.982C360.358 170.799 358.454 169.869 356.939 170.28C355.024 169.512 354.721 170.756 354.57 172.184C351.692 178.859 347.624 179.238 342.735 173.342C341.491 173.45 341.252 174.802 340.322 175.278C336.73 177.074 333.474 177.334 331.181 173.266C330.629 171.145 331.57 168.095 327.892 167.9C327.492 167.143 327.081 166.385 326.669 165.628C328.541 165.736 330.434 166.018 332.079 164.752L331.992 164.654C334.718 166.115 338.321 164.222 340.701 166.97Z" fill="#FFFEFC"/>
<path d="M382.719 294.312C382.805 291.456 382.903 288.6 382.989 285.744C389.772 287.247 396.545 288.751 403.328 290.244C403.998 293.154 403.62 295.729 401.002 297.6C394.543 298.509 388.853 295.21 382.719 294.312Z" fill="#F6927E"/>
<path d="M135.002 122.463C130.923 122.485 128.662 120.386 128.965 118.028C129.463 114.101 133.206 116.383 135.478 116.091C136.96 115.896 140.086 114.728 139.718 118.114C139.383 121.143 136.938 122.42 135.002 122.463Z" fill="white"/>
<path d="M114.09 106.614C117.682 106.766 118.872 108.551 119.293 111.017C119.412 111.742 118.904 112.478 118.039 112.337C115.053 111.883 115.02 109.319 114.09 106.614Z" fill="#F6927E"/>
<path d="M148.514 107.285C148.6 106.571 148.698 105.857 148.784 105.143C152.387 106.647 149.336 107.999 148.687 109.405C148.622 108.691 148.568 107.988 148.514 107.285Z" fill="#E7765D"/>
<path d="M342.832 170.215C346.207 177.82 349.853 178.437 354.569 172.206C353.758 181.304 351.594 183.868 344.032 186.41C341.577 187.243 340.116 186.691 338.461 185.296C338.612 185.101 338.775 184.906 338.926 184.712C341.122 183.457 344.281 184.279 345.99 181.001C344.844 180.514 342.961 180.817 342.539 179.14C342.594 176.165 340.992 173.125 342.832 170.215Z" fill="#F7BA8B"/>
<path d="M331.18 173.277C334.123 175.581 337.271 175.906 340.625 174.272C341.944 175.397 342.269 176.879 342.139 178.524C339.381 179.811 337.996 181.845 338.71 184.993L338.461 185.296C333.063 183.089 331.115 178.794 331.18 173.277Z" fill="#F7BA8B"/>
<path d="M361.19 93.2645C359.762 93.3511 360.325 91.3281 359.33 90.6898C360.109 89.5106 360.823 87.996 362.402 88.0393C363.787 88.0826 364.512 89.2834 364.414 90.6898C364.295 92.3666 363.3 93.2321 361.19 93.2645Z" fill="white"/>
<path d="M43.8356 75.8795C43.338 77.4266 42.2994 78.7464 40.7416 78.9952C39.4001 79.2116 38.6104 77.9675 38.5779 76.6044C38.5238 74.9383 39.4542 73.9863 41.0878 73.8565C42.4833 73.7267 43.3272 74.5489 43.8356 75.8795Z" fill="white"/>
<path d="M350.416 106.993C350.21 108.28 349.474 109.589 348.111 109.265C347.062 109.027 345.493 107.696 345.515 106.896C345.547 105.641 346.835 104.256 348.349 104.267C349.745 104.278 350.383 105.5 350.416 106.993Z" fill="white"/>
<path d="M29.9124 60.0416C29.7069 61.9239 28.8522 62.9517 27.1754 62.9517C25.5094 62.9409 24.5249 61.9564 24.5249 60.2904C24.5249 58.6244 25.5202 57.6615 27.1754 57.6183C28.9171 57.575 29.6095 58.7434 29.9124 60.0416Z" fill="white"/>
<path d="M129.117 104.072C128.814 105.468 130.112 107.35 128.089 108.14C127.667 108.302 126.239 107.296 126.185 106.744C125.979 104.721 127.288 103.985 129.181 104.137L129.117 104.072Z" fill="#3C3C48"/>
<path d="M156.108 341.999C153.674 341.761 152.895 340.246 152.917 338.007C152.949 335.021 152.906 332.035 152.895 329.049C156.498 323.424 160.857 318.523 166.504 314.866C170.54 312.259 171.968 312.811 172.303 317.387C173.158 328.919 169.577 338.58 156.876 341.285C156.584 341.35 156.357 341.761 156.108 341.999Z" fill="#E1E3E6"/>
<path d="M391.59 341.999C392.315 337.661 393.029 333.312 393.754 328.974C397.107 330.12 402.084 331.018 402.516 334.08C403.003 337.542 397.616 338.375 395.03 340.636C394.154 341.404 392.758 341.566 391.59 341.999Z" fill="#E1E3E6"/>
<path d="M410.814 366.913C409.397 368.947 409.494 372.106 406.725 372.82C405.351 373.177 404.669 371.306 405.123 370.159C405.946 368.114 406.238 365.442 409.007 364.89C410.479 364.598 410.662 365.788 410.814 366.913Z" fill="#D2D2D4"/>
<path d="M405.307 377.732C404.442 380.133 403.263 382.448 400.796 383.4C399.585 383.866 398.806 382.232 399.184 381.323C400.093 379.084 400.915 376.498 403.587 375.73C404.961 375.33 405.416 376.444 405.307 377.732Z" fill="#D2D2D4"/>
<path d="M415.119 356.701C414.038 358.334 414.881 361.385 411.993 362.099C410.857 362.38 409.764 361.19 410.186 360.109C411.019 357.945 410.533 354.764 413.659 354.126C414.979 353.866 415.141 355.338 415.119 356.701Z" fill="#D2D2D4"/>
<path d="M299.548 285.754C299.991 286.825 300.435 287.896 300.868 288.967C298.801 291.001 296.162 290.46 293.717 290.45C286.523 290.439 279.35 290.439 272.221 291.715C264.226 293.154 261.294 297.222 261.803 305.281C262.171 311.167 264.886 316.327 266 321.942C265.005 326.842 263.328 331.559 262.052 336.384C260.396 343.524 259.423 350.74 259.012 358.075C258.806 361.785 258.417 365.55 256.718 368.99C256.524 372.474 256.394 375.947 255.528 379.376C255.16 380.836 254.317 380.836 253.332 381.064C251.179 380.674 249.026 380.285 246.874 379.895C246.874 349.918 246.863 319.94 246.863 289.963C249.946 285.83 254.836 286.901 258.958 285.787C260.818 285.278 262.787 285.17 264.735 285.257C274.103 283.537 283.569 284.132 292.992 284.099C295.285 284.099 297.676 283.948 299.548 285.754Z" fill="#1D1413"/>
<path d="M264.086 286.652C258.255 287.301 252.424 287.972 246.852 289.984C246.787 286.404 246.711 282.823 246.647 279.242C246.56 276.959 247.209 275.856 249.935 275.953C258.233 276.224 266.541 276.148 274.85 276.213C272.632 281.103 268.348 283.861 264.086 286.652Z" fill="white"/>
<path d="M372.019 340.895C371.273 342.734 370.516 344.574 369.769 346.413C368.601 343.578 367.865 340.657 367.865 337.574C372.29 332.36 374.54 325.804 378.565 320.341C378.034 323.954 379.506 327.805 377.277 331.224C375.892 334.653 372.063 336.741 372.019 340.895Z" fill="#D2D2D4"/>
<path d="M372.019 340.895C369.012 335.075 375.048 334.188 377.277 331.224C377.104 335.194 378.478 339.305 376.174 343.081C374.367 343.156 373.491 341.469 372.019 340.895Z" fill="#E1E3E6"/>
<path d="M372.193 358.194C373.155 358.54 374.129 358.897 375.092 359.243C374.984 361.493 376.141 363.927 374.151 365.907C372.734 363.538 372.149 360.952 372.193 358.194Z" fill="#E1E3E6"/>
<path d="M265.135 322.32C263.306 316.987 261.067 311.913 260.407 306.06C259.358 296.713 263.339 291.174 272.621 289.963C282.044 288.729 291.456 289.173 300.867 288.967C305.519 288.913 310.171 288.859 314.823 288.816C320.211 288.816 325.598 288.816 330.986 288.816C337.693 288.87 344.389 288.881 351.097 289.032C352.741 289.065 354.667 288.243 355.997 290.028C358.572 294.052 356.095 297.698 354.894 301.279C350.87 313.298 343.383 318.588 330.802 318.631C319.334 318.664 307.878 318.62 296.41 318.653C293.955 318.664 291.207 318.188 290.168 321.444C291.964 324.679 293.76 327.924 295.566 331.159C296.973 332.284 298.076 333.647 298.823 335.291C300.078 338.115 301.073 340.993 300.965 344.152C302.176 351.735 303.377 359.308 304.6 366.881C305.357 371.598 305.27 376.336 305.13 381.085C301.073 380.393 297.146 381.183 293.241 382.167C290.266 377.429 290.817 371.219 286.944 366.848C285.267 360.087 281.622 354.267 278.171 348.36C273.183 342.312 270.847 334.74 266.584 328.281C265.567 326.42 265.07 324.441 265.135 322.32Z" fill="#3C3C48"/>
<path d="M324.43 335.519C327.74 335.519 331.04 335.519 334.35 335.519C335.367 337.012 335.54 338.45 334.069 339.781C330.953 340.138 327.827 340.506 324.711 340.863C324.614 339.089 324.516 337.304 324.43 335.519Z" fill="url(#paint47_linear_178_2148)"/>
<path d="M297.719 335.497C296.994 334.047 296.28 332.598 295.556 331.148C298.477 331.635 301.051 333.452 304.113 333.355C303.659 334.415 303.204 335.475 302.75 336.536C300.629 338.418 299.266 336.525 297.719 335.497Z" fill="url(#paint48_linear_178_2148)"/>
<path d="M297.72 335.497C299.397 335.843 301.084 336.189 302.761 336.536C302.988 339.273 302.025 341.717 300.954 344.141C299.883 341.263 298.802 338.385 297.72 335.497Z" fill="url(#paint49_linear_178_2148)"/>
<path d="M267.45 327.859C271.702 334.329 275.499 341.047 278.16 348.36C271.453 355.706 265.038 363.354 256.718 369.012C257.465 357.75 257.443 346.38 261.035 335.486C263.253 333.009 262.712 328.205 267.45 327.859Z" fill="#E1E3E6"/>
<path d="M135.824 356.073C137.144 352.914 136.484 349.539 136.906 346.283C142.098 343.037 148.459 343.903 152.906 348.468C156.389 350.621 158.218 353.953 159.743 357.631C160.814 360.195 160.403 362.045 158.261 363.646C149.552 364.793 142.088 362.251 135.824 356.073Z" fill="#E1E3E6"/>
<path d="M108.853 320.351C109.816 319.984 110.768 319.627 111.731 319.259C111.807 323.175 111.883 327.091 111.958 331.007C111.655 331.137 111.342 331.18 111.017 331.159C106.949 328.227 108.908 324.084 108.853 320.351Z" fill="#F7BA8B"/>
<path d="M351.551 371.208C348.944 367.195 352.233 364.771 354.396 362.608C356.441 360.574 358.951 358.627 362.121 358.215C363.343 363.246 364.923 368.201 365.366 373.393C360.292 375.687 356.062 372.506 351.551 371.208Z" fill="#E1E3E6"/>
<path d="M357.08 335.465C356.982 334.404 356.896 333.344 356.798 332.284C359.752 331.202 362.694 330.12 365.648 329.028C365.637 329.698 365.626 330.369 365.615 331.051C363.538 334.004 360.552 335.194 357.08 335.465Z" fill="url(#paint50_linear_178_2148)"/>
<path d="M62.8542 184.084C60.5283 184.073 58.1915 184.127 55.8656 184.062C54.0589 184.019 52.6417 183.273 52.7391 181.206C52.8257 179.476 54.1022 178.74 55.7033 178.74C60.5391 178.707 65.3857 178.686 70.2215 178.794C72.158 178.837 73.0342 180.157 72.9585 182.072C72.8611 184.171 71.2925 184.073 69.8537 184.084C67.5169 184.117 65.1801 184.095 62.8542 184.084Z" fill="url(#paint51_linear_178_2148)"/>
<path d="M63.2762 353.802C60.604 353.802 57.9211 353.845 55.249 353.78C54.1022 353.747 53.0745 353.12 52.9447 351.952C52.7716 350.394 53.9508 349.658 55.2814 349.636C60.4526 349.55 65.6237 349.572 70.7949 349.593C71.9957 349.593 72.8395 350.112 72.9261 351.454C73.0343 353.012 72.2986 353.812 70.7624 353.823C68.2634 353.845 65.7644 353.834 63.2653 353.834C63.2762 353.823 63.2762 353.812 63.2762 353.802Z" fill="url(#paint52_linear_178_2148)"/>
<path d="M62.9624 297.633C60.6364 297.633 58.2997 297.655 55.9738 297.622C54.1563 297.6 52.7066 296.897 52.7283 294.874C52.7391 293.176 53.9507 292.321 55.5843 292.3C60.4201 292.256 65.2667 292.245 70.1025 292.321C72.0281 292.354 72.9693 293.576 72.9585 295.502C72.9477 297.601 71.4331 297.622 69.9618 297.633C67.6251 297.655 65.2991 297.633 62.9624 297.633Z" fill="url(#paint53_linear_178_2148)"/>
<path d="M62.5837 241.399C60.4308 241.399 58.278 241.41 56.1252 241.399C54.3401 241.389 52.7823 240.837 52.7174 238.803C52.6525 236.769 54.1238 236.055 55.9413 236.034C60.6039 236.001 65.2666 236.001 69.9293 236.023C71.4006 236.023 72.9152 236.034 72.9476 238.132C72.9692 240.058 72.0497 241.248 70.1132 241.335C67.6034 241.432 65.0935 241.356 62.5837 241.356C62.5837 241.367 62.5837 241.378 62.5837 241.399Z" fill="url(#paint54_linear_178_2148)"/>
<path d="M290.168 321.444C289.768 320.103 287.518 319.508 288.254 317.917C288.989 316.327 290.828 317.16 292.159 317.149C305.639 317.084 319.129 316.89 332.598 317.182C342.28 317.398 348.414 312.248 352.233 304.351C354.332 300.013 356.236 295.188 355.998 290.028C360.844 279.545 361.721 268.164 363.354 256.967C363.895 253.278 364.155 249.546 364.544 245.835C367.27 252.867 367.227 260.299 366.427 267.504C365.042 280.129 362.283 292.429 357.177 304.308C351.768 316.9 342.486 322.104 329.493 323.781C316.122 325.501 303.194 323.738 290.168 321.444Z" fill="#3BB3C1"/>
<path d="M264.085 286.652C267.115 282.596 271.15 279.577 274.839 276.202C282.422 276.202 290.006 276.202 297.59 276.202C299.039 276.764 300.056 277.749 300.619 279.209C300.262 281.395 299.905 283.58 299.548 285.765C291.185 285.765 282.812 285.96 274.46 285.657C270.901 285.516 267.666 287.767 264.085 286.652Z" fill="#E1E3E6"/>
<path d="M300.608 279.199C299.602 278.192 298.596 277.197 297.579 276.191C298.996 275.834 300.424 275.466 301.842 275.109C301.441 276.472 301.03 277.835 300.608 279.199Z" fill="white"/>
<path d="M414.146 122.387C413.67 120.678 409.927 118.763 413.27 117.433C415.877 116.394 421.037 115.475 422.076 118.093C423.677 122.117 419.263 122.301 416.266 122.636C415.498 123.145 414.784 123.091 414.146 122.387Z" fill="white"/>
<path d="M417.521 116.037C415.271 115.594 414.027 114.825 414.503 113.419C415.174 111.461 415.736 109.254 417.619 108.032C418.214 107.642 419.22 108.648 418.885 109.146C417.511 111.19 418.127 113.873 417.521 116.037Z" fill="#F6927E"/>
<path d="M432.342 110.541C434.203 110.109 434.971 107.642 437.319 107.642C437.665 110.303 436.248 111.515 434.311 112.24C432.721 112.835 432.613 111.515 432.407 110.455L432.342 110.541Z" fill="#F6927E"/>
<path d="M411.507 105.316C413.335 105.186 413.054 106.712 413.53 107.469C414.168 108.486 413.01 109.07 412.361 109.286C411.16 109.687 410.198 108.702 410.176 107.75C410.165 106.906 411.074 106.052 411.507 105.316Z" fill="#3C3C48"/>
<path d="M425.548 108.562C425.786 109.622 424.921 110.152 424.239 110.368C422.671 110.855 422.79 109.265 422.357 108.475C421.611 107.112 422.801 106.571 423.677 106.409C425.213 106.127 424.683 107.967 425.548 108.562Z" fill="#3C3C48"/>
<path d="M414.146 122.387C414.849 122.463 415.563 122.55 416.266 122.625C417.121 123.177 417.976 123.718 418.83 124.27C418.473 124.627 418.116 125.298 417.748 125.298C415.812 125.341 414.308 124.659 414.146 122.387Z" fill="#F6927E"/>
<path d="M340.7 166.97C338.45 166.905 336.211 166.796 333.961 166.807C332.435 166.807 331.667 166.288 332.003 164.665C334.393 162.988 337.13 163.464 339.738 163.616C342.572 163.789 342.453 165.239 340.7 166.97Z" fill="#3C3C48"/>
<path d="M353.618 167.727C350.643 168.765 348.014 166.634 345.136 166.764C344.812 164.817 345.006 162.988 347.581 163.616C350.015 164.211 353.877 163.064 353.618 167.727Z" fill="#3C3C48"/>
<path d="M348.274 168.711C349.972 169.231 352.114 169.252 351.952 171.264C351.811 172.909 349.81 173.623 348.338 173.785C346.445 174.001 346.24 172.011 346.056 170.788C345.818 169.274 347.3 169.025 348.274 168.711Z" fill="#A5806E"/>
<path d="M337.433 169.112C339.035 168.928 339.987 169.631 339.37 171.189C338.829 172.552 337.314 173.082 335.93 173.158C333.95 173.277 333.182 171.708 332.836 170.15C332.381 168.116 333.842 167.922 335.367 168.03C335.703 169.068 336.049 170.107 337.433 169.112Z" fill="#F7BA8B"/>
<path d="M341.847 178.502C340.863 177.258 340.636 175.797 340.636 174.272C340.939 172.682 341.361 171.167 342.843 170.215C341.696 173.06 345.06 175.927 342.821 178.772C342.388 179.032 342.075 178.924 341.847 178.502Z" fill="#F6927E"/>
<path d="M337.434 169.112C337.52 170.626 337.044 172.162 335.335 171.481C333.344 170.691 334.664 169.198 335.356 168.03C336.049 168.387 336.741 168.755 337.434 169.112Z" fill="#3C3C48"/>
<path d="M341.847 178.502C342.161 178.61 342.486 178.697 342.81 178.762C344.033 180.579 346.251 179.086 347.668 180.244C346.672 185.61 342.789 185.48 338.71 184.982C335.151 178.989 335.173 178.945 341.847 178.502Z" fill="#FFF4F0"/>
<path d="M267.45 327.859C264.291 329.536 263.934 333.593 261.035 335.486C262.225 331.04 262.766 326.399 265.135 322.331C266.66 323.846 266.779 325.966 267.45 327.859Z" fill="#D2D2D4"/>
</g>
<defs>
<linearGradient id="paint0_linear_178_2148" x1="143.437" y1="130.025" x2="143.437" y2="255.136" gradientUnits="userSpaceOnUse">
<stop stop-color="#3BB3C1"/>
<stop offset="1" stop-color="#1B8895"/>
</linearGradient>
<linearGradient id="paint1_linear_178_2148" x1="59.5597" y1="158.607" x2="59.5597" y2="399.369" gradientUnits="userSpaceOnUse">
<stop stop-color="#3BB3C1"/>
<stop offset="1" stop-color="#1B8895"/>
</linearGradient>
<linearGradient id="paint2_linear_178_2148" x1="437.818" y1="77.0587" x2="437.818" y2="216.222" gradientUnits="userSpaceOnUse">
<stop stop-color="#3BB3C1"/>
<stop offset="1" stop-color="#1B8895"/>
</linearGradient>
<linearGradient id="paint3_linear_178_2148" x1="277.611" y1="154.895" x2="277.611" y2="181.641" gradientUnits="userSpaceOnUse">
<stop stop-color="#3BB3C1"/>
<stop offset="1" stop-color="#1B8895"/>
</linearGradient>
<linearGradient id="paint4_linear_178_2148" x1="319.437" y1="200.344" x2="319.437" y2="236.672" gradientUnits="userSpaceOnUse">
<stop stop-color="#3BB3C1"/>
<stop offset="1" stop-color="#1B8895"/>
</linearGradient>
<linearGradient id="paint5_linear_178_2148" x1="435.447" y1="383.952" x2="435.447" y2="403.838" gradientUnits="userSpaceOnUse">
<stop stop-color="#3BB3C1"/>
<stop offset="1" stop-color="#1B8895"/>
</linearGradient>
<linearGradient id="paint6_linear_178_2148" x1="45.7052" y1="91.1658" x2="45.7052" y2="138.25" gradientUnits="userSpaceOnUse">
<stop stop-color="#3BB3C1"/>
<stop offset="1" stop-color="#1B8895"/>
</linearGradient>
<linearGradient id="paint7_linear_178_2148" x1="208.467" y1="244.872" x2="208.467" y2="259.999" gradientUnits="userSpaceOnUse">
<stop stop-color="#3BB3C1"/>
<stop offset="1" stop-color="#1B8895"/>
</linearGradient>
<linearGradient id="paint8_linear_178_2148" x1="52.4718" y1="103.964" x2="52.4718" y2="132.503" gradientUnits="userSpaceOnUse">
<stop stop-color="#3BB3C1"/>
<stop offset="1" stop-color="#1B8895"/>
</linearGradient>
<linearGradient id="paint9_linear_178_2148" x1="39.0446" y1="103.953" x2="39.0446" y2="132.903" gradientUnits="userSpaceOnUse">
<stop stop-color="#3BB3C1"/>
<stop offset="1" stop-color="#1B8895"/>
</linearGradient>
<linearGradient id="paint10_linear_178_2148" x1="208.496" y1="230.814" x2="208.496" y2="239.42" gradientUnits="userSpaceOnUse">
<stop stop-color="#3BB3C1"/>
<stop offset="1" stop-color="#1B8895"/>
</linearGradient>
<linearGradient id="paint11_linear_178_2148" x1="50.9161" y1="91.1281" x2="50.9161" y2="113.668" gradientUnits="userSpaceOnUse">
<stop stop-color="#3BB3C1"/>
<stop offset="1" stop-color="#1B8895"/>
</linearGradient>
<linearGradient id="paint12_linear_178_2148" x1="40.1466" y1="91.1358" x2="40.1466" y2="114.122" gradientUnits="userSpaceOnUse">
<stop stop-color="#3BB3C1"/>
<stop offset="1" stop-color="#1B8895"/>
</linearGradient>
<linearGradient id="paint13_linear_178_2148" x1="362.285" y1="84.944" x2="362.285" y2="96.2886" gradientUnits="userSpaceOnUse">
<stop stop-color="#3BB3C1"/>
<stop offset="1" stop-color="#1B8895"/>
</linearGradient>
<linearGradient id="paint14_linear_178_2148" x1="40.7658" y1="70.7722" x2="40.7658" y2="81.9703" gradientUnits="userSpaceOnUse">
<stop stop-color="#3BB3C1"/>
<stop offset="1" stop-color="#1B8895"/>
</linearGradient>
<linearGradient id="paint15_linear_178_2148" x1="348.253" y1="101.86" x2="348.253" y2="112.609" gradientUnits="userSpaceOnUse">
<stop stop-color="#3BB3C1"/>
<stop offset="1" stop-color="#1B8895"/>
</linearGradient>
<linearGradient id="paint16_linear_178_2148" x1="26.7936" y1="54.5083" x2="26.7936" y2="65.2534" gradientUnits="userSpaceOnUse">
<stop stop-color="#3BB3C1"/>
<stop offset="1" stop-color="#1B8895"/>
</linearGradient>
<linearGradient id="paint17_linear_178_2148" x1="208.507" y1="224.88" x2="208.507" y2="231.382" gradientUnits="userSpaceOnUse">
<stop stop-color="#3BB3C1"/>
<stop offset="1" stop-color="#1B8895"/>
</linearGradient>
<linearGradient id="paint18_linear_178_2148" x1="208.504" y1="228.32" x2="208.504" y2="232.842" gradientUnits="userSpaceOnUse">
<stop stop-color="#3BB3C1"/>
<stop offset="1" stop-color="#1B8895"/>
</linearGradient>
<linearGradient id="paint19_linear_178_2148" x1="46.4622" y1="49.1475" x2="46.4622" y2="60.7015" gradientUnits="userSpaceOnUse">
<stop stop-color="#3BB3C1"/>
<stop offset="1" stop-color="#1B8895"/>
</linearGradient>
<linearGradient id="paint20_linear_178_2148" x1="19.7056" y1="73.1608" x2="19.7056" y2="84.5559" gradientUnits="userSpaceOnUse">
<stop stop-color="#3BB3C1"/>
<stop offset="1" stop-color="#1B8895"/>
</linearGradient>
<linearGradient id="paint21_linear_178_2148" x1="342.662" y1="78.8978" x2="342.662" y2="91.0792" gradientUnits="userSpaceOnUse">
<stop stop-color="#3BB3C1"/>
<stop offset="1" stop-color="#1B8895"/>
</linearGradient>
<linearGradient id="paint22_linear_178_2148" x1="369.375" y1="103.452" x2="369.375" y2="114.862" gradientUnits="userSpaceOnUse">
<stop stop-color="#3BB3C1"/>
<stop offset="1" stop-color="#1B8895"/>
</linearGradient>
<linearGradient id="paint23_linear_178_2148" x1="36.6478" y1="121.262" x2="36.6478" y2="133.39" gradientUnits="userSpaceOnUse">
<stop stop-color="#3BB3C1"/>
<stop offset="1" stop-color="#1B8895"/>
</linearGradient>
<linearGradient id="paint24_linear_178_2148" x1="55.1395" y1="121.251" x2="55.1395" y2="133.39" gradientUnits="userSpaceOnUse">
<stop stop-color="#3BB3C1"/>
<stop offset="1" stop-color="#1B8895"/>
</linearGradient>
<linearGradient id="paint25_linear_178_2148" x1="192.872" y1="161.29" x2="192.872" y2="170.421" gradientUnits="userSpaceOnUse">
<stop stop-color="#3BB3C1"/>
<stop offset="1" stop-color="#1B8895"/>
</linearGradient>
<linearGradient id="paint26_linear_178_2148" x1="466.95" y1="112.683" x2="466.95" y2="117.701" gradientUnits="userSpaceOnUse">
<stop stop-color="#3BB3C1"/>
<stop offset="1" stop-color="#1B8895"/>
</linearGradient>
<linearGradient id="paint27_linear_178_2148" x1="330.17" y1="338.515" x2="330.17" y2="399.401" gradientUnits="userSpaceOnUse">
<stop stop-color="#3BB3C1"/>
<stop offset="1" stop-color="#1B8895"/>
</linearGradient>
<linearGradient id="paint28_linear_178_2148" x1="365.369" y1="330.834" x2="365.369" y2="386.886" gradientUnits="userSpaceOnUse">
<stop stop-color="#3BB3C1"/>
<stop offset="1" stop-color="#1B8895"/>
</linearGradient>
<linearGradient id="paint29_linear_178_2148" x1="102.63" y1="316.809" x2="102.63" y2="355.026" gradientUnits="userSpaceOnUse">
<stop stop-color="#3BB3C1"/>
<stop offset="1" stop-color="#1B8895"/>
</linearGradient>
<linearGradient id="paint30_linear_178_2148" x1="368.894" y1="385.164" x2="368.894" y2="403.586" gradientUnits="userSpaceOnUse">
<stop stop-color="#3BB3C1"/>
<stop offset="1" stop-color="#1B8895"/>
</linearGradient>
<linearGradient id="paint31_linear_178_2148" x1="290.125" y1="383.465" x2="290.125" y2="401.938" gradientUnits="userSpaceOnUse">
<stop stop-color="#3BB3C1"/>
<stop offset="1" stop-color="#1B8895"/>
</linearGradient>
<linearGradient id="paint32_linear_178_2148" x1="131.85" y1="383.084" x2="131.85" y2="402.621" gradientUnits="userSpaceOnUse">
<stop stop-color="#3BB3C1"/>
<stop offset="1" stop-color="#1B8895"/>
</linearGradient>
<linearGradient id="paint33_linear_178_2148" x1="287.782" y1="366.848" x2="287.782" y2="390.943" gradientUnits="userSpaceOnUse">
<stop stop-color="#3BB3C1"/>
<stop offset="1" stop-color="#1B8895"/>
</linearGradient>
<linearGradient id="paint34_linear_178_2148" x1="252.133" y1="383.974" x2="252.133" y2="389.383" gradientUnits="userSpaceOnUse">
<stop stop-color="#3BB3C1"/>
<stop offset="1" stop-color="#1B8895"/>
</linearGradient>
<linearGradient id="paint35_linear_178_2148" x1="136.532" y1="199.262" x2="136.532" y2="231.785" gradientUnits="userSpaceOnUse">
<stop stop-color="#3BB3C1"/>
<stop offset="1" stop-color="#1B8895"/>
</linearGradient>
<linearGradient id="paint36_linear_178_2148" x1="136.452" y1="208.479" x2="136.452" y2="223.185" gradientUnits="userSpaceOnUse">
<stop stop-color="#3BB3C1"/>
<stop offset="1" stop-color="#1B8895"/>
</linearGradient>
<linearGradient id="paint37_linear_178_2148" x1="134.504" y1="138.117" x2="134.504" y2="146.614" gradientUnits="userSpaceOnUse">
<stop stop-color="#3BB3C1"/>
<stop offset="1" stop-color="#1B8895"/>
</linearGradient>
<linearGradient id="paint38_linear_178_2148" x1="412.069" y1="185.263" x2="412.069" y2="202.82" gradientUnits="userSpaceOnUse">
<stop stop-color="#3BB3C1"/>
<stop offset="1" stop-color="#1B8895"/>
</linearGradient>
<linearGradient id="paint39_linear_178_2148" x1="410.9" y1="199.825" x2="410.9" y2="206.208" gradientUnits="userSpaceOnUse">
<stop stop-color="#3BB3C1"/>
<stop offset="1" stop-color="#1B8895"/>
</linearGradient>
<linearGradient id="paint40_linear_178_2148" x1="419.712" y1="146.166" x2="419.712" y2="156.854" gradientUnits="userSpaceOnUse">
<stop stop-color="#3BB3C1"/>
<stop offset="1" stop-color="#1B8895"/>
</linearGradient>
<linearGradient id="paint41_linear_178_2148" x1="337.322" y1="227.271" x2="337.322" y2="337.094" gradientUnits="userSpaceOnUse">
<stop stop-color="#3BB3C1"/>
<stop offset="1" stop-color="#1B8895"/>
</linearGradient>
<linearGradient id="paint42_linear_178_2148" x1="348.306" y1="225.183" x2="348.306" y2="290.716" gradientUnits="userSpaceOnUse">
<stop stop-color="#3BB3C1"/>
<stop offset="1" stop-color="#1B8895"/>
</linearGradient>
<linearGradient id="paint43_linear_178_2148" x1="356.36" y1="194.989" x2="356.36" y2="213.207" gradientUnits="userSpaceOnUse">
<stop stop-color="#3BB3C1"/>
<stop offset="1" stop-color="#1B8895"/>
</linearGradient>
<linearGradient id="paint44_linear_178_2148" x1="312.788" y1="252.185" x2="312.788" y2="258.546" gradientUnits="userSpaceOnUse">
<stop stop-color="#3BB3C1"/>
<stop offset="1" stop-color="#1B8895"/>
</linearGradient>
<linearGradient id="paint45_linear_178_2148" x1="308.249" y1="268.543" x2="308.249" y2="290.745" gradientUnits="userSpaceOnUse">
<stop stop-color="#3BB3C1"/>
<stop offset="1" stop-color="#1B8895"/>
</linearGradient>
<linearGradient id="paint46_linear_178_2148" x1="382.166" y1="178.621" x2="382.166" y2="183.725" gradientUnits="userSpaceOnUse">
<stop stop-color="#3BB3C1"/>
<stop offset="1" stop-color="#1B8895"/>
</linearGradient>
<linearGradient id="paint47_linear_178_2148" x1="329.786" y1="335.519" x2="329.786" y2="340.863" gradientUnits="userSpaceOnUse">
<stop stop-color="#3BB3C1"/>
<stop offset="1" stop-color="#1B8895"/>
</linearGradient>
<linearGradient id="paint48_linear_178_2148" x1="299.834" y1="331.148" x2="299.834" y2="337.336" gradientUnits="userSpaceOnUse">
<stop stop-color="#3BB3C1"/>
<stop offset="1" stop-color="#1B8895"/>
</linearGradient>
<linearGradient id="paint49_linear_178_2148" x1="300.257" y1="335.497" x2="300.257" y2="344.141" gradientUnits="userSpaceOnUse">
<stop stop-color="#3BB3C1"/>
<stop offset="1" stop-color="#1B8895"/>
</linearGradient>
<linearGradient id="paint50_linear_178_2148" x1="361.223" y1="329.028" x2="361.223" y2="335.465" gradientUnits="userSpaceOnUse">
<stop stop-color="#3BB3C1"/>
<stop offset="1" stop-color="#1B8895"/>
</linearGradient>
<linearGradient id="paint51_linear_178_2148" x1="62.8487" y1="178.713" x2="62.8487" y2="184.101" gradientUnits="userSpaceOnUse">
<stop stop-color="#3BB3C1"/>
<stop offset="1" stop-color="#1B8895"/>
</linearGradient>
<linearGradient id="paint52_linear_178_2148" x1="62.9321" y1="349.574" x2="62.9321" y2="353.837" gradientUnits="userSpaceOnUse">
<stop stop-color="#3BB3C1"/>
<stop offset="1" stop-color="#1B8895"/>
</linearGradient>
<linearGradient id="paint53_linear_178_2148" x1="62.8433" y1="292.266" x2="62.8433" y2="297.643" gradientUnits="userSpaceOnUse">
<stop stop-color="#3BB3C1"/>
<stop offset="1" stop-color="#1B8895"/>
</linearGradient>
<linearGradient id="paint54_linear_178_2148" x1="62.8317" y1="236.008" x2="62.8317" y2="241.404" gradientUnits="userSpaceOnUse">
<stop stop-color="#3BB3C1"/>
<stop offset="1" stop-color="#1B8895"/>
</linearGradient>
<clipPath id="clip0_178_2148">
<rect width="500" height="415.704" fill="white"/>
</clipPath>
</defs>
</svg>
