<svg width="500" height="500" viewBox="0 0 500 500" fill="none" xmlns="http://www.w3.org/2000/svg">
<path d="M139.111 60C139.135 64.3804 137.857 68.6692 135.441 72.3228C133.024 75.9764 129.577 78.8302 125.537 80.5225C121.497 82.2149 117.045 82.6695 112.746 81.8288C108.447 80.9881 104.494 78.8899 101.389 75.8002C98.2838 72.7104 96.1659 68.7684 95.3038 64.4736C94.4416 60.1788 94.874 55.7248 96.5462 51.6761C98.2184 47.6273 101.055 44.1662 104.696 41.7315C108.338 39.2968 112.62 37.9981 117.001 38C122.847 37.9973 128.455 40.3108 132.599 44.434C136.743 48.5573 139.084 54.1543 139.111 60Z" fill="#F5F5F5"/>
<path d="M133.84 59.9999C133.856 63.3363 132.881 66.6023 131.039 69.384C129.197 72.1657 126.57 74.3378 123.492 75.6251C120.414 76.9124 117.023 77.257 113.749 76.6151C110.475 75.9732 107.465 74.3737 105.101 72.0194C102.736 69.6651 101.124 66.662 100.469 63.3905C99.8134 60.1191 100.144 56.7268 101.418 53.6433C102.693 50.5599 104.854 47.9243 107.628 46.0704C110.402 44.2165 113.664 43.2279 117 43.2299C121.456 43.2246 125.732 44.9874 128.889 48.1316C132.046 51.2757 133.827 55.5441 133.84 59.9999Z" fill="#EBEBEB"/>
<path d="M133.84 59.5099C133.625 58.8597 133.474 58.1897 133.39 57.5099C133.017 55.6961 132.362 53.9518 131.45 52.3399C130.817 51.2417 130.066 50.2157 129.21 49.2799C128.233 48.2131 127.12 47.2786 125.9 46.4999C125.24 46.0793 124.552 45.7051 123.84 45.3799C122.331 44.6868 120.727 44.2217 119.08 43.9999C118.218 43.8944 117.349 43.8543 116.48 43.8799C115.611 43.9122 114.746 44.0057 113.89 44.1599C113.064 44.3194 112.252 44.5434 111.46 44.8299C110.69 45.0999 109.944 45.4344 109.23 45.8299C108.532 46.1904 107.864 46.605 107.23 47.0699C105.026 48.6786 103.251 50.8042 102.06 53.2599C101.249 54.9207 100.706 56.6993 100.45 58.5299C100.412 59.2057 100.305 59.8759 100.13 60.5299C99.9232 59.8538 99.8618 59.1414 99.9503 58.4399C100.023 56.5063 100.457 54.6035 101.23 52.8299C101.751 51.5921 102.423 50.4233 103.23 49.3499C104.164 48.1142 105.26 47.0108 106.49 46.0699C107.16 45.5607 107.865 45.0996 108.6 44.6899C109.372 44.2808 110.174 43.933 111 43.6499C111.857 43.3388 112.736 43.0948 113.63 42.9199C114.55 42.7371 115.483 42.6301 116.42 42.5999C117.356 42.5709 118.292 42.6177 119.22 42.7399C120.123 42.858 121.016 43.0452 121.89 43.2999C122.729 43.5514 123.548 43.8657 124.34 44.2399C125.101 44.6004 125.833 45.0183 126.53 45.4899C127.821 46.347 128.988 47.3765 130 48.5499C130.87 49.5731 131.619 50.6939 132.23 51.8899C133.118 53.6108 133.674 55.4834 133.87 57.4099C134.017 58.1033 134.007 58.8209 133.84 59.5099Z" fill="#E0E0E0"/>
<path d="M118.9 70.0999L119 72.9999H116.38V70.1499C114.053 70.1087 111.784 69.4158 109.83 68.1499L111.12 64.9999C112.639 66.0291 114.401 66.6428 116.23 66.7799L116.17 62.4099C113.25 61.7399 109.98 60.8199 109.93 57.0699C109.93 54.2999 111.87 51.8799 116 51.3499V48.4399H118.62V51.2999C120.505 51.3553 122.349 51.8593 124 52.7699L122.7 55.9999C121.467 55.3028 120.107 54.8575 118.7 54.6899L118.77 59.1499C121.69 59.7899 124.9 60.7099 124.96 64.4099C125 67.1499 123 69.5399 118.9 70.0999ZM116.11 58.5499L116.05 54.8299C114.67 55.1699 114.13 55.9399 114.14 56.8299C114.15 57.7199 115 58.2099 116.11 58.5499ZM120.71 64.7999C120.71 63.8899 119.93 63.3999 118.8 63.0199V66.6399C120.16 66.3299 120.72 65.6399 120.71 64.7999Z" fill="#E0E0E0"/>
<path d="M82.0003 168.1C82.3955 170.768 81.9904 173.493 80.8361 175.931C79.6818 178.368 77.8302 180.409 75.5158 181.793C73.2015 183.178 70.5282 183.845 67.8346 183.71C65.1409 183.575 62.5479 182.644 60.3837 181.034C58.2195 179.425 56.5815 177.209 55.6769 174.669C54.7723 172.128 54.6419 169.376 55.3022 166.761C55.9624 164.146 57.3836 161.785 59.3859 159.978C61.3882 158.171 63.8815 156.999 66.5503 156.61C70.1226 156.086 73.7566 157.002 76.6537 159.157C79.5508 161.311 81.4739 164.528 82.0003 168.1Z" fill="#F5F5F5"/>
<path d="M78.7804 168.57C79.0813 170.604 78.7722 172.681 77.8921 174.539C77.0121 176.396 75.6007 177.952 73.8366 179.007C72.0724 180.062 70.0348 180.571 67.9816 180.468C65.9284 180.365 63.952 179.655 62.3023 178.428C60.6527 177.201 59.404 175.513 58.7144 173.576C58.0247 171.64 57.9251 169.542 58.4281 167.549C58.9311 165.555 60.014 163.756 61.54 162.379C63.0659 161.001 64.9662 160.107 67.0004 159.81C68.3491 159.612 69.7236 159.681 71.0455 160.014C72.3675 160.347 73.6109 160.937 74.7048 161.75C75.7986 162.564 76.7216 163.584 77.4209 164.755C78.1202 165.925 78.5821 167.221 78.7804 168.57Z" fill="#EBEBEB"/>
<path d="M78.7303 168.25C78.5421 167.865 78.3914 167.463 78.2803 167.05C77.8873 165.971 77.3308 164.959 76.6303 164.05C76.1463 163.444 75.6 162.891 75.0003 162.4C74.3071 161.837 73.5441 161.367 72.7303 161C72.2931 160.801 71.8419 160.633 71.3803 160.5C70.4057 160.218 69.3946 160.083 68.3803 160.1C67.8473 160.111 67.3159 160.161 66.7903 160.25C66.2657 160.35 65.7479 160.484 65.2403 160.65C64.7494 160.822 64.2715 161.029 63.8103 161.27C63.3664 161.502 62.9417 161.77 62.5403 162.07C62.1496 162.354 61.7818 162.668 61.4403 163.01C60.8007 163.635 60.246 164.341 59.7903 165.11C59.3775 165.78 59.0421 166.494 58.7903 167.24C58.4471 168.327 58.2718 169.46 58.2703 170.6C58.3191 171.025 58.3191 171.455 58.2703 171.88C58.0864 171.485 57.9876 171.056 57.9803 170.62C57.8501 169.433 57.9451 168.232 58.2603 167.08C58.4807 166.28 58.7927 165.508 59.1903 164.78C59.6495 163.942 60.2216 163.172 60.8903 162.49C61.2472 162.124 61.6354 161.789 62.0503 161.49C62.4789 161.16 62.9337 160.866 63.4103 160.61C63.9039 160.341 64.419 160.113 64.9503 159.93C65.4932 159.735 66.052 159.588 66.6203 159.49C67.1887 159.392 67.7637 159.339 68.3403 159.33C68.9025 159.316 69.4647 159.353 70.0203 159.44C70.5553 159.515 71.0836 159.632 71.6003 159.79C72.0949 159.941 72.5765 160.131 73.0403 160.36C74.6439 161.13 76.0217 162.301 77.0403 163.76C77.7483 164.735 78.2673 165.834 78.5703 167C78.7068 167.402 78.7612 167.827 78.7303 168.25Z" fill="#E0E0E0"/>
<path d="M70.5499 176L70.8399 177.78L69.2399 178.04L68.9999 176.33C67.5774 176.511 66.1327 176.289 64.8299 175.69L65.3899 173.6C66.4087 174.095 67.5394 174.316 68.6699 174.24L68.2399 171.58C66.3999 171.43 64.3299 171.16 63.9699 168.87C63.6999 167.18 64.6899 165.53 67.1699 164.87L66.8799 163.1L68.4799 162.85L68.7599 164.59C69.9096 164.466 71.0722 164.621 72.1499 165.04L71.6699 167.13C70.8471 166.815 69.9704 166.666 69.0899 166.69L69.5299 169.4C71.3599 169.54 73.3999 169.81 73.7599 172.06C73.9999 173.69 72.9999 175.32 70.5499 176ZM67.8299 169.2L67.4699 167C66.6499 167.32 66.3899 167.84 66.4699 168.37C66.5499 168.9 67.0899 169.12 67.8299 169.23V169.2ZM71.1899 172.61C71.0999 172.05 70.5899 171.82 69.8599 171.69L70.2099 173.89C70.9999 173.62 71.2699 173.15 71.1899 172.64V172.61Z" fill="#E0E0E0"/>
<path d="M430.767 299.632L426.089 323.722L461.831 330.663L466.509 306.573L430.767 299.632Z" fill="#EBEBEB"/>
<path d="M466.581 306.9C466.455 306.998 466.321 307.085 466.181 307.16L465.021 307.83L460.701 310.28L446.371 318.28L446.251 318.34L446.161 318.24L446.001 318C441.821 313 438.001 308.58 435.261 305.31L432.001 301.41L431.131 300.34C431.025 300.223 430.931 300.096 430.851 299.96C430.972 300.062 431.082 300.176 431.181 300.3L432.091 301.3L435.401 305.11L446.211 317.73L446.421 317.98H446.221L460.601 310.09L464.971 307.73L466.161 307.11C466.293 307.025 466.434 306.955 466.581 306.9Z" fill="#E0E0E0"/>
<path d="M426.16 324.05C426.1 323.98 429.43 321.2 433.59 317.84C437.75 314.48 441.18 311.84 441.24 311.89C441.3 311.94 437.97 314.74 433.8 318.1C429.63 321.46 426.22 324.12 426.16 324.05Z" fill="#E0E0E0"/>
<path d="M453.17 313.89C453.26 313.89 455.27 317.65 457.68 322.37C460.09 327.09 462 331 461.9 331C461.8 331 459.8 327.25 457.39 322.53C454.98 317.81 453.09 313.93 453.17 313.89Z" fill="#E0E0E0"/>
<path d="M354.59 52.2199C354.461 51.6864 354.397 51.139 354.4 50.5899C354.381 49.9184 354.308 49.2496 354.18 48.5899C354.069 47.7028 353.899 46.8242 353.67 45.9599C353.103 43.5799 352.183 41.298 350.94 39.1899C349.319 36.396 347.181 33.9357 344.64 31.9399C341.581 29.515 337.995 27.8434 334.17 27.0599C329.789 26.158 325.246 26.4411 321.01 27.8799C318.723 28.6337 316.565 29.7331 314.61 31.1399C313.601 31.8574 312.639 32.639 311.73 33.4799C310.829 34.3672 309.99 35.3161 309.22 36.3199C305.972 40.5166 304.15 45.6415 304.021 50.9468C303.891 56.252 305.461 61.4598 308.5 65.8099C309.222 66.8624 310.013 67.8647 310.87 68.8099C311.74 69.6942 312.666 70.5225 313.64 71.2899C315.521 72.793 317.623 73.9971 319.87 74.8599C325.303 76.9775 331.301 77.1527 336.848 75.3559C342.395 73.5591 347.151 69.9007 350.31 64.9999C351.654 62.954 352.685 60.7195 353.37 58.3699C353.642 57.5186 353.856 56.65 354.01 55.7699C354.159 55.1314 354.263 54.4831 354.32 53.8299C354.349 53.2814 354.439 52.738 354.59 52.2099C354.648 52.7551 354.648 53.3048 354.59 53.8499C354.59 54.5206 354.53 55.19 354.41 55.8499C354.305 56.7551 354.131 57.6509 353.89 58.5299C353.279 60.9669 352.294 63.2946 350.97 65.4299C349.027 68.5844 346.431 71.287 343.358 73.3566C340.284 75.4262 336.804 76.815 333.15 77.4299C328.518 78.2045 323.762 77.721 319.38 76.0299C317.011 75.1316 314.792 73.8772 312.8 72.3099C311.77 71.5056 310.791 70.6372 309.87 69.7099C308.964 68.7319 308.125 67.6928 307.36 66.5999C304.134 62.0172 302.465 56.5191 302.6 50.9162C302.735 45.3132 304.667 39.9019 308.11 35.4799C308.93 34.4224 309.819 33.4202 310.77 32.4799C311.734 31.5927 312.757 30.7709 313.83 30.0199C315.892 28.549 318.169 27.4055 320.58 26.6299C324.741 25.2387 329.185 24.9226 333.5 25.7111C337.816 26.4997 341.861 28.3672 345.26 31.1399C347.851 33.2526 350.007 35.8471 351.61 38.7799C352.828 40.9656 353.698 43.3271 354.19 45.7799C354.392 46.6685 354.526 47.5711 354.59 48.4799C354.678 49.1428 354.705 49.8122 354.67 50.4799C354.71 51.0611 354.683 51.6448 354.59 52.2199Z" fill="#EBEBEB"/>
<path d="M349.46 36.1999C349.51 36.2699 349.05 36.6799 348.16 37.3399L346.51 38.5299C346.18 38.7499 345.84 38.9999 345.46 39.2399L344.19 39.8999C339.606 42.5141 334.395 43.8279 329.12 43.6999L326.84 43.5999L324.65 43.2499C324.29 43.1899 323.93 43.1499 323.58 43.0699L322.58 42.7999C321.91 42.6199 321.24 42.4599 320.58 42.2499C318.347 41.5018 316.202 40.5161 314.18 39.3099C310.74 37.2299 309.07 35.3099 309.18 35.2199C309.29 35.1299 311.18 36.6399 314.65 38.4399C316.688 39.4768 318.813 40.3334 321 40.9999C321.61 41.1699 322.25 41.3099 322.9 41.4699L323.9 41.7199L324.9 41.8699L326.99 42.1799L329.17 42.2699C334.223 42.3725 339.225 41.2506 343.75 38.9999L345.02 38.4499C345.41 38.2399 345.77 38.0199 346.11 37.8399L347.86 36.8399C348.83 36.3699 349.4 36.1199 349.46 36.1999Z" fill="#EBEBEB"/>
<path d="M308.43 67.3698C308.37 67.2898 308.84 66.8898 309.73 66.2298L311.38 64.9998C311.71 64.7798 312.05 64.5298 312.43 64.2898L313.69 63.6298C318.277 61.0139 323.491 59.6999 328.77 59.8298L331.05 59.9298L333.24 60.2798C333.6 60.3398 333.96 60.3798 334.31 60.4498L335.31 60.7298C335.98 60.9098 336.65 61.0698 337.31 61.2698C339.543 62.0411 341.688 63.0467 343.71 64.2698C347.14 66.3498 348.81 68.2698 348.71 68.3598C348.61 68.4498 346.71 66.9398 343.25 65.1398C341.229 64.0987 339.121 63.2354 336.95 62.5598C336.34 62.3898 335.69 62.2498 335.05 62.0798L334.05 61.8398L333.05 61.6898L330.95 61.3798L328.78 61.2898C323.72 61.187 318.71 62.3125 314.18 64.5698L312.9 65.1198C312.51 65.3298 312.16 65.5498 311.82 65.7298L310.07 66.7298C309.06 67.1998 308.49 67.4498 308.43 67.3698Z" fill="#EBEBEB"/>
<path d="M354.571 52.8098C354.571 53.1998 343.071 53.2398 328.921 52.8898C314.771 52.5398 303.291 51.9998 303.301 51.5698C303.311 51.1398 314.791 51.1398 328.951 51.4898C343.111 51.8398 354.581 52.4198 354.571 52.8098Z" fill="#EBEBEB"/>
<path d="M327.75 77.21C327.36 77.21 327.33 65.72 327.67 51.56C328.01 37.4 328.61 25.94 329 26C329.39 26.06 329.42 37.49 329.08 51.65C328.74 65.81 328.14 77.22 327.75 77.21Z" fill="#EBEBEB"/>
<path d="M327.751 77.1699C327.661 77.3199 324.831 75.3999 321.571 71.0699C319.673 68.5158 318.135 65.7128 317.001 62.7399C315.612 59.0748 314.933 55.1788 315.001 51.2599C315.1 47.3322 315.98 43.4636 317.591 39.8799C318.887 36.9803 320.569 34.2691 322.591 31.8199C326.041 27.6399 328.891 25.8199 328.991 25.9399C329.091 26.0599 326.541 28.1999 323.371 32.4299C321.529 34.9068 319.985 37.592 318.771 40.4299C317.299 43.8737 316.494 47.5658 316.401 51.3099C316.336 55.0548 316.946 58.7808 318.201 62.3099C319.246 65.202 320.647 67.953 322.371 70.4999C325.351 74.8599 327.891 76.9999 327.751 77.1699Z" fill="#EBEBEB"/>
<path d="M329.571 25.9999C329.671 25.8499 332.491 27.7599 335.751 32.0999C337.656 34.6492 339.2 37.4489 340.341 40.4199C341.731 44.0882 342.409 47.9876 342.341 51.9099C342.246 55.8349 341.366 59.7012 339.751 63.2799C338.452 66.1813 336.771 68.8954 334.751 71.3499C331.301 75.5199 328.451 77.3499 328.361 77.2199C328.271 77.0899 330.801 74.9599 333.971 70.7299C335.823 68.2596 337.367 65.5732 338.571 62.7299C340.044 59.2829 340.848 55.5873 340.941 51.8399C341.005 48.0958 340.398 44.3705 339.151 40.8399C338.102 37.9473 336.698 35.1962 334.971 32.6499C332.001 28.2699 329.431 26.1099 329.571 25.9999Z" fill="#EBEBEB"/>
<path d="M80.6403 340.12L81.9103 337.3C82.9831 334.836 83.0332 332.047 82.0496 329.546C81.5626 328.308 80.8364 327.178 79.9126 326.22C78.9887 325.262 77.8853 324.496 76.6653 323.965C75.4454 323.434 74.1327 323.148 72.8023 323.124C71.4719 323.1 70.1498 323.339 68.9116 323.826C66.4108 324.809 64.4031 326.746 63.3303 329.21L62.0003 332.07C60.6884 331.719 59.2943 331.85 58.0706 332.439C56.847 333.028 55.8748 334.036 55.3303 335.28L48.1003 352C47.5044 353.373 47.4747 354.926 48.0177 356.322C48.5608 357.717 49.6327 358.841 51.0003 359.45L68.3903 367C69.7682 367.6 71.3279 367.628 72.7268 367.079C74.1256 366.53 75.2491 365.447 75.8503 364.07L83.1103 347.36C83.6767 346.063 83.7373 344.6 83.2802 343.261C82.8232 341.921 81.8815 340.801 80.6403 340.12ZM66.1603 354.9L61.6203 352.9L63.7503 349.9C63.3826 349.367 63.1974 348.728 63.2225 348.081C63.2476 347.434 63.4815 346.812 63.8894 346.308C64.2973 345.805 64.8572 345.447 65.4853 345.289C66.1134 345.13 66.7761 345.179 67.3741 345.428C67.9721 345.677 68.4734 346.113 68.803 346.671C69.1326 347.229 69.2728 347.878 69.2026 348.522C69.1324 349.166 68.8556 349.77 68.4135 350.244C67.9715 350.718 67.388 351.036 66.7503 351.15C66.5403 352.62 66.1603 354.9 66.1603 354.9ZM78.6503 339.22L64.0703 332.88L65.3303 330.09C66.2043 328.21 67.7782 326.746 69.7164 326.009C71.6546 325.273 73.8037 325.323 75.7056 326.149C77.6074 326.974 79.1114 328.51 79.8969 330.429C80.6824 332.348 80.6872 334.498 79.9103 336.42L78.6503 339.22Z" fill="#EBEBEB"/>
<path d="M435.361 157.82C435.363 159.23 434.946 160.609 434.165 161.783C433.383 162.956 432.27 163.872 430.968 164.413C429.666 164.955 428.233 165.098 426.849 164.825C425.466 164.552 424.195 163.874 423.196 162.879C422.197 161.883 421.517 160.613 421.24 159.231C420.962 157.848 421.102 156.414 421.64 155.111C422.177 153.807 423.09 152.692 424.261 151.907C425.432 151.122 426.81 150.702 428.221 150.7C429.157 150.699 430.084 150.882 430.95 151.239C431.815 151.596 432.602 152.12 433.265 152.781C433.928 153.442 434.455 154.228 434.814 155.092C435.174 155.957 435.359 156.884 435.361 157.82Z" fill="#EBEBEB"/>
<path d="M454.51 146.738C456.289 143.225 454.883 138.935 451.369 137.157C447.856 135.378 443.566 136.784 441.788 140.298C440.009 143.811 441.415 148.101 444.929 149.879C448.442 151.658 452.732 150.252 454.51 146.738Z" fill="#EBEBEB"/>
<path d="M448.234 181.514C452.171 181.508 455.359 178.03 455.353 173.744C455.347 169.458 452.15 165.988 448.212 165.994C444.274 165.999 441.087 169.478 441.093 173.764C441.099 178.05 444.296 181.519 448.234 181.514Z" fill="#EBEBEB"/>
<path d="M446.12 172.84C445.81 173.29 441.07 170.6 435.53 166.84C429.99 163.08 425.74 159.65 426.04 159.2C426.34 158.75 431.04 161.45 436.63 165.2C442.22 168.95 446.42 172.39 446.12 172.84Z" fill="#EBEBEB"/>
<path d="M446.69 143C447.02 143.43 443.36 146.82 438.51 150.58C433.66 154.34 429.51 157.03 429.13 156.58C428.75 156.13 432.46 152.76 437.31 149.01C442.16 145.26 446.36 142.61 446.69 143Z" fill="#EBEBEB"/>
<path d="M450.28 474.71C450.28 474.85 360.6 474.97 250.01 474.97C139.42 474.97 49.7197 474.85 49.7197 474.71C49.7197 474.57 139.38 474.45 250.01 474.45C360.64 474.45 450.28 474.56 450.28 474.71Z" fill="#263238"/>
<path d="M395.4 93.7599C395.49 93.8699 383.03 104.16 367.58 116.76C352.13 129.36 339.52 139.43 339.43 139.32C339.34 139.21 351.79 128.93 367.25 116.32C382.71 103.71 395.3 93.6499 395.4 93.7599Z" fill="#263238"/>
<path d="M415.91 261.65C415.86 261.79 399.74 256.01 379.91 248.76C360.08 241.51 344 235.51 344.09 235.38C344.18 235.25 360.26 241.01 380.09 248.27C399.92 255.53 416 261.52 415.91 261.65Z" fill="#263238"/>
<path d="M82.1604 123.16C82.2304 123.03 99.6004 132.16 120.94 143.62C142.28 155.08 159.55 164.43 159.48 164.55C159.41 164.67 142.05 155.55 120.7 144.08C99.3504 132.61 82.0904 123.28 82.1604 123.16Z" fill="#263238"/>
<path d="M88.4199 271.61C88.4199 271.47 102.64 265.99 120.28 259.37C137.92 252.75 152.28 247.49 152.33 247.62C152.38 247.75 138.12 253.23 120.47 259.86C102.82 266.49 88.4699 271.74 88.4199 271.61Z" fill="#263238"/>
<path d="M257.66 301.66C240.488 301.662 223.702 296.572 209.423 287.033C195.144 277.494 184.014 263.935 177.442 248.071C170.869 232.207 169.148 214.75 172.497 197.908C175.846 181.066 184.114 165.595 196.256 153.452C208.397 141.309 223.867 133.04 240.709 129.689C257.55 126.338 275.008 128.057 290.872 134.628C306.737 141.199 320.297 152.326 329.838 166.604C339.378 180.882 344.47 197.668 344.47 214.84C344.444 237.856 335.289 259.922 319.015 276.198C302.741 292.474 280.676 301.631 257.66 301.66ZM257.66 129.03C240.686 129.028 224.092 134.06 209.977 143.489C195.863 152.918 184.861 166.321 178.365 182.003C171.868 197.685 170.168 214.942 173.479 231.59C176.79 248.238 184.963 263.531 196.966 275.534C208.969 287.536 224.262 295.71 240.91 299.021C257.558 302.332 274.815 300.632 290.497 294.135C306.179 287.639 319.582 276.637 329.011 262.523C338.44 248.408 343.472 231.814 343.47 214.84C343.452 192.085 334.406 170.266 318.318 154.173C302.231 138.08 280.415 129.026 257.66 129V129.03Z" fill="#3BB3C1"/>
<path d="M367.41 213.6C367.41 213.6 367.41 213 367.34 211.82C367.34 211.23 367.34 210.5 367.27 209.63C367.2 208.76 367.27 207.75 367.12 206.63C366.97 205.51 366.92 204.21 366.81 202.8C366.7 201.39 366.44 199.86 366.23 198.19C365.76 194.87 365.04 191.06 364 186.83C362.808 182.125 361.304 177.505 359.5 173C357.38 167.655 354.829 162.491 351.87 157.56C344.633 145.514 335.176 134.95 324 126.43C317.519 121.482 310.497 117.285 303.07 113.92C295.034 110.219 286.569 107.532 277.87 105.92C263.667 103.298 249.089 103.465 234.95 106.41C229.985 107.485 225.094 108.882 220.31 110.59C199.943 118.012 182.229 131.297 169.4 148.77C166.054 153.321 163.069 158.125 160.47 163.14C159.84 164.42 159.13 165.66 158.57 166.97L156.8 170.88C155.74 173.55 154.65 176.22 153.8 178.97C151.944 184.522 150.549 190.218 149.63 196C148.708 201.829 148.227 207.719 148.19 213.62C148.228 219.524 148.706 225.417 149.62 231.25C150.543 237.001 151.937 242.667 153.79 248.19C154.66 250.95 155.79 253.62 156.79 256.29L158.56 260.2C159.12 261.52 159.84 262.76 160.47 264.03C163.059 269.051 166.042 273.86 169.39 278.41C182.222 295.887 199.939 309.175 220.31 316.6C225.111 318.298 230.019 319.681 235 320.74C249.139 323.686 263.717 323.852 277.92 321.23C294.663 318.083 310.441 311.074 324 300.76C335.17 292.235 344.618 281.664 351.84 269.61C354.799 264.679 357.35 259.515 359.47 254.17C361.272 249.681 362.776 245.077 363.97 240.39C364.97 236.16 365.73 232.39 366.2 229.04C366.41 227.37 366.64 225.84 366.78 224.43C366.92 223.02 366.99 221.74 367.09 220.59C367.19 219.44 367.22 218.44 367.24 217.59C367.26 216.74 367.29 215.99 367.31 215.4C367.31 214.22 367.38 213.62 367.38 213.62C367.38 213.62 367.38 214.22 367.38 215.4C367.38 215.99 367.38 216.72 367.38 217.59C367.38 218.46 367.38 219.48 367.25 220.59C367.12 221.7 367.07 223.02 366.97 224.43C366.87 225.84 366.62 227.38 366.42 229.05C365.96 232.38 365.25 236.19 364.23 240.43C363.047 245.13 361.554 249.747 359.76 254.25C357.653 259.617 355.107 264.801 352.15 269.75C344.929 281.854 335.471 292.472 324.28 301.04C310.677 311.434 294.826 318.493 278 321.65C268.656 323.415 259.122 323.949 249.64 323.24C244.685 322.898 239.76 322.213 234.9 321.19C229.902 320.123 224.981 318.723 220.17 317C199.7 309.561 181.894 296.222 169 278.67C165.628 274.098 162.619 269.27 160 264.23C159.37 262.95 158.65 261.7 158.08 260.38C157.51 259.06 156.9 257.76 156.3 256.45C155.24 253.77 154.14 251.09 153.3 248.32C151.438 242.778 150.036 237.092 149.11 231.32C147.19 219.595 147.19 207.635 149.11 195.91C150.045 190.138 151.45 184.453 153.31 178.91C154.18 176.14 155.31 173.46 156.31 170.78C156.91 169.47 157.5 168.16 158.09 166.85C158.68 165.54 159.37 164.29 160.01 163C162.628 157.962 165.637 153.137 169.01 148.57C181.902 131.02 199.705 117.682 220.17 110.24C224.975 108.505 229.889 107.089 234.88 106C249.079 103.064 263.712 102.908 277.97 105.54C286.696 107.146 295.189 109.833 303.25 113.54C310.704 116.924 317.749 121.144 324.25 126.12C335.444 134.687 344.905 145.306 352.13 157.41C355.083 162.361 357.628 167.545 359.74 172.91C361.534 177.413 363.027 182.029 364.21 186.73C365.21 190.97 365.94 194.79 366.4 198.12C366.6 199.79 366.81 201.32 366.95 202.73C367.09 204.14 367.15 205.43 367.23 206.58C367.31 207.73 367.35 208.73 367.36 209.58C367.37 210.43 367.36 211.18 367.36 211.77C367.42 213 367.41 213.6 367.41 213.6Z" fill="#263238"/>
<path d="M259.001 338.41V337.41C283.987 337.404 308.411 329.989 329.183 316.103C349.956 302.217 366.145 282.484 375.702 259.397C385.26 236.311 387.758 210.909 382.88 186.404C378.001 161.898 365.966 139.389 348.296 121.724C330.626 104.058 308.114 92.0278 283.608 87.1554C259.101 82.283 233.7 84.7867 210.616 94.3499C187.532 103.913 167.802 120.107 153.921 140.882C140.04 161.658 132.631 186.084 132.631 211.07H131.631C131.631 140.86 188.761 83.74 258.971 83.74C292.547 84.0375 324.646 97.5842 348.283 121.432C371.921 145.279 385.182 177.498 385.182 211.075C385.182 244.652 371.921 276.871 348.283 300.718C324.646 324.566 292.547 338.112 258.971 338.41H259.001Z" fill="#3BB3C1"/>
<path d="M257.67 325.84V320.84C286.112 320.84 313.389 309.541 333.5 289.43C353.611 269.319 364.91 242.042 364.91 213.6C364.91 185.158 353.611 157.881 333.5 137.77C313.389 117.658 286.112 106.36 257.67 106.36V101.36C287.438 101.36 315.986 113.185 337.036 134.234C358.085 155.283 369.91 183.832 369.91 213.6C369.91 243.368 358.085 271.916 337.036 292.966C315.986 314.015 287.438 325.84 257.67 325.84Z" fill="#3BB3C1"/>
<path d="M388.301 211.07H383.301C383.007 178.287 369.778 146.948 346.492 123.87C323.207 100.793 291.75 87.8451 258.966 87.8451C226.182 87.8451 194.725 100.793 171.439 123.87C148.154 146.948 134.925 178.287 134.631 211.07H129.631C129.631 139.76 187.631 81.74 258.971 81.74C293.259 81.7797 326.132 95.4182 350.377 119.664C374.623 143.909 388.261 176.782 388.301 211.07Z" fill="#3BB3C1"/>
<path d="M259.931 357.62C180.481 357.62 115.841 292.97 115.841 213.52C115.841 134.07 180.481 69.4199 259.931 69.4199V74.4199C183.241 74.4199 120.841 136.82 120.841 213.52C120.841 290.22 183.241 352.62 259.931 352.62C336.621 352.62 399.001 290.22 399.001 213.52H404.001C404.001 293 339.391 357.62 259.931 357.62Z" fill="#3BB3C1"/>
<path d="M257.66 374.53H255.15V373.53H257.65L257.66 374.53Z" fill="#3BB3C1"/>
<path d="M245 374C243.33 373.87 241.63 373.71 240 373.52L240.11 372.52C241.77 372.7 243.46 372.86 245.11 372.99L245 374ZM230 372.13C228.33 371.84 226.65 371.52 225 371.18L225.21 370.18C226.83 370.52 228.49 370.84 230.15 371.13L230 372.13ZM215.17 368.8C213.56 368.36 211.92 367.88 210.31 367.38L210.61 366.38C212.21 366.88 213.83 367.38 215.44 367.8L215.17 368.8ZM200.72 364.06C199.14 363.46 197.56 362.82 196 362.17L196.39 361.25C197.93 361.9 199.51 362.53 201.08 363.13L200.72 364.06ZM186.73 358C185.22 357.25 183.73 356.47 182.22 355.67L182.69 354.79C184.17 355.58 185.69 356.36 187.17 357.11L186.73 358ZM173.44 350.59C172.01 349.7 170.57 348.78 169.18 347.85L169.73 347.01C171.12 347.94 172.55 348.86 173.97 349.74L173.44 350.59ZM160.93 341.96C159.59 340.96 158.25 339.89 156.93 338.82L157.57 338.05C158.86 339.1 160.19 340.15 161.52 341.16L160.93 341.96ZM149.29 332.18C148.04 331.03 146.81 329.85 145.62 328.68L146.32 327.97C147.5 329.13 148.73 330.3 149.97 331.45L149.29 332.18ZM138.63 321.3C137.51 320.04 136.39 318.76 135.31 317.47L136.08 316.83C137.15 318.11 138.26 319.39 139.38 320.64L138.63 321.3ZM129.05 309.52C128.05 308.15 127.05 306.77 126.11 305.39L126.93 304.83C127.87 306.19 128.85 307.57 129.85 308.92L129.05 309.52ZM120.63 296.88C119.77 295.45 118.91 293.97 118.09 292.5L119 292C119.81 293.46 120.66 294.92 121.51 296.35L120.63 296.88ZM113.45 283.51C112.72 281.99 112.01 280.44 111.34 278.91L112.26 278.51C112.92 280.03 113.63 281.57 114.35 283.08L113.45 283.51ZM107.58 269.51C107 267.93 106.44 266.32 105.92 264.73L106.92 264.41C107.44 266 107.99 267.6 108.57 269.17L107.58 269.51ZM103.06 255C102.64 253.37 102.24 251.72 101.87 250.08L102.87 249.86C103.23 251.49 103.63 253.13 104.05 254.75L103.06 255ZM100 240.14C99.74 238.49 99.5 236.8 99.28 235.14L100.28 235.02C100.49 236.68 100.73 238.36 100.99 240.02L100 240.14ZM98.29 225C98.18 223.33 98.1 221.62 98.05 219.94H99.05C99.05 221.61 99.18 223.3 99.29 224.94L98.29 225ZM99 209.88H98C98.06 208.19 98.14 206.49 98.24 204.81L99.24 204.88C99.17 206.51 99.1 208.2 99 209.88ZM100.18 194.82L99.18 194.7C99.39 193.03 99.63 191.34 99.89 189.7L100.89 189.86C100.67 191.49 100.43 193.16 100.22 194.82H100.18ZM102.78 179.95L101.78 179.73C102.15 178.09 102.55 176.43 102.97 174.81L103.97 175.06C103.58 176.67 103.18 178.32 102.82 180L102.78 179.95ZM106.78 165.39L105.83 165.08C106.36 163.48 106.92 161.87 107.49 160.28L108.43 160.62C107.9 162.2 107.34 163.81 106.82 165.39H106.78ZM112.18 151.26L111.26 150.86C111.94 149.32 112.65 147.77 113.37 146.24L114.28 146.67C113.59 148.19 112.89 149.73 112.22 151.26H112.18ZM118.9 137.71L118.03 137.23C118.85 135.75 119.697 134.283 120.57 132.83L121.42 133.35C120.6 134.78 119.75 136.25 118.94 137.71H118.9ZM126.9 124.88L126.07 124.31C127.07 122.93 128.02 121.54 129.02 120.18L129.82 120.77C128.85 122.12 127.86 123.5 126.92 124.88H126.9ZM136.05 112.88L135.29 112.23C136.37 110.95 137.49 109.66 138.61 108.4L139.35 109.07C138.26 110.3 137.15 111.58 136.07 112.86L136.05 112.88ZM146.3 101.78L145.6 101.07C146.79 99.8999 148.03 98.7199 149.26 97.5699L149.94 98.3099C148.73 99.4299 147.51 100.6 146.32 101.76L146.3 101.78ZM157.55 91.7099L156.92 90.9299C158.22 89.8699 159.56 88.8199 160.92 87.7999L161.53 88.5999C160.19 89.5899 158.86 90.6399 157.57 91.6899L157.55 91.7099ZM169.69 82.7099L169.14 81.8799C170.52 80.9499 171.96 80.0299 173.39 79.1399L173.92 79.9899C172.51 80.8899 171.09 81.8099 169.71 82.7299L169.69 82.7099ZM182.64 74.9999L182.17 74.1099C183.65 73.3199 185.17 72.5399 186.66 71.7899L187.11 72.6899C185.62 73.3999 184.12 74.1699 182.64 74.9999ZM196.25 68.4999L195.86 67.5799C197.41 66.9299 198.99 66.2899 200.55 65.6999L200.91 66.6299C199.36 67.1899 197.79 67.8199 196.25 68.4699V68.4999ZM210.42 63.3299L210.12 62.3799C211.73 61.8799 213.37 61.3799 214.98 60.9499L215.25 61.9499C213.64 62.3299 212 62.7999 210.42 63.2999V63.3299ZM225 59.5099L224.8 58.5099C226.45 58.1599 228.12 57.8399 229.8 57.5099L229.98 58.5099C228.34 58.8499 226.67 59.1699 225 59.5099ZM239.91 57.1299L239.8 56.1299C241.47 55.9399 243.17 55.7799 244.8 55.6499L244.88 56.6499C243.29 56.7799 241.6 56.9999 239.94 57.1299H239.91Z" fill="#3BB3C1"/>
<path d="M255.16 56.1699V55.1699H257.67V56.1699H255.16Z" fill="#3BB3C1"/>
<path d="M467.357 246.73L412.909 247.871L413.678 284.573L468.126 283.432L467.357 246.73Z" fill="#3BB3C1"/>
<path d="M467.52 247.19C467.376 247.374 467.211 247.542 467.03 247.69L465.54 249.05L460 254L441.56 270.19L441.41 270.32L441.25 270.2L440.86 269.9L421.15 254.74C418.68 252.8 416.66 251.23 415.21 250.1C414.55 249.56 414.02 249.1 413.61 248.82C413.416 248.68 413.238 248.519 413.08 248.34C413.288 248.456 413.486 248.59 413.67 248.74L415.33 249.94L421.33 254.46L441.13 269.51L441.52 269.81H441.21L459.74 253.73L465.38 248.91L466.93 247.62C467.116 247.463 467.313 247.319 467.52 247.19Z" fill="#263238"/>
<path d="M413.841 285C413.741 284.91 417.731 279.8 422.751 273.57C427.771 267.34 431.941 262.37 432.051 262.46C432.161 262.55 428.171 267.66 423.141 273.89C418.111 280.12 414.001 285.12 413.841 285Z" fill="#263238"/>
<path d="M450.14 261.65C450.24 261.57 454.39 266.47 459.4 272.65C464.41 278.83 468.4 283.84 468.29 283.92C468.18 284 464.03 279.1 459.02 272.92C454.01 266.74 450 261.74 450.14 261.65Z" fill="#263238"/>
<path d="M417.289 97.23C417.283 98.1215 417.013 98.9913 416.513 99.7294C416.013 100.468 415.306 101.041 414.48 101.377C413.654 101.713 412.747 101.797 411.874 101.618C411.001 101.439 410.2 101.005 409.573 100.371C408.946 99.7374 408.521 98.9319 408.352 98.0565C408.182 97.1812 408.276 96.2753 408.621 95.4533C408.967 94.6313 409.548 93.9301 410.292 93.4383C411.035 92.9465 411.908 92.6861 412.799 92.69C413.393 92.6926 413.979 92.8122 414.526 93.0419C415.073 93.2716 415.569 93.6069 415.986 94.0286C416.403 94.4503 416.733 94.9501 416.957 95.4995C417.18 96.0488 417.293 96.6369 417.289 97.23Z" fill="#455A64"/>
<path d="M403.76 91.4298C404.91 90.1892 406.301 89.1951 407.847 88.508C409.393 87.8209 411.062 87.455 412.754 87.4326C414.445 87.4101 416.124 87.7316 417.688 88.3775C419.251 89.0233 420.667 89.9801 421.85 91.1898C424.16 93.5098 427.76 89.9398 425.46 87.6098C423.803 85.9364 421.827 84.6119 419.649 83.7144C417.471 82.8169 415.136 82.3646 412.781 82.3842C410.426 82.4037 408.098 82.8948 405.936 83.8284C403.773 84.7619 401.82 86.1191 400.19 87.8198C397.93 90.1798 401.5 93.8198 403.76 91.4298Z" fill="#455A64"/>
<path d="M388.43 70.4199C395.29 64.4799 403.48 60.7499 412.66 60.7299C421.803 60.6237 430.643 64.0067 437.38 70.1899C439.76 72.4199 443.38 68.8599 440.98 66.6099C433.288 59.4794 423.168 55.5462 412.68 55.6099C402.12 55.6099 392.74 59.9499 384.86 66.7699C382.38 68.9099 385.97 72.5099 388.43 70.3799V70.4199Z" fill="#455A64"/>
<path d="M394.48 82.0598C396.77 79.5041 399.565 77.4507 402.688 76.0289C405.811 74.6071 409.195 73.8478 412.626 73.799C416.057 73.7501 419.461 74.4127 422.624 75.745C425.786 77.0773 428.638 79.0504 431 81.5398C433.28 83.8798 436.88 80.3098 434.6 77.9698C431.771 75.0107 428.365 72.6642 424.592 71.0759C420.818 69.4875 416.759 68.6912 412.666 68.7362C408.572 68.7812 404.532 69.6666 400.795 71.3375C397.057 73.0084 393.703 75.4292 390.94 78.4498C388.72 80.8498 392.28 84.4498 394.51 82.0598H394.48Z" fill="#455A64"/>
<path d="M77.9004 264.75C77.9011 261.523 77.1581 258.339 75.7291 255.446C74.3001 252.553 72.2236 250.028 69.6607 248.067C67.0979 246.106 64.1176 244.762 60.9513 244.14C57.785 243.518 54.5178 243.633 51.4034 244.478C48.289 245.322 45.4112 246.874 42.9933 249.011C40.5754 251.148 38.6825 253.813 37.4616 256.8C36.2406 259.787 35.7245 263.015 35.9532 266.234C36.1819 269.453 37.1494 272.576 38.7804 275.36L38.8404 275.44C39.6504 276.8 40.6604 277.77 41.6804 279.2L53.8804 295.36C54.2337 295.828 54.6908 296.208 55.2157 296.469C55.7406 296.731 56.319 296.867 56.9054 296.867C57.4918 296.867 58.0702 296.731 58.5951 296.469C59.12 296.208 59.5771 295.828 59.9304 295.36L71.9304 279.46C73.0003 278.181 74.0017 276.845 74.9304 275.46V275.4C76.8608 272.182 77.8868 268.503 77.9004 264.75ZM56.9004 273.9C55.0709 273.9 53.2825 273.358 51.7614 272.341C50.2402 271.325 49.0546 269.88 48.3545 268.19C47.6544 266.5 47.4712 264.64 47.8281 262.845C48.185 261.051 49.066 259.403 50.3597 258.109C51.6533 256.816 53.3015 255.935 55.0958 255.578C56.8901 255.221 58.75 255.404 60.4402 256.104C62.1304 256.804 63.5751 257.99 64.5915 259.511C65.6079 261.032 66.1504 262.821 66.1504 264.65C66.1504 265.866 65.9108 267.069 65.4453 268.192C64.9798 269.315 64.2976 270.335 63.4376 271.194C62.5776 272.053 61.5567 272.735 60.4333 273.199C59.3099 273.663 58.106 273.901 56.8904 273.9H56.9004Z" fill="#455A64"/>
<path d="M93.65 106.9C94.0259 112.373 92.7696 117.834 90.0401 122.592C87.3106 127.351 83.2306 131.192 78.3167 133.631C73.4027 136.069 67.8757 136.995 62.4355 136.29C56.9952 135.586 51.8863 133.283 47.7554 129.674C43.6246 126.064 40.6576 121.31 39.2301 116.013C37.8026 110.717 37.9788 105.115 39.7363 99.9188C41.4938 94.7223 44.7537 90.1641 49.1032 86.8212C53.4526 83.4784 58.6962 81.5012 64.17 81.14C67.7971 80.8954 71.437 81.3677 74.8816 82.5299C78.3262 83.6922 81.5082 85.5216 84.2457 87.9137C86.9833 90.3058 89.2228 93.2137 90.8364 96.4714C92.45 99.7291 93.406 103.273 93.65 106.9Z" fill="#3BB3C1"/>
<g opacity="0.3">
<path d="M86.9997 106.68C86.6713 105.875 86.4299 105.037 86.2797 104.18C85.6527 101.947 84.6882 99.8221 83.4197 97.8799C82.5536 96.5591 81.5478 95.3354 80.4197 94.23C79.0918 92.9672 77.6061 91.8815 75.9997 90.9999C75.1405 90.5261 74.2482 90.115 73.3297 89.7699C72.3773 89.4038 71.3976 89.1129 70.3997 88.9C69.3685 88.6791 68.3222 88.5354 67.2697 88.47C66.183 88.4101 65.0934 88.4301 64.0097 88.5299C62.928 88.6467 61.8555 88.8371 60.7997 89.0999C59.7775 89.3626 58.775 89.6968 57.7997 90.0999C56.8673 90.509 55.965 90.9835 55.0997 91.5199C54.2614 92.032 53.4655 92.6106 52.7197 93.2499C51.3284 94.4189 50.0948 95.7635 49.0497 97.25C48.139 98.5486 47.3744 99.9437 46.7697 101.41C45.8941 103.56 45.361 105.835 45.1897 108.15C45.2043 109.019 45.1272 109.887 44.9597 110.74C44.6432 109.908 44.5068 109.018 44.5597 108.13C44.4912 105.706 44.8778 103.291 45.6997 101.01C46.2833 99.4358 47.0556 97.9382 47.9997 96.55C49.0626 94.925 50.3447 93.4545 51.8097 92.18C52.599 91.4821 53.4416 90.8468 54.3297 90.2799C55.2508 89.6794 56.2209 89.1576 57.2297 88.72C58.2705 88.2538 59.3474 87.8725 60.4497 87.58C62.7314 86.9794 65.095 86.7498 67.4497 86.9C68.5872 86.9762 69.7173 87.1401 70.8297 87.3899C71.9007 87.6414 72.9505 87.9757 73.9697 88.3899C74.9498 88.7738 75.8992 89.2318 76.8097 89.76C78.4897 90.7354 80.0331 91.9291 81.3997 93.3099C82.5759 94.5186 83.6063 95.8611 84.4697 97.3099C85.7111 99.3942 86.5586 101.689 86.9697 104.08C87.1674 104.934 87.1776 105.821 86.9997 106.68Z" fill="black"/>
</g>
<g opacity="0.3">
<path d="M69.2099 121.14L69.5099 124.81L66.2299 125.07L65.9999 121.51C63.0775 121.642 60.1768 120.949 57.6299 119.51L59.1099 115.37C61.0951 116.534 63.349 117.161 65.6499 117.19L65.2099 111.72C61.4999 111.13 57.3399 110.24 56.9699 105.56C56.6899 102.09 58.9699 98.91 64.0899 97.9L63.7999 94.27L66.9999 94L67.2899 97.57C69.6434 97.5115 71.9773 98.0118 74.0999 99.03L72.7899 103.19C71.1747 102.424 69.4251 101.983 67.6399 101.89L68.0899 107.46C71.7899 108.02 75.8799 108.91 76.2599 113.52C76.5499 117 74.2999 120.11 69.2099 121.14ZM64.7699 106.94L64.3899 102.29C62.6899 102.82 62.0799 103.82 62.1699 104.91C62.2599 106 63.2899 106.59 64.7699 106.94ZM70.9999 114.37C70.9099 113.23 69.9099 112.68 68.4599 112.3L68.8199 116.82C70.4699 116.33 71.1199 115.42 70.9999 114.37Z" fill="black"/>
</g>
<path d="M44.9197 110.13C44.9797 110.13 45.0497 111.05 45.3697 112.69C45.8483 114.992 46.7067 117.199 47.9097 119.22C48.7375 120.614 49.7168 121.911 50.8297 123.09C52.1316 124.415 53.5928 125.574 55.1797 126.54C56.9391 127.593 58.8424 128.385 60.8297 128.89C62.9679 129.413 65.1716 129.619 67.3697 129.5C69.5624 129.326 71.7183 128.834 73.7697 128.04C75.6698 127.286 77.4514 126.262 79.0597 125C81.8011 122.833 83.9509 120.009 85.3097 116.79C86.2488 114.613 86.8199 112.294 86.9997 109.93C87.0997 108.27 87.0497 107.34 87.1097 107.34C87.1562 107.56 87.1764 107.785 87.1697 108.01C87.2098 108.653 87.2098 109.297 87.1697 109.94C87.0782 112.344 86.5636 114.714 85.6497 116.94C85.0192 118.467 84.221 119.919 83.2697 121.27C82.1436 122.795 80.8338 124.176 79.3697 125.38C77.7381 126.674 75.9297 127.728 73.9997 128.51C69.7895 130.222 65.1392 130.531 60.7397 129.39C58.6971 128.88 56.7398 128.075 54.9297 127C53.3146 126.005 51.8327 124.809 50.5197 123.44C49.3954 122.221 48.4125 120.879 47.5897 119.44C46.3989 117.368 45.5799 115.104 45.1697 112.75C45.0733 112.104 45.0165 111.453 44.9997 110.8C44.9464 110.581 44.9195 110.356 44.9197 110.13Z" fill="#263238"/>
<path d="M79.25 413.07C79.25 413.07 85.96 417.41 89.06 417.26C92.16 417.11 104.35 402 104.35 402L98 397.2L82.36 399.79L79.27 412.93" fill="#263238"/>
<path d="M212.28 191.46C213.607 196.484 213.655 201.761 212.42 206.809C211.185 211.857 208.706 216.515 205.21 220.36C202 223.82 197.91 226.65 195.88 230.91C193.63 235.63 194.36 241.18 193.36 246.32C192.36 251.46 188 256.92 183 255.68C187.74 262.68 194.94 267.79 202.66 271.3C210.38 274.81 218.66 276.87 226.89 278.92C231.47 280.05 236.41 281.17 240.79 279.41C246.46 277.14 249.28 270.91 251.55 265.24L271.33 215.83" fill="#263238"/>
<path d="M279.999 171.76C279.996 169.907 279.297 168.123 278.042 166.76C276.787 165.398 275.066 164.555 273.219 164.4L238.349 148.4C225.759 147.34 213.189 169.87 212.669 182.49C212.089 196.49 213.909 213.37 215.789 223.78C219.569 244.72 233.699 245.12 233.699 245.12L234.899 279L278.659 278.92L279.999 171.76Z" fill="#B5715A"/>
<path d="M221.85 199.24C221.86 199.942 222.143 200.613 222.64 201.11C223.137 201.606 223.807 201.89 224.51 201.9C224.853 201.919 225.196 201.869 225.519 201.753C225.843 201.638 226.14 201.459 226.393 201.227C226.646 200.995 226.851 200.715 226.995 200.403C227.138 200.091 227.218 199.753 227.23 199.41C227.222 198.709 226.94 198.038 226.445 197.541C225.95 197.044 225.281 196.76 224.58 196.75C224.236 196.728 223.891 196.776 223.565 196.891C223.24 197.005 222.941 197.184 222.687 197.416C222.432 197.649 222.227 197.93 222.083 198.243C221.939 198.556 221.86 198.895 221.85 199.24Z" fill="#263238"/>
<path d="M218.4 192.08C218.69 192.33 220.81 191.99 223.64 192.62C226.47 193.25 228.42 194.45 228.76 194.34C228.92 194.29 228.64 193.89 227.76 193.34C226.502 192.583 225.126 192.042 223.69 191.74C222.313 191.419 220.89 191.351 219.49 191.54C218.59 191.7 218.25 192 218.4 192.08Z" fill="#263238"/>
<path d="M249.19 197.84C249.197 198.544 249.48 199.217 249.977 199.716C250.474 200.215 251.146 200.5 251.85 200.51C252.193 200.529 252.536 200.479 252.859 200.363C253.183 200.248 253.48 200.069 253.733 199.837C253.987 199.605 254.191 199.325 254.335 199.013C254.478 198.701 254.558 198.363 254.57 198.02C254.562 197.318 254.281 196.646 253.786 196.148C253.291 195.649 252.622 195.363 251.92 195.35C251.576 195.331 251.232 195.381 250.908 195.496C250.584 195.612 250.287 195.791 250.033 196.023C249.778 196.254 249.573 196.534 249.428 196.847C249.284 197.159 249.202 197.496 249.19 197.84Z" fill="#263238"/>
<path d="M245.22 193.66C245.64 193.76 247.47 192.29 250.49 191.41C253.51 190.53 256.02 190.7 256.28 190.41C256.41 190.27 255.93 190.02 254.83 189.93C253.235 189.836 251.637 190.025 250.11 190.49C248.624 190.887 247.229 191.566 246 192.49C245.21 193.18 245 193.63 245.22 193.66Z" fill="#263238"/>
<path d="M235 213C235 212.83 233.2 212.56 230.27 212.25C229.53 212.19 228.83 212.06 228.69 211.55C228.615 210.788 228.772 210.021 229.14 209.35C229.8 207.54 230.49 205.65 231.21 203.66C234.08 195.57 236.14 188.93 235.81 188.81C235.48 188.69 232.89 195.17 230.02 203.26C229.34 205.26 228.68 207.16 228.02 208.97C227.571 209.875 227.458 210.909 227.7 211.89C227.812 212.165 227.988 212.41 228.215 212.603C228.441 212.796 228.71 212.932 229 213C229.412 213.1 229.835 213.147 230.26 213.14C233.19 213.21 235 213.18 235 213Z" fill="#263238"/>
<path d="M233.699 245.36C243.602 245.305 253.296 242.5 261.699 237.26C261.699 237.26 255.529 252.72 234.469 251.2L233.699 245.36Z" fill="#884C3B"/>
<path d="M235.65 220.05C236.224 219.047 237.014 218.184 237.964 217.525C238.914 216.866 239.999 216.427 241.14 216.24C241.803 216.164 242.475 216.29 243.066 216.602C243.657 216.914 244.139 217.398 244.45 217.99C244.783 218.765 244.924 219.608 244.861 220.449C244.798 221.29 244.534 222.103 244.09 222.82C243.663 223.574 243.024 224.186 242.252 224.581C241.481 224.975 240.611 225.135 239.75 225.04C238.325 224.665 237.044 223.875 236.07 222.77C235.737 222.505 235.476 222.161 235.31 221.77C235.223 221.519 235.195 221.251 235.228 220.988C235.261 220.725 235.354 220.472 235.5 220.25" fill="#884C3B"/>
<path d="M243.6 214.84C243.12 214.84 243.18 217.97 240.54 220.26C237.9 222.55 234.54 222.26 234.54 222.72C234.54 222.92 235.3 223.31 236.72 223.32C238.554 223.301 240.323 222.639 241.72 221.45C243.063 220.298 243.908 218.671 244.08 216.91C244.18 215.59 243.81 214.82 243.6 214.84Z" fill="#263238"/>
<path d="M243 179.89C243.38 180.64 246.21 179.89 249.63 179.89C253.05 179.89 255.9 180.47 256.27 179.71C256.42 179.35 255.86 178.71 254.67 178.05C253.086 177.299 251.353 176.92 249.601 176.941C247.849 176.961 246.124 177.382 244.56 178.17C243.39 178.84 242.84 179.53 243 179.89Z" fill="#263238"/>
<path d="M215.769 188.57C216.419 189.22 218.889 188.47 221.869 188.36C224.849 188.25 227.389 188.67 227.959 187.96C228.199 187.62 227.789 186.96 226.669 186.38C225.117 185.62 223.394 185.276 221.669 185.38C219.961 185.437 218.296 185.936 216.839 186.83C215.819 187.57 215.489 188.26 215.769 188.57Z" fill="#263238"/>
<path d="M301.49 223.65C299.68 214.33 294.02 184.47 285.68 168.9C277.34 153.33 267.81 147.18 258.55 144.9C255.034 143.945 251.332 143.912 247.801 144.806C244.269 145.699 241.028 147.488 238.39 150C234.32 153.82 233.15 164.68 233.15 164.68C233.15 164.68 255.48 169.09 263.25 181.58C272.19 195.92 274.44 203.19 274.44 203.19L277.44 211.08C277.44 211.08 279.8 249.49 279.02 257.08L312.56 269.19C305.36 254.38 303.31 233 301.49 223.65Z" fill="#263238"/>
<path d="M234.519 164.51C234.519 164.51 219.799 163.75 215.439 178.2C213.439 184.74 213.239 203.75 213.239 203.75C213.239 203.75 210.089 188.68 210.569 180.17C211.049 171.66 215.039 160.83 221.409 154.73C227.599 148.8 232.879 145.96 244.209 146.38C244.209 146.38 242.589 149.6 239.799 153.96C238.399 156.15 236.199 156.39 234.519 164.51Z" fill="#263238"/>
<path d="M274.309 204.3C274.439 199.64 279.429 196.42 283.509 198.66C285.749 199.88 287.509 202.41 287.419 207.36C287.189 220.53 274.009 217.58 273.989 217.2C273.999 217 274.169 209.75 274.309 204.3Z" fill="#B5715A"/>
<path d="M278.099 212.28C278.159 212.28 278.329 212.45 278.719 212.63C279.259 212.873 279.872 212.898 280.429 212.7C281.829 212.21 283.039 210.02 283.149 207.7C283.2 206.57 282.999 205.443 282.559 204.4C282.446 203.986 282.232 203.606 281.938 203.294C281.643 202.982 281.276 202.747 280.869 202.61C280.607 202.532 280.325 202.55 280.075 202.66C279.824 202.77 279.62 202.965 279.499 203.21C279.319 203.58 279.399 203.84 279.329 203.86C279.259 203.88 279.049 203.64 279.169 203.1C279.242 202.772 279.43 202.481 279.699 202.28C280.066 202.016 280.522 201.904 280.969 201.97C281.51 202.084 282.011 202.336 282.426 202.7C282.841 203.064 283.156 203.529 283.339 204.05C283.877 205.203 284.128 206.469 284.069 207.74C283.939 210.39 282.529 212.85 280.619 213.37C280.264 213.466 279.892 213.48 279.53 213.413C279.168 213.345 278.826 213.197 278.529 212.98C278.119 212.6 278.059 212.3 278.099 212.28Z" fill="#884C3B"/>
<path d="M249.44 144.49C249.44 144.59 247.94 144.91 245.66 145.92C242.687 147.238 240.129 149.339 238.26 152C236.423 154.68 234.987 157.614 234 160.71C233.2 163.08 232.8 164.59 232.71 164.56C232.728 164.194 232.789 163.832 232.89 163.48C233.03 162.79 233.3 161.81 233.65 160.6C234.548 157.42 235.963 154.41 237.84 151.69C238.9 150.198 240.181 148.876 241.64 147.77C242.833 146.88 244.133 146.144 245.51 145.58C246.034 145.357 246.572 145.167 247.12 145.01C247.525 144.868 247.939 144.754 248.36 144.67C248.71 144.562 249.074 144.502 249.44 144.49Z" fill="#455A64"/>
<path d="M295.649 246.48C295.597 246.392 295.557 246.298 295.529 246.2C295.449 245.99 295.359 245.71 295.229 245.37C294.858 244.294 294.57 243.191 294.369 242.07C293.782 237.931 293.782 233.729 294.369 229.59C294.639 226.96 295.019 224.09 295.269 221.01C295.593 217.741 295.529 214.445 295.079 211.19C294.478 207.615 293.224 204.181 291.379 201.06C289.396 197.705 286.956 194.642 284.129 191.96C278.339 186.39 271.579 182.6 265.479 179.28C259.379 175.96 253.739 173.1 249.279 170.28C245.749 168.062 242.341 165.655 239.069 163.07C237.909 162.15 237.069 161.41 236.449 160.91L235.779 160.33C235.639 160.19 235.559 160.12 235.569 160.11L235.819 160.29C235.999 160.43 236.229 160.6 236.509 160.83L239.199 162.91C241.539 164.69 244.989 167.2 249.479 169.97C253.969 172.74 259.539 175.61 265.709 178.88C271.879 182.15 278.629 185.97 284.489 191.61C287.349 194.327 289.819 197.426 291.829 200.82C293.695 204.002 294.96 207.5 295.559 211.14C295.998 214.433 296.045 217.766 295.699 221.07C295.429 224.17 295.029 227.07 294.699 229.64C294.092 233.755 294.042 237.932 294.549 242.06C294.734 243.175 294.987 244.277 295.309 245.36C295.419 245.71 295.499 245.98 295.559 246.2C295.597 246.291 295.627 246.384 295.649 246.48Z" fill="#455A64"/>
<path d="M84.1096 396.37C84.3403 396.161 84.6038 395.993 84.8896 395.87C85.6408 395.466 86.4275 395.131 87.2396 394.87C89.9379 394.004 92.8139 393.849 95.5896 394.42C98.36 395.003 100.937 396.28 103.08 398.13C103.721 398.685 104.31 399.298 104.84 399.96C105.22 400.44 105.39 400.72 105.36 400.74C105.33 400.76 104.49 399.74 102.84 398.42C100.703 396.685 98.1805 395.488 95.4848 394.931C92.7891 394.374 89.9991 394.473 87.3496 395.22C85.3096 395.8 84.1496 396.46 84.1096 396.37Z" fill="#263238"/>
<path d="M98.5596 388.92C99.2396 389.266 99.858 389.722 100.39 390.27C103.11 392.763 105.031 396.006 105.91 399.59C106.132 400.319 106.237 401.078 106.22 401.84C105.556 399.403 104.606 397.054 103.39 394.84C102.02 392.682 100.398 390.695 98.5596 388.92Z" fill="#263238"/>
<path d="M174.92 474.71C174.92 474.71 185.54 423 208.05 413L297.3 410.38C297.3 410.38 326.79 430.13 331.51 475L174.92 474.71Z" fill="#263238"/>
<path d="M234.14 254.45C234.14 254.45 236.77 271 254.43 269C272.09 267 279 257.13 279 257.13L303.54 265L307.4 312.47C293.406 339.721 285.556 369.708 284.4 400.32C284.2 405.45 284.02 411.08 280.6 414.91C278.5 417.27 275.46 418.56 272.46 419.58C262.907 422.776 252.805 423.998 242.766 423.171C232.727 422.344 222.96 419.486 214.06 414.77C214.06 414.77 206.56 333.55 207.48 331.25C208.4 328.95 220.68 260.62 220.68 260.62L234.14 254.45Z" fill="#E0E0E0"/>
<path d="M208.05 258.2C208.05 258.2 192.45 259.3 188.27 261.39C184.09 263.48 129.4 332.09 127.27 333.14C125.53 334.01 92.9796 364.26 79.5496 393.54C76.8996 399.31 74.8496 407.54 79.2096 413C79.2096 413 94.8896 393.31 104.31 401.95L146.43 359.26L190.43 333.6L208.05 258.2Z" fill="#455A64"/>
<g opacity="0.3">
<path d="M224 392.29C242.52 356.53 242.52 304.71 233.69 257.13L225.77 324.74L224 392.29Z" fill="black"/>
</g>
<path d="M184.06 270.74L185.45 328.74C185.45 328.74 191 393 192.07 393C193.14 393 196.25 415.64 192.07 425.74C187.89 435.84 174.31 449.43 174.31 449.43L191.38 467.89C191.38 467.89 207.38 442.46 212.28 426.09C217.18 409.72 230.74 385 232.83 339C234.92 293 234.06 248.12 234.06 248.12L220.64 257.84L207.74 258.11L184.06 270.74Z" fill="#455A64"/>
<path d="M215 423C215 423 215 422.81 215.14 422.45C215.28 422.09 215.39 421.54 215.59 420.85L217.28 414.68C218.7 409.31 220.71 401.52 222.57 391.77C223.5 386.9 224.39 381.53 225 375.77C225.29 372.87 225.51 369.86 225.58 366.77C225.677 363.584 225.503 360.396 225.06 357.24C224.813 355.61 224.428 354.005 223.91 352.44C223.38 350.85 222.91 349.23 222.2 347.65L221.2 345.25L220.12 342.87C219.42 341.27 218.62 339.69 217.83 338.09C214.63 331.72 210.89 325.33 206.83 318.93C203.33 313.4 199.74 308.07 196.1 303.03L195.96 302.83L196.15 302.68L222.26 281.25L222.43 281.65L199.43 284.3L198.97 284.35L199.26 283.99C205.83 275.99 211.16 269.43 214.85 264.9L219.1 259.73L220.22 258.39C220.48 258.09 220.62 257.95 220.62 257.95L220.26 258.43L219.19 259.8L215 264.93L199.55 284.13L199.38 283.83L222.38 281.1L223.15 281.01L222.55 281.5L196.47 303L196.52 302.65C200.17 307.7 203.76 313.03 207.27 318.57C211.27 324.98 215.07 331.38 218.27 337.79C219.07 339.39 219.87 340.97 220.57 342.59L221.65 344.98L222.65 347.39C223.33 348.98 223.83 350.61 224.37 352.21C224.887 353.802 225.272 355.434 225.52 357.09C225.961 360.273 226.129 363.488 226.02 366.7C225.95 369.82 225.72 372.84 225.42 375.75C224.79 381.57 223.88 386.94 222.93 391.82C221.01 401.58 218.93 409.36 217.47 414.72C216.72 417.39 216.11 419.46 215.68 420.86C215.46 421.54 215.3 422.07 215.18 422.45C215.06 422.83 215 423 215 423Z" fill="#263238"/>
<path d="M279 242.89C279 242.89 287.64 256.21 288.54 257.13C288.54 257.13 325.04 267.46 327.2 271.81C336.08 289.75 328.91 296.2 327.2 320.86C325.07 351.51 314.81 394.17 314.81 394.17C314.81 394.17 329.25 449.82 330.81 452.89C332.37 455.96 281.66 474.61 276.28 467.59C270.9 460.57 266.69 436.39 266.69 436.39C266.69 436.39 261.69 387.26 263.62 367.69C265.55 348.12 274.62 328 277.82 304.36C281.08 279.38 279 242.89 279 242.89Z" fill="#455A64"/>
<path d="M265.449 380C265.46 379.757 265.497 379.515 265.559 379.28C265.669 378.77 265.809 378.09 265.979 377.28C266.149 376.47 266.419 375.28 266.689 374.07C266.959 372.86 267.519 371.45 268.009 369.92C270.813 361.992 274.617 354.454 279.329 347.49C284.036 340.53 289.343 333.995 295.189 327.96C297.439 325.65 299.339 323.86 300.689 322.66C301.359 322.06 301.909 321.66 302.279 321.32C302.464 321.165 302.665 321.031 302.879 320.92C302.879 320.92 299.879 323.54 295.459 328.21C289.711 334.301 284.464 340.845 279.769 347.78C275.088 354.704 271.254 362.163 268.349 370C267.849 371.52 267.349 372.89 266.969 374.11C266.589 375.33 266.399 376.4 266.179 377.29C265.959 378.18 265.789 378.79 265.659 379.29C265.607 379.531 265.536 379.769 265.449 380Z" fill="#263238"/>
<path d="M288.5 257.75C288.648 257.962 288.772 258.19 288.87 258.43C289.11 258.93 289.43 259.6 289.87 260.43C290.7 262.23 291.87 264.75 293.32 267.84C294.047 269.413 294.833 271.12 295.68 272.96L297 275.81C297.44 276.81 297.94 277.81 298.31 278.87C299.91 283.15 301.67 287.87 303.52 292.76L307.66 303.88L307.76 304.15L307.48 304.21L297.73 306.32L297.87 306.02L302.77 316.78C303.32 318.04 303.77 319.05 304.1 319.78L304.43 320.58C304.475 320.668 304.505 320.762 304.52 320.86C304.46 320.783 304.409 320.699 304.37 320.61L303.98 319.84L302.55 316.89L297.49 306.2L297.37 305.96L297.64 305.9L307.37 303.73L307.2 304.06L303 293C301.17 288.07 299.43 283.38 297.84 279.11C297.47 278.02 296.98 277.03 296.54 276.04L295.26 273.18L293 268C291.63 264.89 290.5 262.35 289.7 260.54L288.83 258.54C288.698 258.287 288.587 258.022 288.5 257.75Z" fill="#263238"/>
<path d="M312.529 387.94C312.529 387.94 331.199 406.61 340.799 405.54C350.399 404.47 362.939 383.67 362.939 376.47C362.939 369.27 353.939 322.85 353.939 322.85L357.669 305.38L322.669 304.71L315.669 358.52L312.529 387.94Z" fill="#455A64"/>
<path d="M335.24 263.22C335.215 263.354 335.175 263.485 335.12 263.61L334.7 264.72L334 266.52C333.69 267.22 333.35 268.03 332.95 268.93C332.14 270.74 331.08 272.93 329.75 275.41C328.42 277.89 326.75 280.64 324.75 283.56C320.047 290.421 314.478 296.646 308.18 302.08C304.477 305.307 300.495 308.198 296.28 310.72C291.754 313.466 286.808 315.449 281.64 316.59C276.438 317.719 271.041 317.589 265.9 316.21C263.463 315.534 261.131 314.524 258.97 313.21C256.91 311.933 255.047 310.363 253.44 308.55C250.57 305.146 248.104 301.421 246.09 297.45C244.09 293.8 242.27 290.37 240.75 287.17C239.363 284.295 238.158 281.335 237.14 278.31C236.384 276.022 235.796 273.683 235.38 271.31C235.017 269.288 234.857 267.234 234.9 265.18C234.91 265.316 234.91 265.454 234.9 265.59C234.9 265.88 234.9 266.27 234.97 266.77C235.081 268.282 235.272 269.788 235.54 271.28C235.988 273.637 236.603 275.96 237.38 278.23C238.424 281.23 239.646 284.165 241.04 287.02C242.58 290.2 244.42 293.61 246.43 297.25C248.438 301.186 250.894 304.877 253.75 308.25C255.335 310.02 257.168 311.552 259.19 312.8C261.315 314.081 263.607 315.063 266 315.72C271.061 317.068 276.371 317.191 281.49 316.08C286.603 314.947 291.497 312.988 295.98 310.28C300.172 307.778 304.137 304.914 307.83 301.72C314.111 296.325 319.679 290.152 324.4 283.35C326.4 280.45 328.06 277.7 329.46 275.27C330.86 272.84 331.89 270.64 332.73 268.85C333.14 267.95 333.5 267.15 333.82 266.46L334.56 264.68L335.03 263.59C335.085 263.459 335.156 263.335 335.24 263.22Z" fill="#263238"/>
<path d="M327.849 264.5C327.673 264.734 327.476 264.952 327.259 265.15L325.519 266.93L318.999 273.4L309.369 283C307.438 284.877 305.32 286.552 303.049 288C300.596 289.598 297.8 290.594 294.889 290.91C291.959 291.254 288.994 290.685 286.399 289.28C285.204 288.602 284.156 287.69 283.32 286.599C282.483 285.509 281.874 284.261 281.529 282.93C280.939 280.553 280.663 278.109 280.709 275.66C280.709 273.38 280.789 271.26 280.829 269.32C281.015 266.278 280.8 263.226 280.189 260.24C279.978 259.442 279.693 258.666 279.339 257.92C279.208 257.66 279.091 257.393 278.989 257.12C279.16 257.355 279.307 257.607 279.429 257.87C279.831 258.606 280.149 259.384 280.379 260.19C281.076 263.184 281.352 266.26 281.199 269.33C281.199 271.27 281.109 273.39 281.139 275.66C281.115 278.063 281.401 280.46 281.989 282.79C282.322 284.059 282.905 285.248 283.706 286.288C284.506 287.327 285.507 288.195 286.649 288.84C289.156 290.182 292.015 290.723 294.839 290.39C297.669 290.081 300.388 289.116 302.779 287.57C305.027 286.139 307.124 284.484 309.039 282.63C310.899 280.89 312.559 279.1 314.209 277.54C315.859 275.98 317.369 274.48 318.759 273.13L325.379 266.77L327.189 265.06C327.398 264.86 327.618 264.673 327.849 264.5Z" fill="#263238"/>
<path d="M195.41 400.43C195.377 400.343 195.357 400.252 195.35 400.16L195.23 399.35C195.14 398.6 195.01 397.55 194.84 396.23C194.5 393.47 194.02 389.56 193.43 384.74C192.25 375.04 190.58 361.63 189.01 346.8C188.22 339.38 187.56 332.31 187.01 325.86C186.46 319.41 186.11 313.61 185.9 308.72C185.76 306.28 185.69 304.07 185.63 302.13C185.57 300.19 185.52 298.52 185.52 297.13C185.52 295.74 185.52 294.74 185.52 293.98V293.17C185.511 293.077 185.511 292.983 185.52 292.89C185.533 292.98 185.533 293.07 185.52 293.16C185.52 293.38 185.52 293.65 185.57 293.98C185.57 294.74 185.61 295.79 185.69 297.13C185.69 298.49 185.79 300.13 185.89 302.13C185.99 304.13 186.08 306.28 186.23 308.71C186.49 313.59 186.94 319.39 187.46 325.83C187.98 332.27 188.69 339.34 189.46 346.76C191.04 361.58 192.65 374.99 193.73 384.7C194.25 389.53 194.73 393.46 194.98 396.21C195.11 397.54 195.21 398.59 195.28 399.35C195.28 399.683 195.3 399.953 195.34 400.16C195.378 400.245 195.402 400.337 195.41 400.43Z" fill="#263238"/>
<path d="M357.709 305.38H355.149L347.969 305.31L322.669 304.93L322.909 304.74C321.489 312.25 320.339 320.81 319.449 329.86C317.869 346.47 317.209 361.57 316.399 372.48C316.009 377.94 315.639 382.35 315.399 385.39C315.249 386.89 315.119 388.06 315.039 388.9C314.989 389.27 314.959 389.57 314.929 389.81C314.923 389.911 314.906 390.012 314.879 390.11C314.866 390.007 314.866 389.903 314.879 389.8C314.879 389.57 314.879 389.26 314.929 388.89C314.999 388.05 315.089 386.89 315.199 385.38C315.429 382.38 315.739 377.91 316.079 372.46C316.799 361.55 317.399 346.46 318.989 329.81C319.869 320.74 321.039 312.17 322.499 304.65V304.45H322.699L347.989 305.02L355.179 305.22L357.079 305.29H357.569C357.659 305.36 357.709 305.37 357.709 305.38Z" fill="#263238"/>
<path d="M349.16 318.06C350.673 318.06 351.9 316.833 351.9 315.32C351.9 313.807 350.673 312.58 349.16 312.58C347.647 312.58 346.42 313.807 346.42 315.32C346.42 316.833 347.647 318.06 349.16 318.06Z" fill="#E0E0E0"/>
<path d="M351.899 315.32C351.827 315.107 351.767 314.89 351.719 314.67C351.541 314.113 351.191 313.627 350.719 313.28C350.376 313.035 349.977 312.879 349.558 312.825C349.14 312.771 348.714 312.821 348.319 312.97C347.841 313.149 347.429 313.471 347.138 313.891C346.847 314.31 346.691 314.809 346.691 315.32C346.691 315.831 346.847 316.33 347.138 316.749C347.429 317.169 347.841 317.491 348.319 317.67C348.715 317.818 349.141 317.866 349.56 317.81C349.978 317.755 350.377 317.596 350.719 317.35C351.193 317.005 351.543 316.518 351.719 315.96C351.766 315.743 351.826 315.529 351.899 315.32C351.899 315.32 351.989 315.56 351.899 316.01C351.768 316.657 351.414 317.237 350.899 317.65C350.513 317.959 350.054 318.165 349.565 318.247C349.077 318.329 348.576 318.285 348.109 318.12C347.544 317.902 347.057 317.518 346.714 317.018C346.37 316.519 346.187 315.926 346.187 315.32C346.187 314.714 346.37 314.121 346.714 313.622C347.057 313.122 347.544 312.738 348.109 312.52C348.576 312.355 349.077 312.311 349.565 312.393C350.054 312.475 350.513 312.681 350.899 312.99C351.415 313.398 351.769 313.976 351.899 314.62C351.999 315.07 351.929 315.32 351.899 315.32Z" fill="#263238"/>
<path d="M271.28 402.4C272.793 402.4 274.02 401.173 274.02 399.66C274.02 398.147 272.793 396.92 271.28 396.92C269.767 396.92 268.54 398.147 268.54 399.66C268.54 401.173 269.767 402.4 271.28 402.4Z" fill="#E0E0E0"/>
<path d="M273.999 399.66C273.999 399.66 273.939 399.42 273.809 399.02C273.63 398.463 273.281 397.976 272.809 397.63C272.434 397.355 271.989 397.19 271.525 397.153C271.062 397.116 270.597 397.207 270.182 397.418C269.767 397.629 269.418 397.95 269.175 398.347C268.932 398.743 268.803 399.2 268.803 399.665C268.803 400.13 268.932 400.586 269.175 400.983C269.418 401.379 269.767 401.701 270.182 401.912C270.597 402.122 271.062 402.214 271.525 402.177C271.989 402.139 272.434 401.974 272.809 401.7C273.281 401.353 273.63 400.867 273.809 400.31C273.939 399.91 273.949 399.66 273.999 399.66C274.062 399.889 274.062 400.131 273.999 400.36C273.873 401.006 273.518 401.585 272.999 401.99C272.615 402.3 272.158 402.507 271.672 402.591C271.185 402.675 270.685 402.633 270.219 402.47C269.65 402.254 269.16 401.87 268.814 401.369C268.468 400.868 268.283 400.274 268.283 399.665C268.283 399.056 268.468 398.462 268.814 397.961C269.16 397.46 269.65 397.076 270.219 396.86C270.685 396.697 271.185 396.655 271.672 396.739C272.158 396.823 272.615 397.03 272.999 397.34C273.518 397.745 273.873 398.324 273.999 398.97C274.063 399.195 274.063 399.434 273.999 399.66Z" fill="#263238"/>
<path d="M279.69 441.41C279.69 441.954 279.528 442.486 279.226 442.938C278.924 443.39 278.495 443.743 277.992 443.951C277.49 444.159 276.937 444.213 276.403 444.107C275.87 444.001 275.38 443.739 274.995 443.355C274.611 442.97 274.349 442.48 274.243 441.947C274.136 441.413 274.191 440.86 274.399 440.358C274.607 439.855 274.96 439.426 275.412 439.123C275.864 438.821 276.396 438.66 276.94 438.66C277.669 438.66 278.369 438.95 278.884 439.465C279.4 439.981 279.69 440.681 279.69 441.41Z" fill="#E0E0E0"/>
<path d="M279.69 441.41C279.64 441.41 279.63 441.16 279.5 440.76C279.325 440.201 278.974 439.714 278.5 439.37C278.21 439.15 277.876 438.994 277.521 438.915C277.165 438.835 276.797 438.833 276.441 438.909C276.084 438.985 275.749 439.137 275.457 439.355C275.165 439.572 274.923 439.851 274.748 440.17C274.574 440.49 274.47 440.843 274.444 441.206C274.419 441.57 274.472 441.934 274.601 442.275C274.729 442.616 274.929 442.925 275.188 443.181C275.447 443.438 275.758 443.635 276.1 443.76C276.495 443.908 276.921 443.956 277.34 443.9C277.759 443.845 278.157 443.686 278.5 443.44C278.976 443.099 279.328 442.61 279.5 442.05C279.63 441.65 279.64 441.4 279.69 441.41C279.754 441.636 279.754 441.874 279.69 442.1C279.567 442.747 279.211 443.327 278.69 443.73C278.304 444.04 277.845 444.247 277.357 444.331C276.869 444.415 276.368 444.373 275.9 444.21C275.331 443.994 274.841 443.61 274.495 443.109C274.149 442.608 273.964 442.014 273.964 441.405C273.964 440.796 274.149 440.202 274.495 439.701C274.841 439.2 275.331 438.816 275.9 438.6C276.368 438.437 276.869 438.395 277.357 438.479C277.845 438.563 278.304 438.77 278.69 439.08C279.211 439.483 279.567 440.063 279.69 440.71C279.752 440.939 279.752 441.181 279.69 441.41Z" fill="#263238"/>
<path d="M354 322.85C354 323 346.82 322.78 338 322.38C329.18 321.98 322 321.53 322 321.38C322 321.23 329.18 321.45 338 321.86C346.82 322.27 354 322.71 354 322.85Z" fill="#263238"/>
<path d="M195.77 376.41L185.45 380.53L163 324.35C161.741 321.198 159.874 318.325 157.505 315.895C155.136 313.465 152.311 311.525 149.193 310.187C146.074 308.848 142.722 308.137 139.329 308.094C135.935 308.051 132.566 308.676 129.415 309.935C126.263 311.194 123.39 313.061 120.96 315.43C118.53 317.799 116.59 320.623 115.251 323.742C113.913 326.861 113.202 330.212 113.159 333.606C113.115 336.999 113.741 340.368 115 343.52L137.45 399.7L127.13 403.83L104.67 347.65C102.869 343.145 101.974 338.329 102.034 333.478C102.095 328.627 103.111 323.836 105.023 319.377C106.935 314.919 109.707 310.88 113.18 307.493C116.653 304.106 120.76 301.435 125.265 299.635C129.77 297.835 134.585 296.939 139.436 297C144.287 297.06 149.079 298.076 153.538 299.988C162.542 303.851 169.644 311.132 173.28 320.23L195.77 376.41Z" fill="#E0E0E0"/>
<path d="M195.77 376.41L195.31 375.29L194 372L189 359.52C186.82 354.1 184.15 347.52 181.06 339.8C179.513 335.96 177.867 331.86 176.12 327.5C174.29 323.19 172.81 318.39 169.97 314.03C167.025 309.44 163.075 305.58 158.42 302.74C157.81 302.37 157.21 301.99 156.59 301.64L154.65 300.69C153.351 300.067 152.015 299.523 150.65 299.06C149.96 298.8 149.23 298.66 148.52 298.45C147.81 298.24 147.09 298.02 146.35 297.92C144.864 297.624 143.361 297.423 141.85 297.32C138.757 297.088 135.647 297.236 132.59 297.76L130.28 298.3L129.12 298.57L127.98 298.95L125.7 299.74C124.95 300.03 124.23 300.4 123.49 300.74C117.39 303.579 112.198 308.055 108.49 313.67C105.536 318.122 103.593 323.166 102.797 328.449C102 333.732 102.37 339.125 103.88 344.25C104.98 347.73 106.48 351.16 107.88 354.65L125.13 397.81L127.49 403.7L127.15 403.56L137.47 399.43L137.33 399.77C132.86 388.6 128.5 377.66 124.25 367.04L117.99 351.34L114.93 343.69C113.94 341.146 113.323 338.471 113.1 335.75C112.749 330.428 114.029 325.125 116.77 320.55C117.073 319.985 117.407 319.438 117.77 318.91L118.92 317.37C120.559 315.431 122.449 313.719 124.54 312.28C125.06 311.92 125.61 311.63 126.15 311.28L126.95 310.81L127.8 310.42C130.017 309.354 132.374 308.607 134.8 308.2C137.158 307.828 139.555 307.764 141.93 308.01C146.499 308.543 150.848 310.267 154.54 313.01C158.036 315.544 160.817 318.941 162.61 322.87C162.82 323.34 163.04 323.81 163.25 324.27C163.46 324.73 163.63 325.22 163.81 325.69L164.93 328.48C165.657 330.333 166.377 332.143 167.09 333.91L174.85 353.4C179.51 365.16 183.16 374.4 185.59 380.48L185.49 380.43L193.29 377.36L195.2 376.62L195.84 376.38L195.24 376.64C194.82 376.81 194.24 377.06 193.36 377.41L185.55 380.57H185.48V380.5C183.02 374.4 179.33 365.22 174.61 353.5C172.25 347.63 169.61 341.12 166.79 334.03L164.62 328.61C164.25 327.69 163.87 326.76 163.5 325.82L162.93 324.4C162.72 323.94 162.51 323.48 162.29 323.02C161.412 321.132 160.31 319.356 159.01 317.73C157.632 316.078 156.061 314.597 154.33 313.32C150.684 310.644 146.403 308.965 141.91 308.45C139.578 308.217 137.225 308.284 134.91 308.65C132.536 309.058 130.231 309.795 128.06 310.84L127.23 311.22L126.44 311.69C125.92 312.01 125.37 312.3 124.86 312.64C123.84 313.344 122.867 314.116 121.95 314.95C121.021 315.788 120.152 316.69 119.35 317.65L118.22 319.17C117.82 319.67 117.54 320.24 117.22 320.77C114.536 325.267 113.284 330.474 113.63 335.7C113.857 338.369 114.463 340.992 115.43 343.49C116.43 346.02 117.43 348.58 118.5 351.15L124.77 366.84L137.86 399.57L137.96 399.81L137.72 399.91C134.36 401.24 130.91 402.63 127.4 404.03L127.15 404.13L127.06 403.89L124.7 397.99C118.79 383.21 113.03 368.77 107.46 354.83C106.09 351.33 104.6 347.94 103.46 344.38C102.457 340.844 101.952 337.185 101.96 333.51C102.045 329.91 102.613 326.338 103.65 322.89C104.723 319.54 106.24 316.348 108.16 313.4C111.906 307.723 117.149 303.192 123.31 300.31C124.07 299.98 124.8 299.61 125.56 299.31L127.86 298.52C128.25 298.4 128.63 298.25 129.01 298.14L130.19 297.87L132.53 297.33C135.626 296.796 138.777 296.648 141.91 296.89C143.435 296.996 144.952 297.203 146.45 297.51C147.192 297.646 147.927 297.823 148.65 298.04C149.37 298.26 150.11 298.4 150.8 298.66C152.196 299.137 153.565 299.691 154.9 300.32L156.9 301.32C157.52 301.67 158.13 302.07 158.74 302.43C163.439 305.312 167.423 309.224 170.39 313.87C173.25 318.3 174.72 323.12 176.54 327.45L181.46 339.81C184.52 347.52 187.15 354.16 189.31 359.59L194.24 372.07L195.52 375.31C195.64 376 195.77 376.41 195.77 376.41Z" fill="#263238"/>
<path d="M190.199 337.892L111.773 369.244C106.64 371.296 104.142 377.121 106.194 382.255L130.371 442.731C132.423 447.865 138.248 450.362 143.381 448.31L221.807 416.958C226.94 414.906 229.438 409.081 227.386 403.948L203.209 343.471C201.157 338.338 195.332 335.84 190.199 337.892Z" fill="#3BB3C1"/>
<g opacity="0.3">
<path d="M189.846 338.033L112.126 369.103C106.798 371.233 104.205 377.279 106.335 382.608L130.23 442.379C132.36 447.707 138.406 450.299 143.734 448.169L221.454 417.099C226.782 414.969 229.375 408.923 227.245 403.595L203.35 343.824C201.22 338.496 195.174 335.903 189.846 338.033Z" fill="black"/>
</g>
<path d="M178.8 342.448L107.329 371.019C102.211 373.065 99.7211 378.873 101.767 383.991L125.966 444.523C128.012 449.641 133.82 452.131 138.938 450.085L210.408 421.514C215.526 419.468 218.016 413.66 215.97 408.542L191.772 348.01C189.726 342.892 183.918 340.402 178.8 342.448Z" fill="#3BB3C1"/>
<g opacity="0.3">
<path d="M168.57 384.31C167.757 382.25 166.386 380.459 164.61 379.137C162.834 377.815 160.724 377.015 158.518 376.827C156.312 376.639 154.097 377.071 152.124 378.074C150.15 379.076 148.495 380.611 147.346 382.503C146.197 384.395 145.599 386.571 145.62 388.785C145.641 390.999 146.279 393.163 147.463 395.034C148.648 396.904 150.331 398.407 152.323 399.373C154.315 400.339 156.538 400.729 158.74 400.5L164.13 414C164.452 414.797 165.077 415.434 165.868 415.772C166.659 416.109 167.551 416.119 168.35 415.8C168.745 415.642 169.105 415.409 169.41 415.112C169.715 414.815 169.959 414.461 170.127 414.07C170.295 413.679 170.384 413.259 170.39 412.833C170.396 412.408 170.317 411.985 170.16 411.59L164.76 398.09C166.807 396.52 168.287 394.325 168.974 391.839C169.662 389.352 169.52 386.709 168.57 384.31Z" fill="black"/>
</g>
<path d="M216.74 410.38C216.6 410.43 211.05 396.68 204.34 379.67C197.63 362.66 192.28 348.82 192.42 348.77C192.56 348.72 198.1 362.47 204.82 379.48C211.54 396.49 216.87 410.33 216.74 410.38Z" fill="#263238"/>
<path d="M167.73 399.23C168.818 398.099 169.765 396.84 170.55 395.48C171.359 393.989 171.901 392.368 172.15 390.69C172.491 388.644 172.337 386.546 171.702 384.572C171.067 382.597 169.969 380.803 168.5 379.34C167.327 378.107 165.946 377.091 164.42 376.34C162.986 375.697 161.483 375.224 159.94 374.93C160.368 374.905 160.798 374.932 161.22 375.01C162.378 375.182 163.506 375.518 164.57 376.01C166.165 376.739 167.612 377.756 168.84 379.01C170.38 380.516 171.53 382.375 172.189 384.426C172.848 386.478 172.995 388.659 172.62 390.78C172.346 392.505 171.753 394.163 170.87 395.67C170.29 396.689 169.566 397.619 168.72 398.43C168.425 398.738 168.092 399.007 167.73 399.23Z" fill="#263238"/>
<path d="M168.2 349.47C168.25 349.6 156.25 354.71 141.39 360.88C126.53 367.05 114.39 371.95 114.39 371.82C114.39 371.69 126.34 366.58 141.21 360.4C156.08 354.22 168.14 349.34 168.2 349.47Z" fill="white"/>
<path d="M148.51 399.23C148.239 399.098 147.989 398.926 147.77 398.72C147.15 398.198 146.586 397.611 146.09 396.97C144.4 394.851 143.399 392.266 143.22 389.562C143.041 386.857 143.694 384.163 145.09 381.84C145.503 381.141 145.989 380.488 146.54 379.89C146.725 379.655 146.948 379.452 147.2 379.29C147.28 379.36 146.37 380.29 145.41 382.02C144.144 384.309 143.561 386.914 143.729 389.524C143.898 392.135 144.81 394.642 146.36 396.75C147.56 398.38 148.57 399.15 148.51 399.23Z" fill="white"/>
<path d="M154.999 402.71C154.999 402.86 154.219 402.85 153.309 402.71C152.399 402.57 151.669 402.32 151.699 402.17C151.729 402.02 152.479 402.04 153.389 402.17C154.299 402.3 154.999 402.57 154.999 402.71Z" fill="white"/>
<path d="M122.7 303C122.135 303.364 121.551 303.698 120.95 304C119.366 304.911 117.858 305.947 116.44 307.1C111.056 311.525 107.234 317.561 105.535 324.32C103.835 331.079 104.349 338.205 107 344.65C107.49 345.85 107.8 346.5 107.76 346.52C107.653 346.381 107.562 346.23 107.49 346.07C107.33 345.77 107.07 345.33 106.81 344.73C106.041 343.051 105.432 341.303 104.99 339.51C103.467 333.553 103.721 327.281 105.72 321.467C107.719 315.653 111.376 310.551 116.24 306.79C117.689 305.647 119.243 304.642 120.88 303.79C121.46 303.48 121.93 303.29 122.24 303.15C122.388 303.085 122.542 303.035 122.7 303Z" fill="white"/>
<path d="M110.809 356.53C110.209 355.679 109.75 354.737 109.449 353.74C108.992 352.796 108.695 351.782 108.569 350.74C109.179 351.586 109.639 352.529 109.929 353.53C110.385 354.475 110.683 355.488 110.809 356.53Z" fill="white"/>
<g opacity="0.3">
<path d="M185.63 297.44C181.14 310.29 183.36 324.74 188.36 337.44C188.36 337.4 185.75 310.89 185.63 297.44Z" fill="black"/>
</g>
<g opacity="0.3">
<path d="M264.25 391.25C269.2 380.07 274.16 368.85 280.54 358.42C286.92 347.99 294.54 338.08 304.29 330.75C306.93 328.75 311.86 325.03 311.86 325.03C311.86 325.03 310.54 322.53 309.24 320.46C307.74 318.06 305.24 313.9 303.92 311.85L309.77 313.02C309.77 313.02 305.77 303.8 305.88 304.42C303.266 305.101 300.62 305.645 297.95 306.05C300 310.95 302.18 315.38 304.23 320.28C293.23 329.03 284.23 340.04 276.69 351.68C269.15 363.32 263.93 376.83 264.2 390.68" fill="black"/>
</g>
<path d="M285.16 215.76C285.29 215.65 285.6 215.76 285.95 216.15C286.42 216.754 286.66 217.505 286.63 218.27C286.63 218.821 286.514 219.367 286.29 219.87C286.013 220.48 285.59 221.012 285.06 221.42C284.456 221.897 283.739 222.209 282.979 222.327C282.218 222.444 281.441 222.362 280.721 222.089C280.002 221.816 279.366 221.361 278.875 220.769C278.384 220.177 278.055 219.467 277.92 218.71C277.802 218.111 277.823 217.494 277.98 216.905C278.138 216.315 278.429 215.77 278.83 215.31C279.315 214.722 279.991 214.322 280.74 214.18C281.27 214.11 281.56 214.24 281.6 214.41C281.68 214.77 280.82 215.23 280.35 216.35C280.086 216.918 280.05 217.566 280.25 218.16C280.349 218.501 280.527 218.815 280.768 219.076C281.01 219.337 281.309 219.538 281.642 219.663C281.975 219.788 282.332 219.834 282.686 219.797C283.04 219.76 283.38 219.641 283.68 219.45C284.224 219.144 284.629 218.638 284.81 218.04C285.19 216.89 284.85 216 285.16 215.76Z" fill="#E0E0E0"/>
<path d="M104.569 429.48C104.569 429.48 107.979 440.48 109.739 442.69C111.499 444.9 123.269 446.09 123.269 446.09L104.569 429.48Z" fill="#B5715A"/>
<path d="M118.67 412L125.2 417.24L144.58 432.18C144.58 432.18 144.46 435.78 140.1 434.96C136.56 434.29 128.71 429.96 128.71 429.96C128.71 429.96 137.93 438.62 138.25 442.67V443.41C138.242 444.307 137.883 445.165 137.25 445.8L126.48 438.61C126.48 438.61 128.79 442.67 131.06 446.88C131.401 447.726 131.512 448.647 131.382 449.55C131.252 450.452 130.886 451.305 130.32 452.02L106.32 431.89L106.17 416.89L118.62 411.99" fill="#B5715A"/>
<path d="M116.119 421.4C116.428 421.42 116.731 421.487 117.019 421.6C117.299 421.7 117.629 421.85 118.019 422.02C118.409 422.19 118.809 422.44 119.269 422.7C121.089 423.78 123.399 425.53 125.959 427.45C128.102 429.117 130.358 430.633 132.709 431.99C134.539 432.99 135.779 433.37 135.709 433.46C135.404 433.439 135.104 433.372 134.819 433.26C134.479 433.161 134.145 433.041 133.819 432.9C133.375 432.731 132.941 432.538 132.519 432.32C130.087 431.047 127.774 429.558 125.609 427.87C123.049 425.94 120.789 424.15 119.039 423.01L117.849 422.28L116.909 421.79C116.631 421.693 116.365 421.562 116.119 421.4Z" fill="#884C3B"/>
<path d="M113.92 428.71C114.658 429.062 115.356 429.495 116 430C117.23 430.85 118.89 432.09 120.66 433.53C122.43 434.97 123.98 436.34 125.07 437.37C125.693 437.886 126.253 438.474 126.74 439.12C126.05 438.698 125.407 438.206 124.82 437.65L120.33 433.93L115.78 430.29C115.108 429.827 114.485 429.298 113.92 428.71Z" fill="#884C3B"/>
<path d="M81.5501 410.38C81.3801 410.57 81.63 410.93 81.79 411.27C84.4 416.72 106.79 432.2 106.79 432.2L119 411.39C119 411.39 127.87 415.68 131.51 414.69C134.51 413.87 140.15 413.26 137.51 408C137.51 408 125 405.7 120.75 403.87C116.5 402.04 113.84 401.09 113.84 401.09C108.986 401.205 104.137 400.725 99.4 399.66C99.4 399.66 91.9201 398.61 81.5501 410.38Z" fill="#B5715A"/>
<path d="M129.75 451.53C128.757 450.862 127.812 450.127 126.92 449.33C125.08 447.84 122.76 445.95 120.18 443.87C117.6 441.79 115.18 439.76 113.54 438.28C112.71 437.55 112.05 436.94 111.6 436.51C111.35 436.303 111.128 436.064 110.94 435.8C111.936 436.466 112.885 437.202 113.78 438L120.51 443.46C123.14 445.6 125.51 447.57 127.15 449.05C127.98 449.78 128.65 450.39 129.09 450.82C129.53 451.25 129.78 451.51 129.75 451.53Z" fill="#884C3B"/>
<path d="M339.62 229.68L347.33 230.89L348.26 225L345.26 224.53L345.68 221.85L342.9 221.41L343.27 219.06L346.48 219.56L346.8 217.56L341.66 216.75L341.78 215.98C341.821 215.494 341.669 215.011 341.356 214.636C341.044 214.262 340.595 214.026 340.11 213.98C339.626 213.949 339.148 214.104 338.776 214.415C338.404 214.726 338.165 215.168 338.11 215.65C336.616 225.183 335.12 234.707 333.62 244.22L332.42 251.84C329.927 251.908 327.55 252.904 325.754 254.634C323.958 256.363 322.873 258.702 322.712 261.19C322.551 263.678 323.325 266.136 324.882 268.083C326.44 270.03 328.669 271.325 331.132 271.714C333.594 272.103 336.114 271.558 338.195 270.185C340.277 268.813 341.771 266.712 342.384 264.296C342.997 261.879 342.686 259.32 341.51 257.122C340.334 254.923 338.38 253.242 336.03 252.41C337.19 245.077 338.346 237.743 339.5 230.41L339.62 229.68ZM340.05 262.97C339.82 264.421 339.166 265.772 338.169 266.851C337.173 267.93 335.879 268.69 334.451 269.034C333.022 269.378 331.524 269.291 330.145 268.784C328.767 268.277 327.569 267.372 326.704 266.185C325.84 264.997 325.346 263.58 325.287 262.112C325.227 260.644 325.604 259.191 326.37 257.938C327.136 256.684 328.256 255.685 329.589 255.068C330.922 254.451 332.408 254.243 333.86 254.47C334.827 254.622 335.755 254.964 336.589 255.475C337.424 255.986 338.15 256.658 338.725 257.45C339.3 258.242 339.713 259.141 339.941 260.093C340.168 261.045 340.205 262.033 340.05 263V262.97Z" fill="#E0E0E0"/>
<path d="M340.049 263C340.109 261.942 339.997 260.882 339.719 259.86C339.378 258.702 338.748 257.649 337.889 256.8C336.795 255.69 335.371 254.964 333.829 254.73L333.959 254.3L335.509 254.98L333.829 254.73C332.518 254.528 331.176 254.693 329.952 255.207C328.728 255.721 327.671 256.563 326.896 257.641C326.122 258.718 325.661 259.99 325.564 261.313C325.468 262.637 325.739 263.961 326.349 265.14C326.988 266.412 328 267.458 329.249 268.14C330.301 268.729 331.483 269.046 332.688 269.061C333.893 269.077 335.083 268.791 336.149 268.23C337.604 267.458 338.764 266.228 339.449 264.73C339.68 264.168 339.88 263.594 340.049 263.01C340.071 263.166 340.071 263.324 340.049 263.48C339.974 263.935 339.85 264.381 339.679 264.81C339.04 266.401 337.871 267.722 336.369 268.55C335.478 269.039 334.498 269.345 333.487 269.45C332.477 269.555 331.455 269.457 330.482 269.162C329.51 268.866 328.606 268.38 327.824 267.73C327.042 267.081 326.398 266.282 325.929 265.38C325.277 264.122 324.987 262.707 325.091 261.294C325.195 259.88 325.689 258.524 326.518 257.374C327.347 256.225 328.479 255.328 329.787 254.784C331.096 254.239 332.53 254.068 333.929 254.29L333.799 254.72L332.179 253.98L333.929 254.29C335.557 254.559 337.053 255.353 338.189 256.55C339.063 257.461 339.689 258.579 340.009 259.8C340.208 260.577 340.282 261.38 340.229 262.18C340.2 262.459 340.14 262.734 340.049 263Z" fill="#263238"/>
<path d="M339.619 229.68C339.619 229.68 339.619 229.92 339.539 230.4C339.259 232.57 338.049 240.56 336.219 252.4L336.109 252.2C338.408 253.062 340.312 254.735 341.461 256.905C342.611 259.074 342.927 261.589 342.349 263.975C341.771 266.361 340.34 268.454 338.326 269.857C336.311 271.26 333.853 271.878 331.414 271.593C328.976 271.307 326.726 270.14 325.09 268.31C323.453 266.479 322.543 264.113 322.531 261.658C322.52 259.203 323.407 256.829 325.026 254.983C326.645 253.138 328.884 251.948 331.319 251.64C331.689 251.58 332.059 251.57 332.419 251.54L332.169 251.76C333.449 243.68 334.679 235.89 335.829 228.59C336.409 224.94 336.969 221.41 337.509 218.03C337.639 217.18 337.779 216.35 337.909 215.52C337.977 215.059 338.195 214.634 338.53 214.31C338.864 213.987 339.297 213.783 339.759 213.73C340.212 213.687 340.667 213.795 341.053 214.037C341.438 214.279 341.732 214.643 341.889 215.07C342.018 215.487 342.018 215.933 341.889 216.35V216.64V216.72L341.459 216.66V216.6V216.46L341.559 215.88L341.979 215.95L341.859 216.72L341.679 216.48L346.819 217.3H347.019V217.5C346.899 218.22 346.799 218.88 346.689 219.5V219.69H346.499L343.289 219.17L343.499 219.02C343.359 219.87 343.239 220.63 343.119 221.37L342.969 221.17L345.759 221.62H345.919V221.79C345.759 222.79 345.619 223.63 345.479 224.46L345.349 224.28L348.349 224.77H348.489V224.91C348.116 227.15 347.782 229.113 347.489 230.8V230.91H347.379L341.689 229.91L340.199 229.65L339.689 229.55H340.169L341.639 229.76L347.419 230.6L347.289 230.69C347.549 229 347.839 227.04 348.179 224.8L348.299 224.96L345.299 224.51H345.149V224.36L345.559 221.68L345.699 221.87L342.919 221.44H342.739V221.27C342.849 220.52 342.969 219.76 343.099 218.91V218.73H343.279L346.499 219.22L346.269 219.38C346.379 218.73 346.479 218.07 346.589 217.38L346.759 217.61L341.609 216.81H341.399V216.6L341.519 215.82L341.939 215.89L341.849 216.47V216.61V216.67C340.989 216.53 341.619 216.67 341.419 216.59V216.52V216.23C341.525 215.885 341.525 215.516 341.419 215.17C341.297 214.835 341.066 214.549 340.764 214.359C340.461 214.169 340.105 214.085 339.749 214.12C339.384 214.161 339.043 214.324 338.78 214.581C338.517 214.838 338.348 215.176 338.299 215.54L337.909 218.04L336.259 228.61C335.119 235.91 333.889 243.7 332.629 251.78V251.98H332.409C332.069 251.98 331.709 251.98 331.359 252.07C329.371 252.343 327.516 253.222 326.047 254.589C324.578 255.956 323.567 257.743 323.152 259.707C322.737 261.67 322.939 263.713 323.73 265.558C324.52 267.402 325.861 268.957 327.569 270.01C329.681 271.32 332.215 271.771 334.649 271.27C336.736 270.831 338.622 269.722 340.022 268.114C341.422 266.505 342.259 264.484 342.406 262.356C342.553 260.229 342.002 258.112 340.837 256.326C339.671 254.54 337.956 253.183 335.949 252.46L335.809 252.41V252.26C337.709 240.42 339.019 232.44 339.409 230.26C339.569 229.87 339.619 229.68 339.619 229.68Z" fill="#263238"/>
<path d="M322.639 258.66L334.999 255.41L341.419 256.23C342.003 256.308 342.558 256.532 343.031 256.882C343.505 257.231 343.883 257.695 344.129 258.23L348.289 267.29C348.289 267.29 354.289 272.29 353.599 275.29C352.909 278.29 347.339 305.21 347.339 305.21L330.769 304.71C327.871 301.118 326.128 296.732 325.769 292.13C325.589 288.35 327.029 286.04 326.669 284.04C326.429 282.67 327.279 280.23 327.669 278.35L328.169 276.53L327.069 277.06C326.597 277.29 326.077 277.406 325.551 277.398C325.026 277.391 324.509 277.259 324.044 277.015C323.579 276.77 323.177 276.42 322.873 275.992C322.568 275.564 322.368 275.07 322.289 274.55C322.284 274.454 322.284 274.357 322.289 274.26C322.235 273.195 322.407 272.131 322.795 271.138C323.183 270.145 323.777 269.246 324.539 268.5L330.789 262.36C330.789 262.36 323.879 266.3 322.639 258.66Z" fill="#B5715A"/>
<path d="M343.669 273.69C343.282 273.697 342.896 273.653 342.519 273.56L339.449 273.01L334.899 272.13C334.049 271.97 333.149 271.74 332.239 271.66C331.795 271.587 331.339 271.621 330.909 271.758C330.48 271.895 330.089 272.132 329.769 272.45C329.231 273.208 328.887 274.087 328.769 275.01C328.569 275.94 328.379 276.83 328.199 277.69C327.812 279.166 327.541 280.671 327.389 282.19C327.364 282.689 327.458 283.186 327.666 283.64C327.873 284.095 328.186 284.492 328.579 284.8C328.886 284.998 329.224 285.144 329.579 285.23C329.481 285.258 329.377 285.258 329.279 285.23C328.984 285.205 328.699 285.109 328.449 284.95C327.996 284.651 327.625 284.242 327.372 283.761C327.118 283.28 326.99 282.743 326.999 282.2C327.09 280.645 327.324 279.102 327.699 277.59C327.869 276.73 328.049 275.83 328.239 274.91C328.379 273.889 328.778 272.922 329.399 272.1C329.773 271.724 330.231 271.442 330.736 271.279C331.24 271.115 331.776 271.075 332.299 271.16C333.215 271.275 334.123 271.442 335.019 271.66L339.539 272.66L342.539 273.37C342.928 273.431 343.307 273.539 343.669 273.69Z" fill="#884C3B"/>
<path d="M337.229 287.37C337.229 287.37 337.229 287.88 336.599 288.37C336.197 288.645 335.716 288.782 335.229 288.76C334.613 288.728 334.003 288.61 333.419 288.41C331.829 288.007 330.431 287.058 329.469 285.73C328.99 284.843 328.732 283.853 328.718 282.845C328.704 281.836 328.935 280.84 329.389 279.94C329.777 278.989 330.296 278.098 330.929 277.29C331.262 276.89 331.693 276.583 332.179 276.4C332.652 276.254 333.152 276.219 333.639 276.3C335.2 276.62 336.722 277.106 338.179 277.75C339.161 278.165 340.113 278.646 341.029 279.19C341.395 279.362 341.732 279.587 342.029 279.86C342.029 279.94 340.569 279.06 338.079 278.09C336.637 277.511 335.144 277.069 333.619 276.77C333.204 276.707 332.779 276.742 332.379 276.87C331.987 277.034 331.643 277.296 331.379 277.63C330.788 278.398 330.304 279.242 329.939 280.14C329.516 280.965 329.296 281.878 329.296 282.805C329.296 283.732 329.516 284.645 329.939 285.47C330.827 286.722 332.114 287.635 333.589 288.06C334.14 288.268 334.714 288.406 335.299 288.47C335.734 288.509 336.17 288.415 336.549 288.2C336.847 287.99 337.083 287.703 337.229 287.37Z" fill="#884C3B"/>
<path d="M337.07 285.57C337.07 285.63 336.78 285.8 336.22 285.86C335.49 285.934 334.754 285.793 334.102 285.456C333.45 285.119 332.911 284.599 332.55 283.96C332.28 283.48 332.24 283.13 332.3 283.11C332.36 283.09 332.97 284.29 334.35 284.99C335.215 285.341 336.136 285.537 337.07 285.57Z" fill="#884C3B"/>
<path d="M338.27 288.92C338.19 289.03 337.41 288.57 336.85 287.64C336.29 286.71 336.22 285.8 336.36 285.79C336.5 285.78 336.78 286.53 337.29 287.37C337.8 288.21 338.37 288.8 338.27 288.92Z" fill="#884C3B"/>
<path d="M337.94 298.09C337.25 296.68 336.916 295.123 336.967 293.554C337.017 291.985 337.451 290.453 338.23 289.09C337.876 290.56 337.628 292.054 337.49 293.56C337.53 295.079 337.68 296.593 337.94 298.09Z" fill="#884C3B"/>
<path d="M337.63 289.9C336.178 290.473 334.856 291.33 333.74 292.42C332.624 293.51 331.736 294.813 331.13 296.25C331.119 295.771 331.229 295.296 331.45 294.87C331.895 293.808 332.547 292.846 333.37 292.04C334.191 291.236 335.168 290.607 336.24 290.19C336.67 289.974 337.149 289.874 337.63 289.9Z" fill="#884C3B"/>
<path d="M332.55 269.31C332.7 269.31 332.78 269.82 332.61 270.4C332.44 270.98 332.11 271.4 331.98 271.3C331.85 271.2 331.98 270.78 332.11 270.3C332.24 269.82 332.41 269.3 332.55 269.31Z" fill="#884C3B"/>
<path d="M347.249 269.49C346.387 269.127 345.56 268.685 344.779 268.17C343.279 267.31 341.239 266.08 339.009 264.69C337.985 264.026 336.9 263.46 335.769 263C334.852 262.642 333.873 262.472 332.889 262.5C331.98 262.563 331.093 262.808 330.279 263.22C330.279 263.22 330.439 262.99 330.869 262.74C331.483 262.393 332.166 262.184 332.869 262.13C333.908 262.052 334.951 262.195 335.929 262.55C337.104 262.994 338.227 263.564 339.279 264.25C341.519 265.63 343.529 266.91 344.969 267.86C345.776 268.335 346.539 268.88 347.249 269.49Z" fill="#884C3B"/>
<path d="M339.61 230C339.685 227.731 339.933 225.472 340.35 223.24C340.591 220.983 341.012 218.75 341.61 216.56C341.533 218.829 341.286 221.089 340.87 223.32C340.621 225.576 340.2 227.809 339.61 230Z" fill="#263238"/>
<g opacity="0.3">
<path d="M341.61 216.9C342.136 218.997 342.237 221.179 341.905 223.316C341.573 225.452 340.817 227.501 339.68 229.34C340.4 225.69 341.12 220.75 341.61 216.9Z" fill="black"/>
</g>
<path d="M452.34 395.21C450.013 392.969 447.159 391.35 444.042 390.502C440.924 389.654 437.644 389.605 434.502 390.36C431.361 391.114 428.46 392.647 426.067 394.818C423.674 396.988 421.866 399.727 420.81 402.78L423.09 411.6C423.96 408.6 425.82 405.69 428.69 404.45C431.56 403.21 435.14 403.9 438.2 405.01C441.26 406.12 444.26 407.6 447.51 407.8C450.76 408 454.42 406.46 455.39 403.36C456.3 400.44 454.54 397.33 452.34 395.21Z" fill="#3BB3C1"/>
<g opacity="0.3">
<path d="M452.34 395.21C450.013 392.969 447.159 391.35 444.042 390.502C440.924 389.654 437.644 389.605 434.502 390.36C431.361 391.114 428.46 392.647 426.067 394.818C423.674 396.988 421.866 399.727 420.81 402.78L423.09 411.6C423.96 408.6 425.82 405.69 428.69 404.45C431.56 403.21 435.14 403.9 438.2 405.01C441.26 406.12 444.26 407.6 447.51 407.8C450.76 408 454.42 406.46 455.39 403.36C456.3 400.44 454.54 397.33 452.34 395.21Z" fill="black"/>
</g>
<path d="M397.36 424.64C392.6 420.12 392.84 412.24 395.21 406.11C397.58 399.98 402.78 395.28 408.57 392.18C414.226 389.209 420.482 387.558 426.867 387.35C433.253 387.142 439.602 388.383 445.44 390.98C442.582 391.104 439.798 391.926 437.331 393.375C434.864 394.823 432.79 396.854 431.29 399.29C428.68 403.63 428.1 408.89 425.94 413.47C423.511 418.636 419.194 422.674 413.877 424.752C408.56 426.83 402.648 426.79 397.36 424.64Z" fill="#3BB3C1"/>
<path d="M395.07 397.45C389.8 391.22 389.07 381.23 389.87 373.1C390.67 364.97 392.53 356.81 391.25 348.75C390.49 343.97 388.64 339.41 388.02 334.62C387.4 329.83 388.28 324.4 392.02 321.31C396.29 317.75 403.02 318.59 407.45 321.93C411.88 325.27 414.45 330.52 416.35 335.75C420.48 347.23 422 359.97 418.6 371.7C415.2 383.43 407.25 393.91 395.6 397.45" fill="#3BB3C1"/>
<path d="M392.54 448.54C392.525 448.3 392.525 448.06 392.54 447.82C392.54 447.35 392.54 446.66 392.54 445.76C392.61 443.98 392.78 441.39 393.18 438.22C393.64 434.519 394.308 430.846 395.18 427.22C396.26 422.75 397.942 418.447 400.18 414.43C402.44 410.425 405.206 406.728 408.41 403.43C411.026 400.735 413.922 398.328 417.05 396.25C418.36 395.34 419.64 394.65 420.74 394.01C421.84 393.37 422.84 392.94 423.65 392.55L425.55 391.75C425.764 391.642 425.988 391.558 426.22 391.5C426.014 391.623 425.8 391.734 425.58 391.83L423.72 392.7C422.93 393.11 421.96 393.62 420.85 394.22C419.74 394.82 418.52 395.59 417.22 396.51C410.344 401.197 404.642 407.408 400.56 414.66C395.71 423.14 394.38 432.06 393.42 438.31C392.98 441.47 392.76 444.04 392.64 445.82C392.59 446.68 392.55 447.37 392.52 447.87C392.547 448.092 392.554 448.316 392.54 448.54Z" fill="#263238"/>
<path d="M347 372.89C337.24 378.78 337.28 384.14 338.9 389.19C340.52 394.24 346.52 397.77 351.49 395.87C354.3 394.8 356.33 392.36 358.07 389.87C359.81 387.38 361.44 384.79 363.87 383.03C365.545 381.79 367.613 381.2 369.69 381.37L347 372.89Z" fill="#3BB3C1"/>
<g opacity="0.3">
<path d="M347 372.89C337.24 378.78 337.28 384.14 338.9 389.19C340.52 394.24 346.52 397.77 351.49 395.87C354.3 394.8 356.33 392.36 358.07 389.87C359.81 387.38 361.44 384.79 363.87 383.03C365.545 381.79 367.613 381.2 369.69 381.37L347 372.89Z" fill="black"/>
</g>
<path d="M339.58 379.61C342.13 376.09 348.44 375.06 352.42 376.82C356.4 378.58 359.32 382.07 361.93 385.56C364.54 389.05 367.08 392.72 370.69 395.14C374.3 397.56 379.36 398.44 382.96 396C384.11 395.144 385.073 394.062 385.79 392.82C386.507 391.579 386.963 390.204 387.13 388.78C387.446 385.931 387.25 383.049 386.55 380.27C385.69 376.18 384.29 371.91 381.01 369.27C377.36 366.38 372.3 366.27 367.64 366.39C362.29 366.57 356.87 366.97 351.85 368.82C346.83 370.67 341.71 374.67 339.58 379.58" fill="#3BB3C1"/>
<path d="M384.43 440.72C384.43 440.72 384.43 440.65 384.43 440.51V439.88C384.43 439.29 384.38 438.48 384.35 437.46C384.29 435.32 384.2 432.28 384.09 428.55C383.98 424.82 383.82 420.31 383.55 415.35C383.28 410.39 382.9 404.92 382.15 399.24C381.834 396.474 381.292 393.738 380.53 391.06C379.016 386.35 376.71 381.933 373.71 378C372.456 376.388 371.079 374.877 369.59 373.48C367.412 371.463 364.949 369.778 362.28 368.48C361.81 368.26 361.39 368.05 361.02 367.9L360.02 367.53L359.44 367.29C359.31 367.23 359.24 367.2 359.25 367.19L359.45 367.25L360.05 367.44L361.05 367.78C361.43 367.92 361.85 368.12 362.34 368.33C365.053 369.579 367.561 371.231 369.78 373.23C371.295 374.626 372.696 376.141 373.97 377.76C375.428 379.642 376.717 381.65 377.82 383.76C379.038 386.07 380.042 388.487 380.82 390.98C381.596 393.676 382.144 396.432 382.46 399.22C383.22 404.93 383.57 410.39 383.83 415.36C384.09 420.33 384.2 424.82 384.28 428.58C384.36 432.34 384.39 435.39 384.4 437.49V439.92C384.4 440.17 384.4 440.38 384.4 440.55C384.416 440.605 384.426 440.662 384.43 440.72Z" fill="#263238"/>
<path d="M387.94 445.13C387.48 443.762 387.122 442.361 386.87 440.94C386.198 437.054 386.05 433.095 386.43 429.17C387.024 423.352 388.272 417.619 390.15 412.08C392.15 405.8 394.87 399.08 397.15 391.87C398.295 388.365 399.23 384.796 399.95 381.18C400.606 377.814 401.084 374.416 401.38 371C401.821 365.198 401.924 359.374 401.69 353.56C401.52 348.56 401.26 344.56 401.09 341.79C401.01 340.42 400.95 339.35 400.9 338.59C400.9 338.24 400.9 337.97 400.9 337.76V337.47C400.93 337.56 400.947 337.655 400.95 337.75C400.95 337.96 400.95 338.24 401.03 338.58C401.09 339.34 401.18 340.41 401.3 341.78C401.52 344.55 401.83 348.57 402.04 353.54C402.323 359.372 402.25 365.217 401.82 371.04C401.549 374.479 401.091 377.901 400.45 381.29C399.731 384.923 398.796 388.509 397.65 392.03C395.32 399.27 392.59 405.98 390.57 412.24C388.689 417.752 387.415 423.452 386.77 429.24C386.369 433.144 386.473 437.083 387.08 440.96C387.32 442.33 387.54 443.39 387.73 444.09C387.82 444.43 387.88 444.7 387.93 444.9C387.94 444.976 387.944 445.053 387.94 445.13Z" fill="#263238"/>
<path d="M418.42 442.67H360.21L358.88 431.46H418.42V442.67Z" fill="#455A64"/>
<path d="M366.46 441.39L373.73 475H405.36L412.17 441.39H366.46Z" fill="#455A64"/>
<path d="M418.41 442.67C418.41 442.82 405.62 442.91 389.84 442.86C374.06 442.81 361.25 442.66 361.25 442.51C361.25 442.36 374.05 442.26 389.84 442.31C405.63 442.36 418.42 442.51 418.41 442.67Z" fill="#455A64"/>
<path d="M409 457C407.368 455.771 405.604 454.728 403.74 453.89C401.712 453.023 399.551 452.505 397.35 452.36C394.648 452.301 391.96 452.773 389.44 453.75C386.889 454.752 384.281 455.604 381.63 456.3C379.403 456.686 377.127 456.686 374.9 456.3C373.397 456.065 371.938 455.607 370.57 454.94C370.205 454.745 369.854 454.524 369.52 454.28C369.3 454.11 369.18 454.02 369.2 454C369.22 453.98 369.71 454.3 370.67 454.74C372.05 455.352 373.507 455.776 375 456C377.183 456.313 379.402 456.269 381.57 455.87C384.188 455.143 386.768 454.285 389.3 453.3C391.885 452.295 394.648 451.826 397.42 451.92C401.2 452.224 404.811 453.613 407.82 455.92C408.146 456.172 408.456 456.442 408.75 456.73C408.91 456.9 409 457 409 457Z" fill="white"/>
<path d="M418.93 442.71C418.93 442.87 405.84 442.99 389.69 442.99C373.54 442.99 360.45 442.87 360.45 442.71C360.45 442.55 373.54 442.44 389.69 442.44C405.84 442.44 418.93 442.56 418.93 442.71Z" fill="#263238"/>
</svg>

