<svg width="26" height="27" viewBox="0 0 26 27" fill="none" xmlns="http://www.w3.org/2000/svg">
<path d="M15.138 18.8293C15.3789 18.94 15.6504 18.9653 15.9076 18.901C16.1649 18.8368 16.3925 18.6868 16.5532 18.4758L16.9673 17.9333C17.1847 17.6436 17.4665 17.4083 17.7905 17.2463C18.1145 17.0843 18.4717 17 18.834 17H22.334C22.9528 17 23.5463 17.2458 23.9839 17.6834C24.4215 18.121 24.6673 18.7145 24.6673 19.3333V22.8333C24.6673 23.4522 24.4215 24.0457 23.9839 24.4833C23.5463 24.9208 22.9528 25.1667 22.334 25.1667C16.7644 25.1667 11.423 22.9542 7.48474 19.0159C3.54648 15.0777 1.33398 9.73622 1.33398 4.16668C1.33398 3.54784 1.57982 2.95435 2.0174 2.51676C2.45499 2.07918 3.04848 1.83334 3.66732 1.83334H7.16732C7.78616 1.83334 8.37965 2.07918 8.81723 2.51676C9.25482 2.95435 9.50065 3.54784 9.50065 4.16668V7.66668C9.50065 8.02892 9.41631 8.38618 9.25432 8.71018C9.09232 9.03417 8.85711 9.316 8.56732 9.53334L8.02132 9.94284C7.80714 10.1064 7.65617 10.339 7.59407 10.6013C7.53197 10.8635 7.56257 11.1391 7.68065 11.3813C9.27511 14.6199 11.8975 17.2389 15.138 18.8293Z" stroke="white" stroke-width="1.83333" stroke-linecap="round" stroke-linejoin="round"/>
</svg>

