<svg width="68" height="72" viewBox="0 0 68 72" fill="none" xmlns="http://www.w3.org/2000/svg">
<path d="M47.5202 36.0391L47.253 39.0259C47.2327 39.2639 47.1399 39.49 46.9872 39.6737C46.8346 39.8574 46.6293 39.99 46.399 40.0535C45.2536 40.3738 44.1548 40.8372 43.1267 41.4351C42.9192 41.5561 42.6794 41.6104 42.4399 41.5903C42.2005 41.5703 41.9731 41.477 41.7885 41.3232L39.4685 39.3799L35.8696 42.9787L37.8106 45.3102C37.9645 45.4947 38.0578 45.7222 38.0778 45.9616C38.0978 46.2011 38.0436 46.4408 37.9225 46.6484C37.3303 47.6753 36.8754 48.7668 36.5592 49.9092C36.4957 50.1395 36.3632 50.3448 36.1795 50.4975C35.9957 50.6502 35.7697 50.7429 35.5317 50.7633L32.5288 51.0396V56.1227L35.5225 56.399C35.758 56.4207 35.9815 56.5132 36.1633 56.6645C36.3451 56.8157 36.4768 57.0186 36.541 57.2462C36.8606 58.3885 37.3268 59.4905 37.9225 60.5163C38.0416 60.7228 38.0946 60.9607 38.0746 61.1983C38.0546 61.4358 37.9625 61.6616 37.8106 61.8453L35.8696 64.1859L39.4685 67.7847L41.7977 65.8323C41.9814 65.6804 42.2071 65.5883 42.4447 65.5683C42.6822 65.5483 42.9202 65.6014 43.1267 65.7204C44.1528 66.3132 45.2571 66.7759 46.399 67.0928C46.6262 67.1574 46.8286 67.2892 46.9794 67.471C47.1302 67.6528 47.2224 67.876 47.2439 68.1113L47.5202 71.1141H52.6125L52.8888 68.1021C52.9098 67.8678 53.001 67.6452 53.1505 67.4635C53.3 67.2818 53.5009 67.1494 53.7268 67.0837C54.8584 66.7602 55.947 66.2992 56.9626 65.7044C57.1692 65.5821 57.4085 65.5263 57.6479 65.5447C57.8873 65.5631 58.1153 65.6547 58.3008 65.8072L60.6642 67.7847L64.2631 64.1859L62.3221 61.8453C62.1687 61.6625 62.075 61.4373 62.0533 61.1997C62.0317 60.9622 62.0832 60.7237 62.201 60.5163C62.7929 59.4907 63.257 58.3964 63.5734 57.2554C63.636 57.026 63.767 56.8212 63.949 56.6682C64.1309 56.5152 64.3552 56.4213 64.5919 56.399L67.6039 56.1227V51.0396L64.5736 50.7633C64.3372 50.7412 64.1132 50.6476 63.9312 50.495C63.7493 50.3425 63.6181 50.1382 63.5552 49.9092C63.2367 48.7769 62.7727 47.6911 62.1828 46.6735C62.065 46.4661 62.0134 46.2276 62.0351 45.99C62.0567 45.7525 62.1505 45.5272 62.3038 45.3445L64.2631 42.9787L60.6642 39.3799L58.3259 41.33C58.1413 41.4839 57.9139 41.5772 57.6745 41.5972C57.435 41.6172 57.1952 41.563 56.9877 41.4419C55.9648 40.8408 54.8677 40.3699 53.7268 40.0444C53.4992 39.9802 53.2964 39.8485 53.1451 39.6667C52.9939 39.4849 52.9013 39.2614 52.8797 39.0259L52.6125 36.0391H47.5202ZM50.0663 45.3947C54.5725 45.3947 58.2482 49.0704 58.2482 53.5766C58.2482 58.0827 54.5725 61.7676 50.0663 61.7676C45.5602 61.7676 41.8844 58.0827 41.8844 53.5766C41.8844 49.0705 45.5602 45.3947 50.0663 45.3947ZM50.0663 47.7353C46.8239 47.7353 44.2228 50.3342 44.2228 53.5766C44.2228 56.819 46.8239 59.4293 50.0663 59.4293C53.3088 59.4293 55.9099 56.819 55.9099 53.5766C55.9099 50.3342 53.3088 47.7353 50.0663 47.7353Z" fill="url(#paint0_linear_2012_7418)"/>
<path d="M0.956543 31.0898C0.983453 31.1061 1.00933 31.124 1.03647 31.1401C2.38035 31.9344 4.17573 32.5877 6.35938 33.1336C10.7267 34.2254 16.6369 34.8759 23.173 34.8759C29.7092 34.8759 35.6262 34.2254 39.9935 33.1336C42.1772 32.5877 43.9749 31.9344 45.3187 31.1401C45.3417 31.1265 45.3644 31.1127 45.3872 31.099V34.4147C45.3372 34.5284 45.3056 34.6495 45.2936 34.7732L44.983 38.13C44.2135 38.3892 43.47 38.7004 42.7475 39.0708L40.142 36.9037C39.9182 36.7181 39.6332 36.6224 39.3427 36.6355C39.0523 36.6486 38.7771 36.7695 38.5709 36.9745L33.4603 42.0828C33.2543 42.2881 33.1322 42.5628 33.1179 42.8533C33.1035 43.1438 33.1979 43.4292 33.3827 43.6538L35.5589 46.2685C35.1936 46.9872 34.8805 47.7303 34.6249 48.4949L31.2522 48.8055C30.9614 48.8323 30.6913 48.9669 30.4948 49.1829C30.2983 49.3988 30.1897 49.6804 30.1903 49.9724V54.4824C27.9805 54.6581 25.622 54.7518 23.173 54.7518C16.7949 54.7518 11.0169 54.1019 6.92113 53.078C4.87323 52.566 3.24883 51.9492 2.22619 51.3448C1.20354 50.7403 0.956543 50.2504 0.956543 50.0751V31.0898Z" fill="url(#paint1_linear_2012_7418)"/>
<path d="M0.956543 8.88086C0.983453 8.89711 1.00933 8.91506 1.03647 8.9311C2.38035 9.72542 4.17573 10.3696 6.35938 10.9155C10.7267 12.0073 16.6369 12.6601 23.173 12.6601C29.7092 12.6601 35.6262 12.0073 39.9935 10.9155C42.1772 10.3696 43.9749 9.72542 45.3187 8.9311C45.3417 8.91752 45.3644 8.90372 45.3872 8.88999V27.857C45.3872 28.0323 45.1517 28.5222 44.129 29.1267C43.1064 29.7311 41.4728 30.3502 39.4249 30.8621C35.3291 31.8861 29.5512 32.536 23.173 32.536C16.7949 32.536 11.0169 31.8861 6.92113 30.8621C4.87323 30.3502 3.24883 29.7311 2.22619 29.1267C1.20354 28.5222 0.956543 28.0323 0.956543 27.857V8.88086Z" fill="url(#paint2_linear_2012_7418)"/>
<path d="M23.173 0.964844C29.5512 0.964844 35.3291 1.62386 39.4249 2.64781C41.4728 3.15978 43.1064 3.76971 44.129 4.37416C45.1517 4.97861 45.3872 5.46853 45.3872 5.6438C45.3872 5.81908 45.1517 6.309 44.129 6.91345C43.1064 7.5179 41.4728 8.13467 39.4249 8.64665C35.3291 9.6706 29.5512 10.3205 23.173 10.3205C16.7949 10.3205 11.0169 9.6706 6.92113 8.64665C4.87323 8.13467 3.24883 7.5179 2.22619 6.91345C1.20354 6.309 0.956543 5.81908 0.956543 5.6438C0.956543 5.46853 1.20354 4.97861 2.22619 4.37416C3.24883 3.76971 4.87323 3.15978 6.92113 2.64781C11.0169 1.62386 16.7949 0.964844 23.173 0.964844Z" fill="url(#paint3_linear_2012_7418)"/>
<defs>
<linearGradient id="paint0_linear_2012_7418" x1="32.5288" y1="53.1869" x2="67.6877" y2="53.7946" gradientUnits="userSpaceOnUse">
<stop stop-color="#3134DB"/>
<stop offset="1" stop-color="#009EE1"/>
</linearGradient>
<linearGradient id="paint1_linear_2012_7418" x1="0.956543" y1="42.6579" x2="45.4598" y2="44.1022" gradientUnits="userSpaceOnUse">
<stop stop-color="#3134DB"/>
<stop offset="1" stop-color="#009EE1"/>
</linearGradient>
<linearGradient id="paint2_linear_2012_7418" x1="0.956543" y1="20.4456" x2="45.4598" y2="21.8903" gradientUnits="userSpaceOnUse">
<stop stop-color="#3134DB"/>
<stop offset="1" stop-color="#009EE1"/>
</linearGradient>
<linearGradient id="paint3_linear_2012_7418" x1="0.956543" y1="5.53871" x2="45.2085" y2="9.17104" gradientUnits="userSpaceOnUse">
<stop stop-color="#3134DB"/>
<stop offset="1" stop-color="#009EE1"/>
</linearGradient>
</defs>
</svg>
