<svg width="54" height="55" viewBox="0 0 54 55" fill="none" xmlns="http://www.w3.org/2000/svg">
<path d="M15.032 21.7441H23.626V54.1722H15.032V21.7441Z" fill="url(#paint0_linear_2012_7445)"/>
<path d="M29.8137 28.6191H38.4077V54.172H29.8137V28.6191Z" fill="url(#paint1_linear_2012_7445)"/>
<path d="M44.5952 16.4727H53.1892V54.1718H44.5952V16.4727Z" fill="url(#paint2_linear_2012_7445)"/>
<path d="M0.250488 34.0039H8.84451V54.1712H0.250488V34.0039Z" fill="url(#paint3_linear_2012_7445)"/>
<path d="M48.5966 0.544922C46.1935 0.544922 44.2455 2.49164 44.2455 4.89304C44.2455 5.45509 44.3533 5.9917 44.5477 6.48476L36.1618 13.6285C35.5465 13.2954 34.8417 13.1062 34.0927 13.1062C32.8491 13.1062 31.7282 13.6283 30.9353 14.4643L23.6962 11.4994C23.6967 11.4714 23.6983 11.4435 23.6983 11.4152C23.6983 9.01381 21.7502 7.06709 19.3471 7.06709C16.944 7.06709 14.996 9.01381 14.996 11.4152C14.996 11.6582 15.0169 11.8962 15.0553 12.1284L7.53436 16.5752C6.79378 15.9917 5.85967 15.6426 4.8434 15.6426C2.44028 15.6426 0.492188 17.5893 0.492188 19.9907C0.492188 22.3921 2.44028 24.3388 4.8434 24.3388C7.24651 24.3388 9.19449 22.3921 9.19449 19.9907C9.19449 19.7476 9.17364 19.5096 9.13525 19.2775L16.6562 14.8307C17.3967 15.4142 18.3309 15.7633 19.3472 15.7633C20.5908 15.7633 21.7117 15.2412 22.5047 14.4052L29.7438 17.3701C29.7433 17.3981 29.7416 17.426 29.7416 17.4542C29.7416 19.8556 31.6897 21.8023 34.0929 21.8023C36.496 21.8023 38.444 19.8556 38.444 17.4542C38.444 16.951 38.3574 16.4683 38.2001 16.0187L46.6785 8.7961C47.2573 9.08062 47.908 9.24115 48.5967 9.24115C50.9998 9.24115 52.9479 7.29444 52.9479 4.89304C52.9479 2.49164 50.9997 0.544922 48.5966 0.544922V0.544922Z" fill="url(#paint4_linear_2012_7445)"/>
<defs>
<linearGradient id="paint0_linear_2012_7445" x1="15.032" y1="37.5979" x2="23.6489" y2="37.6373" gradientUnits="userSpaceOnUse">
<stop stop-color="#3134DB"/>
<stop offset="1" stop-color="#009EE1"/>
</linearGradient>
<linearGradient id="paint1_linear_2012_7445" x1="29.8137" y1="41.1117" x2="38.4306" y2="41.1617" gradientUnits="userSpaceOnUse">
<stop stop-color="#3134DB"/>
<stop offset="1" stop-color="#009EE1"/>
</linearGradient>
<linearGradient id="paint2_linear_2012_7445" x1="44.5952" y1="34.9033" x2="53.2122" y2="34.9373" gradientUnits="userSpaceOnUse">
<stop stop-color="#3134DB"/>
<stop offset="1" stop-color="#009EE1"/>
</linearGradient>
<linearGradient id="paint3_linear_2012_7445" x1="0.250488" y1="43.8635" x2="8.86715" y2="43.9269" gradientUnits="userSpaceOnUse">
<stop stop-color="#3134DB"/>
<stop offset="1" stop-color="#009EE1"/>
</linearGradient>
<linearGradient id="paint4_linear_2012_7445" x1="0.492188" y1="12.1775" x2="53.0127" y2="14.1787" gradientUnits="userSpaceOnUse">
<stop stop-color="#3134DB"/>
<stop offset="1" stop-color="#009EE1"/>
</linearGradient>
</defs>
</svg>
