<svg width="65" height="65" viewBox="0 0 65 65" fill="none" xmlns="http://www.w3.org/2000/svg">
<path d="M45.7998 58.1729C42.496 58.1729 39.3562 57.4813 36.506 56.2461L29.6482 63.1039H51.9636C53.3246 63.1039 54.4291 61.9994 54.4291 60.6384V56.5099C51.7565 57.5725 48.8509 58.1729 45.7998 58.1729Z" fill="url(#paint0_linear_2012_7437)"/>
<path d="M51.9639 0.232422H2.65351C1.29254 0.232422 0.187988 1.33697 0.187988 2.69794V60.6376C0.187988 61.9986 1.29254 63.1031 2.65351 63.1031H5.24353L24.3045 44.0434C23.0692 41.1933 22.3777 38.0535 22.3777 34.7497C22.3777 21.8143 32.8647 11.3273 45.8001 11.3273C48.8512 11.3273 51.7568 11.9276 54.4294 12.9902V2.69794C54.4294 1.33697 53.3248 0.232422 51.9639 0.232422ZM19.9121 23.6548H5.11902V18.7238H19.9121V23.6548ZM28.5414 13.7928H5.11902V8.86174H28.5414V13.7928Z" fill="url(#paint1_linear_2012_7437)"/>
<path d="M45.7998 16.2578C35.5877 16.2578 27.3084 24.537 27.3084 34.7492C27.3084 38.5177 28.4426 42.0175 30.378 44.9417L16.0645 59.2552L21.2938 64.4846L35.6074 50.171C38.5315 52.1064 42.0313 53.2406 45.7998 53.2406C56.012 53.2406 64.2912 44.9614 64.2912 34.7492C64.2912 24.537 56.012 16.2578 45.7998 16.2578ZM39.636 42.1458H34.705V32.2837H39.636V42.1458ZM48.2654 42.1458H43.3343V28.5854H48.2654V42.1458ZM56.8947 42.1458H51.9636V24.8871H56.8947V42.1458Z" fill="url(#paint2_linear_2012_7437)"/>
<defs>
<linearGradient id="paint0_linear_2012_7437" x1="29.6482" y1="59.5988" x2="54.3992" y2="61.1447" gradientUnits="userSpaceOnUse">
<stop stop-color="#3134DB"/>
<stop offset="1" stop-color="#009EE1"/>
</linearGradient>
<linearGradient id="paint1_linear_2012_7437" x1="0.187988" y1="30.9692" x2="54.5631" y2="31.78" gradientUnits="userSpaceOnUse">
<stop stop-color="#3134DB"/>
<stop offset="1" stop-color="#009EE1"/>
</linearGradient>
<linearGradient id="paint2_linear_2012_7437" x1="16.0645" y1="39.8353" x2="64.4064" y2="40.6709" gradientUnits="userSpaceOnUse">
<stop stop-color="#3134DB"/>
<stop offset="1" stop-color="#009EE1"/>
</linearGradient>
</defs>
</svg>
