<svg width="68" height="66" viewBox="0 0 68 66" fill="none" xmlns="http://www.w3.org/2000/svg">
<path d="M39.6183 47.0937C39.4339 48.2229 39.1409 49.3135 38.7461 50.3566L42.2884 53.5663C41.7917 54.6117 41.226 55.6164 40.5732 56.56L36.0251 55.0937C35.3078 55.9705 34.5045 56.7727 33.6277 57.4899L35.094 62.0381C34.1504 62.6909 33.1458 63.2554 32.1004 63.7532L28.8906 60.2109C27.8475 60.6057 26.758 60.8988 25.6278 61.0832L24.6174 65.7626C24.0461 65.8078 23.4725 65.8497 22.8887 65.8497C22.3049 65.8497 21.7313 65.8078 21.1588 65.7626L20.1485 61.0832C19.0194 60.8988 17.9288 60.6057 16.8856 60.2109L13.6759 63.7532C12.6305 63.2566 11.6259 62.6909 10.6823 62.0381L12.1486 57.4899C11.2717 56.7727 10.4696 55.9694 9.75231 55.0937L5.20418 56.56C4.55138 55.6164 3.98682 54.6117 3.48902 53.5663L7.03135 50.3566C6.6365 49.3135 6.34348 48.224 6.15906 47.0937L1.47969 46.0834C1.43444 45.5109 1.39258 44.9373 1.39258 44.3535C1.39258 43.7698 1.43444 43.1962 1.47969 42.6237L6.15906 41.6134C6.34348 40.4842 6.6365 39.3936 7.03135 38.3505L3.48902 35.1408C3.98569 34.0954 4.55138 33.0907 5.20418 32.1471L9.75231 33.6134C10.4696 32.7366 11.2729 31.9344 12.1497 31.2172L10.6834 26.669C11.627 26.0162 12.6317 25.4517 13.677 24.9539L16.8868 28.4962C17.9299 28.1013 19.0194 27.8083 20.1496 27.6239L21.16 22.9445C21.7313 22.8993 22.3049 22.8574 22.8887 22.8574C23.4725 22.8574 24.0461 22.8993 24.6186 22.9445L25.6289 27.6239C26.758 27.8083 27.8487 28.1013 28.8918 28.4962L32.1015 24.9539C33.1469 25.4505 34.1515 26.0162 35.0951 26.669L33.6288 31.2172C34.5057 31.9344 35.3078 32.7377 36.0251 33.6145L40.5732 32.1483C41.226 33.0918 41.7906 34.0965 42.2884 35.1419L38.7461 38.3516C39.1409 39.3947 39.4339 40.4842 39.6183 41.6145L44.2977 42.6248C44.343 43.1962 44.3848 43.7698 44.3848 44.3535C44.3848 44.9373 44.343 45.5109 44.2977 46.0834L39.6183 47.0937ZM22.8887 33.0398C16.6401 33.0398 11.575 38.105 11.575 44.3535C11.575 50.6021 16.6401 55.6673 22.8887 55.6673C29.1373 55.6673 34.2025 50.6021 34.2025 44.3535C34.2025 38.105 29.1373 33.0398 22.8887 33.0398Z" fill="url(#paint0_linear_2012_7428)"/>
<path d="M55.3127 15.2834C55.1362 15.8683 54.9054 16.4295 54.6214 16.9578L56.4079 20.3814C55.8049 21.1439 55.117 21.8318 54.3544 22.4348L50.9309 20.6484C50.4025 20.9335 49.8414 21.1643 49.2565 21.3397L48.0979 25.0279C47.6205 25.0845 47.1385 25.1207 46.6475 25.1207C46.1565 25.1207 45.6745 25.0845 45.1982 25.0291L44.0397 21.3408C43.4548 21.1654 42.8936 20.9335 42.3653 20.6495L38.9417 22.436C38.1792 21.8329 37.4913 21.1451 36.8883 20.3825L38.6747 16.959C38.3896 16.4306 38.1588 15.8695 37.9834 15.2845L34.2952 14.126C34.2386 13.6486 34.2024 13.1666 34.2024 12.6756C34.2024 12.1846 34.2386 11.7026 34.294 11.2263L37.9823 10.0678C38.1577 9.48285 38.3896 8.92169 38.6736 8.39334L36.8871 4.9698C37.4902 4.20725 38.178 3.51938 38.9406 2.91635L42.3641 4.70279C42.8925 4.41769 43.4536 4.18689 44.0386 4.01152L45.1971 0.323242C45.6745 0.266673 46.1565 0.230469 46.6475 0.230469C47.1385 0.230469 47.6205 0.266673 48.0968 0.32211L49.2553 4.01039C49.8403 4.18576 50.4014 4.41769 50.9298 4.70166L54.3533 2.91522C55.1159 3.51824 55.8037 4.20612 56.4068 4.96867L54.6203 8.39221C54.9054 8.92056 55.1362 9.48172 55.3116 10.0666L58.9999 11.2252C59.0564 11.7026 59.0926 12.1846 59.0926 12.6756C59.0926 13.1666 59.0564 13.6486 59.001 14.1249L55.3127 15.2834ZM46.6475 8.15009C44.1483 8.15009 42.122 10.1764 42.122 12.6756C42.122 15.1748 44.1483 17.2011 46.6475 17.2011C49.1467 17.2011 51.173 15.1748 51.173 12.6756C51.173 10.1764 49.1467 8.15009 46.6475 8.15009Z" fill="url(#paint1_linear_2012_7428)"/>
<path d="M64.4542 40.8128C64.2799 41.4408 64.0344 42.0359 63.7199 42.5914L64.8456 44.9605C64.3342 45.6133 63.7471 46.2005 63.0943 46.7118L60.7252 45.5861C60.1708 45.9006 59.5745 46.1461 58.9466 46.3204L58.0664 48.7958C57.6603 48.8456 57.2496 48.8784 56.8298 48.8784C56.4101 48.8784 55.9994 48.8456 55.5932 48.7958L54.713 46.3204C54.0851 46.1461 53.49 45.9006 52.9345 45.5861L50.5654 46.7118C49.9126 46.2005 49.3254 45.6133 48.814 44.9605L49.9398 42.5914C49.6252 42.037 49.3797 41.4408 49.2055 40.814L46.7301 39.9338C46.6803 39.5265 46.6475 39.1158 46.6475 38.696C46.6475 38.2763 46.6803 37.8656 46.7301 37.4595L49.2055 36.5792C49.3797 35.9513 49.6252 35.3562 49.9398 34.8019L48.814 32.4328C49.3254 31.78 49.9126 31.1928 50.5654 30.6814L52.9345 31.8071C53.4889 31.4926 54.0851 31.2471 54.713 31.0728L55.5932 28.5974C55.9994 28.5465 56.4101 28.5137 56.8298 28.5137C57.2496 28.5137 57.6603 28.5465 58.0664 28.5963L58.9466 31.0717C59.5745 31.2459 60.1697 31.4915 60.7252 31.806L63.0943 30.6803C63.7471 31.1916 64.3342 31.7788 64.8456 32.4316L63.7199 34.8007C64.0344 35.3551 64.2799 35.9513 64.4542 36.5792L66.9296 37.4595C66.9794 37.8656 67.0122 38.2763 67.0122 38.696C67.0122 39.1158 66.9794 39.5265 66.9296 39.9326L64.4542 40.8128ZM56.8298 35.3019C54.9551 35.3019 53.4357 36.8214 53.4357 38.696C53.4357 40.5707 54.9551 42.0902 56.8298 42.0902C58.7045 42.0902 60.224 40.5707 60.224 38.696C60.224 36.8214 58.7045 35.3019 56.8298 35.3019Z" fill="url(#paint2_linear_2012_7428)"/>
<path d="M67.2341 2.51523L60.4674 1.16211L59.1143 7.92773L61.3329 8.37236L61.9427 5.3267C63.039 7.60755 63.6183 10.1215 63.6183 12.675C63.6183 16.576 62.3308 20.2439 59.896 23.2816L61.6621 24.697C64.3831 21.3017 65.881 17.033 65.881 12.675C65.881 9.71191 65.1965 6.7907 63.8943 4.1546L66.7906 4.73386L67.2341 2.51523Z" fill="url(#paint3_linear_2012_7428)"/>
<path d="M24.82 11.875L23.2202 13.4748L24.7578 15.0123C24.1355 14.9727 23.5121 14.9376 22.8887 14.9376C14.1364 14.9376 5.89775 18.7968 0.286133 25.5262L2.02392 26.9755C7.20449 20.7631 14.8085 17.2004 22.8887 17.2004C23.4646 17.2004 24.0394 17.2332 24.6141 17.2694L23.2202 18.6632L24.82 20.263L29.014 16.069L24.82 11.875Z" fill="url(#paint4_linear_2012_7428)"/>
<defs>
<linearGradient id="paint0_linear_2012_7428" x1="1.39258" y1="43.8758" x2="44.4875" y2="44.6207" gradientUnits="userSpaceOnUse">
<stop stop-color="#3134DB"/>
<stop offset="1" stop-color="#009EE1"/>
</linearGradient>
<linearGradient id="paint1_linear_2012_7428" x1="34.2024" y1="12.399" x2="59.1521" y2="12.8303" gradientUnits="userSpaceOnUse">
<stop stop-color="#3134DB"/>
<stop offset="1" stop-color="#009EE1"/>
</linearGradient>
<linearGradient id="paint2_linear_2012_7428" x1="46.6475" y1="38.4698" x2="67.0609" y2="38.8226" gradientUnits="userSpaceOnUse">
<stop stop-color="#3134DB"/>
<stop offset="1" stop-color="#009EE1"/>
</linearGradient>
<linearGradient id="paint3_linear_2012_7428" x1="59.1143" y1="12.668" x2="67.2557" y2="12.7166" gradientUnits="userSpaceOnUse">
<stop stop-color="#3134DB"/>
<stop offset="1" stop-color="#009EE1"/>
</linearGradient>
<linearGradient id="paint4_linear_2012_7428" x1="0.286133" y1="19.2574" x2="29.0601" y2="20.2036" gradientUnits="userSpaceOnUse">
<stop stop-color="#3134DB"/>
<stop offset="1" stop-color="#009EE1"/>
</linearGradient>
</defs>
</svg>
