<svg width="6" height="9" viewBox="0 0 6 9" fill="none" xmlns="http://www.w3.org/2000/svg">
<path d="M5.87446 4.32067C5.86858 4.14314 5.79768 3.97395 5.67524 3.84525L2.19797 0.223088C2.06467 0.0843925 1.88174 0.00432773 1.68941 0.000507322C1.49709 -0.00331309 1.31113 0.0694237 1.17243 0.202718C1.03374 0.336011 0.95367 0.518941 0.94985 0.711267C0.94603 0.903592 1.01876 1.08956 1.15206 1.22825L4.14487 4.34784L1.15206 7.46742C1.01877 7.60612 0.94603 7.79208 0.94985 7.98441C0.953671 8.17674 1.03374 8.35967 1.17243 8.49296C1.31113 8.62625 1.49709 8.69899 1.68941 8.69517C1.88174 8.69135 2.06467 8.61128 2.19797 8.47259L5.67524 4.85042C5.74229 4.78001 5.79448 4.69682 5.82871 4.60581C5.86294 4.51479 5.8785 4.41782 5.87446 4.32067Z" fill="#1A73E8"/>
</svg>
