<svg width="60" height="60" viewBox="0 0 60 60" fill="none" xmlns="http://www.w3.org/2000/svg">
<rect opacity="0.2" width="60" height="60" rx="8" fill="url(#paint0_linear_1898_4513)"/>
<g clip-path="url(#clip0_1898_4513)">
<path d="M16.4733 33.175C16.7049 33.2214 16.9781 33.0403 17.025 32.8079C17.0322 32.7723 17.7747 29.1999 20.4897 25.3592C22.0784 23.1121 24.0234 21.2121 26.2707 19.7121C28.9662 17.9131 32.1102 16.686 35.6215 16.0607L35.2383 16.644C34.9163 17.1341 35.6726 17.69 36.0217 17.1587L36.9854 15.6918C37.12 15.438 37.075 15.2215 36.8504 15.0423L35.3809 14.0803C34.874 13.7481 34.3605 14.5326 34.8675 14.8645L35.3221 15.1622C31.7273 15.8194 28.502 17.0911 25.7279 18.9474C23.3826 20.5167 21.3546 22.5034 19.7002 24.8522C16.8836 28.8513 16.1363 32.4716 16.1059 32.6238C16.0551 32.8774 16.2196 33.1241 16.4733 33.175Z" fill="url(#paint1_linear_1898_4513)"/>
<path d="M42.4613 38.0722V35.0602C42.4613 34.8013 42.2515 34.5915 41.9926 34.5915H38.9132V20.2656C38.9132 20.0067 38.7034 19.7969 38.4445 19.7969H32.4547C32.1959 19.7969 31.986 20.0067 31.986 20.2656V25.1809H26.4601C26.2012 25.1809 25.9914 25.3907 25.9914 25.6496V30.5751H20.4654C20.2065 30.5751 19.9967 30.7849 19.9967 31.0438V35.2863H14.4706C14.2118 35.2863 14.002 35.4961 14.002 35.755V40.4429C14.002 40.7018 14.2118 40.9116 14.4706 40.9116H16.1325C16.7385 40.9116 16.7385 39.9742 16.1325 39.9742H14.9393V36.2237H19.9918V39.9742H18.627C18.021 39.9742 18.021 40.9116 18.627 40.9116H28.1919V45.5321C28.1919 45.791 28.4018 46.0008 28.6606 46.0008H41.9926C41.9954 46.0008 41.9982 46.0004 42.001 46.0004C42.0065 46.0004 42.012 46.0008 42.0176 46.0008C42.7185 46.0008 43.4088 45.8151 44.0139 45.4639C44.5381 45.1597 44.0676 44.3492 43.5433 44.6532C43.081 44.9216 42.5535 45.0633 42.0176 45.0633C40.3398 45.0633 38.9748 43.6998 38.9748 42.0238C38.9748 40.3477 40.3398 38.9842 42.0176 38.9842C43.6954 38.9842 45.0604 40.3477 45.0604 42.0238C45.0604 42.3844 44.9978 42.7373 44.8743 43.0726C44.665 43.6413 45.5447 43.9651 45.754 43.3965C45.9157 42.9571 45.9977 42.4953 45.9977 42.0238C45.9978 39.9809 44.4478 38.2935 42.4613 38.0722ZM39.719 38.7803H35.7953V37.6233H41.5239V38.0786C40.8574 38.1615 40.2418 38.4093 39.719 38.7803ZM34.8579 39.7177V40.8747H29.1293V39.7177H34.8579ZM29.1293 41.812H34.8579V42.969H29.1293V41.812ZM35.7953 41.812H38.0433C38.023 42.1956 38.0608 42.5968 38.152 42.969H35.7953V41.812ZM38.2076 40.8746H35.7953V39.7176H38.7781C38.529 40.066 38.3344 40.4556 38.2076 40.8746ZM41.5239 36.6859H35.7953V35.5289H38.3841C38.404 35.5315 38.424 35.5332 38.4446 35.5332C38.4652 35.5332 38.4852 35.5315 38.5051 35.5289H41.524V36.6859H41.5239ZM37.9758 20.7343V34.5915H35.3266C35.0677 34.5915 34.8579 34.8013 34.8579 35.0602V37.1546V38.7803H32.9234V20.7343H37.9758ZM25.9865 39.9742H20.9341V31.5126H25.9865V39.9742ZM26.9288 39.9742V26.1183H31.9812V38.7802H28.6606C28.4018 38.7802 28.1919 38.99 28.1919 39.2489V39.9741H26.9288V39.9742ZM34.8579 45.0634H29.1293V43.9064H34.8579V45.0634ZM35.7953 45.0634V43.9064H38.5126C38.7518 44.3492 39.0728 44.7413 39.4548 45.0634H35.7953Z" fill="url(#paint2_linear_1898_4513)"/>
<path d="M41.9991 44.4956C42.2579 44.4956 42.4678 44.2858 42.4678 44.0269V43.8676C42.8681 43.7071 43.1708 43.3491 43.2459 42.9018C43.3426 42.326 43.0309 41.8063 42.4703 41.6084C42.235 41.5254 41.8731 41.4689 41.7975 41.3028C41.7599 41.2202 41.8162 41.1465 41.8972 41.1027C42.1224 41.0348 42.2653 41.1433 42.2809 41.156C42.2743 41.1507 42.271 41.1473 42.271 41.1473C42.271 41.1473 42.685 41.3913 42.9199 41.1564C43.3573 40.719 42.906 40.4576 42.906 40.4576C42.8166 40.3753 42.6641 40.2774 42.4678 40.2129V40.1068C42.4678 39.5008 41.5304 39.5008 41.5304 40.1068V40.24C41.1933 40.3785 40.9462 40.6838 40.8755 41.0593C40.8035 41.4422 40.9322 41.8159 41.2115 42.0346C41.4641 42.2324 41.8158 42.3715 42.1583 42.4923C42.2417 42.5218 42.3494 42.5801 42.3215 42.7465C42.3044 42.8482 42.2166 43.0207 41.996 43.0221C41.7368 43.0238 41.6816 43.0153 41.4965 42.8944C41.2798 42.7529 40.9894 42.8138 40.8478 43.0306C40.7063 43.2473 40.7672 43.5377 40.9839 43.6793C41.1892 43.8134 41.3551 43.8855 41.5304 43.9229V44.0268C41.5304 44.2858 41.7402 44.4956 41.9991 44.4956Z" fill="url(#paint3_linear_1898_4513)"/>
</g>
<defs>
<linearGradient id="paint0_linear_1898_4513" x1="2.09113e-07" y1="29.3333" x2="60.1434" y2="30.3728" gradientUnits="userSpaceOnUse">
<stop stop-color="#3134DB"/>
<stop offset="1" stop-color="#009EE1"/>
</linearGradient>
<linearGradient id="paint1_linear_1898_4513" x1="16.0967" y1="23.378" x2="37.1099" y2="23.7749" gradientUnits="userSpaceOnUse">
<stop stop-color="#3134DB"/>
<stop offset="1" stop-color="#009EE1"/>
</linearGradient>
<linearGradient id="paint2_linear_1898_4513" x1="14.002" y1="32.6077" x2="46.0694" y2="33.2844" gradientUnits="userSpaceOnUse">
<stop stop-color="#3134DB"/>
<stop offset="1" stop-color="#009EE1"/>
</linearGradient>
<linearGradient id="paint3_linear_1898_4513" x1="40.7715" y1="42.0201" x2="43.2699" y2="42.0424" gradientUnits="userSpaceOnUse">
<stop stop-color="#3134DB"/>
<stop offset="1" stop-color="#009EE1"/>
</linearGradient>
<clipPath id="clip0_1898_4513">
<rect width="32" height="32" fill="white" transform="translate(14 14)"/>
</clipPath>
</defs>
</svg>
