<svg width="58" height="58" viewBox="0 0 58 58" fill="none" xmlns="http://www.w3.org/2000/svg">
<g clip-path="url(#clip0_2012_12628)">
<path d="M19.9375 38.9688H38.0625C38.3029 38.9688 38.5334 38.8733 38.7033 38.7033C38.8733 38.5334 38.9688 38.3029 38.9688 38.0625V19.9375C38.9688 19.6971 38.8733 19.4666 38.7033 19.2967C38.5334 19.1267 38.3029 19.0312 38.0625 19.0312H19.9375C19.6971 19.0312 19.4666 19.1267 19.2967 19.2967C19.1267 19.4666 19.0312 19.6971 19.0312 19.9375V38.0625C19.0312 38.3029 19.1267 38.5334 19.2967 38.7033C19.4666 38.8733 19.6971 38.9688 19.9375 38.9688ZM20.8438 20.8438H37.1562V37.1562H20.8438V20.8438Z" fill="url(#paint0_linear_2012_12628)"/>
<path d="M16.3125 15.4062C16.0721 15.4062 15.8416 15.5017 15.6717 15.6717C15.5017 15.8416 15.4062 16.0721 15.4062 16.3125V41.6875C15.4062 41.9279 15.5017 42.1584 15.6717 42.3283C15.8416 42.4983 16.0721 42.5938 16.3125 42.5938H41.6875C41.9279 42.5938 42.1584 42.4983 42.3283 42.3283C42.4983 42.1584 42.5938 41.9279 42.5938 41.6875V16.3125C42.5938 16.0721 42.4983 15.8416 42.3283 15.6717C42.1584 15.5017 41.9279 15.4062 41.6875 15.4062H16.3125ZM40.7812 40.7812H17.2188V17.2188H40.7812V40.7812Z" fill="url(#paint1_linear_2012_12628)"/>
<path d="M28.0938 25.375H24.4688C24.2284 25.375 23.9979 25.4705 23.8279 25.6404C23.658 25.8104 23.5625 26.0409 23.5625 26.2812V32.625H25.375V30.8125H27.1875V32.625H29V26.2812C29 26.0409 28.9045 25.8104 28.7346 25.6404C28.5646 25.4705 28.3341 25.375 28.0938 25.375ZM25.375 29V27.1875H27.1875V29H25.375Z" fill="url(#paint2_linear_2012_12628)"/>
<path d="M30.8125 27.1875H31.7188V30.8125H30.8125V32.625H34.4375V30.8125H33.5312V27.1875H34.4375V25.375H30.8125V27.1875Z" fill="url(#paint3_linear_2012_12628)"/>
<path d="M53.4688 17.9578V22.6558H44.4062V24.4683H54.375C54.6154 24.4683 54.8459 24.3728 55.0158 24.2029C55.1858 24.0329 55.2813 23.8024 55.2813 23.562V17.9578C55.8859 17.744 56.3955 17.3234 56.72 16.7702C57.0445 16.217 57.163 15.5669 57.0546 14.9348C56.9461 14.3027 56.6177 13.7293 56.1274 13.3159C55.637 12.9025 55.0163 12.6758 54.375 12.6758C53.7337 12.6758 53.113 12.9025 52.6226 13.3159C52.1323 13.7293 51.8039 14.3027 51.6954 14.9348C51.587 15.5669 51.7055 16.217 52.03 16.7702C52.3545 17.3234 52.8641 17.744 53.4688 17.9578ZM54.375 14.4995C54.5542 14.4995 54.7295 14.5527 54.8785 14.6523C55.0275 14.7519 55.1437 14.8934 55.2123 15.059C55.2809 15.2246 55.2988 15.4068 55.2638 15.5826C55.2289 15.7584 55.1426 15.9199 55.0158 16.0466C54.8891 16.1734 54.7276 16.2597 54.5518 16.2946C54.376 16.3296 54.1938 16.3117 54.0282 16.2431C53.8626 16.1745 53.7211 16.0583 53.6215 15.9093C53.5219 15.7602 53.4688 15.585 53.4688 15.4058C53.4688 15.1654 53.5642 14.9349 53.7342 14.765C53.9041 14.595 54.1346 14.4995 54.375 14.4995Z" fill="url(#paint4_linear_2012_12628)"/>
<path d="M55.2813 40.0417V34.4375C55.2813 34.1971 55.1858 33.9666 55.0158 33.7967C54.8459 33.6267 54.6154 33.5312 54.375 33.5312H44.4062V35.3438H53.4688V40.0417C52.8641 40.2555 52.3545 40.6762 52.03 41.2294C51.7055 41.7826 51.587 42.4327 51.6954 43.0648C51.8039 43.6969 52.1323 44.2703 52.6226 44.6837C53.113 45.097 53.7337 45.3238 54.375 45.3238C55.0163 45.3238 55.637 45.097 56.1274 44.6837C56.6177 44.2703 56.9461 43.6969 57.0546 43.0648C57.163 42.4327 57.0445 41.7826 56.72 41.2294C56.3955 40.6762 55.8859 40.2555 55.2813 40.0417ZM54.375 43.5C54.1958 43.5 54.0205 43.4468 53.8715 43.3473C53.7225 43.2477 53.6063 43.1062 53.5377 42.9406C53.4691 42.775 53.4512 42.5927 53.4862 42.4169C53.5211 42.2412 53.6074 42.0797 53.7342 41.9529C53.8609 41.8262 54.0224 41.7399 54.1982 41.7049C54.374 41.6699 54.5562 41.6879 54.7218 41.7565C54.8874 41.8251 55.0289 41.9412 55.1285 42.0903C55.2281 42.2393 55.2813 42.4145 55.2813 42.5938C55.2813 42.8341 55.1858 43.0646 55.0158 43.2346C54.8459 43.4045 54.6154 43.5 54.375 43.5Z" fill="url(#paint5_linear_2012_12628)"/>
<path d="M55.2812 26.2813C54.721 26.2836 54.1751 26.459 53.7182 26.7834C53.2614 27.1078 52.916 27.5655 52.7292 28.0938H44.4062V29.9063H52.7292C52.8962 30.3749 53.1888 30.7887 53.575 31.1024C53.9612 31.416 54.4262 31.6175 54.9192 31.6848C55.4121 31.752 55.9141 31.6825 56.3702 31.4838C56.8264 31.285 57.2191 30.9648 57.5055 30.5579C57.7919 30.1511 57.961 29.6734 57.9942 29.1769C58.0275 28.6805 57.9237 28.1845 57.6941 27.7431C57.4645 27.3017 57.1181 26.9319 56.6925 26.6741C56.267 26.4163 55.7788 26.2804 55.2812 26.2813ZM55.2812 29.9063C55.102 29.9063 54.9268 29.8531 54.7778 29.7535C54.6287 29.6539 54.5126 29.5124 54.444 29.3468C54.3754 29.1812 54.3574 28.999 54.3924 28.8232C54.4274 28.6474 54.5137 28.4859 54.6404 28.3592C54.7672 28.2324 54.9287 28.1461 55.1044 28.1112C55.2802 28.0762 55.4625 28.0941 55.6281 28.1627C55.7937 28.2313 55.9352 28.3475 56.0348 28.4965C56.1343 28.6456 56.1875 28.8208 56.1875 29C56.1875 29.2404 56.092 29.4709 55.9221 29.6408C55.7521 29.8108 55.5216 29.9063 55.2812 29.9063Z" fill="url(#paint6_linear_2012_12628)"/>
<path d="M28.0938 5.27029V13.5933H29.9063V5.27029C30.5109 5.05651 31.0205 4.63586 31.345 4.08267C31.6696 3.52949 31.7881 2.87939 31.6796 2.24729C31.5711 1.61518 31.2427 1.04176 30.7524 0.628386C30.262 0.215007 29.6413 -0.0117188 29 -0.0117188C28.3587 -0.0117188 27.738 0.215007 27.2476 0.628386C26.7573 1.04176 26.4289 1.61518 26.3204 2.24729C26.212 2.87939 26.3305 3.52949 26.655 4.08267C26.9795 4.63586 27.4891 5.05651 28.0938 5.27029ZM29 1.81204C29.1792 1.81204 29.3545 1.86519 29.5035 1.96477C29.6525 2.06435 29.7687 2.20589 29.8373 2.37149C29.9059 2.53708 29.9238 2.7193 29.8888 2.89509C29.8539 3.07089 29.7676 3.23237 29.6408 3.35911C29.5141 3.48585 29.3526 3.57216 29.1768 3.60713C29.001 3.6421 28.8188 3.62415 28.6532 3.55556C28.4876 3.48697 28.3461 3.37081 28.2465 3.22178C28.1469 3.07275 28.0938 2.89753 28.0938 2.71829C28.0938 2.47794 28.1892 2.24743 28.3592 2.07748C28.5291 1.90752 28.7597 1.81204 29 1.81204Z" fill="url(#paint7_linear_2012_12628)"/>
<path d="M35.3438 4.53126H40.0417C40.2555 5.13592 40.6762 5.64554 41.2294 5.97005C41.7826 6.29455 42.4327 6.41305 43.0648 6.3046C43.6969 6.19615 44.2703 5.86773 44.6837 5.37739C45.097 4.88704 45.3238 4.26635 45.3238 3.62501C45.3238 2.98366 45.097 2.36297 44.6837 1.87263C44.2703 1.38228 43.6969 1.05386 43.0648 0.94541C42.4327 0.836957 41.7826 0.955457 41.2294 1.27996C40.6762 1.60447 40.2555 2.11409 40.0417 2.71876H34.4375C34.1971 2.71876 33.9666 2.81424 33.7967 2.98419C33.6267 3.15415 33.5312 3.38465 33.5312 3.62501V13.5938H35.3438V4.53126ZM42.5938 2.71876C42.773 2.71876 42.9482 2.77191 43.0972 2.87149C43.2463 2.97107 43.3624 3.1126 43.431 3.2782C43.4996 3.44379 43.5176 3.62601 43.4826 3.80181C43.4476 3.9776 43.3613 4.13908 43.2346 4.26582C43.1078 4.39256 42.9463 4.47887 42.7706 4.51384C42.5948 4.54881 42.4125 4.53086 42.2469 4.46227C42.0813 4.39368 41.9398 4.27752 41.8402 4.12849C41.7407 3.97946 41.6875 3.80424 41.6875 3.62501C41.6875 3.38465 41.783 3.15415 41.9529 2.98419C42.1229 2.81424 42.3534 2.71876 42.5938 2.71876Z" fill="url(#paint8_linear_2012_12628)"/>
<path d="M15.4056 6.3425C15.9659 6.34017 16.5118 6.1648 16.9686 5.84035C17.4254 5.51591 17.7708 5.05826 17.9576 4.53H22.6556V13.5925H24.4681V3.62375C24.4681 3.38339 24.3726 3.15289 24.2027 2.98293C24.0327 2.81298 23.8022 2.7175 23.5618 2.7175H17.9576C17.7906 2.24881 17.4981 1.83503 17.1119 1.52137C16.7256 1.20771 16.2606 1.00624 15.7677 0.93898C15.2747 0.871719 14.7727 0.941254 14.3166 1.13998C13.8605 1.33872 13.4678 1.659 13.1813 2.06583C12.8949 2.47266 12.7259 2.95039 12.6926 3.44681C12.6593 3.94324 12.7632 4.43925 12.9927 4.88066C13.2223 5.32207 13.5688 5.69188 13.9943 5.94969C14.4198 6.2075 14.9081 6.34338 15.4056 6.3425ZM15.4056 2.7175C15.5848 2.7175 15.76 2.77065 15.9091 2.87023C16.0581 2.96981 16.1743 3.11134 16.2429 3.27694C16.3114 3.44254 16.3294 3.62475 16.2944 3.80055C16.2595 3.97634 16.1731 4.13782 16.0464 4.26456C15.9197 4.3913 15.7582 4.47762 15.5824 4.51258C15.4066 4.54755 15.2244 4.5296 15.0588 4.46101C14.8932 4.39242 14.7516 4.27626 14.6521 4.12723C14.5525 3.9782 14.4993 3.80299 14.4993 3.62375C14.4993 3.38339 14.5948 3.15289 14.7648 2.98293C14.9347 2.81298 15.1652 2.7175 15.4056 2.7175Z" fill="url(#paint9_linear_2012_12628)"/>
<path d="M29.9063 52.7292V44.4062H28.0938V52.7292C27.4891 52.943 26.9795 53.3637 26.655 53.9169C26.3305 54.4701 26.212 55.1202 26.3204 55.7523C26.4289 56.3844 26.7573 56.9578 27.2476 57.3712C27.738 57.7845 28.3587 58.0113 29 58.0113C29.6413 58.0113 30.262 57.7845 30.7524 57.3712C31.2427 56.9578 31.5711 56.3844 31.6796 55.7523C31.7881 55.1202 31.6696 54.4701 31.345 53.9169C31.0205 53.3637 30.5109 52.943 29.9063 52.7292ZM29 56.1875C28.8208 56.1875 28.6456 56.1343 28.4965 56.0348C28.3475 55.9352 28.2313 55.7937 28.1627 55.6281C28.0941 55.4625 28.0762 55.2802 28.1112 55.1044C28.1461 54.9287 28.2324 54.7672 28.3592 54.6404C28.4859 54.5137 28.6474 54.4274 28.8232 54.3924C28.999 54.3574 29.1812 54.3754 29.3468 54.444C29.5124 54.5126 29.6539 54.6287 29.7535 54.7778C29.8531 54.9268 29.9063 55.102 29.9063 55.2812C29.9063 55.5216 29.8108 55.7521 29.6408 55.9221C29.4709 56.092 29.2404 56.1875 29 56.1875Z" fill="url(#paint10_linear_2012_12628)"/>
<path d="M22.6558 53.4688H17.9578C17.744 52.8641 17.3234 52.3545 16.7702 52.03C16.217 51.7055 15.5669 51.587 14.9348 51.6954C14.3027 51.8039 13.7293 52.1323 13.3159 52.6226C12.9025 53.113 12.6758 53.7337 12.6758 54.375C12.6758 55.0163 12.9025 55.637 13.3159 56.1274C13.7293 56.6177 14.3027 56.9461 14.9348 57.0546C15.5669 57.163 16.217 57.0445 16.7702 56.72C17.3234 56.3955 17.744 55.8859 17.9578 55.2812H23.562C23.8024 55.2812 24.0329 55.1858 24.2029 55.0158C24.3728 54.8459 24.4683 54.6154 24.4683 54.375V44.4062H22.6558V53.4688ZM15.4058 55.2812C15.2266 55.2812 15.0513 55.2281 14.9023 55.1285C14.7533 55.0289 14.6371 54.8874 14.5685 54.7218C14.4999 54.5562 14.482 54.374 14.517 54.1982C14.5519 54.0224 14.6382 53.8609 14.765 53.7342C14.8917 53.6074 15.0532 53.5211 15.229 53.4862C15.4048 53.4512 15.587 53.4691 15.7526 53.5377C15.9182 53.6063 16.0597 53.7225 16.1593 53.8715C16.2589 54.0205 16.312 54.1958 16.312 54.375C16.312 54.6154 16.2166 54.8459 16.0466 55.0158C15.8767 55.1858 15.6461 55.2812 15.4058 55.2812Z" fill="url(#paint11_linear_2012_12628)"/>
<path d="M42.5938 51.6562C42.0335 51.6586 41.4876 51.834 41.0307 52.1584C40.5739 52.4828 40.2285 52.9405 40.0417 53.4688H35.3438V44.4062H33.5312V54.375C33.5312 54.6154 33.6267 54.8459 33.7967 55.0158C33.9666 55.1858 34.1971 55.2812 34.4375 55.2812H40.0417C40.2087 55.7499 40.5013 56.1637 40.8875 56.4774C41.2737 56.791 41.7387 56.9925 42.2317 57.0598C42.7246 57.127 43.2266 57.0575 43.6827 56.8588C44.1389 56.66 44.5316 56.3398 44.818 55.9329C45.1044 55.5261 45.2735 55.0484 45.3067 54.5519C45.34 54.0555 45.2362 53.5595 45.0066 53.1181C44.777 52.6767 44.4306 52.3069 44.005 52.0491C43.5795 51.7912 43.0913 51.6554 42.5938 51.6562ZM42.5938 55.2812C42.4145 55.2812 42.2393 55.2281 42.0903 55.1285C41.9412 55.0289 41.8251 54.8874 41.7565 54.7218C41.6879 54.5562 41.6699 54.374 41.7049 54.1982C41.7399 54.0224 41.8262 53.8609 41.9529 53.7342C42.0797 53.6074 42.2412 53.5211 42.4169 53.4862C42.5927 53.4512 42.775 53.4691 42.9406 53.5377C43.1062 53.6063 43.2477 53.7225 43.3473 53.8715C43.4468 54.0205 43.5 54.1958 43.5 54.375C43.5 54.6154 43.4045 54.8459 43.2346 55.0158C43.0646 55.1858 42.8341 55.2812 42.5938 55.2812Z" fill="url(#paint12_linear_2012_12628)"/>
<path d="M4.53126 40.0417V35.3438H13.5938V33.5312H3.62501C3.38465 33.5312 3.15415 33.6267 2.98419 33.7967C2.81424 33.9666 2.71876 34.1971 2.71876 34.4375V40.0417C2.11409 40.2555 1.60447 40.6762 1.27996 41.2294C0.955457 41.7826 0.836957 42.4327 0.94541 43.0648C1.05386 43.6969 1.38228 44.2703 1.87263 44.6837C2.36297 45.097 2.98366 45.3238 3.62501 45.3238C4.26635 45.3238 4.88704 45.097 5.37739 44.6837C5.86773 44.2703 6.19615 43.6969 6.3046 43.0648C6.41305 42.4327 6.29455 41.7826 5.97005 41.2294C5.64554 40.6762 5.13592 40.2555 4.53126 40.0417ZM3.62501 43.5C3.44577 43.5 3.27055 43.4468 3.12152 43.3473C2.97249 43.2477 2.85633 43.1062 2.78774 42.9406C2.71915 42.775 2.7012 42.5927 2.73617 42.4169C2.77114 42.2412 2.85745 42.0797 2.98419 41.9529C3.11093 41.8262 3.27241 41.7399 3.4482 41.7049C3.624 41.6699 3.80622 41.6879 3.97181 41.7565C4.13741 41.8251 4.27894 41.9412 4.37852 42.0903C4.4781 42.2393 4.53126 42.4145 4.53126 42.5938C4.53126 42.8341 4.43578 43.0646 4.26582 43.2346C4.09587 43.4045 3.86536 43.5 3.62501 43.5Z" fill="url(#paint13_linear_2012_12628)"/>
<path d="M2.71876 17.9578V23.562C2.71876 23.8024 2.81424 24.0329 2.98419 24.2029C3.15415 24.3728 3.38465 24.4683 3.62501 24.4683H13.5938V22.6558H4.53126V17.9578C5.13592 17.744 5.64554 17.3234 5.97005 16.7702C6.29455 16.217 6.41305 15.5669 6.3046 14.9348C6.19615 14.3027 5.86773 13.7293 5.37739 13.3159C4.88704 12.9025 4.26635 12.6758 3.62501 12.6758C2.98366 12.6758 2.36297 12.9025 1.87263 13.3159C1.38228 13.7293 1.05386 14.3027 0.94541 14.9348C0.836957 15.5669 0.955457 16.217 1.27996 16.7702C1.60447 17.3234 2.11409 17.744 2.71876 17.9578ZM3.62501 14.4995C3.80424 14.4995 3.97946 14.5527 4.12849 14.6523C4.27752 14.7519 4.39368 14.8934 4.46227 15.059C4.53086 15.2246 4.54881 15.4068 4.51384 15.5826C4.47887 15.7584 4.39256 15.9199 4.26582 16.0466C4.13908 16.1734 3.9776 16.2597 3.80181 16.2946C3.62601 16.3296 3.44379 16.3117 3.2782 16.2431C3.1126 16.1745 2.97107 16.0583 2.87149 15.9093C2.77191 15.7602 2.71876 15.585 2.71876 15.4058C2.71876 15.1654 2.81424 14.9349 2.98419 14.765C3.15415 14.595 3.38465 14.4995 3.62501 14.4995Z" fill="url(#paint14_linear_2012_12628)"/>
<path d="M5.27029 29.9063H13.5933V28.0938H5.27029C5.05651 27.4891 4.63586 26.9795 4.08267 26.655C3.52949 26.3305 2.87939 26.212 2.24729 26.3204C1.61518 26.4289 1.04176 26.7573 0.628386 27.2476C0.215007 27.738 -0.0117188 28.3587 -0.0117188 29C-0.0117188 29.6413 0.215007 30.262 0.628386 30.7524C1.04176 31.2427 1.61518 31.5711 2.24729 31.6796C2.87939 31.7881 3.52949 31.6696 4.08267 31.345C4.63586 31.0205 5.05651 30.5109 5.27029 29.9063ZM1.81204 29C1.81204 28.8208 1.86519 28.6456 1.96477 28.4965C2.06435 28.3475 2.20589 28.2313 2.37149 28.1627C2.53708 28.0941 2.7193 28.0762 2.89509 28.1112C3.07089 28.1461 3.23237 28.2324 3.35911 28.3592C3.48585 28.4859 3.57216 28.6474 3.60713 28.8232C3.6421 28.999 3.62415 29.1812 3.55556 29.3468C3.48697 29.5124 3.37081 29.6539 3.22178 29.7535C3.07275 29.8531 2.89753 29.9063 2.71829 29.9063C2.47794 29.9063 2.24743 29.8108 2.07748 29.6408C1.90752 29.4709 1.81204 29.2404 1.81204 29Z" fill="url(#paint15_linear_2012_12628)"/>
</g>
<defs>
<linearGradient id="paint0_linear_2012_12628" x1="29" y1="0.242875" x2="29" y2="56.9125" gradientUnits="userSpaceOnUse">
<stop stop-color="#38D6A4"/>
<stop offset="0.171" stop-color="#32CAAE"/>
<stop offset="0.478" stop-color="#22ABC8"/>
<stop offset="0.884" stop-color="#0879F2"/>
<stop offset="0.999" stop-color="#0069FF"/>
</linearGradient>
<linearGradient id="paint1_linear_2012_12628" x1="29" y1="0.242875" x2="29" y2="56.9125" gradientUnits="userSpaceOnUse">
<stop stop-color="#38D6A4"/>
<stop offset="0.171" stop-color="#32CAAE"/>
<stop offset="0.478" stop-color="#22ABC8"/>
<stop offset="0.884" stop-color="#0879F2"/>
<stop offset="0.999" stop-color="#0069FF"/>
</linearGradient>
<linearGradient id="paint2_linear_2012_12628" x1="26.2812" y1="0.242876" x2="26.2812" y2="56.9125" gradientUnits="userSpaceOnUse">
<stop stop-color="#38D6A4"/>
<stop offset="0.171" stop-color="#32CAAE"/>
<stop offset="0.478" stop-color="#22ABC8"/>
<stop offset="0.884" stop-color="#0879F2"/>
<stop offset="0.999" stop-color="#0069FF"/>
</linearGradient>
<linearGradient id="paint3_linear_2012_12628" x1="32.625" y1="0.242876" x2="32.625" y2="56.9125" gradientUnits="userSpaceOnUse">
<stop stop-color="#38D6A4"/>
<stop offset="0.171" stop-color="#32CAAE"/>
<stop offset="0.478" stop-color="#22ABC8"/>
<stop offset="0.884" stop-color="#0879F2"/>
<stop offset="0.999" stop-color="#0069FF"/>
</linearGradient>
<linearGradient id="paint4_linear_2012_12628" x1="50.75" y1="0.242418" x2="50.75" y2="56.912" gradientUnits="userSpaceOnUse">
<stop stop-color="#38D6A4"/>
<stop offset="0.171" stop-color="#32CAAE"/>
<stop offset="0.478" stop-color="#22ABC8"/>
<stop offset="0.884" stop-color="#0879F2"/>
<stop offset="0.999" stop-color="#0069FF"/>
</linearGradient>
<linearGradient id="paint5_linear_2012_12628" x1="50.75" y1="0.242873" x2="50.75" y2="56.9125" gradientUnits="userSpaceOnUse">
<stop stop-color="#38D6A4"/>
<stop offset="0.171" stop-color="#32CAAE"/>
<stop offset="0.478" stop-color="#22ABC8"/>
<stop offset="0.884" stop-color="#0879F2"/>
<stop offset="0.999" stop-color="#0069FF"/>
</linearGradient>
<linearGradient id="paint6_linear_2012_12628" x1="51.2031" y1="0.242876" x2="51.2031" y2="56.9125" gradientUnits="userSpaceOnUse">
<stop stop-color="#38D6A4"/>
<stop offset="0.171" stop-color="#32CAAE"/>
<stop offset="0.478" stop-color="#22ABC8"/>
<stop offset="0.884" stop-color="#0879F2"/>
<stop offset="0.999" stop-color="#0069FF"/>
</linearGradient>
<linearGradient id="paint7_linear_2012_12628" x1="29" y1="0.242418" x2="29" y2="56.912" gradientUnits="userSpaceOnUse">
<stop stop-color="#38D6A4"/>
<stop offset="0.171" stop-color="#32CAAE"/>
<stop offset="0.478" stop-color="#22ABC8"/>
<stop offset="0.884" stop-color="#0879F2"/>
<stop offset="0.999" stop-color="#0069FF"/>
</linearGradient>
<linearGradient id="paint8_linear_2012_12628" x1="39.4219" y1="0.242881" x2="39.4219" y2="56.9125" gradientUnits="userSpaceOnUse">
<stop stop-color="#38D6A4"/>
<stop offset="0.171" stop-color="#32CAAE"/>
<stop offset="0.478" stop-color="#22ABC8"/>
<stop offset="0.884" stop-color="#0879F2"/>
<stop offset="0.999" stop-color="#0069FF"/>
</linearGradient>
<linearGradient id="paint9_linear_2012_12628" x1="18.5775" y1="0.241622" x2="18.5775" y2="56.9112" gradientUnits="userSpaceOnUse">
<stop stop-color="#38D6A4"/>
<stop offset="0.171" stop-color="#32CAAE"/>
<stop offset="0.478" stop-color="#22ABC8"/>
<stop offset="0.884" stop-color="#0879F2"/>
<stop offset="0.999" stop-color="#0069FF"/>
</linearGradient>
<linearGradient id="paint10_linear_2012_12628" x1="29" y1="0.242874" x2="29" y2="56.9125" gradientUnits="userSpaceOnUse">
<stop stop-color="#38D6A4"/>
<stop offset="0.171" stop-color="#32CAAE"/>
<stop offset="0.478" stop-color="#22ABC8"/>
<stop offset="0.884" stop-color="#0879F2"/>
<stop offset="0.999" stop-color="#0069FF"/>
</linearGradient>
<linearGradient id="paint11_linear_2012_12628" x1="18.5777" y1="0.242881" x2="18.5777" y2="56.9125" gradientUnits="userSpaceOnUse">
<stop stop-color="#38D6A4"/>
<stop offset="0.171" stop-color="#32CAAE"/>
<stop offset="0.478" stop-color="#22ABC8"/>
<stop offset="0.884" stop-color="#0879F2"/>
<stop offset="0.999" stop-color="#0069FF"/>
</linearGradient>
<linearGradient id="paint12_linear_2012_12628" x1="39.4219" y1="0.242876" x2="39.4219" y2="56.9125" gradientUnits="userSpaceOnUse">
<stop stop-color="#38D6A4"/>
<stop offset="0.171" stop-color="#32CAAE"/>
<stop offset="0.478" stop-color="#22ABC8"/>
<stop offset="0.884" stop-color="#0879F2"/>
<stop offset="0.999" stop-color="#0069FF"/>
</linearGradient>
<linearGradient id="paint13_linear_2012_12628" x1="7.25" y1="0.242873" x2="7.25" y2="56.9125" gradientUnits="userSpaceOnUse">
<stop stop-color="#38D6A4"/>
<stop offset="0.171" stop-color="#32CAAE"/>
<stop offset="0.478" stop-color="#22ABC8"/>
<stop offset="0.884" stop-color="#0879F2"/>
<stop offset="0.999" stop-color="#0069FF"/>
</linearGradient>
<linearGradient id="paint14_linear_2012_12628" x1="7.25" y1="0.242418" x2="7.25" y2="56.912" gradientUnits="userSpaceOnUse">
<stop stop-color="#38D6A4"/>
<stop offset="0.171" stop-color="#32CAAE"/>
<stop offset="0.478" stop-color="#22ABC8"/>
<stop offset="0.884" stop-color="#0879F2"/>
<stop offset="0.999" stop-color="#0069FF"/>
</linearGradient>
<linearGradient id="paint15_linear_2012_12628" x1="6.79642" y1="0.242889" x2="6.79642" y2="56.9125" gradientUnits="userSpaceOnUse">
<stop stop-color="#38D6A4"/>
<stop offset="0.171" stop-color="#32CAAE"/>
<stop offset="0.478" stop-color="#22ABC8"/>
<stop offset="0.884" stop-color="#0879F2"/>
<stop offset="0.999" stop-color="#0069FF"/>
</linearGradient>
<clipPath id="clip0_2012_12628">
<rect width="58" height="58" fill="white"/>
</clipPath>
</defs>
</svg>
