<svg width="69" height="69" viewBox="0 0 69 69" fill="none" xmlns="http://www.w3.org/2000/svg">
<path d="M68 40.5H1V68.5H68V40.5Z" fill="url(#paint0_radial_61_324)"/>
<path d="M1 6.5C1 3.46244 3.46243 1 6.5 1H62.5C65.5376 1 68 3.46243 68 6.5V62.5C68 65.5376 65.5376 68 62.5 68H6.5C3.46244 68 1 65.5376 1 62.5V6.5Z" stroke="#262626"/>
<path d="M26.9881 38.253C26.5903 38.253 26.2087 38.411 25.9274 38.6924C25.6461 38.9737 25.4881 39.3552 25.4881 39.753V42.426C23.5545 40.2398 22.4874 37.4217 22.4881 34.503C22.4863 34.0618 22.5124 33.6209 22.5661 33.183C22.5947 32.9851 22.5835 32.7836 22.5331 32.5901C22.4827 32.3966 22.3941 32.2152 22.2726 32.0564C22.151 31.8977 21.999 31.7648 21.8254 31.6657C21.6517 31.5666 21.4601 31.5031 21.2616 31.4791C21.0631 31.4551 20.8618 31.4711 20.6696 31.526C20.4773 31.5809 20.298 31.6737 20.1422 31.7989C19.9863 31.9241 19.857 32.0792 19.762 32.255C19.6669 32.4309 19.6079 32.624 19.5886 32.823C19.5202 33.3804 19.4866 33.9415 19.4881 34.503C19.4896 38.0824 20.7761 41.5423 23.1136 44.253H20.9881C20.5903 44.253 20.2087 44.411 19.9274 44.6924C19.6461 44.9737 19.4881 45.3552 19.4881 45.753C19.4881 46.1508 19.6461 46.5324 19.9274 46.8137C20.2087 47.095 20.5903 47.253 20.9881 47.253H26.9881C27.2227 47.2502 27.4533 47.1913 27.6605 47.0812C27.8677 46.971 28.0455 46.8129 28.1791 46.62L28.2346 46.5555C28.2451 46.5405 28.2451 46.5225 28.2541 46.5075C28.3249 46.3866 28.3784 46.2563 28.4131 46.1205C28.4353 46.0439 28.4513 45.9657 28.4611 45.8865C28.4656 45.8415 28.4881 45.801 28.4881 45.753V39.753C28.4881 39.3552 28.33 38.9737 28.0487 38.6924C27.7674 38.411 27.3859 38.253 26.9881 38.253ZM29.2381 25.503H26.5636C28.7502 23.569 31.5689 22.502 34.4881 22.503C34.9293 22.5018 35.3702 22.5283 35.8081 22.5825C36.2033 22.6303 36.6013 22.519 36.9146 22.2733C37.2278 22.0276 37.4306 21.6675 37.4783 21.2723C37.5261 20.877 37.4149 20.479 37.1691 20.1658C36.9234 19.8525 36.5633 19.6498 36.1681 19.602C35.6107 19.5341 35.0496 19.501 34.4881 19.503C30.9087 19.5045 27.4488 20.7911 24.7381 23.1285V21.003C24.7381 20.6052 24.58 20.2237 24.2987 19.9424C24.0174 19.661 23.6359 19.503 23.2381 19.503C22.8403 19.503 22.4587 19.661 22.1774 19.9424C21.8961 20.2237 21.7381 20.6052 21.7381 21.003V27.003C21.7478 27.1022 21.7674 27.2002 21.7966 27.2955C21.8339 27.4803 21.9056 27.6563 22.0081 27.8145L22.0261 27.84C22.1257 27.9834 22.2495 28.1082 22.3921 28.209C22.4086 28.221 22.4176 28.239 22.4341 28.251C22.4551 28.266 22.4791 28.2705 22.5016 28.2825C22.5872 28.3334 22.6776 28.3756 22.7716 28.4085C22.898 28.4523 23.0296 28.4791 23.1631 28.488C23.1901 28.488 23.2111 28.503 23.2381 28.503H29.2381C29.6359 28.503 30.0174 28.345 30.2987 28.0637C30.58 27.7824 30.7381 27.4008 30.7381 27.003C30.7381 26.6052 30.58 26.2237 30.2987 25.9424C30.0174 25.661 29.6359 25.503 29.2381 25.503ZM47.1781 41.709C47.1406 41.5248 47.0689 41.3492 46.9666 41.1915L46.9501 41.166C46.85 41.0225 46.7257 40.8976 46.5826 40.797C46.5661 40.785 46.5586 40.767 46.5406 40.755C46.5256 40.7445 46.5061 40.7445 46.4896 40.734C46.2986 40.6294 46.0902 40.5603 45.8746 40.53C45.8266 40.5255 45.7861 40.503 45.7381 40.503H39.7381C39.3403 40.503 38.9587 40.661 38.6774 40.9424C38.3961 41.2237 38.2381 41.6052 38.2381 42.003C38.2381 42.4008 38.3961 42.7824 38.6774 43.0637C38.9587 43.345 39.3403 43.503 39.7381 43.503H42.4111C40.2248 45.4366 37.4067 46.5037 34.4881 46.503C34.0468 46.5038 33.6059 46.4767 33.1681 46.422C32.7728 46.3743 32.3748 46.4855 32.0616 46.7312C31.7484 46.9769 31.5456 47.337 31.4978 47.7323C31.4501 48.1275 31.5613 48.5255 31.807 48.8387C32.0528 49.152 32.4128 49.3548 32.8081 49.4025C33.3654 49.4709 33.9265 49.5045 34.4881 49.503C38.0675 49.5015 41.5273 48.215 44.2381 45.8775V48.003C44.2381 48.4008 44.3961 48.7824 44.6774 49.0637C44.9587 49.345 45.3403 49.503 45.7381 49.503C46.1359 49.503 46.5174 49.345 46.7987 49.0637C47.0801 48.7824 47.2381 48.4008 47.2381 48.003V42.003C47.2279 41.9038 47.2078 41.8043 47.1781 41.709ZM47.9881 24.753C48.3859 24.753 48.7674 24.595 49.0487 24.3137C49.3301 24.0324 49.4881 23.6508 49.4881 23.253C49.4881 22.8552 49.3301 22.4737 49.0487 22.1924C48.7674 21.911 48.3859 21.753 47.9881 21.753H41.9881C41.8904 21.763 41.7939 21.7826 41.7001 21.8115L41.6896 21.813C41.5081 21.8509 41.3351 21.9221 41.1796 22.023L41.1496 22.0425C41.0068 22.1422 40.8824 22.2661 40.7821 22.4085C40.7701 22.4235 40.7521 22.4325 40.7401 22.449C40.7296 22.464 40.7296 22.4835 40.7191 22.5C40.6139 22.6924 40.5448 22.9023 40.5151 23.1195C40.5106 23.1645 40.4881 23.205 40.4881 23.253V29.253C40.4881 29.6508 40.6461 30.0324 40.9274 30.3137C41.2087 30.595 41.5903 30.753 41.9881 30.753C42.3859 30.753 42.7674 30.595 43.0487 30.3137C43.33 30.0324 43.4881 29.6508 43.4881 29.253V26.5785C45.4208 28.7659 46.4877 31.5841 46.4881 34.503C46.4893 34.9442 46.4628 35.3851 46.4086 35.823C46.3607 36.2178 46.4716 36.6155 46.7169 36.9286C46.9622 37.2416 47.3218 37.4445 47.7166 37.4925C47.7773 37.4997 47.8384 37.5032 47.8996 37.503C48.2658 37.5024 48.6191 37.3678 48.8929 37.1246C49.1667 36.8815 49.3421 36.5466 49.3861 36.183C49.455 35.6257 49.4891 35.0646 49.4881 34.503C49.4866 30.9236 48.2 27.4638 45.8626 24.753H47.9881Z" fill="white"/>
<defs>
<radialGradient id="paint0_radial_61_324" cx="0" cy="0" r="1" gradientUnits="userSpaceOnUse" gradientTransform="translate(34.5 68.5) scale(33.5 28)">
<stop stop-color="white" stop-opacity="0.12"/>
<stop offset="1" stop-color="white" stop-opacity="0"/>
</radialGradient>
</defs>
</svg>

