<svg width="36" height="36" viewBox="0 0 36 36" fill="none" xmlns="http://www.w3.org/2000/svg">
<path d="M33.3333 3H2.66667C2.29867 3 2 3.30545 2 3.68182V32.3182C2 32.6945 2.29867 33 2.66667 33H33.3333C33.7013 33 34 32.6945 34 32.3182V3.68182C34 3.30409 33.7027 3 33.3333 3ZM32.6667 4.36364V7.09227H3.33333V4.36364H32.6667ZM3.33467 31.6364V8.45591H32.668V31.6364H3.33467ZM10.6293 12.5455H6.62933C6.26133 12.5455 5.96267 12.8495 5.96267 13.2273V28.2273C5.96267 28.6036 6.26133 28.9091 6.62933 28.9091H10.6293C10.9973 28.9091 11.296 28.6036 11.296 28.2273V13.2273C11.296 12.8495 10.9973 12.5455 10.6293 12.5455ZM9.96267 27.5455H7.296V13.9091H9.96267V27.5455ZM29.296 12.5455H14.6293C14.2613 12.5455 13.9627 12.8495 13.9627 13.2273V28.2273C13.9627 28.6036 14.2613 28.9091 14.6293 28.9091H29.296C29.664 28.9091 29.9627 28.6036 29.9627 28.2273V13.2273C29.9627 12.8495 29.664 12.5455 29.296 12.5455ZM28.6293 27.5455H15.296V13.9091H28.6293V27.5455Z" fill="white"/>
</svg>
