<svg width="52" height="52" viewBox="0 0 52 52" fill="none" xmlns="http://www.w3.org/2000/svg">
<path d="M8.29412 6C5.92705 6 4 7.92825 4 10.2951V36.6362C4 39.0031 5.92714 40.9313 8.29412 40.9313H21.3602L25.3089 49.5543C25.4319 49.8256 25.7021 50 26.0002 50C26.2982 50 26.5685 49.8256 26.6914 49.5543L30.6401 40.9313H43.7045C46.0716 40.9313 48 39.0031 48 36.6362V10.2951C48 7.92825 46.0712 6 43.7045 6H8.29412ZM8.29412 7.51715H43.7044C45.2576 7.51715 46.4826 8.74205 46.4826 10.2951V36.6362C46.4826 38.1893 45.2576 39.4128 43.7044 39.4128H30.1527C29.8561 39.4131 29.5871 39.5862 29.4639 39.8557L26.0025 47.4147L22.5367 39.8557H22.5364C22.4131 39.5862 22.1442 39.4131 21.8475 39.4128H8.29417C6.74098 39.4128 5.51734 38.1893 5.51734 36.6362V10.2951C5.51734 8.74205 6.74093 7.51715 8.29412 7.51715ZM25.9499 12.8183C25.6448 12.838 25.3813 13.0391 25.2817 13.328L22.8828 20.2219L15.5733 20.3729C15.2509 20.3804 14.9685 20.5907 14.8692 20.8972C14.77 21.2037 14.8753 21.5392 15.132 21.7343L20.9537 26.1466L18.8407 33.1336C18.7462 33.4428 18.8579 33.7774 19.1194 33.9677C19.3805 34.158 19.7338 34.1624 19.9992 33.9782L25.9986 29.8061L31.9998 33.9782H32.0001C32.2656 34.1624 32.6189 34.158 32.88 33.9677C33.1414 33.7774 33.2532 33.4428 33.1587 33.1336L31.0412 26.1466L36.8659 21.7343C37.123 21.5389 37.2283 21.2026 37.1281 20.8958C37.0278 20.589 36.7443 20.379 36.4216 20.3729L29.1165 20.2219L26.7176 13.328C26.6059 13.0046 26.2917 12.7956 25.9499 12.8183ZM25.999 15.8869L27.8557 21.2205V21.2202C27.9597 21.5202 28.2401 21.7238 28.5578 21.7299L34.2107 21.844L29.7032 25.2545C29.4489 25.4465 29.3418 25.7767 29.435 26.0815L31.0738 31.485L26.4315 28.261V28.2607C26.1717 28.0812 25.8276 28.0812 25.5679 28.2607L20.9255 31.4846L22.5614 26.0812V26.0815C22.6542 25.7767 22.5465 25.4462 22.2918 25.2545L17.7886 21.844L23.4415 21.7299C23.7592 21.7238 24.0396 21.5202 24.1436 21.2202L25.999 15.8869Z" fill="white"/>
</svg>
