<svg width="56" height="55" viewBox="0 0 56 55" fill="none" xmlns="http://www.w3.org/2000/svg">
<path d="M19.3149 12.253L16.912 11.9076C16.6907 11.8754 16.4998 11.7352 16.403 11.5338L15.328 9.38017C15.2136 9.14757 14.9767 9 14.7169 9C14.4572 9 14.2202 9.14757 14.1061 9.38017L13.0351 11.5501C12.9384 11.7513 12.7475 11.8915 12.5259 11.9239L10.123 12.253C9.86093 12.2857 9.64137 12.467 9.56025 12.7177C9.47913 12.9687 9.55079 13.2437 9.74425 13.4232L11.4833 15.1175V15.1178C11.6456 15.271 11.7193 15.4956 11.6789 15.7149L11.2717 18.1043H11.2715C11.2313 18.3039 11.283 18.5112 11.4125 18.6685C11.5417 18.8261 11.7354 18.9172 11.9394 18.917C12.0491 18.917 12.1571 18.8891 12.2531 18.8358L14.4034 17.7103V17.71C14.6012 17.6074 14.8369 17.6074 15.0347 17.71L17.185 18.8355V18.8358C17.2807 18.8891 17.3887 18.917 17.4985 18.917C17.7027 18.9172 17.8962 18.8261 18.0257 18.6685C18.1551 18.5112 18.2068 18.3039 18.1664 18.1043L17.7593 15.7149C17.7224 15.4959 17.7954 15.273 17.9548 15.1178L19.6939 13.4234L19.6936 13.4232C19.8907 13.2452 19.9649 12.9685 19.8832 12.716C19.8014 12.4637 19.579 12.2824 19.3149 12.253ZM17.3844 14.5165V14.5162C17.0313 14.8586 16.8698 15.3527 16.9527 15.837L17.3192 17.9541L15.4132 16.9545L15.4135 16.9543C14.9787 16.7268 14.4595 16.7268 14.0247 16.9543L12.1188 17.9702L12.4811 15.8531C12.5709 15.3728 12.4187 14.8793 12.074 14.5326L10.514 13.0331L12.6439 12.7241L12.6442 12.7244C13.1299 12.6539 13.5498 12.3503 13.7681 11.9117L14.7169 9.98552L15.6699 11.9117C15.8882 12.3503 16.3084 12.6539 16.794 12.7244L18.9078 13.0331L17.3844 14.5165ZM19.3149 25.6254L16.912 25.2759V25.2761C16.6917 25.244 16.5013 25.1056 16.403 24.9062L15.328 22.7365C15.2136 22.5036 14.9767 22.3561 14.7169 22.3561C14.4572 22.3561 14.2202 22.5036 14.1061 22.7365L13.0351 24.9062C12.9366 25.1056 12.7462 25.244 12.5259 25.2761L10.123 25.6257V25.6254C9.8681 25.663 9.65621 25.8412 9.57611 26.0855C9.49576 26.3301 9.56102 26.5987 9.74424 26.7795L11.4833 28.4699C11.6458 28.6247 11.7193 28.8506 11.6789 29.0712L11.2717 31.4564H11.2715C11.2298 31.6563 11.2807 31.8644 11.4104 32.0222C11.5404 32.1802 11.7349 32.2709 11.9394 32.2691C12.0512 32.2599 12.1587 32.2236 12.2531 32.1634L14.4034 31.0339C14.6012 30.9312 14.8369 30.9312 15.0347 31.0339L17.185 32.1634C17.2818 32.2137 17.3892 32.2402 17.4985 32.2405C17.7032 32.2425 17.8977 32.1516 18.0274 31.9939C18.1572 31.8358 18.2084 31.6277 18.1664 31.4278L17.7593 29.0426V29.0429C17.7232 28.8225 17.7959 28.5986 17.9548 28.4413L19.6939 26.7509L19.6936 26.7511C19.8635 26.5698 19.9201 26.3104 19.8408 26.0755C19.7617 25.8404 19.5598 25.6676 19.3149 25.6254ZM17.3844 27.8889C17.0313 28.2312 16.8698 28.725 16.9527 29.2094L17.3192 31.3224L15.4132 30.3228H15.4135C14.9787 30.0951 14.4595 30.0951 14.0247 30.3228L12.1188 31.3224L12.4811 29.2053C12.5704 28.7263 12.4182 28.2343 12.074 27.8888L10.514 26.3893L12.6442 26.0684C13.1299 25.9979 13.5498 25.6943 13.7681 25.2557L14.7169 23.3295L15.6699 25.2557C15.8882 25.6943 16.3084 25.9979 16.7941 26.0684L18.9239 26.3773L17.3844 27.8889ZM19.3149 38.9815L16.912 38.6319C16.6909 38.599 16.5003 38.4591 16.403 38.2582L15.328 36.0843C15.2136 35.8515 14.9767 35.7039 14.7169 35.7039C14.4572 35.7039 14.2202 35.8515 14.1061 36.0843L13.0351 38.2582C12.9366 38.4576 12.7462 38.5959 12.5259 38.6279L10.123 38.9774C9.86631 39.0139 9.65263 39.1926 9.57228 39.4388C9.49167 39.6846 9.55846 39.955 9.74425 40.1355L11.4833 41.826V41.8257C11.6456 41.9789 11.7193 42.2039 11.6789 42.4232L11.2717 44.8125H11.2715C11.2298 45.0124 11.2807 45.2202 11.4104 45.3783C11.5404 45.5361 11.7349 45.627 11.9394 45.6252C12.0486 45.6247 12.1561 45.5981 12.2531 45.5478L14.4034 44.4183C14.6012 44.3156 14.8369 44.3156 15.0347 44.4183L17.185 45.5478C17.2818 45.5981 17.3892 45.6247 17.4985 45.6252C17.7032 45.627 17.8977 45.5361 18.0274 45.3783C18.1572 45.2202 18.2084 45.0124 18.1664 44.8125L17.7593 42.4232C17.7224 42.2041 17.7954 41.981 17.9548 41.8257L19.6939 40.1353L19.6936 40.1355C19.8802 39.956 19.9475 39.6859 19.8669 39.44C19.7863 39.1941 19.5719 39.0162 19.3149 38.9815ZM17.3844 41.2449V41.2447C17.0315 41.5855 16.8698 42.0783 16.9527 42.5614L17.3192 44.6785L15.4132 43.6789L15.4135 43.6787C14.9787 43.4512 14.4595 43.4512 14.0247 43.6787L12.1188 44.6783L12.4811 42.5611V42.5614C12.5704 42.0824 12.4182 41.5904 12.074 41.2447L10.514 39.7454L12.6439 39.4364H12.6442C13.1299 39.3662 13.5498 39.0624 13.7681 38.6237L14.7169 36.6976L15.6699 38.6237C15.8882 39.0624 16.3084 39.3662 16.794 39.4364L18.9239 39.7454L17.3844 41.2449ZM23.7947 13.9104C23.7947 13.686 23.9772 13.5042 24.2021 13.5042H45.7865C46.0114 13.5042 46.1936 13.686 46.1936 13.9104C46.1936 14.1349 46.0114 14.3166 45.7865 14.3166H24.2021C23.9772 14.3166 23.7947 14.1349 23.7947 13.9104ZM46.194 27.726C46.194 27.8338 46.1513 27.9372 46.0748 28.0133C45.9985 28.0896 45.8949 28.1325 45.7869 28.1325H24.2025C23.9776 28.1325 23.7951 27.9505 23.7951 27.726C23.7951 27.5016 23.9776 27.3198 24.2025 27.3198H45.7869C45.8949 27.3198 45.9985 27.3625 46.0748 27.4388C46.1513 27.5149 46.194 27.6183 46.194 27.726ZM46.194 41.1351C46.194 41.2428 46.1513 41.3463 46.0748 41.4223C45.9985 41.4987 45.8949 41.5413 45.7869 41.5413H24.2025C23.9776 41.5413 23.7951 41.3595 23.7951 41.1351C23.7951 40.9107 23.9776 40.7286 24.2025 40.7286H45.7869C45.8949 40.7286 45.9985 40.7715 46.0748 40.8476C46.1513 40.9239 46.194 41.0274 46.194 41.1351Z" fill="#E7E7E7" stroke="#E7E7E7" stroke-width="0.5"/>
</svg>
