<svg width="44" height="44" viewBox="0 0 44 44" fill="none" xmlns="http://www.w3.org/2000/svg">
<path d="M20.3263 16.2174C19.8352 16.2174 19.4375 15.8193 19.4375 15.3283C19.4375 14.8375 19.8353 14.4395 20.3263 14.4395H33.498C33.9891 14.4395 34.3871 14.8375 34.3871 15.3283C34.3871 15.8193 33.9891 16.2174 33.498 16.2174H20.3263Z" fill="#E7E7E7"/>
<path d="M15.5488 11.8498C15.8551 11.4662 16.4143 11.4036 16.7979 11.7102C17.1815 12.0165 17.2441 12.5757 16.9378 12.9593L11.9434 19.2134L9.40087 15.9512C9.09886 15.5641 9.16823 15.0056 9.55525 14.7038C9.94258 14.4018 10.5012 14.4712 10.8029 14.8582L11.9602 16.3434L15.5488 11.8498Z" fill="#E7E7E7"/>
<path d="M20.3263 23.1265C19.8352 23.1265 19.4375 22.7285 19.4375 22.2374C19.4375 21.7467 19.8353 21.3486 20.3263 21.3486H33.498C33.9891 21.3486 34.3871 21.7467 34.3871 22.2374C34.3871 22.7285 33.9891 23.1265 33.498 23.1265H20.3263Z" fill="#E7E7E7"/>
<path d="M15.5488 18.757C15.8551 18.3736 16.4143 18.3107 16.7979 18.6173C17.1815 18.9236 17.2441 19.4829 16.9378 19.8664L11.9434 26.1206L9.40087 22.8583C9.09886 22.4713 9.16823 21.9127 9.55525 21.611C9.94258 21.309 10.5012 21.3783 10.8029 21.7653L11.9602 23.2505L15.5488 18.757Z" fill="#E7E7E7"/>
<path d="M20.3263 30.0367C19.8352 30.0367 19.4375 29.6386 19.4375 29.1479C19.4375 28.6568 19.8353 28.2588 20.3263 28.2588H33.498C33.9891 28.2588 34.3871 28.6569 34.3871 29.1479C34.3871 29.6387 33.9891 30.0367 33.498 30.0367H20.3263Z" fill="#E7E7E7"/>
<path d="M15.5488 25.6663C15.8551 25.2826 16.4143 25.22 16.7979 25.5263C17.1815 25.8327 17.2441 26.3919 16.9378 26.7755L11.9434 33.0296L9.40087 29.7673C9.09886 29.3803 9.16823 28.8217 9.55525 28.52C9.94258 28.218 10.5012 28.2874 10.8029 28.6747L11.9602 30.1595L15.5488 25.6663Z" fill="#E7E7E7"/>
<path d="M22 44C9.84971 44 0 34.1503 0 22C0 9.84971 9.84971 0 22 0C34.1503 0 44 9.84971 44 22C44 34.1503 34.1503 44 22 44ZM22 42.2223C33.1681 42.2223 42.2227 33.1685 42.2227 21.9996C42.2227 10.8307 33.1689 1.77689 22 1.77689C10.8311 1.77689 1.77729 10.8307 1.77729 21.9996C1.77729 33.1685 10.8311 42.2223 22 42.2223Z" fill="#E7E7E7"/>
</svg>
