<svg width="26" height="27" viewBox="0 0 26 27" fill="none" xmlns="http://www.w3.org/2000/svg">
<path d="M2.56352 12.3333C2.79132 10.3042 3.60518 8.38532 4.90567 6.81114C6.20616 5.23696 7.93698 4.07562 9.88668 3.469C8.29988 6.1685 7.37885 9.20712 7.19985 12.3333H2.56352ZM11.8233 0.720338C5.28768 1.313 0.166016 6.80917 0.166016 13.5C0.166016 20.1908 5.28768 25.687 11.8233 26.2808L11.8327 26.2925L12.3285 26.3158C12.552 26.3266 12.7756 26.3325 12.9993 26.3333C13.2231 26.3334 13.4468 26.3275 13.6702 26.3158L14.166 26.2925L14.1754 26.2808C20.711 25.6847 25.8327 20.1908 25.8327 13.5C25.8327 6.80917 20.711 1.313 14.1754 0.720338L14.166 0.708671L13.669 0.684171C13.2229 0.660859 12.7758 0.660859 12.3297 0.684171L11.8327 0.707504L11.8233 0.720338ZM13.0017 3C15.0398 5.70743 16.2422 8.95156 16.4608 12.3333H9.53785C9.75684 8.95143 10.9596 5.70729 12.9982 3H12.9993M7.19868 14.6667C7.38535 17.8867 8.34202 20.9025 9.88552 23.531C7.93603 22.9242 6.20546 21.7628 4.90519 20.1886C3.60492 18.6144 2.79123 16.6957 2.56352 14.6667H7.19868ZM12.997 24C10.9584 21.2927 9.75567 18.0486 9.53668 14.6667H16.4597C16.2407 18.0486 15.0379 21.2927 12.9993 24H12.997ZM16.112 23.531C17.6984 20.8314 18.619 17.7928 18.7977 14.6667H23.434C23.2063 16.6957 22.3926 18.6144 21.0923 20.1886C19.7921 21.7628 18.0615 22.9242 16.112 23.531ZM18.7977 12.3333C18.611 9.11334 17.6544 6.0975 16.1108 3.469C18.0608 4.07543 19.7918 5.23669 21.0925 6.81088C22.3933 8.38508 23.2073 10.3041 23.4352 12.3333H18.7977Z" fill="white"/>
</svg>

