<svg width="60" height="60" viewBox="0 0 60 60" fill="none" xmlns="http://www.w3.org/2000/svg">
<rect opacity="0.2" width="60" height="60" rx="8" fill="url(#paint0_linear_1898_4495)"/>
<g clip-path="url(#clip0_1898_4495)">
<path d="M45.4651 31.0351L44.4651 30.9651C44.2371 34.3764 42.8111 37.5974 40.4388 40.0593C38.0665 42.5213 34.9006 44.0658 31.5001 44.4201V40.8951C33.9543 40.5572 36.2227 39.4009 37.9378 37.6132C39.6528 35.8255 40.7143 33.5112 40.9501 31.0451L39.9501 30.9551C39.7285 33.2669 38.7091 35.4296 37.0668 37.0718C35.4246 38.714 33.262 39.7334 30.9501 39.9551C30.8255 39.9663 30.7096 40.024 30.6253 40.1165C30.5411 40.2091 30.4946 40.3299 30.4951 40.4551V44.9551C30.4953 45.0236 30.5097 45.0914 30.5372 45.1542C30.5647 45.217 30.6049 45.2735 30.6551 45.3201C30.7473 45.4064 30.8688 45.4546 30.9951 45.4551H31.0301C34.774 45.2058 38.3003 43.607 40.9549 40.9552C43.6094 38.3034 45.212 34.7787 45.4651 31.0351Z" fill="url(#paint1_linear_1898_4495)"/>
<path d="M19.0502 28.956L20.0502 29.046C20.2718 26.7341 21.2912 24.5715 22.9334 22.9292C24.5757 21.287 26.7383 20.2676 29.0502 20.046C29.1748 20.0347 29.2907 19.9771 29.375 19.8845C29.4592 19.7919 29.5057 19.6711 29.5052 19.546V15.046C29.5049 14.9774 29.4906 14.9096 29.4631 14.8468C29.4356 14.784 29.3954 14.7276 29.3452 14.681C29.2952 14.6339 29.2362 14.5977 29.1717 14.5745C29.1072 14.5513 29.0386 14.5415 28.9702 14.546C25.2263 14.7952 21.6999 16.3941 19.0454 19.0459C16.3908 21.6977 14.7883 25.2224 14.5352 28.966L15.5352 29.036C15.7631 25.6247 17.1892 22.4037 19.5615 19.9417C21.9338 17.4798 25.0997 15.9353 28.5002 15.581V19.106C26.0459 19.4438 23.7776 20.6002 22.0625 22.3879C20.3474 24.1756 19.286 26.4898 19.0502 28.956Z" fill="url(#paint2_linear_1898_4495)"/>
<path d="M28.965 45.4661L29.035 44.4661C25.6237 44.2381 22.4027 42.8121 19.9407 40.4398C17.4788 38.0675 15.9343 34.9016 15.58 31.5011H19.105C19.4428 33.9553 20.5992 36.2236 22.3869 37.9387C24.1746 39.6538 26.4889 40.7152 28.955 40.9511L29.045 39.9511C26.7331 39.7295 24.5705 38.71 22.9283 37.0678C21.286 35.4256 20.2666 33.263 20.045 30.9511C20.0337 30.8264 19.9761 30.7105 19.8835 30.6263C19.791 30.542 19.6701 30.4956 19.545 30.4961H15.045C14.9764 30.4963 14.9086 30.5106 14.8459 30.5382C14.7831 30.5657 14.7266 30.6058 14.68 30.6561C14.633 30.706 14.5967 30.7651 14.5735 30.8296C14.5503 30.8941 14.5406 30.9627 14.545 31.0311C14.7942 34.775 16.3931 38.3013 19.0449 40.9559C21.6967 43.6104 25.2214 45.2129 28.965 45.4661Z" fill="url(#paint3_linear_1898_4495)"/>
<path d="M31.0451 19.0502L30.9551 20.0502C33.2669 20.2718 35.4296 21.2912 37.0718 22.9334C38.714 24.5757 39.7334 26.7383 39.9551 29.0502C39.9663 29.1748 40.024 29.2907 40.1165 29.375C40.2091 29.4592 40.3299 29.5057 40.4551 29.5052H44.9551C45.0236 29.5049 45.0914 29.4906 45.1542 29.4631C45.217 29.4356 45.2735 29.3954 45.3201 29.3452C45.3671 29.2952 45.4033 29.2362 45.4266 29.1717C45.4498 29.1072 45.4595 29.0386 45.4551 28.9702C45.2058 25.2263 43.607 21.6999 40.9552 19.0454C38.3034 16.3908 34.7787 14.7883 31.0351 14.5352L30.9651 15.5352C34.3764 15.7631 37.5974 17.1892 40.0593 19.5615C42.5213 21.9338 44.0658 25.0997 44.4201 28.5002H40.8951C40.5572 26.0459 39.4009 23.7776 37.6132 22.0625C35.8255 20.3474 33.5112 19.286 31.0451 19.0502Z" fill="url(#paint4_linear_1898_4495)"/>
<path d="M26.1653 23.5005C26.0735 23.5003 25.9834 23.5254 25.9049 23.573C25.8264 23.6206 25.7626 23.6889 25.7203 23.7705L24.1703 26.8005C24.1557 26.831 24.144 26.8628 24.1353 26.8955C24.0452 27.214 24.0313 27.5492 24.0947 27.874C24.1582 28.1989 24.2971 28.5042 24.5003 28.7655C24.639 28.9579 24.8079 29.1268 25.0003 29.2655V35.5005C25.0003 35.6331 25.053 35.7603 25.1468 35.854C25.2405 35.9478 25.3677 36.0005 25.5003 36.0005H34.5003C34.6329 36.0005 34.7601 35.9478 34.8539 35.854C34.9477 35.7603 35.0003 35.6331 35.0003 35.5005V29.2455C35.1928 29.1068 35.3616 28.9379 35.5003 28.7455C35.7019 28.4834 35.839 28.1776 35.9007 27.8528C35.9623 27.528 35.9468 27.1932 35.8553 26.8755C35.8467 26.8428 35.835 26.811 35.8203 26.7805L34.2703 23.7505C34.2281 23.6689 34.1642 23.6006 34.0857 23.553C34.0072 23.5054 33.9171 23.4803 33.8253 23.4805L26.1653 23.5005ZM26.4703 24.5005H28.0303L27.3903 26.4355C27.388 26.4504 27.388 26.4656 27.3903 26.4805H25.4603L26.4703 24.5005ZM25.2853 28.1605C25.1426 27.9693 25.0623 27.7389 25.0553 27.5005H27.3753L27.2953 27.7955C27.2362 27.9975 27.1226 28.1793 26.9669 28.3209C26.8112 28.4626 26.6195 28.5586 26.4128 28.5983C26.2061 28.6381 25.9925 28.6202 25.7954 28.5465C25.5982 28.4727 25.4252 28.3461 25.2953 28.1805L25.2853 28.1605ZM34.7153 28.1605C34.5855 28.3261 34.4125 28.4527 34.2153 28.5265C34.0182 28.6002 33.8045 28.6181 33.5978 28.5783C33.3912 28.5386 33.1994 28.4426 33.0437 28.3009C32.8881 28.1593 32.7744 27.9775 32.7153 27.7755L32.6253 27.5005H34.9453C34.9383 27.7389 34.858 27.9693 34.7153 28.1605ZM33.5303 24.5005L34.5303 26.5005H32.6203C32.6227 26.4856 32.6227 26.4704 32.6203 26.4555L31.9703 24.5005H33.5303ZM32.0303 28.6705C32.2276 28.9595 32.4924 29.1961 32.8016 29.3599C33.1109 29.5237 33.4554 29.6097 33.8053 29.6105H34.0003V35.0005H26.0003V29.6005H26.1953C26.5454 29.6005 26.8903 29.5149 27.1997 29.3511C27.5091 29.1872 27.7736 28.9501 27.9703 28.6605C28.22 28.9554 28.531 29.1923 28.8816 29.3548C29.2321 29.5174 29.6139 29.6015 30.0003 29.6015C30.3867 29.6015 30.7685 29.5174 31.1191 29.3548C31.4697 29.1923 31.7806 28.9554 32.0303 28.6605V28.6705ZM28.4303 27.5005H31.5703C31.4605 27.8299 31.2497 28.1165 30.9679 28.3196C30.6862 28.5226 30.3476 28.6319 30.0003 28.6319C29.653 28.6319 29.3145 28.5226 29.0327 28.3196C28.751 28.1165 28.5402 27.8299 28.4303 27.5005ZM30.9303 24.5005L31.5853 26.5005H28.4303L29.0853 24.5005H30.9303Z" fill="url(#paint5_linear_1898_4495)"/>
<path d="M27.5 31V33.5C27.5 33.6326 27.5527 33.7598 27.6464 33.8536C27.7402 33.9473 27.8674 34 28 34H32C32.1326 34 32.2598 33.9473 32.3536 33.8536C32.4473 33.7598 32.5 33.6326 32.5 33.5V31C32.5 30.8674 32.4473 30.7402 32.3536 30.6464C32.2598 30.5527 32.1326 30.5 32 30.5H28C27.8674 30.5 27.7402 30.5527 27.6464 30.6464C27.5527 30.7402 27.5 30.8674 27.5 31ZM28.5 31.5H31.5V33H28.5V31.5Z" fill="url(#paint6_linear_1898_4495)"/>
</g>
<defs>
<linearGradient id="paint0_linear_1898_4495" x1="2.09113e-07" y1="29.3333" x2="60.1434" y2="30.3728" gradientUnits="userSpaceOnUse">
<stop stop-color="#3134DB"/>
<stop offset="1" stop-color="#009EE1"/>
</linearGradient>
<linearGradient id="paint1_linear_1898_4495" x1="30.4951" y1="38.044" x2="45.5006" y2="38.3117" gradientUnits="userSpaceOnUse">
<stop stop-color="#3134DB"/>
<stop offset="1" stop-color="#009EE1"/>
</linearGradient>
<linearGradient id="paint2_linear_1898_4495" x1="14.5352" y1="21.6343" x2="29.5406" y2="21.9021" gradientUnits="userSpaceOnUse">
<stop stop-color="#3134DB"/>
<stop offset="1" stop-color="#009EE1"/>
</linearGradient>
<linearGradient id="paint3_linear_1898_4495" x1="14.5439" y1="37.8148" x2="29.0799" y2="38.0581" gradientUnits="userSpaceOnUse">
<stop stop-color="#3134DB"/>
<stop offset="1" stop-color="#009EE1"/>
</linearGradient>
<linearGradient id="paint4_linear_1898_4495" x1="30.9551" y1="21.8538" x2="45.491" y2="22.0972" gradientUnits="userSpaceOnUse">
<stop stop-color="#3134DB"/>
<stop offset="1" stop-color="#009EE1"/>
</linearGradient>
<linearGradient id="paint5_linear_1898_4495" x1="24.0557" y1="29.6014" x2="35.9664" y2="29.7967" gradientUnits="userSpaceOnUse">
<stop stop-color="#3134DB"/>
<stop offset="1" stop-color="#009EE1"/>
</linearGradient>
<linearGradient id="paint6_linear_1898_4495" x1="27.5" y1="32.2111" x2="32.5104" y2="32.3348" gradientUnits="userSpaceOnUse">
<stop stop-color="#3134DB"/>
<stop offset="1" stop-color="#009EE1"/>
</linearGradient>
<clipPath id="clip0_1898_4495">
<rect width="32" height="32" fill="white" transform="translate(14 14)"/>
</clipPath>
</defs>
</svg>
