<svg width="1440" height="651" viewBox="0 0 1440 651" fill="none" xmlns="http://www.w3.org/2000/svg">
<g clip-path="url(#clip0_64_5243)">
<rect width="1440" height="651" fill="url(#paint0_linear_64_5243)"/>
<g clip-path="url(#clip1_64_5243)">
<path d="M1934.47 628.956C1940.18 628.978 1945.89 629.114 1951.6 628.97C1953.99 628.913 1954.59 629.712 1954.55 632C1954.42 641.038 1954.47 650.084 1954.46 659.13C1953.38 660.274 1951.96 660.468 1950.5 660.526C1948.83 660.598 1947.15 660.569 1945.48 660.569C1457.01 660.569 968.546 660.569 480.077 660.533C477.056 660.533 473.798 661.425 471.093 659.13C471.079 649.616 471.129 640.096 471 630.575C470.971 628.301 471.539 627.459 473.949 627.531C479.178 627.689 484.415 627.538 489.644 627.517C492.571 625.488 495.901 626.409 499.059 626.344C505.684 626.2 505.684 626.301 505.698 619.659C505.705 616.672 505.669 613.679 505.727 610.692C505.755 609.238 505.914 607.821 506.914 606.655C506.935 600.222 507.065 593.788 506.928 587.362C506.878 584.951 507.698 584.39 509.97 584.404C519.731 584.484 529.499 584.39 539.259 584.354C540.533 583.282 542.065 583.174 543.633 583.174C547.934 583.181 548.977 584.239 549.063 588.672C549.502 601.481 549.157 614.297 549.257 627.114C549.308 633.461 549.279 633.468 555.515 633.475C560.665 633.482 565.815 633.497 570.965 633.468C575.885 633.439 576.072 633.281 576.094 628.46C576.137 619.119 576.079 609.771 576.122 600.43C576.151 593.99 576.906 593.241 583.394 593.22C593.212 593.191 603.031 593.234 612.849 593.198C617.596 593.177 617.747 593.025 617.783 588.406C617.826 582.533 617.776 576.669 617.805 570.796C617.812 569.005 617.761 567.177 619.035 565.68C619.056 555.936 619.286 546.186 618.999 536.456C618.883 532.599 620.121 531.383 623.71 531.959C624.285 532.052 624.897 531.93 625.486 531.908C626.983 530.635 628.802 530.663 630.601 530.663C641.253 530.635 651.906 530.613 662.558 530.671C668.284 530.706 669.269 531.664 669.283 537.385C669.348 558.7 669.305 580.015 669.312 601.323C669.312 602.28 669.312 603.237 669.312 604.194C669.334 610.419 669.341 610.44 675.412 610.447C689.416 610.462 703.42 610.462 717.425 610.447C723.402 610.44 723.423 610.426 723.431 604.539C723.438 573.524 723.431 542.515 723.438 511.5C723.438 502.965 723.79 502.62 732.328 502.605C733.767 502.605 735.205 502.533 736.636 502.605C738.953 502.721 740.571 502.138 740.931 499.475C741.24 497.201 742.93 496.323 745.052 496.244C748.519 496.107 751.986 495.963 755.453 496.337C757.352 496.172 759.251 496.136 761.157 496.251C763.43 496.388 765.127 497.287 765.436 499.72C765.724 501.986 767.055 502.533 769.112 502.663C775.247 503.059 775.614 503.519 775.65 509.773C775.686 516.213 775.708 522.647 775.636 529.087C775.607 531.836 776.671 532.973 779.426 532.865C782.282 532.75 785.145 532.815 788.007 532.865C789.568 532.887 791.122 532.952 792.395 534.038C800.249 534.046 808.104 534.06 815.966 534.067C817.958 532.506 820.245 532.765 822.511 533.052C824.417 533.297 825.546 534.391 825.633 536.377C825.712 538.27 824.978 539.925 823.015 540.069C819.015 540.364 818.735 542.803 818.764 545.998C818.871 558.218 818.785 570.437 818.821 582.656C818.836 587.161 819.066 587.369 823.439 587.441C826.309 587.484 829.186 587.42 832.056 587.441C834.437 587.456 835.638 586.484 835.552 584.03C835.516 582.958 835.573 581.879 835.573 580.799C835.573 536.24 835.573 491.682 835.573 447.116C835.573 444.259 835.645 441.503 833.732 438.926C832.531 437.3 833.236 435.091 835.501 434.796C839.831 434.234 844.276 433.342 848.477 435.566C853.821 435.587 859.165 435.587 864.51 435.659C865.358 435.674 866.632 435.163 866.919 436.444C867.149 437.465 867.552 438.61 865.876 439.344C863.884 440.214 865.013 442.294 865.028 443.777C865.049 445.64 866.79 444.921 867.811 444.942C870.659 445.014 873.508 444.914 876.356 444.878C877.737 443.705 879.42 443.661 881.096 443.654C888.253 443.618 895.41 443.582 902.567 443.669C907.479 443.726 908.601 444.741 908.616 449.505C908.645 458.924 908.925 468.352 908.465 477.764C908.587 479.434 908.623 481.103 908.623 482.78C908.609 532.002 908.616 581.231 908.616 630.453C908.616 637.081 908.623 637.088 915.355 637.088C921.225 637.088 927.094 636.937 932.956 637.145C936.294 637.26 937.869 636.044 938.746 632.806C943.033 616.967 947.212 601.1 951.6 585.297C951.888 584.26 952.182 583.217 952.456 582.181C953.312 578.95 955.369 577.446 958.728 577.439C965.309 577.424 971.898 577.46 978.479 577.417C983.521 577.381 983.636 577.273 983.651 572.106C983.68 560.729 983.622 549.352 983.68 537.975C983.708 532.347 984.579 531.484 990.132 531.426C997.073 531.361 1004.02 531.462 1010.96 531.383C1014.93 531.34 1015.19 531.045 1015.27 527.022C1015.33 524.266 1015.29 521.51 1015.28 518.761C1015.27 516.94 1015.02 515.379 1013.5 513.939C1011.5 512.04 1012 509.989 1014.71 509.514C1018.05 508.924 1018.18 506.873 1018.18 504.332C1018.16 497.143 1018.09 489.962 1018.22 482.773C1018.26 480.866 1017.74 477.894 1020.4 477.829C1023.43 477.757 1022.8 480.887 1022.84 482.859C1023 489.681 1022.87 496.51 1022.92 503.339C1022.94 504.865 1022.64 506.455 1023.46 507.859C1023.78 507.945 1024.02 507.916 1024.17 507.736C1025.12 506.621 1024.84 504.397 1026.87 504.311C1029 504.225 1028.98 506.247 1029.55 507.6C1030.14 509.003 1031.37 508.988 1032.55 509.06C1035.19 509.219 1037.83 508.967 1040.45 509.262C1041.78 509.406 1043.16 509.65 1043.65 511.147C1044.08 512.457 1043.47 513.522 1042.43 514.263C1041.06 515.235 1040.95 516.631 1040.91 518.092C1040.83 520.725 1040.96 523.366 1040.85 525.993C1040.73 528.965 1040.94 531.484 1044.79 531.887C1046.42 532.059 1046.95 533.614 1047.17 535.111C1047.39 536.658 1047.34 538.219 1047.34 539.774C1047.35 555.584 1047.33 571.394 1047.36 587.204C1047.36 592.306 1047.55 592.493 1052.58 592.507C1063.71 592.536 1074.85 592.536 1085.98 592.507C1091.4 592.493 1091.48 592.407 1091.48 586.772C1091.49 567.968 1091.48 549.165 1091.48 530.361C1091.48 529.167 1091.47 527.965 1091.5 526.77C1091.64 521.495 1092.59 520.632 1098.01 520.783C1110.89 520.337 1123.78 520.56 1136.66 520.668C1140.29 520.697 1141.42 521.855 1141.45 525.496C1141.55 537.19 1141.79 548.891 1141.35 560.578C1141.73 565.594 1141.5 570.617 1141.52 575.639C1141.55 594.544 1141.5 613.441 1141.55 632.345C1141.55 636.534 1145.37 638.685 1149.08 636.706C1149.93 636.246 1150.19 635.512 1150.27 634.655C1150.42 633.223 1150.39 631.784 1150.39 630.352C1150.39 608.821 1150.39 587.283 1150.39 565.752C1150.39 564.075 1150.37 562.406 1150.58 560.736C1150.41 559.304 1150.38 557.872 1150.38 556.433C1150.39 513.824 1150.39 471.216 1150.39 428.607C1150.39 428.01 1150.39 427.412 1150.39 426.815C1150.44 419.784 1152.78 417.82 1159.78 419.554C1162.39 420.202 1165.02 420.965 1167.58 421.871C1169.27 421.425 1170.95 420.907 1172.66 420.54C1175.48 419.943 1178.47 419.648 1177.63 415.452C1177.42 414.366 1178.25 414.063 1179.22 414.071C1181.24 414.085 1183.28 414.056 1185.31 414.085C1185.76 414.092 1186.6 414.251 1186.62 414.416C1187.17 419.072 1190.07 415.877 1191.82 415.841C1193.65 415.805 1195.47 415.049 1197.3 414.632C1200.56 413.898 1203.91 413.293 1202.79 408.544C1202.51 407.371 1203.23 406.81 1204.45 406.86C1205.52 406.903 1206.61 406.975 1207.67 406.838C1210.71 406.457 1212.96 406.896 1212.12 410.912C1217.03 409.746 1221.7 408.63 1226.36 407.522C1227.52 406.198 1227.12 404.564 1227.18 403.046C1227.24 401.708 1227.67 400.599 1229.04 400.326C1232.22 399.685 1235.53 399.016 1238.3 401.326C1239.61 402.413 1240.77 402.535 1242.24 402.139C1244.2 401.607 1246.21 401.225 1248.19 400.794C1250.4 400.312 1252.09 399.527 1252.83 396.987C1253.6 394.332 1256.27 393.641 1260.48 394.188C1263.35 394.555 1264.26 396.31 1264.36 398.879C1264.43 400.556 1264.42 402.233 1264.42 403.91C1264.42 471.597 1264.42 539.284 1264.42 606.972C1264.42 608.526 1264.52 610.095 1264.42 611.642C1264.21 614.7 1265.76 615.571 1268.55 615.542C1272.82 615.492 1273.3 615.204 1273.31 610.872C1273.35 591.824 1273.33 572.775 1273.33 553.727C1273.33 552.648 1273.32 551.568 1273.35 550.496C1273.48 545.408 1274.4 544.401 1279.53 544.386C1301.08 544.322 1322.64 544.329 1344.2 544.379C1349.71 544.394 1350.65 545.344 1350.66 550.942C1350.71 579.094 1350.67 607.245 1350.68 635.404C1350.68 642.132 1350.68 642.175 1357.33 642.125C1367.05 642.053 1365.94 643.147 1366.04 633.511C1366.07 630.755 1366.06 627.999 1366.04 625.243C1366.03 623.084 1366.02 621.062 1364.02 619.421C1362.39 618.083 1362.6 616.068 1364.21 614.722C1365.82 613.383 1366.03 611.743 1366.03 609.915C1366.05 603.568 1366.04 597.214 1366.04 590.867C1366.04 588.916 1365.87 587.146 1364.13 585.736C1362.68 584.57 1362.74 582.857 1364.19 581.699C1365.83 580.396 1366.04 578.748 1366.04 576.913C1366.05 570.566 1366.05 564.212 1366.04 557.865C1366.04 555.915 1365.85 554.173 1364.16 552.72C1362.39 551.201 1362.54 549.229 1364.31 547.761C1365.81 546.517 1366.02 544.984 1366.03 543.278C1366.07 536.687 1366.06 530.102 1366.03 523.51C1366.03 521.79 1365.75 520.272 1364.27 519.041C1362.7 517.732 1362.73 516.005 1364.29 514.717C1365.91 513.378 1366.03 511.687 1366.04 509.874C1366.08 504.124 1366.06 498.374 1366.05 492.624C1366.04 490.012 1366.25 487.465 1363.81 485.435C1362.35 484.219 1362.7 482.226 1364.21 481.024C1365.86 479.714 1366.03 478.052 1366.04 476.224C1366.07 469.877 1366.05 463.523 1366.05 457.176C1366.05 455.218 1365.91 453.412 1364.13 452.052C1362.93 451.145 1362.62 449.476 1363.74 448.576C1366.18 446.619 1366.03 444.028 1366.15 441.423C1366.2 440.315 1366.57 439.315 1367.28 438.451C1367.3 432.104 1367.26 425.757 1367.38 419.41C1367.41 417.554 1366.85 416.964 1364.95 416.92C1360.34 416.805 1357.5 412.545 1358.73 408.098C1359.11 406.716 1360.03 406.925 1360.93 406.918C1363.68 406.882 1366.44 406.975 1369.18 406.867C1370.24 406.824 1372.06 407.608 1372.18 405.961C1372.31 404.162 1373.58 401.823 1371.31 400.506C1370.35 399.952 1370.19 399.405 1370.29 398.556C1370.44 397.318 1371.47 397.57 1372.24 397.57C1380.98 397.548 1389.72 397.57 1398.47 397.548C1400.72 397.541 1401.1 398.879 1399.88 400.218C1398.3 401.967 1399.11 403.809 1399.07 405.586C1399.03 407.537 1400.77 406.867 1401.8 406.867C1413.53 406.889 1425.26 406.853 1437 406.831C1437.88 406.126 1438.87 405.723 1440.03 405.824C1442.88 405.644 1445.74 405.608 1448.59 405.709C1450.59 405.781 1452.75 405.622 1453.69 408.069C1454.7 410.674 1453.95 414.272 1451.99 415.978C1450.81 417.014 1449.47 417.82 1447.92 418.108C1446.18 418.432 1445.61 419.583 1445.48 421.137C1445.3 421.958 1445.33 422.792 1445.35 423.627C1445.69 428.888 1445.62 434.162 1445.43 439.416C1445.29 443.352 1445.77 446.892 1448.53 449.864C1448.93 452.383 1445.41 452.462 1445.47 454.78C1445.43 455.744 1445.48 456.708 1445.35 457.665C1445.15 460.133 1445.66 462.595 1445.45 465.07C1445.25 469.229 1445.54 473.382 1445.54 477.541C1445.54 478.599 1445.79 479.549 1446.63 480.427C1449.47 483.428 1449.42 483.672 1446.36 486.479C1445.88 486.91 1445.75 487.479 1445.68 488.076C1445.28 492.128 1445.79 496.201 1445.38 500.238C1445.53 503.102 1445.51 505.966 1445.51 508.83C1445.51 511.205 1445.31 513.522 1447.73 515.22C1449.11 516.192 1448.82 517.912 1447.47 518.905C1445.93 520.042 1445.53 521.488 1445.52 523.244C1445.51 529.936 1445.52 536.629 1445.51 543.321C1445.51 545.185 1445.84 546.768 1447.53 547.999C1448.97 549.057 1449.3 551.007 1447.97 552.079C1444.95 554.533 1445.37 557.692 1445.5 560.887C1445.62 566.148 1445.51 571.408 1445.56 576.669C1445.57 578.597 1445.61 580.403 1447.46 581.763C1448.97 582.879 1448.97 584.592 1447.51 585.75C1445.89 587.038 1445.56 588.614 1445.56 590.478C1445.56 597.055 1445.67 603.633 1445.51 610.203C1445.43 613.441 1447.12 614.852 1449.84 615.269C1453.63 615.845 1457.48 615.586 1461.29 615.456C1463.41 615.384 1463.76 613.952 1463.8 612.261C1463.89 608.555 1463.82 604.849 1463.85 601.143C1463.95 587.636 1463.64 574.121 1464.01 560.614C1463.6 550.46 1463.82 540.313 1464 530.167C1463.78 528.361 1464.32 526.547 1463.91 524.748C1463.76 522.006 1463.87 519.272 1463.86 516.53C1463.83 513.795 1463.69 511.306 1461.98 508.78C1459.39 504.966 1461.52 501.483 1466.19 501.296C1469.41 501.166 1472.62 501.217 1475.84 501.281C1480.38 501.634 1480.46 501.555 1480.6 497.172C1480.64 495.877 1480.63 494.582 1480.45 493.293C1480.38 492.221 1480.43 491.163 1480.45 490.098C1480.5 487.105 1481.87 485.442 1485.01 485.543C1486.12 485.781 1487.26 485.363 1488.37 485.651C1491.36 485.716 1492.23 487.644 1492.16 490.192C1492.1 492.214 1492.06 494.243 1492.04 496.258C1492.17 497.618 1491.67 499.079 1492.68 500.295C1496.47 501.936 1497.5 501.368 1497.65 497.453C1497.75 494.826 1497.51 492.185 1497.78 489.566C1498.11 486.378 1499.37 485.507 1503.31 485.522C1507.22 485.536 1508.37 486.407 1508.67 489.71C1508.84 491.617 1508.74 493.538 1508.75 495.452C1508.77 501.274 1508.77 501.274 1514.41 501.31C1515.61 501.317 1516.81 501.252 1518 501.44C1518.61 501.468 1519.23 501.447 1519.84 501.317C1521.45 500.907 1521.12 499.525 1521.3 498.41C1521.79 495.452 1521.43 492.473 1521.55 489.508C1521.64 487.083 1522.79 485.716 1525.28 485.709C1530.99 485.694 1536.68 485.14 1542.39 485.651C1543.04 485.651 1543.69 485.658 1544.34 485.622C1547.83 485.342 1551.33 485.457 1554.82 485.644C1555.93 485.536 1557.04 485.687 1558.16 485.601C1561.92 485.255 1565.69 485.442 1569.46 485.486C1572.4 485.522 1574.18 486.767 1574.01 489.976C1574.43 491.516 1573.92 493.063 1574.07 494.61C1574.11 494.848 1574.16 495.085 1574.16 495.323C1574.23 501.094 1573.82 501.332 1580.1 501.36C1582.59 501.375 1584.57 502.037 1584.79 505.102C1584.98 507.909 1584.17 509.866 1581.12 510.183C1578.88 510.413 1578.51 511.831 1578.49 513.695C1578.46 516.688 1578.57 519.682 1578.44 522.683C1578.12 524.439 1578.43 526.209 1578.35 527.972C1578.55 538.709 1578.76 549.445 1578.37 560.175C1578.49 567.227 1578.52 574.287 1578.38 581.346C1578.31 584.606 1579.67 586.311 1582.57 587.578C1592.33 591.824 1602.11 596.041 1611.8 600.452C1615.53 602.15 1615.57 602.107 1615.58 597.825C1615.62 585.261 1615.5 572.696 1615.63 560.132C1615.23 549.129 1615.41 538.126 1615.52 527.13C1615.56 523.309 1616.72 522.201 1620.55 522.143C1626.88 522.035 1633.22 521.834 1639.55 522.265C1642.16 521.999 1644.78 522.143 1647.39 522.1C1651.84 522.028 1652.09 521.841 1652.11 517.473C1652.16 506.398 1652.13 495.316 1652.13 484.241C1652.13 482.694 1652.1 481.146 1652.31 479.606C1651.92 469.481 1652.22 459.349 1652.14 449.224C1652.12 446.713 1651.91 444.345 1650.78 441.963C1649.05 438.3 1649.95 435.774 1653.42 433.659C1654.67 432.903 1654.8 431.874 1655.01 430.701C1655.88 425.8 1658.12 424.743 1662.83 426.973C1669.96 426.981 1677.11 426.995 1684.24 427.002C1687.05 425.002 1690.27 425.894 1693.31 425.8C1698.71 425.642 1698.71 425.728 1698.84 420.446C1698.99 414.366 1699.74 413.632 1705.73 413.553C1707.17 413.531 1708.61 413.459 1710.04 413.56C1713.44 413.804 1716.25 413.186 1717.15 409.285C1717.28 408.717 1717.65 408.055 1718.16 407.839C1722.43 405.997 1721.91 402.29 1721.85 398.714C1721.81 396.677 1721.59 394.648 1721.49 392.619C1721.41 390.676 1721.9 388.769 1724.26 388.819C1726.61 388.87 1727.08 390.813 1726.92 392.727C1726.65 396.073 1726.63 399.419 1726.61 402.773C1726.59 405.111 1727.49 406.155 1729.92 406.45C1733.64 406.896 1734.28 407.774 1734.45 411.581C1734.62 415.172 1734.48 418.77 1734.53 422.361C1734.55 424.282 1735.13 425.577 1737.25 425.865C1739.64 426.182 1740.77 427.743 1740.88 430.053C1740.97 432.018 1741.71 433.27 1743.64 434.184C1746.03 435.321 1746.8 438.631 1745.24 441.783C1744.01 444.295 1743.85 446.806 1743.85 449.44C1743.84 486.45 1743.85 523.46 1743.85 560.477C1743.85 560.837 1743.85 561.197 1743.85 561.557C1743.91 566.464 1744.06 566.644 1748.87 566.68C1754.38 566.723 1759.89 566.608 1765.39 566.731C1770.04 566.831 1771.08 567.832 1771.12 572.545C1771.22 585.721 1771.13 598.898 1771.16 612.074C1771.17 617.651 1771.25 617.73 1776.73 617.737C1788.35 617.752 1799.96 617.78 1811.58 617.723C1815.63 617.701 1815.96 617.399 1815.96 613.455C1816.01 579.317 1816 545.185 1815.98 511.047C1815.98 509.082 1815.46 507.42 1814.35 505.7C1811.69 501.569 1813.55 497.921 1818.32 497.748C1823.82 497.554 1829.33 497.669 1834.84 497.705C1836.34 497.712 1837.64 498.252 1838.93 498.907C1843.96 498.928 1848.99 498.856 1854.01 499.022C1856.19 499.094 1856.95 498.482 1856.87 496.222C1856.7 491.235 1856.82 486.234 1856.82 481.161C1858.8 481.391 1858.21 482.636 1858.22 483.406C1858.29 487.839 1858.38 492.272 1858.21 496.697C1858.11 499.533 1859.95 498.935 1861.54 498.971C1863.2 499.014 1864.87 499.367 1864.78 496.604C1864.61 490.976 1864.71 485.349 1864.75 479.714C1864.76 478.872 1864.31 477.527 1865.79 477.512C1867.31 477.498 1866.85 478.851 1866.86 479.693C1866.9 485.205 1866.99 490.717 1866.83 496.222C1866.77 498.496 1867.54 499.238 1869.7 498.993C1870.88 498.856 1872.12 498.806 1873.28 499.014C1874.52 499.23 1876.74 498.007 1876.76 500.159C1876.78 501.936 1878.72 504.879 1874.92 505.556C1873.74 505.765 1874.1 506.88 1874.1 507.635C1874.07 524.64 1874.1 541.652 1874.04 558.656C1874.04 560.477 1874.81 560.844 1876.41 560.823C1881.44 560.758 1886.47 560.945 1891.49 560.743C1894.36 560.628 1895.34 561.564 1895.75 564.464C1896.35 568.738 1896.37 573.142 1897.89 577.273C1898.95 578.518 1899.1 580.08 1899.33 581.591C1900.68 590.01 1901.98 598.437 1903.15 606.885C1904.05 612.067 1904.8 617.269 1905.54 622.472C1906.29 627.776 1906.36 627.841 1911.85 627.855C1917.71 627.877 1923.56 627.841 1929.41 627.869C1931.13 627.805 1932.97 627.682 1934.47 628.956Z" fill="#65817F"/>
<path d="M1097.83 521.819C1092.75 522.006 1092.75 522.006 1092.75 527.209C1092.75 547.934 1092.64 568.659 1092.85 589.384C1092.89 593.177 1091.72 593.939 1088.2 593.882C1075.39 593.68 1062.57 593.709 1049.76 593.867C1046.72 593.903 1045.95 592.932 1045.97 589.996C1046.09 572.264 1045.98 554.54 1046.08 536.809C1046.1 533.916 1045.71 532.11 1042.26 532.671C1039.91 533.052 1039.49 531.664 1039.54 529.663C1039.63 525.59 1039.54 521.517 1039.57 517.444C1039.59 515.537 1038.85 513.155 1042.16 513.105C1043.04 513.09 1043.16 512.176 1043.01 511.435C1042.83 510.55 1042.08 510.435 1041.34 510.428C1038.11 510.406 1034.86 510.284 1031.64 510.442C1029.17 510.564 1027.66 510.089 1028.03 507.168C1028.14 506.311 1028.37 504.93 1027.01 504.901C1025.63 504.872 1025.94 506.239 1025.93 507.125C1025.89 508.837 1026.15 510.615 1023.47 510.399C1020.91 510.197 1021.64 508.29 1021.63 506.909C1021.57 498.403 1021.63 489.897 1021.57 481.391C1021.56 480.326 1022.22 478.419 1020.64 478.39C1018.63 478.354 1019.5 480.405 1019.49 481.506C1019.41 489.89 1019.37 498.28 1019.49 506.664C1019.53 509.255 1019.13 510.852 1016.01 510.449C1014.98 510.312 1013.4 509.859 1013.11 511.644C1012.85 513.263 1014.19 513.191 1015.24 513.335C1016.57 513.515 1016.56 514.529 1016.56 515.501C1016.57 520.416 1016.49 525.324 1016.59 530.232C1016.64 532.506 1015.41 532.707 1013.64 532.7C1005.27 532.664 996.878 532.801 988.499 532.621C985.593 532.556 984.859 533.52 984.888 536.305C985.018 549.244 984.866 562.183 985.003 575.114C985.032 577.964 984.198 578.827 981.356 578.763C973.696 578.583 966.029 578.842 958.368 578.633C955.498 578.554 954.347 579.684 953.664 582.253C949.543 597.797 945.313 613.311 941.127 628.834C940.847 629.87 940.602 630.913 940.286 631.935C938.279 638.376 938.272 638.376 931.28 638.376C924.814 638.376 918.34 638.182 911.881 638.455C908.357 638.606 907.206 637.757 907.228 633.965C907.4 604.619 907.314 575.265 907.328 545.919C907.335 523.28 907.379 500.641 907.407 477.994C908.738 476.685 910.45 476.742 912.112 476.735C920.7 476.692 929.295 476.699 937.883 476.728C939.559 476.735 941.242 476.785 942.616 477.98C954.103 478.002 965.59 478.11 977.077 477.98C979.889 477.951 980.853 478.707 980.695 481.578C980.457 485.874 980.709 490.192 980.601 494.502C980.551 496.539 981.011 497.446 983.334 497.51C993.57 497.82 993.57 497.899 993.57 487.666C993.57 457.859 993.512 428.06 993.649 398.253C993.663 394.878 992.966 393.497 989.362 393.799C988.01 393.914 985.097 395.289 985.183 392.353C985.248 390.064 987.851 391.129 989.29 391.115C991.851 391.086 994.195 391.252 993.627 387.531C993.469 386.509 994.196 386.049 995.188 386.041C996.022 386.034 996.864 386.02 997.698 386.02C1003.28 386.006 1003.44 386.006 1003.57 380.551C1003.63 377.91 1005.11 378.104 1006.85 378.104C1022.05 378.097 1037.24 378.068 1052.44 378.054C1053.81 376.859 1055.5 376.823 1057.18 376.816C1065.43 376.78 1073.68 376.751 1081.94 376.823C1086.87 376.866 1087.4 377.284 1088.34 382.062C1088.68 383.768 1089.4 384.602 1091.13 384.645C1094.59 384.725 1098.13 384.401 1099.71 388.762C1100.22 390.143 1102.31 389.596 1103.66 389.985C1104.99 390.366 1106.22 390.841 1106.22 392.504C1106.21 394.166 1104.98 394.641 1103.64 395.001C1099.13 396.224 1099.12 396.231 1099.12 401.182C1099.11 439.221 1099.12 477.268 1099.09 515.307C1099.07 517.523 1099.54 519.898 1097.83 521.819Z" fill="#94A8A6"/>
<path d="M1097.83 521.819C1097.81 480.312 1097.82 438.797 1097.73 397.289C1097.72 394.562 1098.6 393.562 1101.23 393.9C1102.05 394.008 1102.9 393.921 1103.74 393.9C1104.61 393.878 1105.47 393.763 1105.56 392.633C1105.66 391.288 1104.73 391.079 1103.7 391.057C1102.74 391.036 1101.78 390.978 1100.83 391.057C1098.84 391.216 1097.52 390.726 1097.77 388.352C1097.99 386.358 1096.8 385.905 1095.11 386.006C1094.28 386.056 1093.43 386.013 1092.6 386.013C1087.28 386.013 1087.12 386.013 1087.07 380.846C1087.04 378.147 1085.62 378.083 1083.64 378.09C1073.24 378.111 1062.84 378.068 1052.44 378.047C1052.46 349.902 1052.49 321.751 1052.51 293.606C1052.51 288.958 1052.51 288.958 1057.17 288.951C1064.01 288.943 1064.01 288.943 1064.01 282.165C1064.01 262.281 1064.01 242.398 1064.01 222.515C1064.01 217.773 1064.01 217.773 1068.58 217.773C1073.6 217.773 1078.64 217.629 1083.66 217.831C1086.43 217.946 1087.09 216.931 1087.06 214.319C1086.93 203.661 1086.99 192.997 1087.03 182.339C1087.04 180.957 1086.32 178.885 1088.96 179.014C1091.31 179.13 1090.56 181.044 1090.57 182.296C1090.63 192.953 1090.67 203.618 1090.55 214.276C1090.52 216.823 1091.07 217.852 1093.89 217.881C1096.89 217.91 1097.14 216.542 1097.11 214.161C1097.01 206.137 1097.05 198.113 1097.1 190.089C1097.1 188.794 1096.48 186.952 1098.84 186.916C1101.19 186.88 1100.64 188.7 1100.65 190.017C1100.68 197.926 1100.85 205.835 1100.58 213.729C1100.47 217.176 1101.68 217.91 1104.86 217.845C1114.07 217.658 1123.3 217.874 1132.51 217.723C1135.24 217.679 1135.97 218.557 1135.94 221.213C1135.81 233.072 1135.95 244.931 1135.83 256.784C1135.8 259.439 1136.55 260.626 1139.26 260.202C1141.93 259.784 1142.43 261.195 1142.4 263.541C1142.28 270.607 1142.55 277.681 1142.27 284.741C1142.13 288.317 1143.35 289.303 1146.74 289.023C1150.19 288.735 1153.7 289.181 1157.15 288.893C1160.41 288.62 1161.13 289.843 1161.11 292.944C1161 325.766 1161.07 358.581 1161 391.403C1161 394.785 1160.82 397.663 1165.67 396.901C1167.92 396.548 1167.48 398.62 1167.5 399.959C1167.55 407.263 1167.56 414.574 1167.58 421.879C1166.42 422.145 1165.28 422.49 1164.11 422.656C1163.09 422.8 1162.18 423.361 1161.51 421.497C1160.79 419.482 1158.34 420.619 1156.69 420.598C1151.09 420.518 1151.71 419.936 1151.71 425.549C1151.7 469.042 1151.7 512.536 1151.7 556.023C1151.7 557.577 1151.65 559.139 1151.62 560.693C1147.84 562.694 1144.06 562.694 1140.28 560.693C1140.25 548.956 1140.14 537.212 1140.27 525.475C1140.3 522.632 1139.48 521.826 1136.64 521.855C1123.69 521.956 1110.76 521.848 1097.83 521.819Z" fill="#B4C2C1"/>
<path d="M1367.23 438.408C1367.26 440.804 1367.28 443.201 1367.3 445.597C1367.31 447.058 1367.49 448.605 1365.28 448.591C1364.28 448.584 1363.72 449.109 1363.8 450.174C1363.87 451.088 1364.49 451.412 1365.27 451.404C1367.15 451.39 1367.31 452.563 1367.31 454.038C1367.28 462.429 1367.29 470.813 1367.31 479.203C1367.31 480.506 1367.17 481.643 1365.47 481.643C1364.3 481.643 1363.73 482.226 1363.73 483.413C1363.73 484.579 1364.23 485.219 1365.43 485.227C1367.41 485.234 1367.31 486.644 1367.31 487.99C1367.31 496.258 1367.29 504.527 1367.31 512.795C1367.31 514.227 1367.23 515.472 1365.32 515.465C1364.34 515.458 1363.75 515.947 1363.81 517.019C1363.87 517.926 1364.47 518.286 1365.25 518.279C1367.43 518.257 1367.32 519.747 1367.32 521.236C1367.31 529.382 1367.3 537.536 1367.33 545.682C1367.34 547.25 1367.26 548.589 1365.16 548.567C1364.1 548.553 1363.75 549.301 1363.75 550.258C1363.75 551.172 1363.97 552.043 1365.05 552.036C1367.05 552.022 1367.34 553.173 1367.33 554.828C1367.28 563.096 1367.3 571.365 1367.31 579.633C1367.31 581.037 1367.29 582.339 1365.35 582.325C1364.38 582.318 1363.75 582.764 1363.81 583.85C1363.85 584.743 1364.41 585.146 1365.21 585.138C1367.36 585.11 1367.32 586.556 1367.31 588.067C1367.3 596.213 1367.29 604.367 1367.31 612.513C1367.32 614.053 1367.31 615.449 1365.18 615.42C1364.13 615.406 1363.76 616.111 1363.74 617.082C1363.71 618.219 1364.13 618.953 1365.36 618.946C1367.31 618.939 1367.31 620.263 1367.31 621.659C1367.29 628.013 1367.25 634.36 1367.33 640.715C1367.36 642.715 1366.66 643.499 1364.62 643.449C1360.67 643.348 1356.7 643.219 1352.77 643.485C1349.67 643.694 1349.27 642.283 1349.29 639.686C1349.37 620.515 1349.33 601.344 1349.33 582.166C1349.33 571.142 1349.26 560.117 1349.38 549.093C1349.41 546.473 1348.73 545.567 1345.97 545.574C1323.34 545.675 1300.69 545.689 1278.06 545.559C1275.03 545.545 1274.53 546.668 1274.53 549.323C1274.62 570.293 1274.51 591.262 1274.66 612.232C1274.69 615.708 1274.03 617.09 1270.18 616.91C1263.1 616.571 1263.08 616.823 1263.08 609.555C1263.08 539.694 1263.09 469.841 1263.05 399.98C1263.05 398.512 1263.9 396.296 1262.26 395.72C1259.82 394.871 1257.04 395.094 1254.47 395.67C1253.57 395.871 1253.63 397.109 1253.78 397.894C1254.24 400.484 1252.68 401.168 1250.63 401.585C1247.71 402.183 1244.81 402.823 1241.91 403.499C1240.1 403.917 1238.2 405.442 1237.56 401.887C1237.29 400.419 1235.02 401.218 1233.67 401.146C1230.46 400.974 1226.81 400.348 1227.8 405.723C1227.96 406.615 1227.22 407.241 1226.34 407.536C1226.38 398.074 1226.42 388.611 1226.43 379.148C1226.43 377.37 1226.3 375.787 1228.91 375.916C1231.54 376.046 1230.72 373.866 1230.72 372.52C1230.77 357.062 1230.85 341.612 1230.68 326.155C1230.64 322.895 1231.46 321.729 1234.82 321.974C1238.87 322.269 1242.97 321.895 1247.03 322.096C1249.65 322.226 1250.29 321.211 1250.2 318.786C1250.04 314.238 1250.28 309.676 1250.11 305.135C1250.01 302.645 1250.78 301.839 1253.32 301.853C1260.22 301.896 1260.22 301.774 1260.22 294.887C1260.22 292.729 1260.28 290.57 1260.21 288.418C1260.13 286.259 1260.03 284.374 1263.2 284.546C1265.03 284.647 1264.51 282.863 1264.51 281.783C1264.56 273.875 1264.53 265.966 1264.55 258.064C1264.55 256.956 1264.3 255.769 1265.26 254.38C1266.27 255.855 1265.96 257.165 1265.96 258.374C1265.99 266.16 1265.97 273.946 1265.97 281.733C1265.97 283.15 1265.69 284.741 1267.97 284.69C1269.84 284.647 1269.55 286.115 1269.56 287.259C1269.59 291.21 1269.68 295.168 1269.53 299.119C1269.44 301.378 1270.31 301.918 1272.44 301.961C1280.35 302.105 1280.35 302.177 1280.35 310.086C1280.35 313.202 1280.45 316.318 1280.32 319.426C1280.23 321.506 1281.06 322.125 1283.04 322.075C1287.35 321.967 1291.67 322.218 1295.98 321.981C1298.9 321.823 1299.86 322.65 1299.83 325.723C1299.67 341.296 1299.76 356.875 1299.76 372.448C1299.76 374.218 1299.32 376.226 1302.23 376.068C1303.13 376.017 1303.31 376.859 1303.33 377.615C1303.35 378.694 1303.36 379.774 1303.36 380.846C1303.36 425.894 1303.36 470.942 1303.36 515.99C1303.36 517.25 1303.36 518.502 1303.36 519.761C1303.5 519.768 1303.65 519.775 1303.79 519.783C1306.26 507.513 1308.85 495.265 1311.08 482.953C1311.53 480.477 1312.45 480.182 1314.5 480.182C1320.61 480.182 1320.61 480.117 1320.61 473.835C1320.61 463.89 1320.59 453.945 1320.63 444C1320.63 442.071 1320.73 440.286 1317.94 440.632C1317.21 440.725 1316.4 440.509 1316.45 439.538C1316.49 438.566 1317.32 438.552 1318.04 438.53C1318.99 438.502 1319.95 438.509 1320.91 438.509C1336.34 438.466 1351.78 438.437 1367.23 438.408Z" fill="#94A8A6"/>
<path d="M792.381 534.024C787.353 534.06 782.326 533.981 777.305 534.168C774.86 534.261 774.277 533.304 774.313 531.037C774.421 523.136 774.248 515.227 774.414 507.326C774.471 504.663 773.723 503.519 770.997 503.908C770.055 504.037 769.069 503.821 768.127 503.951C765.279 504.34 763.775 503.433 764.279 500.295C764.631 498.115 763.66 497.266 761.459 497.424C759.553 497.561 757.633 497.402 755.72 497.381C754.367 496.071 754.418 494.351 754.418 492.682C754.382 484.061 754.382 475.44 754.418 466.826C754.425 464.753 754.842 462.89 756.115 461.112C757.935 458.579 757.173 457.241 753.957 457.089C750.613 456.931 747.254 457.133 743.909 457.003C739.802 456.845 738.852 455.902 738.637 451.858C738.5 449.346 738.558 446.828 738.565 444.316C738.579 441.632 736.99 441.229 734.81 441.229C732.595 441.229 731.106 441.754 731.099 444.395C731.091 447.144 731.228 449.908 730.969 452.649C730.66 455.909 729.358 457.003 726.035 456.953C722.885 456.91 721.719 455.888 721.432 452.707C721.201 450.08 721.317 447.439 721.331 444.806C721.345 442.546 720.727 441.215 718.087 441.222C715.39 441.229 714.505 442.467 714.541 444.957C714.577 447.468 714.577 449.987 714.469 452.498C714.354 455.406 712.887 456.881 709.988 456.967C706.996 457.053 704.003 457.089 701.018 456.946C698.415 456.823 697.127 455.434 696.983 452.858C696.832 450.224 696.825 447.59 696.911 444.957C697.005 442.157 695.789 441.171 693.056 441.171C690.632 441.171 687.978 441.898 685.885 439.876C685.906 410.415 685.935 380.961 685.95 351.5C685.95 350.19 685.964 349.19 684.274 348.456C681.85 347.398 683.267 344.858 683.188 343.001C683.101 340.965 684.971 341.368 686.144 341.483C688.834 341.756 689.992 340.734 689.539 338.05C688.949 334.488 690.244 332.84 693.977 333.524C696.983 334.078 697.602 332.523 697.501 329.846C697.329 325.421 697.588 320.981 697.408 316.555C697.3 313.957 698.307 313.31 700.731 313.346C706.478 313.432 706.133 314.317 706.046 307.999C706.003 304.912 706.6 301.781 705.586 298.737C705.118 297.327 705.946 296.456 706.996 295.772C707.823 295.233 708.571 295.557 709.276 296.139C710.29 296.974 710.182 297.809 709.729 298.975C708.118 303.127 709.24 307.488 708.995 311.755C708.923 312.993 709.772 313.547 710.851 313.353C713.915 312.813 714.929 314.842 715.426 317.131C716.224 320.808 718.403 321.657 721.906 321.384C726.071 321.06 730.279 321.362 734.472 321.283C736.313 321.247 737.09 321.923 737.004 323.794C736.91 325.946 737.162 328.119 736.946 330.257C736.659 333.135 738.011 333.596 740.521 333.574C755.007 333.481 769.494 333.632 783.973 333.452C787.533 333.409 789.468 334.085 788.749 338.072C788.26 340.785 789.511 341.749 792.165 341.483C793.23 341.375 794.949 340.965 795.05 342.677C795.158 344.584 796.308 347.369 794.294 348.269C791.842 349.355 792.36 350.96 792.352 352.608C792.324 373.801 792.324 395.001 792.331 416.194C792.338 455.47 792.36 494.747 792.381 534.024Z" fill="#B4C2C1"/>
<path d="M685.877 439.876C687.43 439.898 688.984 439.934 690.538 439.934C698.162 439.941 698.162 439.934 698.162 447.742C698.162 449.534 698.248 451.333 698.14 453.124C698.018 455.204 698.967 455.837 700.917 455.78C704.139 455.679 707.376 455.672 710.598 455.78C712.655 455.845 713.324 454.988 713.274 453.016C713.18 449.548 713.324 446.079 713.224 442.611C713.166 440.574 713.979 439.732 715.964 439.934C716.201 439.955 716.439 439.934 716.683 439.934C723.574 439.991 722.495 439.308 722.589 445.863C722.617 447.778 722.589 449.692 722.596 451.606C722.61 455.478 724.79 456.946 728.501 455.693C729.925 455.211 729.76 454.125 729.767 453.081C729.796 449.613 729.853 446.144 729.753 442.676C729.695 440.711 730.364 439.876 732.421 439.905C741.599 440.049 739.707 438.991 739.815 446.871C739.93 455.751 739.844 455.751 748.547 455.751C750.82 455.751 753.093 455.701 755.366 455.773C756.574 455.809 758.365 455.262 758.409 457.255C758.445 458.889 759.559 461.191 757.387 462.04C755.46 462.789 755.661 464.048 755.668 465.444C755.675 476.087 755.697 486.738 755.711 497.381C752.237 497.41 748.763 497.561 745.296 497.417C742.865 497.316 741.606 498.021 742.009 500.612C742.441 503.411 741.088 504.109 738.513 503.973C735.054 503.786 731.551 504.138 728.105 503.865C724.876 503.606 724.725 505.29 724.725 507.758C724.775 532.074 724.761 556.39 724.761 580.713C724.761 589.938 724.667 599.164 724.818 608.382C724.861 611.081 724.013 611.851 721.344 611.836C704.7 611.728 688.056 611.7 671.412 611.851C668.326 611.88 667.931 610.627 667.938 608.037C668.01 584.081 667.923 560.125 668.046 536.161C668.06 532.973 667.362 531.829 663.924 531.88C651.114 532.067 638.304 531.915 625.486 531.894C625.515 520.164 625.63 508.442 625.515 496.719C625.486 493.941 626.191 492.898 629.097 493.078C633.031 493.322 636.994 493.049 640.936 493.171C643.008 493.236 643.597 492.43 643.583 490.451C643.504 481.952 643.482 473.461 643.597 464.962C643.626 462.659 642.713 461.925 640.641 462.228C637.843 462.645 636.959 461.558 636.98 458.694C637.002 455.873 638.311 455.715 640.505 455.715C648.582 455.708 648.582 455.657 648.582 447.403C648.582 439.934 648.582 439.941 656.098 439.934C666.017 439.919 675.951 439.891 685.877 439.876Z" fill="#94A8A6"/>
<path d="M942.609 477.98C930.871 477.987 919.132 477.987 907.401 477.994C907.372 468.208 907.228 458.428 907.394 448.641C907.444 445.583 906.451 444.856 903.546 444.899C894.483 445.043 885.42 444.899 876.357 444.87C876.378 410.242 876.4 375.621 876.407 340.993C876.407 339.741 876.76 338.367 875.055 337.662C873.969 337.208 874.177 336.057 874.458 335.136C874.782 334.071 875.781 334.272 876.58 334.265C879.212 334.229 881.852 334.164 884.485 334.272C886.47 334.359 887.29 333.653 887.232 331.595C887.117 328.004 887.211 324.406 887.196 320.815C887.189 319.873 887.311 318.851 886.11 318.419C885.11 318.059 884.952 317.282 885.261 316.382C885.556 315.512 886.369 315.591 887.067 315.569C888.146 315.533 889.246 315.684 890.296 315.519C892.318 315.202 895.36 316.778 896.173 314.547C897.079 312.058 897.324 308.884 895.806 306.236C894.626 304.185 895.166 303.141 897.374 303.386C900.784 303.76 901.107 301.918 900.884 299.299C900.668 296.715 900.395 294.081 904.495 294.585C906.013 294.772 905.876 293.247 905.883 292.196C905.905 288.001 905.862 283.805 905.919 279.617C905.933 278.538 905.416 276.926 907.293 276.875C909.192 276.825 908.739 278.437 908.753 279.531C908.803 283.366 908.753 287.202 908.789 291.03C908.803 292.124 908.473 293.333 909.436 294.542C910.573 293.333 910.184 292.095 910.192 291.009C910.228 282.74 910.163 274.472 910.264 266.211C910.278 264.987 909.364 262.67 911.364 262.735C913.126 262.792 912.321 265.088 912.328 266.369C912.407 274.637 912.45 282.906 912.321 291.167C912.285 293.664 912.738 295.132 915.622 294.729C918.197 294.376 918.154 296.14 918.132 297.931C918.097 300.673 917.19 303.969 922.009 303.508C923.283 303.386 923.318 304.818 922.815 305.682C922.34 306.502 921.801 307.179 921.693 308.215C920.945 315.389 921.074 315.555 928.361 315.562C929.44 315.562 930.518 315.548 931.59 315.598C933.115 315.663 933.525 316.713 932.942 317.814C930.418 322.593 932.367 327.659 931.835 332.552C931.669 334.042 932.827 334.243 934 334.243C936.395 334.243 938.79 334.308 941.185 334.236C943.962 334.15 944.825 335.359 943.358 337.676C942.717 338.691 942.559 339.619 942.559 340.677C942.559 386.445 942.588 432.212 942.609 477.98Z" fill="#B4C2C1"/>
<path d="M1536.14 339.216C1541.56 340.576 1547.13 341.404 1552.29 343.721C1553.18 344.116 1554 344.289 1554.17 343.066C1554.46 340.965 1557.51 339.403 1554.93 336.683C1551.48 333.049 1551.79 328.839 1555.19 325.68C1557.79 323.255 1560.76 323.766 1563.52 324.982C1566.52 326.299 1567.89 329.739 1567.01 333.25C1566.24 336.294 1564.24 338.295 1560.98 338.518C1559.37 338.626 1558.04 338.64 1557.15 340.403C1555.3 344.059 1555.46 344.663 1559.11 346.441C1567.52 350.557 1575.13 355.861 1581.93 362.316C1582.79 363.129 1583.62 365.079 1585.02 363.884C1586.48 362.647 1588.73 361.841 1588.23 358.883C1587.23 353.083 1588.74 350.392 1592.82 349.046C1596.25 347.923 1599.13 349.075 1601.14 351.629C1603.14 354.177 1603.03 357.336 1601.18 360.027C1599.21 362.906 1596.35 364.403 1592.86 362.999C1590.54 362.064 1589.12 362.733 1587.56 364.41C1586.39 365.662 1585.94 366.576 1587.21 367.979C1593.79 375.233 1598.34 383.746 1602.28 392.612C1602.69 393.533 1603.26 394.202 1604.12 393.641C1605.84 392.525 1608.67 393.015 1608.9 389.661C1609.24 384.84 1613.34 381.709 1617.32 382.738C1620.24 383.494 1622.8 384.739 1623.15 388.2C1623.49 391.554 1623.23 394.799 1619.78 396.591C1616.41 398.347 1613.26 397.555 1610.49 395.173C1609.62 394.425 1609.22 393.482 1607.6 394.065C1603.32 395.605 1603.32 395.44 1604.62 399.844C1606.86 407.421 1608.34 415.114 1608.14 423.073C1608.11 424.419 1607.23 426.801 1609.56 426.808C1611.83 426.815 1614.75 428.578 1616.37 424.98C1618.12 421.094 1622.61 419.669 1626.3 421.44C1629.89 423.167 1631.37 427.398 1629.7 431.19C1627.94 435.177 1624.05 436.609 1619.85 434.889C1618.05 434.155 1616.66 432.831 1616.34 431.068C1615.56 426.743 1612.32 428.643 1610.11 428.528C1607.08 428.369 1608.28 430.975 1608.11 432.514C1607.12 441.207 1605.04 449.627 1601.99 457.809C1601.5 459.119 1600.29 460.594 1602.55 461.198C1604.52 461.724 1606.06 464.869 1608.73 461.853C1612.56 457.514 1618.75 458.601 1621.05 463.717C1622.74 467.495 1621.18 472.101 1617.44 473.259C1613.18 474.576 1608.85 473.929 1607.38 469.294C1606.89 467.747 1607.06 465.919 1605.68 464.689C1602.17 461.537 1600.16 461.832 1597.94 466.063C1594.09 473.418 1589.33 480.088 1583.34 485.845C1581.96 487.17 1581.56 488.091 1583.21 489.53C1585.74 491.732 1587.46 494.675 1591.94 493.344C1595.16 492.387 1597.78 495.193 1598.91 499.18C1599.86 502.519 1598.32 505.052 1595.89 506.966C1593.42 508.909 1589.71 508.521 1587.26 506.448C1584.38 504.009 1583.62 501.001 1584.91 497.784C1585.27 496.892 1586.74 496.222 1585.77 494.977C1584.23 493.006 1582.94 490.796 1580.8 489.393C1580.03 488.889 1579.57 489.818 1579.02 490.214C1577 491.682 1574.98 493.15 1572.96 494.61C1572.96 493.142 1572.96 491.667 1572.96 490.199C1575.95 486.119 1575.95 486.119 1572.76 482.147C1569.99 478.692 1566.6 475.836 1563.6 472.604C1563.27 472.259 1562.94 471.705 1562.52 471.705C1559.33 471.734 1557.84 474.612 1555.48 476.03C1554.17 476.814 1554.68 477.973 1555.07 479.189C1555.89 481.693 1558.58 483.507 1557.84 486.579C1556.84 486.579 1555.85 486.579 1554.87 486.579C1553.32 485.529 1552.47 483.96 1551.66 482.341C1550.89 480.822 1550.18 479.074 1547.95 480.16C1546.14 481.046 1543.49 481.362 1544.51 484.55C1544.73 485.241 1544.73 485.975 1544.18 486.572C1543.66 486.579 1543.13 486.579 1542.61 486.587C1540.48 483.78 1537.78 483.744 1534.68 484.73C1531.37 485.788 1527.86 485.709 1524.44 485.867C1522.04 485.982 1521.39 486.932 1521.46 489.156C1521.57 492.48 1521.67 495.819 1520.97 499.115C1520.73 500.274 1520.69 501.49 1519.79 502.411C1519.25 502.411 1518.71 502.411 1518.18 502.411C1517.28 501.468 1517.22 500.274 1517.2 499.072C1517.17 497.755 1517.33 496.46 1517.51 495.157C1518.68 486.695 1518.64 486.651 1510.48 485.147C1508.02 484.694 1505.56 484.205 1503.2 483.363C1501.09 482.607 1499.82 483.262 1498.97 485.27C1497.2 489.429 1495.6 493.653 1493.81 497.805C1493.24 499.151 1493.03 500.921 1491.03 501.109C1491.03 499.612 1491.02 498.115 1491.02 496.625C1491.7 491.991 1493.95 487.904 1495.56 483.6C1496.01 482.406 1496.81 481.089 1495.1 480.218C1493.24 479.275 1492.58 480.657 1491.88 481.952C1490.93 483.723 1490.13 485.622 1488.17 486.587C1487.16 486.587 1486.15 486.579 1485.13 486.579C1484.71 483.895 1486.85 482.24 1487.83 480.146C1488.88 477.908 1488.78 476.411 1486.59 475.015C1484.28 473.54 1482.13 471.791 1480.24 469.769C1479.03 468.474 1477.85 468.351 1476.59 469.697C1472.98 473.533 1468.66 476.606 1465.04 480.448C1463.47 482.125 1463.32 483.356 1465.06 484.917C1468.82 488.271 1472.85 491.235 1476.94 494.171C1478.84 495.532 1480.02 493.905 1481.54 493.768C1481.56 495.064 1481.61 496.359 1481.61 497.654C1481.63 502.505 1481.62 502.505 1476.51 502.397C1476.23 500.821 1475.6 499.54 1474.13 498.633C1469.63 495.877 1465.66 492.444 1461.75 488.918C1460.74 488.004 1459.77 486.076 1457.91 487.155C1456.13 488.184 1456.07 489.911 1456.37 491.876C1457.22 497.266 1454.25 501.332 1449.21 501.886C1447.39 502.087 1445.61 502.015 1444.32 500.396C1444.32 496.021 1444.32 491.646 1444.31 487.277C1446.16 485.083 1448.64 485.594 1450.89 486.025C1452.8 486.392 1454.19 486.09 1455.27 484.543C1456.63 482.6 1454.68 481.794 1453.84 480.664C1450.21 475.778 1446.33 471.057 1444.31 465.178C1444.31 462.487 1444.32 459.795 1444.32 457.104C1446.46 457.327 1446.69 459.284 1447.38 460.673C1450.26 466.48 1453.69 471.906 1457.78 476.951C1459.4 478.959 1460.68 479.232 1462.76 477.512C1466.83 474.144 1470.16 470.021 1474.21 466.668C1475.48 465.617 1475.03 464.609 1474.21 463.573C1470.86 459.335 1467.93 454.83 1465.75 449.879C1464.98 448.123 1463.82 448.109 1462.26 448.706C1457.68 450.462 1453.05 452.052 1448.46 453.765C1447.15 454.254 1445.82 454.995 1444.32 454.377C1443.73 451.412 1447.19 452.326 1447.91 450.62C1451.17 448.008 1455.29 447.353 1459.04 445.863C1463.26 444.187 1463.27 444.244 1462.21 439.97C1461.29 436.249 1460.77 432.457 1460.42 428.643C1460.04 424.62 1460.06 424.57 1455.9 424.52C1453.39 424.491 1450.88 424.541 1448.37 424.498C1446.94 424.476 1445.47 424.555 1444.31 423.462C1444.31 422.692 1444.31 421.914 1444.32 421.144C1448.23 420.403 1452.18 420.878 1456.1 420.929C1459.2 420.972 1460.79 419.943 1461.03 416.769C1461.35 412.444 1462.58 408.299 1464.01 404.226C1464.83 401.902 1464.48 400.29 1462.04 399.354C1457.68 397.685 1453.57 395.454 1449.32 393.533C1446.6 392.302 1445.41 393.13 1444.52 395.67C1443.66 398.16 1442.79 400.635 1442.13 403.19C1441.77 404.572 1441.51 406.04 1440.03 406.767C1439 406.767 1437.99 406.767 1436.97 406.767C1437.8 400.707 1440.08 395.094 1442.39 389.301C1441.33 388.79 1440.18 388.308 1439.1 387.697C1437.74 386.919 1436.88 386.761 1435.63 388.308C1433.49 390.956 1429.32 391.086 1426.14 389.121C1423.44 387.445 1422.3 384.005 1423.37 380.781C1424.76 376.636 1426.67 375.506 1431.65 375.916C1434.96 376.19 1437.53 378.521 1437.65 382.285C1437.73 384.847 1438.81 385.754 1440.9 386.588C1442.54 387.243 1443.31 387.222 1444.2 385.538C1448.49 377.536 1453.48 370.03 1460.24 363.834C1460.9 363.237 1462.04 362.431 1460.97 361.502C1459.46 360.186 1458.68 357.487 1455.95 358.243C1454.88 358.538 1453.86 358.653 1452.79 358.653C1447.83 358.646 1445.29 355.479 1445.69 349.83C1445.98 345.772 1449.36 343.62 1454.38 344.304C1458.35 344.843 1460.93 348.967 1459.87 353.198C1459.48 354.738 1458.41 356.084 1460.08 357.696C1462.05 359.61 1463.09 361.042 1466.09 358.293C1472.78 352.169 1480.75 347.808 1489.14 344.296C1490.29 343.814 1492.32 343.526 1491.42 341.907C1490.35 339.986 1491.76 336.33 1487.61 336.301C1483.82 336.273 1479.97 331.926 1480.29 328.479C1480.68 324.219 1484.43 320.974 1488.6 321.29C1492.35 321.571 1495.59 325.658 1495.29 329.631C1495.19 331.012 1494.83 332.444 1493.76 333.128C1489.61 335.776 1492.73 338.727 1493.27 341.526C1493.54 342.944 1494.73 342.447 1495.58 342.123C1504.15 338.849 1513.2 338.633 1522.17 338.165C1524.14 338.065 1524.01 337.446 1524.02 336.244C1524.04 334.689 1524 333.128 1524.04 331.574C1524.07 330.026 1523.74 329.062 1522.01 328.335C1518.66 326.932 1517.28 322.909 1518.38 319.167C1519.18 316.418 1522.68 314.094 1525.89 314.166C1528.6 314.224 1532.14 317.419 1532.63 320.254C1533.36 324.471 1531.87 327.191 1527.91 328.666C1523.4 330.35 1525.81 334.107 1525.63 336.899C1525.45 339.612 1528.12 338.539 1529.47 338.453C1531.75 338.316 1533.85 339.525 1536.14 339.216Z" fill="#95A8A7"/>
<path d="M848.47 435.551C844.521 435.573 840.573 435.58 836.624 435.638C835.602 435.652 834.337 435.357 834.092 436.919C833.905 438.113 834.15 439.049 835.588 439.265C836.876 439.459 836.861 440.488 836.876 441.467C836.883 442.186 836.883 442.906 836.883 443.618C836.883 490.537 836.847 537.464 836.955 584.383C836.962 587.744 836.228 589.104 832.653 588.83C828.611 588.521 824.518 588.686 820.454 588.787C818.405 588.837 817.426 588.319 817.441 586.002C817.52 571.279 817.541 556.555 817.434 541.832C817.412 538.702 819.347 539.112 821.238 539.155C823.123 539.191 824.9 539.328 824.705 536.499C824.598 534.888 824.159 534.053 822.418 534.103C820.267 534.161 818.11 534.074 815.959 534.046C815.988 500.871 816.017 467.697 816.045 434.522C816.052 424.584 816.031 414.639 816.067 404.701C816.074 403.161 815.412 401.226 818.059 400.916C819.167 400.787 818.886 399.614 818.908 398.822C818.958 396.908 818.915 394.986 818.944 393.072C818.958 392.245 818.915 391.064 820.023 391.165C824.072 391.532 823.224 388.683 823.231 386.445C823.26 378.183 823.216 369.915 823.281 361.654C823.288 360.653 822.548 358.826 824.468 358.934C825.957 359.013 825.367 360.653 825.367 361.603C825.418 370.347 825.367 379.09 825.432 387.833C825.439 388.956 824.648 390.82 826.77 390.899C828.964 390.978 828.223 389.078 828.23 387.956C828.302 381.609 828.194 375.262 828.323 368.915C828.352 367.641 827.194 365.223 829.776 365.331C832.2 365.432 831.057 367.77 831.078 369.08C831.208 375.305 831.229 381.537 831.085 387.761C831.028 390.172 831.618 391.172 834.243 391.086C839.285 390.928 838.997 390.187 839.048 395.843C839.098 401.924 838.343 401.204 844.471 401.017C847.65 400.923 848.521 401.823 848.463 405.004C848.276 415.193 848.442 425.376 848.47 435.551Z" fill="#94A8A6"/>
<path d="M619.035 565.673C619.056 574.172 618.977 582.677 619.164 591.169C619.222 593.932 618.251 594.594 615.64 594.565C604.03 594.443 592.421 594.587 580.812 594.458C578.115 594.429 577.331 595.256 577.36 597.926C577.489 609.059 577.345 620.198 577.468 631.331C577.496 633.965 576.791 634.893 574.051 634.835C566.398 634.67 558.73 634.713 551.07 634.814C548.819 634.843 547.884 634.252 547.898 631.813C548.013 617.449 547.999 603.079 548.02 588.715C549.473 587.333 551.322 587.528 553.084 587.506C558.083 587.448 563.082 587.427 568.074 587.506C570.829 587.549 571.929 586.448 571.85 583.699C571.792 581.483 571.433 579.13 573.03 577.187C573.051 567.983 573.145 558.779 573.044 549.575C573.015 547.128 573.655 546.229 576.23 546.286C583.517 546.445 590.81 546.423 598.096 546.293C600.42 546.25 601.254 546.934 601.168 549.323C601.002 553.857 601.218 558.412 601.081 562.945C601.009 565.169 601.808 565.853 603.973 565.788C609.001 565.644 614.021 565.702 619.035 565.673Z" fill="#94A8A6"/>
<path d="M506.913 606.655C506.935 612.621 506.877 618.586 507.021 624.545C507.078 626.876 506.302 627.711 503.95 627.632C499.188 627.474 494.412 627.546 489.643 627.524C489.672 621.544 489.787 615.557 489.686 609.577C489.65 607.382 490.355 606.648 492.556 606.705C497.339 606.806 502.13 606.684 506.913 606.655Z" fill="#94A8A6"/>
<path d="M573.044 577.187C573.065 579.943 572.972 582.706 573.137 585.448C573.288 587.866 572.562 588.873 569.944 588.816C562.643 588.65 555.335 588.729 548.027 588.715C548.632 585.038 546.898 583.937 543.482 584.412C542.108 584.606 540.669 584.383 539.259 584.354C539.454 577.259 539.454 577.273 546.531 577.259C555.371 577.244 564.211 577.208 573.044 577.187Z" fill="#B4C2C1"/>
<path d="M1140.27 560.671C1144.05 560.671 1147.83 560.671 1151.61 560.671C1151.64 585.563 1151.64 610.455 1151.72 635.346C1151.73 637.707 1150.95 638.39 1148.62 638.426C1140.18 638.556 1140.17 638.635 1140.18 630.316C1140.21 607.101 1140.24 583.886 1140.27 560.671Z" fill="#94A8A6"/>
<path d="M1439.99 406.795C1441.26 402.247 1442.38 397.663 1444.24 393.302C1444.9 391.755 1445.35 390.546 1447.55 391.626C1452.98 394.274 1458.51 396.699 1464.04 399.124C1465.72 399.858 1466.45 400.772 1465.7 402.607C1463.42 408.105 1462.44 413.934 1461.48 419.763C1461.33 420.67 1461.57 421.943 1460.19 421.886C1454.89 421.648 1449.52 422.85 1444.28 421.181C1443.72 418.187 1444.29 416.575 1448 416.827C1451.18 417.043 1454.46 410.07 1452.68 407.465C1452.1 406.63 1451.17 406.896 1450.37 406.882C1446.91 406.824 1443.45 406.817 1439.99 406.795Z" fill="#EEEFEC"/>
<path d="M1198.4 557.196C1198.41 558.505 1198.25 559.837 1198.43 561.125C1198.89 564.306 1197.62 565.291 1194.47 565.133C1192.08 565.011 1191.03 564.471 1191.17 561.888C1191.36 558.448 1191.29 554.979 1191.2 551.532C1191.13 548.826 1192.99 549.179 1194.61 549.251C1196.2 549.33 1198.48 548.445 1198.41 551.482C1198.36 553.382 1198.4 555.289 1198.4 557.196Z" fill="#97AAA9"/>
<path d="M1198.4 585.894C1198.4 587.081 1198.41 588.276 1198.4 589.463C1198.39 593.702 1196.95 594.745 1192.74 593.788C1191.27 593.45 1191.22 592.522 1191.22 591.421C1191.21 587.729 1191.29 584.037 1191.2 580.346C1191.12 577.345 1193.24 578.057 1194.9 577.993C1196.71 577.921 1198.64 577.662 1198.42 580.54C1198.29 582.31 1198.4 584.109 1198.4 585.894Z" fill="#97AAA9"/>
<path d="M1198.41 443.654C1198.41 444.964 1198.25 446.295 1198.43 447.583C1198.92 450.858 1197.46 451.642 1194.41 451.527C1191.93 451.44 1191.04 450.721 1191.18 448.224C1191.36 444.899 1191.34 441.553 1191.19 438.221C1191.04 435.033 1193.21 435.702 1195.03 435.609C1196.96 435.515 1198.67 435.544 1198.43 438.293C1198.28 440.07 1198.4 441.87 1198.41 443.654Z" fill="#97AAA9"/>
<path d="M1198.4 529.656C1198.4 530.966 1198.23 532.304 1198.43 533.578C1199 537.248 1197.24 538.061 1193.97 537.78C1192.1 537.622 1191.12 537.248 1191.18 535.139C1191.3 531.57 1191.33 527.994 1191.18 524.424C1191.06 521.524 1192.97 521.862 1194.74 521.913C1196.42 521.963 1198.56 521.315 1198.41 524.302C1198.33 526.079 1198.4 527.871 1198.4 529.656Z" fill="#97AAA9"/>
<path d="M1191.22 471.971C1191.22 470.899 1191.21 469.827 1191.22 468.755C1191.23 464.207 1191.51 464.027 1196.11 464.343C1197.78 464.458 1198.44 465.049 1198.41 466.704C1198.36 470.395 1198.31 474.087 1198.42 477.779C1198.51 480.758 1196.44 480.146 1194.76 480.182C1193 480.218 1191 480.599 1191.19 477.685C1191.32 475.792 1191.22 473.878 1191.22 471.971Z" fill="#97AAA9"/>
<path d="M1198.4 500.993C1198.4 502.188 1198.41 503.375 1198.4 504.57C1198.39 509.132 1198.12 509.305 1193.51 508.988C1191.85 508.873 1191.18 508.305 1191.2 506.635C1191.26 502.944 1191.31 499.252 1191.18 495.56C1191.09 492.588 1193.15 493.178 1194.84 493.15C1196.59 493.121 1198.61 492.711 1198.41 495.632C1198.3 497.417 1198.4 499.209 1198.4 500.993Z" fill="#97AAA9"/>
<path d="M1166.07 529.879C1166.06 528.447 1166.24 526.993 1166.03 525.597C1165.5 522.085 1167.41 521.668 1170.22 521.862C1171.86 521.978 1172.58 522.524 1172.55 524.201C1172.49 528.008 1172.5 531.822 1172.54 535.636C1172.57 538.14 1170.76 537.694 1169.29 537.701C1167.79 537.708 1166 538.09 1166.07 535.593C1166.11 533.693 1166.07 531.786 1166.07 529.879Z" fill="#97AAA9"/>
<path d="M1217.09 529.512C1217.09 528.202 1217.26 526.864 1217.06 525.59C1216.51 522.057 1218.47 521.69 1221.25 521.87C1222.9 521.977 1223.59 522.546 1223.57 524.215C1223.52 527.907 1223.46 531.606 1223.59 535.29C1223.68 537.917 1222.02 537.716 1220.29 537.737C1218.52 537.759 1216.88 537.809 1217.06 535.233C1217.2 533.326 1217.09 531.419 1217.09 529.512Z" fill="#97AAA9"/>
<path d="M1242.25 529.879C1242.25 528.447 1242.43 526.993 1242.22 525.597C1241.68 522.085 1243.6 521.668 1246.4 521.862C1248.05 521.978 1248.76 522.524 1248.73 524.201C1248.68 528.008 1248.68 531.822 1248.73 535.636C1248.76 538.14 1246.95 537.694 1245.48 537.701C1243.98 537.708 1242.19 538.09 1242.26 535.593C1242.3 533.693 1242.25 531.786 1242.25 529.879Z" fill="#97AAA9"/>
<path d="M1248.71 472.425C1248.71 473.734 1248.72 475.044 1248.71 476.354C1248.69 480.218 1248.22 480.563 1244.36 480.225C1242.86 480.096 1242.23 479.549 1242.25 478.052C1242.28 474.238 1242.31 470.431 1242.24 466.617C1242.19 463.868 1244.13 464.466 1245.71 464.386C1247.37 464.3 1248.86 464.365 1248.73 466.711C1248.63 468.611 1248.7 470.518 1248.71 472.425Z" fill="#97AAA9"/>
<path d="M1223.56 443.546C1223.56 444.856 1223.39 446.194 1223.6 447.468C1224.16 451.023 1222.39 451.736 1219.33 451.476C1217.62 451.333 1217.06 450.663 1217.09 449.051C1217.14 445.36 1217.19 441.668 1217.08 437.976C1217 435.299 1218.78 435.681 1220.44 435.609C1222.29 435.53 1223.78 435.695 1223.59 438.185C1223.44 439.963 1223.56 441.762 1223.56 443.546Z" fill="#97AAA9"/>
<path d="M1172.53 557.066C1172.53 558.498 1172.35 559.952 1172.56 561.348C1173.09 564.874 1171.17 565.263 1168.38 565.075C1166.72 564.967 1166.02 564.406 1166.05 562.729C1166.11 559.038 1166.17 555.339 1166.04 551.655C1165.94 549.035 1167.6 549.222 1169.33 549.208C1171.09 549.193 1172.74 549.129 1172.55 551.705C1172.42 553.482 1172.53 555.274 1172.53 557.066Z" fill="#97AAA9"/>
<path d="M1248.71 443.597C1248.72 444.906 1248.72 446.216 1248.71 447.526C1248.69 451.39 1247.88 452.009 1244.06 451.448C1242.69 451.246 1242.25 450.613 1242.25 449.354C1242.26 445.54 1242.32 441.726 1242.22 437.919C1242.16 435.206 1244.01 435.659 1245.63 435.616C1247.24 435.573 1248.83 435.472 1248.72 437.876C1248.63 439.783 1248.7 441.69 1248.71 443.597Z" fill="#97AAA9"/>
<path d="M1248.71 501.181C1248.71 502.49 1248.72 503.8 1248.71 505.11C1248.69 508.974 1248.22 509.319 1244.36 508.981C1242.86 508.852 1242.23 508.305 1242.25 506.808C1242.28 502.994 1242.31 499.187 1242.24 495.373C1242.19 492.624 1244.13 493.222 1245.71 493.142C1247.37 493.056 1248.86 493.121 1248.73 495.467C1248.63 497.367 1248.7 499.281 1248.71 501.181Z" fill="#97AAA9"/>
<path d="M1223.55 500.979C1223.56 502.411 1223.38 503.865 1223.59 505.261C1224.12 508.773 1222.21 509.19 1219.4 508.996C1217.75 508.88 1217.04 508.334 1217.07 506.657C1217.13 502.85 1217.12 499.036 1217.08 495.222C1217.05 492.718 1218.85 493.164 1220.33 493.157C1221.82 493.15 1223.62 492.768 1223.54 495.265C1223.51 497.165 1223.55 499.072 1223.55 500.979Z" fill="#97AAA9"/>
<path d="M1172.53 443.395C1172.53 444.827 1172.43 446.259 1172.55 447.684C1172.76 450.203 1172.3 451.599 1169.16 451.556C1166.13 451.512 1165.95 450.073 1166.03 447.778C1166.15 444.568 1166.17 441.344 1166.03 438.135C1165.92 435.58 1167.46 435.58 1169.25 435.616C1170.95 435.652 1172.71 435.407 1172.54 438.041C1172.43 439.811 1172.53 441.603 1172.53 443.395Z" fill="#97AAA9"/>
<path d="M1172.53 500.914C1172.53 502.346 1172.43 503.778 1172.55 505.203C1172.76 507.722 1172.3 509.118 1169.16 509.075C1166.13 509.032 1165.95 507.592 1166.03 505.297C1166.15 502.087 1166.17 498.863 1166.03 495.654C1165.92 493.099 1167.46 493.099 1169.25 493.135C1170.95 493.171 1172.71 492.926 1172.54 495.56C1172.43 497.331 1172.53 499.122 1172.53 500.914Z" fill="#97AAA9"/>
<path d="M1172.53 472.137C1172.53 473.569 1172.44 475.001 1172.55 476.426C1172.74 478.916 1172.35 480.362 1169.18 480.319C1166.17 480.276 1165.95 478.88 1166.03 476.562C1166.15 473.353 1166.18 470.129 1166.03 466.92C1165.92 464.379 1167.42 464.329 1169.23 464.379C1170.92 464.422 1172.71 464.142 1172.55 466.79C1172.43 468.553 1172.53 470.345 1172.53 472.137Z" fill="#97AAA9"/>
<path d="M1223.56 557.023C1223.56 558.455 1223.46 559.887 1223.58 561.312C1223.8 563.867 1223.26 565.191 1220.16 565.155C1217.1 565.119 1216.99 563.607 1217.06 561.355C1217.16 558.146 1217.2 554.922 1217.06 551.712C1216.94 549.129 1218.53 549.201 1220.3 549.215C1222.03 549.229 1223.75 549.05 1223.57 551.669C1223.46 553.439 1223.55 555.231 1223.56 557.023Z" fill="#97AAA9"/>
<path d="M1242.25 557.124C1242.25 555.814 1242.41 554.475 1242.21 553.202C1241.65 549.668 1243.39 548.913 1246.47 549.179C1248.16 549.323 1248.75 549.978 1248.73 551.597C1248.67 555.289 1248.63 558.98 1248.73 562.672C1248.81 565.342 1247.05 564.989 1245.38 565.054C1243.53 565.126 1242.02 564.996 1242.22 562.485C1242.36 560.707 1242.25 558.908 1242.25 557.124Z" fill="#97AAA9"/>
<path d="M1223.56 472.424C1223.56 473.734 1223.57 475.044 1223.56 476.354C1223.54 480.218 1223.06 480.563 1219.21 480.225C1217.71 480.096 1217.08 479.549 1217.09 478.052C1217.13 474.238 1217.16 470.431 1217.08 466.617C1217.03 463.868 1218.98 464.465 1220.55 464.386C1222.21 464.3 1223.7 464.365 1223.57 466.711C1223.47 468.61 1223.55 470.517 1223.56 472.424Z" fill="#97AAA9"/>
<path d="M1172.53 585.765C1172.53 587.197 1172.43 588.629 1172.55 590.053C1172.76 592.587 1172.27 593.954 1169.15 593.911C1166.1 593.867 1165.95 592.399 1166.03 590.118C1166.14 586.909 1166.18 583.685 1166.02 580.475C1165.91 577.899 1167.47 577.942 1169.25 577.971C1170.97 577.993 1172.71 577.784 1172.54 580.411C1172.43 582.188 1172.53 583.98 1172.53 585.765Z" fill="#97AAA9"/>
<path d="M1223.56 585.75C1223.56 587.182 1223.47 588.614 1223.58 590.039C1223.79 592.558 1223.34 593.954 1220.19 593.911C1217.16 593.867 1216.98 592.428 1217.06 590.133C1217.18 586.923 1217.21 583.699 1217.06 580.49C1216.95 577.935 1218.49 577.935 1220.28 577.971C1221.98 578.007 1223.75 577.762 1223.57 580.396C1223.46 582.174 1223.55 583.965 1223.56 585.75Z" fill="#97AAA9"/>
<path d="M1248.71 585.736C1248.71 587.168 1248.63 588.6 1248.73 590.025C1248.93 592.514 1248.53 593.961 1245.37 593.918C1242.35 593.875 1242.13 592.478 1242.22 590.161C1242.34 586.952 1242.36 583.728 1242.22 580.518C1242.1 577.978 1243.6 577.928 1245.42 577.978C1247.11 578.021 1248.89 577.741 1248.73 580.389C1248.62 582.152 1248.71 583.944 1248.71 585.736Z" fill="#97AAA9"/>
<path d="M1378.8 535.492C1378.8 537.521 1378.74 539.543 1378.82 541.566C1378.89 543.278 1378.42 544.199 1376.45 544.228C1374.43 544.25 1373.7 543.537 1373.75 541.522C1373.85 537.471 1373.84 533.419 1373.76 529.368C1373.71 527.468 1374.53 526.9 1376.32 526.893C1378.15 526.885 1378.92 527.555 1378.83 529.411C1378.73 531.441 1378.8 533.47 1378.8 535.492Z" fill="#97AAA9"/>
<path d="M1418.33 535.708C1418.33 537.615 1418.25 539.522 1418.35 541.429C1418.45 543.343 1417.86 544.228 1415.76 544.235C1413.52 544.242 1413.25 543.091 1413.28 541.306C1413.35 537.377 1413.35 533.441 1413.28 529.512C1413.25 527.756 1413.76 526.921 1415.7 526.892C1417.75 526.864 1418.46 527.662 1418.35 529.634C1418.25 531.656 1418.33 533.686 1418.33 535.708Z" fill="#97AAA9"/>
<path d="M1378.81 567.378C1378.81 569.163 1378.74 570.955 1378.82 572.739C1378.91 574.646 1378.65 575.92 1376.2 575.877C1373.93 575.841 1373.73 574.661 1373.76 572.912C1373.82 569.098 1373.82 565.284 1373.76 561.47C1373.73 559.707 1373.95 558.549 1376.2 558.513C1378.66 558.469 1378.9 559.765 1378.82 561.657C1378.74 563.564 1378.81 565.471 1378.81 567.378Z" fill="#97AAA9"/>
<path d="M1418.33 501.166C1418.33 503.073 1418.26 504.98 1418.35 506.887C1418.45 508.773 1417.92 509.722 1415.79 509.722C1413.58 509.722 1413.25 508.643 1413.28 506.822C1413.35 502.893 1413.35 498.957 1413.29 495.028C1413.26 493.308 1413.71 492.401 1415.68 492.38C1417.7 492.358 1418.48 493.092 1418.37 495.093C1418.25 497.115 1418.33 499.144 1418.33 501.166Z" fill="#97AAA9"/>
<path d="M1413.3 432.831C1413.3 430.802 1413.39 428.772 1413.28 426.757C1413.16 424.721 1414 424.059 1415.99 424.073C1417.99 424.088 1418.37 425.066 1418.35 426.757C1418.29 430.809 1418.27 434.86 1418.35 438.912C1418.4 440.79 1417.63 441.409 1415.81 441.409C1414 441.409 1413.19 440.797 1413.28 438.912C1413.38 436.89 1413.31 434.86 1413.3 432.831Z" fill="#97AAA9"/>
<path d="M1418.33 567.227C1418.33 569.134 1418.27 571.041 1418.35 572.948C1418.43 574.74 1418.11 575.877 1415.88 575.877C1413.77 575.87 1413.24 574.977 1413.28 573.063C1413.38 569.134 1413.38 565.198 1413.28 561.269C1413.23 559.297 1413.89 558.498 1415.94 558.527C1417.88 558.556 1418.43 559.398 1418.35 561.154C1418.27 563.176 1418.33 565.198 1418.33 567.227Z" fill="#97AAA9"/>
<path d="M1418.33 602.611C1418.33 604.395 1418.27 606.187 1418.35 607.972C1418.43 609.879 1418.17 611.153 1415.72 611.109C1413.46 611.073 1413.25 609.893 1413.28 608.145C1413.34 604.331 1413.34 600.517 1413.28 596.703C1413.25 594.94 1413.48 593.781 1415.73 593.745C1418.19 593.702 1418.43 594.997 1418.35 596.89C1418.27 598.79 1418.33 600.704 1418.33 602.611Z" fill="#97AAA9"/>
<path d="M1373.78 466.221C1373.78 464.314 1373.84 462.407 1373.76 460.5C1373.69 458.759 1374.2 457.888 1376.15 457.867C1378.19 457.838 1378.88 458.608 1378.83 460.594C1378.73 464.645 1378.74 468.697 1378.82 472.748C1378.87 474.67 1378.01 475.188 1376.24 475.195C1374.38 475.21 1373.67 474.49 1373.75 472.655C1373.85 470.518 1373.78 468.366 1373.78 466.221Z" fill="#97AAA9"/>
<path d="M1418.33 466.445C1418.33 468.474 1418.25 470.503 1418.36 472.518C1418.48 474.555 1417.63 475.217 1415.64 475.202C1413.65 475.188 1413.26 474.216 1413.29 472.525C1413.35 468.474 1413.37 464.422 1413.28 460.371C1413.24 458.493 1414.01 457.874 1415.82 457.874C1417.63 457.874 1418.45 458.493 1418.35 460.371C1418.25 462.393 1418.33 464.422 1418.33 466.445Z" fill="#97AAA9"/>
<path d="M1378.8 501.087C1378.8 502.994 1378.74 504.901 1378.82 506.808C1378.89 508.614 1378.56 509.73 1376.34 509.722C1374.23 509.715 1373.71 508.801 1373.75 506.902C1373.84 502.972 1373.85 499.036 1373.75 495.107C1373.7 493.121 1374.39 492.351 1376.43 492.38C1378.38 492.401 1378.89 493.272 1378.82 495.013C1378.74 497.036 1378.8 499.065 1378.8 501.087Z" fill="#97AAA9"/>
<path d="M1373.78 602.129C1373.78 600.222 1373.84 598.315 1373.76 596.408C1373.69 594.688 1374.17 593.774 1376.14 593.752C1378.16 593.731 1378.89 594.457 1378.84 596.458C1378.74 600.509 1378.74 604.561 1378.83 608.612C1378.87 610.512 1378.05 611.073 1376.27 611.081C1374.43 611.088 1373.68 610.411 1373.76 608.555C1373.85 606.425 1373.78 604.273 1373.78 602.129Z" fill="#97AAA9"/>
<path d="M1378.8 432.939C1378.8 434.846 1378.72 436.76 1378.82 438.66C1378.93 440.625 1378.24 441.445 1376.18 441.416C1374.25 441.387 1373.72 440.567 1373.75 438.804C1373.82 434.753 1373.83 430.701 1373.75 426.65C1373.72 424.843 1374.33 424.066 1376.22 424.088C1377.96 424.109 1378.91 424.57 1378.82 426.513C1378.72 428.65 1378.8 430.795 1378.8 432.939Z" fill="#97AAA9"/>
<path d="M1393.91 535.665C1393.91 533.52 1393.96 531.376 1393.89 529.231C1393.84 527.555 1394.53 526.885 1396.22 526.921C1397.84 526.957 1398.23 527.799 1398.21 529.195C1398.18 533.484 1398.18 537.773 1398.21 542.062C1398.23 543.58 1397.57 544.185 1396.07 544.185C1394.59 544.185 1393.86 543.631 1393.89 542.091C1393.94 539.954 1393.91 537.809 1393.91 535.665Z" fill="#97AAA9"/>
<path d="M1398.2 433.04C1398.2 435.062 1398.17 437.091 1398.21 439.113C1398.23 440.517 1397.81 441.344 1396.2 441.38C1394.5 441.416 1393.86 440.733 1393.88 439.063C1393.93 434.774 1393.92 430.485 1393.88 426.196C1393.87 424.656 1394.59 424.117 1396.07 424.117C1397.58 424.117 1398.24 424.743 1398.21 426.247C1398.17 428.513 1398.2 430.773 1398.2 433.04Z" fill="#97AAA9"/>
<path d="M1437.74 535.506C1437.74 537.651 1437.71 539.795 1437.75 541.94C1437.77 543.357 1437.32 544.156 1435.72 544.192C1434.01 544.228 1433.4 543.509 1433.42 541.853C1433.47 537.687 1433.47 533.513 1433.42 529.339C1433.4 527.763 1433.85 526.9 1435.62 526.907C1437.47 526.914 1437.78 527.914 1437.75 529.426C1437.7 531.455 1437.74 533.484 1437.74 535.506Z" fill="#97AAA9"/>
<path d="M1398.2 602.488C1398.21 604.633 1398.17 606.777 1398.21 608.922C1398.24 610.433 1397.59 611.052 1396.08 611.052C1394.6 611.052 1393.88 610.505 1393.9 608.965C1393.93 604.554 1393.93 600.15 1393.9 595.738C1393.9 594.105 1394.83 593.781 1396.21 593.795C1397.53 593.81 1398.21 594.321 1398.2 595.695C1398.18 597.962 1398.19 600.222 1398.2 602.488Z" fill="#97AAA9"/>
<path d="M1433.44 432.514C1433.44 430.492 1433.49 428.463 1433.42 426.441C1433.37 424.779 1434.03 424.073 1435.73 424.109C1437.33 424.145 1437.76 424.951 1437.74 426.369C1437.72 430.658 1437.71 434.947 1437.74 439.236C1437.76 440.74 1437.14 441.38 1435.62 441.38C1434.16 441.38 1433.4 440.855 1433.43 439.308C1433.46 437.041 1433.44 434.774 1433.44 432.514Z" fill="#97AAA9"/>
<path d="M1437.73 500.965C1437.73 503.109 1437.71 505.254 1437.74 507.398C1437.76 508.787 1437.39 509.65 1435.75 509.686C1434.08 509.722 1433.39 509.082 1433.41 507.391C1433.47 503.102 1433.45 498.813 1433.42 494.524C1433.4 492.998 1434.08 492.423 1435.58 492.423C1437.08 492.423 1437.77 493.013 1437.74 494.531C1437.7 496.676 1437.73 498.82 1437.73 500.965Z" fill="#97AAA9"/>
<path d="M1398.2 501.065C1398.2 503.21 1398.16 505.354 1398.21 507.499C1398.24 508.974 1397.67 509.679 1396.12 509.679C1394.68 509.679 1393.88 509.211 1393.89 507.643C1393.92 503.239 1393.92 498.827 1393.89 494.423C1393.88 492.826 1394.73 492.43 1396.15 492.423C1397.72 492.416 1398.23 493.193 1398.2 494.639C1398.17 496.776 1398.21 498.921 1398.2 501.065Z" fill="#97AAA9"/>
<path d="M1398.21 567.4C1398.21 569.422 1398.16 571.451 1398.22 573.473C1398.27 575.114 1397.66 575.87 1395.93 575.827C1394.35 575.791 1393.88 575.028 1393.89 573.596C1393.92 569.307 1393.93 565.018 1393.89 560.729C1393.88 559.247 1394.46 558.592 1395.99 558.556C1397.76 558.52 1398.26 559.376 1398.22 560.966C1398.16 563.111 1398.21 565.255 1398.21 567.4Z" fill="#97AAA9"/>
<path d="M1437.73 567.083C1437.73 569.35 1437.7 571.61 1437.74 573.869C1437.76 575.496 1436.82 575.834 1435.44 575.819C1434.12 575.805 1433.44 575.287 1433.44 573.92C1433.46 569.516 1433.47 565.104 1433.43 560.7C1433.42 559.189 1434.06 558.57 1435.57 558.57C1437.04 558.57 1437.78 559.11 1437.75 560.65C1437.7 562.794 1437.73 564.939 1437.73 567.083Z" fill="#97AAA9"/>
<path d="M1433.44 466.589C1433.44 464.444 1433.47 462.3 1433.43 460.155C1433.41 458.737 1433.85 457.939 1435.45 457.903C1437.16 457.867 1437.77 458.586 1437.76 460.241C1437.71 464.408 1437.71 468.582 1437.76 472.756C1437.77 474.332 1437.33 475.195 1435.55 475.188C1433.7 475.181 1433.39 474.18 1433.43 472.669C1433.47 470.64 1433.43 468.611 1433.44 466.589Z" fill="#97AAA9"/>
<path d="M1398.2 466.581C1398.2 468.726 1398.16 470.87 1398.21 473.015C1398.24 474.511 1397.62 475.166 1396.1 475.166C1394.64 475.166 1393.88 474.655 1393.9 473.101C1393.93 468.812 1393.94 464.523 1393.89 460.234C1393.87 458.586 1394.48 457.859 1396.19 457.895C1397.79 457.931 1398.24 458.723 1398.21 460.148C1398.18 462.292 1398.21 464.437 1398.2 466.581Z" fill="#97AAA9"/>
<path d="M734.069 513.867C734.292 515.501 733.594 516.199 731.904 516.163C730.451 516.134 729.796 515.659 729.775 514.119C729.753 512.493 730.285 511.766 731.997 511.817C733.428 511.86 734.256 512.277 734.069 513.867Z" fill="#B4C2C1"/>
<path d="M741.261 522.589C741.492 524.309 740.614 524.806 739.003 524.791C737.464 524.777 736.996 524.108 736.96 522.661C736.917 520.948 737.651 520.423 739.269 520.445C740.801 520.466 741.42 521.092 741.261 522.589Z" fill="#B4C2C1"/>
<path d="M734.069 522.647C734.234 524.144 733.608 524.77 732.083 524.798C730.465 524.82 729.731 524.287 729.775 522.582C729.811 521.128 730.278 520.466 731.817 520.452C733.421 520.43 734.299 520.927 734.069 522.647Z" fill="#B4C2C1"/>
<path d="M747.872 511.867C749.454 511.687 749.886 512.515 749.929 513.947C749.979 515.659 749.238 516.185 747.62 516.163C746.073 516.149 745.606 515.487 745.584 514.033C745.555 512.349 746.232 511.644 747.872 511.867Z" fill="#B4C2C1"/>
<path d="M741.261 514.018C741.419 515.522 740.786 516.141 739.261 516.163C737.628 516.192 736.924 515.63 736.96 513.932C736.988 512.471 737.47 511.824 739.009 511.809C740.621 511.802 741.484 512.306 741.261 514.018Z" fill="#B4C2C1"/>
<path d="M731.925 528.404C733.644 528.181 734.133 529.059 734.118 530.663C734.104 532.21 733.428 532.664 731.982 532.7C730.27 532.743 729.745 532.002 729.774 530.39C729.796 528.857 730.428 528.238 731.925 528.404Z" fill="#B4C2C1"/>
<path d="M998.626 427.578C998.626 425.793 998.626 424.001 998.626 422.217C998.626 421.015 999.295 420.54 1000.44 420.554C1001.62 420.562 1002.17 421.13 1002.17 422.303C1002.16 425.88 1002.17 429.449 1002.18 433.025C1002.18 434.141 1001.78 434.824 1000.53 434.868C999.151 434.918 998.59 434.256 998.604 432.939C998.626 431.154 998.611 429.363 998.611 427.578C998.611 427.578 998.619 427.578 998.626 427.578Z" fill="#C9D3D2"/>
<path d="M1015.85 408.127C1015.85 406.457 1015.87 404.788 1015.85 403.125C1015.83 401.844 1016.31 401.096 1017.72 401.139C1018.92 401.175 1019.41 401.772 1019.41 402.931C1019.41 406.507 1019.41 410.077 1019.41 413.653C1019.41 414.797 1018.95 415.416 1017.73 415.46C1016.33 415.51 1015.83 414.783 1015.84 413.495C1015.87 411.703 1015.86 409.918 1015.85 408.127Z" fill="#C9D3D2"/>
<path d="M1007.23 408.098C1007.23 406.428 1007.24 404.759 1007.23 403.096C1007.21 401.794 1007.74 401.096 1009.13 401.146C1010.36 401.19 1010.8 401.837 1010.8 402.967C1010.79 406.543 1010.79 410.113 1010.8 413.689C1010.8 414.848 1010.27 415.431 1009.08 415.46C1007.67 415.496 1007.21 414.726 1007.23 413.459C1007.24 411.667 1007.23 409.882 1007.23 408.098Z" fill="#C9D3D2"/>
<path d="M998.605 408.083C998.605 406.414 998.619 404.744 998.605 403.082C998.59 401.765 999.137 401.096 1000.53 401.146C1001.76 401.189 1002.18 401.866 1002.18 402.981C1002.17 406.558 1002.17 410.127 1002.17 413.704C1002.17 414.869 1001.63 415.438 1000.45 415.467C999.022 415.503 998.59 414.711 998.605 413.452C998.619 411.653 998.605 409.868 998.605 408.083Z" fill="#C9D3D2"/>
<path d="M1019.42 447.036C1019.43 448.821 1019.41 450.613 1019.43 452.398C1019.44 453.75 1018.82 454.341 1017.46 454.283C1016.19 454.233 1015.86 453.484 1015.86 452.398C1015.86 448.821 1015.87 445.252 1015.87 441.675C1015.87 440.481 1016.49 439.963 1017.64 439.963C1018.8 439.963 1019.41 440.481 1019.41 441.675C1019.41 443.46 1019.41 445.245 1019.42 447.036Z" fill="#C9D3D2"/>
<path d="M1007.23 446.95C1007.23 445.281 1007.24 443.611 1007.22 441.949C1007.21 440.668 1007.68 439.919 1009.1 439.963C1010.3 439.999 1010.8 440.603 1010.8 441.754C1010.79 445.331 1010.79 448.9 1010.8 452.477C1010.8 453.621 1010.32 454.24 1009.11 454.283C1007.7 454.333 1007.21 453.599 1007.23 452.311C1007.24 450.527 1007.23 448.742 1007.23 446.95Z" fill="#C9D3D2"/>
<path d="M1019.43 427.88C1019.43 429.55 1019.41 431.219 1019.43 432.882C1019.45 434.162 1018.97 434.911 1017.56 434.868C1016.36 434.832 1015.86 434.234 1015.87 433.076C1015.87 429.499 1015.87 425.93 1015.87 422.354C1015.87 421.209 1016.33 420.59 1017.55 420.547C1018.95 420.497 1019.45 421.224 1019.44 422.512C1019.41 424.304 1019.43 426.096 1019.43 427.88Z" fill="#C9D3D2"/>
<path d="M1002.17 447.411C1002.18 449.08 1002.17 450.75 1002.18 452.412C1002.18 453.506 1001.81 454.225 1000.56 454.276C999.187 454.333 998.605 453.707 998.612 452.376C998.633 448.799 998.626 445.23 998.626 441.654C998.626 440.459 999.266 439.955 1000.42 439.963C1001.58 439.97 1002.18 440.502 1002.17 441.69C1002.16 443.597 1002.17 445.504 1002.17 447.411Z" fill="#C9D3D2"/>
<path d="M1010.8 427.866C1010.8 429.535 1010.79 431.205 1010.81 432.867C1010.83 434.141 1010.37 434.911 1008.96 434.868C1007.77 434.832 1007.24 434.256 1007.24 433.097C1007.25 429.521 1007.25 425.952 1007.24 422.375C1007.24 421.245 1007.68 420.598 1008.91 420.554C1010.3 420.504 1010.83 421.202 1010.81 422.505C1010.79 424.289 1010.8 426.074 1010.8 427.866Z" fill="#C9D3D2"/>
<path d="M1079.78 466.646C1079.78 468.431 1079.8 470.215 1079.78 472C1079.78 472.928 1079.47 473.634 1078.36 473.626C1077.25 473.612 1076.97 472.885 1076.97 471.971C1076.96 468.287 1076.96 464.595 1076.98 460.911C1076.99 460.126 1077.33 459.536 1078.22 459.471C1079.28 459.392 1079.77 459.961 1079.78 460.947C1079.8 462.839 1079.78 464.739 1079.78 466.646Z" fill="#C9D3D2"/>
<path d="M1085.57 446.972C1085.57 445.309 1085.56 443.64 1085.58 441.977C1085.59 440.984 1085.69 440.006 1087.06 440.042C1088.18 440.07 1088.41 440.833 1088.41 441.74C1088.42 445.309 1088.42 448.879 1088.41 452.448C1088.41 453.333 1088.23 454.139 1087.12 454.204C1085.77 454.283 1085.59 453.355 1085.58 452.333C1085.57 450.541 1085.57 448.756 1085.57 446.972Z" fill="#C9D3D2"/>
<path d="M1079.78 447.044C1079.78 448.943 1079.8 450.85 1079.77 452.75C1079.75 453.535 1079.42 454.132 1078.54 454.197C1077.49 454.276 1076.98 453.707 1076.98 452.721C1076.96 448.915 1076.96 445.108 1077.01 441.308C1077.01 440.488 1077.53 440.027 1078.39 440.042C1079.24 440.049 1079.73 440.524 1079.75 441.337C1079.8 443.237 1079.77 445.144 1079.77 447.044H1079.78Z" fill="#C9D3D2"/>
<path d="M1071.18 446.914C1071.18 448.699 1071.19 450.483 1071.17 452.268C1071.16 453.261 1071.06 454.24 1069.7 454.211C1068.59 454.182 1068.35 453.427 1068.34 452.52C1068.33 448.951 1068.32 445.381 1068.34 441.819C1068.34 440.934 1068.51 440.128 1069.63 440.056C1070.99 439.977 1071.17 440.898 1071.18 441.927C1071.19 443.582 1071.17 445.245 1071.18 446.914Z" fill="#C9D3D2"/>
<path d="M1036.68 486.824C1036.68 488.486 1036.69 490.156 1036.67 491.818C1036.65 492.811 1036.55 493.79 1035.18 493.747C1034.07 493.718 1033.83 492.955 1033.83 492.049C1033.82 488.479 1033.82 484.91 1033.83 481.348C1033.83 480.455 1034.01 479.657 1035.13 479.599C1036.48 479.527 1036.65 480.455 1036.67 481.477C1036.69 483.255 1036.68 485.039 1036.68 486.824Z" fill="#C9D3D2"/>
<path d="M1062.53 447.231C1062.53 449.015 1062.55 450.8 1062.53 452.585C1062.53 453.513 1062.22 454.218 1061.11 454.211C1060 454.197 1059.72 453.47 1059.71 452.556C1059.71 448.872 1059.71 445.18 1059.73 441.495C1059.74 440.711 1060.07 440.121 1060.97 440.056C1062.02 439.977 1062.51 440.546 1062.53 441.531C1062.55 443.424 1062.53 445.331 1062.53 447.231Z" fill="#C9D3D2"/>
<path d="M1051.09 446.993C1051.09 445.209 1051.08 443.424 1051.1 441.639C1051.11 440.704 1051.44 440.013 1052.55 440.042C1053.66 440.078 1053.91 440.819 1053.92 441.733C1053.93 445.302 1053.93 448.871 1053.92 452.441C1053.92 453.326 1053.77 454.139 1052.64 454.204C1051.3 454.29 1051.1 453.376 1051.09 452.347C1051.08 450.563 1051.08 448.778 1051.08 446.993C1051.08 446.993 1051.08 446.993 1051.09 446.993Z" fill="#C9D3D2"/>
<path d="M1042.45 446.957C1042.45 445.295 1042.44 443.625 1042.46 441.963C1042.47 440.963 1042.6 439.999 1043.96 440.049C1045.08 440.092 1045.29 440.862 1045.3 441.769C1045.31 445.338 1045.31 448.907 1045.3 452.47C1045.3 453.362 1045.1 454.153 1043.98 454.204C1042.62 454.269 1042.47 453.326 1042.47 452.311C1042.44 450.527 1042.45 448.742 1042.45 446.957Z" fill="#C9D3D2"/>
<path d="M1045.29 486.795C1045.29 488.58 1045.3 490.365 1045.28 492.149C1045.26 493.085 1044.93 493.776 1043.83 493.747C1042.73 493.718 1042.47 492.977 1042.47 492.063C1042.46 488.494 1042.45 484.924 1042.46 481.355C1042.46 480.47 1042.62 479.657 1043.74 479.585C1045.09 479.498 1045.29 480.405 1045.29 481.441C1045.3 483.226 1045.29 485.011 1045.29 486.795C1045.3 486.795 1045.29 486.795 1045.29 486.795Z" fill="#C9D3D2"/>
<path d="M1085.59 486.536C1085.59 484.752 1085.57 482.967 1085.59 481.182C1085.61 480.254 1085.93 479.556 1087.04 479.585C1088.15 479.614 1088.41 480.355 1088.41 481.262C1088.43 484.831 1088.43 488.4 1088.42 491.962C1088.42 492.84 1088.26 493.661 1087.14 493.74C1085.8 493.826 1085.59 492.919 1085.58 491.883C1085.57 490.098 1085.58 488.314 1085.58 486.529C1085.58 486.536 1085.59 486.536 1085.59 486.536Z" fill="#C9D3D2"/>
<path d="M1062.54 486.687C1062.54 488.472 1062.55 490.257 1062.53 492.041C1062.53 492.948 1062.3 493.704 1061.19 493.754C1060.1 493.805 1059.72 493.128 1059.72 492.185C1059.7 488.501 1059.7 484.809 1059.72 481.125C1059.72 480.168 1060.14 479.527 1061.22 479.592C1062.33 479.657 1062.52 480.441 1062.53 481.341C1062.55 483.118 1062.54 484.903 1062.54 486.687Z" fill="#C9D3D2"/>
<path d="M1088.43 427.499C1088.43 429.283 1088.44 431.068 1088.42 432.853C1088.41 433.846 1088.31 434.824 1086.95 434.796C1085.84 434.767 1085.59 434.011 1085.59 433.105C1085.58 429.535 1085.57 425.966 1085.59 422.404C1085.59 421.519 1085.76 420.713 1086.88 420.641C1088.23 420.562 1088.42 421.483 1088.43 422.512C1088.43 424.167 1088.43 425.836 1088.43 427.499Z" fill="#C9D3D2"/>
<path d="M1076.95 427.499C1076.95 425.836 1076.94 424.167 1076.96 422.505C1076.96 421.475 1077.15 420.554 1078.5 420.633C1079.62 420.698 1079.8 421.504 1079.8 422.397C1079.8 425.966 1079.8 429.535 1079.8 433.097C1079.8 434.004 1079.55 434.767 1078.44 434.788C1077.07 434.817 1076.97 433.839 1076.96 432.853C1076.93 431.068 1076.95 429.283 1076.95 427.499Z" fill="#C9D3D2"/>
<path d="M1071.17 486.903C1071.17 488.566 1071.18 490.235 1071.17 491.897C1071.16 492.934 1070.96 493.84 1069.61 493.747C1068.48 493.675 1068.34 492.855 1068.34 491.969C1068.33 488.4 1068.33 484.831 1068.35 481.262C1068.35 480.348 1068.61 479.606 1069.72 479.585C1070.83 479.556 1071.15 480.254 1071.16 481.19C1071.19 483.089 1071.17 484.996 1071.17 486.896C1071.16 486.903 1071.17 486.903 1071.17 486.903Z" fill="#C9D3D2"/>
<path d="M1079.8 486.824C1079.8 488.487 1079.82 490.156 1079.8 491.818C1079.78 492.811 1079.68 493.79 1078.31 493.747C1077.2 493.718 1076.96 492.955 1076.96 492.049C1076.95 488.479 1076.95 484.91 1076.96 481.348C1076.96 480.456 1077.14 479.657 1078.26 479.599C1079.61 479.527 1079.78 480.456 1079.8 481.477C1079.81 483.255 1079.8 485.04 1079.8 486.824Z" fill="#C9D3D2"/>
<path d="M1071.16 427.995C1071.15 429.78 1071.17 431.565 1071.14 433.349C1071.13 434.134 1070.8 434.724 1069.91 434.796C1068.86 434.875 1068.36 434.306 1068.35 433.321C1068.33 429.636 1068.33 425.944 1068.35 422.26C1068.35 421.332 1068.66 420.626 1069.77 420.634C1070.88 420.648 1071.16 421.375 1071.17 422.289C1071.17 424.189 1071.17 426.096 1071.16 427.995Z" fill="#C9D3D2"/>
<path d="M1062.53 427.787C1062.54 429.571 1062.55 431.356 1062.53 433.141C1062.53 434.054 1062.25 434.788 1061.14 434.796C1060.03 434.81 1059.72 434.098 1059.71 433.169C1059.7 429.485 1059.7 425.793 1059.72 422.109C1059.73 421.123 1060.23 420.554 1061.28 420.634C1062.17 420.698 1062.51 421.296 1062.51 422.08C1062.55 423.98 1062.53 425.88 1062.53 427.787Z" fill="#C9D3D2"/>
<path d="M1028.04 447.202C1028.05 448.987 1028.05 450.771 1028.04 452.556C1028.03 453.477 1027.75 454.197 1026.64 454.211C1025.53 454.225 1025.23 453.513 1025.23 452.585C1025.21 448.9 1025.21 445.209 1025.23 441.524C1025.24 440.538 1025.74 439.97 1026.79 440.049C1027.68 440.114 1028.02 440.711 1028.02 441.495C1028.05 443.395 1028.03 445.295 1028.04 447.202Z" fill="#C9D3D2"/>
<path d="M1028.04 466.668C1028.04 468.452 1028.05 470.237 1028.03 472.022C1028.02 472.957 1027.69 473.648 1026.58 473.619C1025.47 473.583 1025.22 472.842 1025.21 471.928C1025.2 468.359 1025.2 464.789 1025.2 461.22C1025.2 460.335 1025.36 459.522 1026.48 459.457C1027.83 459.371 1028.03 460.285 1028.04 461.314C1028.05 463.098 1028.04 464.883 1028.04 466.668C1028.04 466.668 1028.04 466.668 1028.04 466.668Z" fill="#C9D3D2"/>
<path d="M1053.92 427.736C1053.92 429.521 1053.92 431.305 1053.91 433.09C1053.9 433.997 1053.67 434.752 1052.56 434.796C1051.46 434.839 1051.1 434.155 1051.09 433.22C1051.08 429.535 1051.08 425.844 1051.09 422.159C1051.1 421.195 1051.52 420.562 1052.61 420.633C1053.72 420.705 1053.9 421.497 1053.91 422.389C1053.92 424.167 1053.92 425.951 1053.92 427.736Z" fill="#C9D3D2"/>
<path d="M1045.3 427.859C1045.3 429.521 1045.31 431.19 1045.29 432.853C1045.28 433.846 1045.18 434.824 1043.81 434.788C1042.7 434.76 1042.46 433.997 1042.46 433.09C1042.45 429.521 1042.45 425.952 1042.46 422.382C1042.46 421.497 1042.64 420.691 1043.75 420.626C1045.11 420.547 1045.29 421.475 1045.29 422.497C1045.31 424.296 1045.3 426.074 1045.3 427.859Z" fill="#C9D3D2"/>
<path d="M1036.68 427.916C1036.68 429.578 1036.68 431.248 1036.67 432.91C1036.66 433.932 1036.48 434.86 1035.13 434.789C1034.01 434.724 1033.83 433.918 1033.83 433.033C1033.83 429.463 1033.83 425.894 1033.83 422.325C1033.83 421.418 1034.07 420.655 1035.19 420.634C1036.55 420.598 1036.66 421.576 1036.67 422.569C1036.7 424.347 1036.68 426.132 1036.68 427.916Z" fill="#C9D3D2"/>
<path d="M1053.92 486.882C1053.92 488.551 1053.93 490.214 1053.92 491.883C1053.91 492.912 1053.72 493.833 1052.36 493.747C1051.24 493.675 1051.08 492.862 1051.08 491.977C1051.06 488.522 1051.05 485.075 1051.07 481.621C1051.07 480.657 1051.08 479.628 1052.45 479.585C1053.82 479.542 1053.91 480.535 1053.92 481.528C1053.95 483.312 1053.93 485.097 1053.92 486.882Z" fill="#C9D3D2"/>
<path d="M1025.2 427.549C1025.2 425.887 1025.18 424.217 1025.2 422.555C1025.22 421.555 1025.33 420.59 1026.7 420.634C1027.81 420.67 1028.04 421.44 1028.05 422.339C1028.05 425.908 1028.05 429.478 1028.05 433.04C1028.05 433.932 1027.85 434.724 1026.74 434.781C1025.38 434.853 1025.22 433.911 1025.21 432.896C1025.19 431.118 1025.2 429.334 1025.2 427.549Z" fill="#C9D3D2"/>
<path d="M1062.56 466.689C1062.56 468.352 1062.57 470.021 1062.55 471.683C1062.53 472.676 1062.43 473.655 1061.06 473.612C1059.95 473.583 1059.71 472.82 1059.71 471.914C1059.7 468.344 1059.7 464.775 1059.71 461.213C1059.71 460.321 1059.89 459.522 1061.01 459.464C1062.36 459.392 1062.53 460.321 1062.55 461.342C1062.56 463.12 1062.55 464.905 1062.56 466.689Z" fill="#C9D3D2"/>
<path d="M1088.42 408.35C1088.42 410.134 1088.43 411.919 1088.41 413.704C1088.41 414.618 1088.15 415.359 1087.04 415.38C1085.94 415.409 1085.6 414.711 1085.59 413.783C1085.57 410.213 1085.57 406.651 1085.58 403.082C1085.58 402.046 1085.8 401.139 1087.14 401.225C1088.26 401.297 1088.41 402.118 1088.42 403.003C1088.43 404.78 1088.42 406.565 1088.42 408.35Z" fill="#C9D3D2"/>
<path d="M1079.8 408.501C1079.8 410.163 1079.81 411.833 1079.8 413.495C1079.79 414.517 1079.62 415.445 1078.26 415.373C1077.14 415.308 1076.96 414.51 1076.96 413.624C1076.95 410.055 1076.95 406.486 1076.96 402.924C1076.96 402.017 1077.19 401.254 1078.31 401.225C1079.67 401.189 1079.78 402.161 1079.8 403.154C1079.82 404.939 1079.8 406.716 1079.8 408.501Z" fill="#C9D3D2"/>
<path d="M1053.92 466.696C1053.92 468.359 1053.94 470.028 1053.92 471.691C1053.9 472.691 1053.79 473.655 1052.42 473.612C1051.31 473.576 1051.08 472.806 1051.08 471.906C1051.07 468.337 1051.07 464.768 1051.08 461.206C1051.08 460.313 1051.27 459.522 1052.38 459.464C1053.74 459.392 1053.9 460.335 1053.91 461.35C1053.94 463.127 1053.92 464.912 1053.92 466.696Z" fill="#C9D3D2"/>
<path d="M1071.16 408.429C1071.16 410.214 1071.17 411.998 1071.15 413.783C1071.14 414.718 1070.81 415.409 1069.7 415.38C1068.6 415.352 1068.34 414.61 1068.34 413.696C1068.33 410.127 1068.32 406.558 1068.33 402.989C1068.33 402.103 1068.49 401.29 1069.61 401.218C1070.96 401.132 1071.16 402.039 1071.17 403.075C1071.17 404.86 1071.17 406.644 1071.17 408.429C1071.17 408.429 1071.17 408.429 1071.16 408.429Z" fill="#C9D3D2"/>
<path d="M1059.71 408.17C1059.71 406.385 1059.7 404.6 1059.72 402.816C1059.74 401.88 1060.07 401.189 1061.17 401.218C1062.28 401.254 1062.53 401.995 1062.54 402.909C1062.55 406.479 1062.56 410.048 1062.55 413.617C1062.55 414.502 1062.39 415.316 1061.27 415.38C1059.92 415.467 1059.72 414.553 1059.71 413.524C1059.7 411.739 1059.71 409.954 1059.71 408.17C1059.71 408.17 1059.71 408.17 1059.71 408.17Z" fill="#C9D3D2"/>
<path d="M1088.41 466.775C1088.41 468.56 1088.42 470.345 1088.4 472.129C1088.38 473.115 1087.92 473.698 1086.85 473.619C1085.97 473.554 1085.61 472.986 1085.6 472.194C1085.58 468.503 1085.58 464.818 1085.59 461.126C1085.59 460.213 1085.85 459.479 1086.97 459.45C1088.08 459.428 1088.4 460.126 1088.41 461.062C1088.43 462.969 1088.41 464.876 1088.41 466.775Z" fill="#C9D3D2"/>
<path d="M1053.91 408.407C1053.91 410.192 1053.92 411.977 1053.91 413.761C1053.9 414.69 1053.59 415.395 1052.49 415.388C1051.38 415.373 1051.1 414.646 1051.09 413.733C1051.08 410.048 1051.08 406.356 1051.1 402.672C1051.11 401.888 1051.45 401.297 1052.34 401.233C1053.4 401.154 1053.89 401.722 1053.9 402.708C1053.92 404.601 1053.9 406.5 1053.91 408.407Z" fill="#C9D3D2"/>
<path d="M1045.3 408.083C1045.3 409.868 1045.31 411.653 1045.29 413.437C1045.28 414.43 1045.18 415.409 1043.82 415.38C1042.71 415.352 1042.47 414.596 1042.46 413.689C1042.45 410.12 1042.44 406.551 1042.46 402.989C1042.46 402.103 1042.63 401.297 1043.75 401.225C1045.11 401.146 1045.29 402.067 1045.3 403.096C1045.31 404.759 1045.3 406.421 1045.3 408.083Z" fill="#C9D3D2"/>
<path d="M1036.66 408.371C1036.67 410.156 1036.68 411.941 1036.66 413.725C1036.65 414.639 1036.37 415.373 1035.27 415.38C1034.16 415.395 1033.85 414.682 1033.84 413.754C1033.83 410.07 1033.83 406.378 1033.85 402.693C1033.86 401.708 1034.35 401.139 1035.41 401.218C1036.29 401.283 1036.63 401.88 1036.64 402.665C1036.68 404.564 1036.65 406.471 1036.66 408.371Z" fill="#C9D3D2"/>
<path d="M1028.05 408.458C1028.05 410.12 1028.07 411.79 1028.05 413.452C1028.03 414.452 1027.92 415.416 1026.55 415.373C1025.43 415.337 1025.21 414.567 1025.2 413.668C1025.2 410.098 1025.2 406.529 1025.2 402.967C1025.2 402.075 1025.4 401.283 1026.51 401.226C1027.87 401.154 1028.03 402.096 1028.04 403.111C1028.07 404.896 1028.05 406.68 1028.05 408.458Z" fill="#C9D3D2"/>
<path d="M1036.68 447.274C1036.68 448.936 1036.69 450.606 1036.67 452.268C1036.65 453.261 1036.55 454.24 1035.18 454.197C1034.07 454.168 1033.83 453.405 1033.83 452.498C1033.82 448.929 1033.82 445.36 1033.83 441.798C1033.83 440.905 1034.01 440.106 1035.13 440.049C1036.48 439.977 1036.65 440.905 1036.67 441.927C1036.69 443.712 1036.68 445.496 1036.68 447.274Z" fill="#C9D3D2"/>
<path d="M1042.45 466.387C1042.45 464.725 1042.44 463.055 1042.46 461.393C1042.47 460.4 1042.57 459.421 1043.95 459.464C1045.06 459.493 1045.29 460.256 1045.3 461.162C1045.31 464.732 1045.31 468.301 1045.3 471.863C1045.3 472.756 1045.12 473.554 1044 473.612C1042.65 473.684 1042.47 472.756 1042.46 471.734C1042.44 469.949 1042.45 468.172 1042.45 466.387Z" fill="#C9D3D2"/>
<path d="M1036.66 466.668C1036.66 468.452 1036.68 470.237 1036.65 472.022C1036.64 472.95 1036.32 473.648 1035.21 473.619C1034.1 473.59 1033.84 472.849 1033.83 471.942C1033.82 468.373 1033.82 464.804 1033.83 461.242C1033.83 460.364 1033.99 459.543 1035.11 459.464C1036.45 459.378 1036.66 460.285 1036.67 461.321C1036.68 463.106 1036.67 464.89 1036.67 466.675C1036.67 466.668 1036.67 466.668 1036.66 466.668Z" fill="#C9D3D2"/>
<path d="M1071.17 466.545C1071.17 468.33 1071.17 470.115 1071.16 471.899C1071.15 472.799 1070.94 473.569 1069.82 473.619C1068.73 473.669 1068.35 473 1068.34 472.058C1068.32 468.373 1068.32 464.681 1068.34 460.997C1068.35 460.04 1068.75 459.392 1069.84 459.457C1070.96 459.522 1071.15 460.299 1071.16 461.198C1071.18 462.976 1071.17 464.761 1071.17 466.545Z" fill="#C9D3D2"/>
<path d="M1082.69 232.698C1082.69 231.273 1082.79 229.841 1082.67 228.423C1082.47 226.142 1083.59 225.602 1085.64 225.631C1087.5 225.66 1088.54 226.085 1088.46 228.222C1088.34 231.309 1088.34 234.403 1088.46 237.483C1088.54 239.599 1087.54 240.074 1085.66 240.096C1083.64 240.117 1082.47 239.642 1082.66 237.332C1082.8 235.799 1082.69 234.245 1082.69 232.698Z" fill="#D9E0E0"/>
<path d="M1100.66 232.777C1100.66 234.087 1100.57 235.396 1100.68 236.699C1100.88 238.995 1100.3 240.168 1097.61 240.139C1094.9 240.11 1094.84 238.656 1094.89 236.706C1094.96 233.856 1095 231 1094.89 228.157C1094.79 225.948 1095.99 225.653 1097.78 225.653C1099.56 225.653 1100.83 225.926 1100.67 228.15C1100.56 229.683 1100.65 231.23 1100.66 232.777Z" fill="#D9E0E0"/>
<path d="M1112.87 232.885C1112.87 234.195 1112.8 235.504 1112.89 236.807C1113.03 238.872 1112.66 240.146 1110.07 240.132C1107.65 240.117 1106.99 239.182 1107.09 236.951C1107.23 234.108 1107.24 231.244 1107.09 228.402C1106.98 226.085 1108.09 225.624 1110.11 225.638C1112.01 225.653 1113.04 226.157 1112.89 228.258C1112.78 229.791 1112.87 231.338 1112.87 232.885Z" fill="#D9E0E0"/>
<path d="M1126.53 232.842C1126.53 234.152 1126.47 235.461 1126.54 236.764C1126.66 238.779 1126.41 240.11 1123.77 240.139C1121.01 240.175 1120.66 238.865 1120.75 236.634C1120.87 233.907 1120.89 231.165 1120.75 228.438C1120.63 226.171 1121.65 225.646 1123.72 225.624C1125.92 225.595 1126.72 226.437 1126.55 228.567C1126.43 229.978 1126.53 231.417 1126.53 232.842Z" fill="#D9E0E0"/>
<path d="M1070.47 232.777C1070.47 231.467 1070.55 230.158 1070.45 228.855C1070.27 226.696 1070.84 225.603 1073.35 225.603C1075.86 225.603 1076.34 226.711 1076.24 228.862C1076.12 231.59 1076.09 234.332 1076.25 237.059C1076.39 239.426 1075.45 240.124 1073.16 240.117C1070.82 240.117 1070.32 239.038 1070.45 237.052C1070.55 235.627 1070.47 234.202 1070.47 232.777Z" fill="#D9E0E0"/>
<path d="M1076.22 276.631C1076.22 277.94 1076.13 279.25 1076.24 280.553C1076.44 282.848 1075.86 284.021 1073.17 283.992C1070.46 283.964 1070.4 282.51 1070.45 280.56C1070.52 277.71 1070.56 274.853 1070.45 272.011C1070.35 269.802 1071.55 269.506 1073.34 269.506C1075.12 269.506 1076.39 269.78 1076.23 272.004C1076.13 273.536 1076.22 275.091 1076.22 276.631Z" fill="#D9E0E0"/>
<path d="M1088.43 276.89C1088.43 278.315 1088.33 279.747 1088.46 281.164C1088.65 283.445 1087.53 283.985 1085.49 283.956C1083.62 283.928 1082.58 283.503 1082.67 281.366C1082.78 278.279 1082.78 275.184 1082.67 272.104C1082.59 269.989 1083.58 269.514 1085.46 269.492C1087.49 269.47 1088.66 269.945 1088.46 272.255C1088.33 273.788 1088.43 275.343 1088.43 276.89Z" fill="#D9E0E0"/>
<path d="M1076.22 254.956C1076.22 256.143 1076.13 257.338 1076.24 258.518C1076.45 260.756 1075.68 261.677 1073.27 261.691C1070.67 261.713 1070.37 260.425 1070.45 258.359C1070.55 255.992 1070.55 253.61 1070.45 251.235C1070.37 249.206 1070.63 247.911 1073.24 247.875C1076.02 247.839 1076.41 249.177 1076.24 251.386C1076.14 252.581 1076.22 253.768 1076.22 254.956Z" fill="#D9E0E0"/>
<path d="M1088.44 254.697C1088.44 256.006 1088.33 257.316 1088.46 258.611C1088.69 260.965 1087.69 261.691 1085.39 261.684C1083.07 261.677 1082.59 260.634 1082.67 258.626C1082.77 255.898 1082.79 253.164 1082.67 250.437C1082.57 248.227 1083.77 247.925 1085.56 247.932C1087.33 247.939 1088.62 248.199 1088.46 250.422C1088.35 251.84 1088.44 253.272 1088.44 254.697Z" fill="#D9E0E0"/>
<path d="M1094.91 254.704C1094.91 253.516 1094.99 252.322 1094.89 251.142C1094.71 248.983 1095.28 247.896 1097.79 247.889C1100.3 247.889 1100.79 248.997 1100.68 251.149C1100.56 253.639 1100.53 256.143 1100.69 258.626C1100.84 260.993 1099.89 261.691 1097.6 261.684C1095.26 261.684 1094.75 260.605 1094.89 258.619C1094.98 257.323 1094.91 256.006 1094.91 254.704Z" fill="#D9E0E0"/>
<path d="M1112.88 254.97C1112.88 256.035 1112.8 257.115 1112.89 258.172C1113.06 260.367 1112.7 261.735 1109.91 261.699C1107.31 261.663 1107.02 260.396 1107.11 258.352C1107.2 255.985 1107.2 253.603 1107.11 251.228C1107.03 249.184 1107.31 247.918 1109.91 247.882C1112.7 247.846 1113.06 249.213 1112.89 251.408C1112.8 252.595 1112.88 253.783 1112.88 254.97Z" fill="#D9E0E0"/>
<path d="M1342.15 460.824C1342.15 458.795 1342.22 456.766 1342.13 454.744C1342.05 452.743 1342.22 451.383 1344.89 451.354C1347.66 451.325 1347.99 452.606 1347.93 454.844C1347.81 459.256 1347.8 463.667 1347.94 468.078C1348.01 470.352 1347.05 470.885 1344.97 470.906C1342.77 470.928 1342 470.136 1342.12 467.977C1342.25 465.603 1342.15 463.213 1342.15 460.824Z" fill="#C9D3D2"/>
<path d="M1332.8 461.285C1332.8 463.552 1332.69 465.826 1332.83 468.078C1332.98 470.359 1331.95 470.877 1329.87 470.899C1327.66 470.928 1326.96 470.122 1327.01 467.97C1327.14 463.321 1327.13 458.673 1327.02 454.024C1326.97 451.923 1327.88 451.397 1329.8 451.39C1331.8 451.383 1332.98 451.779 1332.83 454.132C1332.69 456.514 1332.8 458.903 1332.8 461.285Z" fill="#C9D3D2"/>
<path d="M1361.55 460.947C1361.55 463.329 1361.47 465.718 1361.57 468.1C1361.66 470.028 1361.07 470.935 1358.96 470.892C1357.08 470.856 1356.47 470.122 1356.5 468.316C1356.57 463.545 1356.57 458.773 1356.5 454.002C1356.47 452.239 1357 451.419 1358.92 451.39C1360.98 451.361 1361.66 452.182 1361.57 454.146C1361.47 456.413 1361.55 458.68 1361.55 460.947Z" fill="#C9D3D2"/>
<path d="M746.296 366.202C746.296 367.627 746.289 369.044 746.296 370.469C746.303 371.836 745.562 372.311 744.282 372.34C742.872 372.369 742.002 371.93 742.009 370.354C742.031 367.389 742.031 364.424 742.002 361.467C741.988 359.927 742.764 359.408 744.21 359.408C745.735 359.408 746.346 360.106 746.31 361.575C746.274 363.114 746.303 364.654 746.303 366.194C746.31 366.202 746.303 366.202 746.296 366.202Z" fill="#D2DAD9"/>
<path d="M746.311 386.768C746.311 388.193 746.282 389.611 746.318 391.036C746.361 392.511 745.735 393.195 744.218 393.202C742.765 393.202 741.995 392.676 742.009 391.144C742.038 388.179 742.038 385.214 742.017 382.256C742.002 380.673 742.88 380.249 744.29 380.277C745.577 380.306 746.311 380.788 746.304 382.156C746.296 383.696 746.304 385.236 746.304 386.776C746.304 386.768 746.311 386.768 746.311 386.768Z" fill="#D2DAD9"/>
<path d="M746.303 407.544C746.303 409.084 746.296 410.624 746.303 412.171C746.31 413.538 745.577 414.02 744.296 414.049C742.894 414.078 742.009 413.66 742.023 412.077C742.045 409.112 742.045 406.148 742.016 403.183C742.002 401.65 742.764 401.117 744.217 401.117C745.735 401.117 746.361 401.801 746.325 403.276C746.289 404.701 746.318 406.119 746.318 407.544C746.31 407.544 746.303 407.544 746.303 407.544Z" fill="#D2DAD9"/>
<path d="M721.143 365.935C721.143 367.475 721.136 369.015 721.143 370.563C721.143 371.721 720.56 372.297 719.402 372.311C718.258 372.318 717.611 371.808 717.611 370.627C717.597 367.547 717.604 364.46 717.59 361.38C717.582 360.071 718.151 359.401 719.524 359.459C720.754 359.509 721.15 360.229 721.157 361.323C721.15 362.855 721.143 364.395 721.143 365.935Z" fill="#D2DAD9"/>
<path d="M732.63 365.979C732.637 367.519 732.637 369.059 732.637 370.606C732.63 371.779 732.004 372.318 730.861 372.311C729.71 372.311 729.098 371.757 729.098 370.584C729.098 367.382 729.091 364.179 729.12 360.977C729.127 359.984 729.703 359.495 730.702 359.459C731.803 359.416 732.594 359.768 732.623 360.999C732.652 362.654 732.63 364.316 732.63 365.979Z" fill="#D2DAD9"/>
<path d="M753.54 365.993C753.54 364.331 753.518 362.675 753.554 361.013C753.576 359.79 754.353 359.416 755.453 359.452C756.439 359.488 757.043 359.955 757.05 360.956C757.079 364.158 757.072 367.36 757.072 370.563C757.072 371.728 756.489 372.297 755.331 372.304C754.187 372.311 753.547 371.793 753.54 370.613C753.533 369.08 753.54 367.533 753.54 365.993Z" fill="#D2DAD9"/>
<path d="M766.479 365.612C766.486 364.072 766.458 362.524 766.494 360.984C766.522 359.754 767.321 359.416 768.421 359.452C769.421 359.488 769.989 359.991 769.997 360.977C770.025 364.179 770.011 367.382 770.018 370.584C770.018 371.757 769.4 372.304 768.249 372.304C767.098 372.304 766.479 371.764 766.479 370.591C766.472 368.936 766.472 367.274 766.479 365.612Z" fill="#D2DAD9"/>
<path d="M777.24 365.698C777.24 364.273 777.247 362.848 777.24 361.431C777.233 360.157 777.722 359.408 779.117 359.452C780.311 359.495 780.8 360.128 780.8 361.258C780.8 364.338 780.793 367.425 780.8 370.505C780.8 371.642 780.297 372.268 779.11 372.304C777.707 372.347 777.233 371.584 777.24 370.318C777.247 368.778 777.24 367.238 777.24 365.698Z" fill="#D2DAD9"/>
<path d="M717.583 386.545C717.583 385.12 717.59 383.696 717.583 382.278C717.576 381.004 718.065 380.256 719.46 380.299C720.654 380.342 721.143 380.975 721.143 382.105C721.143 385.185 721.136 388.272 721.143 391.352C721.143 392.489 720.64 393.115 719.453 393.151C718.05 393.194 717.576 392.432 717.583 391.165C717.59 389.632 717.583 388.092 717.583 386.545Z" fill="#D2DAD9"/>
<path d="M732.63 386.639C732.63 388.301 732.659 389.956 732.623 391.619C732.594 392.856 731.789 393.187 730.695 393.144C729.688 393.108 729.134 392.604 729.127 391.611C729.099 388.409 729.113 385.207 729.106 382.004C729.106 380.831 729.731 380.285 730.875 380.292C732.026 380.292 732.637 380.839 732.645 382.012C732.645 383.552 732.645 385.092 732.645 386.639C732.637 386.639 732.63 386.639 732.63 386.639Z" fill="#D2DAD9"/>
<path d="M757.064 386.668C757.064 388.33 757.086 389.985 757.057 391.647C757.035 392.648 756.445 393.115 755.46 393.151C754.352 393.187 753.568 392.813 753.561 391.59C753.532 388.387 753.54 385.185 753.547 381.983C753.547 380.803 754.201 380.285 755.338 380.292C756.496 380.299 757.078 380.875 757.078 382.04C757.078 383.58 757.078 385.12 757.078 386.668C757.071 386.668 757.064 386.668 757.064 386.668Z" fill="#D2DAD9"/>
<path d="M780.808 386.912C780.808 388.337 780.801 389.762 780.808 391.18C780.815 392.453 780.326 393.202 778.931 393.158C777.737 393.115 777.247 392.482 777.247 391.352C777.247 388.272 777.255 385.185 777.247 382.105C777.247 380.968 777.751 380.342 778.938 380.306C780.34 380.263 780.815 381.026 780.808 382.292C780.801 383.825 780.808 385.372 780.808 386.912Z" fill="#D2DAD9"/>
<path d="M721.129 407.493C721.129 409.156 721.158 410.811 721.122 412.473C721.093 413.704 720.287 414.042 719.194 414.006C718.194 413.97 717.633 413.466 717.619 412.473C717.59 409.271 717.604 406.069 717.597 402.866C717.597 401.693 718.216 401.146 719.367 401.146C720.51 401.146 721.136 401.693 721.136 402.866C721.136 404.406 721.136 405.946 721.136 407.493H721.129Z" fill="#D2DAD9"/>
<path d="M732.637 407.695C732.637 409.235 732.644 410.775 732.637 412.322C732.63 413.502 731.982 414.02 730.846 414.013C729.688 414.006 729.105 413.43 729.105 412.264C729.105 409.185 729.098 406.097 729.098 403.017C729.098 401.924 729.494 401.204 730.723 401.154C732.09 401.096 732.666 401.765 732.658 403.075C732.651 404.615 732.658 406.155 732.658 407.702C732.644 407.695 732.637 407.695 732.637 407.695Z" fill="#D2DAD9"/>
<path d="M757.086 407.45C757.086 408.99 757.078 410.537 757.086 412.077C757.093 413.38 756.539 414.064 755.158 414.006C753.935 413.956 753.518 413.25 753.518 412.149C753.518 409.069 753.525 405.982 753.525 402.902C753.525 401.744 754.093 401.161 755.259 401.146C756.402 401.132 757.05 401.643 757.057 402.823C757.071 404.363 757.057 405.903 757.057 407.45C757.078 407.45 757.086 407.45 757.086 407.45Z" fill="#D2DAD9"/>
<path d="M770.018 407.573C770.018 409.113 770.018 410.653 770.018 412.2C770.018 413.329 769.529 413.977 768.335 414.006C767.205 414.028 766.493 413.581 766.486 412.387C766.465 409.184 766.472 405.982 766.486 402.78C766.493 401.585 767.198 401.125 768.328 401.154C769.522 401.175 770.025 401.816 770.018 402.953C770.011 404.493 770.018 406.033 770.018 407.573Z" fill="#D2DAD9"/>
<path d="M770.004 386.646C770.004 388.308 770.033 389.971 769.997 391.626C769.968 392.856 769.162 393.195 768.069 393.151C767.062 393.115 766.508 392.612 766.501 391.619C766.472 388.416 766.487 385.214 766.487 382.012C766.487 380.839 767.112 380.292 768.256 380.299C769.407 380.299 770.018 380.846 770.025 382.019C770.025 383.559 770.025 385.106 770.025 386.646C770.011 386.646 770.004 386.646 770.004 386.646Z" fill="#D2DAD9"/>
<path d="M777.24 407.407C777.24 405.982 777.247 404.557 777.24 403.14C777.233 401.873 777.707 401.103 779.11 401.146C780.297 401.182 780.807 401.808 780.807 402.945C780.807 406.025 780.807 409.112 780.807 412.192C780.807 413.329 780.325 413.963 779.131 414.006C777.736 414.056 777.24 413.308 777.247 412.034C777.247 410.494 777.24 408.954 777.24 407.407Z" fill="#D2DAD9"/>
</g>
</g>
<defs>
<linearGradient id="paint0_linear_64_5243" x1="-14.5" y1="651" x2="1442.89" y2="24.2519" gradientUnits="userSpaceOnUse">
<stop stop-color="#3A5457"/>
<stop offset="1"/>
</linearGradient>
<clipPath id="clip0_64_5243">
<rect width="1440" height="651" fill="white"/>
</clipPath>
<clipPath id="clip1_64_5243">
<rect width="1116" height="472" fill="white" transform="translate(471 179)"/>
</clipPath>
</defs>
</svg>
