<svg width="969" height="472" viewBox="0 0 969 472" fill="none" xmlns="http://www.w3.org/2000/svg">
<g clip-path="url(#clip0_64_5245)">
<path d="M1463.47 449.956C1469.18 449.978 1474.89 450.114 1480.6 449.97C1482.99 449.913 1483.59 450.712 1483.55 453C1483.42 462.038 1483.47 471.084 1483.46 480.13C1482.38 481.274 1480.96 481.468 1479.5 481.526C1477.83 481.598 1476.15 481.569 1474.48 481.569C986.008 481.569 497.546 481.569 9.07727 481.533C6.0563 481.533 2.79798 482.425 0.0934917 480.13C0.0791061 470.616 0.129456 461.096 -1.44632e-05 451.575C-0.0287856 449.301 0.539444 448.459 2.94902 448.531C8.17817 448.689 13.4145 448.538 18.6437 448.517C21.5711 446.488 24.9014 447.409 28.059 447.344C34.6836 447.2 34.6836 447.301 34.6979 440.659C34.7051 437.672 34.6692 434.679 34.7267 431.692C34.7555 430.238 34.9137 428.821 35.9135 427.655C35.9351 421.222 36.0646 414.788 35.9279 408.362C35.8776 405.951 36.6975 405.39 38.9705 405.404C48.7311 405.484 58.4988 405.39 68.2594 405.354C69.5326 404.282 71.0646 404.174 72.6327 404.174C76.9339 404.181 77.9769 405.239 78.0632 409.672C78.502 422.481 78.1567 435.297 78.2574 448.114C78.3078 454.461 78.279 454.468 84.5151 454.475C89.6652 454.482 94.8152 454.497 99.9652 454.468C104.885 454.439 105.072 454.281 105.094 449.46C105.137 440.119 105.079 430.771 105.122 421.43C105.151 414.99 105.906 414.241 112.394 414.22C122.212 414.191 132.031 414.234 141.849 414.198C146.596 414.177 146.747 414.025 146.783 409.406C146.826 403.533 146.776 397.669 146.805 391.796C146.812 390.005 146.761 388.177 148.035 386.68C148.056 376.936 148.286 367.186 147.999 357.456C147.883 353.599 149.121 352.383 152.71 352.959C153.285 353.052 153.897 352.93 154.486 352.908C155.983 351.635 157.802 351.663 159.601 351.663C170.253 351.635 180.906 351.613 191.558 351.671C197.284 351.706 198.269 352.664 198.283 358.385C198.348 379.7 198.305 401.015 198.312 422.323C198.312 423.28 198.312 424.237 198.312 425.194C198.334 431.419 198.341 431.44 204.412 431.447C218.416 431.462 232.42 431.462 246.425 431.447C252.402 431.44 252.423 431.426 252.431 425.539C252.438 394.524 252.431 363.515 252.438 332.5C252.438 323.965 252.79 323.62 261.328 323.605C262.767 323.605 264.205 323.533 265.636 323.605C267.953 323.721 269.571 323.138 269.931 320.475C270.24 318.201 271.93 317.323 274.052 317.244C277.519 317.107 280.986 316.963 284.453 317.337C286.352 317.172 288.251 317.136 290.157 317.251C292.43 317.388 294.127 318.287 294.436 320.72C294.724 322.986 296.055 323.533 298.112 323.663C304.247 324.059 304.614 324.519 304.65 330.773C304.686 337.213 304.708 343.647 304.636 350.087C304.607 352.836 305.671 353.973 308.426 353.865C311.282 353.75 314.145 353.815 317.007 353.865C318.568 353.887 320.122 353.952 321.395 355.038C329.249 355.046 337.104 355.06 344.966 355.067C346.958 353.506 349.245 353.765 351.511 354.052C353.417 354.297 354.546 355.391 354.633 357.377C354.712 359.27 353.978 360.925 352.015 361.069C348.015 361.364 347.735 363.803 347.764 366.998C347.871 379.218 347.785 391.437 347.821 403.656C347.836 408.161 348.066 408.369 352.439 408.441C355.309 408.484 358.186 408.42 361.056 408.441C363.437 408.456 364.638 407.484 364.552 405.03C364.516 403.958 364.573 402.879 364.573 401.799C364.573 357.24 364.573 312.682 364.573 268.116C364.573 265.259 364.645 262.503 362.732 259.926C361.531 258.3 362.236 256.091 364.501 255.796C368.831 255.234 373.276 254.342 377.477 256.566C382.821 256.587 388.165 256.587 393.51 256.659C394.358 256.674 395.632 256.163 395.919 257.444C396.149 258.465 396.552 259.61 394.876 260.344C392.884 261.214 394.013 263.294 394.028 264.777C394.049 266.64 395.79 265.921 396.811 265.942C399.659 266.014 402.508 265.914 405.356 265.878C406.737 264.705 408.42 264.661 410.096 264.654C417.253 264.618 424.41 264.582 431.567 264.669C436.479 264.726 437.601 265.741 437.616 270.505C437.645 279.924 437.925 289.352 437.465 298.764C437.587 300.434 437.623 302.103 437.623 303.78C437.609 353.002 437.616 402.231 437.616 451.453C437.616 458.081 437.623 458.088 444.355 458.088C450.225 458.088 456.094 457.937 461.956 458.145C465.294 458.26 466.869 457.044 467.746 453.806C472.033 437.967 476.212 422.1 480.6 406.297C480.888 405.26 481.182 404.217 481.456 403.181C482.312 399.95 484.369 398.446 487.728 398.439C494.309 398.424 500.898 398.46 507.479 398.417C512.521 398.381 512.636 398.273 512.651 393.106C512.68 381.729 512.622 370.352 512.68 358.975C512.708 353.347 513.579 352.484 519.132 352.426C526.073 352.361 533.021 352.462 539.962 352.383C543.932 352.34 544.191 352.045 544.27 348.022C544.328 345.266 544.292 342.51 544.277 339.761C544.27 337.94 544.019 336.379 542.501 334.939C540.501 333.04 540.998 330.989 543.709 330.514C547.047 329.924 547.176 327.873 547.176 325.332C547.162 318.143 547.09 310.962 547.219 303.773C547.255 301.866 546.737 298.894 549.399 298.829C552.427 298.757 551.801 301.887 551.844 303.859C552.003 310.681 551.873 317.51 551.923 324.339C551.938 325.865 551.636 327.455 552.463 328.859C552.779 328.945 553.017 328.916 553.168 328.736C554.124 327.621 553.837 325.397 555.872 325.311C558.001 325.225 557.98 327.247 558.548 328.6C559.138 330.003 560.368 329.988 561.555 330.06C564.187 330.219 566.827 329.967 569.452 330.262C570.776 330.406 572.157 330.65 572.646 332.147C573.077 333.457 572.473 334.522 571.43 335.263C570.064 336.235 569.949 337.631 569.905 339.092C569.833 341.725 569.963 344.366 569.855 346.993C569.733 349.965 569.941 352.484 573.789 352.887C575.422 353.059 575.954 354.614 576.17 356.111C576.393 357.658 576.343 359.219 576.343 360.774C576.35 376.584 576.328 392.394 576.357 408.204C576.364 413.306 576.551 413.493 581.579 413.507C592.714 413.536 603.848 413.536 614.982 413.507C620.399 413.493 620.478 413.407 620.478 407.772C620.492 388.968 620.485 370.165 620.485 351.361C620.485 350.167 620.471 348.965 620.499 347.77C620.643 342.495 621.585 341.632 627.009 341.783C639.891 341.337 652.781 341.56 665.663 341.668C669.288 341.697 670.424 342.855 670.453 346.496C670.554 358.19 670.791 369.891 670.345 381.578C670.727 386.594 670.504 391.617 670.518 396.639C670.554 415.544 670.504 434.441 670.547 453.345C670.554 457.534 674.373 459.685 678.078 457.706C678.933 457.246 679.192 456.512 679.272 455.655C679.415 454.223 679.387 452.784 679.387 451.352C679.387 429.821 679.387 408.283 679.387 386.752C679.387 385.075 679.365 383.406 679.581 381.736C679.408 380.304 679.379 378.872 679.379 377.433C679.394 334.824 679.387 292.216 679.387 249.607C679.387 249.01 679.387 248.412 679.387 247.815C679.437 240.784 681.782 238.82 688.78 240.554C691.391 241.202 694.024 241.965 696.585 242.871C698.275 242.425 699.951 241.907 701.663 241.54C704.475 240.943 707.474 240.648 706.633 236.452C706.417 235.366 707.251 235.063 708.215 235.071C710.244 235.085 712.279 235.056 714.308 235.085C714.761 235.092 715.595 235.251 715.617 235.416C716.17 240.072 719.069 236.877 720.817 236.841C722.651 236.805 724.471 236.049 726.298 235.632C729.563 234.898 732.908 234.293 731.786 229.544C731.513 228.371 732.232 227.81 733.448 227.86C734.519 227.903 735.613 227.975 736.67 227.838C739.705 227.457 741.957 227.896 741.115 231.912C746.028 230.746 750.696 229.63 755.364 228.522C756.522 227.198 756.119 225.564 756.184 224.046C756.242 222.708 756.673 221.599 758.04 221.326C761.219 220.685 764.528 220.016 767.304 222.326C768.606 223.413 769.771 223.535 771.238 223.139C773.202 222.607 775.209 222.225 777.194 221.794C779.402 221.312 781.093 220.527 781.833 217.987C782.603 215.332 785.272 214.641 789.479 215.188C792.349 215.555 793.263 217.31 793.363 219.879C793.428 221.556 793.421 223.233 793.421 224.91C793.421 292.597 793.421 360.284 793.421 427.972C793.421 429.526 793.522 431.095 793.421 432.642C793.212 435.7 794.759 436.571 797.55 436.542C801.822 436.492 802.297 436.204 802.311 431.872C802.354 412.824 802.326 393.775 802.333 374.727C802.333 373.648 802.318 372.568 802.347 371.496C802.484 366.408 803.397 365.401 808.526 365.386C830.083 365.322 851.639 365.329 873.196 365.379C878.713 365.394 879.648 366.344 879.655 371.942C879.706 400.094 879.67 428.245 879.677 456.404C879.677 463.132 879.684 463.175 886.33 463.125C896.048 463.053 894.94 464.147 895.041 454.511C895.069 451.755 895.062 448.999 895.041 446.243C895.026 444.084 895.019 442.062 893.019 440.421C891.387 439.083 891.595 437.068 893.214 435.722C894.818 434.383 895.033 432.743 895.033 430.915C895.055 424.568 895.041 418.214 895.041 411.867C895.041 409.916 894.868 408.146 893.127 406.736C891.681 405.57 891.739 403.857 893.192 402.699C894.832 401.396 895.041 399.748 895.041 397.913C895.048 391.566 895.048 385.212 895.041 378.865C895.041 376.915 894.854 375.173 893.156 373.72C891.387 372.201 891.545 370.229 893.314 368.761C894.81 367.517 895.019 365.984 895.033 364.278C895.069 357.687 895.062 351.102 895.033 344.51C895.026 342.79 894.746 341.272 893.271 340.041C891.696 338.732 891.732 337.005 893.286 335.717C894.911 334.378 895.026 332.687 895.041 330.874C895.076 325.124 895.062 319.374 895.048 313.624C895.041 311.012 895.249 308.465 892.811 306.435C891.351 305.219 891.696 303.226 893.214 302.024C894.861 300.714 895.033 299.052 895.041 297.224C895.069 290.877 895.048 284.523 895.048 278.176C895.048 276.218 894.911 274.412 893.127 273.052C891.933 272.145 891.617 270.476 892.739 269.576C895.177 267.619 895.033 265.028 895.148 262.423C895.199 261.315 895.573 260.315 896.278 259.451C896.299 253.104 896.263 246.757 896.378 240.41C896.414 238.554 895.846 237.964 893.954 237.92C889.344 237.805 886.495 233.545 887.725 229.098C888.107 227.716 889.027 227.925 889.926 227.918C892.681 227.882 895.436 227.975 898.184 227.867C899.241 227.824 901.061 228.608 901.183 226.961C901.313 225.162 902.579 222.823 900.306 221.506C899.349 220.952 899.191 220.405 899.292 219.556C899.435 218.318 900.471 218.57 901.241 218.57C909.98 218.548 918.719 218.57 927.466 218.548C929.717 218.541 930.098 219.879 928.883 221.218C927.3 222.967 928.106 224.809 928.07 226.586C928.027 228.537 929.767 227.867 930.796 227.867C942.527 227.889 954.259 227.853 965.997 227.831C966.882 227.126 967.875 226.723 969.025 226.824C971.881 226.644 974.737 226.608 977.592 226.709C979.592 226.781 981.749 226.622 982.692 229.069C983.699 231.674 982.951 235.272 980.994 236.978C979.807 238.014 978.47 238.82 976.923 239.108C975.182 239.432 974.614 240.583 974.478 242.137C974.305 242.958 974.327 243.792 974.348 244.627C974.686 249.888 974.621 255.162 974.434 260.416C974.291 264.352 974.773 267.892 977.535 270.864C977.93 273.383 974.413 273.462 974.47 275.78C974.427 276.744 974.478 277.708 974.348 278.665C974.154 281.133 974.665 283.595 974.449 286.07C974.255 290.229 974.542 294.382 974.535 298.541C974.535 299.599 974.794 300.549 975.628 301.427C978.47 304.428 978.419 304.672 975.355 307.479C974.88 307.91 974.751 308.479 974.679 309.076C974.276 313.128 974.794 317.201 974.377 321.238C974.528 324.102 974.514 326.966 974.514 329.83C974.506 332.205 974.312 334.522 976.729 336.22C978.11 337.192 977.815 338.912 976.47 339.905C974.931 341.042 974.528 342.488 974.521 344.244C974.514 350.936 974.521 357.629 974.514 364.321C974.514 366.185 974.837 367.768 976.528 368.999C977.973 370.057 978.304 372.007 976.974 373.079C973.945 375.533 974.37 378.692 974.499 381.887C974.621 387.148 974.514 392.408 974.557 397.669C974.571 399.597 974.614 401.403 976.456 402.763C977.966 403.879 977.973 405.592 976.513 406.75C974.895 408.038 974.557 409.614 974.557 411.478C974.557 418.055 974.672 424.633 974.506 431.203C974.427 434.441 976.118 435.852 978.844 436.269C982.634 436.845 986.475 436.586 990.295 436.456C992.409 436.384 992.762 434.952 992.805 433.261C992.891 429.555 992.819 425.849 992.848 422.143C992.949 408.636 992.639 395.121 993.006 381.614C992.596 371.46 992.819 361.313 992.999 351.167C992.783 349.361 993.323 347.547 992.906 345.748C992.762 343.006 992.87 340.272 992.855 337.53C992.834 334.795 992.69 332.306 990.978 329.78C988.388 325.966 990.525 322.483 995.193 322.296C998.408 322.166 1001.62 322.217 1004.84 322.281C1009.38 322.634 1009.46 322.555 1009.6 318.172C1009.64 316.877 1009.63 315.582 1009.45 314.293C1009.38 313.221 1009.43 312.163 1009.45 311.098C1009.5 308.105 1010.87 306.442 1014.01 306.543C1015.12 306.781 1016.26 306.363 1017.37 306.651C1020.36 306.716 1021.23 308.644 1021.16 311.192C1021.1 313.214 1021.06 315.243 1021.04 317.258C1021.17 318.618 1020.67 320.079 1021.68 321.295C1025.47 322.936 1026.5 322.368 1026.65 318.453C1026.75 315.826 1026.51 313.185 1026.78 310.566C1027.11 307.378 1028.37 306.507 1032.31 306.522C1036.22 306.536 1037.37 307.407 1037.67 310.71C1037.84 312.617 1037.74 314.538 1037.75 316.452C1037.77 322.274 1037.77 322.274 1043.41 322.31C1044.61 322.317 1045.81 322.252 1047 322.44C1047.61 322.468 1048.23 322.447 1048.84 322.317C1050.45 321.907 1050.12 320.525 1050.3 319.41C1050.79 316.452 1050.43 313.473 1050.55 310.508C1050.64 308.083 1051.79 306.716 1054.28 306.709C1059.99 306.694 1065.68 306.14 1071.39 306.651C1072.04 306.651 1072.69 306.658 1073.34 306.622C1076.83 306.342 1080.33 306.457 1083.82 306.644C1084.93 306.536 1086.04 306.687 1087.16 306.601C1090.92 306.255 1094.69 306.442 1098.46 306.486C1101.4 306.522 1103.18 307.767 1103.01 310.976C1103.43 312.516 1102.92 314.063 1103.07 315.61C1103.11 315.848 1103.16 316.085 1103.16 316.323C1103.23 322.094 1102.82 322.332 1109.1 322.36C1111.59 322.375 1113.57 323.037 1113.79 326.102C1113.98 328.909 1113.17 330.866 1110.12 331.183C1107.88 331.413 1107.51 332.831 1107.49 334.695C1107.46 337.688 1107.57 340.682 1107.44 343.683C1107.12 345.439 1107.43 347.209 1107.35 348.972C1107.55 359.709 1107.76 370.445 1107.37 381.175C1107.49 388.227 1107.52 395.287 1107.38 402.346C1107.31 405.606 1108.67 407.311 1111.57 408.578C1121.33 412.824 1131.11 417.041 1140.8 421.452C1144.53 423.15 1144.57 423.107 1144.58 418.825C1144.62 406.261 1144.5 393.696 1144.63 381.132C1144.23 370.129 1144.41 359.126 1144.52 348.13C1144.56 344.309 1145.72 343.201 1149.55 343.143C1155.88 343.035 1162.22 342.834 1168.55 343.265C1171.16 342.999 1173.78 343.143 1176.39 343.1C1180.84 343.028 1181.09 342.841 1181.11 338.473C1181.16 327.398 1181.13 316.316 1181.13 305.241C1181.13 303.694 1181.1 302.146 1181.31 300.606C1180.92 290.481 1181.22 280.349 1181.14 270.224C1181.12 267.713 1180.91 265.345 1179.78 262.963C1178.05 259.3 1178.95 256.774 1182.42 254.659C1183.67 253.903 1183.8 252.874 1184.01 251.701C1184.88 246.8 1187.12 245.743 1191.83 247.973C1198.96 247.981 1206.11 247.995 1213.24 248.002C1216.05 246.002 1219.27 246.894 1222.31 246.8C1227.71 246.642 1227.71 246.728 1227.84 241.446C1227.99 235.366 1228.74 234.632 1234.73 234.553C1236.17 234.531 1237.61 234.459 1239.04 234.56C1242.44 234.804 1245.25 234.186 1246.15 230.285C1246.28 229.717 1246.65 229.055 1247.16 228.839C1251.43 226.997 1250.91 223.29 1250.85 219.714C1250.81 217.677 1250.59 215.648 1250.49 213.619C1250.41 211.676 1250.9 209.769 1253.26 209.819C1255.61 209.87 1256.08 211.813 1255.92 213.727C1255.65 217.073 1255.63 220.419 1255.61 223.773C1255.59 226.111 1256.49 227.155 1258.92 227.45C1262.64 227.896 1263.28 228.774 1263.45 232.581C1263.62 236.172 1263.48 239.77 1263.53 243.361C1263.55 245.282 1264.13 246.577 1266.25 246.865C1268.64 247.182 1269.77 248.743 1269.88 251.053C1269.97 253.018 1270.71 254.27 1272.64 255.184C1275.03 256.321 1275.8 259.631 1274.24 262.783C1273.01 265.295 1272.85 267.806 1272.85 270.44C1272.84 307.45 1272.85 344.46 1272.85 381.477C1272.85 381.837 1272.85 382.197 1272.85 382.557C1272.91 387.464 1273.06 387.644 1277.87 387.68C1283.38 387.723 1288.89 387.608 1294.39 387.731C1299.04 387.831 1300.08 388.832 1300.12 393.545C1300.22 406.721 1300.13 419.898 1300.16 433.074C1300.17 438.651 1300.25 438.73 1305.73 438.737C1317.35 438.752 1328.96 438.78 1340.58 438.723C1344.63 438.701 1344.96 438.399 1344.96 434.455C1345.01 400.317 1345 366.185 1344.98 332.047C1344.98 330.082 1344.46 328.42 1343.35 326.7C1340.69 322.569 1342.55 318.921 1347.32 318.748C1352.82 318.554 1358.33 318.669 1363.84 318.705C1365.34 318.712 1366.64 319.252 1367.93 319.907C1372.96 319.928 1377.99 319.856 1383.01 320.022C1385.19 320.094 1385.95 319.482 1385.87 317.222C1385.7 312.235 1385.82 307.234 1385.82 302.161C1387.8 302.391 1387.21 303.636 1387.22 304.406C1387.29 308.839 1387.38 313.272 1387.21 317.697C1387.11 320.533 1388.95 319.935 1390.54 319.971C1392.2 320.014 1393.87 320.367 1393.78 317.604C1393.61 311.976 1393.71 306.349 1393.75 300.714C1393.76 299.872 1393.31 298.527 1394.79 298.512C1396.31 298.498 1395.85 299.851 1395.86 300.693C1395.9 306.205 1395.99 311.717 1395.83 317.222C1395.77 319.496 1396.54 320.238 1398.7 319.993C1399.88 319.856 1401.12 319.806 1402.28 320.014C1403.52 320.23 1405.74 319.007 1405.76 321.159C1405.78 322.936 1407.72 325.879 1403.92 326.556C1402.74 326.765 1403.1 327.88 1403.1 328.635C1403.07 345.64 1403.1 362.652 1403.04 379.656C1403.04 381.477 1403.81 381.844 1405.41 381.823C1410.44 381.758 1415.47 381.945 1420.49 381.743C1423.36 381.628 1424.34 382.564 1424.75 385.464C1425.35 389.738 1425.37 394.142 1426.89 398.273C1427.95 399.518 1428.1 401.08 1428.33 402.591C1429.68 411.01 1430.98 419.437 1432.15 427.885C1433.05 433.067 1433.8 438.269 1434.54 443.472C1435.29 448.776 1435.36 448.841 1440.85 448.855C1446.71 448.877 1452.56 448.841 1458.41 448.869C1460.13 448.805 1461.97 448.682 1463.47 449.956Z" fill="#65817F"/>
<path d="M626.829 342.819C621.751 343.006 621.751 343.006 621.751 348.209C621.751 368.934 621.643 389.659 621.852 410.384C621.888 414.177 620.722 414.939 617.198 414.882C604.388 414.68 591.57 414.709 578.76 414.867C575.717 414.903 574.955 413.932 574.969 410.996C575.091 393.264 574.976 375.54 575.084 357.809C575.099 354.916 574.71 353.11 571.265 353.671C568.913 354.052 568.488 352.664 568.539 350.663C568.632 346.59 568.539 342.517 568.575 338.444C568.589 336.537 567.848 334.155 571.164 334.105C572.042 334.09 572.157 333.176 572.006 332.435C571.826 331.55 571.078 331.435 570.337 331.428C567.107 331.406 563.863 331.284 560.641 331.442C558.174 331.564 556.656 331.089 557.03 328.168C557.138 327.311 557.368 325.93 556.009 325.901C554.628 325.872 554.944 327.239 554.93 328.125C554.894 329.837 555.146 331.615 552.47 331.399C549.909 331.197 550.636 329.29 550.629 327.909C550.571 319.403 550.629 310.897 550.571 302.391C550.564 301.326 551.219 299.419 549.636 299.39C547.629 299.354 548.5 301.405 548.492 302.506C548.406 310.89 548.37 319.28 548.492 327.664C548.528 330.255 548.126 331.852 545.011 331.449C543.983 331.312 542.4 330.859 542.113 332.644C541.854 334.263 543.191 334.191 544.242 334.335C545.565 334.515 545.558 335.529 545.558 336.501C545.565 341.416 545.486 346.324 545.594 351.232C545.644 353.506 544.407 353.707 542.645 353.7C534.265 353.664 525.878 353.801 517.499 353.621C514.593 353.556 513.859 354.52 513.888 357.305C514.018 370.244 513.866 383.183 514.003 396.114C514.032 398.964 513.198 399.827 510.356 399.763C502.696 399.583 495.029 399.842 487.368 399.633C484.498 399.554 483.347 400.684 482.664 403.253C478.543 418.797 474.313 434.311 470.127 449.834C469.847 450.87 469.602 451.913 469.286 452.935C467.279 459.376 467.272 459.376 460.28 459.376C453.814 459.376 447.34 459.182 440.881 459.455C437.357 459.606 436.206 458.757 436.228 454.965C436.4 425.619 436.314 396.265 436.328 366.919C436.335 344.28 436.379 321.641 436.407 298.994C437.738 297.685 439.45 297.742 441.112 297.735C449.7 297.692 458.295 297.699 466.883 297.728C468.559 297.735 470.242 297.785 471.616 298.98C483.103 299.002 494.59 299.11 506.077 298.98C508.889 298.951 509.853 299.707 509.695 302.578C509.457 306.874 509.709 311.192 509.601 315.502C509.551 317.539 510.011 318.446 512.334 318.51C522.57 318.82 522.57 318.899 522.57 308.666C522.57 278.859 522.512 249.06 522.649 219.253C522.663 215.878 521.966 214.497 518.362 214.799C517.01 214.914 514.097 216.289 514.183 213.353C514.248 211.064 516.851 212.129 518.29 212.115C520.851 212.086 523.195 212.252 522.627 208.531C522.469 207.509 523.196 207.049 524.188 207.041C525.022 207.034 525.864 207.02 526.698 207.02C532.28 207.006 532.438 207.006 532.568 201.551C532.632 198.91 534.107 199.104 535.848 199.104C551.046 199.097 566.237 199.068 581.435 199.054C582.809 197.859 584.5 197.823 586.183 197.816C594.433 197.78 602.683 197.751 610.94 197.823C615.874 197.866 616.4 198.284 617.342 203.062C617.68 204.768 618.399 205.602 620.133 205.645C623.585 205.725 627.131 205.401 628.714 209.762C629.217 211.143 631.31 210.596 632.655 210.985C633.986 211.366 635.216 211.841 635.216 213.504C635.209 215.166 633.979 215.641 632.641 216.001C628.131 217.224 628.117 217.231 628.117 222.182C628.109 260.221 628.124 298.268 628.088 336.307C628.073 338.523 628.541 340.898 626.829 342.819Z" fill="#94A8A6"/>
<path d="M626.829 342.819C626.815 301.312 626.822 259.797 626.728 218.289C626.721 215.562 627.599 214.562 630.231 214.9C631.051 215.008 631.9 214.921 632.741 214.9C633.612 214.878 634.475 214.763 634.561 213.633C634.662 212.288 633.734 212.079 632.698 212.057C631.742 212.036 630.778 211.978 629.828 212.057C627.843 212.216 626.52 211.726 626.771 209.352C626.987 207.358 625.8 206.905 624.11 207.006C623.276 207.056 622.434 207.013 621.6 207.013C616.277 207.013 616.119 207.013 616.069 201.846C616.04 199.147 614.623 199.083 612.645 199.09C602.244 199.111 591.836 199.068 581.435 199.047C581.457 170.902 581.486 142.751 581.507 114.606C581.515 109.958 581.514 109.958 586.168 109.951C593.009 109.943 593.009 109.943 593.009 103.165C593.009 83.2815 593.009 63.3984 593.009 43.5153C593.009 38.773 593.009 38.773 597.576 38.773C602.604 38.773 607.639 38.6291 612.659 38.8306C615.428 38.9457 616.09 37.9311 616.061 35.3189C615.932 24.6613 615.989 13.9966 616.033 3.33901C616.04 1.95734 615.321 -0.115166 617.96 0.0143659C620.312 0.129505 619.564 2.04369 619.571 3.29583C619.629 13.9534 619.672 24.6181 619.55 35.2757C619.521 37.8231 620.075 38.8522 622.895 38.881C625.887 38.9098 626.138 37.5425 626.11 35.1606C626.009 27.1368 626.052 19.1131 626.095 11.0893C626.103 9.79399 625.484 7.95176 627.836 7.91578C630.188 7.8798 629.641 9.70044 629.649 11.0173C629.685 18.926 629.85 26.8346 629.584 34.7288C629.469 38.1758 630.677 38.9098 633.856 38.845C643.07 38.6579 652.299 38.8738 661.513 38.7227C664.239 38.6795 664.965 39.5574 664.936 42.2128C664.807 54.0721 664.951 65.9315 664.828 77.7836C664.8 80.439 665.548 81.6263 668.259 81.2018C670.928 80.7844 671.431 82.1948 671.395 84.5408C671.28 91.6075 671.554 98.6813 671.273 105.741C671.129 109.317 672.352 110.303 675.74 110.023C679.185 109.735 682.695 110.181 686.148 109.893C689.413 109.62 690.125 110.843 690.111 113.944C690.003 146.766 690.068 179.581 690.003 212.403C689.996 215.785 689.816 218.663 694.671 217.901C696.915 217.548 696.484 219.62 696.498 220.959C696.549 228.263 696.556 235.574 696.577 242.879C695.419 243.145 694.276 243.49 693.11 243.656C692.089 243.8 691.183 244.361 690.514 242.497C689.795 240.482 687.342 241.619 685.688 241.598C680.092 241.518 680.71 240.936 680.71 246.549C680.696 290.042 680.703 333.536 680.696 377.023C680.696 378.577 680.645 380.139 680.624 381.693C676.84 383.694 673.064 383.694 669.281 381.693C669.252 369.956 669.137 358.212 669.266 346.475C669.295 343.632 668.482 342.826 665.641 342.855C652.694 342.956 639.762 342.848 626.829 342.819Z" fill="#B4C2C1"/>
<path d="M896.235 259.408C896.256 261.804 896.285 264.201 896.299 266.597C896.314 268.058 896.486 269.605 894.278 269.591C893.278 269.584 892.724 270.109 892.804 271.174C892.868 272.088 893.494 272.412 894.271 272.404C896.148 272.39 896.314 273.563 896.314 275.038C896.285 283.429 896.292 291.813 896.306 300.203C896.306 301.506 896.17 302.643 894.472 302.643C893.3 302.643 892.732 303.226 892.732 304.413C892.732 305.579 893.228 306.219 894.429 306.227C896.407 306.234 896.306 307.644 896.306 308.99C896.306 317.258 896.292 325.527 896.314 333.795C896.314 335.227 896.227 336.472 894.321 336.465C893.336 336.458 892.746 336.947 892.811 338.019C892.868 338.926 893.465 339.286 894.249 339.279C896.429 339.257 896.321 340.747 896.321 342.236C896.314 350.382 896.299 358.536 896.328 366.682C896.335 368.25 896.256 369.589 894.156 369.567C893.098 369.553 892.753 370.301 892.753 371.258C892.753 372.172 892.969 373.043 894.048 373.036C896.055 373.022 896.342 374.173 896.328 375.828C896.285 384.096 896.299 392.365 896.314 400.633C896.314 402.037 896.292 403.339 894.35 403.325C893.379 403.318 892.753 403.764 892.811 404.85C892.854 405.743 893.415 406.146 894.213 406.138C896.364 406.11 896.321 407.556 896.314 409.067C896.299 417.213 896.292 425.367 896.314 433.513C896.321 435.053 896.306 436.449 894.177 436.42C893.127 436.406 892.76 437.111 892.739 438.082C892.71 439.219 893.134 439.953 894.364 439.946C896.314 439.939 896.306 441.263 896.306 442.659C896.292 449.013 896.249 455.36 896.328 461.715C896.357 463.715 895.659 464.499 893.624 464.449C889.675 464.348 885.704 464.219 881.77 464.485C878.67 464.694 878.274 463.283 878.289 460.686C878.368 441.515 878.332 422.344 878.332 403.166C878.332 392.142 878.26 381.117 878.382 370.093C878.411 367.473 877.727 366.567 874.973 366.574C852.337 366.675 829.694 366.689 807.058 366.559C804.03 366.545 803.527 367.668 803.534 370.323C803.62 391.293 803.505 412.262 803.656 433.232C803.685 436.708 803.03 438.09 799.182 437.91C792.097 437.571 792.083 437.823 792.083 430.555C792.083 360.694 792.09 290.841 792.054 220.98C792.054 219.512 792.903 217.296 791.256 216.72C788.818 215.871 786.041 216.094 783.466 216.67C782.567 216.871 782.632 218.109 782.776 218.894C783.243 221.484 781.675 222.168 779.625 222.585C776.712 223.183 773.806 223.823 770.908 224.499C769.102 224.917 767.203 226.442 766.556 222.887C766.29 221.419 764.024 222.218 762.672 222.146C759.457 221.974 755.81 221.348 756.795 226.723C756.961 227.615 756.22 228.241 755.342 228.536C755.378 219.074 755.422 209.611 755.429 200.148C755.429 198.37 755.299 196.787 757.91 196.916C760.543 197.046 759.716 194.866 759.723 193.52C759.773 178.062 759.845 162.612 759.68 147.155C759.644 143.895 760.464 142.729 763.823 142.974C767.872 143.269 771.972 142.895 776.029 143.096C778.647 143.226 779.287 142.211 779.201 139.786C779.035 135.238 779.28 130.676 779.107 126.135C779.014 123.645 779.776 122.839 782.323 122.853C789.22 122.896 789.22 122.774 789.22 115.887C789.22 113.729 789.278 111.57 789.206 109.418C789.134 107.259 789.026 105.374 792.198 105.546C794.025 105.647 793.507 103.863 793.514 102.783C793.558 94.8745 793.529 86.9659 793.55 79.0645C793.55 77.9563 793.299 76.7689 794.255 75.38C795.27 76.8553 794.96 78.165 794.96 79.3739C794.989 87.1602 794.975 94.9465 794.975 102.733C794.975 104.15 794.687 105.741 796.967 105.69C798.844 105.647 798.549 107.115 798.557 108.259C798.585 112.21 798.679 116.168 798.528 120.119C798.442 122.378 799.312 122.918 801.441 122.961C809.353 123.105 809.353 123.177 809.353 131.086C809.353 134.202 809.454 137.318 809.317 140.426C809.231 142.506 810.058 143.125 812.043 143.075C816.352 142.967 820.674 143.218 824.976 142.981C827.903 142.823 828.86 143.65 828.831 146.723C828.673 162.296 828.759 177.875 828.759 193.448C828.759 195.218 828.32 197.226 831.233 197.068C832.133 197.017 832.312 197.859 832.327 198.615C832.348 199.694 832.355 200.774 832.355 201.846C832.355 246.894 832.355 291.942 832.355 336.99C832.355 338.25 832.355 339.502 832.355 340.761C832.499 340.768 832.65 340.775 832.794 340.783C835.261 328.513 837.851 316.265 840.08 303.953C840.526 301.477 841.447 301.182 843.504 301.182C849.611 301.182 849.611 301.117 849.611 294.835C849.611 284.89 849.589 274.945 849.625 265C849.632 263.071 849.726 261.286 846.935 261.632C846.209 261.725 845.403 261.509 845.446 260.538C845.49 259.566 846.324 259.552 847.036 259.53C847.993 259.502 848.949 259.509 849.913 259.509C865.342 259.466 880.784 259.437 896.235 259.408Z" fill="#94A8A6"/>
<path d="M321.381 355.024C316.353 355.06 311.326 354.981 306.305 355.168C303.86 355.261 303.277 354.304 303.313 352.037C303.421 344.136 303.248 336.227 303.414 328.326C303.471 325.663 302.723 324.519 299.997 324.908C299.055 325.037 298.069 324.821 297.127 324.951C294.279 325.34 292.775 324.433 293.279 321.295C293.631 319.115 292.66 318.266 290.459 318.424C288.553 318.561 286.633 318.402 284.72 318.381C283.367 317.071 283.418 315.351 283.418 313.682C283.382 305.061 283.382 296.44 283.418 287.826C283.425 285.753 283.842 283.89 285.115 282.112C286.935 279.579 286.173 278.241 282.957 278.089C279.613 277.931 276.254 278.133 272.909 278.003C268.802 277.845 267.852 276.902 267.637 272.858C267.5 270.346 267.558 267.828 267.565 265.316C267.579 262.632 265.99 262.229 263.81 262.229C261.595 262.229 260.106 262.754 260.099 265.395C260.091 268.144 260.228 270.908 259.969 273.649C259.66 276.909 258.358 278.003 255.035 277.953C251.885 277.91 250.719 276.888 250.432 273.707C250.201 271.08 250.317 268.439 250.331 265.806C250.345 263.546 249.727 262.215 247.087 262.222C244.39 262.229 243.505 263.467 243.541 265.957C243.577 268.468 243.577 270.987 243.469 273.498C243.354 276.406 241.887 277.881 238.988 277.967C235.996 278.053 233.003 278.089 230.018 277.946C227.415 277.823 226.127 276.434 225.983 273.858C225.832 271.224 225.825 268.59 225.911 265.957C226.005 263.157 224.789 262.171 222.056 262.171C219.632 262.171 216.978 262.898 214.885 260.876C214.906 231.415 214.935 201.961 214.95 172.5C214.95 171.19 214.964 170.19 213.274 169.456C210.85 168.398 212.267 165.858 212.188 164.001C212.101 161.965 213.971 162.368 215.144 162.483C217.834 162.756 218.992 161.734 218.539 159.05C217.949 155.488 219.244 153.84 222.977 154.524C225.983 155.078 226.602 153.523 226.501 150.846C226.329 146.421 226.588 141.981 226.408 137.555C226.3 134.957 227.307 134.31 229.731 134.346C235.478 134.432 235.133 135.317 235.046 128.999C235.003 125.912 235.6 122.781 234.586 119.737C234.118 118.327 234.946 117.456 235.996 116.772C236.823 116.233 237.571 116.557 238.276 117.139C239.29 117.974 239.182 118.809 238.729 119.975C237.118 124.127 238.24 128.488 237.995 132.755C237.923 133.993 238.772 134.547 239.851 134.353C242.915 133.813 243.929 135.842 244.426 138.131C245.224 141.808 247.403 142.657 250.906 142.384C255.071 142.06 259.279 142.362 263.472 142.283C265.313 142.247 266.09 142.923 266.004 144.794C265.91 146.946 266.162 149.119 265.946 151.257C265.659 154.135 267.011 154.596 269.521 154.574C284.007 154.481 298.494 154.632 312.973 154.452C316.533 154.409 318.468 155.085 317.749 159.072C317.26 161.785 318.511 162.749 321.165 162.483C322.23 162.375 323.949 161.965 324.05 163.677C324.158 165.584 325.308 168.369 323.294 169.269C320.842 170.355 321.36 171.96 321.352 173.608C321.324 194.801 321.324 216.001 321.331 237.194C321.338 276.47 321.36 315.747 321.381 355.024Z" fill="#B4C2C1"/>
<path d="M214.877 260.876C216.43 260.898 217.984 260.934 219.538 260.934C227.162 260.941 227.162 260.934 227.162 268.742C227.162 270.534 227.248 272.333 227.14 274.124C227.018 276.204 227.967 276.837 229.917 276.78C233.139 276.679 236.376 276.672 239.598 276.78C241.655 276.845 242.324 275.988 242.274 274.016C242.18 270.548 242.324 267.079 242.224 263.611C242.166 261.574 242.979 260.732 244.964 260.934C245.201 260.955 245.439 260.934 245.683 260.934C252.574 260.991 251.495 260.308 251.589 266.863C251.617 268.778 251.589 270.692 251.596 272.606C251.61 276.478 253.79 277.946 257.501 276.693C258.925 276.211 258.76 275.125 258.767 274.081C258.796 270.613 258.853 267.144 258.753 263.676C258.695 261.711 259.364 260.876 261.421 260.905C270.599 261.049 268.707 259.991 268.815 267.871C268.93 276.751 268.844 276.751 277.547 276.751C279.82 276.751 282.093 276.701 284.366 276.773C285.574 276.809 287.365 276.262 287.409 278.255C287.445 279.889 288.559 282.191 286.387 283.04C284.46 283.789 284.661 285.048 284.668 286.444C284.675 297.087 284.697 307.738 284.711 318.381C281.237 318.41 277.763 318.561 274.296 318.417C271.865 318.316 270.606 319.021 271.009 321.612C271.441 324.411 270.088 325.109 267.513 324.973C264.054 324.786 260.551 325.138 257.105 324.865C253.876 324.606 253.725 326.29 253.725 328.758C253.775 353.074 253.761 377.39 253.761 401.713C253.761 410.938 253.667 420.164 253.818 429.382C253.861 432.081 253.013 432.851 250.344 432.836C233.7 432.728 217.056 432.7 200.412 432.851C197.326 432.88 196.931 431.627 196.938 429.037C197.01 405.081 196.923 381.125 197.046 357.161C197.06 353.973 196.362 352.829 192.924 352.88C180.114 353.067 167.304 352.915 154.486 352.894C154.515 341.164 154.63 329.442 154.515 317.719C154.486 314.941 155.191 313.898 158.097 314.078C162.031 314.322 165.994 314.049 169.936 314.171C172.008 314.236 172.597 313.43 172.583 311.451C172.504 302.952 172.482 294.461 172.597 285.962C172.626 283.659 171.713 282.925 169.641 283.228C166.843 283.645 165.959 282.558 165.98 279.694C166.002 276.873 167.311 276.715 169.505 276.715C177.582 276.708 177.582 276.657 177.582 268.403C177.582 260.934 177.582 260.941 185.098 260.934C195.017 260.919 204.951 260.891 214.877 260.876Z" fill="#94A8A6"/>
<path d="M471.609 298.98C459.871 298.987 448.132 298.987 436.401 298.994C436.372 289.208 436.228 279.428 436.394 269.641C436.444 266.583 435.451 265.856 432.546 265.899C423.483 266.043 414.42 265.899 405.357 265.87C405.378 231.242 405.4 196.621 405.407 161.993C405.407 160.741 405.76 159.367 404.055 158.662C402.969 158.208 403.177 157.057 403.458 156.136C403.782 155.071 404.781 155.272 405.58 155.265C408.212 155.229 410.852 155.164 413.485 155.272C415.47 155.359 416.29 154.653 416.232 152.595C416.117 149.004 416.211 145.406 416.196 141.815C416.189 140.873 416.311 139.851 415.11 139.419C414.11 139.059 413.952 138.282 414.261 137.382C414.556 136.512 415.369 136.591 416.067 136.569C417.146 136.533 418.246 136.684 419.296 136.519C421.318 136.202 424.36 137.778 425.173 135.547C426.079 133.058 426.324 129.884 424.806 127.236C423.626 125.185 424.166 124.141 426.374 124.386C429.784 124.76 430.107 122.918 429.884 120.299C429.668 117.715 429.395 115.081 433.495 115.585C435.013 115.772 434.876 114.247 434.883 113.196C434.905 109.001 434.862 104.805 434.919 100.617C434.933 99.5377 434.416 97.9257 436.293 97.8754C438.192 97.825 437.739 99.4369 437.753 100.531C437.803 104.366 437.753 108.202 437.789 112.03C437.803 113.124 437.473 114.333 438.436 115.542C439.573 114.333 439.184 113.095 439.192 112.009C439.228 103.74 439.163 95.4718 439.264 87.2106C439.278 85.9873 438.364 83.6701 440.364 83.7349C442.126 83.7924 441.321 86.088 441.328 87.3689C441.407 95.6373 441.45 103.906 441.321 112.167C441.285 114.664 441.738 116.132 444.622 115.729C447.197 115.376 447.154 117.14 447.132 118.931C447.097 121.673 446.19 124.969 451.009 124.508C452.283 124.386 452.318 125.818 451.815 126.682C451.34 127.502 450.801 128.179 450.693 129.215C449.945 136.389 450.074 136.555 457.361 136.562C458.44 136.562 459.518 136.548 460.59 136.598C462.115 136.663 462.525 137.713 461.942 138.814C459.418 143.593 461.367 148.659 460.835 153.552C460.669 155.042 461.827 155.243 463 155.243C465.395 155.243 467.79 155.308 470.185 155.236C472.962 155.15 473.825 156.359 472.358 158.676C471.717 159.691 471.559 160.619 471.559 161.677C471.559 207.445 471.588 253.212 471.609 298.98Z" fill="#B4C2C1"/>
<path d="M1065.14 160.216C1070.56 161.576 1076.13 162.404 1081.29 164.721C1082.18 165.116 1083 165.289 1083.17 164.066C1083.46 161.965 1086.51 160.403 1083.93 157.683C1080.48 154.049 1080.79 149.839 1084.19 146.68C1086.79 144.255 1089.76 144.766 1092.52 145.982C1095.52 147.299 1096.89 150.739 1096.01 154.25C1095.24 157.294 1093.24 159.295 1089.98 159.518C1088.37 159.626 1087.04 159.64 1086.15 161.403C1084.3 165.059 1084.46 165.663 1088.11 167.441C1096.52 171.557 1104.13 176.861 1110.93 183.316C1111.79 184.129 1112.62 186.079 1114.02 184.884C1115.48 183.647 1117.73 182.841 1117.23 179.883C1116.23 174.083 1117.74 171.392 1121.82 170.046C1125.25 168.923 1128.13 170.075 1130.14 172.629C1132.14 175.177 1132.03 178.336 1130.18 181.027C1128.21 183.906 1125.35 185.403 1121.86 183.999C1119.54 183.064 1118.12 183.733 1116.56 185.41C1115.39 186.662 1114.94 187.576 1116.21 188.979C1122.79 196.233 1127.34 204.746 1131.28 213.612C1131.69 214.533 1132.26 215.202 1133.12 214.641C1134.84 213.525 1137.67 214.015 1137.9 210.661C1138.24 205.84 1142.34 202.709 1146.32 203.738C1149.24 204.494 1151.8 205.739 1152.15 209.2C1152.49 212.554 1152.23 215.799 1148.78 217.591C1145.41 219.347 1142.26 218.555 1139.49 216.173C1138.62 215.425 1138.22 214.482 1136.6 215.065C1132.32 216.605 1132.32 216.44 1133.62 220.844C1135.86 228.421 1137.34 236.114 1137.14 244.073C1137.11 245.419 1136.23 247.801 1138.56 247.808C1140.83 247.815 1143.75 249.578 1145.37 245.98C1147.12 242.094 1151.61 240.669 1155.3 242.44C1158.89 244.167 1160.37 248.398 1158.7 252.19C1156.94 256.177 1153.05 257.609 1148.85 255.889C1147.05 255.155 1145.66 253.831 1145.34 252.068C1144.56 247.743 1141.32 249.643 1139.11 249.528C1136.08 249.369 1137.28 251.975 1137.11 253.514C1136.12 262.207 1134.04 270.627 1130.99 278.809C1130.5 280.119 1129.29 281.594 1131.55 282.198C1133.52 282.724 1135.06 285.869 1137.73 282.853C1141.56 278.514 1147.75 279.601 1150.05 284.717C1151.74 288.495 1150.18 293.101 1146.44 294.259C1142.18 295.576 1137.85 294.929 1136.38 290.294C1135.89 288.747 1136.06 286.919 1134.68 285.689C1131.17 282.537 1129.16 282.832 1126.94 287.063C1123.09 294.418 1118.33 301.088 1112.34 306.845C1110.96 308.17 1110.56 309.091 1112.21 310.53C1114.74 312.732 1116.46 315.675 1120.94 314.344C1124.16 313.387 1126.78 316.193 1127.91 320.18C1128.86 323.519 1127.32 326.052 1124.89 327.966C1122.42 329.909 1118.71 329.521 1116.26 327.448C1113.38 325.009 1112.62 322.001 1113.91 318.784C1114.27 317.892 1115.74 317.222 1114.77 315.977C1113.23 314.006 1111.94 311.796 1109.8 310.393C1109.03 309.889 1108.57 310.818 1108.02 311.214C1106 312.682 1103.98 314.15 1101.96 315.61C1101.96 314.142 1101.96 312.667 1101.96 311.199C1104.95 307.119 1104.95 307.119 1101.76 303.147C1098.99 299.692 1095.6 296.836 1092.6 293.604C1092.27 293.259 1091.94 292.705 1091.52 292.705C1088.33 292.734 1086.84 295.612 1084.48 297.03C1083.17 297.814 1083.68 298.973 1084.07 300.189C1084.89 302.693 1087.58 304.507 1086.84 307.579C1085.84 307.579 1084.85 307.579 1083.87 307.579C1082.32 306.529 1081.47 304.96 1080.66 303.341C1079.89 301.822 1079.18 300.074 1076.95 301.16C1075.14 302.046 1072.49 302.362 1073.51 305.55C1073.73 306.241 1073.73 306.975 1073.18 307.572C1072.66 307.579 1072.13 307.579 1071.61 307.587C1069.48 304.78 1066.78 304.744 1063.68 305.73C1060.37 306.788 1056.86 306.709 1053.44 306.867C1051.04 306.982 1050.39 307.932 1050.46 310.156C1050.57 313.48 1050.67 316.819 1049.97 320.115C1049.73 321.274 1049.69 322.49 1048.79 323.411C1048.25 323.411 1047.71 323.411 1047.18 323.411C1046.28 322.468 1046.22 321.274 1046.2 320.072C1046.17 318.755 1046.33 317.46 1046.51 316.157C1047.68 307.695 1047.64 307.651 1039.48 306.147C1037.02 305.694 1034.56 305.205 1032.2 304.363C1030.09 303.607 1028.82 304.262 1027.97 306.27C1026.2 310.429 1024.6 314.653 1022.81 318.805C1022.24 320.151 1022.03 321.921 1020.03 322.109C1020.03 320.612 1020.02 319.115 1020.02 317.625C1020.7 312.991 1022.95 308.904 1024.56 304.6C1025.01 303.406 1025.81 302.089 1024.1 301.218C1022.24 300.275 1021.58 301.657 1020.88 302.952C1019.93 304.723 1019.13 306.622 1017.17 307.587C1016.16 307.587 1015.15 307.579 1014.13 307.579C1013.71 304.895 1015.85 303.24 1016.83 301.146C1017.88 298.908 1017.78 297.411 1015.59 296.015C1013.28 294.54 1011.13 292.791 1009.24 290.769C1008.03 289.474 1006.85 289.351 1005.59 290.697C1001.98 294.533 997.66 297.606 994.042 301.448C992.467 303.125 992.316 304.356 994.063 305.917C997.818 309.271 1001.85 312.235 1005.94 315.171C1007.84 316.532 1009.02 314.905 1010.54 314.768C1010.56 316.064 1010.61 317.359 1010.61 318.654C1010.63 323.505 1010.62 323.505 1005.51 323.397C1005.23 321.821 1004.6 320.54 1003.13 319.633C998.631 316.877 994.661 313.444 990.755 309.918C989.741 309.004 988.77 307.076 986.907 308.155C985.13 309.184 985.065 310.911 985.375 312.876C986.223 318.266 983.246 322.332 978.211 322.886C976.391 323.087 974.607 323.015 973.319 321.396C973.319 317.021 973.32 312.646 973.312 308.277C975.161 306.083 977.642 306.594 979.894 307.025C981.8 307.392 983.188 307.09 984.274 305.543C985.634 303.6 983.684 302.794 982.843 301.664C979.21 296.778 975.326 292.057 973.312 286.178C973.312 283.487 973.319 280.795 973.319 278.104C975.456 278.327 975.686 280.284 976.376 281.673C979.261 287.48 982.692 292.906 986.777 297.951C988.403 299.959 989.683 300.232 991.762 298.512C995.826 295.144 999.156 291.021 1003.21 287.668C1004.48 286.617 1004.03 285.609 1003.21 284.573C999.861 280.335 996.933 275.83 994.754 270.879C993.977 269.123 992.819 269.109 991.258 269.706C986.684 271.462 982.051 273.052 977.455 274.765C976.146 275.254 974.816 275.995 973.319 275.377C972.73 272.412 976.189 273.326 976.909 271.62C980.174 269.008 984.288 268.353 988.036 266.863C992.258 265.187 992.265 265.244 991.208 260.97C990.287 257.249 989.769 253.457 989.417 249.643C989.043 245.62 989.057 245.57 984.9 245.52C982.39 245.491 979.879 245.541 977.369 245.498C975.945 245.476 974.47 245.555 973.312 244.462C973.312 243.692 973.312 242.914 973.319 242.144C977.232 241.403 981.181 241.878 985.101 241.929C988.201 241.972 989.791 240.943 990.028 237.769C990.352 233.444 991.582 229.299 993.013 225.226C993.826 222.902 993.481 221.29 991.042 220.354C986.676 218.685 982.569 216.454 978.318 214.533C975.6 213.302 974.406 214.13 973.521 216.67C972.658 219.16 971.787 221.635 971.126 224.19C970.773 225.572 970.514 227.04 969.025 227.767C968.004 227.767 966.99 227.767 965.968 227.767C966.796 221.707 969.083 216.094 971.392 210.301C970.327 209.79 969.176 209.308 968.105 208.697C966.738 207.919 965.882 207.761 964.631 209.308C962.487 211.956 958.315 212.086 955.143 210.121C952.439 208.445 951.295 205.005 952.367 201.781C953.755 197.636 955.668 196.506 960.646 196.916C963.962 197.19 966.53 199.521 966.652 203.285C966.731 205.847 967.81 206.754 969.903 207.588C971.536 208.243 972.305 208.222 973.204 206.538C977.491 198.536 982.483 191.03 989.244 184.834C989.899 184.237 991.042 183.431 989.971 182.502C988.46 181.186 987.676 178.487 984.95 179.243C983.878 179.538 982.857 179.653 981.793 179.653C976.83 179.646 974.291 176.479 974.693 170.83C974.981 166.772 978.362 164.62 983.375 165.304C987.353 165.843 989.935 169.967 988.87 174.198C988.482 175.738 987.41 177.084 989.079 178.696C991.05 180.61 992.093 182.042 995.092 179.293C1001.78 173.169 1009.75 168.808 1018.14 165.296C1019.29 164.814 1021.32 164.526 1020.42 162.907C1019.35 160.986 1020.76 157.33 1016.61 157.301C1012.82 157.273 1008.97 152.926 1009.29 149.479C1009.68 145.219 1013.43 141.974 1017.6 142.29C1021.35 142.571 1024.59 146.658 1024.29 150.631C1024.19 152.012 1023.83 153.444 1022.76 154.128C1018.61 156.776 1021.73 159.727 1022.27 162.526C1022.54 163.944 1023.73 163.447 1024.58 163.123C1033.15 159.849 1042.2 159.633 1051.17 159.165C1053.14 159.065 1053.01 158.446 1053.02 157.244C1053.04 155.689 1053 154.128 1053.04 152.574C1053.07 151.026 1052.74 150.062 1051.01 149.335C1047.66 147.932 1046.28 143.909 1047.38 140.167C1048.18 137.418 1051.68 135.094 1054.89 135.166C1057.6 135.224 1061.14 138.419 1061.63 141.254C1062.36 145.471 1060.87 148.191 1056.91 149.666C1052.4 151.35 1054.81 155.107 1054.63 157.899C1054.45 160.612 1057.12 159.539 1058.47 159.453C1060.75 159.316 1062.85 160.525 1065.14 160.216Z" fill="#95A8A7"/>
<path d="M377.47 256.551C373.521 256.573 369.573 256.58 365.624 256.638C364.602 256.652 363.337 256.357 363.092 257.919C362.905 259.113 363.15 260.049 364.588 260.265C365.876 260.459 365.861 261.488 365.876 262.467C365.883 263.186 365.883 263.906 365.883 264.618C365.883 311.537 365.847 358.464 365.955 405.383C365.962 408.744 365.228 410.104 361.653 409.83C357.611 409.521 353.518 409.686 349.454 409.787C347.405 409.837 346.426 409.319 346.441 407.002C346.52 392.279 346.541 377.555 346.434 362.832C346.412 359.702 348.347 360.112 350.238 360.155C352.123 360.191 353.9 360.328 353.705 357.499C353.598 355.888 353.159 355.053 351.418 355.103C349.267 355.161 347.11 355.074 344.959 355.046C344.988 321.871 345.017 288.697 345.045 255.522C345.052 245.584 345.031 235.639 345.067 225.701C345.074 224.161 344.412 222.226 347.059 221.916C348.167 221.787 347.886 220.614 347.908 219.822C347.958 217.908 347.915 215.986 347.944 214.072C347.958 213.245 347.915 212.064 349.023 212.165C353.072 212.532 352.224 209.683 352.231 207.445C352.26 199.183 352.216 190.915 352.281 182.654C352.288 181.653 351.548 179.826 353.468 179.934C354.957 180.013 354.367 181.653 354.367 182.603C354.418 191.347 354.367 200.09 354.432 208.833C354.439 209.956 353.648 211.82 355.77 211.899C357.964 211.978 357.223 210.078 357.23 208.956C357.302 202.609 357.194 196.262 357.323 189.915C357.352 188.641 356.194 186.223 358.776 186.331C361.2 186.432 360.057 188.77 360.078 190.08C360.208 196.305 360.229 202.537 360.085 208.761C360.028 211.172 360.618 212.172 363.243 212.086C368.285 211.928 367.997 211.187 368.048 216.843C368.098 222.924 367.343 222.204 373.471 222.017C376.65 221.923 377.521 222.823 377.463 226.004C377.276 236.193 377.442 246.376 377.47 256.551Z" fill="#94A8A6"/>
<path d="M148.035 386.673C148.056 395.172 147.977 403.677 148.164 412.169C148.222 414.932 147.251 415.594 144.64 415.565C133.03 415.443 121.421 415.587 109.812 415.458C107.115 415.429 106.331 416.256 106.36 418.926C106.489 430.059 106.345 441.198 106.468 452.331C106.496 454.965 105.791 455.893 103.051 455.835C95.3978 455.67 87.7303 455.713 80.07 455.814C77.8187 455.843 76.8836 455.252 76.898 452.813C77.0131 438.449 76.9987 424.079 77.0203 409.715C78.4732 408.333 80.3218 408.528 82.084 408.506C87.083 408.448 92.0819 408.427 97.0737 408.506C99.8286 408.549 100.929 407.448 100.85 404.699C100.792 402.483 100.433 400.13 102.03 398.187C102.051 388.983 102.145 379.779 102.044 370.575C102.015 368.128 102.655 367.229 105.23 367.286C112.517 367.445 119.81 367.423 127.096 367.293C129.42 367.25 130.254 367.934 130.168 370.323C130.002 374.857 130.218 379.412 130.081 383.945C130.009 386.169 130.808 386.853 132.973 386.788C138.001 386.644 143.021 386.702 148.035 386.673Z" fill="#94A8A6"/>
<path d="M35.9129 427.655C35.9345 433.621 35.877 439.586 36.0208 445.545C36.0784 447.876 35.3015 448.711 32.9495 448.632C28.1879 448.474 23.4119 448.546 18.6431 448.524C18.6718 442.544 18.7869 436.557 18.6862 430.577C18.6503 428.382 19.3552 427.648 21.5561 427.705C26.3393 427.806 31.1297 427.684 35.9129 427.655Z" fill="#94A8A6"/>
<path d="M102.044 398.187C102.065 400.943 101.972 403.706 102.137 406.448C102.288 408.866 101.562 409.873 98.9438 409.816C91.6431 409.65 84.3353 409.729 77.0274 409.715C77.6316 406.038 75.8981 404.937 72.4816 405.412C71.1077 405.606 69.6692 405.383 68.2594 405.354C68.4536 398.259 68.4536 398.273 75.5313 398.259C84.3712 398.244 93.2111 398.208 102.044 398.187Z" fill="#B4C2C1"/>
<path d="M669.266 381.671C673.05 381.671 676.826 381.671 680.609 381.671C680.638 406.563 680.638 431.455 680.725 456.346C680.732 458.707 679.948 459.39 677.624 459.426C669.18 459.556 669.173 459.635 669.18 451.316C669.209 428.101 669.238 404.886 669.266 381.671Z" fill="#94A8A6"/>
<path d="M968.99 227.795C970.255 223.247 971.385 218.663 973.24 214.302C973.902 212.755 974.348 211.546 976.549 212.626C981.98 215.274 987.511 217.699 993.042 220.124C994.718 220.858 995.452 221.772 994.697 223.607C992.424 229.105 991.438 234.934 990.482 240.763C990.331 241.67 990.568 242.943 989.194 242.886C983.893 242.648 978.52 243.85 973.284 242.181C972.715 239.187 973.291 237.575 976.995 237.827C980.182 238.043 983.461 231.07 981.678 228.465C981.102 227.63 980.174 227.896 979.369 227.882C975.909 227.824 972.449 227.817 968.99 227.795Z" fill="#EEEFEC"/>
<path d="M727.398 378.196C727.406 379.505 727.247 380.837 727.434 382.125C727.888 385.306 726.622 386.291 723.471 386.133C721.076 386.011 720.026 385.471 720.17 382.888C720.364 379.448 720.292 375.979 720.199 372.532C720.127 369.826 721.99 370.179 723.608 370.251C725.205 370.33 727.478 369.445 727.406 372.482C727.363 374.382 727.398 376.289 727.398 378.196Z" fill="#97AAA9"/>
<path d="M727.399 406.894C727.399 408.081 727.406 409.276 727.399 410.463C727.392 414.702 725.946 415.745 721.738 414.788C720.271 414.45 720.221 413.522 720.221 412.421C720.213 408.729 720.292 405.037 720.199 401.346C720.12 398.345 722.242 399.057 723.903 398.993C725.709 398.921 727.636 398.662 727.421 401.54C727.291 403.31 727.399 405.109 727.399 406.894Z" fill="#97AAA9"/>
<path d="M727.405 264.654C727.405 265.964 727.247 267.295 727.434 268.583C727.916 271.858 726.463 272.642 723.413 272.527C720.932 272.44 720.04 271.721 720.176 269.224C720.356 265.899 720.342 262.553 720.191 259.221C720.04 256.033 722.212 256.702 724.032 256.609C725.959 256.515 727.671 256.544 727.434 259.293C727.283 261.07 727.398 262.87 727.405 264.654Z" fill="#97AAA9"/>
<path d="M727.399 350.656C727.399 351.966 727.233 353.304 727.435 354.578C728.003 358.248 726.24 359.061 722.975 358.78C721.098 358.622 720.119 358.248 720.184 356.139C720.299 352.57 720.328 348.994 720.184 345.424C720.062 342.524 721.968 342.862 723.745 342.913C725.421 342.963 727.564 342.315 727.413 345.302C727.327 347.079 727.399 348.871 727.399 350.656Z" fill="#97AAA9"/>
<path d="M720.221 292.971C720.221 291.899 720.213 290.827 720.221 289.755C720.228 285.207 720.508 285.027 725.112 285.343C726.78 285.458 727.442 286.049 727.413 287.704C727.356 291.395 727.313 295.087 727.42 298.779C727.514 301.758 725.442 301.146 723.759 301.182C721.997 301.218 719.998 301.599 720.192 298.685C720.321 296.792 720.221 294.878 720.221 292.971Z" fill="#97AAA9"/>
<path d="M727.398 321.993C727.398 323.188 727.406 324.375 727.398 325.57C727.391 330.132 727.118 330.305 722.514 329.988C720.853 329.873 720.177 329.305 720.198 327.635C720.256 323.944 720.306 320.252 720.184 316.56C720.091 313.588 722.148 314.178 723.838 314.15C725.586 314.121 727.614 313.711 727.413 316.632C727.298 318.417 727.398 320.209 727.398 321.993Z" fill="#97AAA9"/>
<path d="M695.067 350.879C695.06 349.447 695.239 347.993 695.031 346.597C694.499 343.085 696.412 342.668 699.217 342.862C700.864 342.978 701.576 343.524 701.548 345.201C701.49 349.008 701.497 352.822 701.54 356.636C701.569 359.14 699.764 358.694 698.289 358.701C696.793 358.708 695.002 359.09 695.074 356.593C695.11 354.693 695.067 352.786 695.067 350.879Z" fill="#97AAA9"/>
<path d="M746.092 350.512C746.092 349.202 746.257 347.864 746.056 346.59C745.509 343.057 747.466 342.69 750.25 342.87C751.904 342.977 752.594 343.546 752.573 345.215C752.515 348.907 752.458 352.606 752.587 356.29C752.681 358.917 751.019 358.716 749.293 358.737C747.516 358.759 745.883 358.809 746.063 356.233C746.2 354.326 746.092 352.419 746.092 350.512Z" fill="#97AAA9"/>
<path d="M771.253 350.879C771.246 349.447 771.426 347.993 771.217 346.597C770.685 343.085 772.598 342.668 775.403 342.862C777.051 342.978 777.763 343.524 777.734 345.201C777.676 349.008 777.683 352.822 777.727 356.636C777.755 359.14 775.95 358.694 774.475 358.701C772.979 358.708 771.188 359.09 771.26 356.593C771.296 354.693 771.253 352.786 771.253 350.879Z" fill="#97AAA9"/>
<path d="M777.712 293.425C777.712 294.734 777.719 296.044 777.712 297.354C777.69 301.218 777.215 301.563 773.36 301.225C771.864 301.096 771.231 300.549 771.246 299.052C771.281 295.238 771.31 291.431 771.238 287.617C771.188 284.868 773.13 285.466 774.705 285.386C776.367 285.3 777.856 285.365 777.726 287.711C777.626 289.611 777.705 291.518 777.712 293.425Z" fill="#97AAA9"/>
<path d="M752.559 264.546C752.559 265.856 752.387 267.194 752.595 268.468C753.163 272.023 751.387 272.736 748.33 272.476C746.618 272.333 746.064 271.663 746.086 270.051C746.143 266.36 746.186 262.668 746.079 258.976C745.999 256.299 747.776 256.681 749.438 256.609C751.293 256.53 752.782 256.695 752.588 259.185C752.444 260.963 752.559 262.762 752.559 264.546Z" fill="#97AAA9"/>
<path d="M701.526 378.066C701.526 379.498 701.353 380.952 701.562 382.348C702.094 385.874 700.167 386.263 697.376 386.075C695.721 385.967 695.024 385.406 695.053 383.729C695.11 380.038 695.168 376.339 695.038 372.655C694.945 370.035 696.599 370.222 698.325 370.208C700.095 370.193 701.742 370.129 701.555 372.705C701.418 374.482 701.526 376.274 701.526 378.066Z" fill="#97AAA9"/>
<path d="M777.711 264.597C777.719 265.906 777.719 267.216 777.711 268.526C777.69 272.39 776.877 273.009 773.065 272.448C771.691 272.246 771.245 271.613 771.245 270.354C771.259 266.54 771.317 262.726 771.224 258.919C771.159 256.206 773.015 256.659 774.633 256.616C776.237 256.573 777.834 256.472 777.719 258.876C777.632 260.783 777.704 262.69 777.711 264.597Z" fill="#97AAA9"/>
<path d="M777.712 322.181C777.712 323.49 777.719 324.8 777.712 326.11C777.69 329.974 777.215 330.319 773.36 329.981C771.864 329.852 771.231 329.305 771.246 327.808C771.281 323.994 771.31 320.187 771.238 316.373C771.188 313.624 773.13 314.222 774.705 314.142C776.367 314.056 777.856 314.121 777.726 316.467C777.626 318.367 777.705 320.281 777.712 322.181Z" fill="#97AAA9"/>
<path d="M752.551 321.979C752.558 323.411 752.379 324.865 752.587 326.261C753.119 329.773 751.206 330.19 748.401 329.996C746.754 329.88 746.042 329.334 746.07 327.657C746.128 323.85 746.121 320.036 746.078 316.222C746.049 313.718 747.854 314.164 749.329 314.157C750.825 314.15 752.616 313.768 752.544 316.265C752.508 318.165 752.551 320.072 752.551 321.979Z" fill="#97AAA9"/>
<path d="M701.526 264.395C701.526 265.827 701.433 267.259 701.548 268.684C701.756 271.203 701.303 272.599 698.16 272.556C695.132 272.512 694.952 271.073 695.031 268.778C695.146 265.568 695.175 262.344 695.031 259.135C694.916 256.58 696.455 256.58 698.246 256.616C699.951 256.652 701.713 256.407 701.54 259.041C701.433 260.811 701.526 262.603 701.526 264.395Z" fill="#97AAA9"/>
<path d="M701.526 321.914C701.526 323.346 701.433 324.778 701.548 326.203C701.756 328.722 701.303 330.118 698.16 330.075C695.132 330.032 694.952 328.592 695.031 326.297C695.146 323.087 695.175 319.863 695.031 316.654C694.916 314.099 696.455 314.099 698.246 314.135C699.951 314.171 701.713 313.926 701.54 316.56C701.433 318.331 701.526 320.122 701.526 321.914Z" fill="#97AAA9"/>
<path d="M701.527 293.137C701.527 294.569 701.44 296.001 701.548 297.426C701.742 299.916 701.347 301.362 698.182 301.319C695.168 301.276 694.945 299.88 695.031 297.562C695.154 294.353 695.175 291.129 695.031 287.92C694.916 285.379 696.42 285.329 698.232 285.379C699.923 285.422 701.706 285.142 701.548 287.79C701.433 289.553 701.527 291.345 701.527 293.137Z" fill="#97AAA9"/>
<path d="M752.559 378.023C752.559 379.455 752.458 380.887 752.58 382.312C752.803 384.867 752.264 386.191 749.164 386.155C746.1 386.119 745.992 384.607 746.064 382.355C746.164 379.146 746.2 375.922 746.056 372.712C745.941 370.129 747.531 370.201 749.3 370.215C751.027 370.229 752.746 370.05 752.573 372.669C752.458 374.439 752.552 376.231 752.559 378.023Z" fill="#97AAA9"/>
<path d="M771.245 378.124C771.245 376.814 771.411 375.475 771.209 374.202C770.648 370.668 772.389 369.913 775.467 370.179C777.165 370.323 777.747 370.978 777.726 372.597C777.668 376.289 777.625 379.98 777.733 383.672C777.812 386.342 776.05 385.989 774.381 386.054C772.533 386.126 771.022 385.996 771.216 383.485C771.36 381.707 771.252 379.908 771.245 378.124Z" fill="#97AAA9"/>
<path d="M752.558 293.424C752.558 294.734 752.566 296.044 752.558 297.354C752.537 301.218 752.062 301.563 748.207 301.225C746.711 301.096 746.078 300.549 746.092 299.052C746.128 295.238 746.157 291.431 746.085 287.617C746.034 284.868 747.976 285.465 749.552 285.386C751.213 285.3 752.702 285.365 752.573 287.711C752.472 289.61 752.551 291.517 752.558 293.424Z" fill="#97AAA9"/>
<path d="M701.527 406.765C701.527 408.197 701.433 409.629 701.548 411.053C701.764 413.587 701.268 414.954 698.146 414.911C695.103 414.867 694.952 413.399 695.032 411.118C695.139 407.909 695.175 404.685 695.024 401.475C694.909 398.899 696.47 398.942 698.254 398.971C699.966 398.993 701.714 398.784 701.541 401.411C701.433 403.188 701.527 404.98 701.527 406.765Z" fill="#97AAA9"/>
<path d="M752.559 406.75C752.559 408.182 752.465 409.614 752.58 411.039C752.789 413.558 752.336 414.954 749.193 414.911C746.164 414.867 745.985 413.428 746.064 411.133C746.179 407.923 746.208 404.699 746.064 401.49C745.949 398.935 747.488 398.935 749.279 398.971C750.984 399.007 752.746 398.762 752.573 401.396C752.458 403.174 752.552 404.965 752.559 406.75Z" fill="#97AAA9"/>
<path d="M777.712 406.736C777.712 408.168 777.625 409.6 777.733 411.025C777.927 413.514 777.532 414.961 774.367 414.918C771.353 414.875 771.13 413.478 771.217 411.161C771.339 407.952 771.36 404.728 771.217 401.518C771.101 398.978 772.605 398.928 774.417 398.978C776.108 399.021 777.891 398.741 777.733 401.389C777.618 403.152 777.712 404.944 777.712 406.736Z" fill="#97AAA9"/>
<path d="M907.8 356.492C907.8 358.521 907.743 360.543 907.822 362.566C907.886 364.278 907.419 365.199 905.448 365.228C903.434 365.25 902.7 364.537 902.751 362.522C902.851 358.471 902.844 354.419 902.758 350.368C902.715 348.468 903.528 347.9 905.319 347.893C907.153 347.885 907.922 348.555 907.829 350.411C907.728 352.441 907.8 354.47 907.8 356.492Z" fill="#97AAA9"/>
<path d="M947.332 356.708C947.332 358.615 947.253 360.522 947.353 362.429C947.454 364.343 946.864 365.228 944.757 365.235C942.52 365.242 942.254 364.091 942.282 362.306C942.347 358.377 942.354 354.441 942.282 350.512C942.254 348.756 942.764 347.921 944.699 347.892C946.749 347.864 947.461 348.662 947.353 350.634C947.245 352.656 947.332 354.686 947.332 356.708Z" fill="#97AAA9"/>
<path d="M907.808 388.378C907.808 390.163 907.743 391.955 907.822 393.739C907.908 395.646 907.65 396.92 905.197 396.877C902.931 396.841 902.73 395.661 902.758 393.912C902.816 390.098 902.816 386.284 902.758 382.47C902.73 380.707 902.953 379.549 905.204 379.513C907.664 379.469 907.901 380.765 907.822 382.657C907.743 384.564 907.808 386.471 907.808 388.378Z" fill="#97AAA9"/>
<path d="M947.332 322.166C947.332 324.073 947.26 325.98 947.354 327.887C947.447 329.773 946.922 330.722 944.786 330.722C942.585 330.722 942.247 329.643 942.283 327.822C942.355 323.893 942.347 319.957 942.29 316.028C942.261 314.308 942.707 313.401 944.678 313.38C946.699 313.358 947.476 314.092 947.368 316.093C947.246 318.115 947.332 320.144 947.332 322.166Z" fill="#97AAA9"/>
<path d="M942.304 253.831C942.304 251.802 942.39 249.772 942.275 247.757C942.16 245.721 943.002 245.059 944.994 245.073C946.986 245.088 947.368 246.066 947.346 247.757C947.288 251.809 947.267 255.86 947.353 259.912C947.396 261.79 946.627 262.409 944.814 262.409C943.002 262.409 942.189 261.797 942.282 259.912C942.383 257.89 942.311 255.86 942.304 253.831Z" fill="#97AAA9"/>
<path d="M947.333 388.227C947.333 390.134 947.275 392.041 947.354 393.948C947.426 395.74 947.11 396.877 944.88 396.877C942.772 396.87 942.24 395.977 942.283 394.063C942.377 390.134 942.377 386.198 942.283 382.269C942.233 380.297 942.895 379.498 944.944 379.527C946.879 379.556 947.426 380.398 947.354 382.154C947.268 384.176 947.333 386.198 947.333 388.227Z" fill="#97AAA9"/>
<path d="M947.332 423.611C947.332 425.395 947.267 427.187 947.346 428.972C947.433 430.879 947.174 432.153 944.721 432.109C942.455 432.073 942.254 430.893 942.283 429.145C942.34 425.331 942.34 421.517 942.283 417.703C942.254 415.94 942.477 414.781 944.728 414.745C947.188 414.702 947.426 415.997 947.346 417.89C947.274 419.79 947.332 421.704 947.332 423.611Z" fill="#97AAA9"/>
<path d="M902.78 287.221C902.78 285.314 902.838 283.407 902.759 281.5C902.687 279.759 903.205 278.888 905.154 278.867C907.19 278.838 907.88 279.608 907.83 281.594C907.729 285.645 907.736 289.697 907.823 293.748C907.866 295.67 907.01 296.188 905.24 296.195C903.385 296.21 902.672 295.49 902.752 293.655C902.852 291.518 902.78 289.366 902.78 287.221Z" fill="#97AAA9"/>
<path d="M947.332 287.445C947.332 289.474 947.245 291.503 947.36 293.518C947.475 295.555 946.634 296.217 944.641 296.202C942.649 296.188 942.261 295.216 942.289 293.525C942.347 289.474 942.369 285.422 942.282 281.371C942.239 279.493 943.009 278.874 944.821 278.874C946.634 278.874 947.447 279.493 947.353 281.371C947.252 283.393 947.332 285.422 947.332 287.445Z" fill="#97AAA9"/>
<path d="M907.8 322.087C907.8 323.994 907.743 325.901 907.822 327.808C907.894 329.614 907.556 330.73 905.34 330.722C903.226 330.715 902.708 329.801 902.751 327.902C902.837 323.972 902.852 320.036 902.751 316.107C902.7 314.121 903.391 313.351 905.427 313.38C907.376 313.401 907.894 314.272 907.822 316.013C907.743 318.036 907.8 320.065 907.8 322.087Z" fill="#97AAA9"/>
<path d="M902.779 423.129C902.779 421.222 902.837 419.315 902.758 417.408C902.693 415.688 903.168 414.774 905.139 414.752C907.16 414.731 907.886 415.457 907.836 417.458C907.735 421.509 907.742 425.561 907.829 429.612C907.872 431.512 907.052 432.073 905.268 432.081C903.427 432.088 902.679 431.411 902.765 429.555C902.851 427.425 902.779 425.273 902.779 423.129Z" fill="#97AAA9"/>
<path d="M907.801 253.939C907.801 255.846 907.721 257.76 907.822 259.66C907.93 261.625 907.24 262.445 905.175 262.416C903.255 262.387 902.715 261.567 902.751 259.804C902.823 255.753 902.83 251.701 902.751 247.65C902.715 245.843 903.334 245.066 905.218 245.088C906.959 245.109 907.908 245.57 907.822 247.513C907.721 249.65 907.801 251.795 907.801 253.939Z" fill="#97AAA9"/>
<path d="M922.905 356.665C922.905 354.52 922.956 352.376 922.891 350.231C922.841 348.555 923.531 347.885 925.221 347.921C926.84 347.957 927.228 348.799 927.214 350.195C927.185 354.484 927.178 358.773 927.214 363.062C927.228 364.58 926.574 365.185 925.07 365.185C923.589 365.185 922.862 364.631 922.891 363.091C922.941 360.954 922.905 358.809 922.905 356.665Z" fill="#97AAA9"/>
<path d="M927.2 254.04C927.2 256.062 927.171 258.091 927.207 260.113C927.229 261.517 926.812 262.344 925.2 262.38C923.503 262.416 922.856 261.733 922.877 260.063C922.935 255.774 922.92 251.485 922.884 247.196C922.87 245.656 923.589 245.117 925.071 245.117C926.581 245.117 927.236 245.743 927.207 247.247C927.171 249.513 927.2 251.773 927.2 254.04Z" fill="#97AAA9"/>
<path d="M966.739 356.506C966.739 358.651 966.71 360.795 966.746 362.94C966.767 364.357 966.321 365.156 964.725 365.192C963.013 365.228 962.401 364.509 962.416 362.853C962.466 358.687 962.466 354.513 962.416 350.339C962.401 348.763 962.847 347.9 964.624 347.907C966.472 347.914 966.782 348.914 966.746 350.426C966.703 352.455 966.739 354.484 966.739 356.506Z" fill="#97AAA9"/>
<path d="M927.199 423.488C927.206 425.633 927.17 427.777 927.213 429.922C927.242 431.433 926.588 432.052 925.077 432.052C923.603 432.052 922.883 431.505 922.898 429.965C922.934 425.554 922.934 421.15 922.905 416.738C922.898 415.105 923.833 414.781 925.214 414.795C926.53 414.81 927.213 415.321 927.199 416.695C927.177 418.962 927.192 421.222 927.199 423.488Z" fill="#97AAA9"/>
<path d="M962.436 253.514C962.436 251.492 962.487 249.463 962.422 247.441C962.371 245.779 963.026 245.073 964.731 245.109C966.335 245.145 966.759 245.951 966.745 247.369C966.716 251.658 966.709 255.947 966.745 260.236C966.759 261.74 966.14 262.38 964.623 262.38C963.155 262.38 962.4 261.855 962.429 260.308C962.465 258.041 962.436 255.774 962.436 253.514Z" fill="#97AAA9"/>
<path d="M966.731 321.965C966.731 324.109 966.709 326.254 966.738 328.398C966.76 329.787 966.386 330.65 964.753 330.686C963.077 330.722 962.386 330.082 962.408 328.391C962.466 324.102 962.451 319.813 962.415 315.524C962.401 313.998 963.084 313.423 964.58 313.423C966.076 313.423 966.767 314.013 966.738 315.531C966.702 317.676 966.731 319.82 966.731 321.965Z" fill="#97AAA9"/>
<path d="M927.199 322.065C927.199 324.21 927.163 326.354 927.214 328.499C927.243 329.974 926.667 330.679 925.121 330.679C923.675 330.679 922.884 330.211 922.891 328.643C922.92 324.239 922.92 319.827 922.891 315.423C922.884 313.826 923.733 313.43 925.15 313.423C926.725 313.416 927.228 314.193 927.199 315.639C927.171 317.776 927.207 319.921 927.199 322.065Z" fill="#97AAA9"/>
<path d="M927.207 388.4C927.207 390.422 927.156 392.451 927.221 394.473C927.271 396.114 926.66 396.87 924.934 396.827C923.351 396.791 922.884 396.028 922.891 394.596C922.92 390.307 922.927 386.018 922.891 381.729C922.876 380.247 923.459 379.592 924.991 379.556C926.761 379.52 927.264 380.376 927.221 381.966C927.163 384.111 927.207 386.255 927.207 388.4Z" fill="#97AAA9"/>
<path d="M966.731 388.083C966.731 390.35 966.702 392.61 966.738 394.869C966.76 396.496 965.825 396.834 964.436 396.819C963.12 396.805 962.444 396.287 962.444 394.92C962.458 390.516 962.466 386.104 962.43 381.7C962.415 380.189 963.055 379.57 964.566 379.57C966.04 379.57 966.781 380.11 966.745 381.65C966.702 383.794 966.731 385.939 966.731 388.083Z" fill="#97AAA9"/>
<path d="M962.437 287.589C962.437 285.444 962.466 283.3 962.43 281.155C962.408 279.737 962.854 278.939 964.451 278.903C966.163 278.867 966.774 279.586 966.76 281.241C966.709 285.408 966.709 289.582 966.76 293.756C966.774 295.332 966.328 296.195 964.552 296.188C962.703 296.181 962.394 295.18 962.43 293.669C962.466 291.64 962.43 289.611 962.437 287.589Z" fill="#97AAA9"/>
<path d="M927.2 287.581C927.2 289.726 927.164 291.87 927.214 294.015C927.243 295.511 926.625 296.166 925.1 296.166C923.64 296.166 922.884 295.655 922.899 294.101C922.927 289.812 922.942 285.523 922.891 281.234C922.87 279.586 923.481 278.859 925.193 278.895C926.79 278.931 927.243 279.723 927.214 281.148C927.178 283.292 927.207 285.437 927.2 287.581Z" fill="#97AAA9"/>
<path d="M263.069 334.867C263.292 336.501 262.594 337.199 260.904 337.163C259.451 337.134 258.796 336.659 258.775 335.119C258.753 333.493 259.285 332.766 260.997 332.817C262.428 332.86 263.256 333.277 263.069 334.867Z" fill="#B4C2C1"/>
<path d="M270.261 343.589C270.492 345.309 269.614 345.806 268.003 345.791C266.464 345.777 265.996 345.108 265.96 343.661C265.917 341.948 266.651 341.423 268.269 341.445C269.801 341.466 270.42 342.092 270.261 343.589Z" fill="#B4C2C1"/>
<path d="M263.069 343.647C263.234 345.144 262.608 345.77 261.083 345.798C259.465 345.82 258.731 345.287 258.775 343.582C258.811 342.128 259.278 341.466 260.817 341.452C262.421 341.43 263.299 341.927 263.069 343.647Z" fill="#B4C2C1"/>
<path d="M276.872 332.867C278.454 332.687 278.886 333.515 278.929 334.947C278.979 336.659 278.238 337.185 276.62 337.163C275.073 337.149 274.606 336.487 274.584 335.033C274.555 333.349 275.232 332.644 276.872 332.867Z" fill="#B4C2C1"/>
<path d="M270.261 335.018C270.419 336.522 269.786 337.141 268.261 337.163C266.628 337.192 265.924 336.63 265.96 334.932C265.988 333.471 266.47 332.824 268.009 332.809C269.621 332.802 270.484 333.306 270.261 335.018Z" fill="#B4C2C1"/>
<path d="M260.925 349.404C262.644 349.181 263.133 350.059 263.118 351.663C263.104 353.21 262.428 353.664 260.982 353.7C259.27 353.743 258.745 353.002 258.774 351.39C258.796 349.857 259.428 349.238 260.925 349.404Z" fill="#B4C2C1"/>
<path d="M527.626 248.578C527.626 246.793 527.626 245.001 527.626 243.217C527.626 242.015 528.295 241.54 529.438 241.554C530.618 241.562 531.172 242.13 531.172 243.303C531.165 246.88 531.172 250.449 531.179 254.025C531.179 255.141 530.776 255.824 529.532 255.868C528.151 255.918 527.59 255.256 527.604 253.939C527.626 252.154 527.611 250.363 527.611 248.578C527.611 248.578 527.619 248.578 527.626 248.578Z" fill="#C9D3D2"/>
<path d="M544.853 229.127C544.853 227.457 544.867 225.788 544.846 224.125C544.831 222.844 545.306 222.096 546.716 222.139C547.917 222.175 548.413 222.772 548.413 223.931C548.406 227.507 548.406 231.077 548.413 234.653C548.413 235.797 547.946 236.416 546.73 236.46C545.328 236.51 544.831 235.783 544.839 234.495C544.867 232.703 544.86 230.918 544.853 229.127Z" fill="#C9D3D2"/>
<path d="M536.228 229.098C536.228 227.428 536.243 225.759 536.228 224.096C536.214 222.794 536.739 222.096 538.134 222.146C539.357 222.19 539.803 222.837 539.796 223.967C539.789 227.543 539.789 231.113 539.796 234.689C539.796 235.848 539.271 236.431 538.084 236.46C536.667 236.496 536.214 235.726 536.228 234.459C536.243 232.667 536.228 230.882 536.228 229.098Z" fill="#C9D3D2"/>
<path d="M527.605 229.083C527.605 227.414 527.619 225.744 527.605 224.082C527.59 222.765 528.137 222.096 529.525 222.146C530.762 222.189 531.179 222.866 531.179 223.981C531.172 227.558 531.172 231.127 531.172 234.704C531.172 235.869 530.626 236.438 529.446 236.467C528.022 236.503 527.59 235.711 527.605 234.452C527.619 232.653 527.605 230.868 527.605 229.083Z" fill="#C9D3D2"/>
<path d="M548.421 268.036C548.428 269.821 548.414 271.613 548.428 273.398C548.443 274.75 547.824 275.341 546.465 275.283C545.192 275.233 544.861 274.484 544.861 273.398C544.861 269.821 544.868 266.252 544.868 262.675C544.868 261.481 545.486 260.963 546.637 260.963C547.795 260.963 548.414 261.481 548.407 262.675C548.414 264.46 548.414 266.245 548.421 268.036Z" fill="#C9D3D2"/>
<path d="M536.229 267.95C536.229 266.281 536.243 264.611 536.222 262.949C536.207 261.668 536.682 260.919 538.099 260.963C539.3 260.999 539.796 261.603 539.796 262.754C539.789 266.331 539.789 269.9 539.796 273.477C539.796 274.621 539.322 275.24 538.113 275.283C536.703 275.333 536.214 274.599 536.229 273.311C536.243 271.527 536.229 269.742 536.229 267.95Z" fill="#C9D3D2"/>
<path d="M548.428 248.88C548.428 250.55 548.413 252.219 548.435 253.882C548.449 255.162 547.975 255.911 546.565 255.868C545.364 255.832 544.86 255.234 544.867 254.076C544.875 250.499 544.875 246.93 544.867 243.354C544.867 242.209 545.335 241.59 546.55 241.547C547.953 241.497 548.449 242.224 548.442 243.512C548.413 245.304 548.428 247.096 548.428 248.88Z" fill="#C9D3D2"/>
<path d="M531.172 268.411C531.179 270.08 531.172 271.75 531.179 273.412C531.179 274.506 530.813 275.225 529.561 275.276C528.187 275.333 527.605 274.707 527.612 273.376C527.633 269.799 527.626 266.23 527.626 262.654C527.626 261.459 528.266 260.955 529.417 260.963C530.582 260.97 531.179 261.502 531.172 262.69C531.158 264.597 531.165 266.504 531.172 268.411Z" fill="#C9D3D2"/>
<path d="M539.804 248.866C539.804 250.535 539.789 252.205 539.811 253.867C539.825 255.141 539.372 255.911 537.955 255.868C536.769 255.832 536.236 255.256 536.243 254.097C536.251 250.521 536.251 246.952 536.243 243.375C536.243 242.245 536.682 241.598 537.905 241.554C539.3 241.504 539.825 242.202 539.811 243.505C539.789 245.289 539.804 247.074 539.804 248.866Z" fill="#C9D3D2"/>
<path d="M608.783 287.646C608.783 289.431 608.797 291.215 608.783 293C608.776 293.928 608.466 294.634 607.359 294.626C606.251 294.612 605.97 293.885 605.97 292.971C605.963 289.287 605.963 285.595 605.985 281.911C605.992 281.126 606.33 280.536 607.222 280.471C608.279 280.392 608.768 280.961 608.783 281.947C608.797 283.839 608.783 285.739 608.783 287.646Z" fill="#C9D3D2"/>
<path d="M614.573 267.972C614.573 266.309 614.558 264.64 614.58 262.977C614.594 261.984 614.695 261.006 616.061 261.042C617.176 261.07 617.414 261.833 617.414 262.74C617.421 266.309 617.421 269.879 617.414 273.448C617.414 274.333 617.234 275.139 616.119 275.204C614.767 275.283 614.587 274.355 614.58 273.333C614.565 271.541 614.573 269.756 614.573 267.972Z" fill="#C9D3D2"/>
<path d="M608.775 268.044C608.775 269.943 608.797 271.85 608.768 273.75C608.754 274.535 608.423 275.132 607.538 275.197C606.488 275.276 605.977 274.707 605.977 273.721C605.963 269.915 605.963 266.108 606.006 262.308C606.013 261.488 606.531 261.027 607.387 261.042C608.243 261.049 608.732 261.524 608.754 262.337C608.797 264.237 608.768 266.144 608.768 268.044H608.775Z" fill="#C9D3D2"/>
<path d="M600.18 267.914C600.18 269.699 600.194 271.483 600.173 273.268C600.158 274.261 600.065 275.24 598.698 275.211C597.59 275.182 597.346 274.427 597.339 273.52C597.331 269.951 597.324 266.381 597.339 262.819C597.339 261.934 597.511 261.128 598.633 261.056C599.986 260.977 600.173 261.898 600.18 262.927C600.187 264.582 600.173 266.245 600.18 267.914Z" fill="#C9D3D2"/>
<path d="M565.676 307.824C565.676 309.486 565.69 311.156 565.669 312.818C565.654 313.811 565.554 314.79 564.18 314.747C563.072 314.718 562.835 313.955 562.828 313.049C562.82 309.479 562.82 305.91 562.828 302.348C562.828 301.455 563.007 300.657 564.13 300.599C565.482 300.527 565.654 301.455 565.669 302.477C565.69 304.255 565.676 306.039 565.676 307.824Z" fill="#C9D3D2"/>
<path d="M591.535 268.231C591.535 270.015 591.549 271.8 591.535 273.585C591.527 274.513 591.218 275.218 590.11 275.211C589.003 275.197 588.722 274.47 588.715 273.556C588.708 269.872 588.708 266.18 588.729 262.495C588.737 261.711 589.075 261.121 589.967 261.056C591.024 260.977 591.513 261.546 591.527 262.531C591.549 264.424 591.535 266.331 591.535 268.231Z" fill="#C9D3D2"/>
<path d="M580.091 267.993C580.091 266.209 580.076 264.424 580.098 262.639C580.112 261.704 580.443 261.013 581.551 261.042C582.659 261.078 582.91 261.819 582.917 262.733C582.932 266.302 582.932 269.871 582.925 273.441C582.925 274.326 582.766 275.139 581.644 275.204C580.299 275.29 580.098 274.376 580.091 273.347C580.076 271.563 580.083 269.778 580.083 267.993C580.083 267.993 580.083 267.993 580.091 267.993Z" fill="#C9D3D2"/>
<path d="M571.452 267.957C571.452 266.295 571.438 264.625 571.459 262.963C571.474 261.963 571.596 260.999 572.963 261.049C574.078 261.092 574.293 261.862 574.3 262.769C574.308 266.338 574.308 269.907 574.3 273.47C574.3 274.362 574.099 275.153 572.984 275.204C571.625 275.269 571.474 274.326 571.467 273.311C571.438 271.527 571.452 269.742 571.452 267.957Z" fill="#C9D3D2"/>
<path d="M574.286 307.795C574.286 309.58 574.301 311.365 574.279 313.149C574.265 314.085 573.934 314.776 572.833 314.747C571.726 314.718 571.467 313.977 571.467 313.063C571.46 309.494 571.452 305.924 571.46 302.355C571.46 301.47 571.618 300.657 572.74 300.585C574.092 300.498 574.286 301.405 574.294 302.441C574.301 304.226 574.294 306.011 574.294 307.795C574.301 307.795 574.294 307.795 574.286 307.795Z" fill="#C9D3D2"/>
<path d="M614.587 307.536C614.587 305.752 614.573 303.967 614.594 302.182C614.609 301.254 614.932 300.556 616.04 300.585C617.148 300.614 617.407 301.355 617.414 302.262C617.428 305.831 617.428 309.4 617.421 312.962C617.421 313.84 617.263 314.661 616.141 314.74C614.796 314.826 614.587 313.919 614.58 312.883C614.565 311.098 614.58 309.314 614.58 307.529C614.58 307.536 614.587 307.536 614.587 307.536Z" fill="#C9D3D2"/>
<path d="M591.542 307.687C591.542 309.472 591.549 311.257 591.535 313.041C591.527 313.948 591.304 314.704 590.19 314.754C589.096 314.805 588.722 314.128 588.715 313.185C588.701 309.501 588.701 305.809 588.715 302.125C588.722 301.168 589.139 300.527 590.218 300.592C591.333 300.657 591.52 301.441 591.527 302.341C591.549 304.118 591.542 305.903 591.542 307.687Z" fill="#C9D3D2"/>
<path d="M617.428 248.499C617.428 250.283 617.442 252.068 617.42 253.853C617.406 254.846 617.313 255.824 615.946 255.796C614.838 255.767 614.594 255.011 614.586 254.105C614.579 250.535 614.572 246.966 614.586 243.404C614.586 242.519 614.759 241.713 615.881 241.641C617.233 241.562 617.42 242.483 617.428 243.512C617.435 245.167 617.428 246.836 617.428 248.499Z" fill="#C9D3D2"/>
<path d="M605.949 248.499C605.949 246.836 605.942 245.167 605.956 243.505C605.963 242.475 606.15 241.554 607.503 241.633C608.625 241.698 608.797 242.504 608.797 243.397C608.805 246.966 608.805 250.535 608.797 254.097C608.797 255.004 608.553 255.767 607.438 255.788C606.071 255.817 605.971 254.839 605.963 253.853C605.935 252.068 605.949 250.283 605.949 248.499Z" fill="#C9D3D2"/>
<path d="M600.172 307.903C600.172 309.566 600.179 311.235 600.172 312.897C600.165 313.934 599.956 314.84 598.611 314.747C597.482 314.675 597.338 313.855 597.338 312.969C597.331 309.4 597.331 305.831 597.345 302.262C597.345 301.348 597.611 300.606 598.719 300.585C599.827 300.556 600.15 301.254 600.165 302.19C600.186 304.089 600.172 305.996 600.172 307.896C600.165 307.903 600.172 307.903 600.172 307.903Z" fill="#C9D3D2"/>
<path d="M608.804 307.824C608.804 309.487 608.819 311.156 608.797 312.818C608.783 313.811 608.682 314.79 607.308 314.747C606.2 314.718 605.963 313.955 605.956 313.049C605.949 309.479 605.949 305.91 605.956 302.348C605.956 301.456 606.136 300.657 607.258 300.599C608.61 300.527 608.783 301.456 608.797 302.477C608.811 304.255 608.804 306.04 608.804 307.824Z" fill="#C9D3D2"/>
<path d="M600.158 248.995C600.151 250.78 600.173 252.565 600.144 254.349C600.129 255.134 599.799 255.724 598.914 255.796C597.857 255.875 597.36 255.306 597.353 254.321C597.331 250.636 597.331 246.944 597.346 243.26C597.346 242.332 597.662 241.626 598.77 241.634C599.878 241.648 600.158 242.375 600.165 243.289C600.173 245.189 600.165 247.096 600.158 248.995Z" fill="#C9D3D2"/>
<path d="M591.534 248.787C591.541 250.571 591.548 252.356 591.534 254.141C591.527 255.054 591.246 255.788 590.139 255.796C589.031 255.81 588.722 255.098 588.714 254.169C588.7 250.485 588.7 246.793 588.722 243.109C588.729 242.123 589.225 241.554 590.283 241.634C591.167 241.698 591.505 242.296 591.512 243.08C591.548 244.98 591.527 246.88 591.534 248.787Z" fill="#C9D3D2"/>
<path d="M557.038 268.202C557.045 269.987 557.052 271.771 557.038 273.556C557.031 274.477 556.75 275.197 555.642 275.211C554.535 275.225 554.225 274.513 554.225 273.585C554.211 269.9 554.211 266.209 554.233 262.524C554.24 261.538 554.743 260.97 555.794 261.049C556.678 261.114 557.016 261.711 557.023 262.495C557.045 264.395 557.031 266.295 557.038 268.202Z" fill="#C9D3D2"/>
<path d="M557.037 287.668C557.037 289.452 557.052 291.237 557.03 293.022C557.016 293.957 556.685 294.648 555.577 294.619C554.47 294.583 554.218 293.842 554.211 292.928C554.196 289.359 554.196 285.789 554.204 282.22C554.204 281.335 554.362 280.522 555.484 280.457C556.829 280.371 557.03 281.285 557.037 282.314C557.052 284.098 557.037 285.883 557.037 287.668C557.045 287.668 557.045 287.668 557.037 287.668Z" fill="#C9D3D2"/>
<path d="M582.917 248.736C582.917 250.521 582.924 252.305 582.909 254.09C582.902 254.997 582.672 255.752 581.557 255.796C580.457 255.839 580.097 255.155 580.09 254.22C580.076 250.535 580.076 246.844 580.09 243.159C580.097 242.195 580.521 241.562 581.608 241.633C582.722 241.705 582.902 242.497 582.909 243.389C582.924 245.167 582.917 246.951 582.917 248.736Z" fill="#C9D3D2"/>
<path d="M574.301 248.859C574.301 250.521 574.315 252.19 574.293 253.853C574.279 254.846 574.178 255.824 572.812 255.788C571.697 255.76 571.459 254.997 571.459 254.09C571.452 250.521 571.452 246.952 571.459 243.382C571.459 242.497 571.639 241.691 572.754 241.626C574.106 241.547 574.286 242.475 574.293 243.497C574.315 245.296 574.301 247.074 574.301 248.859Z" fill="#C9D3D2"/>
<path d="M565.675 248.916C565.675 250.578 565.683 252.248 565.668 253.91C565.661 254.932 565.481 255.86 564.129 255.789C563.007 255.724 562.834 254.918 562.834 254.033C562.827 250.463 562.827 246.894 562.834 243.325C562.834 242.418 563.072 241.655 564.186 241.634C565.553 241.598 565.661 242.576 565.668 243.569C565.697 245.347 565.675 247.132 565.675 248.916Z" fill="#C9D3D2"/>
<path d="M582.924 307.882C582.924 309.551 582.931 311.214 582.917 312.883C582.91 313.912 582.716 314.833 581.363 314.747C580.241 314.675 580.083 313.862 580.076 312.977C580.062 309.522 580.054 306.075 580.069 302.621C580.069 301.657 580.076 300.628 581.45 300.585C582.824 300.542 582.91 301.535 582.917 302.528C582.946 304.312 582.931 306.097 582.924 307.882Z" fill="#C9D3D2"/>
<path d="M554.197 248.549C554.197 246.887 554.182 245.217 554.204 243.555C554.218 242.555 554.333 241.59 555.7 241.634C556.815 241.67 557.038 242.44 557.045 243.339C557.052 246.908 557.052 250.478 557.045 254.04C557.045 254.932 556.851 255.724 555.736 255.781C554.384 255.853 554.218 254.911 554.211 253.896C554.19 252.118 554.204 250.334 554.197 248.549Z" fill="#C9D3D2"/>
<path d="M591.556 287.689C591.556 289.352 591.57 291.021 591.548 292.683C591.534 293.676 591.433 294.655 590.06 294.612C588.952 294.583 588.714 293.82 588.707 292.914C588.7 289.344 588.7 285.775 588.707 282.213C588.707 281.321 588.887 280.522 590.009 280.464C591.361 280.392 591.534 281.321 591.548 282.342C591.563 284.12 591.548 285.905 591.556 287.689Z" fill="#C9D3D2"/>
<path d="M617.421 229.35C617.421 231.134 617.428 232.919 617.414 234.704C617.407 235.618 617.148 236.359 616.04 236.38C614.939 236.409 614.601 235.711 614.594 234.783C614.573 231.213 614.573 227.651 614.58 224.082C614.58 223.046 614.796 222.139 616.141 222.225C617.263 222.297 617.414 223.118 617.421 224.003C617.428 225.78 617.421 227.565 617.421 229.35Z" fill="#C9D3D2"/>
<path d="M608.804 229.501C608.804 231.163 608.811 232.833 608.797 234.495C608.79 235.517 608.617 236.445 607.258 236.373C606.143 236.308 605.956 235.51 605.956 234.624C605.949 231.055 605.949 227.486 605.956 223.924C605.956 223.017 606.193 222.254 607.308 222.225C608.675 222.189 608.783 223.161 608.797 224.154C608.819 225.939 608.804 227.716 608.804 229.501Z" fill="#C9D3D2"/>
<path d="M582.924 287.696C582.924 289.359 582.938 291.028 582.917 292.691C582.902 293.691 582.787 294.655 581.42 294.612C580.306 294.576 580.083 293.806 580.075 292.906C580.068 289.337 580.068 285.768 580.075 282.206C580.075 281.313 580.27 280.522 581.384 280.464C582.737 280.392 582.902 281.335 582.909 282.35C582.938 284.127 582.924 285.912 582.924 287.696Z" fill="#C9D3D2"/>
<path d="M600.158 229.429C600.158 231.214 600.172 232.998 600.151 234.783C600.136 235.718 599.805 236.409 598.705 236.38C597.597 236.352 597.338 235.61 597.338 234.696C597.331 231.127 597.324 227.558 597.331 223.989C597.331 223.103 597.489 222.29 598.611 222.218C599.964 222.132 600.158 223.039 600.165 224.075C600.172 225.86 600.165 227.644 600.165 229.429C600.172 229.429 600.165 229.429 600.158 229.429Z" fill="#C9D3D2"/>
<path d="M588.714 229.17C588.714 227.385 588.7 225.6 588.722 223.816C588.736 222.88 589.067 222.189 590.175 222.218C591.282 222.254 591.534 222.995 591.541 223.909C591.548 227.479 591.556 231.048 591.548 234.617C591.548 235.502 591.39 236.316 590.268 236.38C588.923 236.467 588.722 235.553 588.714 234.524C588.7 232.739 588.707 230.954 588.707 229.17C588.707 229.17 588.707 229.17 588.714 229.17Z" fill="#C9D3D2"/>
<path d="M617.406 287.775C617.406 289.56 617.42 291.345 617.399 293.129C617.384 294.115 616.917 294.698 615.852 294.619C614.968 294.554 614.608 293.986 614.601 293.194C614.579 289.503 614.579 285.818 614.586 282.126C614.586 281.213 614.853 280.479 615.967 280.45C617.075 280.428 617.399 281.126 617.406 282.062C617.428 283.969 617.413 285.876 617.406 287.775Z" fill="#C9D3D2"/>
<path d="M582.909 229.407C582.909 231.192 582.924 232.977 582.909 234.761C582.902 235.69 582.593 236.395 581.485 236.388C580.378 236.373 580.097 235.646 580.09 234.733C580.083 231.048 580.083 227.356 580.104 223.672C580.111 222.888 580.45 222.297 581.341 222.233C582.399 222.154 582.888 222.722 582.902 223.708C582.924 225.601 582.902 227.5 582.909 229.407Z" fill="#C9D3D2"/>
<path d="M574.3 229.083C574.3 230.868 574.314 232.653 574.292 234.437C574.278 235.43 574.184 236.409 572.818 236.38C571.71 236.352 571.466 235.596 571.458 234.689C571.451 231.12 571.444 227.551 571.458 223.989C571.458 223.103 571.631 222.297 572.753 222.225C574.105 222.146 574.292 223.067 574.3 224.096C574.314 225.759 574.3 227.421 574.3 229.083Z" fill="#C9D3D2"/>
<path d="M565.661 229.371C565.668 231.156 565.675 232.941 565.661 234.725C565.654 235.639 565.373 236.373 564.266 236.38C563.158 236.395 562.849 235.682 562.842 234.754C562.827 231.07 562.827 227.378 562.849 223.693C562.856 222.708 563.352 222.139 564.41 222.218C565.294 222.283 565.632 222.88 565.64 223.665C565.675 225.564 565.654 227.471 565.661 229.371Z" fill="#C9D3D2"/>
<path d="M557.052 229.458C557.052 231.12 557.067 232.79 557.045 234.452C557.031 235.452 556.916 236.416 555.549 236.373C554.434 236.337 554.211 235.567 554.204 234.668C554.197 231.098 554.197 227.529 554.204 223.967C554.204 223.075 554.398 222.283 555.513 222.226C556.865 222.154 557.031 223.096 557.038 224.111C557.067 225.896 557.052 227.68 557.052 229.458Z" fill="#C9D3D2"/>
<path d="M565.676 268.274C565.676 269.936 565.69 271.606 565.669 273.268C565.654 274.261 565.554 275.24 564.18 275.197C563.072 275.168 562.835 274.405 562.828 273.498C562.82 269.929 562.82 266.36 562.828 262.798C562.828 261.905 563.007 261.106 564.13 261.049C565.482 260.977 565.654 261.905 565.669 262.927C565.69 264.712 565.676 266.496 565.676 268.274Z" fill="#C9D3D2"/>
<path d="M571.452 287.387C571.452 285.725 571.438 284.055 571.459 282.393C571.474 281.4 571.574 280.421 572.948 280.464C574.056 280.493 574.293 281.256 574.3 282.162C574.308 285.732 574.308 289.301 574.3 292.863C574.3 293.756 574.121 294.554 572.999 294.612C571.646 294.684 571.474 293.756 571.459 292.734C571.438 290.949 571.452 289.172 571.452 287.387Z" fill="#C9D3D2"/>
<path d="M565.661 287.668C565.661 289.452 565.675 291.237 565.654 293.022C565.639 293.95 565.316 294.648 564.208 294.619C563.1 294.59 562.841 293.849 562.834 292.942C562.82 289.373 562.82 285.804 562.827 282.242C562.827 281.364 562.985 280.543 564.107 280.464C565.452 280.378 565.661 281.285 565.668 282.321C565.683 284.106 565.668 285.89 565.668 287.675C565.668 287.668 565.668 287.668 565.661 287.668Z" fill="#C9D3D2"/>
<path d="M600.165 287.545C600.165 289.33 600.173 291.115 600.158 292.899C600.151 293.799 599.935 294.569 598.82 294.619C597.727 294.669 597.346 294 597.339 293.058C597.324 289.373 597.324 285.681 597.339 281.997C597.346 281.04 597.749 280.392 598.842 280.457C599.957 280.522 600.151 281.299 600.158 282.198C600.18 283.976 600.165 285.761 600.165 287.545Z" fill="#C9D3D2"/>
<path d="M611.689 53.6979C611.689 52.273 611.789 50.841 611.667 49.4234C611.473 47.1422 612.595 46.6024 614.638 46.6312C616.501 46.66 617.544 47.0846 617.457 49.2219C617.342 52.309 617.342 55.4034 617.457 58.4833C617.536 60.599 616.544 61.074 614.659 61.0956C612.638 61.1172 611.466 60.6422 611.66 58.3322C611.797 56.7994 611.689 55.2451 611.689 53.6979Z" fill="#D9E0E0"/>
<path d="M629.656 53.7771C629.656 55.0868 629.57 56.3965 629.677 57.699C629.879 59.9946 629.303 61.1675 626.606 61.1388C623.902 61.11 623.844 59.6563 623.894 57.7062C623.959 54.8565 624.002 51.9996 623.887 49.1571C623.794 46.9479 624.995 46.6528 626.779 46.6528C628.563 46.6528 629.828 46.9263 629.67 49.1499C629.562 50.6827 629.649 52.2299 629.656 53.7771Z" fill="#D9E0E0"/>
<path d="M641.869 53.885C641.869 55.1947 641.797 56.5044 641.891 57.8069C642.027 59.8722 641.66 61.146 639.071 61.1316C636.654 61.1172 635.985 60.1817 636.093 57.9509C636.23 55.1084 636.237 52.2443 636.093 49.4018C635.978 47.0846 637.093 46.6241 639.107 46.6384C641.006 46.6528 642.042 47.1566 641.891 49.2579C641.783 50.7906 641.869 52.3378 641.869 53.885Z" fill="#D9E0E0"/>
<path d="M655.528 53.8418C655.528 55.1515 655.471 56.4613 655.543 57.7638C655.658 59.7787 655.413 61.11 652.773 61.1388C650.011 61.1748 649.659 59.865 649.752 57.6342C649.875 54.9069 649.889 52.1651 649.745 49.4378C649.63 47.171 650.652 46.6457 652.716 46.6241C654.924 46.5953 655.722 47.4372 655.55 49.5673C655.435 50.9778 655.528 52.417 655.528 53.8418Z" fill="#D9E0E0"/>
<path d="M599.468 53.7771C599.468 52.4674 599.554 51.1577 599.446 49.8552C599.274 47.6964 599.842 46.6025 602.345 46.6025C604.855 46.6025 605.337 47.7108 605.244 49.8624C605.122 52.5898 605.093 55.3315 605.251 58.0589C605.388 60.4264 604.453 61.1244 602.158 61.1173C599.82 61.1173 599.317 60.0378 599.446 58.0517C599.547 56.6268 599.468 55.202 599.468 53.7771Z" fill="#D9E0E0"/>
<path d="M605.215 97.6307C605.215 98.9404 605.129 100.25 605.237 101.553C605.438 103.848 604.863 105.021 602.165 104.992C599.461 104.964 599.403 103.51 599.454 101.56C599.518 98.7101 599.562 95.8532 599.447 93.0107C599.353 90.8015 600.554 90.5065 602.338 90.5065C604.122 90.5065 605.388 90.7799 605.229 93.0036C605.129 94.5363 605.215 96.0907 605.215 97.6307Z" fill="#D9E0E0"/>
<path d="M617.435 97.8897C617.435 99.3146 617.334 100.747 617.456 102.164C617.651 104.445 616.528 104.985 614.486 104.956C612.623 104.928 611.58 104.503 611.666 102.366C611.781 99.2786 611.781 96.1842 611.666 93.1042C611.587 90.9886 612.58 90.5136 614.464 90.492C616.485 90.4704 617.658 90.9454 617.464 93.2554C617.334 94.7881 617.435 96.3425 617.435 97.8897Z" fill="#D9E0E0"/>
<path d="M605.223 75.9557C605.223 77.143 605.129 78.3376 605.244 79.5178C605.453 81.7558 604.683 82.6769 602.273 82.6913C599.67 82.7129 599.368 81.4248 599.454 79.3595C599.555 76.9919 599.547 74.61 599.454 72.2352C599.375 70.2059 599.627 68.9106 602.245 68.8746C605.021 68.8386 605.41 70.1771 605.237 72.3863C605.143 73.5809 605.223 74.7683 605.223 75.9557Z" fill="#D9E0E0"/>
<path d="M617.435 75.6967C617.435 77.0064 617.335 78.3161 617.457 79.6114C617.687 81.9645 616.694 82.6914 614.393 82.6842C612.069 82.677 611.588 81.6335 611.667 79.6258C611.767 76.8984 611.789 74.1639 611.667 71.4365C611.573 69.2273 612.767 68.9251 614.558 68.9323C616.335 68.9394 617.615 69.1985 617.457 71.4221C617.349 72.8398 617.435 74.2718 617.435 75.6967Z" fill="#D9E0E0"/>
<path d="M623.908 75.7038C623.908 74.5165 623.987 73.3219 623.887 72.1417C623.707 69.9829 624.282 68.8962 626.785 68.889C629.296 68.889 629.792 69.9973 629.684 72.1489C629.562 74.6388 629.533 77.1431 629.691 79.6258C629.842 81.9933 628.893 82.6913 626.598 82.6841C624.261 82.6841 623.75 81.6047 623.887 79.6186C623.98 78.3232 623.908 77.0063 623.908 75.7038Z" fill="#D9E0E0"/>
<path d="M641.877 75.9702C641.877 77.0352 641.805 78.1146 641.891 79.1725C642.064 81.3673 641.704 82.7346 638.914 82.6986C636.31 82.6626 636.022 81.3961 636.108 79.3524C636.202 76.9848 636.202 74.6029 636.108 72.2281C636.029 70.1844 636.31 68.9179 638.914 68.8819C641.704 68.8459 642.057 70.2132 641.891 72.4081C641.805 73.5954 641.877 74.7828 641.877 75.9702Z" fill="#D9E0E0"/>
<path d="M871.153 281.824C871.153 279.795 871.218 277.766 871.132 275.744C871.053 273.743 871.218 272.383 873.894 272.354C876.656 272.325 876.987 273.606 876.929 275.844C876.814 280.256 876.8 284.667 876.936 289.078C877.008 291.352 876.052 291.885 873.973 291.906C871.772 291.928 870.995 291.136 871.117 288.977C871.254 286.603 871.153 284.213 871.153 281.824Z" fill="#C9D3D2"/>
<path d="M861.803 282.285C861.803 284.552 861.688 286.826 861.832 289.078C861.983 291.359 860.947 291.877 858.869 291.899C856.66 291.928 855.956 291.122 856.013 288.97C856.135 284.321 856.128 279.673 856.02 275.024C855.97 272.923 856.876 272.397 858.797 272.39C860.796 272.383 861.976 272.779 861.832 275.132C861.688 277.514 861.803 279.903 861.803 282.285Z" fill="#C9D3D2"/>
<path d="M890.552 281.947C890.552 284.329 890.473 286.718 890.573 289.1C890.66 291.028 890.07 291.935 887.962 291.892C886.078 291.856 885.466 291.122 885.495 289.316C885.567 284.545 885.567 279.773 885.495 275.002C885.474 273.239 885.999 272.419 887.919 272.39C889.983 272.361 890.66 273.182 890.566 275.146C890.473 277.413 890.552 279.68 890.552 281.947Z" fill="#C9D3D2"/>
<path d="M275.296 187.202C275.296 188.627 275.289 190.044 275.296 191.469C275.303 192.836 274.562 193.311 273.282 193.34C271.872 193.369 271.002 192.93 271.009 191.354C271.031 188.389 271.031 185.424 271.002 182.467C270.988 180.927 271.764 180.408 273.21 180.408C274.735 180.408 275.346 181.106 275.31 182.575C275.274 184.114 275.303 185.654 275.303 187.194C275.31 187.202 275.303 187.202 275.296 187.202Z" fill="#D2DAD9"/>
<path d="M275.311 207.768C275.311 209.193 275.282 210.611 275.318 212.036C275.361 213.511 274.735 214.195 273.218 214.202C271.765 214.202 270.995 213.676 271.009 212.144C271.038 209.179 271.038 206.214 271.017 203.256C271.002 201.673 271.88 201.249 273.29 201.277C274.577 201.306 275.311 201.788 275.304 203.156C275.296 204.696 275.304 206.236 275.304 207.776C275.304 207.768 275.311 207.768 275.311 207.768Z" fill="#D2DAD9"/>
<path d="M275.303 228.544C275.303 230.084 275.296 231.624 275.303 233.171C275.31 234.538 274.577 235.02 273.296 235.049C271.894 235.078 271.009 234.66 271.023 233.077C271.045 230.112 271.045 227.148 271.016 224.183C271.002 222.65 271.764 222.117 273.217 222.117C274.735 222.117 275.361 222.801 275.325 224.276C275.289 225.701 275.318 227.119 275.318 228.544C275.31 228.544 275.303 228.544 275.303 228.544Z" fill="#D2DAD9"/>
<path d="M250.143 186.935C250.143 188.475 250.136 190.015 250.143 191.563C250.143 192.721 249.56 193.297 248.402 193.311C247.258 193.318 246.611 192.808 246.611 191.627C246.597 188.547 246.604 185.46 246.59 182.38C246.582 181.071 247.151 180.401 248.524 180.459C249.754 180.509 250.15 181.229 250.157 182.323C250.15 183.855 250.143 185.395 250.143 186.935Z" fill="#D2DAD9"/>
<path d="M261.63 186.979C261.637 188.519 261.637 190.059 261.637 191.606C261.63 192.779 261.004 193.318 259.861 193.311C258.71 193.311 258.098 192.757 258.098 191.584C258.098 188.382 258.091 185.179 258.12 181.977C258.127 180.984 258.703 180.495 259.702 180.459C260.803 180.416 261.594 180.768 261.623 181.999C261.652 183.654 261.63 185.316 261.63 186.979Z" fill="#D2DAD9"/>
<path d="M282.54 186.993C282.54 185.331 282.518 183.675 282.554 182.013C282.576 180.79 283.353 180.416 284.453 180.452C285.439 180.488 286.043 180.955 286.05 181.956C286.079 185.158 286.072 188.36 286.072 191.563C286.072 192.728 285.489 193.297 284.331 193.304C283.187 193.311 282.547 192.793 282.54 191.613C282.533 190.08 282.54 188.533 282.54 186.993Z" fill="#D2DAD9"/>
<path d="M295.479 186.612C295.486 185.072 295.458 183.524 295.494 181.984C295.522 180.754 296.321 180.416 297.421 180.452C298.421 180.488 298.989 180.991 298.997 181.977C299.025 185.179 299.011 188.382 299.018 191.584C299.018 192.757 298.4 193.304 297.249 193.304C296.098 193.304 295.479 192.764 295.479 191.591C295.472 189.936 295.472 188.274 295.479 186.612Z" fill="#D2DAD9"/>
<path d="M306.24 186.698C306.24 185.273 306.247 183.848 306.24 182.431C306.233 181.157 306.722 180.408 308.117 180.452C309.311 180.495 309.8 181.128 309.8 182.258C309.8 185.338 309.793 188.425 309.8 191.505C309.8 192.642 309.297 193.268 308.11 193.304C306.707 193.347 306.233 192.584 306.24 191.318C306.247 189.778 306.24 188.238 306.24 186.698Z" fill="#D2DAD9"/>
<path d="M246.583 207.545C246.583 206.12 246.59 204.696 246.583 203.278C246.576 202.004 247.065 201.256 248.46 201.299C249.654 201.342 250.143 201.975 250.143 203.105C250.143 206.185 250.136 209.272 250.143 212.352C250.143 213.489 249.64 214.115 248.453 214.151C247.05 214.194 246.576 213.432 246.583 212.165C246.59 210.632 246.583 209.092 246.583 207.545Z" fill="#D2DAD9"/>
<path d="M261.63 207.639C261.63 209.301 261.659 210.956 261.623 212.619C261.594 213.856 260.789 214.187 259.695 214.144C258.688 214.108 258.134 213.604 258.127 212.611C258.099 209.409 258.113 206.207 258.106 203.004C258.106 201.831 258.731 201.285 259.875 201.292C261.026 201.292 261.637 201.839 261.645 203.012C261.645 204.552 261.645 206.092 261.645 207.639C261.637 207.639 261.63 207.639 261.63 207.639Z" fill="#D2DAD9"/>
<path d="M286.064 207.668C286.064 209.33 286.086 210.985 286.057 212.647C286.035 213.648 285.445 214.115 284.46 214.151C283.352 214.187 282.568 213.813 282.561 212.59C282.532 209.387 282.54 206.185 282.547 202.983C282.547 201.803 283.201 201.285 284.338 201.292C285.496 201.299 286.078 201.875 286.078 203.04C286.078 204.58 286.078 206.12 286.078 207.668C286.071 207.668 286.064 207.668 286.064 207.668Z" fill="#D2DAD9"/>
<path d="M309.808 207.912C309.808 209.337 309.801 210.762 309.808 212.18C309.815 213.453 309.326 214.202 307.931 214.158C306.737 214.115 306.247 213.482 306.247 212.352C306.247 209.272 306.255 206.185 306.247 203.105C306.247 201.968 306.751 201.342 307.938 201.306C309.34 201.263 309.815 202.026 309.808 203.292C309.801 204.825 309.808 206.372 309.808 207.912Z" fill="#D2DAD9"/>
<path d="M250.129 228.493C250.129 230.156 250.158 231.811 250.122 233.473C250.093 234.704 249.287 235.042 248.194 235.006C247.194 234.97 246.633 234.466 246.619 233.473C246.59 230.271 246.604 227.069 246.597 223.866C246.597 222.693 247.216 222.146 248.367 222.146C249.51 222.146 250.136 222.693 250.136 223.866C250.136 225.406 250.136 226.946 250.136 228.493H250.129Z" fill="#D2DAD9"/>
<path d="M261.637 228.695C261.637 230.235 261.644 231.775 261.637 233.322C261.63 234.502 260.982 235.02 259.846 235.013C258.688 235.006 258.105 234.43 258.105 233.264C258.105 230.185 258.098 227.097 258.098 224.017C258.098 222.924 258.494 222.204 259.723 222.154C261.09 222.096 261.666 222.765 261.658 224.075C261.651 225.615 261.658 227.155 261.658 228.702C261.644 228.695 261.637 228.695 261.637 228.695Z" fill="#D2DAD9"/>
<path d="M286.086 228.45C286.086 229.99 286.078 231.537 286.086 233.077C286.093 234.38 285.539 235.064 284.158 235.006C282.935 234.956 282.518 234.25 282.518 233.149C282.518 230.069 282.525 226.982 282.525 223.902C282.525 222.744 283.093 222.161 284.259 222.146C285.402 222.132 286.05 222.643 286.057 223.823C286.071 225.363 286.057 226.903 286.057 228.45C286.078 228.45 286.086 228.45 286.086 228.45Z" fill="#D2DAD9"/>
<path d="M299.018 228.573C299.018 230.113 299.018 231.653 299.018 233.2C299.018 234.329 298.529 234.977 297.335 235.006C296.205 235.028 295.493 234.581 295.486 233.387C295.465 230.184 295.472 226.982 295.486 223.78C295.493 222.585 296.198 222.125 297.328 222.154C298.522 222.175 299.025 222.816 299.018 223.953C299.011 225.493 299.018 227.033 299.018 228.573Z" fill="#D2DAD9"/>
<path d="M299.004 207.646C299.004 209.308 299.033 210.971 298.997 212.626C298.968 213.856 298.162 214.195 297.069 214.151C296.062 214.115 295.508 213.612 295.501 212.619C295.472 209.416 295.487 206.214 295.487 203.012C295.487 201.839 296.112 201.292 297.256 201.299C298.407 201.299 299.018 201.846 299.025 203.019C299.025 204.559 299.025 206.106 299.025 207.646C299.011 207.646 299.004 207.646 299.004 207.646Z" fill="#D2DAD9"/>
<path d="M306.24 228.407C306.24 226.982 306.247 225.557 306.24 224.14C306.233 222.873 306.707 222.103 308.11 222.146C309.297 222.182 309.807 222.808 309.807 223.945C309.807 227.025 309.807 230.112 309.807 233.192C309.807 234.329 309.325 234.963 308.131 235.006C306.736 235.056 306.24 234.308 306.247 233.034C306.247 231.494 306.24 229.954 306.24 228.407Z" fill="#D2DAD9"/>
</g>
<defs>
<clipPath id="clip0_64_5245">
<rect width="1116" height="472" fill="white"/>
</clipPath>
</defs>
</svg>
