<svg width="65" height="64" viewBox="0 0 65 64" fill="none" xmlns="http://www.w3.org/2000/svg">
<ellipse cx="32.3216" cy="32" rx="32.3216" ry="32" fill="url(#paint0_linear_64_7368)"/>
<path d="M30.0328 45.7757C30.3744 45.7757 30.6521 46.0493 30.6521 46.3879C30.6521 46.7255 30.3744 47 30.0328 47H23.2603C21.538 47 19.9732 46.3041 18.8386 45.1828C17.7041 44.0615 17 42.5149 17 40.8126V23.1874C17 21.4851 17.7041 19.9386 18.8386 18.8172C19.9731 17.6959 21.538 17 23.2603 17H35.2174C36.9397 17 38.5045 17.6959 39.6391 18.8172C40.7736 19.9385 41.4777 21.4851 41.4777 23.1874V28.7119C41.4777 29.0496 41.2008 29.324 40.8583 29.324C40.5167 29.324 40.239 29.0504 40.239 28.7119V23.1874C40.239 21.8228 39.6737 20.5829 38.7637 19.6826C37.8538 18.7833 36.5982 18.2245 35.2177 18.2245H23.2606C21.8799 18.2245 20.6254 18.7833 19.7145 19.6826C18.8046 20.5819 18.2393 21.823 18.2393 23.1874V40.8126C18.2393 42.1772 18.8046 43.4171 19.7145 44.3174C20.6244 45.2167 21.8801 45.7755 23.2606 45.7755H30.0331L30.0328 45.7757ZM42.6833 41.8172L46.8183 45.9052C47.0606 46.1437 47.0606 46.532 46.8183 46.7704C46.577 47.0089 46.1841 47.0089 45.9429 46.7704L41.8069 42.6835C40.7522 43.5351 39.4041 44.0461 37.9357 44.0461C36.2447 44.0461 34.7136 43.3688 33.6047 42.2728C32.4958 41.178 31.8105 39.6645 31.8105 37.9923C31.8105 36.321 32.4958 34.8077 33.6047 33.7117C34.7136 32.6157 36.2438 31.9384 37.9357 31.9384C39.6266 31.9384 41.1577 32.6157 42.2666 33.7117C43.3744 34.8077 44.0608 36.3201 44.0608 37.9923C44.0608 39.4436 43.5438 40.7749 42.6822 41.8184L42.6833 41.8172ZM41.3924 34.5767C40.5082 33.7027 39.2871 33.1625 37.9368 33.1625C36.5877 33.1625 35.3655 33.7036 34.4812 34.5767C33.597 35.4507 33.0504 36.6587 33.0504 37.992C33.0504 39.3254 33.5979 40.5334 34.4812 41.4074C35.3655 42.2814 36.5878 42.8216 37.9368 42.8216C39.2859 42.8216 40.5082 42.2805 41.3924 41.4074C42.2767 40.5334 42.8233 39.3265 42.8233 37.992C42.8233 36.6586 42.2758 35.4507 41.3924 34.5767ZM22.5186 38.9244C22.177 38.9244 21.8993 38.6508 21.8993 38.3123C21.8993 37.9747 22.1761 37.7002 22.5186 37.7002H27.3173C27.659 37.7002 27.9367 37.9738 27.9367 38.3123C27.9367 38.6499 27.6599 38.9244 27.3173 38.9244H22.5186ZM22.5186 32.7782C22.177 32.7782 21.8993 32.5046 21.8993 32.1661C21.8993 31.8285 22.1761 31.554 22.5186 31.554H29.4594C29.8021 31.554 30.0787 31.8276 30.0787 32.1661C30.0787 32.5037 29.8019 32.7782 29.4594 32.7782H22.5186ZM22.5186 26.632C22.177 26.632 21.8993 26.3584 21.8993 26.0199C21.8993 25.6823 22.1761 25.4078 22.5186 25.4078H35.9616C36.3033 25.4078 36.581 25.6814 36.581 26.0199C36.581 26.3587 36.3042 26.632 35.9616 26.632H22.5186Z" fill="white" stroke="white" stroke-width="0.6"/>
<defs>
<linearGradient id="paint0_linear_64_7368" x1="32.3216" y1="0" x2="32.3216" y2="64" gradientUnits="userSpaceOnUse">
<stop stop-color="#3BB3C1"/>
<stop offset="1" stop-color="#1B8895"/>
</linearGradient>
</defs>
</svg>
