<svg width="65" height="64" viewBox="0 0 65 64" fill="none" xmlns="http://www.w3.org/2000/svg">
<ellipse cx="32.3216" cy="32" rx="32.3216" ry="32" fill="url(#paint0_linear_64_7380)"/>
<path d="M44.6053 17.0001H34.4487C33.8134 16.9947 33.2034 17.2475 32.7582 17.7005L17.9734 32.488C17.35 33.1129 17 33.9598 17 34.8425C17 35.7252 17.3501 36.572 17.9734 37.197L26.8049 46.0279H26.8047C27.4281 46.6533 28.2758 47.0034 29.159 47C30.042 47.0034 30.8897 46.6533 31.5128 46.0279L46.2998 31.2404V31.2402C46.7526 30.7949 47.0053 30.1847 46.9999 29.5494V19.3909C46.9991 18.7564 46.7466 18.1482 46.2976 17.6998C45.8487 17.2515 45.2402 16.9998 44.6058 17L44.6053 17.0001ZM45.5901 29.5498C45.5966 29.8123 45.4917 30.0654 45.3015 30.2462L30.5168 45.0358C30.1549 45.3945 29.6663 45.5959 29.1568 45.5959C28.6473 45.5959 28.1586 45.3946 27.7967 45.0358L18.9653 36.2028H18.9655C18.6053 35.8419 18.4031 35.3527 18.4031 34.8429C18.4031 34.3329 18.6053 33.8437 18.9655 33.4828L33.7519 18.6943C33.9328 18.5041 34.1857 18.3994 34.4481 18.4061H44.6048C44.8659 18.4063 45.116 18.5101 45.3006 18.6947C45.4854 18.8793 45.5891 19.1297 45.5896 19.3906L45.5901 29.5498ZM36.8324 27.8863C37.7121 28.921 38.2597 30.24 38.0136 31.4902V31.4904C37.9326 31.8648 37.5667 32.1056 37.1906 32.0316C36.8148 31.9577 36.5672 31.5962 36.6343 31.2188C36.8601 30.0702 35.847 28.4576 34.4203 27.6976C33.8477 27.392 32.7644 27.0013 31.9472 27.8184V27.8187C31.5892 28.1784 31.3881 28.6653 31.3881 29.1729C31.3881 29.6805 31.5892 30.1676 31.9472 30.5273L33.5614 32.1464C33.5655 32.1505 33.5685 32.155 33.5728 32.1586C33.5769 32.1625 33.581 32.1668 33.5851 32.1709C34.1577 32.8024 34.4655 33.6302 34.4444 34.4824C34.4231 35.3348 34.0748 36.1462 33.4714 36.7486C32.8989 37.3296 32.1152 37.6535 31.2997 37.646C30.6138 37.6327 29.9416 37.4508 29.3427 37.1164C28.9749 36.9178 28.6295 36.6801 28.3124 36.4076L27.3955 37.3247V37.3249C27.1185 37.5811 26.6885 37.5729 26.4214 37.3062C26.1543 37.0397 26.1453 36.6096 26.4012 36.3319L27.3492 35.3832C26.6154 34.4017 26.1886 33.2149 26.411 32.0839V32.0841C26.4439 31.8982 26.5503 31.7334 26.7061 31.6268C26.8616 31.5199 27.0538 31.4804 27.239 31.5169C27.4242 31.5533 27.5869 31.6626 27.6907 31.8204C27.7945 31.9782 27.8304 32.1709 27.7904 32.3556C27.5645 33.5039 28.5777 35.1163 30.0039 35.8767C30.5768 36.1823 31.6602 36.573 32.477 35.7559V35.7557C32.8234 35.4101 33.0241 34.9446 33.0377 34.4552C33.0514 33.966 32.8769 33.4899 32.5503 33.1254L30.9524 31.5212C30.3316 30.8975 29.983 30.0533 29.983 29.1731C29.983 28.293 30.3316 27.4488 30.9524 26.8251C32.0015 25.7758 33.545 25.638 35.081 26.4573L35.0812 26.4575C35.3348 26.5938 35.5776 26.7492 35.8076 26.9226L36.7531 25.9774H36.7529C36.8822 25.8351 37.064 25.7519 37.2563 25.7472C37.4485 25.7427 37.6341 25.8168 37.7701 25.9529C37.9062 26.0889 37.9803 26.2746 37.9758 26.4668C37.9711 26.6591 37.8879 26.8409 37.7456 26.9703L36.8324 27.8863Z" fill="white"/>
<defs>
<linearGradient id="paint0_linear_64_7380" x1="32.3216" y1="0" x2="32.3216" y2="64" gradientUnits="userSpaceOnUse">
<stop stop-color="#3BB3C1"/>
<stop offset="1" stop-color="#1B8895"/>
</linearGradient>
</defs>
</svg>
