<svg width="346" height="112" viewBox="0 0 346 112" fill="none" xmlns="http://www.w3.org/2000/svg">
<g clip-path="url(#clip0_64_7461)">
<path d="M55 111.415C55 111.74 55.1409 112 55.3164 112H290.684C290.859 112 291 111.74 291 111.415C291 111.091 290.859 110.83 290.684 110.83H55.3164C55.1409 110.83 55 111.091 55 111.415Z" fill="#3F3D56"/>
<path d="M248.354 48.777V110.059H95.1865V56.6129L100.269 43.7595H246.259L248.354 48.777Z" fill="#E6E6E6"/>
<path d="M257.534 70.7458L248.355 62.57L232.094 48.0908L207.965 71.4121L95.187 72.2117L89 72.2549L95.187 56.6131L100.27 43.7597L106.465 13.442L239.437 12.7756L246.259 43.7597L248.355 48.7771L257.534 70.7458Z" fill="black"/>
<path d="M190.654 62.5585H129.807V29.9086L160.23 15.7742L190.654 29.9086V62.5585Z" fill="#E6E6E6"/>
<path d="M126.791 76.5762H100.039V110.059H126.791V76.5762Z" fill="white"/>
<path d="M185.54 76.5762H137.02V110.059H185.54V76.5762Z" fill="white"/>
<path d="M202.85 79.2415H194.72V110.059H202.85V79.2415Z" fill="white"/>
<path d="M238.139 72.2537H221.597V93.5089H238.139V72.2537Z" fill="#3BB3C1"/>
<path d="M230.343 72.2537H229.202V93.5089H230.343V72.2537Z" fill="#E6E6E6"/>
<path d="M185.421 35.6057H168.879V56.8609H185.421V35.6057Z" fill="#3BB3C1"/>
<path d="M177.625 35.6057H176.484V56.8609H177.625V35.6057Z" fill="#E6E6E6"/>
<path d="M154.998 35.6057H138.455V56.8609H154.998V35.6057Z" fill="#3BB3C1"/>
<path d="M147.201 35.6057H146.061V56.8609H147.201V35.6057Z" fill="#E6E6E6"/>
<path d="M204.837 55.0125H197.099V64.8422H204.837V55.0125Z" fill="#3F3D56"/>
<path d="M174.869 0H171V15.7276H174.869V0Z" fill="#E6E6E6"/>
</g>
<defs>
<clipPath id="clip0_64_7461">
<rect width="346" height="112" fill="white"/>
</clipPath>
</defs>
</svg>
