<svg width="65" height="64" viewBox="0 0 65 64" fill="none" xmlns="http://www.w3.org/2000/svg">
<ellipse cx="32.3216" cy="32" rx="32.3216" ry="32" fill="url(#paint0_linear_64_7405)"/>
<path fill-rule="evenodd" clip-rule="evenodd" d="M38.8445 27.1761C39.0479 27.3796 39.1621 27.6556 39.1621 27.9433C39.1621 28.231 39.0479 28.507 38.8445 28.7106L32.7643 34.7908C32.6508 34.9043 32.5134 34.9913 32.3622 35.0453C32.2111 35.0994 32.0498 35.1192 31.89 35.1034C31.7302 35.0876 31.5759 35.0366 31.4382 34.954C31.3005 34.8714 31.1828 34.7593 31.0937 34.6258L29.5114 32.253L25.8155 35.949C25.6096 36.1407 25.3374 36.2452 25.0561 36.2402C24.7748 36.2352 24.5065 36.1213 24.3075 35.9224C24.1086 35.7234 23.9947 35.455 23.9897 35.1738C23.9847 34.8925 24.0891 34.6202 24.2809 34.4144L28.9135 29.7819C29.0271 29.6684 29.1644 29.5814 29.3156 29.5274C29.4668 29.4733 29.6281 29.4535 29.7878 29.4693C29.9476 29.485 30.1019 29.5361 30.2396 29.6187C30.3773 29.7013 30.495 29.8134 30.5841 29.9469L32.1664 32.3196L37.31 27.1761C37.5136 26.9727 37.7895 26.8585 38.0773 26.8585C38.365 26.8585 38.641 26.9727 38.8445 27.1761Z" fill="white"/>
<path fill-rule="evenodd" clip-rule="evenodd" d="M34.0959 27.9433C34.0959 27.6553 34.2103 27.3792 34.4139 27.1756C34.6175 26.9719 34.8937 26.8575 35.1817 26.8575H38.077C38.365 26.8575 38.6411 26.9719 38.8448 27.1756C39.0484 27.3792 39.1628 27.6553 39.1628 27.9433V30.8386C39.1628 31.1266 39.0484 31.4028 38.8448 31.6064C38.6411 31.81 38.365 31.9244 38.077 31.9244C37.7891 31.9244 37.5129 31.81 37.3093 31.6064C37.1057 31.4028 36.9913 31.1266 36.9913 30.8386V29.0291H35.1817C34.8937 29.0291 34.6175 28.9147 34.4139 28.711C34.2103 28.5074 34.0959 28.2313 34.0959 27.9433Z" fill="white"/>
<path fill-rule="evenodd" clip-rule="evenodd" d="M18.671 18.671C20.6022 16.7383 23.4932 16 27.2195 16H35.9055C39.6318 16 42.5214 16.7383 44.454 18.671C46.3867 20.6022 47.125 23.4932 47.125 27.2195V35.9055C47.125 39.6318 46.3867 42.5214 44.454 44.454C42.5228 46.3867 39.6318 47.125 35.9055 47.125H27.2195C23.4932 47.125 20.6036 46.3867 18.671 44.454C16.7383 42.5228 16 39.6318 16 35.9055V27.2195C16 23.4932 16.7383 20.6036 18.671 18.671ZM20.2055 20.2055C18.8809 21.5316 18.1715 23.7074 18.1715 27.2195V35.9055C18.1715 39.4176 18.8809 41.5949 20.2055 42.9195C21.5316 44.2441 23.7074 44.9535 27.2195 44.9535H35.9055C39.4176 44.9535 41.5949 44.2441 42.9195 42.9195C44.2441 41.5934 44.9535 39.4176 44.9535 35.9055V27.2195C44.9535 23.7074 44.2441 21.5301 42.9195 20.2055C41.5934 18.8809 39.4176 18.1715 35.9055 18.1715H27.2195C23.7074 18.1715 21.5301 18.8809 20.2055 20.2055Z" fill="white"/>
<defs>
<linearGradient id="paint0_linear_64_7405" x1="32.3216" y1="0" x2="32.3216" y2="64" gradientUnits="userSpaceOnUse">
<stop stop-color="#3BB3C1"/>
<stop offset="1" stop-color="#1B8895"/>
</linearGradient>
</defs>
</svg>
