<svg width="263" height="132" viewBox="0 0 263 132" fill="none" xmlns="http://www.w3.org/2000/svg">
<g clip-path="url(#clip0_64_7427)">
<path d="M71.8076 107.961C78.9475 107.961 84.7355 102.131 84.7355 94.9406C84.7355 87.7499 78.9475 81.9207 71.8076 81.9207C64.6678 81.9207 58.8798 87.7499 58.8798 94.9406C58.8798 102.131 64.6678 107.961 71.8076 107.961Z" fill="#E4E4E4"/>
<path opacity="0.2" d="M62.2621 86.2441C61.0562 89.085 60.8927 92.2652 61.8006 95.2163C62.7085 98.1675 64.6288 100.697 67.2184 102.354C69.8079 104.01 72.8979 104.685 75.9362 104.259C78.9745 103.832 81.7631 102.331 83.8038 100.024C83.0671 101.76 81.9646 103.313 80.5726 104.577C79.1806 105.841 77.5324 106.785 75.7421 107.344C73.9519 107.903 72.0625 108.063 70.2048 107.813C68.347 107.563 66.5654 106.91 64.9834 105.898C63.4013 104.886 62.0567 103.539 61.0425 101.952C60.0284 100.365 59.3691 98.5741 59.1102 96.7046C58.8514 94.8352 58.9992 92.9314 59.5434 91.1251C60.0877 89.3189 61.0153 87.6535 62.2621 86.2441Z" fill="black"/>
<path d="M71.843 94.9404H71.8783L72.5177 131.854H71.168L71.843 94.9404Z" fill="#3F3D56"/>
<path d="M45.6508 83.68C60.0461 83.68 71.7157 71.9272 71.7157 57.4294C71.7157 42.9315 60.0461 31.1787 45.6508 31.1787C31.2556 31.1787 19.5859 42.9315 19.5859 57.4294C19.5859 71.9272 31.2556 83.68 45.6508 83.68Z" fill="#E4E4E4"/>
<path opacity="0.2" d="M26.4053 39.896C23.974 45.6237 23.6442 52.0354 25.4748 57.9855C27.3054 63.9356 31.177 69.0362 36.398 72.376C41.6189 75.7158 47.8489 77.0771 53.9746 76.2166C60.1004 75.3561 65.7228 72.33 69.8371 67.6789C68.3519 71.1783 66.129 74.3107 63.3225 76.859C60.516 79.4072 57.1929 81.3105 53.5835 82.437C49.974 83.5634 46.1646 83.8861 42.4191 83.3826C38.6735 82.8791 35.0815 81.5615 31.8918 79.5211C28.7021 77.4806 25.991 74.7662 23.9463 71.5657C21.9017 68.3653 20.5724 64.7555 20.0505 60.9863C19.5286 57.2171 19.8266 53.3787 20.9239 49.737C22.0212 46.0953 23.8915 42.7374 26.4053 39.896Z" fill="black"/>
<path d="M45.7227 57.4292H45.7945L47.0834 131.854H44.3623L45.7227 57.4292Z" fill="#3F3D56"/>
<path d="M217.497 93.3325H98.0272V129.001H217.497V93.3325Z" fill="#F0F0F0"/>
<path d="M164.727 100.704H150.797V129.001H164.727V100.704Z" fill="#CACACA"/>
<path d="M210.532 51.2437H104.992V84.0586H210.532V51.2437Z" fill="#F0F0F0"/>
<path d="M221.233 53.2649H94.2929C94.081 53.2649 93.8739 53.201 93.6983 53.0816C93.5227 52.9621 93.3865 52.7925 93.3074 52.5945C93.2282 52.3965 93.2096 52.1792 93.2541 51.9705C93.2985 51.7618 93.4039 51.5713 93.5567 51.4234L128.249 17.8389V3.21016C128.25 2.92646 128.362 2.65448 128.561 2.45387C128.76 2.25327 129.03 2.14043 129.312 2.14011H136.159C136.441 2.14042 136.711 2.25326 136.91 2.45386C137.109 2.65447 137.221 2.92646 137.221 3.21016V9.15351L139.842 6.61678C144.13 2.46566 149.819 0.102877 155.766 0.00328113C161.713 -0.0963149 167.477 2.07465 171.9 6.07989L221.943 51.399C222.103 51.5437 222.215 51.7339 222.265 51.9444C222.316 52.1549 222.301 52.3757 222.225 52.5779C222.148 52.78 222.012 52.9538 221.834 53.0765C221.657 53.1992 221.447 53.2648 221.233 53.2649Z" fill="#CACACA"/>
<path d="M132.853 59.5662C133.737 59.5662 134.612 59.7415 135.428 60.082C136.245 60.4226 136.986 60.9218 137.611 61.5511C138.236 62.1804 138.732 62.9275 139.07 63.7497C139.408 64.5719 139.582 65.4532 139.582 66.3432V75.4981H126.124V66.3432C126.124 65.4532 126.298 64.5719 126.636 63.7497C126.974 62.9275 127.47 62.1804 128.095 61.5511C128.72 60.9218 129.462 60.4226 130.278 60.082C131.094 59.7415 131.969 59.5662 132.853 59.5662Z" fill="white"/>
<path d="M157.762 59.6851C159.547 59.6851 161.259 60.3991 162.521 61.67C163.782 62.9409 164.491 64.6647 164.491 66.4621V75.617H151.033V66.4621C151.033 64.6647 151.742 62.9409 153.004 61.67C154.266 60.3991 155.978 59.6851 157.762 59.6851Z" fill="white"/>
<path d="M182.672 59.804C184.456 59.804 186.168 60.518 187.43 61.7889C188.692 63.0598 189.401 64.7836 189.401 66.581V75.7359H175.943V66.581C175.943 64.7836 176.652 63.0598 177.913 61.7889C179.175 60.518 180.887 59.804 182.672 59.804Z" fill="white"/>
<path d="M192.588 100.347C194.373 100.347 196.085 101.061 197.347 102.332C198.609 103.603 199.317 105.327 199.317 107.124V116.279H185.859V107.124C185.859 105.327 186.568 103.603 187.83 102.332C189.092 101.061 190.804 100.347 192.588 100.347Z" fill="white"/>
<path d="M126.006 100.347C127.791 100.347 129.503 101.061 130.765 102.332C132.026 103.603 132.735 105.327 132.735 107.124V116.279H119.277V107.124C119.277 106.234 119.451 105.353 119.79 104.531C120.128 103.708 120.623 102.961 121.248 102.332C121.873 101.703 122.615 101.204 123.431 100.863C124.248 100.522 125.123 100.347 126.006 100.347Z" fill="white"/>
<path d="M234.952 93.8893L212.54 83.9021C212.42 83.8485 212.29 83.8208 212.158 83.8208H105.35C105.228 83.8208 105.107 83.8446 104.994 83.8908L80.5995 93.878C80.3966 93.9611 80.2287 94.1126 80.1245 94.3066C80.0203 94.5006 79.9863 94.7251 80.0283 94.9416C80.0703 95.1581 80.1857 95.3531 80.3548 95.4934C80.5239 95.6336 80.7361 95.7103 80.9552 95.7103H87.2844V128.525H86.5761V131.854H228.949V128.525H227.768V95.7103H234.569C234.786 95.7102 234.996 95.6353 235.164 95.4979C235.332 95.3606 235.449 95.1692 235.493 94.9558C235.538 94.7424 235.509 94.52 235.41 94.3258C235.311 94.1317 235.15 93.9775 234.952 93.8893ZM225.879 128.525H89.1733V95.7103H225.879V128.525Z" fill="#CACACA"/>
<path d="M141.235 74.1904H123.999V77.0439H141.235V74.1904Z" fill="#CACACA"/>
<path d="M166.498 74.1904H149.262V77.0439H166.498V74.1904Z" fill="#CACACA"/>
<path d="M191.762 74.1904H174.526V77.0439H191.762V74.1904Z" fill="#CACACA"/>
<path d="M201.206 115.328H183.97V118.182H201.206V115.328Z" fill="#CACACA"/>
<path d="M134.388 115.328H117.152V118.182H134.388V115.328Z" fill="#CACACA"/>
<path d="M262.711 132H0.289329C0.212594 132 0.139002 131.969 0.0847423 131.915C0.0304826 131.86 0 131.786 0 131.709C0 131.631 0.0304826 131.557 0.0847423 131.503C0.139002 131.448 0.212594 131.417 0.289329 131.417H262.711C262.787 131.417 262.861 131.448 262.915 131.503C262.97 131.557 263 131.631 263 131.709C263 131.786 262.97 131.86 262.915 131.915C262.861 131.969 262.787 132 262.711 132Z" fill="#3F3D56"/>
<path d="M196.705 50.7542C196.705 50.9408 196.702 51.1301 196.699 51.3166C196.696 51.541 196.69 51.7624 196.681 51.9868C196.673 52.182 196.664 52.3744 196.653 52.5667C196.618 53.2107 196.563 53.8517 196.488 54.4957C196.47 54.6589 196.45 54.8191 196.427 54.9823C196.409 55.1076 196.392 55.2358 196.372 55.364C196.352 55.5068 196.331 55.6496 196.308 55.7924C196.262 56.0954 196.21 56.3985 196.152 56.7015C196.123 56.853 196.094 57.0046 196.062 57.1561C196.002 57.4562 195.935 57.7593 195.866 58.0594C195.86 58.0827 195.854 58.1089 195.848 58.1323C195.813 58.2809 195.779 58.4266 195.741 58.5752C195.73 58.6189 195.721 58.6597 195.706 58.7034C195.68 58.8141 195.651 58.9248 195.623 59.0356C195.582 59.19 195.542 59.3415 195.498 59.4959C195.429 59.7349 195.359 59.9709 195.287 60.2099C195.278 60.2347 195.27 60.26 195.264 60.2856C195.125 60.7373 194.977 61.1831 194.815 61.626C194.731 61.8591 194.642 62.0952 194.552 62.3283C194.462 62.5614 194.37 62.7945 194.274 63.0247C194.182 63.2491 194.086 63.4734 193.991 63.6949C193.968 63.7473 193.944 63.7998 193.918 63.8522C193.817 64.0824 193.713 64.3068 193.606 64.5312C193.603 64.5341 193.603 64.5399 193.6 64.5428C193.516 64.7235 193.426 64.9042 193.337 65.0819C193.337 65.0873 193.335 65.0925 193.331 65.0965C193.244 65.2713 193.155 65.4462 193.062 65.6181L192.914 65.9007L192.897 65.9328C192.712 66.2795 192.521 66.6234 192.318 66.9643C192.275 67.0401 192.232 67.1158 192.188 67.1886C192.145 67.2644 192.099 67.3402 192.052 67.413C192.023 67.4655 191.991 67.5179 191.957 67.5704C191.896 67.6694 191.835 67.7714 191.772 67.8705C191.76 67.8909 191.745 67.9113 191.734 67.9317C191.624 68.1036 191.514 68.2726 191.404 68.4445C191.268 68.6514 191.129 68.8554 190.987 69.0594L187.845 74.1238L187.709 74.0101L187.672 73.9751H187.669L187.544 73.8702L187.203 73.5788C187.099 73.6808 186.998 73.7828 186.893 73.8819C186.853 73.9227 186.81 73.9606 186.769 74.0013C186.737 74.0305 186.708 74.0596 186.676 74.0887C181.244 79.4314 174.018 82.5251 166.429 82.7576H166.421C160.675 82.9165 154.988 81.5647 149.92 78.8355C149.807 78.7772 149.697 78.7189 149.587 78.6519C148.928 78.2906 148.283 77.9089 147.649 77.5009C147.646 77.498 147.643 77.498 147.64 77.4951C146.905 76.9706 146.188 76.4111 145.488 75.8167C141.731 72.6279 138.76 68.6061 136.805 64.0667C134.851 59.5273 133.968 54.5937 134.224 49.6527C134.233 49.4575 134.244 49.2652 134.259 49.0699C134.305 48.3647 134.376 47.6625 134.473 46.9632C134.499 46.7679 134.528 46.5727 134.557 46.3804H196.409C196.531 47.272 196.615 48.1685 196.661 49.0699C196.69 49.6324 196.705 50.1919 196.705 50.7542Z" fill="#F0F0F0"/>
<path d="M196.41 46.3805C195.296 38.9225 191.562 32.1145 185.887 27.194C180.212 22.2736 172.972 19.5674 165.483 19.5674C157.995 19.5674 150.755 22.2736 145.079 27.194C139.404 32.1145 135.67 38.9225 134.557 46.3805C134.528 46.5729 134.499 46.7681 134.473 46.9633C134.377 47.6627 134.306 48.3649 134.259 49.0701H196.661C196.615 48.1697 196.531 47.2732 196.41 46.3805Z" fill="#3BB3C1"/>
<path d="M167.509 78.835H149.589V64.3976C149.92 57.7996 155.519 57.2668 160.78 57.6209C161.664 57.6209 162.539 57.7961 163.355 58.1366C164.172 58.4772 164.914 58.9763 165.538 59.6056C166.163 60.2349 166.659 60.982 166.997 61.8042C167.335 62.6264 167.509 63.5076 167.509 64.3976V78.835Z" fill="#3BB3C1"/>
<path d="M149.587 68.5702V68.5731C149.587 68.576 149.59 68.576 149.593 68.576L149.587 68.5702ZM142.38 46.3808C142.369 46.4537 142.354 46.5265 142.343 46.5993C142.354 46.5265 142.369 46.4537 142.383 46.3808H142.38ZM142.021 49.0703C142.013 49.1811 142.004 49.2918 141.998 49.4025C142.004 49.2918 142.013 49.1811 142.024 49.0703C142.024 49.0499 142.025 49.0294 142.027 49.0091C142.024 49.0295 142.024 49.0499 142.021 49.0703ZM149.587 68.5731C149.587 68.576 149.59 68.576 149.593 68.576L149.587 68.5702V68.5731ZM142.38 46.3808C142.369 46.4537 142.354 46.5265 142.343 46.5993C142.354 46.5265 142.369 46.4537 142.383 46.3808H142.38ZM141.998 49.4025C142.004 49.2918 142.013 49.1811 142.024 49.0703C142.024 49.0499 142.025 49.0294 142.027 49.0091C142.024 49.0295 142.024 49.0499 142.021 49.0703C142.013 49.1811 142.004 49.2918 141.998 49.4025ZM231.384 103.007C231.327 102.947 231.267 102.89 231.204 102.838L231.201 102.835L216.874 90.6576L216.503 90.3429L215.094 89.1453L214.741 88.8451L212.733 87.1376L212.184 86.6714L211.047 85.704L210.465 85.2086L204.979 80.5493L201.834 77.8772L201.412 77.5188L192.145 69.6425C192.287 69.4385 192.425 69.2346 192.561 69.0277C192.671 68.8558 192.781 68.6868 192.891 68.5148C192.903 68.4945 192.917 68.474 192.929 68.4536C192.992 68.3545 193.053 68.2526 193.114 68.1535C193.149 68.1011 193.181 68.0486 193.209 67.9962C193.256 67.9233 193.302 67.8476 193.346 67.7718C193.389 67.6989 193.432 67.6232 193.476 67.5475C193.678 67.2065 193.869 66.8627 194.054 66.5159L194.072 66.4838L194.219 66.2012C194.312 66.0293 194.402 65.8545 194.488 65.6796C194.492 65.6756 194.494 65.6705 194.494 65.6651C194.584 65.4873 194.674 65.3067 194.757 65.126C194.76 65.1231 194.76 65.1172 194.763 65.1143C194.87 64.89 194.974 64.6656 195.076 64.4354C195.102 64.3829 195.125 64.3305 195.148 64.278C195.243 64.0566 195.339 63.8322 195.432 63.6079C195.527 63.3777 195.62 63.1445 195.709 62.9114C195.799 62.6783 195.889 62.4423 195.973 62.2092C196.132 61.7633 196.281 61.3165 196.421 60.8688C196.427 60.8431 196.435 60.8178 196.444 60.793C196.517 60.5541 196.586 60.318 196.655 60.0791C196.699 59.9246 196.739 59.7731 196.78 59.6187C196.809 59.508 196.838 59.3972 196.864 59.2865C196.878 59.2428 196.887 59.202 196.898 59.1583C196.936 59.0097 196.971 58.864 197.005 58.7154C197.011 58.6921 197.017 58.6659 197.023 58.6426C197.092 58.3424 197.159 58.0394 197.22 57.7392C197.251 57.5877 197.28 57.4362 197.309 57.2847C197.364 56.9817 197.419 56.6786 197.465 56.3755C197.489 56.2328 197.509 56.09 197.529 55.9472C197.549 55.819 197.567 55.6908 197.584 55.5655C197.607 55.4023 197.628 55.242 197.645 55.0789C197.72 54.4349 197.775 53.7938 197.81 53.1498C197.821 52.9575 197.83 52.7652 197.839 52.5699C197.847 52.3456 197.853 52.1241 197.856 51.8998C197.859 51.7133 197.862 51.5239 197.862 51.3374C197.862 50.775 197.847 50.2155 197.819 49.6531C197.772 48.7527 197.688 47.8562 197.567 46.9636C196.53 39.3334 192.802 32.3338 187.063 27.2441C181.324 22.1545 173.958 19.3148 166.312 19.244C158.665 19.1733 151.249 21.8763 145.418 26.859C139.588 31.8416 135.732 38.7711 134.557 46.3808C134.528 46.5731 134.499 46.7684 134.473 46.9636C134.377 47.6629 134.306 48.3652 134.259 49.0703C134.244 49.2656 134.233 49.4579 134.224 49.6531C133.968 54.5941 134.851 59.5277 136.805 64.0671C138.76 68.6066 141.731 72.6283 145.488 75.8171C146.188 76.4115 146.905 76.971 147.64 77.4955C147.643 77.4984 147.646 77.4984 147.649 77.5013C147.895 77.6762 148.141 77.8481 148.39 78.0171C148.786 78.2793 149.185 78.5358 149.587 78.7805C149.619 78.798 149.651 78.8184 149.683 78.8359C150.03 79.0457 150.38 79.2468 150.73 79.442H150.733C152.036 80.1636 153.389 80.7907 154.781 81.3186C158.865 82.866 163.22 83.5542 167.578 83.3408H167.586C172.673 83.093 177.626 81.6169 182.027 79.037C182.666 78.664 183.297 78.2648 183.913 77.8394C184.067 77.7344 184.223 77.6266 184.373 77.5188C184.559 77.3877 184.744 77.2507 184.929 77.1138C184.932 77.1138 184.932 77.1109 184.935 77.1109C184.948 77.0993 184.963 77.0886 184.978 77.0788C185.102 76.9826 185.23 76.8865 185.351 76.7933C185.383 76.7699 185.415 76.7466 185.447 76.7204C185.455 76.7145 185.463 76.7076 185.47 76.7C185.542 76.6476 185.612 76.5893 185.684 76.5339C185.756 76.4785 185.826 76.4203 185.898 76.362C185.91 76.3542 185.922 76.3454 185.933 76.3358C186.014 76.2687 186.095 76.2046 186.176 76.1376C186.26 76.0706 186.341 76.0007 186.419 75.9336C186.5 75.8666 186.578 75.7996 186.659 75.7297C186.729 75.6714 186.801 75.6102 186.87 75.5461C186.893 75.5286 186.914 75.5082 186.937 75.4878C186.946 75.4792 186.955 75.4714 186.966 75.4645C187.061 75.3829 187.154 75.2984 187.246 75.2139C187.27 75.1935 187.29 75.1731 187.313 75.1527C187.455 75.0245 187.597 74.8963 187.735 74.7622C187.767 74.7331 187.802 74.701 187.834 74.6719C187.866 74.6427 187.895 74.6136 187.926 74.5845C187.967 74.5437 188.01 74.5058 188.051 74.465C188.155 74.3659 188.256 74.264 188.36 74.162L188.702 74.4534L188.826 74.5583H188.829L188.867 74.5932L189.003 74.7069L191.022 76.4261L191.066 76.4639L191.1 76.4902L191.329 76.6854L191.786 77.0759L192.243 77.4634L192.31 77.5188L194.436 79.3254L194.731 79.576L196.783 81.3186L207.401 90.343L207.771 90.6577L222.304 103.007L226.031 106.174L227.417 107.351C227.711 107.602 228.051 107.792 228.418 107.91C228.785 108.028 229.172 108.072 229.556 108.04C229.94 108.007 230.314 107.899 230.656 107.721C230.999 107.543 231.303 107.298 231.551 107.002C231.759 106.756 231.925 106.476 232.04 106.174C232.25 105.639 232.3 105.054 232.183 104.491C232.067 103.928 231.789 103.412 231.384 103.007ZM147.574 35.4595C150.476 31.9953 154.293 29.4288 158.582 28.0564C162.872 26.6841 167.459 26.5619 171.815 27.704C176.17 28.8461 180.116 31.206 183.197 34.5108C186.277 37.8157 188.366 41.9308 189.223 46.3808C189.26 46.576 189.295 46.7684 189.327 46.9636C189.445 47.66 189.532 48.3652 189.584 49.0703C189.599 49.2656 189.613 49.4579 189.622 49.6531C189.648 50.0902 189.659 50.5302 189.659 50.9673C189.661 53.6186 189.225 56.2518 188.369 58.7591V58.762C187.412 61.5732 185.944 64.1801 184.038 66.4489C183.997 66.4955 183.957 66.5451 183.913 66.5917C183.531 67.0462 183.129 67.4833 182.715 67.9C182.713 67.903 182.71 67.9088 182.707 67.9117C182.565 68.0545 182.42 68.2002 182.276 68.3342C181.981 68.6227 181.68 68.8966 181.373 69.1588C180.913 69.5639 180.441 69.9437 179.958 70.2982C179.796 70.4176 179.634 70.5342 179.469 70.6508C179.307 70.7673 179.142 70.878 178.977 70.9888C178.647 71.2102 178.312 71.423 177.973 71.624C177.806 71.726 177.632 71.8251 177.461 71.9212C177.291 72.0203 177.117 72.1135 176.943 72.2039C176.77 72.2971 176.596 72.3874 176.42 72.4749C176.07 72.6526 175.717 72.8187 175.358 72.9731C175.179 73.0547 174.999 73.1305 174.82 73.2004C174.707 73.247 174.597 73.2937 174.484 73.3345C174.44 73.355 174.395 73.3725 174.348 73.3869C174.287 73.4131 174.227 73.4364 174.166 73.4569C174.146 73.4659 174.126 73.4737 174.105 73.4802C173.981 73.5297 173.859 73.5734 173.732 73.6171C173.55 73.6842 173.367 73.7453 173.182 73.8036C172.997 73.8648 172.815 73.9231 172.63 73.9755C172.444 74.0338 172.256 74.0863 172.071 74.1358C171.883 74.1883 171.698 74.2378 171.51 74.2815C171.31 74.334 171.111 74.3806 170.908 74.4243C170.732 74.4651 170.558 74.5 170.381 74.5321C170.216 74.567 170.049 74.5962 169.884 74.6254C169.652 74.6661 169.421 74.704 169.187 74.7361C169.059 74.7565 168.935 74.774 168.807 74.7856C168.753 74.7943 168.7 74.8002 168.648 74.806C168.486 74.8293 168.324 74.8468 168.165 74.8614C168.122 74.8643 168.081 74.8701 168.041 74.873C167.864 74.8905 167.685 74.9051 167.508 74.9196C167.129 74.9459 166.753 74.9634 166.374 74.9721C166.183 74.975 165.989 74.9779 165.798 74.9779C165.607 74.9779 165.417 74.975 165.226 74.9692C165.226 74.9692 165.226 74.9721 165.223 74.9692C165.22 74.9721 165.22 74.9721 165.217 74.9692C165.217 74.9696 165.216 74.9699 165.216 74.9701C165.215 74.9703 165.215 74.9704 165.214 74.9704C165.213 74.9704 165.213 74.9703 165.212 74.9701C165.212 74.9699 165.211 74.9696 165.211 74.9692C165.202 74.9721 165.192 74.9721 165.182 74.9692C165.046 74.9692 164.91 74.9634 164.777 74.9546C164.679 74.9517 164.577 74.9488 164.476 74.94C164.34 74.9342 164.204 74.9255 164.068 74.9138C164.025 74.9138 163.981 74.908 163.938 74.9051C163.918 74.9046 163.897 74.9027 163.877 74.8993C163.738 74.8876 163.597 74.8759 163.458 74.8614C163.388 74.8556 163.316 74.8497 163.247 74.841C163.035 74.8177 162.824 74.7914 162.616 74.7623C162.379 74.7332 162.141 74.6982 161.907 74.6545C161.797 74.6399 161.69 74.6195 161.583 74.5991C161.441 74.5758 161.299 74.5496 161.158 74.5205C161.01 74.4913 160.863 74.4622 160.715 74.4272C160.596 74.401 160.475 74.3748 160.356 74.3456C160.298 74.334 160.24 74.3194 160.185 74.3048C159.882 74.232 159.581 74.1533 159.283 74.0659C159.095 74.0134 158.907 73.9581 158.721 73.8998C158.467 73.8211 158.215 73.7366 157.963 73.6463C157.865 73.6142 157.77 73.5793 157.671 73.5414C157.573 73.5093 157.477 73.4715 157.379 73.4336C157.289 73.4015 157.2 73.3666 157.113 73.3316C156.968 73.2762 156.826 73.2179 156.685 73.1597C156.392 73.0402 156.106 72.9149 155.819 72.7809C155.657 72.7022 155.495 72.6264 155.336 72.5478C154.708 72.2418 154.09 71.9018 153.482 71.5279C153.331 71.4375 153.181 71.3414 153.03 71.2452C152.842 71.1287 152.66 71.0063 152.478 70.8839C152.376 70.814 152.278 70.747 152.18 70.677C151.997 70.5488 151.818 70.4177 151.642 70.2865C151.549 70.2195 151.456 70.1496 151.367 70.0797C151.046 69.8349 150.73 69.5785 150.421 69.3162C150.273 69.1909 150.125 69.0627 149.981 68.9316C149.92 68.8791 149.859 68.8237 149.799 68.7684C149.729 68.7043 149.66 68.6431 149.593 68.576L149.587 68.5702C149.486 68.4799 149.385 68.3838 149.286 68.2876C149.133 68.1419 148.983 67.9933 148.838 67.8418C148.688 67.6932 148.543 67.5388 148.401 67.3872C148.256 67.2357 148.118 67.0813 147.982 66.9239C147.843 66.7695 147.707 66.6121 147.574 66.4519C147.443 66.3003 147.316 66.143 147.195 65.9885C146.899 65.6214 146.618 65.2474 146.35 64.8667C146.225 64.6918 146.107 64.517 145.991 64.3393C145.867 64.1586 145.748 63.975 145.635 63.7914C145.516 63.6079 145.404 63.4214 145.294 63.232C145.291 63.2255 145.287 63.2196 145.282 63.2145C145.065 62.8444 144.857 62.4714 144.663 62.0926C144.463 61.708 144.275 61.3195 144.099 60.9271C144.009 60.7318 143.922 60.5337 143.841 60.3356C143.673 59.9363 143.517 59.5372 143.373 59.1321C143.3 58.9369 143.234 58.7416 143.167 58.5435C143.165 58.5304 143.161 58.5176 143.156 58.5056C143.022 58.1035 142.901 57.6985 142.794 57.2905C142.791 57.2847 142.791 57.2789 142.788 57.2731C142.733 57.072 142.681 56.8709 142.635 56.6669C142.588 56.4892 142.548 56.3114 142.51 56.1308C142.467 55.9297 142.424 55.7287 142.386 55.5247C142.366 55.4198 142.345 55.3149 142.328 55.21C142.311 55.1226 142.296 55.0322 142.282 54.9448C142.267 54.8574 142.253 54.7671 142.238 54.6767C142.209 54.499 142.183 54.3213 142.16 54.1435C142.131 53.9337 142.108 53.7239 142.085 53.5112C142.059 53.2577 142.036 53.0041 142.016 52.7477C142.001 52.5758 141.992 52.401 141.984 52.2262C141.975 52.0659 141.966 51.9056 141.964 51.7454C141.961 51.7369 141.961 51.7276 141.964 51.7191C141.963 51.7188 141.963 51.7183 141.963 51.7178C141.962 51.7173 141.962 51.7168 141.962 51.7162C141.962 51.7157 141.962 51.7151 141.963 51.7146C141.963 51.7141 141.963 51.7137 141.964 51.7133C141.961 51.7104 141.961 51.7104 141.964 51.7075C141.963 51.7071 141.963 51.7066 141.963 51.7061C141.962 51.7056 141.962 51.7051 141.962 51.7046C141.962 51.704 141.962 51.7035 141.963 51.703C141.963 51.7025 141.963 51.702 141.964 51.7016C141.961 51.6375 141.958 51.5735 141.958 51.5094C141.952 51.32 141.949 51.1306 141.949 50.9411C141.949 50.7692 141.952 50.6002 141.955 50.4283C141.961 50.1893 141.969 49.9504 141.981 49.7115C141.981 49.659 141.987 49.6095 141.99 49.557C141.992 49.5046 141.995 49.455 141.998 49.4025C142.004 49.2918 142.013 49.1811 142.024 49.0703C142.024 49.0499 142.025 49.0294 142.027 49.0091C142.036 48.8838 142.047 48.7586 142.059 48.6333C142.082 48.3827 142.111 48.1292 142.143 47.8786C142.16 47.7533 142.175 47.628 142.195 47.5027C142.207 47.4153 142.221 47.325 142.235 47.2346C142.247 47.1443 142.262 47.054 142.279 46.9636C142.299 46.8442 142.319 46.7217 142.343 46.5993C142.354 46.5265 142.369 46.4537 142.383 46.3808C142.438 46.0894 142.499 45.7981 142.565 45.5067C142.632 45.2124 142.707 44.921 142.788 44.6296C142.866 44.3353 142.953 44.041 143.046 43.7467C143.089 43.5981 143.135 43.4524 143.187 43.3067C143.283 43.0124 143.384 42.721 143.497 42.4325C143.549 42.2897 143.604 42.144 143.665 42.0013C143.781 41.7128 143.902 41.4243 144.026 41.1416C144.09 40.9989 144.154 40.8561 144.223 40.7133C144.353 40.4307 144.489 40.148 144.637 39.8712C144.779 39.5885 144.932 39.3117 145.088 39.0378C145.245 38.7639 145.406 38.49 145.577 38.219C145.655 38.085 145.742 37.948 145.832 37.8169C146.005 37.5488 146.188 37.2807 146.373 37.0185C146.746 36.4881 147.148 35.9665 147.574 35.4595ZM142.021 49.0703C142.013 49.1811 142.004 49.2918 141.998 49.4025C142.004 49.2918 142.013 49.1811 142.024 49.0703C142.024 49.0499 142.025 49.0294 142.027 49.0091C142.024 49.0295 142.024 49.0499 142.021 49.0703ZM142.38 46.3808C142.369 46.4537 142.354 46.5265 142.343 46.5993C142.354 46.5265 142.369 46.4537 142.383 46.3808H142.38ZM149.587 68.5702V68.5731C149.587 68.576 149.59 68.576 149.593 68.576L149.587 68.5702Z" fill="#3F3D56"/>
<path opacity="0.3" d="M150.422 69.3159C145.846 65.4265 142.889 59.946 142.139 53.9627C141.389 47.9793 142.901 41.9308 146.374 37.0181C145.918 37.4807 145.477 37.9652 145.051 38.4716C143.031 40.8829 141.502 43.6713 140.552 46.6777C139.601 49.6841 139.248 52.8496 139.513 55.9934C139.777 59.1372 140.654 62.1977 142.093 65.0003C143.532 67.8028 145.505 70.2925 147.899 72.3272C152.734 76.4363 158.993 78.4427 165.297 77.9048C171.601 77.3669 177.435 74.3288 181.515 69.4589C181.94 68.9519 182.34 68.4327 182.715 67.9012C178.491 72.1757 172.825 74.6941 166.843 74.9561C160.86 75.2182 154.999 73.2049 150.422 69.3159Z" fill="black"/>
</g>
<defs>
<clipPath id="clip0_64_7427">
<rect width="263" height="132" fill="white"/>
</clipPath>
</defs>
</svg>
