<svg width="65" height="64" viewBox="0 0 65 64" fill="none" xmlns="http://www.w3.org/2000/svg">
<ellipse cx="32.3216" cy="32" rx="32.3216" ry="32" fill="url(#paint0_linear_64_7393)"/>
<path d="M47.1375 29.9184C47.1365 29.9178 47.1358 29.9167 47.135 29.916L34.0816 16.8631C33.5251 16.3064 32.7854 16 31.9986 16C31.2117 16 30.472 16.3064 29.9153 16.8631L16.8686 29.9094C16.8643 29.9138 16.8596 29.9184 16.8555 29.9228C15.7129 31.0719 15.7149 32.9364 16.8611 34.0827C17.3848 34.6066 18.0761 34.9099 18.8157 34.9418C18.846 34.9447 18.8763 34.9462 18.9068 34.9462H19.4268V44.5522C19.4268 46.4533 20.9736 47.9999 22.8748 47.9999H27.9817C28.4995 47.9999 28.9192 47.58 28.9192 47.0624V39.5312C28.9192 38.6638 29.625 37.9583 30.4925 37.9583H33.5046C34.3721 37.9583 35.0776 38.6639 35.0776 39.5312V47.0625C35.0776 47.5801 35.4973 48 36.0151 48H41.1221C43.0235 48 44.5701 46.4534 44.5701 44.5522V34.9463H45.0525C45.8391 34.9463 46.5789 34.6398 47.1358 34.0829C48.2833 32.935 48.2837 31.0671 47.1375 29.9184L47.1375 29.9184ZM45.8098 32.7573C45.7106 32.8571 45.5926 32.9363 45.4626 32.9902C45.3326 33.0441 45.1932 33.0716 45.0525 33.0713H43.6325C43.1147 33.0713 42.695 33.4909 42.695 34.0088V44.5522C42.695 45.4194 41.9895 46.125 41.122 46.125H36.9526V39.5312C36.9526 37.6301 35.406 36.0833 33.5046 36.0833H30.4925C28.5911 36.0833 27.0443 37.6301 27.0443 39.5312V46.125H22.8749C22.0076 46.125 21.3018 45.4194 21.3018 44.5522V34.0088C21.3018 33.4909 20.8821 33.0713 20.3643 33.0713H18.9688C18.9541 33.0702 18.9395 33.0695 18.9248 33.0693C18.6455 33.0644 18.3836 32.9536 18.1873 32.757C17.7698 32.3395 17.7698 31.6601 18.1873 31.2424C18.1875 31.2424 18.1875 31.2421 18.1878 31.2419L18.1885 31.2411L31.2415 18.1888C31.3406 18.0889 31.4586 18.0098 31.5886 17.956C31.7185 17.9021 31.8579 17.8746 31.9986 17.875C32.2845 17.875 32.5533 17.9863 32.7556 18.1888L45.8056 31.2385L45.8118 31.2444C46.2271 31.6626 46.2263 32.3406 45.8098 32.7573Z" fill="white"/>
<defs>
<linearGradient id="paint0_linear_64_7393" x1="32.3216" y1="0" x2="32.3216" y2="64" gradientUnits="userSpaceOnUse">
<stop stop-color="#3BB3C1"/>
<stop offset="1" stop-color="#1B8895"/>
</linearGradient>
</defs>
</svg>
