<svg width="101" height="101" viewBox="0 0 101 101" fill="none" xmlns="http://www.w3.org/2000/svg">
<g clip-path="url(#clip0_64_7246)">
<path d="M16.1059 28.1689C16.3153 28.1766 16.4219 28.0158 16.5411 27.889C17.008 27.3942 17.5258 26.9563 18.0528 26.5293C18.2671 26.7294 18.2267 26.9967 18.2294 27.2455C18.2393 28.1367 18.2431 29.0284 18.2289 29.919C18.2218 30.3651 18.4016 30.5401 18.845 30.5237C19.4262 30.5018 20.009 30.5177 20.5908 30.5177C20.9057 30.5177 21.0577 30.3821 21.0582 30.0606C21.0615 28.369 21.0642 26.6774 21.0577 24.9858C21.0566 24.7283 20.9177 24.5435 20.7892 24.3467C22.3934 23.0969 24.1046 22.0083 25.8651 20.9947C26.7301 20.4966 27.5994 20.004 28.4998 19.5737C30.0384 18.8383 31.6031 18.1659 33.2023 17.5705C35.1246 16.8548 37.0836 16.2703 39.0792 15.8007C40.3634 15.4983 41.6576 15.2529 42.9621 15.056C44.3568 14.8455 45.7575 14.7258 47.1626 14.6088C49.2512 14.4349 51.3391 14.5131 53.4249 14.5459C54.426 14.5612 55.4386 14.6892 56.4435 14.8133C57.5375 14.9483 58.6255 15.1112 59.7118 15.2889C60.03 15.3409 60.3619 15.3491 60.6604 15.4967C60.755 15.7996 60.5046 15.9931 60.4166 16.2359C60.3111 16.5267 60.2755 16.8291 60.2121 17.1276C60.1388 17.4338 60.1716 17.7449 60.1711 18.0527C60.1695 29.7041 60.1695 41.3551 60.1695 53.0065C60.1695 53.1886 60.1705 53.3707 60.1689 53.5527C60.1607 54.3608 60.1159 54.3898 59.415 54.0453C59.333 54.0049 59.2488 53.9726 59.1613 53.9458C58.4363 53.7233 58.4308 53.7091 58.6681 52.9622C58.8442 52.4073 59.065 51.866 59.1908 51.2952C59.2302 51.1176 59.2788 50.9388 59.2597 50.7556C59.2231 50.4035 59.0295 50.3106 58.7436 50.526C58.4369 50.7573 58.1908 51.052 57.9727 51.3691C56.6075 53.3564 55.5249 55.4996 54.4867 57.6691C53.8104 59.0829 53.2609 60.5493 52.6305 61.9806C52.5584 62.1075 52.4802 62.2808 52.3419 62.2895C51.8186 62.3223 51.7355 62.7226 51.5956 63.0982C51.2528 64.0194 50.887 64.9319 50.5398 65.8515C50.4704 66.0347 50.4398 66.2457 50.2358 66.3496C50.1648 66.3627 50.2468 66.3326 50.1839 66.3644C49.3747 66.7711 48.9215 66.3529 48.5311 65.6946C48.272 65.2578 47.8882 64.9079 47.5803 64.5027C47.4125 64.2818 47.4016 64.0856 47.5645 63.8609C47.7881 63.552 48.0144 63.2441 48.2474 62.9423C48.4447 62.6865 48.4075 62.4978 48.1484 62.3038C46.5924 61.1381 45.0364 59.973 43.4683 58.8232C43.2114 58.6346 43.0151 58.6494 42.8237 58.9102C42.6198 59.1885 42.4077 59.4613 42.201 59.7379C41.984 60.0288 41.7319 60.1075 41.3968 59.9375C40.7954 59.633 40.1633 59.4011 39.5193 59.2076C39.1316 59.0911 38.9419 58.8878 38.9955 58.4575C39.0332 58.1519 39.0513 57.8435 39.0999 57.5384C39.1595 57.1666 39.0321 56.9736 38.6194 56.9294C37.4105 56.7987 36.2033 56.6549 34.9967 56.5062C34.8354 56.4865 34.6676 56.4991 34.5303 56.387C34.3291 55.7528 33.9634 55.3487 33.2302 55.399C32.9437 55.4187 32.7786 55.241 32.6818 54.9638C32.4544 54.3132 32.1307 54.1476 31.4785 54.4297C31.0296 54.6238 30.7289 54.5953 30.3795 54.2252C29.9372 53.7567 29.4102 53.8616 29.0302 54.4669C28.8087 54.8195 28.6152 55.1087 28.1384 54.9026C28.0406 54.8605 27.9055 54.8693 27.8219 54.9354C27.4474 55.2328 27.0198 55.3302 26.5529 55.3312C26.3801 55.3318 26.2555 55.4515 26.1647 55.5986C26.098 55.7063 26.0592 55.902 25.9624 55.9086C25.3129 55.9556 24.9012 56.5445 24.2834 56.6314C23.5929 56.7282 23.3665 56.9818 23.4059 57.7205C23.4174 57.937 23.3922 58.1289 23.1889 58.236C22.8078 58.4362 22.6968 58.7937 22.6104 59.1715C22.2009 59.394 22.1692 59.669 22.36 60.1015C22.9751 61.4984 23.0396 61.1966 21.8581 62.0927C21.4956 62.3677 21.1517 62.6651 20.8056 62.9577C20.5115 63.2059 20.2649 63.1977 19.9839 62.9713C19.7007 62.7428 19.3858 62.558 19.0993 62.3344C18.88 62.1632 18.7209 62.1944 18.5525 62.4147C17.3519 63.991 16.2021 65.6044 15.0048 67.1828C14.8145 67.4332 14.8943 67.6136 15.1147 67.7815C15.4181 68.0128 15.7243 68.2407 16.0288 68.4715C16.2699 68.6541 16.3082 68.8586 16.1945 69.1385C16.0108 69.5895 15.7385 70.0111 15.698 70.5152C15.5936 70.7093 15.3957 70.6983 15.2213 70.7207C13.0967 70.9914 11.3892 72.0406 9.8272 73.4582C7.31167 75.7409 5.49651 78.4713 4.29424 81.6314C4.20403 81.8692 4.192 82.1819 3.87326 82.282C3.24506 80.7528 2.77541 79.1716 2.33201 77.5817C2.01108 76.4308 1.7399 75.2685 1.52394 74.0935C1.32438 73.0105 1.13958 71.9257 1.00837 70.8306C0.839973 69.4283 0.75851 68.0221 0.662284 66.6142C0.585195 65.4868 0.526147 64.3567 0.614719 63.2436C0.689621 62.3059 0.656817 61.3656 0.767804 60.4263C0.86895 59.5679 0.928544 58.6975 1.03461 57.838C1.1784 56.674 1.39491 55.5193 1.62454 54.3674C2.08653 52.0514 2.75901 49.7972 3.53264 47.5698C3.7404 46.9711 3.96402 46.3785 4.18052 45.7825C4.34345 45.5906 4.56925 45.6076 4.78631 45.6076C10.3903 45.6048 15.9949 45.6065 21.599 45.6059C21.7083 45.6059 21.8176 45.6065 21.8816 45.6283C21.6903 45.5835 21.4524 45.6059 21.2168 45.6054C15.8856 45.6037 10.5544 45.6054 5.22315 45.601C4.94103 45.601 4.63267 45.6776 4.39922 45.4277C4.52661 44.9138 4.79943 44.4578 4.97985 43.9646C5.07772 43.6973 5.24775 43.542 5.55556 43.5819C5.83549 43.6185 5.97327 43.4873 5.93281 43.2069C5.80159 42.2944 6.09683 41.5082 6.57796 40.7476C7.01152 40.0631 7.37892 39.3365 7.77749 38.6247C7.97104 38.722 7.89723 38.8658 7.89777 38.9757C7.90324 40.3387 7.89941 41.7022 7.90215 43.0653C7.90324 43.5759 7.90871 43.5797 8.41444 43.5825C9.10496 43.5863 9.79604 43.5874 10.4866 43.5819C10.9546 43.5786 10.9611 43.5726 10.9622 43.0827C10.9655 41.6104 10.9633 40.138 10.9633 38.6662C10.9633 37.3573 10.965 36.049 10.9628 34.7401C10.9617 34.1928 10.9584 34.1896 10.4313 34.1874C9.72277 34.1841 9.01366 34.1879 8.30454 34.1857C8.16294 34.1852 8.00876 34.2191 7.90488 34.0758C8.18536 33.8473 8.5216 33.9337 8.83871 33.9118C9.54946 33.8632 10.2783 34.0419 10.9688 33.744C11.2454 33.7298 11.3559 33.5056 11.5024 33.3241C11.9338 32.791 12.3679 32.2607 12.8249 31.6997C12.995 31.8955 12.9266 32.083 12.9266 32.247C12.931 35.7953 12.9299 39.3442 12.9299 42.8925C12.9299 43.6164 12.872 43.5841 13.5991 43.5836C14.2727 43.583 14.9457 43.5874 15.6193 43.5819C16.0901 43.5781 16.09 43.5732 16.0983 43.0844C16.0993 43.0297 16.0983 42.975 16.0983 42.9204C16.0983 38.8805 16.0983 34.8407 16.0983 30.8009C16.0983 30.1055 16.1338 30.1432 15.4493 30.1437C14.7577 30.1443 14.066 30.1486 13.375 30.1421C12.9458 30.1383 12.9299 30.1268 12.9283 29.7227C12.9228 28.0486 12.9261 26.3745 12.9266 24.7004C12.9266 24.5747 12.9102 24.4413 13.0409 24.3582C13.2388 24.5878 13.2044 24.8694 13.2055 25.1389C13.2104 26.4844 13.2022 27.8294 13.2099 29.1749C13.2131 29.8031 13.2705 29.8545 13.8987 29.8632C14.3531 29.8698 14.808 29.8698 15.2623 29.8632C15.8724 29.8545 15.9009 29.8124 15.9293 29.2137C15.9463 28.8594 15.8314 28.4795 16.1059 28.1689Z" fill="#41767C"/>
<path d="M3.87256 82.2809C4.17764 81.5455 4.46249 80.8014 4.79271 80.077C5.67952 78.1301 6.85281 76.374 8.28526 74.7797C9.10317 73.8694 10.0288 73.093 10.9719 72.3248C12.0583 71.4402 13.3136 70.9613 14.6646 70.6775C14.9981 70.6076 15.3474 70.6097 15.664 70.4616C16.249 70.0909 16.928 70.1587 17.565 70.1018C19.5354 69.9258 21.5119 69.8153 23.4927 69.8536C24.2423 69.8678 24.9869 69.9427 25.7299 70.0346C25.9705 70.1538 25.9606 70.3916 25.9727 70.6015C26.0941 72.6753 28.7484 73.6397 30.2361 72.8202C31.1054 72.3412 31.4608 71.578 31.6697 70.683C31.7183 70.4752 31.6768 70.1647 32.0562 70.221C33.4537 70.3577 34.856 70.3325 36.2502 70.2522C37.6826 70.1696 39.1178 70.1898 40.5492 70.0778C41.4535 70.0072 42.36 69.964 43.2648 69.893C44.3134 69.847 45.3583 69.7557 46.4025 69.6535C46.7038 69.6267 47.0116 69.6961 47.3085 69.5977C47.6617 69.5174 48.0258 69.5616 48.3833 69.5042C48.7415 69.4468 48.9585 69.2812 49.0793 68.9269C49.3237 68.2112 49.6119 67.5103 49.8847 66.8045C49.9552 66.6219 49.9957 66.419 50.1898 66.3124C50.6599 65.1014 51.1301 63.8904 51.5998 62.6793C51.6391 62.5782 51.6791 62.4776 51.7146 62.3759C51.7797 62.1906 51.8983 62.0933 52.0847 62.2004C52.2914 62.3191 52.374 62.1758 52.4757 62.0522C53.0618 62.5525 53.8119 62.6908 54.5013 62.9576C56.6199 63.7766 58.7341 64.6082 60.8773 65.3649C61.4323 65.5158 61.5301 65.9226 61.4798 66.4218C61.2633 68.5666 61.0036 70.7043 60.4531 72.7956C60.3022 73.2275 60.2655 73.6687 60.2715 74.1274C60.2934 75.8267 60.2803 77.5265 60.2792 79.2257C60.2792 79.4056 60.2907 79.5882 60.2191 79.7599C60.1496 79.8687 60.0671 79.9179 59.9741 79.7878C59.8741 79.6473 59.8741 79.4789 59.8735 79.3159C59.8664 77.8272 59.8653 76.3379 59.8757 74.8491C59.8773 74.6436 59.873 74.4243 59.9878 74.251C59.5422 75.8994 58.8304 77.4396 57.8249 78.8425C56.7992 80.2738 55.4488 81.2148 53.7228 81.6013C51.6151 82.2907 49.5113 82.9927 47.3948 83.6543C47.2357 83.7035 47.0761 83.7522 46.9186 83.8079C45.6108 84.2398 44.308 84.6871 42.9871 85.0769C42.8843 85.1081 42.7804 85.1359 42.6803 85.1764C42.6311 85.1988 42.5808 85.2163 42.5294 85.2333C41.6612 85.5236 41.6612 85.5236 41.7154 86.6641C41.7044 87.6334 41.7761 88.6033 41.6749 89.5705C41.5207 90.5929 41.6219 91.6208 41.6109 92.6459C41.6005 93.6273 41.6672 94.6092 41.5699 95.5895C41.5595 95.6431 41.5431 95.6956 41.5333 95.7492C41.3168 96.9777 41.466 97.1614 42.682 97.1614C48.3451 97.1614 54.0076 97.1603 59.6707 97.1636C59.9944 97.1636 60.3295 97.11 60.6297 97.292C60.7658 97.4681 60.616 97.5129 60.4979 97.5474C60.2497 97.6195 59.9916 97.5928 59.7379 97.5928C53.9322 97.5938 48.1264 97.5999 42.3206 97.5845C41.7061 97.5829 41.2102 97.7436 40.7132 98.1111C34.8456 102.449 28.9589 106.763 23.0887 111.098C22.5425 111.501 22.3506 111.494 22.0526 110.936C21.0925 109.139 20.0165 107.406 19.1369 105.571C19.1188 105.548 19.1084 105.516 19.1073 105.482C19.0674 105.485 19.074 105.5 19.103 105.543C19.1412 105.599 19.1615 105.665 19.1861 105.73C19.5371 107.362 19.8115 109.006 20.1286 110.643C20.2533 111.288 20.0887 111.47 19.4272 111.481C18.4851 111.497 17.5426 111.486 16.6005 111.485C16.378 111.484 16.1692 111.438 15.9767 111.325C15.1419 111.325 14.307 111.316 13.4727 111.331C13.2277 111.335 13.0692 111.255 12.9331 111.056C11.5651 109.057 10.5799 106.901 10.2229 104.487C10.1966 104.308 10.1901 104.126 10.1819 103.945C10.1556 103.336 10.1567 103.344 9.52635 103.33C9.27922 103.325 9.02061 103.403 8.78333 103.267C8.88885 103.089 9.06982 103.119 9.224 103.133C10.4181 103.239 11.5695 102.987 12.7258 102.749C15.1621 102.248 17.6054 101.783 20.0472 101.308C20.7153 101.178 20.7136 101.17 20.6606 100.487C20.6508 100.359 20.6622 100.233 20.7076 100.112C20.7984 99.9142 20.9777 99.8234 21.1636 99.7452C23.4659 98.7721 25.6386 97.5507 27.772 96.2587C28.2247 95.9848 28.638 95.8957 29.158 96.0657C30.0289 96.3517 30.9113 96.2839 31.6718 95.7535C32.7762 94.9832 33.9687 94.8192 35.2579 95.0384C35.5433 95.0871 35.938 95.268 36.072 94.876C36.1977 94.5092 35.8401 94.2998 35.5717 94.1155C35.0868 93.7825 34.5548 93.5535 33.9736 93.4392C33.7986 93.4048 33.5712 93.3534 33.5996 93.1259C33.6242 92.9313 33.8495 92.9575 34.0053 92.9357C34.6193 92.8482 35.2322 92.7711 35.8396 92.9881C35.9757 93.0368 36.1255 93.0434 36.271 93.0477C36.4733 93.0543 36.6941 93.0674 36.7975 92.8515C36.9041 92.6278 36.7362 92.4698 36.5979 92.3299C36.1441 91.8712 35.5908 91.6197 34.9457 91.588C34.5455 91.5683 34.1458 91.5863 33.7467 91.6279C33.6417 91.6388 33.5121 91.6328 33.4733 91.5043C33.4367 91.3824 33.5313 91.2987 33.6204 91.2402C33.9867 90.9991 34.3946 90.9313 34.8227 90.9876C35.1294 91.0281 35.4323 91.0943 35.7401 91.1249C35.9451 91.1451 36.1589 91.1342 36.2666 90.9259C36.3896 90.6891 36.2513 90.4928 36.0862 90.3469C35.3885 89.7307 34.5788 89.5027 33.6554 89.6585C33.4066 89.7006 33.0534 89.9292 32.92 89.6153C32.7823 89.29 33.1765 89.1523 33.3957 88.98C33.8621 88.6126 34.4318 88.4595 34.9605 88.219C35.2885 88.0697 35.8052 87.9565 35.651 87.4639C35.5132 87.0227 35.0354 87.1129 34.6537 87.1463C33.61 87.2387 32.6396 87.6258 31.639 87.8937C29.4926 88.4688 27.3001 88.833 25.1313 89.3048C23.4774 89.6645 21.8219 90.0134 20.1746 90.4037C19.8908 90.471 19.6081 90.5426 19.3124 90.5038C17.9204 90.6 16.5333 90.7651 15.1391 90.8313C14.5847 90.8575 14.4973 90.7411 14.6596 90.2009C15.0232 88.9871 15.3835 87.7723 15.7258 86.5525C15.3447 87.8308 14.9658 89.1091 14.594 90.3901C14.4945 90.7318 14.2928 90.9177 13.9379 90.9324C13.7772 90.939 13.6203 90.9718 13.3786 91.0024C15.2638 90.8455 17.0675 90.7137 18.8673 90.5431C19.0702 90.524 19.2681 90.5224 19.4272 90.6815C19.7055 91.7405 19.7842 92.8323 19.9384 93.9099C20.1133 95.1346 20.2894 96.3593 20.4561 97.5851C20.4933 97.8574 20.5283 98.1264 20.4758 98.3992C20.3178 98.7819 20.5048 99.1531 20.5359 99.5255C20.5644 99.8661 20.5868 100.215 20.6557 100.549C20.7415 100.97 20.5775 101.157 20.1866 101.242C19.2134 101.454 18.2364 101.65 17.2583 101.837C15.3174 102.208 13.3836 102.613 11.4432 102.989C10.3251 103.206 9.21033 103.172 8.09117 103.024C6.81727 102.863 5.68498 102.338 4.6522 101.609C2.89445 100.369 1.74029 98.6933 1.20887 96.6053C0.868797 95.2691 0.884652 93.9209 1.15802 92.5732C1.81082 89.3556 2.55875 86.1627 3.62871 83.0534C3.71838 82.8008 3.86545 82.5619 3.87256 82.2809Z" fill="url(#paint0_linear_64_7246)"/>
<path d="M19.1565 105.421C19.6688 106.341 20.1827 107.261 20.6939 108.181C21.2051 109.102 21.7059 110.029 22.2269 110.944C22.4631 111.359 22.4806 111.35 22.8497 111.077C25.9163 108.814 28.9807 106.549 32.0496 104.29C35.0457 102.084 38.0489 99.8884 41.0428 97.6796C41.2812 97.5041 41.5234 97.456 41.8044 97.4566C43.66 97.462 45.5162 97.4593 47.3718 97.4593C51.5932 97.4593 55.8139 97.4598 60.0353 97.4582C60.2529 97.4582 60.4699 97.4385 60.6875 97.4281C61.1862 97.1794 61.6449 97.4571 62.1107 97.5528C62.7269 97.6791 62.7586 97.6813 62.9516 97.0656C64.4042 92.4326 65.8875 87.81 67.3626 83.184C67.5693 82.5356 67.5611 82.5214 66.8667 82.5203C65.5026 82.5181 64.138 82.546 62.775 82.511C61.6416 82.4815 60.7373 82.0014 60.207 80.9572C60.0358 80.6204 59.8762 80.2579 60.0889 79.8681C60.0982 79.1256 60.1206 78.3832 60.1129 77.6412C60.1003 76.3378 60.1501 75.0344 60.0856 73.731C60.0692 73.398 60.1725 73.0585 60.3426 72.7556C60.5607 72.9803 60.5016 73.2668 60.5027 73.5325C60.5093 75.4975 60.4995 77.463 60.5088 79.428C60.5137 80.4821 60.9112 81.3005 61.9456 81.7161C62.2381 81.8336 62.5399 81.8806 62.8521 81.8812C64.2714 81.8834 65.6907 81.8675 67.1095 81.8899C67.5955 81.8976 67.8438 81.7024 67.9684 81.248C68.0788 80.8456 68.2095 80.4465 68.3451 80.0507C68.4096 79.8621 68.4982 79.6406 68.7563 79.7074C69.0236 79.7762 68.9651 80.0152 68.9323 80.2076C68.8656 80.604 68.724 80.9807 68.5895 81.3568C68.4867 81.6439 68.5315 81.8516 68.8268 81.9752C68.9766 82.1245 68.8809 82.2557 68.7978 82.388C68.2861 82.4875 68.1002 82.8429 67.9498 83.3136C66.431 88.0828 64.9351 92.8591 63.3884 97.6195C63.2375 98.0837 63.6853 98.14 63.7192 98.439C63.6301 99.4899 63.1571 100.428 62.846 101.413C62.7739 101.642 62.5519 101.722 62.3217 101.748C62.0675 101.777 61.8127 101.769 61.5579 101.769C54.7844 101.769 48.0109 101.769 41.2369 101.769C41.0915 101.769 40.9455 101.769 40.8001 101.769C39.8476 101.771 39.7192 101.965 40.1691 102.803C40.5584 103.527 41.1379 104.021 41.9799 104.158C42.3943 104.225 42.8077 104.274 43.2287 104.274C50.0022 104.272 56.7757 104.273 63.5497 104.272C64.5355 104.272 64.5841 104.233 64.8602 103.262C65.0745 102.508 65.3435 101.772 65.5836 101.027C65.6388 100.856 65.6836 100.673 65.8629 100.577C66.1478 100.53 66.2385 100.753 66.3408 100.939C67.8263 103.652 67.7377 106.319 65.9832 108.861C65.0756 110.176 64.027 111.394 63.0172 112.636C62.8783 112.807 62.717 112.952 62.5289 113.067C62.4868 113.099 62.4272 113.123 62.4048 113.166C62.0402 113.869 61.4612 114.022 60.7029 113.97C59.7477 113.903 58.7838 113.964 57.8243 113.97C56.2699 114.088 54.7134 114.138 53.1541 114.128C50.7222 114.111 48.2898 114.148 45.8584 114.107C45.0444 114.093 44.2325 114.026 43.42 113.97C43.2024 113.964 42.9843 113.953 42.7667 113.953C36.003 113.952 29.2388 113.969 22.4751 113.944C20.0192 113.935 17.8815 113.018 16.0291 111.421C16.004 111.399 15.9936 111.359 15.9767 111.328C17.1756 111.328 18.3752 111.331 19.5742 111.327C20.0274 111.326 20.0925 111.256 20.011 110.823C19.7907 109.65 19.5468 108.481 19.3363 107.307C19.2314 106.72 19.0619 106.144 19.0345 105.544C19.0001 105.425 19.0526 105.397 19.1565 105.421Z" fill="#363E44"/>
<path d="M62.5284 113.065C63.021 112.301 63.641 111.636 64.1949 110.921C64.7946 110.145 65.4688 109.418 65.9925 108.595C67.677 105.945 67.6152 103.262 65.9942 100.595C65.7377 100.403 65.8673 100.166 65.9346 99.9499C66.6273 97.7307 67.3315 95.5153 68.0406 93.3021C69.1045 89.9812 70.1428 86.6527 71.2117 83.3335C71.2789 83.1252 71.3243 82.9125 71.3522 82.696C71.3828 82.4598 71.4812 82.281 71.7387 82.2307C71.9563 82.1914 72.175 82.2067 72.3926 82.2067C80.3902 82.2056 88.3884 82.205 96.3861 82.2094C96.6862 82.2094 97.011 82.1252 97.2712 82.3685C97.2822 82.7862 97.0662 83.1405 96.9109 83.4991C96.017 85.5653 95.0766 87.6089 93.9143 89.5433C93.7672 89.7882 93.6032 90.0365 93.5671 90.335C93.3079 90.4214 93.1658 90.212 92.9974 90.0944C92.6251 89.8336 92.2604 89.5619 91.905 89.2781C91.6196 89.0501 91.3949 89.013 91.1248 89.3323C90.7334 89.7953 90.6049 89.7729 89.828 89.4476C89.3862 89.2628 89.2014 88.9731 89.3135 88.5078C89.3709 88.2705 89.3304 88.1201 89.05 88.0944C88.038 88.0004 87.0309 87.8588 86.0211 87.744C85.6334 87.6997 85.4935 87.838 85.5011 88.2109C85.5099 88.6363 85.2742 88.8386 84.8582 88.8522C84.7313 88.8566 84.6056 88.8763 84.4809 88.9074C84.049 89.0152 83.7253 88.8889 83.5618 88.4558C83.429 88.1037 83.2114 88.0469 82.8768 88.1983C82.0485 88.5728 81.2109 88.9277 80.3706 89.2727C79.9862 89.4307 79.8402 89.633 80.0622 90.0129C80.2825 90.3896 80.1628 90.6647 79.8211 90.8872C79.6997 90.9665 79.5789 91.0506 79.475 91.1523C79.1792 91.4405 78.8698 91.4689 78.5543 91.1999C78.247 90.938 78.0108 90.9932 77.7922 91.3175C77.2629 92.1015 76.6774 92.845 76.106 93.5979C75.9059 93.8614 75.9245 94.0353 76.1787 94.2299C76.3909 94.3923 76.6752 94.5525 76.5866 94.8772C76.4778 95.2775 76.3499 95.6831 76.0574 95.9986C75.9163 96.1511 75.7151 96.1047 75.5391 96.074C75.1815 96.0117 74.9929 96.1429 74.9552 96.5103C74.854 97.5032 74.7375 98.4944 74.6036 99.4835C74.5653 99.764 74.7468 99.8061 74.9519 99.8629C75.6271 100.05 76.0076 100.723 75.8288 101.388C75.7627 101.634 75.556 101.719 75.3548 101.799C74.9951 101.944 74.9218 102.142 75.0951 102.514C75.4855 103.354 75.8239 104.219 76.1979 105.067C76.293 105.283 76.357 105.496 76.7042 105.394C77.5172 105.155 77.919 105.42 78.159 106.293C77.6254 106.488 77.1973 106.862 76.72 107.151C74.9174 108.242 73.0552 109.212 71.14 110.089C69.3074 110.929 67.4244 111.628 65.5059 112.238C64.5245 112.55 63.5322 112.83 62.5284 113.065Z" fill="#41767C"/>
<path d="M97.271 82.3683C97.0534 82.3579 96.8363 82.3394 96.6187 82.3394C88.5189 82.3377 80.4184 82.3383 72.3186 82.3377C72.0638 82.3377 71.809 82.3344 71.5542 82.3328C71.3738 82.1633 71.4148 82.0326 71.6248 81.9309C71.8352 81.8566 72.055 81.8648 72.2726 81.8648C80.5633 81.8626 88.854 81.8626 97.1447 81.8642C97.2355 81.8642 97.3262 81.8664 97.4159 81.8785C98.3836 81.9359 99.1594 81.5963 99.681 80.7588C99.8664 80.4608 99.9467 80.1218 99.9467 79.7702C99.9462 77.1913 99.9697 74.6129 99.944 72.0334C99.9396 66.9613 99.9303 61.8904 99.9451 56.8189C99.9954 55.9818 99.9402 55.1453 99.9402 54.3083C99.9413 42.1133 99.9391 29.9184 99.9451 17.7235C99.9456 16.9909 99.851 16.3178 99.3076 15.7607C98.9052 15.3485 98.4361 15.1188 97.8708 15.0565C97.5985 15.0265 97.3262 15.0226 97.0528 15.0226C85.877 15.0221 74.7018 15.0215 63.526 15.0243C62.7403 15.0243 61.953 15.0434 61.3101 15.6016C60.6726 16.2172 60.5146 16.9854 60.5151 17.8427C60.5244 29.8561 60.5222 41.87 60.5189 53.8834C60.5189 54.2432 60.5802 54.6144 60.4008 54.9561C60.2937 55.0699 60.1592 55.165 60.0258 55.0382C59.9044 54.9222 59.8618 54.7265 59.9241 54.5778C60.2029 53.9102 60.0668 53.2153 60.0673 52.5352C60.0766 40.9149 60.0739 29.2946 60.0761 17.6743C60.0761 17.4583 60.0383 17.238 60.1127 17.0253C60.0602 16.4316 60.3812 15.9712 60.66 15.4961L60.6676 15.4863C60.7108 15.4638 60.7442 15.431 60.7661 15.3873C61.3964 14.799 62.1345 14.577 63.0028 14.5781C74.5646 14.5929 86.1264 14.5896 97.6882 14.5847C98.6734 14.5841 99.4459 14.9543 100.005 15.7678C100.281 16.1691 100.398 16.6207 100.426 17.0997C100.435 17.2451 100.428 17.3911 100.428 17.5365C100.428 31.4837 100.428 45.4304 100.428 59.3776C100.428 66.1505 100.425 72.924 100.431 79.697C100.432 80.8593 99.6706 82.0212 98.3016 82.2984C97.967 82.3672 97.6149 82.3481 97.271 82.3683Z" fill="#3C4349"/>
<path d="M5.93002 40.036C5.93002 41.7281 5.93166 43.4208 5.92893 45.113C5.92838 45.6783 5.90378 45.7024 5.34994 45.7056C4.65832 45.7095 3.9667 45.7117 3.27563 45.7045C2.81801 45.6996 2.77263 45.6581 2.77208 45.2021C2.7688 41.7265 2.7688 38.2509 2.77208 34.7753C2.77263 34.3658 2.78466 34.3582 3.2133 34.3543C3.97763 34.3483 4.74197 34.3478 5.5063 34.3543C5.9169 34.3582 5.92674 34.3669 5.92784 34.7944C5.93221 36.5424 5.93002 38.2892 5.93002 40.036Z" fill="#3BB3C1"/>
<path d="M10.9674 43.7429C10.987 44.0523 10.7935 44.0807 10.5502 44.0791C9.66831 44.072 8.78588 44.0753 7.90345 44.0747C7.90126 41.0026 7.89853 37.9311 7.89853 34.859C7.89853 34.3592 7.90509 34.356 8.41957 34.3538C9.09205 34.3505 9.76453 34.3505 10.437 34.3538C10.9597 34.356 10.963 34.3592 10.9635 34.9087C10.9652 36.4172 10.9641 37.9261 10.9641 39.4346C10.9652 40.8709 10.9663 42.3071 10.9674 43.7429Z" fill="#3BB3C1"/>
<path d="M78.1601 106.293C77.96 106.035 77.7446 105.788 77.5642 105.517C77.4368 105.326 77.3078 105.286 77.1104 105.389C77.0147 105.438 76.9059 105.463 76.8048 105.503C76.3351 105.692 76.2925 105.667 76.0907 105.188C75.7031 104.268 75.3089 103.35 74.9109 102.435C74.7152 101.984 74.7244 101.941 75.1618 101.728C75.7026 101.464 75.702 101.464 75.6457 100.886C75.6386 100.814 75.6441 100.74 75.6369 100.668C75.5921 100.206 75.5336 100.141 75.0787 100.044C74.397 99.8983 74.4369 99.9027 74.5134 99.2083C74.5927 98.4888 74.6895 97.7715 74.76 97.0509C74.7846 96.7978 74.7983 96.5479 74.8617 96.2981C74.9595 95.9121 74.9492 95.9372 75.3521 95.9061C75.579 95.8886 75.8305 96.1351 76.0169 95.8918C76.1449 95.7245 76.1952 95.4982 76.2821 95.2992C76.3187 95.2161 76.3537 95.1313 76.3996 95.0532C76.5402 94.8131 76.5232 94.6529 76.2668 94.4643C75.5724 93.9537 75.6162 94.0193 76.0831 93.3889C76.6555 92.6164 77.2241 91.8411 77.8058 91.0751C78.0847 90.7082 78.1344 90.7115 78.5029 90.9778C78.5472 91.0095 78.5833 91.0521 78.6265 91.085C78.9961 91.3638 78.9966 91.3638 79.3531 91.0603C79.3947 91.0248 79.4335 90.9865 79.4767 90.9526C79.6757 90.7957 79.9534 90.6782 80.0535 90.4737C80.1497 90.2763 79.9004 90.0533 79.8217 89.834C79.6904 89.4694 79.7156 89.4054 80.0666 89.2534C80.9999 88.8494 81.9342 88.4475 82.8681 88.0446C83.3563 87.8341 83.4553 87.8751 83.6827 88.3819C83.8855 88.834 83.9599 88.874 84.4284 88.7799C84.464 88.7728 84.4984 88.7449 84.5318 88.7471C85.16 88.7865 85.4683 88.541 85.3912 87.8674C85.3688 87.6717 85.4897 87.5339 85.7833 87.5727C86.8953 87.7209 88.0128 87.8231 89.1287 87.9418C89.4557 87.9768 89.5437 88.0828 89.4923 88.4016C89.4781 88.4901 89.436 88.5743 89.4201 88.6635C89.3698 88.945 89.4311 89.1681 89.7444 89.2561C89.8488 89.2851 89.9483 89.3321 90.05 89.3709C90.6809 89.6115 90.6809 89.6115 91.1145 89.1282C91.4338 88.7723 91.4567 88.7657 91.8673 89.067C92.437 89.4852 93.0007 89.9117 93.5671 90.3348C93.8563 90.5541 94.1363 90.7875 94.4375 90.9887C94.6354 91.121 94.6562 91.2501 94.5348 91.4387C94.3801 91.6793 94.0482 91.8761 94.0947 92.1538C94.1341 92.3878 94.414 92.5775 94.5748 92.7957C94.876 93.2052 94.8722 93.2074 95.3462 93.0144C95.4468 92.9734 95.5512 92.9406 95.6524 92.9012C95.8618 92.8197 95.999 92.8864 96.0848 93.0937C96.2106 93.3955 96.3478 93.6918 96.4768 93.9919C96.7847 94.7093 97.0941 95.4255 97.3965 96.1455C97.5506 96.5129 97.5271 96.5594 97.1717 96.7267C96.5168 97.0351 96.5168 97.0351 96.6381 97.7546C96.6414 97.7726 96.6441 97.7901 96.6474 97.8082C96.7639 98.4265 96.7639 98.4265 97.4216 98.5227C97.8278 98.5823 97.8508 98.5845 97.8125 98.9913C97.7414 99.748 97.66 100.504 97.5441 101.255C97.497 101.562 97.5244 101.872 97.4577 102.174C97.3718 102.566 97.3494 102.576 96.9536 102.582C96.7229 102.586 96.4446 102.442 96.2773 102.589C96.1176 102.729 96.0744 103.003 95.9826 103.219C95.9471 103.302 95.9307 103.395 95.8864 103.473C95.7491 103.715 95.7732 103.868 96.0302 104.05C96.6633 104.497 96.6491 104.53 96.1849 105.145C95.6059 105.913 95.034 106.687 94.4528 107.454C94.2057 107.781 94.2035 107.763 93.8438 107.547C93.6453 107.427 93.5119 107.169 93.2533 107.191C93.0253 107.21 92.9296 107.469 92.7377 107.573C92.6743 107.608 92.6142 107.651 92.5573 107.695C92.1462 108.015 92.1467 108.016 92.367 108.495C92.39 108.545 92.4162 108.592 92.4381 108.642C92.5983 109.005 92.6038 109.036 92.2659 109.185C91.22 109.648 90.1648 110.09 89.1178 110.55C88.8865 110.652 88.8051 110.546 88.7001 110.362C88.5694 110.133 88.5656 109.798 88.2769 109.695C88.0314 109.608 87.7783 109.748 87.5273 109.779C86.9396 109.852 86.9396 109.852 86.892 110.469C86.8532 110.971 86.8549 110.96 86.3415 110.9C85.2983 110.777 84.254 110.665 83.2092 110.554C82.7773 110.508 82.7489 110.48 82.8167 110.06C82.8282 109.989 82.8369 109.917 82.8429 109.845C82.8812 109.379 82.8785 109.375 82.4575 109.2C82.4405 109.193 82.4247 109.185 82.4072 109.179C82.1371 109.075 81.8544 108.869 81.6002 108.9C81.3667 108.928 81.2393 109.274 81.0835 109.493C80.931 109.707 80.7834 109.699 80.5833 109.547C79.6861 108.866 78.7889 108.185 77.8736 107.529C77.6473 107.367 77.6402 107.237 77.7796 107.045C77.9075 106.869 78.042 106.697 78.1738 106.524C78.2389 106.442 78.2547 106.363 78.1601 106.293Z" fill="#D3BBA3"/>
<path d="M20.7892 24.3472C21.2173 24.404 21.2277 24.404 21.2283 24.7753C21.2321 26.6112 21.2326 28.4471 21.2277 30.2831C21.2266 30.6652 21.2058 30.6833 20.8231 30.6871C20.0413 30.6948 19.26 30.6948 18.4782 30.6871C18.0769 30.6833 18.0659 30.6707 18.0638 30.2371C18.0583 29.1103 18.0621 27.983 18.0616 26.8561C18.0616 26.7473 18.0561 26.638 18.0528 26.5292C18.055 25.9283 18.067 25.3275 18.0556 24.7271C18.0501 24.4412 18.1649 24.3461 18.4421 24.3494C19.2239 24.3586 20.0069 24.3494 20.7892 24.3472Z" fill="#3BB3C1"/>
<path d="M16.0001 39.2258C15.9974 40.3462 15.9862 41.4666 15.9948 42.5857C15.999 43.1884 15.9296 43.5098 15.6388 43.4998C14.8777 43.4723 14.1156 43.4723 13.3545 43.4998C13.0626 43.5098 12.9975 43.1797 13.0002 42.5819C13.0082 40.715 13.0023 38.8481 13.0028 36.9812C13.0039 34.8242 13.006 32.6659 13.0082 30.5089C13.8616 30.5064 14.7144 30.4927 15.5678 30.5052C15.9809 30.5102 15.9905 30.5314 15.9932 31.4818C15.9996 34.0614 15.998 36.6436 16.0001 39.2258Z" fill="#3BB3C1"/>
<path d="M4.39845 45.4266C4.63464 45.431 4.87137 45.4397 5.10756 45.4397C10.494 45.4403 15.8799 45.4403 21.2663 45.4414C21.4473 45.4414 21.6288 45.4517 21.8087 45.4714C21.8491 45.4758 21.9011 45.5348 21.9147 45.5797C21.941 45.6622 21.877 45.7278 21.8087 45.7366C21.6293 45.7585 21.4473 45.7678 21.2663 45.7678C15.7891 45.7694 10.3119 45.7688 4.83474 45.7694C4.61659 45.7694 4.39845 45.7771 4.1803 45.7814C3.21531 45.7771 2.25032 45.7749 1.28588 45.7678C0.737509 45.7639 0.699784 45.7289 0.699784 45.1729C0.698144 40.5661 0.698691 35.9599 0.698691 31.3531C0.698691 31.335 0.697597 31.3165 0.699238 31.2984C0.712359 31.1246 0.654405 30.8463 0.87638 30.8479C1.13499 30.849 1.02126 31.1338 1.02126 31.2908C1.02783 35.7696 1.02564 40.249 1.02728 44.7279C1.02728 45.5124 0.955109 45.4392 1.72273 45.4392C2.61445 45.4397 3.50617 45.431 4.39845 45.4266Z" fill="#D4BCA4"/>
<path d="M20.7957 100.067C20.7952 100.303 20.8061 100.534 20.8608 100.768C20.9592 101.192 20.8859 101.288 20.472 101.37C18.9811 101.663 17.4896 101.954 15.9987 102.247C14.4366 102.554 12.8762 102.87 11.3126 103.169C10.8566 103.256 10.4023 103.332 9.92279 103.254C9.55319 103.194 9.16228 103.208 8.78339 103.268C8.54447 103.213 8.25032 103.316 8.09286 103.027C8.1951 102.993 8.30609 102.915 8.39849 102.933C9.77243 103.192 11.1054 102.917 12.4405 102.647C14.909 102.149 17.3786 101.657 19.8477 101.163C19.9187 101.149 19.992 101.145 20.0631 101.129C20.5737 101.015 20.5475 101.017 20.4961 100.501C20.4381 99.9241 20.3616 99.3511 20.2621 98.7798C20.2408 98.6573 20.2353 98.5223 20.3572 98.431C20.5694 98.3943 20.6541 98.5409 20.6858 98.7C20.7744 99.1499 20.922 99.5983 20.7957 100.067Z" fill="#383F45"/>
<path d="M60.7665 15.3879C60.7588 15.4459 60.7255 15.4787 60.6681 15.4869C60.6779 15.4317 60.7123 15.4 60.7665 15.3879Z" fill="#41767C"/>
<path d="M22.5824 59.1803C22.4828 58.5734 22.5452 58.3924 23.0892 58.1366C23.3215 58.0272 23.3177 57.9255 23.2751 57.7243C23.1072 56.9392 23.5255 56.4373 24.3221 56.4964C24.549 56.5133 24.6802 56.5319 24.7731 56.276C24.9104 55.9004 25.2548 55.8512 25.5916 55.9108C25.8513 55.9567 25.9169 55.884 25.9863 55.6364C26.1126 55.1864 26.3357 55.0672 26.8726 55.1437C27.1487 55.1831 27.3225 55.1667 27.5227 54.9272C27.8179 54.5735 28.2039 54.6839 28.5789 54.9163C28.6866 54.72 28.7774 54.5281 28.8922 54.3521C29.3668 53.6222 30.1038 53.562 30.6336 54.24C30.8304 54.492 30.9633 54.5762 31.2317 54.3641C31.4187 54.2165 31.6598 54.1706 31.8965 54.1525C32.4476 54.1099 32.7637 54.3461 32.82 54.9065C32.8468 55.1727 32.9364 55.264 33.1841 55.2394C33.2382 55.234 33.2929 55.2378 33.3476 55.2389C34.1797 55.2602 34.4946 55.5511 34.5651 56.3646C34.7778 56.7582 34.5055 57.0382 34.3279 57.334C34.2087 57.5324 34.0381 57.6937 33.8664 57.8495C33.2519 58.1994 32.5723 58.4077 31.949 58.7445C31.1349 59.1847 30.2864 59.5614 29.469 59.9966C28.603 60.458 28.3761 61.4613 28.9994 62.2086C29.568 62.891 30.2093 63.5153 30.8583 64.1195C31.5324 64.7477 31.8911 64.7482 32.6565 64.2348C33.6406 63.5738 34.6504 62.9713 35.786 62.6067C36.061 62.5181 36.3327 62.4027 36.6334 62.441C36.7138 62.4738 36.775 62.5285 36.8226 62.6007C37.2797 63.6542 37.646 64.7444 38.0992 65.8001C38.5208 67.0128 38.2337 67.5322 36.9948 67.8816C35.5515 68.2883 34.1059 68.3457 32.6472 67.9915C31.381 67.6618 30.2197 67.1085 29.2492 66.2261C28.5445 65.5853 28.2679 64.7624 28.492 63.8057C28.6309 63.2114 28.492 62.9746 27.9092 62.8051C26.9879 62.5367 26.1006 63.1239 25.9655 64.0889C25.9388 64.2808 25.9748 64.5006 25.7452 64.6066C25.2756 64.5465 25.0585 64.1654 24.8196 63.8396C24.1198 62.8871 23.7513 61.7893 23.5402 60.6423C23.4626 60.2202 23.3286 59.896 22.9361 59.6844C22.7518 59.5865 22.5703 59.4389 22.5824 59.1803Z" fill="#363E44"/>
<path d="M60.1133 17.0259C60.116 17.2801 60.1215 17.5349 60.1215 17.7891C60.122 29.7555 60.1198 41.7219 60.1291 53.6883C60.1297 54.1311 59.9509 54.5734 60.1259 55.0365C60.2084 55.0026 60.2899 54.9687 60.3713 54.9348C60.9602 54.697 61.4495 54.7823 61.6873 55.3487C61.9306 55.9283 62.3013 56.0666 62.842 56.0289C63.5708 56.3438 63.8426 57.0108 63.5364 57.8287C63.2308 58.6455 62.8409 59.4279 62.5036 60.2322C62.3981 60.4837 62.3046 60.7395 62.1974 60.9905C61.6469 62.196 61.3052 63.4639 61.0531 64.7602C61.0061 65.0024 61.0034 65.2709 60.7628 65.4327C60.3839 65.4327 60.0701 65.2266 59.7333 65.1003C57.4726 64.2556 55.214 63.4054 52.9576 62.5476C52.734 62.4628 52.4415 62.406 52.4743 62.0528C52.9232 60.7461 53.4639 59.4766 54.0451 58.2251C54.9488 56.2787 55.8947 54.352 57.0122 52.5177C57.4469 51.8048 57.8722 51.0793 58.4786 50.4877C58.5305 50.4368 58.5819 50.3849 58.6338 50.3341C58.7831 50.187 58.9569 50.0618 59.1669 50.1564C59.3878 50.2559 59.4692 50.4795 59.4474 50.7042C59.42 50.9912 59.3708 51.2816 59.2872 51.5577C59.0975 52.1826 58.8809 52.7998 58.6765 53.4204C58.6486 53.5051 58.6289 53.5921 58.595 53.7156C59.104 53.7462 59.6092 53.744 59.946 54.2624C60.0635 54.0387 60.0192 53.8419 60.0192 53.6593C60.022 42.5699 60.0214 31.4805 60.0214 20.391C60.0214 19.4441 60.0192 18.4971 60.0231 17.5502C60.0247 17.3725 59.9782 17.1828 60.1133 17.0259Z" fill="#84524D"/>
<path d="M33.7428 57.7992C34.1632 57.405 34.4956 56.9611 34.564 56.3651C35.2184 56.3482 35.8581 56.4701 36.5027 56.5543C37.2544 56.6522 38.0095 56.7287 38.7645 56.7992C39.2096 56.8408 39.2577 56.873 39.2577 57.323C39.2577 57.7582 39.1341 58.1797 39.1254 58.6182C39.1205 58.8478 39.1483 58.937 39.3654 59.0059C40.1259 59.2481 40.8842 59.5006 41.59 59.8817C41.8109 60.0009 41.9296 59.8894 42.0438 59.7336C42.2904 59.3984 42.531 59.0589 42.7787 58.7243C43.0274 58.3891 43.1034 58.3804 43.4304 58.6231C45.0722 59.8424 46.7151 61.061 48.357 62.2802C48.6807 62.5203 48.6905 62.5389 48.4527 62.8784C48.1826 63.2633 47.901 63.6405 47.6112 64.0112C47.5172 64.1315 47.4942 64.2075 47.6036 64.3338C48.1476 64.9636 48.6845 65.6 49.1465 66.2949C49.2761 66.4901 49.4198 66.4677 49.6112 66.3846C49.7878 66.308 49.9638 66.0664 50.1869 66.3135C49.8119 67.3293 49.4352 68.3441 49.0639 69.361C49.0076 69.5152 48.9229 69.5819 48.7495 69.5939C48.2821 69.6273 47.819 69.7208 47.3472 69.6967C46.9256 69.8629 46.6785 69.671 46.4604 69.3173C44.3418 65.8821 41.3342 63.6165 37.4567 62.5017C37.2517 62.4426 37.0188 62.4218 36.9078 62.1917C36.9652 61.7237 36.7487 61.435 36.3135 61.2956C35.9625 61.1835 35.7373 60.9342 35.5705 60.6236C35.0757 59.7013 34.5864 58.7751 33.8018 58.0513C33.7302 57.9851 33.7324 57.8905 33.7428 57.7992Z" fill="white"/>
<path d="M22.5825 59.1802C22.7777 59.365 22.9155 59.6285 23.1856 59.7105C23.5229 59.8133 23.5787 60.0577 23.6306 60.3589C23.8624 61.7105 24.2856 62.986 25.1779 64.0647C25.3413 64.2621 25.5152 64.442 25.7399 64.5688C26.1855 64.9056 26.4195 65.4507 26.9176 65.7448C27.0789 65.84 27.0553 66.0751 27.005 66.2522C26.9214 66.5458 26.8793 66.8569 26.6945 67.1149C25.6666 67.8224 24.747 68.6496 23.9647 69.6245C23.8394 69.7803 23.7192 69.9355 23.5234 70.0083C23.1243 70.0143 22.7252 70.0219 22.3261 70.0263C20.2244 70.0509 18.1266 70.1406 16.043 70.4385C15.9178 70.4566 15.7904 70.4549 15.6636 70.4621C15.5001 70.3467 15.5701 70.2149 15.6324 70.0788C15.7899 69.7327 15.9326 69.3795 16.1004 69.0384C16.1983 68.8388 16.177 68.7212 15.9801 68.5906C15.6187 68.3511 15.2727 68.087 14.9353 67.8153C14.6226 67.5633 14.6248 67.4774 14.8681 67.1505C16.0769 65.5267 17.2852 63.9023 18.4924 62.2774C18.7548 61.9242 18.7761 61.9226 19.1271 62.1812C19.5481 62.4917 19.9751 62.7946 20.4054 63.1052C21.1112 62.5388 21.7712 61.9467 22.5098 61.4584C22.6946 61.3365 22.7247 61.2042 22.6279 61.0019C22.4409 60.6099 22.2649 60.2119 22.109 59.8067C21.9439 59.3759 21.9745 59.336 22.4212 59.2059C22.4726 59.19 22.5284 59.1884 22.5825 59.1802Z" fill="white"/>
<path d="M23.1969 33.968C23.1969 31.002 23.1969 28.0354 23.1969 25.0694C23.1969 24.942 23.2024 24.8146 23.1969 24.6872C23.1876 24.4647 23.2745 24.3504 23.5129 24.3521C24.3319 24.3575 25.1504 24.3559 25.9694 24.3543C26.1782 24.3537 26.2624 24.4603 26.2581 24.6593C26.2553 24.7867 26.2586 24.9141 26.2586 25.0415C26.2586 30.9922 26.2586 36.9428 26.2586 42.8929C26.2586 43.6163 26.316 43.5829 25.5878 43.5824C24.9508 43.5818 24.3139 43.5862 23.6769 43.5807C23.2056 43.5769 23.1991 43.572 23.1974 43.0843C23.1936 41.9378 23.1964 40.7913 23.1964 39.6448C23.1969 37.7531 23.1969 35.8603 23.1969 33.968Z" fill="white"/>
<path d="M51.716 35.2202C51.716 37.7675 51.716 40.3152 51.716 42.8625C51.716 42.9899 51.7111 43.1173 51.716 43.2447C51.7247 43.465 51.6427 43.5842 51.4033 43.5825C50.5843 43.5771 49.7658 43.5787 48.9468 43.5803C48.7401 43.5809 48.651 43.4792 48.6548 43.2785C48.6576 43.1512 48.6537 43.0238 48.6537 42.8964C48.6537 37.7833 48.6532 32.6703 48.6537 27.5572C48.6537 26.8344 48.592 26.8639 49.3213 26.865C49.9763 26.8656 50.6313 26.8601 51.2863 26.8672C51.7012 26.8716 51.704 26.8798 51.7144 27.3051C51.7204 27.5413 51.7154 27.7781 51.7154 28.0148C51.716 30.4166 51.716 32.8184 51.716 35.2202Z" fill="white"/>
<path d="M28.2244 35.939C28.2244 33.6291 28.2244 31.3191 28.2244 29.0086C28.2244 28.8632 28.2283 28.7178 28.2266 28.5723C28.2239 28.3618 28.3365 28.2858 28.5339 28.2864C29.389 28.2891 30.2435 28.2891 31.0986 28.2875C31.3058 28.2869 31.3939 28.3903 31.3895 28.5898C31.3873 28.6986 31.3906 28.808 31.3906 28.9173C31.3906 33.5919 31.3906 38.267 31.3906 42.9416C31.3906 43.0324 31.3835 43.1242 31.3911 43.2144C31.4168 43.5064 31.2687 43.5889 30.9991 43.5857C30.2353 43.5758 29.471 43.5862 28.7072 43.5813C28.2337 43.5786 28.2266 43.5725 28.2255 43.0876C28.2223 41.3779 28.2244 39.6678 28.2244 37.9581C28.2244 37.2851 28.2244 36.6121 28.2244 35.939Z" fill="white"/>
<path d="M18.0615 37.1309C18.0615 35.2572 18.0615 33.3841 18.0615 31.5104C18.0615 31.365 18.0642 31.2196 18.0648 31.0742C18.0653 30.8986 18.1451 30.8024 18.3277 30.8024C19.2009 30.8024 20.074 30.8024 20.9472 30.8008C21.1593 30.8002 21.2353 30.9151 21.2298 31.1108C21.2271 31.2196 21.2304 31.3289 21.2304 31.4383C21.2304 35.2764 21.2304 39.1144 21.2304 42.952C21.2304 43.0427 21.2244 43.134 21.2304 43.2248C21.2484 43.4768 21.1418 43.5867 20.8826 43.584C20.0642 43.5763 19.2457 43.5736 18.4273 43.5851C18.132 43.5895 18.056 43.4539 18.0588 43.1876C18.0681 42.4058 18.0615 41.6234 18.0615 40.841C18.0615 39.6049 18.0615 38.3681 18.0615 37.1309Z" fill="white"/>
<path d="M41.5528 30.9085C41.5533 34.9264 41.5538 38.9439 41.5538 42.9618C41.5538 43.0706 41.55 43.18 41.5522 43.2888C41.5566 43.4949 41.4522 43.5818 41.2515 43.5813C40.397 43.5791 39.5424 43.5791 38.6884 43.5813C38.4878 43.5818 38.3839 43.496 38.3872 43.2893C38.3893 43.1439 38.3855 42.9984 38.3855 42.853C38.385 38.8717 38.3844 34.8904 38.3839 30.909C38.4954 30.8079 38.6305 30.7549 38.7775 30.7494C39.5708 30.721 40.3647 30.7215 41.1586 30.7494C41.3062 30.7549 41.4412 30.8073 41.5528 30.9085Z" fill="white"/>
<path d="M53.6808 35.7165C53.6813 32.154 53.6819 28.5909 53.6819 25.0284C53.6819 24.3023 53.6436 24.3526 54.3653 24.3526C55.0378 24.3526 55.7102 24.3482 56.3827 24.3543C56.8354 24.3581 56.8442 24.3641 56.8463 24.8102C56.8518 25.901 56.848 26.9917 56.848 28.0824C56.8485 30.6275 56.8485 33.172 56.8491 35.717C56.737 35.8182 56.602 35.8696 56.4549 35.8745C55.6616 35.9018 54.8683 35.9018 54.075 35.8745C53.9284 35.869 53.7928 35.8176 53.6808 35.7165Z" fill="#3BB3C1"/>
<path d="M46.6875 37.9517C46.6875 39.6067 46.6875 41.2616 46.6875 42.9166C46.6875 43.044 46.6853 43.1714 46.6847 43.2982C46.6842 43.4683 46.6164 43.5776 46.4299 43.5776C45.5388 43.5776 44.6476 43.5782 43.7564 43.5754C43.6033 43.5749 43.5273 43.4847 43.5241 43.3338C43.5213 43.2064 43.5191 43.079 43.5191 42.9522C43.5186 39.6236 43.5191 36.2957 43.5191 32.9671C43.5191 32.9125 43.518 32.8578 43.5191 32.8037C43.5295 32.3373 43.5295 32.3329 44.0216 32.3302C44.7493 32.3258 45.4764 32.3258 46.2041 32.3302C46.6782 32.3335 46.6853 32.3389 46.6864 32.8228C46.6896 34.5324 46.6875 36.2421 46.6875 37.9517Z" fill="white"/>
<path d="M36.4189 38.6623C36.4189 40.0811 36.4189 41.4999 36.4189 42.9186C36.4189 43.046 36.4167 43.1734 36.4162 43.3008C36.4156 43.4719 36.3451 43.5785 36.1598 43.5785C35.3052 43.578 34.4501 43.5791 33.5956 43.5758C33.4425 43.5753 33.3665 43.4856 33.3627 43.3347C33.3599 43.2259 33.3578 43.1165 33.3578 43.0072C33.3572 40.115 33.3578 37.2233 33.3578 34.3311C33.3578 34.2403 33.361 34.149 33.3589 34.0582C33.3534 33.8609 33.4338 33.7504 33.6442 33.751C34.4808 33.7532 35.3173 33.7526 36.1543 33.7526C36.3369 33.7526 36.4162 33.8494 36.4167 34.0243C36.4173 34.1878 36.42 34.3518 36.42 34.5153C36.4189 35.8975 36.4189 37.2796 36.4189 38.6623Z" fill="white"/>
<path d="M33.3586 28.941C33.3586 27.5769 33.3564 26.2133 33.3597 24.8492C33.3608 24.3626 33.3673 24.3572 33.8392 24.3539C34.5483 24.349 35.2574 24.3479 35.9665 24.3544C36.4001 24.3583 36.4159 24.3681 36.417 24.7689C36.4214 27.5873 36.4208 30.4062 36.417 33.2247C36.4165 33.6145 36.3973 33.6325 36.0201 33.6369C35.2743 33.6451 34.5291 33.6446 33.7834 33.6374C33.3723 33.6336 33.3613 33.6238 33.3602 33.1962C33.3553 31.778 33.3586 30.3598 33.3586 28.941Z" fill="#3BB3C1"/>
<path d="M46.6875 28.2827C46.6875 29.4282 46.6903 30.573 46.6864 31.7184C46.6848 32.2088 46.6788 32.2149 46.2113 32.2181C45.4481 32.2231 44.6843 32.2252 43.921 32.217C43.5427 32.2132 43.5225 32.1952 43.5219 31.8075C43.5176 29.4626 43.5176 27.1177 43.5219 24.7727C43.5225 24.3687 43.5383 24.3588 43.9686 24.3555C44.7319 24.3495 45.4956 24.349 46.2589 24.3555C46.6733 24.3594 46.6837 24.3681 46.6859 24.7929C46.6908 25.9558 46.687 27.1193 46.6875 28.2827Z" fill="#3BB3C1"/>
<path d="M53.6808 35.7166C54.737 35.7166 55.7933 35.7166 56.8491 35.7166C56.8485 38.0959 56.848 40.4748 56.8474 42.8542C56.8474 42.9996 56.8436 43.145 56.8458 43.2899C56.8491 43.496 56.7452 43.5824 56.5451 43.5819C55.6916 43.5797 54.8382 43.5797 53.9842 43.5819C53.7841 43.5824 53.6797 43.4966 53.6835 43.2899C53.6857 43.1445 53.6819 42.9996 53.6819 42.8542C53.6819 40.4748 53.6813 38.0959 53.6808 35.7166Z" fill="white"/>
<path d="M41.553 30.9085C40.4967 30.9085 39.4404 30.9091 38.3847 30.9091C38.3852 28.966 38.3852 27.0229 38.3858 25.0798C38.3858 24.953 38.3934 24.825 38.3852 24.6987C38.3694 24.439 38.4929 24.3466 38.7439 24.3505C39.2884 24.3592 39.8335 24.3526 40.3781 24.3526C40.6684 24.3526 40.9593 24.3559 41.2496 24.3532C41.4486 24.3515 41.5558 24.4363 41.5519 24.6435C41.5497 24.7523 41.5536 24.8617 41.5536 24.9705C41.5541 26.9496 41.5536 28.9294 41.553 30.9085Z" fill="#3BB3C1"/>
<path d="M31.391 26.2637C31.3915 26.7721 31.3833 27.2806 31.3948 27.7885C31.4008 28.0597 31.3101 28.1838 31.0214 28.18C30.2046 28.1685 29.3877 28.1707 28.5709 28.1783C28.3101 28.1811 28.2227 28.0668 28.2237 27.8175C28.2303 26.7825 28.2303 25.7481 28.2237 24.7131C28.2221 24.4649 28.3069 24.3479 28.5693 24.3506C29.4041 24.3583 30.2396 24.3566 31.0744 24.3517C31.3106 24.3501 31.3954 24.4605 31.3926 24.6841C31.3866 25.2112 31.3904 25.7377 31.391 26.2637Z" fill="#3BB3C1"/>
<path d="M50.1891 24.3538C50.5882 24.3538 50.9879 24.3588 51.387 24.3522C51.6139 24.3484 51.7183 24.4408 51.7161 24.6737C51.7101 25.2543 51.7112 25.8355 51.7161 26.4161C51.7178 26.6337 51.6467 26.7578 51.4061 26.7562C50.5893 26.7513 49.7725 26.7529 48.9557 26.7551C48.755 26.7557 48.655 26.6676 48.6561 26.4621C48.6582 25.8628 48.6604 25.2642 48.6544 24.6649C48.6522 24.4255 48.772 24.3484 48.9918 24.3517C49.3903 24.3577 49.79 24.3538 50.1891 24.3538Z" fill="#3BB3C1"/>
<path d="M60.0888 79.8676C60.1156 81.3744 61.5398 82.3897 62.7476 82.3476C64.2188 82.2962 65.6934 82.3345 67.1663 82.3367C67.3456 82.3367 67.5288 82.3115 67.7201 82.3793C67.6676 82.8976 67.45 83.3624 67.3008 83.8413C66.5124 86.3683 65.7005 88.8882 64.8962 91.4103C64.2577 93.4141 63.6185 95.4173 62.9794 97.4211C62.9739 97.4386 62.969 97.4561 62.9635 97.473C62.8072 97.9317 62.9198 97.9738 62.3342 97.7726C61.8001 97.5889 61.2522 97.4698 60.6886 97.4277C60.4857 97.3046 60.2616 97.3637 60.0483 97.3631C54.0419 97.3593 48.0349 97.3604 42.0285 97.3599C41.2762 97.3599 41.3429 97.4123 41.3538 96.6868C41.3593 96.3134 41.2461 95.9291 41.4298 95.5666C41.6436 95.7235 41.5299 95.9739 41.6152 96.2117C42.3429 95.9969 43.0072 95.6294 43.6999 95.338C44.7184 94.9094 44.7135 94.8974 44.2696 93.8843C43.918 93.0817 43.9257 93.0368 44.6239 92.5475C45.0864 92.2233 45.5407 91.8887 45.9448 91.4945C46.2444 91.2025 46.5352 91.1807 46.866 91.4289C47.1131 91.6148 47.3701 91.7886 47.6085 91.9849C47.9021 92.2277 48.1005 92.1599 48.3291 91.8717C49.516 90.3742 50.6024 88.8024 51.7478 87.2748C51.9725 86.9746 51.9517 86.7652 51.6434 86.5526C51.3591 86.3568 51.0879 86.1414 50.8151 85.9293C50.5652 85.7346 50.5034 85.5061 50.6379 85.2098C50.9386 84.5471 51.2197 83.8757 51.4329 83.1787C51.5411 82.8249 51.7587 82.6888 52.1343 82.7549C52.5094 82.8211 52.885 82.8905 53.2694 82.9047C53.5198 82.914 53.6472 82.8255 53.6554 82.5707C53.6674 82.2109 53.8106 81.8545 53.6838 81.4914C53.8538 81.3219 54.0933 81.3673 54.2967 81.3028C55.6619 80.8709 56.728 80.0377 57.5847 78.9119C58.5404 77.6561 59.1922 76.2455 59.7001 74.7606C59.7793 74.5293 59.822 74.2805 60.0144 74.0017C60.0144 74.637 60.0144 75.1925 60.0144 75.7485C60.0144 76.9475 60.0112 78.1465 60.0177 79.346C60.0166 79.5199 59.9505 79.7102 60.0888 79.8676Z" fill="#41767C"/>
<path d="M60.7637 65.4326C61.0601 63.9635 61.3487 62.4923 61.9742 61.1156C62.0032 61.0516 62.048 60.9948 62.0852 60.9346C62.3547 61.2255 62.2667 61.5885 62.2673 61.9248C62.2733 67.1319 62.2711 72.3395 62.2716 77.5466C62.2716 78.8916 62.2957 78.9145 63.6521 78.9145C74.6311 78.9145 85.6101 78.9091 96.5896 78.9227C97.6798 78.9238 98.3053 78.8927 98.3042 77.1792C98.2982 68.549 98.3004 59.9188 98.3042 51.288C98.3042 50.9474 98.2397 50.592 98.4453 50.2788C98.8187 50.1601 98.823 50.486 98.875 50.6784C99.4081 52.6407 99.9734 54.598 100.062 56.6493C100.064 56.7062 100.084 56.7537 100.112 56.8008C100.119 57.1086 100.131 57.4164 100.132 57.7242C100.134 62.4081 100.135 67.0919 100.135 71.7758C100.135 71.8841 100.12 71.9923 100.112 72.1C99.8312 75.153 98.9947 78.0759 98.0226 80.9654C97.8974 81.3382 97.8187 81.7433 97.501 82.0255C97.2829 82.032 97.0653 82.0446 96.8477 82.0446C88.6412 82.0457 80.4342 82.0451 72.2277 82.0457C71.9909 82.0457 71.7547 82.0512 71.518 82.0544C71.3201 81.944 71.3059 81.728 71.2353 81.5482C71.0177 80.9927 70.6821 80.5378 70.1725 80.2152C69.7712 79.961 69.6613 79.9883 69.4995 80.4279C69.3748 80.7674 69.2791 81.1162 69.1763 81.4629C69.1113 81.681 69.0872 81.9336 68.839 82.0506C68.6433 82.026 68.4393 82.0894 68.2261 81.9877C68.4104 81.3831 68.5941 80.7784 68.7789 80.1748C68.8002 80.1053 68.8374 80.0408 68.8543 79.9708C68.8751 79.8845 68.9041 79.7778 68.7887 79.7412C68.6635 79.7013 68.5848 79.7707 68.5498 79.8937C68.5153 80.0157 68.4793 80.1376 68.4415 80.2584C68.2846 80.7609 68.1266 81.2633 67.9697 81.7658C67.9101 81.9571 67.8073 82.0534 67.581 82.0517C65.9255 82.0419 64.2694 82.0681 62.6144 82.0391C61.3722 82.0173 60.3728 80.9506 60.3668 79.6849C60.3575 77.6111 60.3652 75.5368 60.3635 73.4631C60.3635 73.2269 60.3504 72.9907 60.3438 72.7545C60.5046 71.9196 60.6719 71.0853 60.825 70.2488C61.0174 69.1974 61.159 68.1384 61.2306 67.0717C61.2514 66.7645 61.323 66.4654 61.3263 66.1538C61.3296 65.8405 61.2667 65.6289 60.9343 65.5545C60.8714 65.5414 60.8206 65.4747 60.7637 65.4326Z" fill="#41767C"/>
<path d="M20.7964 100.067C20.6274 99.6868 20.6821 99.2669 20.587 98.8716C20.5449 98.6967 20.5585 98.5146 20.3573 98.431C20.3797 97.6677 20.1709 96.9313 20.0943 96.179C20.0216 95.4633 19.8784 94.7569 19.8018 94.0401C19.7105 93.1818 19.5804 92.3267 19.4328 91.4759C19.3858 91.2042 19.3858 90.9374 19.3716 90.6673C19.289 90.5695 19.2764 90.4689 19.3579 90.3639C19.5225 90.4404 19.6848 90.3743 19.8379 90.3365C21.7876 89.8532 23.7547 89.4465 25.7197 89.0331C27.2773 88.7056 28.835 88.3792 30.3937 88.0567C31.3358 87.8615 32.2515 87.5717 33.1668 87.2852C33.708 87.1157 34.2674 87.0753 34.8163 86.9654C35.0536 86.9178 35.2848 86.99 35.509 87.0714C35.6818 87.1343 35.8616 87.1879 35.8698 87.4208C35.878 87.6586 35.8917 87.8784 35.6331 88.0342C35.2881 88.242 34.9382 88.4328 34.5522 88.5438C33.9967 88.7035 33.5517 89.0506 33.0891 89.3694C33.0192 89.4175 32.9464 89.4875 32.9825 89.6351C33.4177 89.6072 33.8409 89.4574 34.2892 89.4574C35.029 89.4574 35.6096 89.8089 36.1842 90.196C36.2547 90.2436 36.2875 90.3431 36.346 90.412C36.5139 90.6088 36.5954 90.8182 36.4368 91.056C36.2886 91.2786 36.0355 91.3551 35.8162 91.3026C35.5325 91.2354 35.2427 91.2321 34.9601 91.1577C34.445 91.0227 33.971 91.1419 33.5478 91.4748C33.9891 91.4087 34.4281 91.4338 34.866 91.4355C35.6599 91.4377 36.3045 91.7723 36.8283 92.3496C36.971 92.5071 37.141 92.6924 37.0202 92.9303C36.8884 93.19 36.6342 93.2485 36.3679 93.214C36.0453 93.1725 35.7195 93.1298 35.4073 93.0434C35.117 92.9636 34.8365 92.9319 34.5517 93.0248C34.269 93.1172 33.9727 93.0341 33.6905 93.0954C33.6479 93.2796 33.7868 93.2769 33.8803 93.2856C34.591 93.3545 35.1924 93.682 35.772 94.0653C35.9901 94.2096 36.1684 94.3878 36.2597 94.6355C36.3898 94.9871 36.2618 95.209 35.8944 95.2539C35.7151 95.2757 35.5309 95.2779 35.3537 95.2167C34.9896 95.0893 34.585 95.0685 34.2302 95.0773C33.4986 95.0953 32.7485 95.1888 32.1154 95.6557C31.4369 96.156 30.6846 96.4255 29.824 96.3572C29.4566 96.3277 29.11 96.2276 28.7677 96.1139C28.56 96.045 28.4129 96.0537 28.215 96.1724C26.5174 97.191 24.8072 98.1888 23.027 99.0575C22.295 99.4151 21.541 99.7316 20.7964 100.067Z" fill="#84524D"/>
<path d="M53.6817 81.4915C53.9512 81.5325 53.9173 81.7435 53.8894 81.9135C53.8424 82.1995 53.7779 82.48 53.7828 82.7746C53.7872 83.0196 53.685 83.1207 53.4017 83.0655C52.9419 82.9753 52.4663 82.966 52.0054 82.8774C51.7758 82.8331 51.667 82.8714 51.6008 83.0923C51.3663 83.8763 51.0617 84.6346 50.7042 85.3705C50.5926 85.6002 50.7222 85.7084 50.8736 85.8194C51.2093 86.0665 51.5494 86.3071 51.8835 86.5564C52.2033 86.7959 52.2104 86.8762 51.9562 87.2114C50.9934 88.482 50.1104 89.8111 49.1197 91.061C48.8272 91.4295 48.5528 91.8127 48.2712 92.1894C48.1334 92.3737 48.0027 92.4535 47.7797 92.2736C47.4139 91.9778 47.0164 91.7214 46.6414 91.4366C46.4599 91.2988 46.3128 91.3163 46.163 91.4721C45.6059 92.0516 44.9339 92.4874 44.2893 92.9559C44.1401 93.0642 44.1105 93.15 44.1822 93.3135C44.3648 93.7285 44.5343 94.1495 44.7065 94.5688C44.8689 94.9635 44.871 94.9832 44.5069 95.1456C43.8279 95.449 43.1461 95.7487 42.4561 96.0259C42.1407 96.1521 41.8624 96.3905 41.4654 96.3758C41.4529 96.1046 41.4408 95.835 41.4288 95.566C41.4365 94.5896 41.4441 93.6131 41.4523 92.6366C41.5584 91.9718 41.4955 91.3021 41.4922 90.635C41.49 90.2665 41.6147 90.0249 41.9165 89.8215C44.1439 88.3202 45.8601 86.3667 47.0542 83.9583C47.128 83.8096 47.2231 83.68 47.339 83.5636C48.07 83.2459 48.8425 83.0491 49.5965 82.7998C50.9529 82.352 52.3192 81.9267 53.6817 81.4915Z" fill="white"/>
<path d="M26.5977 67.0778C26.7371 66.9214 26.7071 66.7071 26.7847 66.5267C26.8612 66.349 26.923 66.1456 26.9154 65.9565C26.9055 65.7186 26.6289 65.7246 26.4807 65.6087C26.1292 65.3337 25.9564 64.9362 25.7393 64.5688C25.8498 64.4256 25.811 64.2567 25.8164 64.0965C25.8383 63.4158 26.2287 62.9789 26.8077 62.7253C27.3943 62.4683 27.9771 62.5574 28.5036 62.9357C28.7584 63.1189 28.8175 63.3387 28.6939 63.6449C28.3604 64.4688 28.5862 65.2359 29.0985 65.8865C29.4397 66.3195 29.9257 66.635 30.4172 66.9138C31.1116 67.3085 31.836 67.6311 32.6025 67.8564C32.6189 68.7207 32.4073 69.5201 31.9251 70.2434C31.783 70.6124 31.7414 71.0066 31.6233 71.3839C31.3166 72.3647 30.6217 72.8956 29.6851 73.1887C28.678 73.5036 26.7273 72.9235 26.1286 71.6884C25.8864 71.1882 25.8115 70.6545 25.8039 70.1073C25.7765 70.0608 25.7421 70.0105 25.7536 69.9575C25.9597 68.9755 26.1396 67.9854 26.5977 67.0778Z" fill="#84524D"/>
<path d="M31.9239 70.2423C32.1497 69.4468 32.3755 68.6508 32.6013 67.8553C33.2804 67.9406 33.9512 68.0778 34.6439 68.0696C35.5209 68.0592 36.3601 67.8821 37.2037 67.6645C38.0878 67.4365 38.3989 66.7306 37.996 65.968C37.9642 65.9084 37.9664 65.8302 37.9533 65.7607C38.6225 65.887 39.1769 66.267 39.751 66.5951C41.0555 67.3403 42.1052 68.3878 43.1052 69.4889C43.2364 69.6333 43.3818 69.7864 43.3031 70.0154C43.1927 70.0892 43.0686 70.104 42.9395 70.1051C41.8903 70.11 40.8439 70.2035 39.7974 70.2593C37.3568 70.3894 34.9167 70.4512 32.4739 70.4266C32.2853 70.4249 32.0196 70.56 31.9239 70.2423Z" fill="#41767C"/>
<path d="M43.3042 70.0161C43.2173 69.8794 43.1506 69.7242 43.0412 69.6088C42.0741 68.5897 41.1195 67.5574 39.8882 66.8352C39.453 66.5799 39.0216 66.3224 38.5608 66.1141C38.3486 66.0184 38.1556 65.8801 37.9544 65.7609C37.4957 64.7259 37.0971 63.6669 36.7237 62.5986C36.9129 62.4039 37.1321 62.4941 37.3361 62.5477C39.5104 63.1218 41.441 64.1568 43.1686 65.5947C44.3649 66.5903 45.372 67.7433 46.203 69.0533C46.3435 69.2753 46.554 69.483 46.4633 69.7909C45.413 69.9035 44.3633 70.0265 43.3042 70.0161Z" fill="white"/>
<path d="M42.863 85.0009C44.203 84.5394 45.5474 84.0911 46.9077 83.6909C47.0657 83.9244 46.8946 84.1108 46.7989 84.2885C45.6551 86.4076 44.1177 88.1851 42.1571 89.5907C42.0254 89.6853 41.8914 89.7854 41.7263 89.8127C41.5076 89.8493 41.4721 89.7389 41.5399 89.5585C41.5557 88.5459 41.5005 87.5323 41.5699 86.5203C41.6743 85.8543 42.2112 85.5165 42.6454 85.1004L42.6475 85.0993C42.706 85.0381 42.8028 85.0599 42.863 85.0009Z" fill="white"/>
<path d="M29.639 79.8912C29.639 81.2728 29.639 82.6549 29.639 84.0365C29.639 84.1639 29.6412 84.2913 29.6352 84.4182C29.6297 84.5286 29.6155 84.6505 29.4646 84.6396C29.3542 84.6314 29.3296 84.5324 29.3263 84.4384C29.3214 84.293 29.3219 84.1475 29.3219 84.0021C29.3219 81.3657 29.3219 78.7294 29.3219 76.093C29.3219 75.9656 29.3137 75.8377 29.3225 75.7114C29.3405 75.449 29.2148 75.3691 28.9644 75.3642C28.2383 75.3495 27.5232 75.2478 26.8217 75.0526C25.5817 74.7071 24.5134 74.1007 23.7534 73.0297C23.5211 72.7022 23.3516 72.3402 23.2094 71.9663C23.1766 71.8799 23.181 71.7612 23.2668 71.7202C23.3948 71.6596 23.4697 71.7645 23.5052 71.8717C23.6206 72.2194 23.7819 72.542 23.9973 72.8378C24.9229 74.1089 26.2389 74.6852 27.7358 74.9389C28.2192 75.0209 28.7052 75.0613 29.1973 75.0553C29.6292 75.0504 29.6363 75.0646 29.6374 75.5282C29.6412 76.9826 29.639 78.4369 29.639 79.8912Z" fill="#3B4245"/>
<path d="M46.4625 69.7914C46.0049 68.9204 45.4172 68.1473 44.789 67.3885C43.8273 66.2267 42.6698 65.3103 41.4282 64.4886C40.1007 63.61 38.6404 63.019 37.1019 62.6204C36.9816 62.5892 36.8493 62.6045 36.723 62.5985C36.6612 62.5843 36.6487 62.5395 36.6519 62.4848C36.6962 62.3191 36.699 62.1108 36.968 62.1743C37.3643 62.4044 37.8209 62.4553 38.2479 62.5931C39.8842 63.1228 41.3812 63.9244 42.7404 64.9588C44.2893 66.1375 45.6025 67.5503 46.5735 69.2539C46.7529 69.5683 46.9699 69.7591 47.3483 69.6962C47.0672 69.8624 46.7583 69.7673 46.4625 69.7914Z" fill="#F2E6DD"/>
<path d="M26.5974 67.0779C26.5285 67.635 26.3262 68.1588 26.1895 68.699C26.0703 69.1702 25.9326 69.6371 25.8024 70.1062C25.0392 70.1478 24.2831 70.0242 23.5226 70.0078C24.2628 68.9439 25.1885 68.0626 26.218 67.2851C26.3317 67.1993 26.47 67.1462 26.5974 67.0779Z" fill="#F2E5DB"/>
<path d="M19.358 90.3628C19.3623 90.4639 19.3667 90.5651 19.3716 90.6662C18.1431 90.7537 16.9168 90.862 15.6905 90.974C14.8436 91.0511 13.9918 91.0839 13.1465 91.1916C13.0284 91.2069 12.9032 91.1763 12.8978 91.0478C12.8917 90.9161 13.0224 90.8948 13.135 90.8827C13.4226 90.8516 13.7097 90.7958 13.9972 90.7914C14.2722 90.7876 14.3778 90.6465 14.445 90.4109C14.8135 89.1195 15.1837 87.8287 15.5696 86.5427C15.6178 86.3831 15.5855 86.0441 15.8725 86.1376C16.1076 86.2142 15.9059 86.4607 15.8632 86.6116C15.5002 87.8855 15.1208 89.1556 14.7441 90.4257C14.7178 90.5137 14.6801 90.5957 14.7315 90.7154C15.6899 90.6553 16.6582 90.5957 17.6243 90.4809C18.1989 90.4114 18.7801 90.4 19.358 90.3628Z" fill="#383F44"/>
<path d="M41.5387 89.5585C41.5589 89.7412 41.6568 89.7701 41.7946 89.6739C42.1057 89.4569 42.4293 89.2529 42.7175 89.0074C43.4878 88.3497 44.2275 87.6647 44.8798 86.8785C45.6009 86.0097 46.2171 85.0808 46.7551 84.0939C46.824 83.9676 46.9043 83.843 46.9076 83.6904C47.0405 83.6106 47.1804 83.557 47.339 83.5647C47.0345 84.51 46.4702 85.3131 45.9268 86.1261C45.4927 86.7751 44.9689 87.3574 44.4408 87.9249C43.9121 88.4924 43.3025 88.9878 42.677 89.4536C42.4157 89.6482 42.1549 89.8467 41.876 90.014C41.624 90.1654 41.5442 90.3677 41.5518 90.6487C41.566 91.1577 41.5584 91.6673 41.554 92.1769C41.5524 92.3354 41.5994 92.5087 41.4529 92.6372C41.4539 91.7291 41.455 90.821 41.4567 89.9128C41.4561 89.7893 41.4244 89.6564 41.5387 89.5585Z" fill="#F2E7DD"/>
<path d="M41.1235 82.9408C41.1235 82.5411 41.1131 82.1414 41.1284 81.7429C41.1344 81.5854 41.025 81.3115 41.2946 81.3142C41.5133 81.3164 41.4307 81.5728 41.4324 81.7194C41.4417 82.4093 41.4367 83.0993 41.4367 83.7893C41.4367 83.9528 41.4438 84.1168 41.4346 84.2792C41.4269 84.4131 41.4903 84.6214 41.2908 84.6335C41.0759 84.6466 41.1289 84.4339 41.1267 84.3027C41.1191 83.8483 41.124 83.3946 41.1235 82.9408Z" fill="#363E44"/>
<path d="M42.6444 85.1003C42.4766 85.3934 42.283 85.6684 42.0217 85.8855C41.8128 86.0588 41.6915 86.2889 41.569 86.5202C41.5657 86.4666 41.5591 86.4136 41.5597 86.36C41.5663 85.2922 41.5668 85.2922 42.6444 85.1003Z" fill="#EDE4DA"/>
<path d="M42.8625 85.0008C42.8122 85.0817 42.7384 85.1107 42.6466 85.0992C42.6969 85.0199 42.7712 84.9921 42.8625 85.0008Z" fill="#EDE4DA"/>
<path d="M68.8376 82.0519C69.0388 81.4308 69.235 80.8081 69.4428 80.1892C69.5784 79.7857 69.6451 79.7594 70.0294 79.9595C70.8824 80.4024 71.3307 81.1361 71.516 82.0546C71.5291 82.1476 71.5417 82.24 71.5543 82.3329C71.3542 83.7424 70.8009 85.0507 70.3821 86.3962C69.3324 89.7696 68.2558 93.1342 67.187 96.5015C66.8141 97.6759 66.4281 98.8465 66.0574 100.021C66 100.203 65.8836 100.39 65.9945 100.595C65.8431 100.635 65.8316 100.762 65.7928 100.886C65.4773 101.892 65.158 102.896 64.8311 103.898C64.6813 104.357 64.5971 104.411 64.1318 104.425C64.0591 104.427 63.9864 104.425 63.9131 104.425C56.9023 104.425 49.8916 104.426 42.8813 104.425C41.901 104.425 41.0077 104.208 40.3417 103.41C39.9929 102.991 39.8027 102.509 39.7152 101.981C39.6764 101.746 39.7442 101.587 40.029 101.609C40.1739 101.62 40.3204 101.61 40.4658 101.61C47.586 101.61 54.7056 101.61 61.8257 101.61C61.9531 101.61 62.0805 101.612 62.2079 101.61C62.6458 101.603 62.6414 101.601 62.7683 101.195C63.0345 100.346 63.3041 99.4977 63.5769 98.6502C63.6113 98.5431 63.6277 98.4392 63.6124 98.3293C63.6676 97.5737 63.9897 96.8886 64.216 96.1839C65.6228 91.8013 66.9809 87.4028 68.404 83.0251C68.4827 82.7829 68.5549 82.5363 68.7534 82.3564C68.7807 82.2558 68.8091 82.1536 68.8376 82.0519Z" fill="#D87355"/>
<path d="M68.7525 82.3575C68.3101 83.7572 67.8684 85.1568 67.4255 86.5559C66.3638 89.9068 65.3091 93.26 64.2321 96.606C64.0456 97.1861 63.9368 97.7984 63.6121 98.3298C63.5464 98.2992 63.4836 98.2582 63.4147 98.2391C63.1364 98.1625 63.12 97.9827 63.1971 97.7459C63.4387 97.0035 63.6744 96.2594 63.9111 95.5158C64.9855 92.1424 66.0587 88.7685 67.133 85.3952C67.3976 84.5647 67.665 83.7347 67.9274 82.9037C68.1122 82.3176 68.1095 82.3165 68.7525 82.3575Z" fill="#41767C"/>
<path d="M100.111 56.8015C99.9076 56.2985 99.9015 55.7545 99.7938 55.2318C99.4488 53.5561 99.1082 51.8803 98.5861 50.2483C98.3614 50.0991 98.3291 49.864 98.3122 49.6245C98.293 49.3517 98.3007 49.0789 98.3007 48.8055C98.3002 39.4678 98.3007 30.1301 98.2996 20.793C98.2996 20.4475 98.3204 20.0997 98.2422 19.7597C98.105 19.1599 97.7879 18.8915 97.1804 18.8554C96.9443 18.8412 96.7075 18.8488 96.4708 18.8483C88.2255 18.8428 79.9802 18.8488 71.7354 18.8472C71.3543 18.8472 70.9694 18.8789 70.5976 18.7624C67.7825 17.5164 64.8635 16.581 61.8668 15.8784C61.6088 15.8177 61.2589 15.8697 61.1905 15.4744C61.6465 15.0271 62.226 14.9047 62.8318 14.856C62.922 14.8489 63.0139 14.8549 63.1046 14.8549C74.538 14.8549 85.9713 14.8549 97.4041 14.8544C98.193 14.8544 98.9092 15.0151 99.4756 15.6335C99.8491 16.0413 100.066 16.5011 100.118 17.0429C100.136 17.2234 100.131 17.4065 100.131 17.5886C100.131 30.4237 100.131 43.2589 100.13 56.094C100.132 56.3286 100.119 56.5653 100.111 56.8015Z" fill="white"/>
<path d="M61.1917 15.4731C61.3289 15.6443 61.5361 15.6694 61.7264 15.7099C64.6815 16.3375 67.5272 17.3036 70.3112 18.4643C70.3779 18.4922 70.4413 18.5294 70.5059 18.5627C70.3681 18.9362 70.0346 18.8378 69.7705 18.8399C67.8061 18.8542 65.8417 18.8465 63.8767 18.847C62.4344 18.8476 62.2704 19.0094 62.2698 20.4359C62.2693 31.8233 62.2693 43.2101 62.2704 54.5975C62.2704 55.177 62.1403 55.8096 62.8537 56.1169C62.6214 56.1212 62.3852 56.1037 62.1572 56.1371C61.9243 56.171 61.8111 56.0813 61.7898 55.8687C61.7597 55.5641 61.6143 55.3301 61.3918 55.1338C61.0905 54.8687 60.7302 54.9048 60.3716 54.9354C60.3699 53.9168 60.3661 52.8982 60.3661 51.8797C60.3656 40.3851 60.3672 28.8906 60.3634 17.396C60.3634 16.6284 60.5968 15.9772 61.1917 15.4731Z" fill="#41767C"/>
<path d="M97.5001 82.026C97.7335 81.3415 97.9758 80.6603 98.1988 79.9725C98.8686 77.9085 99.3874 75.8064 99.7953 73.6746C99.8959 73.1492 99.9085 72.6052 100.111 72.1006C100.118 73.1006 100.129 74.1011 100.132 75.1011C100.135 76.5931 100.137 78.0846 100.131 79.5766C100.125 81.1059 99.0413 82.1102 97.5001 82.026Z" fill="white"/>
<path d="M78.4738 106.087C78.1545 105.886 77.9976 105.543 77.7646 105.268C77.4962 104.951 77.4087 104.914 77.0309 105.063C76.4601 105.29 76.4656 105.287 76.2289 104.725C75.9118 103.972 75.5963 103.219 75.2568 102.476C75.1431 102.228 75.1403 102.086 75.4203 101.972C75.6351 101.885 75.8932 101.828 76.0288 101.629C76.1791 101.408 75.9632 101.18 75.9626 100.945C75.9621 100.713 75.8915 100.481 75.8664 100.248C75.8232 99.8492 75.7663 99.7847 75.3787 99.7437C74.7226 99.6743 74.7456 99.6775 74.844 98.999C74.9528 98.2478 75.026 97.4901 75.0928 96.7334C75.1365 96.2348 75.1299 96.2238 75.6373 96.2462C75.6739 96.2479 75.7106 96.2451 75.7467 96.249C76.2409 96.2943 76.2382 96.2938 76.4208 95.8176C76.5181 95.5634 76.6247 95.313 76.728 95.0609C76.9096 94.6192 76.8844 94.5257 76.5055 94.231C76.0791 93.8991 76.0774 93.898 76.382 93.4951C76.8953 92.8144 77.4098 92.1342 77.9259 91.4557C78.1523 91.1583 78.1791 91.1572 78.4847 91.3825C78.5432 91.4257 78.5957 91.4771 78.6553 91.5186C78.9986 91.757 79.0533 91.7614 79.3556 91.4918C79.6274 91.2491 79.9199 91.0364 80.2184 90.8303C80.4261 90.687 80.4693 90.5268 80.3666 90.271C80.085 89.5739 79.9467 89.6269 80.7979 89.2885C81.4557 89.0271 82.0953 88.7199 82.746 88.4405C83.273 88.2142 83.2971 88.2278 83.5059 88.7368C83.6792 89.1595 83.7476 89.207 84.1986 89.1299C84.431 89.09 84.6573 89.0359 84.8963 89.0261C85.4785 89.0025 85.5737 88.9101 85.6786 88.3541C85.7054 88.2131 85.6606 88.0616 85.7634 87.8872C86.4025 87.9528 87.0652 87.9933 87.7174 88.0982C88.1105 88.1617 88.5102 88.1524 88.9016 88.2513C89.1367 88.3109 89.2122 88.4017 89.1652 88.6198C89.1499 88.6904 89.1127 88.7565 89.1007 88.8276C89.029 89.259 89.0892 89.3404 89.5052 89.4897C89.8125 89.6001 90.1252 89.7106 90.4079 89.8702C90.6895 90.0293 90.8562 89.9522 91.0662 89.7423C91.2209 89.5875 91.2406 89.2497 91.5506 89.295C91.7714 89.3273 91.9147 89.5258 92.0869 89.6575C92.4735 89.9533 92.901 90.1966 93.2334 90.5607C93.3198 90.6537 93.3182 90.7685 93.2624 90.862C92.8677 91.5257 92.5145 92.2179 91.9912 92.7969C91.9306 92.8641 91.8496 92.9068 91.7583 92.9259C91.4882 92.9423 91.3363 92.7373 91.152 92.5979C89.1154 91.0599 86.8366 90.646 84.3659 91.1151C86.8448 90.6777 89.1307 91.1036 91.1613 92.6553C91.3756 92.8188 91.6134 92.9658 91.7294 93.2299C91.4582 93.6028 91.2892 94.0719 90.7901 94.2315C90.5829 94.1943 90.4292 94.0577 90.2767 93.9319C88.0673 92.1118 84.1609 91.9418 81.7115 94.1856C79.8499 95.8914 79.085 98.022 79.5383 100.545C79.7258 101.587 80.1632 102.515 80.7968 103.358C80.9587 103.574 81.1735 103.758 81.2506 104.032C81.0565 104.483 80.6099 104.646 80.2523 104.91C79.9909 104.932 79.9177 104.69 79.7487 104.552C79.7608 104.789 80.0773 104.864 80.0287 105.115C79.5131 105.443 79.0664 105.882 78.4738 106.087Z" fill="#41767C"/>
<path d="M91.8055 92.8673C92.3052 92.2582 92.6644 91.5551 93.1094 90.9094C93.1794 90.8083 93.2363 90.6924 93.2335 90.5601C93.5769 90.6607 93.8071 90.9302 94.0821 91.1319C94.2423 91.2495 94.1958 91.372 94.0886 91.5015C93.9274 91.6962 93.701 91.8826 93.7016 92.1396C93.7016 92.4069 93.9968 92.5343 94.1411 92.7393C94.2352 92.8727 94.3445 92.9963 94.4331 93.1335C94.7803 93.6688 94.8355 93.5469 95.3281 93.3829C95.4642 93.3375 95.5938 93.2702 95.7802 93.1893C96.2384 94.2467 96.6889 95.2871 97.158 96.3691C96.9054 96.4889 96.6665 96.6042 96.4265 96.7157C96.2614 96.7928 96.1728 96.8885 96.2225 97.0974C96.3231 97.52 96.4101 97.9481 96.4095 98.386C96.409 98.6441 96.5484 98.7201 96.7846 98.7469C97.5768 98.8365 97.5604 98.8469 97.4363 99.6451C97.3226 100.378 97.257 101.119 97.1722 101.856C97.1268 102.251 97.1285 102.252 96.7551 102.253C96.6824 102.253 96.6096 102.243 96.5369 102.241C96.0328 102.229 96.0367 102.231 95.8524 102.724C95.7447 103.014 95.637 103.304 95.4987 103.579C95.3631 103.851 95.4538 104.011 95.6742 104.178C96.2001 104.575 96.1919 104.581 95.8021 105.11C95.3609 105.71 94.9268 106.315 94.4867 106.916C94.4227 107.004 94.3462 107.083 94.2734 107.164C94.157 107.293 94.0285 107.309 93.8896 107.199C93.7896 107.121 93.6934 107.036 93.5895 106.964C93.3538 106.799 93.1368 106.783 92.9044 107.001C92.6398 107.249 92.3588 107.484 92.0586 107.685C91.8268 107.841 91.7803 107.999 91.9121 108.231C91.9482 108.293 91.9744 108.362 92.0045 108.428C92.203 108.872 92.2024 108.871 91.7667 109.063C90.9848 109.407 90.2068 109.759 89.4217 110.095C89.0067 110.273 88.9772 110.252 88.8061 109.87C88.5453 109.287 88.519 109.275 87.9204 109.393C87.6186 109.453 87.3162 109.52 87.0106 109.55C86.793 109.572 86.67 109.64 86.67 109.874C86.6694 110.129 86.6602 110.428 86.4814 110.586C86.3081 110.739 86.0314 110.569 85.8051 110.542C84.9106 110.434 84.0047 110.397 83.1348 110.199C83.1228 110.122 83.1086 110.085 83.1135 110.052C83.2502 109.189 83.2502 109.19 82.4705 108.878C82.2343 108.783 81.996 108.692 81.7696 108.577C81.5438 108.461 81.4049 108.537 81.2601 108.718C80.7975 109.293 80.7926 109.29 80.1983 108.851C79.5706 108.386 78.9424 107.923 78.3159 107.457C78.0398 107.252 78.0354 107.22 78.2361 106.937C78.3099 106.834 78.3919 106.736 78.4706 106.636C78.6144 106.454 78.6089 106.27 78.4728 106.087C78.9479 105.702 79.4033 105.287 80.0053 105.099C80.3563 105.192 80.5772 105.477 80.8413 105.689C84.2551 108.436 89.0844 108.182 92.1395 105.041C93.4424 103.702 94.2029 102.081 94.4107 100.198C94.7015 97.5676 93.8503 95.344 92.1095 93.4113C91.9695 93.2549 91.765 93.1281 91.8055 92.8673Z" fill="white"/>
<path d="M36.9684 62.1748C36.8454 62.2601 36.8142 62.4395 36.6524 62.4854C35.9908 62.6773 35.3369 62.89 34.7071 63.1726C34.0237 63.4788 33.4124 63.9036 32.7913 64.3137C31.8783 64.9162 31.4622 64.9014 30.6651 64.1742C30.4414 63.9703 30.2654 63.7084 30.0462 63.4914C29.6848 63.1333 29.3206 62.7762 28.9735 62.405C28.4891 61.8873 28.3207 61.1672 28.7427 60.4603C28.8882 60.217 29.0763 60.0376 29.3283 59.9119C30.5158 59.3209 31.7022 58.7271 32.8875 58.1312C33.1625 57.9929 33.4906 57.9929 33.7432 57.7993C34.6098 58.5522 35.1663 59.5254 35.6775 60.5286C35.8399 60.8479 36.0411 61.1092 36.4129 61.1956C36.4993 61.2159 36.5796 61.2662 36.6595 61.3099C37.1258 61.5641 37.1592 61.6587 36.9684 62.1748Z" fill="#84524D"/>
<path d="M25.8868 60.0601C26.7949 59.9846 27.6435 60.24 28.4953 60.4942C28.0382 60.7533 27.6074 60.504 27.1705 60.4368C26.7304 60.3684 26.2837 60.317 25.8868 60.0601Z" fill="#7F514C"/>
<path d="M35.0763 64.5606C34.751 64.618 34.5377 64.437 34.3743 64.1746C34.3365 64.1139 34.3311 64.0324 34.3901 63.9734C34.4552 63.9078 34.5208 63.9411 34.5798 63.9892C34.6077 64.0122 34.6323 64.0395 34.6602 64.0631C35.0402 64.3774 35.0407 64.378 35.4497 64.1472C35.5366 64.098 35.6268 63.9657 35.7203 64.0991C35.8127 64.2309 35.7099 64.3381 35.6011 64.4135C35.4486 64.5185 35.2802 64.5819 35.0763 64.5606Z" fill="#81514D"/>
<path d="M62.8538 56.1169C62.7882 56.0901 62.7247 56.0452 62.6575 56.0387C62.0971 55.9818 62.0943 55.984 62.0943 55.4597C62.0938 43.5983 62.0949 31.7369 62.09 19.876C62.09 19.5135 62.1463 19.197 62.4251 18.9378C62.6728 18.7076 62.9604 18.6666 63.2808 18.6677C65.5 18.6737 67.7197 18.6726 69.9389 18.6677C70.1297 18.6672 70.3435 18.741 70.5053 18.5627C70.7382 18.7043 70.9974 18.6699 71.25 18.6699C79.8025 18.6705 88.3551 18.6705 96.9077 18.6705C98.0553 18.6705 98.4763 19.0887 98.4763 20.239C98.4768 29.9381 98.4768 39.6366 98.4746 49.3357C98.4746 49.6457 98.4839 49.9519 98.5856 50.2482C98.3965 50.4281 98.4806 50.661 98.4806 50.8693C98.4752 54.4187 98.4768 57.9681 98.4768 61.5175C98.4768 66.8323 98.4774 72.1477 98.4752 77.4625C98.4752 77.679 98.4888 77.8933 98.4243 78.1109C98.1996 78.8681 97.9038 79.0929 97.0783 79.0929C85.7565 79.0929 74.4347 79.0929 63.1135 79.0929C62.2518 79.0929 62.0943 78.9387 62.0943 78.0814C62.0938 72.6026 62.0943 67.1237 62.0938 61.6449C62.0938 61.4082 62.0883 61.172 62.0851 60.9352C62.3754 59.9998 62.8406 59.1376 63.2113 58.236C63.3409 57.9206 63.5 57.6209 63.5055 57.2585C63.5131 56.7347 63.3513 56.3372 62.8538 56.1169Z" fill="url(#paint1_linear_64_7246)"/>
<path d="M57.8351 56.2579C57.524 55.5297 57.9128 54.9189 58.1719 54.2886C58.2009 54.218 58.2857 54.1902 58.3545 54.2404C58.3923 54.2678 58.4344 54.3367 58.4245 54.3739C58.383 54.5313 58.3277 54.6855 58.2692 54.8375C58.1719 55.0912 58.0495 55.3361 58.0456 55.6177C58.0413 55.9517 58.1501 56.1568 58.3819 56.2377C58.6793 56.341 59.0134 56.224 59.1872 55.9457C59.3026 55.7615 59.4021 55.5668 59.518 55.3831C59.5617 55.3137 59.5913 55.2087 59.7257 55.2273C59.8597 55.3706 59.7799 55.5176 59.7208 55.6663C59.5666 56.054 59.4065 56.44 59.2616 56.8309C59.0839 57.3098 59.2326 57.7598 59.6186 57.9544C59.9865 58.1398 60.466 57.979 60.741 57.5662C60.9324 57.2797 61.1057 56.9812 61.2949 56.6926C61.3463 56.6144 61.4343 56.5701 61.5327 56.6084C61.653 56.6548 61.6158 56.7467 61.5863 56.8342C61.5349 56.9894 61.4846 57.1447 61.4348 57.3005C61.2167 57.9905 61.3813 58.4793 61.9679 58.9161C62.0849 59.0031 62.3561 59.0572 62.2292 59.2436C62.1046 59.4273 61.9105 59.2584 61.7552 59.1622C61.4102 58.9484 61.2238 58.6269 61.1139 58.2524C61.0838 58.1496 61.0959 58.0326 60.9482 57.9473C60.4715 58.3557 59.9242 58.5372 59.3452 58.1348C58.804 57.7587 58.7624 57.2202 58.9811 56.61C58.647 56.5881 58.3387 56.5827 58.0489 56.4728C58.0489 56.4728 58.0041 56.4629 58.0041 56.4635C57.9762 56.4504 57.951 56.4323 57.9292 56.411C57.9286 56.4115 57.8975 56.3782 57.8964 56.3787C57.874 56.3569 57.8565 56.3317 57.8428 56.3038C57.8433 56.3038 57.8351 56.2579 57.8351 56.2579Z" fill="#373E44"/>
<path d="M58.0502 56.4729C58.1109 57.2115 57.9359 57.8791 57.4417 58.445C57.2443 58.6708 57.2727 58.8993 57.3711 59.1552C57.5669 59.6631 57.8348 60.142 57.9725 60.674C58.0863 61.1141 58.1912 61.5543 58.1546 62.0141C58.1458 62.1256 58.1333 62.2459 57.9829 62.2366C57.8719 62.23 57.8353 62.1316 57.843 62.0381C57.9228 61.0491 57.4559 60.2038 57.1185 59.328C56.9458 58.8807 56.9392 58.5122 57.2924 58.1328C57.58 57.8239 57.6751 57.3996 57.7577 56.9846C57.7839 56.8534 57.8315 56.7326 57.6975 56.6446C57.5636 56.5566 57.4176 56.5571 57.2902 56.6582C57.0485 56.8496 56.8096 57.0453 56.5773 57.2476C56.2071 57.5691 55.8452 57.8999 55.475 58.2208C55.3657 58.3154 55.2394 58.3908 55.1208 58.4745C55.0262 58.5412 54.9086 58.5975 54.8326 58.4882C54.7539 58.3744 54.8725 58.2886 54.9502 58.2197C55.2482 57.954 55.5478 57.6905 55.8528 57.433C56.241 57.106 56.6522 56.8042 57.0196 56.4554C57.2705 56.2176 57.5488 56.2608 57.8353 56.2586L57.8304 56.2537C57.8648 56.2963 57.9075 56.3302 57.9457 56.369L57.9397 56.363C57.9785 56.4013 58.013 56.4439 58.0551 56.4784L58.0502 56.4729Z" fill="#383E44"/>
<path d="M80.0158 16.8192C79.0546 16.8192 78.0929 16.8198 77.1318 16.8187C77.0049 16.8187 76.8781 16.8159 76.7512 16.8072C76.6988 16.8034 76.649 16.7744 76.6386 16.7148C76.6222 16.624 76.6807 16.5825 76.7567 16.5737C76.8644 16.5617 76.9738 16.5584 77.082 16.5584C79.0049 16.5573 80.9277 16.5557 82.8506 16.5617C82.9977 16.5623 83.2623 16.4797 83.2678 16.6683C83.276 16.9504 82.9922 16.8094 82.8457 16.8116C81.9026 16.8263 80.9595 16.8192 80.0158 16.8192Z" fill="#363E44"/>
<path d="M80.2343 104.872C80.4924 104.526 80.8554 104.315 81.2201 104.106C81.4776 104.06 81.6132 104.262 81.7799 104.389C82.582 105.001 83.4436 105.496 84.4283 105.748C88.2341 106.724 91.9711 104.392 92.7392 100.537C93.1733 98.3577 92.5615 96.4436 91.1548 94.7569C91.0105 94.5842 90.7704 94.4579 90.8284 94.1697C91.075 94.0095 91.1925 93.7405 91.3647 93.5191C91.4577 93.3994 91.5381 93.296 91.7004 93.2971C91.9213 93.2321 92.0345 93.3934 92.1559 93.5224C94.6118 96.1358 95.1864 99.8465 93.5364 103.027C92.0225 105.945 89.5403 107.4 86.2741 107.534C84.0467 107.624 82.1583 106.789 80.4978 105.362C80.3519 105.236 80.1632 105.12 80.2343 104.872Z" fill="white"/>
<path d="M90.829 94.1696C91.379 94.7956 91.9208 95.4211 92.2909 96.1854C93.1783 98.0186 93.2772 99.8923 92.5309 101.771C91.5588 104.219 89.6912 105.653 87.1194 106.041C85.0489 106.355 83.1632 105.768 81.5574 104.381C81.4481 104.286 81.3333 104.197 81.2206 104.106C80.5197 103.309 79.926 102.444 79.6105 101.422C78.8986 99.1186 79.265 96.9891 80.7067 95.0553C81.8395 93.5359 83.383 92.659 85.238 92.4441C87.2413 92.2123 89.0931 92.6814 90.6524 94.0449C90.7059 94.0925 90.7699 94.128 90.829 94.1696Z" fill="#D3BBA3"/>
<path d="M80.2349 104.872C81.0496 105.755 82.0227 106.421 83.1414 106.837C86.1796 107.965 88.9876 107.466 91.4747 105.434C93.0356 104.159 93.9109 102.438 94.2253 100.437C94.4938 98.7282 94.2056 97.1072 93.4364 95.578C93.0034 94.7174 92.4408 93.9339 91.701 93.2964C90.636 92.2899 89.3895 91.6273 87.9597 91.2981C86.7744 91.0253 85.5907 91.0373 84.4038 91.2653C84.2299 91.2987 83.9615 91.4168 83.921 91.2369C83.8543 90.9373 84.1758 91.0247 84.3469 90.9854C86.3141 90.536 88.197 90.8 89.9974 91.683C90.5343 91.9465 91.0379 92.274 91.4818 92.6814C91.5769 92.7688 91.6699 92.853 91.806 92.8656C92.2893 93.4069 92.8038 93.9219 93.198 94.5386C93.9536 95.7201 94.4287 96.9902 94.5616 98.4002C94.8295 101.243 93.8874 103.623 91.8186 105.539C90.5802 106.686 89.0827 107.369 87.395 107.617C84.8936 107.983 82.6859 107.331 80.7248 105.763C80.4678 105.558 80.213 105.355 80.0069 105.098C79.826 104.947 79.6811 104.764 79.5493 104.57C79.4848 104.475 79.4236 104.361 79.5324 104.283C79.645 104.202 79.7199 104.332 79.8041 104.393C79.9829 104.523 80.0146 104.782 80.2349 104.872Z" fill="#D3BBA4"/>
<path d="M32.3739 60.8472C33.1798 60.5793 34.229 60.7658 34.9747 61.3415C34.5122 61.8997 33.9163 62.184 33.2164 62.2638C32.9671 62.2923 32.7107 62.2622 32.4576 62.2584C32.0464 61.9615 32.1055 61.546 32.17 61.1283C32.2099 61.0145 32.2974 60.9347 32.3739 60.8472Z" fill="#363E44"/>
<path d="M32.2891 61.0829C32.2082 61.494 32.2459 61.8888 32.4575 62.2584C31.949 62.1911 31.4942 61.9927 31.0382 61.6947C31.346 61.3153 31.721 61.0938 32.142 60.9364C32.2645 60.9118 32.3137 60.9604 32.2891 61.0829Z" fill="#FBFBFB"/>
<path d="M32.2888 61.0828C32.2396 61.0342 32.1909 60.9849 32.1417 60.9363C32.1953 60.845 32.2817 60.8395 32.3735 60.8472C32.379 60.9379 32.3735 61.0249 32.2888 61.0828Z" fill="#B5B9BA"/>
<path d="M82.4128 61.1973C82.2558 61.334 82.0656 61.2798 81.8895 61.2798C77.0526 61.2826 72.2161 61.282 67.3792 61.282C67.3065 61.282 67.2332 61.276 67.161 61.2826C66.8685 61.3088 66.7712 61.1579 66.7931 60.89C66.7991 60.8178 66.7936 60.7446 66.7936 60.6719C66.7936 57.9808 66.7936 55.2898 66.7936 52.5982C66.7936 52.5075 66.7986 52.4162 66.7942 52.3254C66.7832 52.0996 66.88 51.9837 67.1146 51.9957C67.2053 52.0006 67.2961 51.9952 67.3874 51.9952C69.9696 51.9952 72.5513 51.9952 75.1335 51.9952C75.2429 51.9952 75.3517 51.999 75.461 51.9968C75.6682 51.993 75.7541 52.0991 75.7513 52.2992C75.7481 52.5353 75.7497 52.7721 75.753 53.0083C75.7552 53.151 75.7245 53.303 75.8481 53.4178C76.0504 53.59 76.0351 53.8453 76.0761 54.0689C76.6638 57.2898 78.5572 59.4384 81.5095 60.7287C81.819 60.8654 82.1793 60.9108 82.4128 61.1973Z" fill="white"/>
<path d="M66.8822 65.6487C66.6957 65.2124 66.8105 64.7548 66.7991 64.3081C66.7788 63.5088 66.7318 63.5766 67.5311 63.5766C75.9935 63.576 84.4559 63.576 92.9182 63.576C93.0276 63.576 93.1369 63.5727 93.2457 63.5766C93.6552 63.5908 93.6656 63.593 93.6684 64.0211C93.6744 64.9675 93.6749 65.9139 93.6684 66.8603C93.6656 67.2763 93.6552 67.2769 93.231 67.2905C93.1583 67.2927 93.0855 67.2911 93.0128 67.2911C87.8079 67.2905 82.603 67.2905 77.3986 67.29C77.1307 67.238 77.0356 67.0035 76.906 66.8127C74.7798 63.6854 70.4999 63.0123 67.4929 65.3343C67.3092 65.4759 67.1534 65.6749 66.8822 65.6487Z" fill="white"/>
<path d="M78.143 69.6038C78.1501 69.402 78.2004 69.2418 78.4536 69.2582C78.5624 69.2653 78.6717 69.2582 78.7811 69.2582C83.5289 69.2582 88.2768 69.2582 93.0241 69.2582C93.0968 69.2582 93.1695 69.2561 93.2422 69.2588C93.6555 69.273 93.6654 69.2741 93.6681 69.6995C93.6741 70.6453 93.6741 71.5912 93.6681 72.537C93.6654 72.958 93.6555 72.9689 93.2367 72.9706C91.8907 72.976 90.5446 72.9728 89.1986 72.9728C85.5967 72.9728 81.9953 72.9749 78.3934 72.9678C78.1846 72.9673 77.8937 73.0952 77.8155 72.736C77.6439 72.4681 77.7942 72.2101 77.8429 71.9504C77.9457 71.3971 78.0228 70.8427 78.0003 70.2768C77.9905 70.0455 77.9637 69.8001 78.143 69.6038Z" fill="white"/>
<path d="M96.9621 29.8786C96.9086 32.9185 95.9064 35.574 93.6938 37.7024C91.9907 39.3404 89.9503 40.2912 87.5813 40.5285C84.4064 40.8461 81.6284 39.9156 79.1954 37.8998C77.3125 36.3399 76.1195 34.3509 75.5782 31.9644C75.4164 31.252 75.335 30.5167 75.3519 29.8081C75.4284 26.6332 76.5591 23.8913 78.974 21.7623C80.6957 20.2441 82.6995 19.343 85.0012 19.1003C88.1007 18.7728 90.8163 19.6487 93.1897 21.6328C95.0863 23.2183 96.2421 25.2467 96.7402 27.6611C96.8916 28.3926 96.9709 29.129 96.9621 29.8786Z" fill="#EFEFEF"/>
<path d="M82.412 61.1972C79.1332 60.1393 76.937 58.0251 76.0496 54.6479C75.9446 54.2477 75.9124 53.8283 75.8468 53.4183C75.8976 52.696 75.8254 51.9732 75.9479 51.2472C76.1885 49.8175 76.7401 48.5261 77.6078 47.3845C79.1212 45.3938 81.1528 44.2184 83.6279 43.9423C88.5174 43.3972 92.5812 46.7322 93.3598 51.0711C93.4177 51.3948 93.4642 51.7141 93.4582 52.0421C93.4555 52.1837 93.4248 52.3363 93.5484 52.4522C93.6856 53.8868 93.4478 55.2564 92.853 56.5686C91.9006 58.6691 90.3462 60.1437 88.232 61.043C87.981 61.1496 87.7295 61.2426 87.4501 61.1852C86.6759 61.4367 85.8668 61.5466 85.0669 61.5646C84.3398 61.581 83.5962 61.5143 82.8822 61.3071C82.7274 61.2623 82.5683 61.2338 82.412 61.1972Z" fill="#ACACAC"/>
<path d="M87.4503 61.185C88.7646 60.7526 89.9543 60.0894 90.9292 59.1096C92.1883 57.845 93.004 56.3224 93.3353 54.5564C93.466 53.861 93.5087 53.1562 93.5491 52.4515C93.5595 52.3454 93.5693 52.2388 93.5819 52.1082C93.706 52.1557 93.6688 52.2509 93.6688 52.317C93.671 55.1349 93.6721 57.9533 93.6699 60.7712C93.6694 61.2742 93.6628 61.2796 93.1484 61.2802C91.4032 61.2829 89.6575 61.2824 87.9123 61.2791C87.7543 61.2802 87.5804 61.3294 87.4503 61.185Z" fill="white"/>
<path d="M78.1432 69.6037C78.1908 70.6644 78.1121 71.7119 77.8157 72.7365C77.4757 73.4565 77.1493 74.1788 76.6359 74.8064C75.8497 75.7681 74.8453 76.404 73.6901 76.785C71.7016 77.4411 69.7995 77.1306 68.0516 76.0377C66.2851 74.9333 65.1911 73.3483 64.9221 71.2379C64.6422 69.0422 65.3934 67.2188 66.8821 65.6486C67.6044 65.0281 68.3807 64.4944 69.2954 64.1981C71.8525 63.3693 74.1209 63.881 76.1214 65.6661C76.6463 66.1347 76.9896 66.7355 77.398 67.2894C77.7605 68.0242 77.9634 68.8104 78.1432 69.6037Z" fill="#EFBC74"/>
<path d="M57.9455 56.3683C57.9073 56.33 57.8684 56.2912 57.8302 56.2529C57.8684 56.2917 57.9067 56.33 57.9455 56.3683Z" fill="#84524D"/>
<path d="M58.0549 56.4784C58.0166 56.4401 57.9778 56.4013 57.9395 56.363C57.9778 56.4013 58.0166 56.4396 58.0549 56.4784Z" fill="#84524D"/>
<path d="M81.547 103.888C80.9467 103.394 80.5383 102.75 80.208 102.066C79.7203 101.055 79.4896 99.977 79.5798 98.8491C79.6897 97.4785 80.1758 96.2549 81.0221 95.1641C81.8761 94.0636 82.9751 93.3189 84.3003 92.9559C86.3686 92.3894 88.3079 92.7011 90.0498 93.9974C90.2483 94.145 90.5052 94.2396 90.6097 94.4977C90.6725 94.7727 90.4664 94.9318 90.3319 95.1149C89.5036 96.2423 88.6048 97.3172 87.6458 98.3297C85.9236 100.148 84.1489 101.918 82.173 103.469C81.9778 103.623 81.8067 103.825 81.547 103.888Z" fill="#41767C"/>
<path d="M81.547 103.889C81.6842 103.587 81.9849 103.462 82.2222 103.272C84.0412 101.82 85.6858 100.182 87.2948 98.5087C88.1335 97.6361 88.9202 96.7121 89.6643 95.7537C89.9864 95.3392 90.3226 94.9368 90.6107 94.4978C91.3702 95.1036 91.8704 95.9035 92.2274 96.7832C93.3165 99.4676 92.509 102.452 90.4259 104.217C89.4074 105.08 88.2308 105.598 86.8864 105.764C84.9378 106.004 83.2894 105.352 81.7957 104.174C81.699 104.098 81.6295 103.985 81.547 103.889Z" fill="white"/>
<path d="M96.6342 29.6094C96.6697 32.3147 95.9048 34.5306 94.3773 36.4589C92.8338 38.4075 90.8306 39.6453 88.3626 40.0975C87.7355 40.2123 87.1002 40.2987 86.4726 40.2894C85.0866 40.2697 83.728 40.0258 82.4388 39.4911C79.5782 38.3042 77.5597 36.2605 76.3618 33.4164C76.0174 32.5984 75.8282 31.7324 75.7314 30.8374C75.4313 28.0556 76.2054 25.5778 77.8883 23.4018C79.4891 21.3319 81.6055 20.0192 84.202 19.5375C84.933 19.4019 85.6721 19.2926 86.4173 19.3303C88.7065 19.4478 90.7972 20.1231 92.6075 21.5724C94.5779 23.1503 95.8671 25.1525 96.4231 27.6237C96.5888 28.3563 96.6615 29.0911 96.6342 29.6094Z" fill="#F7F1EB"/>
<path d="M93.1477 51.9831C93.2991 52.4249 93.2494 52.8863 93.2073 53.3275C93.0356 55.135 92.449 56.79 91.2822 58.2115C90.0499 59.7123 88.495 60.7298 86.5819 61.0507C82.8641 61.674 79.8631 60.3974 77.6352 57.3788C76.7495 56.1793 76.2667 54.7983 76.1601 53.2854C76.1289 52.8464 76.1256 52.4249 76.1934 51.9962C76.6357 51.7737 77.0682 51.6983 77.4701 52.0821C77.5931 52.5594 77.5597 53.0536 77.6193 53.5397C78.0053 56.69 80.3453 59.182 83.4448 59.7052C87.8586 60.4504 91.7437 57.1793 91.7787 52.6906C91.7803 52.4571 91.7459 52.2155 91.8771 51.999C92.1198 51.8185 92.2669 51.9607 92.3992 52.1515C92.6638 52.2898 92.5796 51.8896 92.7677 51.9104C92.9077 51.8645 93.0318 51.9027 93.1477 51.9831Z" fill="white"/>
<path d="M92.3442 52.3258C92.2299 52.1842 92.2124 51.9207 91.9265 51.9961C91.7078 51.866 91.704 51.6375 91.6646 51.4243C91.1031 48.3642 88.6904 46.1379 85.598 45.6639C82.0514 45.1199 78.0564 47.7967 77.6398 51.749C77.6206 51.9289 77.6818 52.1711 77.397 52.2247C77.3735 52.0497 77.2641 51.9929 77.099 51.9956C76.7972 52 76.4954 51.9967 76.1931 51.9967C76.1488 51.4226 76.3095 50.8775 76.4747 50.3439C77.1974 48.0083 78.6414 46.2286 80.8103 45.1199C83.8479 43.5671 87.6045 43.9903 90.1895 46.2418C91.7411 47.5933 92.7116 49.2603 93.0856 51.2777C93.1282 51.5084 93.1277 51.7474 93.1473 51.983C92.9932 51.9868 92.839 51.9912 92.6848 51.995C92.4743 51.9158 92.4628 51.7266 92.4399 51.5462C91.9921 48.0372 88.9692 45.2686 85.4827 44.8962C81.7774 44.5009 78.0564 46.9345 77.1318 50.5429C77.5348 49.3942 78.076 48.3303 78.9284 47.4396C80.4166 45.8831 82.1897 45.0165 84.3777 44.9564C86.3799 44.9012 88.1458 45.4342 89.6805 46.7229C91.289 48.0733 92.1911 49.8059 92.4628 51.8775C92.4847 52.041 92.4995 52.2072 92.3442 52.3258Z" fill="#F7F1EB"/>
<path d="M77.3087 72.9859C77.1862 73.555 76.8385 74.0066 76.4902 74.4407C75.4739 75.7086 74.1765 76.4894 72.539 76.7119C69.3384 77.1471 66.5511 75.1663 65.5626 72.5638C64.7825 70.5108 65.1302 68.5759 66.3696 66.7892C66.4899 66.6159 66.5807 66.4032 66.7895 66.2993C66.8896 66.3567 66.9349 66.448 66.9475 66.559C66.5785 67.2741 66.0629 67.9187 65.888 68.8285C66.0607 68.355 66.2264 67.9762 66.4358 67.6208C66.5495 67.4278 66.6244 67.1785 66.912 67.156C66.9891 67.196 67.0388 67.2577 67.0667 67.3392C67.1017 67.5792 66.9437 67.7498 66.8464 67.9401C66.193 69.2123 66.0782 70.5589 66.4462 71.9121C67.0175 74.011 68.4817 75.1925 70.5658 75.6589C72.6456 76.1241 75.0228 74.9405 76.0091 73.2582C76.1146 73.0777 76.183 72.8459 76.4421 72.8033C76.7363 72.8355 77.0577 72.7431 77.3087 72.9859Z" fill="#F7F1EB"/>
<path d="M66.9133 66.5328C66.8143 66.4857 66.7963 66.3961 66.7892 66.3004C66.9904 65.8925 67.3627 65.641 67.7077 65.3934C70.5354 63.3611 73.97 63.8188 76.2406 66.2375C76.4735 66.4857 76.6993 66.7531 76.8469 67.0702C76.9442 67.267 76.8474 67.337 76.6643 67.3496C76.1919 67.0615 75.906 66.5852 75.5216 66.2075C73.3921 64.1129 69.6945 64.0785 67.5305 66.1484C67.355 66.3157 67.2178 66.5639 66.9133 66.5328Z" fill="#FEFEFD"/>
<path d="M77.3086 72.9858C77.0117 72.9141 76.6815 73.0891 76.4059 72.8622C76.2949 72.7277 76.3474 72.5855 76.3939 72.4489C76.7105 71.5254 76.8985 70.5878 76.7225 69.6069C76.7028 69.4987 76.7312 69.3893 76.7848 69.2909C76.8395 69.2155 76.9166 69.1903 77.0063 69.1958C77.3622 69.3308 77.267 69.6638 77.3299 69.9377C77.4015 69.7622 77.3337 69.5752 77.3972 69.4052C77.4622 69.2658 77.536 69.146 77.7159 69.2598C77.968 70.5435 77.8821 71.7917 77.3086 72.9858Z" fill="#FFFFFE"/>
<path d="M77.7158 69.2593C77.5605 69.261 77.5009 69.3566 77.4856 69.495C77.4085 69.4895 77.3385 69.4572 77.3194 69.3834C77.1532 68.7405 76.8935 68.1341 76.6179 67.5333C76.5813 67.4529 76.5786 67.3594 76.6524 67.2851C76.7923 67.2807 76.8405 67.1937 76.8465 67.0691C77.2953 67.7361 77.6152 68.454 77.7158 69.2593Z" fill="#F6EEE3"/>
<path d="M94.9897 29.8468C95.1401 34.6242 91.0193 38.7318 86.0566 38.6755C81.4504 38.623 77.1591 34.8697 77.2881 29.5264C77.404 24.7255 81.5105 20.8306 86.4071 20.9481C90.9761 21.058 95.1652 24.9267 94.9897 29.8468Z" fill="url(#paint2_linear_64_7246)"/>
<path d="M76.81 27.6305C76.6897 27.4249 76.7351 27.2598 76.7854 27.0865C77.3403 25.1855 78.3556 23.5912 79.8925 22.3271C81.3944 21.0921 83.1056 20.3266 85.0291 20.1238C87.5451 19.8586 89.8802 20.4245 91.9376 21.9351C94.1065 23.5278 95.3826 25.6824 95.8309 28.3292C95.885 28.6496 95.8834 28.9798 95.9009 29.3057C95.9053 29.3855 95.85 29.4473 95.7702 29.4522C95.6866 29.4577 95.6499 29.3959 95.6363 29.3155C95.5362 28.7272 95.4886 28.1318 95.3388 27.549C94.6964 25.051 93.2678 23.1325 91.0973 21.7629C89.2734 20.6126 87.2515 20.1998 85.14 20.4382C82.0608 20.7853 79.7 22.3392 78.0511 24.9706C77.6219 25.6551 77.3338 26.3976 77.0861 27.1597C77.0314 27.3265 77.0074 27.5053 76.81 27.6305Z" fill="#ACACAC"/>
<path d="M94.3836 35.0408C94.3606 35.0873 94.324 35.1911 94.265 35.2803C93.6116 36.2633 92.9233 37.2152 91.9271 37.8915C91.8522 37.9423 91.7861 38.0117 91.7046 38.0456C91.5171 38.1238 91.2798 38.407 91.1464 38.2102C90.9758 37.9587 91.3487 37.9002 91.5001 37.7947C92.4361 37.1413 93.1731 36.3054 93.8024 35.3645C93.9123 35.1999 94.0326 35.0413 94.1583 34.8888C94.183 34.8593 94.26 34.8576 94.3087 34.8675C94.359 34.879 94.4027 34.9194 94.3836 35.0408Z" fill="#ACACAC"/>
<path d="M77.3974 52.2246C77.5822 51.9146 77.5057 51.5565 77.5768 51.223C78.0322 49.0836 79.2301 47.5036 81.1059 46.4172C82.247 45.7562 83.4826 45.4287 84.7997 45.4637C86.406 45.5064 87.8707 45.999 89.138 46.9962C90.6421 48.1799 91.5551 49.7222 91.8301 51.6287C91.8482 51.7534 91.8946 51.8742 91.928 51.9967C91.8936 52.7916 91.9154 53.5849 91.7355 54.3755C91.0625 57.3322 88.5322 59.4771 85.6794 59.8784C82.0064 60.395 78.3274 58.0342 77.5385 54.0649C77.4188 53.4646 77.3641 52.8441 77.3974 52.2246Z" fill="url(#paint3_linear_64_7246)"/>
<path d="M92.3441 52.3259C92.2921 51.0487 91.9236 49.8656 91.2665 48.7732C90.5284 47.5458 89.5262 46.5808 88.2589 45.922C87.2857 45.4157 86.2496 45.0964 85.1315 45.0893C84.1655 45.0828 83.2103 45.0959 82.2814 45.4228C79.8851 46.267 78.2542 47.8733 77.3892 50.2631C77.3034 50.4993 77.328 50.8115 77.0032 50.9591C76.9076 50.7333 76.9535 50.5452 77.0158 50.3588C78.0158 47.3878 80.0398 45.5491 83.1086 44.8925C85.5345 44.3731 87.7313 44.9559 89.6552 46.4627C91.3228 47.7683 92.3337 49.4988 92.5819 51.6332C92.5967 51.7622 92.6169 51.8842 92.6841 51.9962C92.6803 52.0843 92.6858 52.1739 92.6705 52.2603C92.6295 52.496 92.5671 52.5069 92.3441 52.3259Z" fill="#ACACAC"/>
<path d="M88.8299 59.6499C88.703 59.6248 88.6303 59.5674 88.6883 59.4619C88.7293 59.3875 88.8053 59.323 88.8796 59.2771C89.7385 58.7533 90.3591 57.9988 90.9195 57.1852C90.9605 57.1257 90.99 57.0557 91.0387 57.0032C91.118 56.9179 91.1858 56.7517 91.3345 56.8665C91.4285 56.9392 91.3935 57.0775 91.3328 57.1688C90.7079 58.1147 90.0228 59.0037 89.0103 59.5756C88.9485 59.61 88.8785 59.6302 88.8299 59.6499Z" fill="#ACACAC"/>
<path d="M76.8389 69.2582C76.8733 69.5808 76.9247 69.9023 76.9395 70.2254C76.9805 71.1466 76.7427 72.0149 76.407 72.8617C75.6907 74.2007 74.6334 75.1362 73.1812 75.6195C70.2223 76.6047 66.7708 74.8251 66.1754 71.432C65.9457 70.1253 66.1229 68.8186 66.85 67.6459C66.9162 67.5387 67.0157 67.4491 67.0261 67.3129C67.0277 67.284 67.0294 67.2555 67.031 67.2266C67.0458 67.1702 67.0715 67.1188 67.1054 67.0718C67.9561 66.0926 68.932 65.2851 70.2496 65.0604C72.4847 64.6793 74.4234 65.2004 75.8859 67.0445C75.9231 67.0849 75.9565 67.1287 75.9887 67.173C76.0226 67.2151 76.0521 67.2599 76.0806 67.3058C76.4102 67.9269 76.8755 68.4955 76.8389 69.2582Z" fill="url(#paint4_linear_64_7246)"/>
<path d="M76.6529 67.285C77.0111 67.9914 77.3047 68.7218 77.4862 69.4943C77.4922 69.7081 77.5031 69.9224 77.502 70.1362C77.5015 70.2051 77.4747 70.2822 77.3883 70.2948C77.2784 70.3106 77.2237 70.2346 77.2057 70.146C77.1849 70.0422 77.1904 69.9334 77.1822 69.8273C77.1674 69.6327 77.1734 69.4331 77.0614 69.2587C76.7404 68.6453 76.5726 67.958 76.1598 67.3883C76.1297 67.3457 76.1046 67.3003 76.0811 67.2538C76.0401 67.186 75.987 67.1275 75.9378 67.0657C73.8892 64.3977 69.9899 64.1374 67.6072 66.507C67.3776 66.735 67.1868 67.0089 66.8888 67.1625C66.5302 67.6015 66.2934 68.1051 66.1075 68.636C66.0895 68.6874 66.0654 68.736 66.0496 68.788C66.0036 68.9367 65.9922 69.1696 65.7778 69.0991C65.6237 69.0482 65.7122 68.8503 65.7532 68.7147C65.9736 67.981 66.3 67.3025 66.7855 66.7049C66.8309 66.6491 66.8713 66.5895 66.9145 66.5321C67.6023 65.8214 68.365 65.2249 69.3043 64.8684C71.8969 63.8848 74.8345 64.6973 76.4857 67.0707C76.5359 67.1456 76.5966 67.2139 76.6529 67.285Z" fill="#EFBD74"/>
<path d="M66.8878 67.1633C67.153 66.6493 67.5882 66.2808 68.0277 65.9413C70.3218 64.1704 73.5536 64.4028 75.6131 66.4722C75.793 66.6532 75.9406 66.8576 76.0817 67.0681C76.1139 67.1031 76.1424 67.1408 76.1653 67.1824C76.179 67.2179 76.1927 67.2535 76.2063 67.289C76.1271 67.3519 76.0461 67.3568 75.9636 67.2961L75.9663 67.2972C75.9379 67.2518 75.8952 67.2201 75.8575 67.1835C75.5147 66.786 75.15 66.4159 74.7285 66.0949C72.8106 64.6362 69.6116 64.6734 67.7872 66.5383C67.5723 66.7581 67.3514 66.9713 67.1333 67.1879C67.0879 67.219 67.0376 67.2464 67.019 67.3038C67.019 67.3038 67.025 67.3136 67.025 67.3142C66.9796 67.2639 66.9337 67.2136 66.8878 67.1633Z" fill="#FEFDFB"/>
<path d="M76.6148 73.626C76.5814 73.6943 76.5579 73.7638 76.5175 73.8217C76.0631 74.4789 75.6033 75.1317 74.8926 75.5478C74.8302 75.5844 74.7728 75.6309 74.7089 75.6648C74.6165 75.7129 74.5295 75.6954 74.4732 75.6068C74.4284 75.5358 74.4612 75.4658 74.517 75.4138C74.5563 75.3772 74.6044 75.3493 74.6509 75.3203C75.2644 74.936 75.7083 74.3903 76.1134 73.8042C76.1851 73.7009 76.2753 73.6091 76.3638 73.5194C76.3999 73.4828 76.4579 73.4505 76.5098 73.4959C76.5492 73.5298 76.576 73.5763 76.6148 73.626Z" fill="#EFBF7B"/>
<path d="M75.964 67.2967C76.0449 67.2945 76.1258 67.2917 76.2067 67.2896C76.6616 67.8724 76.9716 68.5181 77.0607 69.2594C76.9869 69.2594 76.9125 69.2589 76.8387 69.2589C76.6233 68.5706 76.3139 67.9249 75.964 67.2967Z" fill="#F6EDE2"/>
<path d="M83.6286 31.9759C83.7194 31.9754 83.8107 31.9726 83.9015 31.9759C84.2951 31.9907 84.3427 32.0098 84.3673 32.4068C84.4165 33.2028 85.0671 33.7074 85.6729 33.819C86.1453 33.9059 86.6138 33.8808 87.0665 33.6998C88.0074 33.3231 88.3623 31.977 87.4164 31.2018C86.9517 30.8212 86.405 30.6397 85.8604 30.438C85.212 30.1974 84.5772 29.9388 84.0617 29.4456C83.3782 28.7917 83.2159 27.982 83.3378 27.0985C83.5023 25.9094 84.1798 25.156 85.3629 24.8952C85.6313 24.8361 85.7276 24.706 85.7084 24.443C85.6926 24.226 85.7041 24.0067 85.7062 23.788C85.7073 23.6973 85.6844 23.5879 85.7259 23.519C85.9375 23.1691 86.283 23.4026 86.5646 23.3495C86.7467 23.3156 86.8839 23.3933 86.8828 23.6147C86.8806 23.9056 86.8926 24.1975 86.8828 24.4878C86.8746 24.718 86.932 24.8421 87.1923 24.9001C88.3103 25.1483 88.9107 25.9126 89.1764 26.9815C89.2289 27.192 89.2655 27.4085 89.2835 27.6245C89.3098 27.9443 89.2442 28.0137 88.9342 28.0383C88.8259 28.0471 88.716 28.0411 88.6067 28.0411C87.9768 28.0416 87.9807 28.0411 87.8418 27.4462C87.8008 27.2702 87.7406 27.0969 87.6728 26.9285C87.3864 26.2166 86.8828 25.9345 86.0157 25.9914C85.3853 26.0324 84.9512 26.3976 84.7779 27.0323C84.5821 27.7497 84.8145 28.4063 85.4279 28.7852C85.8621 29.0536 86.3421 29.2242 86.8221 29.3964C87.5258 29.649 88.2065 29.9464 88.7373 30.5063C89.2934 31.093 89.4629 31.8234 89.3672 32.5724C89.1851 33.9934 88.5536 34.6287 87.1349 34.9436C86.8653 35.0032 86.7576 35.1175 86.7757 35.381C86.7844 35.5078 86.7882 35.6369 86.774 35.7626C86.7532 35.9496 86.8735 36.2126 86.6319 36.2973C86.3415 36.3996 86.0217 36.3804 85.7199 36.2962C85.6264 36.2705 85.6035 36.1645 85.6018 36.0693C85.5985 35.8692 85.5805 35.6669 85.6013 35.4696C85.6346 35.1563 85.5105 35.0027 85.2 34.9485C84.7473 34.8698 84.3389 34.6795 83.9649 34.4056C83.2574 33.8884 83.0059 33.1607 82.9567 32.3258C82.9409 32.0618 83.0469 31.9579 83.3017 31.9748C83.4099 31.9825 83.5193 31.9765 83.6286 31.9759Z" fill="white"/>
<path d="M86.6264 51.3138C86.5717 51.3138 86.517 51.316 86.4623 51.3133C86.0818 51.2958 86.072 51.2936 86.0348 50.9158C86.0075 50.6392 85.9326 50.3855 85.786 50.1471C85.4749 49.6403 84.9993 49.5359 84.4613 49.6004C84.0316 49.6523 83.6177 50.0498 83.5264 50.4855C83.4394 50.9016 83.5236 51.5331 84.0195 51.8311C84.3503 52.0301 84.6947 52.1832 85.0545 52.3133C85.5673 52.4986 86.0676 52.6998 86.5143 53.0333C87.1715 53.5248 87.3541 54.2121 87.2983 54.9573C87.2174 56.0344 86.5739 56.6795 85.5334 56.8905C85.1945 56.9594 85.1119 57.1092 85.1354 57.4039C85.1425 57.4941 85.1305 57.5865 85.1371 57.6767C85.1529 57.902 85.0687 58.0245 84.8265 58.0042C84.7543 57.9982 84.6811 58.0048 84.6084 58.0037C84.1896 57.9966 84.189 57.9966 84.1764 57.5805C84.1732 57.4712 84.1732 57.3618 84.1748 57.253C84.177 57.0622 84.0983 56.9414 83.8987 56.9151C83.5849 56.8741 83.3126 56.7216 83.0425 56.5734C82.3449 56.1913 82.0978 55.5581 82.0775 54.802C82.071 54.5669 82.1748 54.4701 82.4039 54.4822C82.5308 54.4887 82.6593 54.4915 82.7861 54.4805C83.0545 54.4581 83.1754 54.5609 83.2 54.8436C83.2995 55.9862 84.8549 56.4154 85.7751 55.6358C86.23 55.2509 86.2584 54.527 85.8719 54.0568C85.546 53.6599 85.0988 53.4576 84.6302 53.3023C84.2136 53.164 83.8222 52.9787 83.4323 52.7802C82.387 52.2477 82.1049 50.9366 82.4963 49.9492C82.7582 49.2893 83.2218 48.8639 83.914 48.7212C84.2092 48.6605 84.3153 48.52 84.2869 48.2374C84.2759 48.1291 84.2781 48.0187 84.2869 47.9099C84.2995 47.7524 84.2131 47.5315 84.376 47.455C84.6056 47.3467 84.8757 47.3888 85.1261 47.4342C85.23 47.4534 85.2409 47.5616 85.2426 47.654C85.2453 47.8722 85.253 48.0908 85.2448 48.309C85.2371 48.5195 85.306 48.6474 85.5285 48.6999C86.5515 48.9399 87.0096 49.6758 87.1928 50.6375C87.301 51.2094 87.207 51.3138 86.6264 51.3138Z" fill="white"/>
<path d="M71.5699 68.1414C71.0702 68.1381 70.8143 68.3201 70.6803 68.7734C70.5442 69.2343 70.6803 69.5826 71.1079 69.8335C71.3271 69.962 71.5595 70.0637 71.8022 70.1468C72.1631 70.2703 72.5108 70.4218 72.8279 70.6449C73.4299 71.0686 73.5458 71.6722 73.4468 72.3365C73.355 72.951 72.9619 73.3315 72.3829 73.5283C72.2795 73.5633 72.1757 73.6071 72.0691 73.6186C71.8832 73.6388 71.8219 73.7394 71.8301 73.9111C71.8345 74.0018 71.8241 74.0931 71.8296 74.1839C71.8438 74.4408 71.6869 74.4753 71.4797 74.4786C71.2528 74.4824 71.1166 74.396 71.1566 74.162C71.2227 73.7755 71.0417 73.6322 70.6891 73.5316C70.0653 73.3534 69.6656 72.9368 69.5601 72.2692C69.5043 71.9177 69.5426 71.793 69.7629 71.7515C70.1544 71.6776 70.3507 71.7591 70.4108 72.0773C70.5114 72.6098 70.8695 72.8378 71.3501 72.9264C71.9772 73.0423 72.5906 72.5874 72.5912 72.0177C72.5917 71.6601 72.4337 71.3955 72.1243 71.2118C71.7771 71.0052 71.3916 70.8964 71.0204 70.7493C70.4185 70.5109 69.9472 70.1337 69.7946 69.4661C69.6164 68.6875 69.98 67.7083 70.828 67.5017C71.1637 67.4202 71.3167 67.254 71.267 66.8964C71.2429 66.7237 71.2309 66.5247 71.5097 66.5028C71.84 66.4771 71.9537 66.5372 71.9285 66.88C71.9012 67.2567 72.0384 67.4175 72.3933 67.5372C73.0122 67.7466 73.4889 68.5536 73.4315 69.1851C73.4271 69.2332 73.402 69.3054 73.367 69.3201C73.1592 69.4081 72.9378 69.3732 72.7235 69.3529C72.5343 69.3349 72.5409 69.1479 72.5015 69.0183C72.2938 68.3382 72.0931 68.1446 71.5699 68.1414Z" fill="white"/>
<path d="M67.0186 67.3037C67.0334 67.2419 67.0722 67.2041 67.1329 67.1877C67.0952 67.226 67.0569 67.2648 67.0186 67.3037Z" fill="#F7F1EB"/>
<path d="M75.8585 67.1838C75.8946 67.2216 75.9307 67.2598 75.9673 67.2976C75.9088 67.2806 75.8716 67.2434 75.8585 67.1838Z" fill="#F6EDE2"/>
<path d="M76.1658 67.1824C76.1379 67.1441 76.11 67.1064 76.0821 67.0681C76.11 67.1064 76.1379 67.1447 76.1658 67.1824Z" fill="#F6EDE2"/>
</g>
<defs>
<linearGradient id="paint0_linear_64_7246" x1="31.2223" y1="62.0522" x2="31.2223" y2="111.49" gradientUnits="userSpaceOnUse">
<stop stop-color="#3BB3C1"/>
<stop offset="1" stop-color="#1B8895"/>
</linearGradient>
<linearGradient id="paint1_linear_64_7246" x1="80.3353" y1="18.5627" x2="80.3353" y2="79.0929" gradientUnits="userSpaceOnUse">
<stop stop-color="#82BFC6"/>
<stop offset="1" stop-color="#1B8895"/>
</linearGradient>
<linearGradient id="paint2_linear_64_7246" x1="86.1401" y1="20.9456" x2="86.1401" y2="38.6761" gradientUnits="userSpaceOnUse">
<stop stop-color="#3BB3C1"/>
<stop offset="1" stop-color="#1B8895"/>
</linearGradient>
<linearGradient id="paint3_linear_64_7246" x1="84.6579" y1="45.4612" x2="84.6579" y2="59.9489" gradientUnits="userSpaceOnUse">
<stop stop-color="#3BB3C1"/>
<stop offset="1" stop-color="#1B8895"/>
</linearGradient>
<linearGradient id="paint4_linear_64_7246" x1="71.5126" y1="64.9434" x2="71.5126" y2="75.8897" gradientUnits="userSpaceOnUse">
<stop stop-color="#3BB3C1"/>
<stop offset="1" stop-color="#1B8895"/>
</linearGradient>
<clipPath id="clip0_64_7246">
<rect width="99.8611" height="100" fill="white" transform="translate(0.569427 0.5)"/>
</clipPath>
</defs>
</svg>
