<svg width="65" height="64" viewBox="0 0 65 64" fill="none" xmlns="http://www.w3.org/2000/svg">
<ellipse cx="32.3216" cy="32" rx="32.3216" ry="32" fill="url(#paint0_linear_64_7380)"/>
<g clip-path="url(#clip0_64_7380)">
<path d="M23.718 20H18.05C16.9759 20 15.9457 20.4267 15.1862 21.1862C14.4267 21.9457 14 22.9759 14 24.05V29.718C14 30.792 14.426 31.822 15.186 32.582L27.418 44.814C27.7941 45.1901 28.2406 45.4885 28.732 45.6921C29.2234 45.8957 29.7501 46.0004 30.282 46.0004C30.8139 46.0004 31.3406 45.8957 31.832 45.6921C32.3234 45.4885 32.7699 45.1901 33.146 44.814L38.814 39.146C39.1901 38.7699 39.4885 38.3234 39.6921 37.832C39.8957 37.3406 40.0004 36.8139 40.0004 36.282C40.0004 35.7501 39.8957 35.2234 39.6921 34.732C39.4885 34.2406 39.1901 33.7941 38.814 33.418L26.58 21.186C25.8209 20.427 24.7915 20.0004 23.718 20Z" stroke="white" stroke-width="2" stroke-linecap="round" stroke-linejoin="round"/>
<path d="M43.146 44.814L48.814 39.146C49.1902 38.7699 49.4885 38.3235 49.6921 37.832C49.8957 37.3406 50.0005 36.8139 50.0005 36.282C50.0005 35.7501 49.8957 35.2234 49.6921 34.732C49.4885 34.2406 49.1902 33.7941 48.814 33.418L34.58 19.186" stroke="white" stroke-width="2" stroke-linecap="round" stroke-linejoin="round"/>
<path d="M20 26H19.98" stroke="white" stroke-width="2" stroke-linecap="round" stroke-linejoin="round"/>
</g>
<defs>
<linearGradient id="paint0_linear_64_7380" x1="32.3216" y1="0" x2="32.3216" y2="64" gradientUnits="userSpaceOnUse">
<stop stop-color="#3BB3C1"/>
<stop offset="1" stop-color="#1B8895"/>
</linearGradient>
<clipPath id="clip0_64_7380">
<rect width="48" height="48" fill="white" transform="translate(8 8)"/>
</clipPath>
</defs>
</svg>
