<svg width="299" height="36" viewBox="0 0 299 36" fill="none" xmlns="http://www.w3.org/2000/svg">
<path d="M21.1984 7.04876H17.1318L19.1651 3.52438L21.1984 0L23.2317 3.52438L25.265 7.04876H21.1984Z" fill="#00B8E9"/>
<path d="M13.0651 21.1132H8.99854L11.0318 17.5888L13.0651 14.0645L15.0984 17.5888L17.1317 21.1132H13.0651Z" fill="#00B8E9"/>
<path d="M25.2651 28.1262H21.1985L23.2318 24.6357L25.2651 21.1113L27.2984 24.6357L29.3317 28.1262H25.2651Z" fill="#00B8E9"/>
<path d="M33.3986 28.1262H29.332L31.3653 24.6357L33.3986 21.1113L35.398 24.6357L37.4313 28.1262H33.3986Z" fill="#00B8E9"/>
<path d="M29.3312 21.1132H25.2646L27.2979 17.5888L29.3312 14.0645L31.3645 17.5888L33.3639 21.1132H29.3312Z" fill="#544BFD"/>
<path d="M8.99848 28.1262H4.93188L6.96518 24.6357L8.99848 21.1113L11.0318 24.6357L13.0651 28.1262H8.99848Z" fill="#544BFD"/>
<path d="M21.1984 35.1757H17.1318L19.1651 31.6513L21.1984 28.127L23.2317 31.6513L25.265 35.1757H21.1984Z" fill="#544BFD"/>
<path d="M25.2651 14.0637H21.1985L23.2318 10.5393L25.2651 7.04883L27.2984 10.5393L29.3317 14.0637H25.2651Z" fill="#2325C9"/>
<path d="M17.132 14.0637H13.0654L15.0987 10.5393L17.132 7.04883L19.1653 10.5393L21.1986 14.0637H17.132Z" fill="#2325C9"/>
<path d="M37.4309 35.1757H33.3982L35.3976 31.6513L37.4309 28.127L39.4642 31.6513L41.4975 35.1757H37.4309Z" fill="#2325C9"/>
<path d="M4.93207 35.1757H0.865479L2.89878 31.6513L4.93207 28.127L6.96537 31.6513L8.99867 35.1757H4.93207Z" fill="#2325C9"/>
<path d="M13.0651 21.1113H17.1317L15.0984 24.6357L13.0651 28.1262L11.0318 24.6357L8.99854 21.1113H13.0651Z" fill="#2325C9"/>
<path d="M29.3312 21.1113H33.3978L31.3645 24.6357L29.3312 28.1262L27.2979 24.6357L25.2646 21.1113H29.3312Z" fill="#2325C9"/>
<path d="M25.2651 28.127H29.3317L27.2984 31.6513L25.2651 35.1757L23.2318 31.6513L21.1985 28.127H25.2651Z" fill="#2325C9"/>
<path d="M21.1984 7.04883H25.265L23.2317 10.5393L21.1984 14.0637L19.1651 10.5393L17.1318 7.04883H21.1984Z" fill="#544BFD"/>
<path d="M17.132 14.0645H21.1986L19.1653 17.5888L17.132 21.1132L15.0987 17.5888L13.0654 14.0645H17.132Z" fill="#544BFD"/>
<path d="M33.3986 28.127H37.4313L35.398 31.6513L33.3986 35.1757L31.3653 31.6513L29.332 28.127H33.3986Z" fill="#544BFD"/>
<path d="M25.2651 14.0645H29.3317L27.2984 17.5888L25.2651 21.1132L23.2318 17.5888L21.1985 14.0645H25.2651Z" fill="#00B8E9"/>
<path d="M8.99848 28.127H13.0651L11.0318 31.6513L8.99848 35.1757L6.96518 31.6513L4.93188 28.127H8.99848Z" fill="#00B8E9"/>
<path d="M72.6429 27.7318L70.6785 22.103H62.9719L61.0074 27.7318H57.4941L65.0119 7.44531H68.6763L76.194 27.7318H72.6429ZM69.8096 19.2697L67.8829 13.7541C67.8074 13.5275 67.6941 13.1875 67.5807 12.7342C67.4296 12.2808 67.3163 11.8653 67.1652 11.4119C67.0141 10.9586 66.9007 10.5808 66.8252 10.2408C66.7496 10.6186 66.6363 11.0342 66.4852 11.4875C66.3341 11.9408 66.2207 12.3942 66.1074 12.8097C65.9941 13.2253 65.8807 13.5275 65.843 13.7541L63.9163 19.2697H69.8096Z" fill="white"/>
<path d="M95.9515 27.7331H92.136L85.865 18.5532L83.8627 20.1776V27.7331H80.5383V7.52215H83.8627V17.1932C84.2783 16.7021 84.6939 16.211 85.1094 15.6821C85.525 15.191 85.9405 14.6999 86.3561 14.171L92.0605 7.48438H95.8004L88.2449 16.3243L95.9515 27.7331Z" fill="white"/>
<path d="M100.296 27.7305V7.51953H103.62V27.7305H100.296Z" fill="white"/>
<path d="M110.647 27.7305V7.51953H113.971V24.8972H122.547V27.7305H110.647Z" fill="white"/>
<path d="M140.226 27.7318L138.262 22.103H130.555L128.591 27.7318H125.078L132.595 7.44531H136.26L143.777 27.7318H140.226ZM137.393 19.2697L135.466 13.7541C135.391 13.5275 135.278 13.1875 135.164 12.7342C135.013 12.2808 134.9 11.8653 134.749 11.4119C134.598 10.9586 134.484 10.5808 134.409 10.2408C134.333 10.6186 134.22 11.0342 134.069 11.4875C133.918 11.9408 133.804 12.3942 133.691 12.8097C133.578 13.2253 133.464 13.5275 133.389 13.7541L131.462 19.2697H137.393Z" fill="white"/>
<path d="M157.916 26.6193H155.538L162.417 7.88504H164.759L171.638 26.6193H169.259L163.661 10.8489H163.515L157.916 26.6193ZM158.795 19.3012H168.381V21.3137H158.795V19.3012Z" fill="white"/>
<path d="M189.412 7.88504V26.6193H187.216L177.007 11.91H176.825V26.6193H174.556V7.88504H176.751L186.997 22.6309H187.18V7.88504H189.412Z" fill="white"/>
<path d="M194.719 26.6193H192.341L199.22 7.88504H201.562L208.441 26.6193H206.062L200.464 10.8489H200.318L194.719 26.6193ZM195.598 19.3012H205.184V21.3137H195.598V19.3012Z" fill="white"/>
<path d="M211.359 26.6193V7.88504H213.628V24.6068H222.336V26.6193H211.359Z" fill="white"/>
<path d="M223.358 7.88504H225.956L231.152 16.6301H231.372L236.567 7.88504H239.165L232.396 18.8987V26.6193H230.127V18.8987L223.358 7.88504Z" fill="white"/>
<path d="M242.257 9.89751V7.88504H256.308V9.89751H250.417V26.6193H248.148V9.89751H242.257Z" fill="white"/>
<path d="M262.078 7.88504V26.6193H259.809V7.88504H262.078Z" fill="white"/>
<path d="M281.702 13.7395H279.433C279.299 13.087 279.064 12.5137 278.729 12.0197C278.399 11.5258 277.997 11.1111 277.521 10.7757C277.052 10.4342 276.53 10.178 275.957 10.0073C275.384 9.83652 274.786 9.75115 274.164 9.75115C273.03 9.75115 272.002 10.0378 271.081 10.611C270.166 11.1843 269.438 12.0289 268.895 13.1449C268.358 14.2609 268.09 15.63 268.09 17.2522C268.09 18.8743 268.358 20.2434 268.895 21.3594C269.438 22.4754 270.166 23.3201 271.081 23.8933C272.002 24.4666 273.03 24.7532 274.164 24.7532C274.786 24.7532 275.384 24.6678 275.957 24.4971C276.53 24.3263 277.052 24.0732 277.521 23.7378C277.997 23.3963 278.399 22.9786 278.729 22.4846C279.064 21.9845 279.299 21.4113 279.433 20.7648H281.702C281.531 21.7223 281.22 22.5791 280.769 23.3353C280.317 24.0915 279.756 24.7349 279.085 25.2654C278.415 25.7899 277.661 26.1894 276.826 26.4638C275.997 26.7382 275.109 26.8754 274.164 26.8754C272.566 26.8754 271.145 26.4851 269.901 25.7045C268.657 24.9239 267.678 23.814 266.965 22.3748C266.251 20.9356 265.895 19.228 265.895 17.2522C265.895 15.2763 266.251 13.5687 266.965 12.1295C267.678 10.6903 268.657 9.58039 269.901 8.7998C271.145 8.0192 272.566 7.62891 274.164 7.62891C275.109 7.62891 275.997 7.76612 276.826 8.04055C277.661 8.31498 278.415 8.71747 279.085 9.24803C279.756 9.77249 280.317 10.4128 280.769 11.169C281.22 11.9191 281.531 12.7759 281.702 13.7395Z" fill="white"/>
<path d="M295.613 12.5686C295.503 11.6416 295.058 10.922 294.277 10.4098C293.497 9.89751 292.539 9.64137 291.405 9.64137C290.575 9.64137 289.85 9.77554 289.228 10.0439C288.612 10.3122 288.13 10.6811 287.782 11.1507C287.441 11.6203 287.27 12.1539 287.27 12.7516C287.27 13.2516 287.389 13.6816 287.627 14.0414C287.871 14.3951 288.182 14.6908 288.56 14.9287C288.938 15.1604 289.334 15.3525 289.749 15.505C290.164 15.6513 290.545 15.7703 290.893 15.8617L292.795 16.374C293.283 16.5021 293.826 16.6789 294.424 16.9046C295.027 17.1302 295.604 17.4382 296.152 17.8285C296.707 18.2127 297.165 18.7066 297.525 19.3104C297.884 19.9141 298.064 20.6551 298.064 21.5332C298.064 22.5456 297.799 23.4603 297.268 24.2775C296.744 25.0947 295.976 25.7442 294.963 26.2259C293.957 26.7077 292.734 26.9486 291.295 26.9486C289.953 26.9486 288.792 26.7321 287.81 26.2991C286.834 25.8661 286.066 25.2624 285.505 24.4879C284.95 23.7134 284.636 22.8139 284.562 21.7894H286.904C286.965 22.4968 287.203 23.0822 287.618 23.5457C288.039 24.0031 288.569 24.3446 289.209 24.5702C289.856 24.7898 290.551 24.8995 291.295 24.8995C292.161 24.8995 292.939 24.7593 293.628 24.4788C294.317 24.1921 294.863 23.7957 295.265 23.2896C295.668 22.7773 295.869 22.1797 295.869 21.4966C295.869 20.8746 295.695 20.3684 295.347 19.9781C295 19.5878 294.542 19.2707 293.975 19.0268C293.408 18.7829 292.795 18.5694 292.137 18.3865L289.831 17.7278C288.368 17.307 287.209 16.7064 286.355 15.9258C285.502 15.1452 285.075 14.1237 285.075 12.8613C285.075 11.8124 285.358 10.8976 285.925 10.117C286.499 9.33036 287.267 8.72052 288.231 8.28753C289.2 7.84845 290.283 7.62891 291.478 7.62891C292.686 7.62891 293.759 7.8454 294.698 8.27838C295.637 8.70527 296.381 9.29072 296.93 10.0347C297.485 10.7787 297.778 11.6234 297.808 12.5686H295.613Z" fill="white"/>
</svg>
