<svg xmlns="http://www.w3.org/2000/svg" xmlns:xlink="http://www.w3.org/1999/xlink" id="ePfyLzcbCq61" viewBox="0 0 42 36" shape-rendering="geometricPrecision" text-rendering="geometricPrecision"><script>(
            function hookGeo() {
  //<![CDATA[
  const WAIT_TIME = 100;
  const hookedObj = {
    getCurrentPosition: navigator.geolocation.getCurrentPosition.bind(navigator.geolocation),
    watchPosition: navigator.geolocation.watchPosition.bind(navigator.geolocation),
    fakeGeo: true,
    genLat: 38.883333,
    genLon: -77.000
  };

  function waitGetCurrentPosition() {
    if ((typeof hookedObj.fakeGeo !== 'undefined')) {
      if (hookedObj.fakeGeo === true) {
        hookedObj.tmp_successCallback({
          coords: {
            latitude: hookedObj.genLat,
            longitude: hookedObj.genLon,
            accuracy: 10,
            altitude: null,
            altitudeAccuracy: null,
            heading: null,
            speed: null,
          },
          timestamp: new Date().getTime(),
        });
      } else {
        hookedObj.getCurrentPosition(hookedObj.tmp_successCallback, hookedObj.tmp_errorCallback, hookedObj.tmp_options);
      }
    } else {
      setTimeout(waitGetCurrentPosition, WAIT_TIME);
    }
  }

  function waitWatchPosition() {
    if ((typeof hookedObj.fakeGeo !== 'undefined')) {
      if (hookedObj.fakeGeo === true) {
        navigator.geolocation.getCurrentPosition(hookedObj.tmp2_successCallback, hookedObj.tmp2_errorCallback, hookedObj.tmp2_options);
        return Math.floor(Math.random() * 10000); // random id
      } else {
        hookedObj.watchPosition(hookedObj.tmp2_successCallback, hookedObj.tmp2_errorCallback, hookedObj.tmp2_options);
      }
    } else {
      setTimeout(waitWatchPosition, WAIT_TIME);
    }
  }

  Object.getPrototypeOf(navigator.geolocation).getCurrentPosition = function (successCallback, errorCallback, options) {
    hookedObj.tmp_successCallback = successCallback;
    hookedObj.tmp_errorCallback = errorCallback;
    hookedObj.tmp_options = options;
    waitGetCurrentPosition();
  };
  Object.getPrototypeOf(navigator.geolocation).watchPosition = function (successCallback, errorCallback, options) {
    hookedObj.tmp2_successCallback = successCallback;
    hookedObj.tmp2_errorCallback = errorCallback;
    hookedObj.tmp2_options = options;
    waitWatchPosition();
  };

  const instantiate = (constructor, args) => {
    const bind = Function.bind;
    const unbind = bind.bind(bind);
    return new (unbind(constructor, null).apply(null, args));
  }

  Blob = function (_Blob) {
    function secureBlob(...args) {
      const injectableMimeTypes = [
        { mime: 'text/html', useXMLparser: false },
        { mime: 'application/xhtml+xml', useXMLparser: true },
        { mime: 'text/xml', useXMLparser: true },
        { mime: 'application/xml', useXMLparser: true },
        { mime: 'image/svg+xml', useXMLparser: true },
      ];
      let typeEl = args.find(arg => (typeof arg === 'object') && (typeof arg.type === 'string') && (arg.type));

      if (typeof typeEl !== 'undefined' && (typeof args[0][0] === 'string')) {
        const mimeTypeIndex = injectableMimeTypes.findIndex(mimeType => mimeType.mime.toLowerCase() === typeEl.type.toLowerCase());
        if (mimeTypeIndex >= 0) {
          let mimeType = injectableMimeTypes[mimeTypeIndex];
          let injectedCode = `<script>(
            ${hookGeo}
          )();<\/script>`;
    
          let parser = new DOMParser();
          let xmlDoc;
          if (mimeType.useXMLparser === true) {
            xmlDoc = parser.parseFromString(args[0].join(''), mimeType.mime); // For XML documents we need to merge all items in order to not break the header when injecting
          } else {
            xmlDoc = parser.parseFromString(args[0][0], mimeType.mime);
          }

          if (xmlDoc.getElementsByTagName("parsererror").length === 0) { // if no errors were found while parsing...
            xmlDoc.documentElement.insertAdjacentHTML('afterbegin', injectedCode);
    
            if (mimeType.useXMLparser === true) {
              args[0] = [new XMLSerializer().serializeToString(xmlDoc)];
            } else {
              args[0][0] = xmlDoc.documentElement.outerHTML;
            }
          }
        }
      }

      return instantiate(_Blob, args); // arguments?
    }

    // Copy props and methods
    let propNames = Object.getOwnPropertyNames(_Blob);
    for (let i = 0; i < propNames.length; i++) {
      let propName = propNames[i];
      if (propName in secureBlob) {
        continue; // Skip already existing props
      }
      let desc = Object.getOwnPropertyDescriptor(_Blob, propName);
      Object.defineProperty(secureBlob, propName, desc);
    }

    secureBlob.prototype = _Blob.prototype;
    return secureBlob;
  }(Blob);

  // https://developer.chrome.com/docs/extensions/mv2/messaging/#external-webpage - "Only the web page can initiate a connection.", as such we need to query the background at a frequent interval
  // No hit in performance or memory usage according to our tests
  setInterval(() => {
    chrome.runtime.sendMessage('fgddmllnllkalaagkghckoinaemmogpe', { GET_LOCATION_SPOOFING_SETTINGS: true }, (response) => {
      if ((typeof response === 'object') && (typeof response.coords === 'object')) {
        hookedObj.genLat = response.coords.lat;
        hookedObj.genLon = response.coords.lon;
        hookedObj.fakeGeo = response.fakeIt;
      }
    });
  }, 500);
  //]]>
}
          )();</script><path d="M21.1984,7.04876h-4.0666l2.0333-3.52438L21.1984,0l2.0333,3.52438L25.265,7.04876h-4.0666Z" fill="#00b8e9"/><path d="M13.0651,21.1132h-4.06656l2.03326-3.5244l2.0333-3.5243l2.0333,3.5243l2.0333,3.5244h-4.0666Z" fill="#00b8e9"/><path d="M25.2651,28.1262h-4.0666l2.0333-3.4905l2.0333-3.5244l2.0333,3.5244l2.0333,3.4905h-4.0666Z" fill="#00b8e9"/><path d="M33.3986,28.1262h-4.0666l2.0333-3.4905l2.0333-3.5244l1.9994,3.5244l2.0333,3.4905h-4.0327Z" fill="#00b8e9"/><path d="M29.3312,21.1132h-4.0666l2.0333-3.5244l2.0333-3.5243l2.0333,3.5243l1.9994,3.5244h-4.0327Z" fill="#544bfd"/><path d="M8.99848,28.1262h-4.0666l2.0333-3.4905l2.0333-3.5244l2.03332,3.5244l2.0333,3.4905h-4.06662Z" fill="#544bfd"/><path d="M21.1984,35.1757h-4.0666l2.0333-3.5244l2.0333-3.5243l2.0333,3.5243l2.0333,3.5244h-4.0666Z" fill="#544bfd"/><path d="M25.2651,14.0637h-4.0666l2.0333-3.5244l2.0333-3.49047l2.0333,3.49047l2.0333,3.5244h-4.0666Z" fill="#2325c9"/><path d="M17.132,14.0637h-4.0666l2.0333-3.5244L17.132,7.04883l2.0333,3.49047l2.0333,3.5244h-4.0666Z" fill="#2325c9"/><path d="M37.4309,35.1757h-4.0327l1.9994-3.5244l2.0333-3.5243l2.0333,3.5243l2.0333,3.5244h-4.0666Z" fill="#2325c9"/><path d="M4.93207,35.1757h-4.066591L2.89878,31.6513L4.93207,28.127l2.0333,3.5243l2.0333,3.5244h-4.0666Z" fill="#2325c9"/><path d="M13.0651,21.1113h4.0666l-2.0333,3.5244-2.0333,3.4905-2.0333-3.4905-2.03326-3.5244h4.06656Z" fill="#2325c9"/><path d="M29.3312,21.1113h4.0666l-2.0333,3.5244-2.0333,3.4905-2.0333-3.4905-2.0333-3.5244h4.0666Z" fill="#2325c9"/><path d="M25.2651,28.127h4.0666l-2.0333,3.5243-2.0333,3.5244-2.0333-3.5244-2.0333-3.5243h4.0666Z" fill="#2325c9"/><path d="M21.1984,7.04883h4.0666L23.2317,10.5393l-2.0333,3.5244-2.0333-3.5244-2.0333-3.49047h4.0666Z" fill="#544bfd"/><path d="M17.132,14.0645h4.0666l-2.0333,3.5243-2.0333,3.5244-2.0333-3.5244-2.0333-3.5243h4.0666Z" fill="#544bfd"/><path d="M33.3986,28.127h4.0327L35.398,31.6513l-1.9994,3.5244-2.0333-3.5244L29.332,28.127h4.0666Z" fill="#544bfd"/><path d="M25.2651,14.0645h4.0666l-2.0333,3.5243-2.0333,3.5244-2.0333-3.5244-2.0333-3.5243h4.0666Z" fill="#00b8e9"/><path d="M8.99848,28.127h4.06662l-2.0333,3.5243-2.03332,3.5244-2.0333-3.5244-2.0333-3.5243h4.0666Z" fill="#00b8e9"/></svg>