<svg width="126" height="35" viewBox="0 0 126 35" fill="none" xmlns="http://www.w3.org/2000/svg">
<path d="M18.9657 6.57436H15.1799L17.0821 3.28718L18.9657 0L20.8679 3.28718L22.77 6.57436H18.9657Z" fill="#00B8E9"/>
<path d="M11.3759 19.7228H7.59009L9.49222 16.4356L11.3759 13.1484L13.278 16.4356L15.1801 19.7228H11.3759Z" fill="#00B8E9"/>
<path d="M22.7701 26.297H18.9658L20.8679 23.0098L22.7701 19.7227L24.6722 23.0098L26.5559 26.297H22.7701Z" fill="#00B8E9"/>
<path d="M30.3602 26.297H26.5559L28.458 23.0098L30.3602 19.7227L32.2623 23.0098L34.146 26.297H30.3602Z" fill="#00B8E9"/>
<path d="M26.5558 19.7228H22.77L24.6722 16.4356L26.5558 13.1484L28.4579 16.4356L30.3601 19.7228H26.5558Z" fill="#544BFD"/>
<path d="M7.59015 26.297H3.78589L5.68802 23.0098L7.59015 19.7227L9.49228 23.0098L11.3759 26.297H7.59015Z" fill="#544BFD"/>
<path d="M18.9657 32.8712H15.1799L17.0821 29.5841L18.9657 26.2969L20.8679 29.5841L22.77 32.8712H18.9657Z" fill="#544BFD"/>
<path d="M22.7701 13.1486H18.9658L20.8679 9.86139L22.7701 6.57422L24.6722 9.86139L26.5559 13.1486H22.7701Z" fill="#2325C9"/>
<path d="M15.18 13.1486H11.3757L13.2779 9.86139L15.18 6.57422L17.0821 9.86139L18.9658 13.1486H15.18Z" fill="#2325C9"/>
<path d="M34.1459 32.8712H30.3601L32.2622 29.5841L34.1459 26.2969L36.048 29.5841L37.9502 32.8712H34.1459Z" fill="#2325C9"/>
<path d="M3.78579 32.8712H0L1.90213 29.5841L3.78579 26.2969L5.68793 29.5841L7.59006 32.8712H3.78579Z" fill="#2325C9"/>
<path d="M11.3759 19.7227H15.1801L13.278 23.0098L11.3759 26.297L9.49222 23.0098L7.59009 19.7227H11.3759Z" fill="#2325C9"/>
<path d="M26.5558 19.7227H30.3601L28.4579 23.0098L26.5558 26.297L24.6722 23.0098L22.77 19.7227H26.5558Z" fill="#2325C9"/>
<path d="M22.7701 26.2969H26.5559L24.6722 29.5841L22.7701 32.8712L20.8679 29.5841L18.9658 26.2969H22.7701Z" fill="#2325C9"/>
<path d="M18.9657 6.57422H22.77L20.8679 9.86139L18.9657 13.1486L17.0821 9.86139L15.1799 6.57422H18.9657Z" fill="#544BFD"/>
<path d="M15.18 13.1484H18.9658L17.0821 16.4356L15.18 19.7228L13.2779 16.4356L11.3757 13.1484H15.18Z" fill="#544BFD"/>
<path d="M30.3602 26.2969H34.146L32.2623 29.5841L30.3602 32.8712L28.458 29.5841L26.5559 26.2969H30.3602Z" fill="#544BFD"/>
<path d="M22.7701 13.1484H26.5559L24.6722 16.4356L22.7701 19.7228L20.8679 16.4356L18.9658 13.1484H22.7701Z" fill="#00B8E9"/>
<path d="M7.59015 26.2969H11.3759L9.49228 29.5841L7.59015 32.8712L5.68802 29.5841L3.78589 26.2969H7.59015Z" fill="#00B8E9"/>
<path d="M59.9814 19.0596L58.1532 13.8703H51.0063L49.1781 19.0596H45.9463L52.89 0.296875H56.288L63.2317 19.0596H59.9814ZM57.3591 11.2295L55.5862 6.11407C55.5123 5.89246 55.42 5.57852 55.2907 5.17224C55.1615 4.76596 55.0322 4.35968 54.9029 3.93493C54.7737 3.51018 54.6629 3.1593 54.589 2.86383C54.4966 3.21471 54.4043 3.60252 54.275 4.02726C54.1458 4.45201 54.035 4.85829 53.9242 5.22764C53.8134 5.59698 53.721 5.89246 53.6656 6.0956L51.8743 11.211H57.3591V11.2295Z" fill="white"/>
<path d="M81.5141 19.06H77.9868L72.1696 10.5835L70.3229 12.0794V19.0785H67.2573V0.371094H70.3229V9.30926C70.6922 8.84758 71.0801 8.3859 71.4679 7.92421C71.8557 7.46253 72.2435 7.00085 72.6128 6.53917L77.876 0.371094H81.3479L74.3672 8.5521L81.5141 19.06Z" fill="white"/>
<path d="M85.54 19.06V0.371094H88.6056V19.06H85.54Z" fill="white"/>
<path d="M95.106 19.06V0.371094H98.1715V16.4376H106.112V19.0415H95.106V19.06Z" fill="white"/>
<path d="M122.475 19.0596L120.646 13.8703H113.499L111.671 19.0596H108.439L115.383 0.296875H118.781L125.725 19.0596H122.475ZM119.852 11.2295L118.079 6.11407C118.006 5.89246 117.913 5.57852 117.784 5.17224C117.655 4.76596 117.525 4.35968 117.396 3.93493C117.267 3.51018 117.156 3.1593 117.082 2.86383C116.99 3.21471 116.897 3.60252 116.768 4.02726C116.639 4.45201 116.528 4.85829 116.417 5.22764C116.307 5.59698 116.214 5.89246 116.159 6.0956L114.367 11.211H119.852V11.2295Z" fill="white"/>
<path d="M54.7249 34.5682L53.3282 30.9997H48.8312L47.4498 34.5682H46.1299L50.5655 23.3026H51.6629L56.0755 34.5682H54.7249ZM52.9214 29.8256L51.6169 26.3492C51.448 25.9092 51.2741 25.3695 51.095 24.73C50.9825 25.2211 50.8213 25.7609 50.6115 26.3492L49.2916 29.8256H52.9214Z" fill="white"/>
<path d="M66.3818 34.5682H64.893L58.7614 25.1521H58.7C58.7819 26.2571 58.8228 27.2701 58.8228 28.191V34.5682H57.618V23.3487H59.0914L65.2077 32.7264H65.2691C65.2588 32.5883 65.2358 32.1457 65.2 31.3988C65.1642 30.6467 65.1514 30.1095 65.1616 29.7872V23.3487H66.3818V34.5682Z" fill="white"/>
<path d="M76.5193 34.5682L75.1226 30.9997H70.6256L69.2442 34.5682H67.9243L72.3599 23.3026H73.4573L77.8699 34.5682H76.5193ZM74.7159 29.8256L73.4113 26.3492C73.2424 25.9092 73.0685 25.3695 72.8894 24.73C72.7769 25.2211 72.6157 25.7609 72.406 26.3492L71.086 29.8256H74.7159Z" fill="white"/>
<path d="M79.4124 34.5682V23.3487H80.717V33.3864H85.6668V34.5682H79.4124Z" fill="white"/>
<path d="M90.4324 28.9584L93.4253 23.3487H94.8373L91.0924 30.217V34.5682H89.7724V30.2784L86.0351 23.3487H87.4625L90.4324 28.9584Z" fill="white"/>
<path d="M99.8408 34.5682H98.5362V24.5074H94.9831V23.3487H103.394V24.5074H99.8408V34.5682Z" fill="white"/>
<path d="M105.09 34.5682V23.3487H106.394V34.5682H105.09Z" fill="white"/>
<path d="M114.283 24.354C113.05 24.354 112.076 24.7658 111.36 25.5895C110.648 26.4081 110.293 27.531 110.293 28.9584C110.293 30.4267 110.636 31.5625 111.321 32.3657C112.012 33.1638 112.994 33.5629 114.268 33.5629C115.051 33.5629 115.944 33.4222 116.946 33.1408V34.2842C116.169 34.5758 115.209 34.7217 114.069 34.7217C112.416 34.7217 111.14 34.2203 110.239 33.2175C109.344 32.2148 108.896 30.79 108.896 28.9431C108.896 27.7868 109.111 26.7739 109.541 25.9041C109.976 25.0344 110.6 24.3642 111.413 23.8935C112.232 23.4228 113.194 23.1875 114.299 23.1875C115.475 23.1875 116.504 23.4024 117.384 23.8321L116.831 24.9525C115.982 24.5535 115.133 24.354 114.283 24.354Z" fill="white"/>
<path d="M125.726 31.5829C125.726 32.5703 125.367 33.3403 124.651 33.8928C123.935 34.4454 122.963 34.7217 121.735 34.7217C120.405 34.7217 119.382 34.5503 118.665 34.2075V32.9489C119.126 33.1433 119.627 33.2968 120.169 33.4094C120.712 33.5219 121.249 33.5782 121.781 33.5782C122.651 33.5782 123.306 33.4145 123.746 33.0871C124.186 32.7545 124.406 32.2941 124.406 31.7057C124.406 31.3169 124.326 30.9997 124.168 30.7541C124.014 30.5035 123.753 30.2732 123.385 30.0635C123.022 29.8537 122.467 29.6158 121.72 29.3498C120.676 28.9763 119.929 28.5338 119.479 28.0222C119.034 27.5106 118.811 26.8429 118.811 26.0192C118.811 25.1546 119.136 24.4665 119.786 23.9549C120.436 23.4433 121.295 23.1875 122.364 23.1875C123.48 23.1875 124.505 23.3921 125.442 23.8014L125.035 24.9372C124.109 24.5484 123.208 24.354 122.334 24.354C121.643 24.354 121.103 24.5023 120.714 24.7991C120.326 25.0958 120.131 25.5076 120.131 26.0346C120.131 26.4234 120.203 26.7432 120.346 26.9938C120.489 27.2394 120.73 27.4671 121.067 27.6768C121.41 27.8815 121.932 28.1091 122.633 28.3598C123.81 28.7794 124.618 29.2296 125.058 29.7105C125.503 30.1914 125.726 30.8155 125.726 31.5829Z" fill="white"/>
</svg>
