<svg xmlns="http://www.w3.org/2000/svg" xmlns:xlink="http://www.w3.org/1999/xlink"  viewBox="0 0 42 36" shape-rendering="geometricPrecision" text-rendering="geometricPrecision"><path d="M21.1984,7.04876h-4.0666l2.0333-3.52438L21.1984,0l2.0333,3.52438L25.265,7.04876h-4.0666Z" fill="#fff"/><path d="M13.0651,21.1132h-4.06656l2.03326-3.5244l2.0333-3.5243l2.0333,3.5243l2.0333,3.5244h-4.0666Z" fill="#fff"/><path d="M25.2651,28.1262h-4.0666l2.0333-3.4905l2.0333-3.5244l2.0333,3.5244l2.0333,3.4905h-4.0666Z" fill="#fff"/><path d="M33.3986,28.1262h-4.0666l2.0333-3.4905l2.0333-3.5244l1.9994,3.5244l2.0333,3.4905h-4.0327Z" fill="#fff"/><path d="M29.3312,21.1132h-4.0666l2.0333-3.5244l2.0333-3.5243l2.0333,3.5243l1.9994,3.5244h-4.0327Z" fill="#fff"/><path d="M8.99848,28.1262h-4.0666l2.0333-3.4905l2.0333-3.5244l2.03332,3.5244l2.0333,3.4905h-4.06662Z" fill="#fff"/><path d="M21.1984,35.1757h-4.0666l2.0333-3.5244l2.0333-3.5243l2.0333,3.5243l2.0333,3.5244h-4.0666Z" fill="#fff"/><path d="M25.2651,14.0637h-4.0666l2.0333-3.5244l2.0333-3.49047l2.0333,3.49047l2.0333,3.5244h-4.0666Z" fill="#fff"/><path d="M17.132,14.0637h-4.0666l2.0333-3.5244L17.132,7.04883l2.0333,3.49047l2.0333,3.5244h-4.0666Z" fill="#fff"/><path d="M37.4309,35.1757h-4.0327l1.9994-3.5244l2.0333-3.5243l2.0333,3.5243l2.0333,3.5244h-4.0666Z" fill="#fff"/><path d="M4.93207,35.1757h-4.066591L2.89878,31.6513L4.93207,28.127l2.0333,3.5243l2.0333,3.5244h-4.0666Z" fill="#fff"/><path d="M13.0651,21.1113h4.0666l-2.0333,3.5244-2.0333,3.4905-2.0333-3.4905-2.03326-3.5244h4.06656Z" fill="#fff"/><path d="M29.3312,21.1113h4.0666l-2.0333,3.5244-2.0333,3.4905-2.0333-3.4905-2.0333-3.5244h4.0666Z" fill="#fff"/><path d="M25.2651,28.127h4.0666l-2.0333,3.5243-2.0333,3.5244-2.0333-3.5244-2.0333-3.5243h4.0666Z" fill="#fff"/><path d="M21.1984,7.04883h4.0666L23.2317,10.5393l-2.0333,3.5244-2.0333-3.5244-2.0333-3.49047h4.0666Z" fill="#fff"/><path d="M17.132,14.0645h4.0666l-2.0333,3.5243-2.0333,3.5244-2.0333-3.5244-2.0333-3.5243h4.0666Z" fill="#fff"/><path d="M33.3986,28.127h4.0327L35.398,31.6513l-1.9994,3.5244-2.0333-3.5244L29.332,28.127h4.0666Z" fill="#fff"/><path d="M25.2651,14.0645h4.0666l-2.0333,3.5243-2.0333,3.5244-2.0333-3.5244-2.0333-3.5243h4.0666Z" fill="#fff"/><path d="M8.99848,28.127h4.06662l-2.0333,3.5243-2.03332,3.5244-2.0333-3.5244-2.0333-3.5243h4.0666Z" fill="#fff"/></svg>
