<svg width="298" height="36" viewBox="0 0 298 36" fill="none" xmlns="http://www.w3.org/2000/svg">
<path d="M20.7387 7.04876H16.6721L18.7054 3.52438L20.7387 0L22.772 3.52438L24.8053 7.04876H20.7387Z" fill="#00B8E9"/>
<path d="M12.6054 21.1122H8.53882L10.5721 17.5879L12.6054 14.0635L14.6387 17.5879L16.672 21.1122H12.6054Z" fill="#00B8E9"/>
<path d="M24.8054 28.1272H20.7388L22.7721 24.6367L24.8054 21.1123L26.8387 24.6367L28.872 28.1272H24.8054Z" fill="#00B8E9"/>
<path d="M32.9387 28.1272H28.8721L30.9054 24.6367L32.9387 21.1123L34.9381 24.6367L36.9714 28.1272H32.9387Z" fill="#00B8E9"/>
<path d="M28.8715 21.1122H24.8049L26.8382 17.5879L28.8715 14.0635L30.9048 17.5879L32.9042 21.1122H28.8715Z" fill="#544BFD"/>
<path d="M8.53876 28.1272H4.47217L6.50546 24.6367L8.53876 21.1123L10.5721 24.6367L12.6054 28.1272H8.53876Z" fill="#544BFD"/>
<path d="M20.7387 35.1757H16.6721L18.7054 31.6513L20.7387 28.127L22.772 31.6513L24.8053 35.1757H20.7387Z" fill="#544BFD"/>
<path d="M24.8054 14.0637H20.7388L22.7721 10.5393L24.8054 7.04883L26.8387 10.5393L28.872 14.0637H24.8054Z" fill="#2325C9"/>
<path d="M16.6723 14.0637H12.6057L14.639 10.5393L16.6723 7.04883L18.7056 10.5393L20.7389 14.0637H16.6723Z" fill="#2325C9"/>
<path d="M36.9712 35.1757H32.9385L34.9379 31.6513L36.9712 28.127L39.0045 31.6513L41.0378 35.1757H36.9712Z" fill="#2325C9"/>
<path d="M4.47235 35.1757H0.405762L2.43906 31.6513L4.47235 28.127L6.50565 31.6513L8.53895 35.1757H4.47235Z" fill="#2325C9"/>
<path d="M12.6054 21.1123H16.672L14.6387 24.6367L12.6054 28.1272L10.5721 24.6367L8.53882 21.1123H12.6054Z" fill="#2325C9"/>
<path d="M28.8715 21.1123H32.9381L30.9048 24.6367L28.8715 28.1272L26.8382 24.6367L24.8049 21.1123H28.8715Z" fill="#2325C9"/>
<path d="M24.8054 28.127H28.872L26.8387 31.6513L24.8054 35.1757L22.7721 31.6513L20.7388 28.127H24.8054Z" fill="#2325C9"/>
<path d="M20.7387 7.04883H24.8053L22.772 10.5393L20.7387 14.0637L18.7054 10.5393L16.6721 7.04883H20.7387Z" fill="#544BFD"/>
<path d="M16.6723 14.0635H20.7389L18.7056 17.5879L16.6723 21.1122L14.639 17.5879L12.6057 14.0635H16.6723Z" fill="#544BFD"/>
<path d="M32.9387 28.127H36.9714L34.9381 31.6513L32.9387 35.1757L30.9054 31.6513L28.8721 28.127H32.9387Z" fill="#544BFD"/>
<path d="M24.8054 14.0635H28.872L26.8387 17.5879L24.8054 21.1122L22.7721 17.5879L20.7388 14.0635H24.8054Z" fill="#00B8E9"/>
<path d="M8.53876 28.127H12.6054L10.5721 31.6513L8.53876 35.1757L6.50546 31.6513L4.47217 28.127H8.53876Z" fill="#00B8E9"/>
<path d="M72.1832 27.7318L70.2188 22.103H62.5122L60.5477 27.7318H57.0344L64.5521 7.44531H68.2166L75.7343 27.7318H72.1832ZM69.3499 19.2697L67.4232 13.7541C67.3477 13.5275 67.2343 13.1875 67.121 12.7342C66.9699 12.2808 66.8566 11.8653 66.7055 11.4119C66.5544 10.9586 66.441 10.5808 66.3655 10.2408C66.2899 10.6186 66.1766 11.0342 66.0255 11.4875C65.8744 11.9408 65.761 12.3942 65.6477 12.8097C65.5344 13.2253 65.421 13.5275 65.3833 13.7541L63.4566 19.2697H69.3499Z" fill="white"/>
<path d="M95.4918 27.7321H91.6763L85.4052 18.5522L83.403 20.1766V27.7321H80.0786V7.52118H83.403V17.1922C83.8186 16.7011 84.2341 16.21 84.6497 15.6811C85.0652 15.19 85.4808 14.6989 85.8963 14.17L91.6007 7.4834H95.3407L87.7852 16.3233L95.4918 27.7321Z" fill="white"/>
<path d="M99.8362 27.7315V7.52051H103.161V27.7315H99.8362Z" fill="white"/>
<path d="M110.187 27.7315V7.52051H113.511V24.8982H122.087V27.7315H110.187Z" fill="white"/>
<path d="M139.767 27.7318L137.802 22.103H130.096L128.131 27.7318H124.618L132.136 7.44531H135.8L143.318 27.7318H139.767ZM136.933 19.2697L135.007 13.7541C134.931 13.5275 134.818 13.1875 134.705 12.7342C134.553 12.2808 134.44 11.8653 134.289 11.4119C134.138 10.9586 134.025 10.5808 133.949 10.2408C133.873 10.6186 133.76 11.0342 133.609 11.4875C133.458 11.9408 133.345 12.3942 133.231 12.8097C133.118 13.2253 133.005 13.5275 132.929 13.7541L131.002 19.2697H136.933Z" fill="white"/>
<path d="M157.457 26.6203H155.078L161.957 7.88602H164.299L171.178 26.6203H168.8L163.201 10.8498H163.055L157.457 26.6203ZM158.335 19.3022H167.922V21.3147H158.335V19.3022Z" fill="white"/>
<path d="M188.952 7.88602V26.6203H186.756L176.548 11.911H176.365V26.6203H174.096V7.88602H176.292L186.537 22.6319H186.72V7.88602H188.952Z" fill="white"/>
<path d="M194.26 26.6203H191.881L198.76 7.88602H201.102L207.981 26.6203H205.603L200.004 10.8498H199.858L194.26 26.6203ZM195.138 19.3022H204.725V21.3147H195.138V19.3022Z" fill="white"/>
<path d="M210.899 26.6203V7.88602H213.168V24.6078H221.876V26.6203H210.899Z" fill="white"/>
<path d="M222.899 7.88602H225.496L230.692 16.6311H230.912L236.108 7.88602H238.706L231.936 18.8997V26.6203H229.668V18.8997L222.899 7.88602Z" fill="white"/>
<path d="M241.797 9.89848V7.88602H255.848V9.89848H249.957V26.6203H247.689V9.89848H241.797Z" fill="white"/>
<path d="M261.618 7.88602V26.6203H259.349V7.88602H261.618Z" fill="white"/>
<path d="M281.242 13.7405H278.973C278.839 13.0879 278.604 12.5147 278.269 12.0207C277.94 11.5268 277.537 11.1121 277.061 10.7767C276.592 10.4351 276.07 10.179 275.497 10.0083C274.924 9.8375 274.326 9.75212 273.704 9.75212C272.57 9.75212 271.542 10.0387 270.622 10.612C269.707 11.1852 268.978 12.0299 268.435 13.1459C267.899 14.2619 267.63 15.631 267.63 17.2531C267.63 18.8753 267.899 20.2444 268.435 21.3604C268.978 22.4764 269.707 23.321 270.622 23.8943C271.542 24.4675 272.57 24.7542 273.704 24.7542C274.326 24.7542 274.924 24.6688 275.497 24.498C276.07 24.3273 276.592 24.0742 277.061 23.7388C277.537 23.3973 277.94 22.9795 278.269 22.4856C278.604 21.9855 278.839 21.4122 278.973 20.7658H281.242C281.071 21.7233 280.76 22.5801 280.309 23.3363C279.858 24.0925 279.296 24.7359 278.626 25.2664C277.955 25.7909 277.202 26.1903 276.366 26.4648C275.537 26.7392 274.65 26.8764 273.704 26.8764C272.106 26.8764 270.686 26.4861 269.441 25.7055C268.197 24.9249 267.219 23.815 266.505 22.3758C265.792 20.9366 265.435 19.229 265.435 17.2531C265.435 15.2773 265.792 13.5697 266.505 12.1305C267.219 10.6913 268.197 9.58137 269.441 8.80077C270.686 8.02018 272.106 7.62988 273.704 7.62988C274.65 7.62988 275.537 7.7671 276.366 8.04152C277.202 8.31595 277.955 8.71845 278.626 9.24901C279.296 9.77347 279.858 10.4138 280.309 11.17C280.76 11.9201 281.071 12.7769 281.242 13.7405Z" fill="white"/>
<path d="M295.153 12.5696C295.043 11.6426 294.598 10.923 293.817 10.4107C293.037 9.89848 292.079 9.64235 290.945 9.64235C290.116 9.64235 289.39 9.77652 288.768 10.0448C288.152 10.3132 287.67 10.6821 287.323 11.1517C286.981 11.6213 286.81 12.1549 286.81 12.7525C286.81 13.2526 286.929 13.6825 287.167 14.0423C287.411 14.396 287.722 14.6918 288.1 14.9297C288.478 15.1614 288.875 15.3535 289.289 15.506C289.704 15.6523 290.085 15.7712 290.433 15.8627L292.336 16.375C292.823 16.503 293.366 16.6799 293.964 16.9055C294.568 17.1312 295.144 17.4391 295.693 17.8294C296.248 18.2136 296.705 18.7076 297.065 19.3113C297.425 19.9151 297.605 20.656 297.605 21.5342C297.605 22.5465 297.339 23.4613 296.809 24.2785C296.284 25.0957 295.516 25.7451 294.504 26.2269C293.497 26.7087 292.275 26.9496 290.835 26.9496C289.494 26.9496 288.332 26.7331 287.35 26.3001C286.374 25.8671 285.606 25.2634 285.045 24.4889C284.49 23.7144 284.176 22.8149 284.103 21.7903H286.445C286.506 22.4978 286.743 23.0832 287.158 23.5467C287.579 24.0041 288.109 24.3456 288.75 24.5712C289.396 24.7907 290.091 24.9005 290.835 24.9005C291.701 24.9005 292.479 24.7603 293.168 24.4797C293.857 24.1931 294.403 23.7967 294.805 23.2905C295.208 22.7783 295.409 22.1806 295.409 21.4976C295.409 20.8756 295.235 20.3694 294.888 19.9791C294.54 19.5888 294.083 19.2717 293.516 19.0278C292.948 18.7838 292.336 18.5704 291.677 18.3874L289.372 17.7288C287.908 17.308 286.749 16.7073 285.896 15.9267C285.042 15.1461 284.615 14.1247 284.615 12.8623C284.615 11.8134 284.899 10.8986 285.466 10.118C286.039 9.33133 286.807 8.72149 287.771 8.28851C288.741 7.84942 289.823 7.62988 291.018 7.62988C292.226 7.62988 293.299 7.84638 294.238 8.27936C295.177 8.70625 295.921 9.29169 296.47 10.0357C297.025 10.7797 297.318 11.6243 297.348 12.5696H295.153Z" fill="white"/>
</svg>
