<svg width="435" height="433" viewBox="0 0 435 433" fill="none" xmlns="http://www.w3.org/2000/svg">
<path d="M101.509 0C70.1772 7.93582 61.4705 16.4044 55.9978 36.0747L74.0454 378H407.534C428.272 366.931 434.635 350.44 434.998 299.577C424.702 197.51 412.139 139.329 393.41 36.0747C383.966 21.7603 381.913 12.2025 344.76 10.9793L101.509 0Z" fill="url(#paint0_linear_178_3039)"/>
<path d="M0.997803 337.695L38.5177 55.5321C47.4966 34.2465 55.4973 24.4931 82.0409 13.5078C165.924 5.63801 233.869 3.95855 347.682 0C377.015 8.8112 394.607 13.5281 409.215 55.5321C412.698 169.345 416.365 250.574 415.968 324.938C414.77 357.978 407.416 371.127 381.45 384.222C224.095 413.091 137.985 428.655 64.0313 433C19.4349 419.114 1.325 399.961 0.997803 337.695Z" fill="#0D0D0D"/>
<defs>
<linearGradient id="paint0_linear_178_3039" x1="245.498" y1="0" x2="245.498" y2="378" gradientUnits="userSpaceOnUse">
<stop stop-color="#3BB3C1"/>
<stop offset="1" stop-color="#1B8895"/>
</linearGradient>
</defs>
</svg>
