<svg width="348" height="405" viewBox="0 0 348 405" fill="none" xmlns="http://www.w3.org/2000/svg">
<g filter="url(#filter0_d_178_3049)">
<path d="M311.438 76.9442C318.378 154.531 321.798 196.846 323.461 261.165C321.074 286.15 316.534 296.946 298.481 306.239C225.843 337.489 175.162 361.545 115.707 384.142C90.6523 386.763 80.9082 381.404 71.0863 367.867C50.8888 318.256 41.0987 262.347 22.0284 192.093C17.1517 164.68 21.1673 152.773 41.4711 138.187C117.089 94.3076 227.382 33.446 227.382 33.446C227.382 33.446 248.217 19.8939 261.694 20.9449C277.664 23.779 285.028 28.2474 294.684 37.9852C305.86 49.503 309.499 58.0447 311.438 76.9442Z" fill="url(#paint0_linear_178_3049)"/>
</g>
<path d="M307.571 78.4728C304.532 156.31 302.512 198.715 295.937 262.718C290.374 287.193 284.49 297.32 265.397 304.228C189.359 325.932 136.019 343.31 74.1623 358.118C48.9776 357.514 39.9989 350.953 31.9888 336.271C18.3015 284.485 15.7416 227.783 5.81219 155.667C4.48123 127.855 9.98657 116.559 31.9888 104.69C112.597 70.8404 229.768 24.5828 229.768 24.5828C229.768 24.5828 252.165 13.8063 265.397 16.5721C280.873 21.4251 287.606 26.7986 295.937 37.6912C305.548 50.5436 308.065 59.4806 307.571 78.4728Z" fill="#0D0D0D"/>
<defs>
<filter id="filter0_d_178_3049" x="0.153809" y="0.886719" width="343.307" height="403.9" filterUnits="userSpaceOnUse" color-interpolation-filters="sRGB">
<feFlood flood-opacity="0" result="BackgroundImageFix"/>
<feColorMatrix in="SourceAlpha" type="matrix" values="0 0 0 0 0 0 0 0 0 0 0 0 0 0 0 0 0 0 127 0" result="hardAlpha"/>
<feOffset/>
<feGaussianBlur stdDeviation="10"/>
<feComposite in2="hardAlpha" operator="out"/>
<feColorMatrix type="matrix" values="0 0 0 0 0 0 0 0 0 0 0 0 0 0 0 0 0 0 0.1 0"/>
<feBlend mode="normal" in2="BackgroundImageFix" result="effect1_dropShadow_178_3049"/>
<feBlend mode="normal" in="SourceGraphic" in2="effect1_dropShadow_178_3049" result="shape"/>
</filter>
<linearGradient id="paint0_linear_178_3049" x1="153.76" y1="34.4041" x2="197.495" y2="373.596" gradientUnits="userSpaceOnUse">
<stop stop-color="#3BB3C1"/>
<stop offset="1" stop-color="#1B8895"/>
</linearGradient>
</defs>
</svg>
