<svg width="37" height="36" viewBox="0 0 37 36" fill="none" xmlns="http://www.w3.org/2000/svg">
<path d="M12.8576 16.5501C12.1178 16.5526 11.3912 16.7454 10.7476 17.1101C11.6537 14.7646 13.1566 12.6964 15.1076 11.1101C15.2192 11.0181 15.3116 10.9051 15.3795 10.7775C15.4475 10.6498 15.4896 10.5101 15.5036 10.3661C15.5175 10.2222 15.5029 10.0769 15.4607 9.93864C15.4185 9.80033 15.3495 9.6717 15.2576 9.56007C15.1656 9.44845 15.0526 9.35602 14.925 9.28807C14.7973 9.22013 14.6575 9.17798 14.5136 9.16406C14.3697 9.15013 14.2244 9.16468 14.0861 9.2069C13.9478 9.24911 13.8192 9.31815 13.7076 9.41007C9.70755 12.6601 7.92755 17.1601 7.92755 19.9501C7.93444 20.9366 8.22842 21.8997 8.77359 22.7219C9.31876 23.5441 10.0915 24.1898 10.9976 24.5801C11.5839 24.8641 12.226 25.0144 12.8776 25.0201C13.451 25.0479 14.0242 24.9591 14.5622 24.7588C15.1003 24.5586 15.5921 24.2511 16.0079 23.8551C16.4236 23.4591 16.7545 22.9828 16.9807 22.4551C17.2068 21.9274 17.3234 21.3592 17.3234 20.7851C17.3234 20.2109 17.2068 19.6428 16.9807 19.1151C16.7545 18.5873 16.4236 18.111 16.0079 17.715C15.5921 17.319 15.1003 17.0116 14.5622 16.8113C14.0242 16.6111 13.451 16.5222 12.8776 16.5501H12.8576Z" fill="url(#paint0_linear_178_3087)"/>
<path d="M23.9982 16.55C23.2583 16.5516 22.5315 16.7445 21.8882 17.11C22.794 14.767 24.2929 12.6995 26.2382 11.11C26.3599 11.0223 26.4624 10.9105 26.5394 10.7816C26.6163 10.6528 26.6661 10.5095 26.6856 10.3607C26.7051 10.2119 26.694 10.0607 26.6529 9.91633C26.6118 9.77198 26.5415 9.63758 26.4465 9.52139C26.3515 9.40519 26.2338 9.30967 26.1005 9.2407C25.9672 9.17173 25.8211 9.13077 25.6714 9.12034C25.5217 9.1099 25.3714 9.13022 25.2298 9.18004C25.0883 9.22986 24.9584 9.30812 24.8482 9.41002C20.8482 12.66 19.0682 17.16 19.0682 19.95C19.0729 20.9253 19.3583 21.8787 19.8903 22.6962C20.4223 23.5136 21.1783 24.1607 22.0682 24.56C22.6694 24.8524 23.3297 25.0029 23.9982 25C24.5716 25.0279 25.1448 24.939 25.6829 24.7388C26.221 24.5385 26.7128 24.2311 27.1285 23.8351C27.5442 23.4391 27.8752 22.9628 28.1013 22.435C28.3274 21.9073 28.444 21.3392 28.444 20.765C28.444 20.1909 28.3274 19.6227 28.1013 19.095C27.8752 18.5673 27.5442 18.091 27.1285 17.695C26.7128 17.299 26.221 16.9915 25.6829 16.7913C25.1448 16.591 24.5716 16.5021 23.9982 16.53V16.55Z" fill="url(#paint1_linear_178_3087)"/>
<defs>
<linearGradient id="paint0_linear_178_3087" x1="12.6255" y1="9.15894" x2="12.6255" y2="25.0251" gradientUnits="userSpaceOnUse">
<stop stop-color="#3BB3C1"/>
<stop offset="1" stop-color="#1B8895"/>
</linearGradient>
<linearGradient id="paint1_linear_178_3087" x1="23.7561" y1="9.11768" x2="23.7561" y2="25.005" gradientUnits="userSpaceOnUse">
<stop stop-color="#3BB3C1"/>
<stop offset="1" stop-color="#1B8895"/>
</linearGradient>
</defs>
</svg>
